%TF.GenerationSoftware,KiCad,Pcbnew,10.0.5*%
%TF.CreationDate,2026-08-07T16:39:31+02:00*%
%TF.ProjectId,wisp,77697370-2e6b-4696-9361-645f70636258,rev?*%
%TF.SameCoordinates,Original*%
%TF.FileFunction,Soldermask,Top*%
%TF.FilePolarity,Negative*%
%FSLAX46Y46*%
G04 Gerber Fmt 4.6, Leading zero omitted, Abs format (unit mm)*
G04 Created by KiCad (PCBNEW 10.0.5) date 2026-08-07 16:39:31*
%MOMM*%
%LPD*%
G01*
G04 APERTURE LIST*
G04 Aperture macros list*
%AMRoundRect*
0 Rectangle with rounded corners*
0 $1 Rounding radius*
0 $2 $3 $4 $5 $6 $7 $8 $9 X,Y pos of 4 corners*
0 Add a 4 corners polygon primitive as box body*
4,1,4,$2,$3,$4,$5,$6,$7,$8,$9,$2,$3,0*
0 Add four circle primitives for the rounded corners*
1,1,$1+$1,$2,$3*
1,1,$1+$1,$4,$5*
1,1,$1+$1,$6,$7*
1,1,$1+$1,$8,$9*
0 Add four rect primitives between the rounded corners*
20,1,$1+$1,$2,$3,$4,$5,0*
20,1,$1+$1,$4,$5,$6,$7,0*
20,1,$1+$1,$6,$7,$8,$9,0*
20,1,$1+$1,$8,$9,$2,$3,0*%
G04 Aperture macros list end*
%ADD10R,1.700000X1.700000*%
%ADD11C,1.700000*%
%ADD12R,1.500000X1.500000*%
%ADD13R,2.000000X4.200000*%
%ADD14R,1.050000X0.650000*%
%ADD15C,3.200000*%
%ADD16RoundRect,0.125000X-0.125000X-0.137500X0.125000X-0.137500X0.125000X0.137500X-0.125000X0.137500X0*%
%ADD17RoundRect,0.212500X-0.737500X-0.212500X0.737500X-0.212500X0.737500X0.212500X-0.737500X0.212500X0*%
%ADD18RoundRect,0.212500X-0.212500X-0.737500X0.212500X-0.737500X0.212500X0.737500X-0.212500X0.737500X0*%
%ADD19R,4.800000X4.800000*%
%ADD20C,0.650000*%
%ADD21RoundRect,0.150000X0.575000X-0.150000X0.575000X0.150000X-0.575000X0.150000X-0.575000X-0.150000X0*%
%ADD22RoundRect,0.075000X0.650000X-0.075000X0.650000X0.075000X-0.650000X0.075000X-0.650000X-0.075000X0*%
%ADD23O,2.100000X1.000000*%
%ADD24O,1.600000X1.000000*%
%ADD25RoundRect,0.150000X-0.512500X-0.150000X0.512500X-0.150000X0.512500X0.150000X-0.512500X0.150000X0*%
%ADD26R,1.500000X0.900000*%
%ADD27R,0.900000X1.500000*%
%ADD28C,0.600000*%
%ADD29R,4.200000X4.200000*%
%ADD30R,0.300000X0.400000*%
%ADD31RoundRect,0.090000X-0.660000X-0.360000X0.660000X-0.360000X0.660000X0.360000X-0.660000X0.360000X0*%
%ADD32RoundRect,0.250000X-0.375000X-1.075000X0.375000X-1.075000X0.375000X1.075000X-0.375000X1.075000X0*%
G04 APERTURE END LIST*
D10*
%TO.C,J3*%
X70000000Y-36000000D03*
D11*
X70000000Y-38540000D03*
X70000000Y-41080000D03*
X70000000Y-43620000D03*
%TD*%
D12*
%TO.C,TP9*%
X18000000Y-34000000D03*
%TD*%
D13*
%TO.C,BZ1*%
X10000000Y-70000000D03*
X18000000Y-70000000D03*
%TD*%
D12*
%TO.C,TP3*%
X30000000Y-34000000D03*
%TD*%
D10*
%TO.C,J5*%
X22000000Y-60000000D03*
D11*
X22000000Y-62540000D03*
%TD*%
D14*
%TO.C,SW1*%
X3925000Y-38925000D03*
X8075000Y-38925000D03*
X3925000Y-41075000D03*
X8075000Y-41075000D03*
%TD*%
D15*
%TO.C,MH4*%
X71000000Y-76000000D03*
%TD*%
D12*
%TO.C,TP7*%
X30000000Y-37000000D03*
%TD*%
%TO.C,TP2*%
X27000000Y-34000000D03*
%TD*%
D16*
%TO.C,U5*%
X38800000Y-42812500D03*
X39600000Y-42812500D03*
X40400000Y-42812500D03*
X41200000Y-42812500D03*
X41200000Y-45187500D03*
X40400000Y-45187500D03*
X39600000Y-45187500D03*
X38800000Y-45187500D03*
%TD*%
D17*
%TO.C,U4*%
X19850000Y-43500000D03*
X19850000Y-44750000D03*
X19850000Y-46000000D03*
X19850000Y-47250000D03*
X19850000Y-48500000D03*
D18*
X21500000Y-50150000D03*
X22750000Y-50150000D03*
X24000000Y-50150000D03*
X25250000Y-50150000D03*
X26500000Y-50150000D03*
D17*
X28150000Y-48500000D03*
X28150000Y-47250000D03*
X28150000Y-46000000D03*
X28150000Y-44750000D03*
X28150000Y-43500000D03*
D18*
X26500000Y-41850000D03*
X25250000Y-41850000D03*
X24000000Y-41850000D03*
X22750000Y-41850000D03*
X21500000Y-41850000D03*
D19*
X24000000Y-46000000D03*
%TD*%
D14*
%TO.C,SW2*%
X9925000Y-38925000D03*
X14075000Y-38925000D03*
X9925000Y-41075000D03*
X14075000Y-41075000D03*
%TD*%
D15*
%TO.C,MH1*%
X4000000Y-4000000D03*
%TD*%
D12*
%TO.C,TP10*%
X36000000Y-37000000D03*
%TD*%
D20*
%TO.C,J1*%
X14400000Y-11890000D03*
X14400000Y-6110000D03*
D21*
X12955000Y-12250000D03*
X12955000Y-11450000D03*
D22*
X12955000Y-10250000D03*
X12955000Y-9250000D03*
X12955000Y-8750000D03*
X12955000Y-7750000D03*
D21*
X12955000Y-6550000D03*
X12955000Y-5750000D03*
X12955000Y-5750000D03*
X12955000Y-6550000D03*
D22*
X12955000Y-7250000D03*
X12955000Y-8250000D03*
X12955000Y-9750000D03*
X12955000Y-10750000D03*
D21*
X12955000Y-11450000D03*
X12955000Y-12250000D03*
D23*
X13870000Y-13320000D03*
D24*
X18050000Y-13320000D03*
D23*
X13870000Y-4680000D03*
D24*
X18050000Y-4680000D03*
%TD*%
D25*
%TO.C,U2*%
X34862500Y-9050000D03*
X34862500Y-10000000D03*
X34862500Y-10950000D03*
X37137500Y-10950000D03*
X37137500Y-10000000D03*
X37137500Y-9050000D03*
%TD*%
D26*
%TO.C,U3*%
X49250000Y-20750000D03*
X49250000Y-22020000D03*
X49250000Y-23290000D03*
X49250000Y-24560000D03*
X49250000Y-25830000D03*
X49250000Y-27100000D03*
X49250000Y-28370000D03*
X49250000Y-29640000D03*
X49250000Y-30910000D03*
X49250000Y-32180000D03*
X49250000Y-33450000D03*
X49250000Y-34720000D03*
X49250000Y-35990000D03*
X49250000Y-37260000D03*
D27*
X52290000Y-38510000D03*
X53560000Y-38510000D03*
X54830000Y-38510000D03*
X56100000Y-38510000D03*
X57370000Y-38510000D03*
X58640000Y-38510000D03*
X59910000Y-38510000D03*
X61180000Y-38510000D03*
X62450000Y-38510000D03*
X63720000Y-38510000D03*
D26*
X66750000Y-37260000D03*
X66750000Y-35990000D03*
X66750000Y-34720000D03*
X66750000Y-33450000D03*
X66750000Y-32180000D03*
X66750000Y-30910000D03*
X66750000Y-29640000D03*
X66750000Y-28370000D03*
X66750000Y-27100000D03*
X66750000Y-25830000D03*
X66750000Y-24560000D03*
X66750000Y-23290000D03*
X66750000Y-22020000D03*
X66750000Y-20750000D03*
D28*
X55795000Y-27327500D03*
X55795000Y-28852500D03*
X56557500Y-26565000D03*
X56557500Y-28090000D03*
X56557500Y-29615000D03*
X57320000Y-27327500D03*
D29*
X57320000Y-28090000D03*
D28*
X57320000Y-28852500D03*
X58082500Y-26565000D03*
X58082500Y-28090000D03*
X58082500Y-29615000D03*
X58845000Y-27327500D03*
X58845000Y-28852500D03*
%TD*%
D30*
%TO.C,U6*%
X51500000Y-45100000D03*
X52000000Y-45100000D03*
X52500000Y-45100000D03*
X52500000Y-46900000D03*
X52000000Y-46900000D03*
X51500000Y-46900000D03*
%TD*%
D12*
%TO.C,TP5*%
X24000000Y-37000000D03*
%TD*%
D15*
%TO.C,MH3*%
X4000000Y-76000000D03*
%TD*%
D10*
%TO.C,J2*%
X70000000Y-20000000D03*
D11*
X70000000Y-22540000D03*
X70000000Y-25080000D03*
X70000000Y-27620000D03*
%TD*%
D10*
%TO.C,J7*%
X38000000Y-60000000D03*
D11*
X38000000Y-62540000D03*
X38000000Y-65080000D03*
%TD*%
D12*
%TO.C,TP1*%
X24000000Y-34000000D03*
%TD*%
D31*
%TO.C,D1*%
X23550000Y-4350000D03*
X23550000Y-7650000D03*
X28450000Y-7650000D03*
X28450000Y-4350000D03*
%TD*%
D10*
%TO.C,J9*%
X56000000Y-60000000D03*
D11*
X56000000Y-62540000D03*
X56000000Y-65080000D03*
X56000000Y-67620000D03*
X56000000Y-70160000D03*
X56000000Y-72700000D03*
%TD*%
D15*
%TO.C,MH2*%
X71000000Y-4000000D03*
%TD*%
D12*
%TO.C,TP4*%
X33000000Y-34000000D03*
%TD*%
%TO.C,TP6*%
X27000000Y-37000000D03*
%TD*%
D10*
%TO.C,J4*%
X70000000Y-52000000D03*
D11*
X70000000Y-54540000D03*
X70000000Y-57080000D03*
X70000000Y-59620000D03*
X70000000Y-62160000D03*
%TD*%
D12*
%TO.C,TP8*%
X33000000Y-37000000D03*
%TD*%
D10*
%TO.C,J8*%
X46000000Y-60000000D03*
D11*
X46000000Y-62540000D03*
X46000000Y-65080000D03*
%TD*%
D10*
%TO.C,J6*%
X30000000Y-60000000D03*
D11*
X30000000Y-62540000D03*
%TD*%
D32*
%TO.C,L1*%
X34600000Y-17000000D03*
X37400000Y-17000000D03*
%TD*%
M02*
