M48
; DRILL file KiCad 10.0.5 date 2026-08-07T16:39:37
; FORMAT={-:-/ absolute / metric / decimal}
; #@! TF.CreationDate,2026-08-07T16:39:37+02:00
; #@! TF.GenerationSoftware,Kicad,Pcbnew,10.0.5
; #@! TF.FileFunction,MixedPlating,1,2
FMAT,2
METRIC
; #@! TA.AperFunction,Plated,PTH,ViaDrill
T1C0.300
; #@! TA.AperFunction,Plated,PTH,ComponentDrill
T2C0.300
; #@! TA.AperFunction,Plated,PTH,ComponentDrill
T3C0.600
; #@! TA.AperFunction,Plated,PTH,ComponentDrill
T4C1.000
; #@! TA.AperFunction,NonPlated,NPTH,ComponentDrill
T5C0.650
; #@! TA.AperFunction,NonPlated,NPTH,ComponentDrill
T6C3.200
%
G90
G05
T1
X6.567Y-39.725
X8.0Y-37.594
X10.298Y-16.236
X11.084Y-10.03
X12.743Y-40.362
X12.867Y-39.382
X13.479Y-31.572
X13.638Y-30.33
X13.682Y-23.954
X14.023Y-29.014
X14.198Y-10.595
X14.57Y-34.577
X15.808Y-69.704
X16.105Y-34.828
X18.513Y-25.356
X18.562Y-24.309
X20.56Y-49.711
X20.678Y-58.173
X21.242Y-18.698
X21.593Y-72.674
X22.173Y-27.949
X23.77Y-59.554
X24.485Y-40.0
X26.378Y-10.305
X26.484Y-38.265
X27.784Y-6.255
X29.109Y-49.711
X29.312Y-39.157
X30.27Y-13.266
X30.27Y-28.118
X30.27Y-35.335
X33.678Y-32.273
X35.204Y-13.347
X35.809Y-12.364
X36.055Y-7.288
X36.055Y-35.598
X36.931Y-13.001
X38.947Y-46.488
X39.716Y-43.815
X41.162Y-41.967
X45.269Y-54.967
X46.163Y-56.929
X46.942Y-54.965
X47.137Y-34.083
X47.511Y-22.399
X47.994Y-36.207
X48.529Y-40.0
X50.857Y-60.452
X51.567Y-45.841
X51.809Y-52.866
X52.343Y-48.785
X52.546Y-37.216
X52.97Y-40.337
X53.409Y-54.852
X53.944Y-44.418
X54.214Y-36.195
X55.658Y-40.243
X55.789Y-43.917
X56.4Y-39.821
X58.344Y-35.529
X59.995Y-36.863
X60.612Y-36.229
X62.153Y-33.728
X62.43Y-50.976
X62.949Y-34.96
X63.965Y-33.699
X64.092Y-27.153
X64.212Y-28.142
X65.245Y-30.37
X66.417Y-39.246
T2
X55.795Y-27.327
X55.795Y-28.852
X56.557Y-26.565
X56.557Y-28.09
X56.557Y-29.615
X57.32Y-27.327
X57.32Y-28.852
X58.082Y-26.565
X58.082Y-28.09
X58.082Y-29.615
X58.845Y-27.327
X58.845Y-28.852
T4
X22.0Y-60.0
X22.0Y-62.54
X30.0Y-60.0
X30.0Y-62.54
X38.0Y-60.0
X38.0Y-62.54
X38.0Y-65.08
X46.0Y-60.0
X46.0Y-62.54
X46.0Y-65.08
X56.0Y-60.0
X56.0Y-62.54
X56.0Y-65.08
X56.0Y-67.62
X56.0Y-70.16
X56.0Y-72.7
X70.0Y-20.0
X70.0Y-22.54
X70.0Y-25.08
X70.0Y-27.62
X70.0Y-36.0
X70.0Y-38.54
X70.0Y-41.08
X70.0Y-43.62
X70.0Y-52.0
X70.0Y-54.54
X70.0Y-57.08
X70.0Y-59.62
X70.0Y-62.16
T5
X14.4Y-6.11
X14.4Y-11.89
T6
X4.0Y-4.0
X4.0Y-76.0
X71.0Y-4.0
X71.0Y-76.0
T3
X13.32Y-4.68G85X14.42Y-4.68
G05
X13.32Y-13.32G85X14.42Y-13.32
G05
X17.75Y-4.68G85X18.35Y-4.68
G05
X17.75Y-13.32G85X18.35Y-13.32
G05
M30
