%TF.GenerationSoftware,KiCad,Pcbnew,10.0.5*%
%TF.CreationDate,2026-08-07T22:43:49+02:00*%
%TF.ProjectId,wisp,77697370-2e6b-4696-9361-645f70636258,rev?*%
%TF.SameCoordinates,Original*%
%TF.FileFunction,Legend,Top*%
%TF.FilePolarity,Positive*%
%FSLAX46Y46*%
G04 Gerber Fmt 4.6, Leading zero omitted, Abs format (unit mm)*
G04 Created by KiCad (PCBNEW 10.0.5) date 2026-08-07 22:43:49*
%MOMM*%
%LPD*%
G01*
G04 APERTURE LIST*
%ADD10C,0.150000*%
%ADD11C,0.120000*%
G04 APERTURE END LIST*
D10*
X38241541Y-49788152D02*
X38432017Y-50454819D01*
X38432017Y-50454819D02*
X38622493Y-49978628D01*
X38622493Y-49978628D02*
X38812969Y-50454819D01*
X38812969Y-50454819D02*
X39003445Y-49788152D01*
X39384398Y-50454819D02*
X39384398Y-49788152D01*
X39384398Y-49454819D02*
X39336779Y-49502438D01*
X39336779Y-49502438D02*
X39384398Y-49550057D01*
X39384398Y-49550057D02*
X39432017Y-49502438D01*
X39432017Y-49502438D02*
X39384398Y-49454819D01*
X39384398Y-49454819D02*
X39384398Y-49550057D01*
X39812969Y-50407200D02*
X39908207Y-50454819D01*
X39908207Y-50454819D02*
X40098683Y-50454819D01*
X40098683Y-50454819D02*
X40193921Y-50407200D01*
X40193921Y-50407200D02*
X40241540Y-50311961D01*
X40241540Y-50311961D02*
X40241540Y-50264342D01*
X40241540Y-50264342D02*
X40193921Y-50169104D01*
X40193921Y-50169104D02*
X40098683Y-50121485D01*
X40098683Y-50121485D02*
X39955826Y-50121485D01*
X39955826Y-50121485D02*
X39860588Y-50073866D01*
X39860588Y-50073866D02*
X39812969Y-49978628D01*
X39812969Y-49978628D02*
X39812969Y-49931009D01*
X39812969Y-49931009D02*
X39860588Y-49835771D01*
X39860588Y-49835771D02*
X39955826Y-49788152D01*
X39955826Y-49788152D02*
X40098683Y-49788152D01*
X40098683Y-49788152D02*
X40193921Y-49835771D01*
X40670112Y-49788152D02*
X40670112Y-50788152D01*
X40670112Y-49835771D02*
X40765350Y-49788152D01*
X40765350Y-49788152D02*
X40955826Y-49788152D01*
X40955826Y-49788152D02*
X41051064Y-49835771D01*
X41051064Y-49835771D02*
X41098683Y-49883390D01*
X41098683Y-49883390D02*
X41146302Y-49978628D01*
X41146302Y-49978628D02*
X41146302Y-50264342D01*
X41146302Y-50264342D02*
X41098683Y-50359580D01*
X41098683Y-50359580D02*
X41051064Y-50407200D01*
X41051064Y-50407200D02*
X40955826Y-50454819D01*
X40955826Y-50454819D02*
X40765350Y-50454819D01*
X40765350Y-50454819D02*
X40670112Y-50407200D01*
X42241541Y-49788152D02*
X42479636Y-50454819D01*
X42479636Y-50454819D02*
X42717731Y-49788152D01*
X43622493Y-50454819D02*
X43051065Y-50454819D01*
X43336779Y-50454819D02*
X43336779Y-49454819D01*
X43336779Y-49454819D02*
X43241541Y-49597676D01*
X43241541Y-49597676D02*
X43146303Y-49692914D01*
X43146303Y-49692914D02*
X43051065Y-49740533D01*
X44812970Y-50073866D02*
X45574875Y-50073866D01*
X46765351Y-50169104D02*
X47241541Y-50169104D01*
X46670113Y-50454819D02*
X47003446Y-49454819D01*
X47003446Y-49454819D02*
X47336779Y-50454819D01*
X47670113Y-49788152D02*
X47670113Y-50454819D01*
X47670113Y-49883390D02*
X47717732Y-49835771D01*
X47717732Y-49835771D02*
X47812970Y-49788152D01*
X47812970Y-49788152D02*
X47955827Y-49788152D01*
X47955827Y-49788152D02*
X48051065Y-49835771D01*
X48051065Y-49835771D02*
X48098684Y-49931009D01*
X48098684Y-49931009D02*
X48098684Y-50454819D01*
X49003446Y-50454819D02*
X49003446Y-49454819D01*
X49003446Y-50407200D02*
X48908208Y-50454819D01*
X48908208Y-50454819D02*
X48717732Y-50454819D01*
X48717732Y-50454819D02*
X48622494Y-50407200D01*
X48622494Y-50407200D02*
X48574875Y-50359580D01*
X48574875Y-50359580D02*
X48527256Y-50264342D01*
X48527256Y-50264342D02*
X48527256Y-49978628D01*
X48527256Y-49978628D02*
X48574875Y-49883390D01*
X48574875Y-49883390D02*
X48622494Y-49835771D01*
X48622494Y-49835771D02*
X48717732Y-49788152D01*
X48717732Y-49788152D02*
X48908208Y-49788152D01*
X48908208Y-49788152D02*
X49003446Y-49835771D01*
X49479637Y-50454819D02*
X49479637Y-49788152D01*
X49479637Y-49978628D02*
X49527256Y-49883390D01*
X49527256Y-49883390D02*
X49574875Y-49835771D01*
X49574875Y-49835771D02*
X49670113Y-49788152D01*
X49670113Y-49788152D02*
X49765351Y-49788152D01*
X50479637Y-50407200D02*
X50384399Y-50454819D01*
X50384399Y-50454819D02*
X50193923Y-50454819D01*
X50193923Y-50454819D02*
X50098685Y-50407200D01*
X50098685Y-50407200D02*
X50051066Y-50311961D01*
X50051066Y-50311961D02*
X50051066Y-49931009D01*
X50051066Y-49931009D02*
X50098685Y-49835771D01*
X50098685Y-49835771D02*
X50193923Y-49788152D01*
X50193923Y-49788152D02*
X50384399Y-49788152D01*
X50384399Y-49788152D02*
X50479637Y-49835771D01*
X50479637Y-49835771D02*
X50527256Y-49931009D01*
X50527256Y-49931009D02*
X50527256Y-50026247D01*
X50527256Y-50026247D02*
X50051066Y-50121485D01*
X51384399Y-50454819D02*
X51384399Y-49931009D01*
X51384399Y-49931009D02*
X51336780Y-49835771D01*
X51336780Y-49835771D02*
X51241542Y-49788152D01*
X51241542Y-49788152D02*
X51051066Y-49788152D01*
X51051066Y-49788152D02*
X50955828Y-49835771D01*
X51384399Y-50407200D02*
X51289161Y-50454819D01*
X51289161Y-50454819D02*
X51051066Y-50454819D01*
X51051066Y-50454819D02*
X50955828Y-50407200D01*
X50955828Y-50407200D02*
X50908209Y-50311961D01*
X50908209Y-50311961D02*
X50908209Y-50216723D01*
X50908209Y-50216723D02*
X50955828Y-50121485D01*
X50955828Y-50121485D02*
X51051066Y-50073866D01*
X51051066Y-50073866D02*
X51289161Y-50073866D01*
X51289161Y-50073866D02*
X51384399Y-50026247D01*
X51812971Y-50407200D02*
X51908209Y-50454819D01*
X51908209Y-50454819D02*
X52098685Y-50454819D01*
X52098685Y-50454819D02*
X52193923Y-50407200D01*
X52193923Y-50407200D02*
X52241542Y-50311961D01*
X52241542Y-50311961D02*
X52241542Y-50264342D01*
X52241542Y-50264342D02*
X52193923Y-50169104D01*
X52193923Y-50169104D02*
X52098685Y-50121485D01*
X52098685Y-50121485D02*
X51955828Y-50121485D01*
X51955828Y-50121485D02*
X51860590Y-50073866D01*
X51860590Y-50073866D02*
X51812971Y-49978628D01*
X51812971Y-49978628D02*
X51812971Y-49931009D01*
X51812971Y-49931009D02*
X51860590Y-49835771D01*
X51860590Y-49835771D02*
X51955828Y-49788152D01*
X51955828Y-49788152D02*
X52098685Y-49788152D01*
X52098685Y-49788152D02*
X52193923Y-49835771D01*
X53765352Y-49931009D02*
X53908209Y-49978628D01*
X53908209Y-49978628D02*
X53955828Y-50026247D01*
X53955828Y-50026247D02*
X54003447Y-50121485D01*
X54003447Y-50121485D02*
X54003447Y-50264342D01*
X54003447Y-50264342D02*
X53955828Y-50359580D01*
X53955828Y-50359580D02*
X53908209Y-50407200D01*
X53908209Y-50407200D02*
X53812971Y-50454819D01*
X53812971Y-50454819D02*
X53432019Y-50454819D01*
X53432019Y-50454819D02*
X53432019Y-49454819D01*
X53432019Y-49454819D02*
X53765352Y-49454819D01*
X53765352Y-49454819D02*
X53860590Y-49502438D01*
X53860590Y-49502438D02*
X53908209Y-49550057D01*
X53908209Y-49550057D02*
X53955828Y-49645295D01*
X53955828Y-49645295D02*
X53955828Y-49740533D01*
X53955828Y-49740533D02*
X53908209Y-49835771D01*
X53908209Y-49835771D02*
X53860590Y-49883390D01*
X53860590Y-49883390D02*
X53765352Y-49931009D01*
X53765352Y-49931009D02*
X53432019Y-49931009D01*
X54860590Y-50454819D02*
X54860590Y-49931009D01*
X54860590Y-49931009D02*
X54812971Y-49835771D01*
X54812971Y-49835771D02*
X54717733Y-49788152D01*
X54717733Y-49788152D02*
X54527257Y-49788152D01*
X54527257Y-49788152D02*
X54432019Y-49835771D01*
X54860590Y-50407200D02*
X54765352Y-50454819D01*
X54765352Y-50454819D02*
X54527257Y-50454819D01*
X54527257Y-50454819D02*
X54432019Y-50407200D01*
X54432019Y-50407200D02*
X54384400Y-50311961D01*
X54384400Y-50311961D02*
X54384400Y-50216723D01*
X54384400Y-50216723D02*
X54432019Y-50121485D01*
X54432019Y-50121485D02*
X54527257Y-50073866D01*
X54527257Y-50073866D02*
X54765352Y-50073866D01*
X54765352Y-50073866D02*
X54860590Y-50026247D01*
X55765352Y-49788152D02*
X55765352Y-50454819D01*
X55336781Y-49788152D02*
X55336781Y-50311961D01*
X55336781Y-50311961D02*
X55384400Y-50407200D01*
X55384400Y-50407200D02*
X55479638Y-50454819D01*
X55479638Y-50454819D02*
X55622495Y-50454819D01*
X55622495Y-50454819D02*
X55717733Y-50407200D01*
X55717733Y-50407200D02*
X55765352Y-50359580D01*
X56622495Y-50407200D02*
X56527257Y-50454819D01*
X56527257Y-50454819D02*
X56336781Y-50454819D01*
X56336781Y-50454819D02*
X56241543Y-50407200D01*
X56241543Y-50407200D02*
X56193924Y-50311961D01*
X56193924Y-50311961D02*
X56193924Y-49931009D01*
X56193924Y-49931009D02*
X56241543Y-49835771D01*
X56241543Y-49835771D02*
X56336781Y-49788152D01*
X56336781Y-49788152D02*
X56527257Y-49788152D01*
X56527257Y-49788152D02*
X56622495Y-49835771D01*
X56622495Y-49835771D02*
X56670114Y-49931009D01*
X56670114Y-49931009D02*
X56670114Y-50026247D01*
X56670114Y-50026247D02*
X56193924Y-50121485D01*
X57098686Y-50454819D02*
X57098686Y-49788152D01*
X57098686Y-49978628D02*
X57146305Y-49883390D01*
X57146305Y-49883390D02*
X57193924Y-49835771D01*
X57193924Y-49835771D02*
X57289162Y-49788152D01*
X57289162Y-49788152D02*
X57384400Y-49788152D01*
X58479639Y-50073866D02*
X59241544Y-50073866D01*
X60432020Y-49550057D02*
X60479639Y-49502438D01*
X60479639Y-49502438D02*
X60574877Y-49454819D01*
X60574877Y-49454819D02*
X60812972Y-49454819D01*
X60812972Y-49454819D02*
X60908210Y-49502438D01*
X60908210Y-49502438D02*
X60955829Y-49550057D01*
X60955829Y-49550057D02*
X61003448Y-49645295D01*
X61003448Y-49645295D02*
X61003448Y-49740533D01*
X61003448Y-49740533D02*
X60955829Y-49883390D01*
X60955829Y-49883390D02*
X60384401Y-50454819D01*
X60384401Y-50454819D02*
X61003448Y-50454819D01*
X61622496Y-49454819D02*
X61717734Y-49454819D01*
X61717734Y-49454819D02*
X61812972Y-49502438D01*
X61812972Y-49502438D02*
X61860591Y-49550057D01*
X61860591Y-49550057D02*
X61908210Y-49645295D01*
X61908210Y-49645295D02*
X61955829Y-49835771D01*
X61955829Y-49835771D02*
X61955829Y-50073866D01*
X61955829Y-50073866D02*
X61908210Y-50264342D01*
X61908210Y-50264342D02*
X61860591Y-50359580D01*
X61860591Y-50359580D02*
X61812972Y-50407200D01*
X61812972Y-50407200D02*
X61717734Y-50454819D01*
X61717734Y-50454819D02*
X61622496Y-50454819D01*
X61622496Y-50454819D02*
X61527258Y-50407200D01*
X61527258Y-50407200D02*
X61479639Y-50359580D01*
X61479639Y-50359580D02*
X61432020Y-50264342D01*
X61432020Y-50264342D02*
X61384401Y-50073866D01*
X61384401Y-50073866D02*
X61384401Y-49835771D01*
X61384401Y-49835771D02*
X61432020Y-49645295D01*
X61432020Y-49645295D02*
X61479639Y-49550057D01*
X61479639Y-49550057D02*
X61527258Y-49502438D01*
X61527258Y-49502438D02*
X61622496Y-49454819D01*
X62336782Y-49550057D02*
X62384401Y-49502438D01*
X62384401Y-49502438D02*
X62479639Y-49454819D01*
X62479639Y-49454819D02*
X62717734Y-49454819D01*
X62717734Y-49454819D02*
X62812972Y-49502438D01*
X62812972Y-49502438D02*
X62860591Y-49550057D01*
X62860591Y-49550057D02*
X62908210Y-49645295D01*
X62908210Y-49645295D02*
X62908210Y-49740533D01*
X62908210Y-49740533D02*
X62860591Y-49883390D01*
X62860591Y-49883390D02*
X62289163Y-50454819D01*
X62289163Y-50454819D02*
X62908210Y-50454819D01*
X63765353Y-49454819D02*
X63574877Y-49454819D01*
X63574877Y-49454819D02*
X63479639Y-49502438D01*
X63479639Y-49502438D02*
X63432020Y-49550057D01*
X63432020Y-49550057D02*
X63336782Y-49692914D01*
X63336782Y-49692914D02*
X63289163Y-49883390D01*
X63289163Y-49883390D02*
X63289163Y-50264342D01*
X63289163Y-50264342D02*
X63336782Y-50359580D01*
X63336782Y-50359580D02*
X63384401Y-50407200D01*
X63384401Y-50407200D02*
X63479639Y-50454819D01*
X63479639Y-50454819D02*
X63670115Y-50454819D01*
X63670115Y-50454819D02*
X63765353Y-50407200D01*
X63765353Y-50407200D02*
X63812972Y-50359580D01*
X63812972Y-50359580D02*
X63860591Y-50264342D01*
X63860591Y-50264342D02*
X63860591Y-50026247D01*
X63860591Y-50026247D02*
X63812972Y-49931009D01*
X63812972Y-49931009D02*
X63765353Y-49883390D01*
X63765353Y-49883390D02*
X63670115Y-49835771D01*
X63670115Y-49835771D02*
X63479639Y-49835771D01*
X63479639Y-49835771D02*
X63384401Y-49883390D01*
X63384401Y-49883390D02*
X63336782Y-49931009D01*
X63336782Y-49931009D02*
X63289163Y-50026247D01*
D11*
X93066633Y-42183855D02*
X93066633Y-42755283D01*
X93066633Y-42755283D02*
X93028538Y-42869569D01*
X93028538Y-42869569D02*
X92952347Y-42945760D01*
X92952347Y-42945760D02*
X92838062Y-42983855D01*
X92838062Y-42983855D02*
X92761871Y-42983855D01*
X93371395Y-42183855D02*
X93866633Y-42183855D01*
X93866633Y-42183855D02*
X93599967Y-42488617D01*
X93599967Y-42488617D02*
X93714252Y-42488617D01*
X93714252Y-42488617D02*
X93790443Y-42526712D01*
X93790443Y-42526712D02*
X93828538Y-42564807D01*
X93828538Y-42564807D02*
X93866633Y-42640998D01*
X93866633Y-42640998D02*
X93866633Y-42831474D01*
X93866633Y-42831474D02*
X93828538Y-42907664D01*
X93828538Y-42907664D02*
X93790443Y-42945760D01*
X93790443Y-42945760D02*
X93714252Y-42983855D01*
X93714252Y-42983855D02*
X93485681Y-42983855D01*
X93485681Y-42983855D02*
X93409490Y-42945760D01*
X93409490Y-42945760D02*
X93371395Y-42907664D01*
X17961937Y-81944807D02*
X18076223Y-81982902D01*
X18076223Y-81982902D02*
X18114318Y-82020998D01*
X18114318Y-82020998D02*
X18152414Y-82097188D01*
X18152414Y-82097188D02*
X18152414Y-82211474D01*
X18152414Y-82211474D02*
X18114318Y-82287664D01*
X18114318Y-82287664D02*
X18076223Y-82325760D01*
X18076223Y-82325760D02*
X18000033Y-82363855D01*
X18000033Y-82363855D02*
X17695271Y-82363855D01*
X17695271Y-82363855D02*
X17695271Y-81563855D01*
X17695271Y-81563855D02*
X17961937Y-81563855D01*
X17961937Y-81563855D02*
X18038128Y-81601950D01*
X18038128Y-81601950D02*
X18076223Y-81640045D01*
X18076223Y-81640045D02*
X18114318Y-81716236D01*
X18114318Y-81716236D02*
X18114318Y-81792426D01*
X18114318Y-81792426D02*
X18076223Y-81868617D01*
X18076223Y-81868617D02*
X18038128Y-81906712D01*
X18038128Y-81906712D02*
X17961937Y-81944807D01*
X17961937Y-81944807D02*
X17695271Y-81944807D01*
X18419080Y-81563855D02*
X18952414Y-81563855D01*
X18952414Y-81563855D02*
X18419080Y-82363855D01*
X18419080Y-82363855D02*
X18952414Y-82363855D01*
X19676223Y-82363855D02*
X19219080Y-82363855D01*
X19447652Y-82363855D02*
X19447652Y-81563855D01*
X19447652Y-81563855D02*
X19371461Y-81678140D01*
X19371461Y-81678140D02*
X19295271Y-81754331D01*
X19295271Y-81754331D02*
X19219080Y-81792426D01*
X29066633Y-72183855D02*
X29066633Y-72755283D01*
X29066633Y-72755283D02*
X29028538Y-72869569D01*
X29028538Y-72869569D02*
X28952347Y-72945760D01*
X28952347Y-72945760D02*
X28838062Y-72983855D01*
X28838062Y-72983855D02*
X28761871Y-72983855D01*
X29828538Y-72183855D02*
X29447586Y-72183855D01*
X29447586Y-72183855D02*
X29409490Y-72564807D01*
X29409490Y-72564807D02*
X29447586Y-72526712D01*
X29447586Y-72526712D02*
X29523776Y-72488617D01*
X29523776Y-72488617D02*
X29714252Y-72488617D01*
X29714252Y-72488617D02*
X29790443Y-72526712D01*
X29790443Y-72526712D02*
X29828538Y-72564807D01*
X29828538Y-72564807D02*
X29866633Y-72640998D01*
X29866633Y-72640998D02*
X29866633Y-72831474D01*
X29866633Y-72831474D02*
X29828538Y-72907664D01*
X29828538Y-72907664D02*
X29790443Y-72945760D01*
X29790443Y-72945760D02*
X29714252Y-72983855D01*
X29714252Y-72983855D02*
X29523776Y-72983855D01*
X29523776Y-72983855D02*
X29447586Y-72945760D01*
X29447586Y-72945760D02*
X29409490Y-72907664D01*
X6933332Y-47725760D02*
X7047618Y-47763855D01*
X7047618Y-47763855D02*
X7238094Y-47763855D01*
X7238094Y-47763855D02*
X7314285Y-47725760D01*
X7314285Y-47725760D02*
X7352380Y-47687664D01*
X7352380Y-47687664D02*
X7390475Y-47611474D01*
X7390475Y-47611474D02*
X7390475Y-47535283D01*
X7390475Y-47535283D02*
X7352380Y-47459093D01*
X7352380Y-47459093D02*
X7314285Y-47420998D01*
X7314285Y-47420998D02*
X7238094Y-47382902D01*
X7238094Y-47382902D02*
X7085713Y-47344807D01*
X7085713Y-47344807D02*
X7009523Y-47306712D01*
X7009523Y-47306712D02*
X6971428Y-47268617D01*
X6971428Y-47268617D02*
X6933332Y-47192426D01*
X6933332Y-47192426D02*
X6933332Y-47116236D01*
X6933332Y-47116236D02*
X6971428Y-47040045D01*
X6971428Y-47040045D02*
X7009523Y-47001950D01*
X7009523Y-47001950D02*
X7085713Y-46963855D01*
X7085713Y-46963855D02*
X7276190Y-46963855D01*
X7276190Y-46963855D02*
X7390475Y-47001950D01*
X7657142Y-46963855D02*
X7847618Y-47763855D01*
X7847618Y-47763855D02*
X7999999Y-47192426D01*
X7999999Y-47192426D02*
X8152380Y-47763855D01*
X8152380Y-47763855D02*
X8342857Y-46963855D01*
X9066666Y-47763855D02*
X8609523Y-47763855D01*
X8838095Y-47763855D02*
X8838095Y-46963855D01*
X8838095Y-46963855D02*
X8761904Y-47078140D01*
X8761904Y-47078140D02*
X8685714Y-47154331D01*
X8685714Y-47154331D02*
X8609523Y-47192426D01*
X52723776Y-52113855D02*
X52723776Y-52761474D01*
X52723776Y-52761474D02*
X52761871Y-52837664D01*
X52761871Y-52837664D02*
X52799966Y-52875760D01*
X52799966Y-52875760D02*
X52876157Y-52913855D01*
X52876157Y-52913855D02*
X53028538Y-52913855D01*
X53028538Y-52913855D02*
X53104728Y-52875760D01*
X53104728Y-52875760D02*
X53142823Y-52837664D01*
X53142823Y-52837664D02*
X53180919Y-52761474D01*
X53180919Y-52761474D02*
X53180919Y-52113855D01*
X53942823Y-52113855D02*
X53561871Y-52113855D01*
X53561871Y-52113855D02*
X53523775Y-52494807D01*
X53523775Y-52494807D02*
X53561871Y-52456712D01*
X53561871Y-52456712D02*
X53638061Y-52418617D01*
X53638061Y-52418617D02*
X53828537Y-52418617D01*
X53828537Y-52418617D02*
X53904728Y-52456712D01*
X53904728Y-52456712D02*
X53942823Y-52494807D01*
X53942823Y-52494807D02*
X53980918Y-52570998D01*
X53980918Y-52570998D02*
X53980918Y-52761474D01*
X53980918Y-52761474D02*
X53942823Y-52837664D01*
X53942823Y-52837664D02*
X53904728Y-52875760D01*
X53904728Y-52875760D02*
X53828537Y-52913855D01*
X53828537Y-52913855D02*
X53638061Y-52913855D01*
X53638061Y-52913855D02*
X53561871Y-52875760D01*
X53561871Y-52875760D02*
X53523775Y-52837664D01*
X31390476Y-51013855D02*
X31390476Y-51661474D01*
X31390476Y-51661474D02*
X31428571Y-51737664D01*
X31428571Y-51737664D02*
X31466666Y-51775760D01*
X31466666Y-51775760D02*
X31542857Y-51813855D01*
X31542857Y-51813855D02*
X31695238Y-51813855D01*
X31695238Y-51813855D02*
X31771428Y-51775760D01*
X31771428Y-51775760D02*
X31809523Y-51737664D01*
X31809523Y-51737664D02*
X31847619Y-51661474D01*
X31847619Y-51661474D02*
X31847619Y-51013855D01*
X32571428Y-51280521D02*
X32571428Y-51813855D01*
X32380952Y-50975760D02*
X32190475Y-51547188D01*
X32190475Y-51547188D02*
X32685714Y-51547188D01*
X14933332Y-47725760D02*
X15047618Y-47763855D01*
X15047618Y-47763855D02*
X15238094Y-47763855D01*
X15238094Y-47763855D02*
X15314285Y-47725760D01*
X15314285Y-47725760D02*
X15352380Y-47687664D01*
X15352380Y-47687664D02*
X15390475Y-47611474D01*
X15390475Y-47611474D02*
X15390475Y-47535283D01*
X15390475Y-47535283D02*
X15352380Y-47459093D01*
X15352380Y-47459093D02*
X15314285Y-47420998D01*
X15314285Y-47420998D02*
X15238094Y-47382902D01*
X15238094Y-47382902D02*
X15085713Y-47344807D01*
X15085713Y-47344807D02*
X15009523Y-47306712D01*
X15009523Y-47306712D02*
X14971428Y-47268617D01*
X14971428Y-47268617D02*
X14933332Y-47192426D01*
X14933332Y-47192426D02*
X14933332Y-47116236D01*
X14933332Y-47116236D02*
X14971428Y-47040045D01*
X14971428Y-47040045D02*
X15009523Y-47001950D01*
X15009523Y-47001950D02*
X15085713Y-46963855D01*
X15085713Y-46963855D02*
X15276190Y-46963855D01*
X15276190Y-46963855D02*
X15390475Y-47001950D01*
X15657142Y-46963855D02*
X15847618Y-47763855D01*
X15847618Y-47763855D02*
X15999999Y-47192426D01*
X15999999Y-47192426D02*
X16152380Y-47763855D01*
X16152380Y-47763855D02*
X16342857Y-46963855D01*
X16609523Y-47040045D02*
X16647619Y-47001950D01*
X16647619Y-47001950D02*
X16723809Y-46963855D01*
X16723809Y-46963855D02*
X16914285Y-46963855D01*
X16914285Y-46963855D02*
X16990476Y-47001950D01*
X16990476Y-47001950D02*
X17028571Y-47040045D01*
X17028571Y-47040045D02*
X17066666Y-47116236D01*
X17066666Y-47116236D02*
X17066666Y-47192426D01*
X17066666Y-47192426D02*
X17028571Y-47306712D01*
X17028571Y-47306712D02*
X16571428Y-47763855D01*
X16571428Y-47763855D02*
X17066666Y-47763855D01*
X16585555Y-11516666D02*
X17156983Y-11516666D01*
X17156983Y-11516666D02*
X17271269Y-11554761D01*
X17271269Y-11554761D02*
X17347460Y-11630952D01*
X17347460Y-11630952D02*
X17385555Y-11745237D01*
X17385555Y-11745237D02*
X17385555Y-11821428D01*
X17385555Y-10716666D02*
X17385555Y-11173809D01*
X17385555Y-10945237D02*
X16585555Y-10945237D01*
X16585555Y-10945237D02*
X16699840Y-11021428D01*
X16699840Y-11021428D02*
X16776031Y-11097618D01*
X16776031Y-11097618D02*
X16814126Y-11173809D01*
X47390476Y-9663855D02*
X47390476Y-10311474D01*
X47390476Y-10311474D02*
X47428571Y-10387664D01*
X47428571Y-10387664D02*
X47466666Y-10425760D01*
X47466666Y-10425760D02*
X47542857Y-10463855D01*
X47542857Y-10463855D02*
X47695238Y-10463855D01*
X47695238Y-10463855D02*
X47771428Y-10425760D01*
X47771428Y-10425760D02*
X47809523Y-10387664D01*
X47809523Y-10387664D02*
X47847619Y-10311474D01*
X47847619Y-10311474D02*
X47847619Y-9663855D01*
X48190475Y-9740045D02*
X48228571Y-9701950D01*
X48228571Y-9701950D02*
X48304761Y-9663855D01*
X48304761Y-9663855D02*
X48495237Y-9663855D01*
X48495237Y-9663855D02*
X48571428Y-9701950D01*
X48571428Y-9701950D02*
X48609523Y-9740045D01*
X48609523Y-9740045D02*
X48647618Y-9816236D01*
X48647618Y-9816236D02*
X48647618Y-9892426D01*
X48647618Y-9892426D02*
X48609523Y-10006712D01*
X48609523Y-10006712D02*
X48152380Y-10463855D01*
X48152380Y-10463855D02*
X48647618Y-10463855D01*
X66287155Y-45289523D02*
X66934774Y-45289523D01*
X66934774Y-45289523D02*
X67010964Y-45251428D01*
X67010964Y-45251428D02*
X67049060Y-45213333D01*
X67049060Y-45213333D02*
X67087155Y-45137142D01*
X67087155Y-45137142D02*
X67087155Y-44984761D01*
X67087155Y-44984761D02*
X67049060Y-44908571D01*
X67049060Y-44908571D02*
X67010964Y-44870476D01*
X67010964Y-44870476D02*
X66934774Y-44832380D01*
X66934774Y-44832380D02*
X66287155Y-44832380D01*
X66287155Y-44527619D02*
X66287155Y-44032381D01*
X66287155Y-44032381D02*
X66591917Y-44299047D01*
X66591917Y-44299047D02*
X66591917Y-44184762D01*
X66591917Y-44184762D02*
X66630012Y-44108571D01*
X66630012Y-44108571D02*
X66668107Y-44070476D01*
X66668107Y-44070476D02*
X66744298Y-44032381D01*
X66744298Y-44032381D02*
X66934774Y-44032381D01*
X66934774Y-44032381D02*
X67010964Y-44070476D01*
X67010964Y-44070476D02*
X67049060Y-44108571D01*
X67049060Y-44108571D02*
X67087155Y-44184762D01*
X67087155Y-44184762D02*
X67087155Y-44413333D01*
X67087155Y-44413333D02*
X67049060Y-44489524D01*
X67049060Y-44489524D02*
X67010964Y-44527619D01*
X68723776Y-54863855D02*
X68723776Y-55511474D01*
X68723776Y-55511474D02*
X68761871Y-55587664D01*
X68761871Y-55587664D02*
X68799966Y-55625760D01*
X68799966Y-55625760D02*
X68876157Y-55663855D01*
X68876157Y-55663855D02*
X69028538Y-55663855D01*
X69028538Y-55663855D02*
X69104728Y-55625760D01*
X69104728Y-55625760D02*
X69142823Y-55587664D01*
X69142823Y-55587664D02*
X69180919Y-55511474D01*
X69180919Y-55511474D02*
X69180919Y-54863855D01*
X69904728Y-54863855D02*
X69752347Y-54863855D01*
X69752347Y-54863855D02*
X69676156Y-54901950D01*
X69676156Y-54901950D02*
X69638061Y-54940045D01*
X69638061Y-54940045D02*
X69561871Y-55054331D01*
X69561871Y-55054331D02*
X69523775Y-55206712D01*
X69523775Y-55206712D02*
X69523775Y-55511474D01*
X69523775Y-55511474D02*
X69561871Y-55587664D01*
X69561871Y-55587664D02*
X69599966Y-55625760D01*
X69599966Y-55625760D02*
X69676156Y-55663855D01*
X69676156Y-55663855D02*
X69828537Y-55663855D01*
X69828537Y-55663855D02*
X69904728Y-55625760D01*
X69904728Y-55625760D02*
X69942823Y-55587664D01*
X69942823Y-55587664D02*
X69980918Y-55511474D01*
X69980918Y-55511474D02*
X69980918Y-55320998D01*
X69980918Y-55320998D02*
X69942823Y-55244807D01*
X69942823Y-55244807D02*
X69904728Y-55206712D01*
X69904728Y-55206712D02*
X69828537Y-55168617D01*
X69828537Y-55168617D02*
X69676156Y-55168617D01*
X69676156Y-55168617D02*
X69599966Y-55206712D01*
X69599966Y-55206712D02*
X69561871Y-55244807D01*
X69561871Y-55244807D02*
X69523775Y-55320998D01*
X93066633Y-22183855D02*
X93066633Y-22755283D01*
X93066633Y-22755283D02*
X93028538Y-22869569D01*
X93028538Y-22869569D02*
X92952347Y-22945760D01*
X92952347Y-22945760D02*
X92838062Y-22983855D01*
X92838062Y-22983855D02*
X92761871Y-22983855D01*
X93409490Y-22260045D02*
X93447586Y-22221950D01*
X93447586Y-22221950D02*
X93523776Y-22183855D01*
X93523776Y-22183855D02*
X93714252Y-22183855D01*
X93714252Y-22183855D02*
X93790443Y-22221950D01*
X93790443Y-22221950D02*
X93828538Y-22260045D01*
X93828538Y-22260045D02*
X93866633Y-22336236D01*
X93866633Y-22336236D02*
X93866633Y-22412426D01*
X93866633Y-22412426D02*
X93828538Y-22526712D01*
X93828538Y-22526712D02*
X93371395Y-22983855D01*
X93371395Y-22983855D02*
X93866633Y-22983855D01*
X50400033Y-72183855D02*
X50400033Y-72755283D01*
X50400033Y-72755283D02*
X50361938Y-72869569D01*
X50361938Y-72869569D02*
X50285747Y-72945760D01*
X50285747Y-72945760D02*
X50171462Y-72983855D01*
X50171462Y-72983855D02*
X50095271Y-72983855D01*
X50704795Y-72183855D02*
X51238129Y-72183855D01*
X51238129Y-72183855D02*
X50895271Y-72983855D01*
X34076224Y-4363855D02*
X34076224Y-3563855D01*
X34076224Y-3563855D02*
X34266700Y-3563855D01*
X34266700Y-3563855D02*
X34380986Y-3601950D01*
X34380986Y-3601950D02*
X34457176Y-3678140D01*
X34457176Y-3678140D02*
X34495271Y-3754331D01*
X34495271Y-3754331D02*
X34533367Y-3906712D01*
X34533367Y-3906712D02*
X34533367Y-4020998D01*
X34533367Y-4020998D02*
X34495271Y-4173379D01*
X34495271Y-4173379D02*
X34457176Y-4249569D01*
X34457176Y-4249569D02*
X34380986Y-4325760D01*
X34380986Y-4325760D02*
X34266700Y-4363855D01*
X34266700Y-4363855D02*
X34076224Y-4363855D01*
X35295271Y-4363855D02*
X34838128Y-4363855D01*
X35066700Y-4363855D02*
X35066700Y-3563855D01*
X35066700Y-3563855D02*
X34990509Y-3678140D01*
X34990509Y-3678140D02*
X34914319Y-3754331D01*
X34914319Y-3754331D02*
X34838128Y-3792426D01*
D10*
X30895271Y-6262295D02*
X30438128Y-6262295D01*
X30666700Y-6262295D02*
X30666700Y-5462295D01*
X30666700Y-5462295D02*
X30590509Y-5576580D01*
X30590509Y-5576580D02*
X30514319Y-5652771D01*
X30514319Y-5652771D02*
X30438128Y-5690866D01*
D11*
X74400033Y-72183855D02*
X74400033Y-72755283D01*
X74400033Y-72755283D02*
X74361938Y-72869569D01*
X74361938Y-72869569D02*
X74285747Y-72945760D01*
X74285747Y-72945760D02*
X74171462Y-72983855D01*
X74171462Y-72983855D02*
X74095271Y-72983855D01*
X74819081Y-72983855D02*
X74971462Y-72983855D01*
X74971462Y-72983855D02*
X75047652Y-72945760D01*
X75047652Y-72945760D02*
X75085748Y-72907664D01*
X75085748Y-72907664D02*
X75161938Y-72793379D01*
X75161938Y-72793379D02*
X75200033Y-72640998D01*
X75200033Y-72640998D02*
X75200033Y-72336236D01*
X75200033Y-72336236D02*
X75161938Y-72260045D01*
X75161938Y-72260045D02*
X75123843Y-72221950D01*
X75123843Y-72221950D02*
X75047652Y-72183855D01*
X75047652Y-72183855D02*
X74895271Y-72183855D01*
X74895271Y-72183855D02*
X74819081Y-72221950D01*
X74819081Y-72221950D02*
X74780986Y-72260045D01*
X74780986Y-72260045D02*
X74742890Y-72336236D01*
X74742890Y-72336236D02*
X74742890Y-72526712D01*
X74742890Y-72526712D02*
X74780986Y-72602902D01*
X74780986Y-72602902D02*
X74819081Y-72640998D01*
X74819081Y-72640998D02*
X74895271Y-72679093D01*
X74895271Y-72679093D02*
X75047652Y-72679093D01*
X75047652Y-72679093D02*
X75123843Y-72640998D01*
X75123843Y-72640998D02*
X75161938Y-72602902D01*
X75161938Y-72602902D02*
X75200033Y-72526712D01*
X93066633Y-62183855D02*
X93066633Y-62755283D01*
X93066633Y-62755283D02*
X93028538Y-62869569D01*
X93028538Y-62869569D02*
X92952347Y-62945760D01*
X92952347Y-62945760D02*
X92838062Y-62983855D01*
X92838062Y-62983855D02*
X92761871Y-62983855D01*
X93790443Y-62450521D02*
X93790443Y-62983855D01*
X93599967Y-62145760D02*
X93409490Y-62717188D01*
X93409490Y-62717188D02*
X93904729Y-62717188D01*
X61066633Y-72183855D02*
X61066633Y-72755283D01*
X61066633Y-72755283D02*
X61028538Y-72869569D01*
X61028538Y-72869569D02*
X60952347Y-72945760D01*
X60952347Y-72945760D02*
X60838062Y-72983855D01*
X60838062Y-72983855D02*
X60761871Y-72983855D01*
X61561871Y-72526712D02*
X61485681Y-72488617D01*
X61485681Y-72488617D02*
X61447586Y-72450521D01*
X61447586Y-72450521D02*
X61409490Y-72374331D01*
X61409490Y-72374331D02*
X61409490Y-72336236D01*
X61409490Y-72336236D02*
X61447586Y-72260045D01*
X61447586Y-72260045D02*
X61485681Y-72221950D01*
X61485681Y-72221950D02*
X61561871Y-72183855D01*
X61561871Y-72183855D02*
X61714252Y-72183855D01*
X61714252Y-72183855D02*
X61790443Y-72221950D01*
X61790443Y-72221950D02*
X61828538Y-72260045D01*
X61828538Y-72260045D02*
X61866633Y-72336236D01*
X61866633Y-72336236D02*
X61866633Y-72374331D01*
X61866633Y-72374331D02*
X61828538Y-72450521D01*
X61828538Y-72450521D02*
X61790443Y-72488617D01*
X61790443Y-72488617D02*
X61714252Y-72526712D01*
X61714252Y-72526712D02*
X61561871Y-72526712D01*
X61561871Y-72526712D02*
X61485681Y-72564807D01*
X61485681Y-72564807D02*
X61447586Y-72602902D01*
X61447586Y-72602902D02*
X61409490Y-72679093D01*
X61409490Y-72679093D02*
X61409490Y-72831474D01*
X61409490Y-72831474D02*
X61447586Y-72907664D01*
X61447586Y-72907664D02*
X61485681Y-72945760D01*
X61485681Y-72945760D02*
X61561871Y-72983855D01*
X61561871Y-72983855D02*
X61714252Y-72983855D01*
X61714252Y-72983855D02*
X61790443Y-72945760D01*
X61790443Y-72945760D02*
X61828538Y-72907664D01*
X61828538Y-72907664D02*
X61866633Y-72831474D01*
X61866633Y-72831474D02*
X61866633Y-72679093D01*
X61866633Y-72679093D02*
X61828538Y-72602902D01*
X61828538Y-72602902D02*
X61790443Y-72564807D01*
X61790443Y-72564807D02*
X61714252Y-72526712D01*
X39733333Y-72183855D02*
X39733333Y-72755283D01*
X39733333Y-72755283D02*
X39695238Y-72869569D01*
X39695238Y-72869569D02*
X39619047Y-72945760D01*
X39619047Y-72945760D02*
X39504762Y-72983855D01*
X39504762Y-72983855D02*
X39428571Y-72983855D01*
X40457143Y-72183855D02*
X40304762Y-72183855D01*
X40304762Y-72183855D02*
X40228571Y-72221950D01*
X40228571Y-72221950D02*
X40190476Y-72260045D01*
X40190476Y-72260045D02*
X40114286Y-72374331D01*
X40114286Y-72374331D02*
X40076190Y-72526712D01*
X40076190Y-72526712D02*
X40076190Y-72831474D01*
X40076190Y-72831474D02*
X40114286Y-72907664D01*
X40114286Y-72907664D02*
X40152381Y-72945760D01*
X40152381Y-72945760D02*
X40228571Y-72983855D01*
X40228571Y-72983855D02*
X40380952Y-72983855D01*
X40380952Y-72983855D02*
X40457143Y-72945760D01*
X40457143Y-72945760D02*
X40495238Y-72907664D01*
X40495238Y-72907664D02*
X40533333Y-72831474D01*
X40533333Y-72831474D02*
X40533333Y-72640998D01*
X40533333Y-72640998D02*
X40495238Y-72564807D01*
X40495238Y-72564807D02*
X40457143Y-72526712D01*
X40457143Y-72526712D02*
X40380952Y-72488617D01*
X40380952Y-72488617D02*
X40228571Y-72488617D01*
X40228571Y-72488617D02*
X40152381Y-72526712D01*
X40152381Y-72526712D02*
X40114286Y-72564807D01*
X40114286Y-72564807D02*
X40076190Y-72640998D01*
X47866666Y-19333855D02*
X47485714Y-19333855D01*
X47485714Y-19333855D02*
X47485714Y-18533855D01*
X48552380Y-19333855D02*
X48095237Y-19333855D01*
X48323809Y-19333855D02*
X48323809Y-18533855D01*
X48323809Y-18533855D02*
X48247618Y-18648140D01*
X48247618Y-18648140D02*
X48171428Y-18724331D01*
X48171428Y-18724331D02*
X48095237Y-18762426D01*
%TO.C,J3*%
X91953300Y-43620000D02*
X93333300Y-43620000D01*
X91953300Y-45000000D02*
X91953300Y-43620000D01*
X91953300Y-46270000D02*
X91953300Y-54000000D01*
X91953300Y-46270000D02*
X94713300Y-46270000D01*
X91953300Y-54000000D02*
X94713300Y-54000000D01*
X94713300Y-46270000D02*
X94713300Y-54000000D01*
%TO.C,TP9*%
X23050000Y-41550000D02*
X24950000Y-41550000D01*
X23050000Y-43450000D02*
X23050000Y-41550000D01*
X24950000Y-41550000D02*
X24950000Y-43450000D01*
X24950000Y-43450000D02*
X23050000Y-43450000D01*
%TO.C,BZ1*%
X14066700Y-82900000D02*
X14066700Y-85100000D01*
X14066700Y-82900000D02*
X23266700Y-82900000D01*
X14066700Y-85100000D02*
X13666700Y-85100000D01*
X14066700Y-89900000D02*
X14066700Y-92100000D01*
X23266700Y-82900000D02*
X23266700Y-85100000D01*
X23266700Y-89900000D02*
X23266700Y-92100000D01*
X23266700Y-92100000D02*
X14066700Y-92100000D01*
%TO.C,TP3*%
X39050000Y-41550000D02*
X40950000Y-41550000D01*
X39050000Y-43450000D02*
X39050000Y-41550000D01*
X40950000Y-41550000D02*
X40950000Y-43450000D01*
X40950000Y-43450000D02*
X39050000Y-43450000D01*
%TO.C,J5*%
X27953300Y-73620000D02*
X29333300Y-73620000D01*
X27953300Y-75000000D02*
X27953300Y-73620000D01*
X27953300Y-76270000D02*
X27953300Y-78920000D01*
X27953300Y-76270000D02*
X30713300Y-76270000D01*
X27953300Y-78920000D02*
X30713300Y-78920000D01*
X30713300Y-76270000D02*
X30713300Y-78920000D01*
%TO.C,SW1*%
X5800000Y-48300000D02*
X5800000Y-48420000D01*
X5800000Y-49430000D02*
X5800000Y-50570000D01*
X5800000Y-51580000D02*
X5800000Y-51700000D01*
X5800000Y-51700000D02*
X10200000Y-51700000D01*
X10200000Y-48300000D02*
X5800000Y-48300000D01*
X10200000Y-48420000D02*
X10200000Y-48300000D01*
X10200000Y-50570000D02*
X10200000Y-49430000D01*
X10200000Y-51700000D02*
X10200000Y-51580000D01*
%TO.C,TP7*%
X39050000Y-45300000D02*
X40950000Y-45300000D01*
X39050000Y-47200000D02*
X39050000Y-45300000D01*
X40950000Y-45300000D02*
X40950000Y-47200000D01*
X40950000Y-47200000D02*
X39050000Y-47200000D01*
%TO.C,TP2*%
X35050000Y-41550000D02*
X36950000Y-41550000D01*
X35050000Y-43450000D02*
X35050000Y-41550000D01*
X36950000Y-41550000D02*
X36950000Y-43450000D01*
X36950000Y-43450000D02*
X35050000Y-43450000D01*
%TO.C,U5*%
X51623300Y-56610000D02*
X51623300Y-53390000D01*
X55043300Y-53390000D02*
X55043300Y-56610000D01*
X52123300Y-53280000D02*
X51883300Y-52950000D01*
X52363300Y-52950000D01*
X52123300Y-53280000D01*
G36*
X52123300Y-53280000D02*
G01*
X51883300Y-52950000D01*
X52363300Y-52950000D01*
X52123300Y-53280000D01*
G37*
%TO.C,U4*%
X26840000Y-52340000D02*
X28815000Y-52340000D01*
X26840000Y-54315000D02*
X26840000Y-52340000D01*
X26840000Y-62660000D02*
X26840000Y-60685000D01*
X28815000Y-62660000D02*
X26840000Y-62660000D01*
X35185000Y-52340000D02*
X37160000Y-52340000D01*
X37160000Y-52340000D02*
X37160000Y-54315000D01*
X37160000Y-60685000D02*
X37160000Y-62660000D01*
X37160000Y-62660000D02*
X35185000Y-62660000D01*
X26640000Y-55000000D02*
X26310000Y-55240000D01*
X26310000Y-54760000D01*
X26640000Y-55000000D01*
G36*
X26640000Y-55000000D02*
G01*
X26310000Y-55240000D01*
X26310000Y-54760000D01*
X26640000Y-55000000D01*
G37*
%TO.C,SW2*%
X13800000Y-48300000D02*
X13800000Y-48420000D01*
X13800000Y-49430000D02*
X13800000Y-50570000D01*
X13800000Y-51580000D02*
X13800000Y-51700000D01*
X13800000Y-51700000D02*
X18200000Y-51700000D01*
X18200000Y-48300000D02*
X13800000Y-48300000D01*
X18200000Y-48420000D02*
X18200000Y-48300000D01*
X18200000Y-50570000D02*
X18200000Y-49430000D01*
X18200000Y-51700000D02*
X18200000Y-51580000D01*
%TO.C,TP10*%
X47050000Y-45300000D02*
X48950000Y-45300000D01*
X47050000Y-47200000D02*
X47050000Y-45300000D01*
X48950000Y-45300000D02*
X48950000Y-47200000D01*
X48950000Y-47200000D02*
X47050000Y-47200000D01*
%TO.C,J1*%
X20766700Y-6550000D02*
X22766700Y-6550000D01*
X20766700Y-15950000D02*
X22766700Y-15950000D01*
X24666700Y-6550000D02*
X26566700Y-6550000D01*
X24666700Y-15950000D02*
X26566700Y-15950000D01*
X26566700Y-15950000D02*
X26566700Y-6550000D01*
%TO.C,U2*%
X47090000Y-10940000D02*
X48910000Y-10940000D01*
X47090000Y-10990000D02*
X47090000Y-10940000D01*
X47090000Y-14060000D02*
X47090000Y-14010000D01*
X48910000Y-10940000D02*
X48910000Y-10990000D01*
X48910000Y-14010000D02*
X48910000Y-14060000D01*
X48910000Y-14060000D02*
X47090000Y-14060000D01*
X46550000Y-10990000D02*
X46310000Y-10660000D01*
X46790000Y-10660000D01*
X46550000Y-10990000D01*
G36*
X46550000Y-10990000D02*
G01*
X46310000Y-10660000D01*
X46790000Y-10660000D01*
X46550000Y-10990000D01*
G37*
%TO.C,U3*%
X68213300Y-20390000D02*
X68213300Y-26550000D01*
X68213300Y-20390000D02*
X86453300Y-20390000D01*
X68213300Y-45350000D02*
X68213300Y-46130000D01*
X68213300Y-46130000D02*
X69213300Y-46130000D01*
X86453300Y-20390000D02*
X86453300Y-26805000D01*
X86453300Y-45350000D02*
X86453300Y-46130000D01*
X86453300Y-46130000D02*
X85453300Y-46130000D01*
X68208300Y-27275000D02*
X67708300Y-27275000D01*
X68208300Y-26775000D01*
X68208300Y-27275000D01*
G36*
X68208300Y-27275000D02*
G01*
X67708300Y-27275000D01*
X68208300Y-26775000D01*
X68208300Y-27275000D01*
G37*
%TO.C,U6*%
X68533300Y-56200000D02*
X68533300Y-56900000D01*
X68533300Y-56200000D02*
X68833300Y-56200000D01*
X68533300Y-58800000D02*
X70133300Y-58800000D01*
%TO.C,TP5*%
X31050000Y-45300000D02*
X32950000Y-45300000D01*
X31050000Y-47200000D02*
X31050000Y-45300000D01*
X32950000Y-45300000D02*
X32950000Y-47200000D01*
X32950000Y-47200000D02*
X31050000Y-47200000D01*
%TO.C,J2*%
X91953300Y-23620000D02*
X93333300Y-23620000D01*
X91953300Y-25000000D02*
X91953300Y-23620000D01*
X91953300Y-26270000D02*
X91953300Y-34000000D01*
X91953300Y-26270000D02*
X94713300Y-26270000D01*
X91953300Y-34000000D02*
X94713300Y-34000000D01*
X94713300Y-26270000D02*
X94713300Y-34000000D01*
%TO.C,J7*%
X49286700Y-73620000D02*
X50666700Y-73620000D01*
X49286700Y-75000000D02*
X49286700Y-73620000D01*
X49286700Y-76270000D02*
X49286700Y-81460000D01*
X49286700Y-76270000D02*
X52046700Y-76270000D01*
X49286700Y-81460000D02*
X52046700Y-81460000D01*
X52046700Y-76270000D02*
X52046700Y-81460000D01*
%TO.C,TP1*%
X31050000Y-41550000D02*
X32950000Y-41550000D01*
X31050000Y-43450000D02*
X31050000Y-41550000D01*
X32950000Y-41550000D02*
X32950000Y-43450000D01*
X32950000Y-43450000D02*
X31050000Y-43450000D01*
%TO.C,D1*%
X31166700Y-4750000D02*
X31166700Y-10250000D01*
X31166700Y-4750000D02*
X38166700Y-4750000D01*
X31166700Y-10250000D02*
X37716700Y-10250000D01*
X31966700Y-8400000D02*
X31966700Y-6600000D01*
X37366700Y-8400000D02*
X37366700Y-6600000D01*
X37716700Y-10250000D02*
X38166700Y-9800000D01*
X38166700Y-9800000D02*
X38166700Y-4750000D01*
%TO.C,J9*%
X73286700Y-73620000D02*
X74666700Y-73620000D01*
X73286700Y-75000000D02*
X73286700Y-73620000D01*
X73286700Y-76270000D02*
X73286700Y-89080000D01*
X73286700Y-76270000D02*
X76046700Y-76270000D01*
X73286700Y-89080000D02*
X76046700Y-89080000D01*
X76046700Y-76270000D02*
X76046700Y-89080000D01*
%TO.C,TP4*%
X43050000Y-41550000D02*
X44950000Y-41550000D01*
X43050000Y-43450000D02*
X43050000Y-41550000D01*
X44950000Y-41550000D02*
X44950000Y-43450000D01*
X44950000Y-43450000D02*
X43050000Y-43450000D01*
%TO.C,TP6*%
X35050000Y-45300000D02*
X36950000Y-45300000D01*
X35050000Y-47200000D02*
X35050000Y-45300000D01*
X36950000Y-45300000D02*
X36950000Y-47200000D01*
X36950000Y-47200000D02*
X35050000Y-47200000D01*
%TO.C,J4*%
X91953300Y-63620000D02*
X93333300Y-63620000D01*
X91953300Y-65000000D02*
X91953300Y-63620000D01*
X91953300Y-66270000D02*
X91953300Y-76540000D01*
X91953300Y-66270000D02*
X94713300Y-66270000D01*
X91953300Y-76540000D02*
X94713300Y-76540000D01*
X94713300Y-66270000D02*
X94713300Y-76540000D01*
%TO.C,TP8*%
X43050000Y-45300000D02*
X44950000Y-45300000D01*
X43050000Y-47200000D02*
X43050000Y-45300000D01*
X44950000Y-45300000D02*
X44950000Y-47200000D01*
X44950000Y-47200000D02*
X43050000Y-47200000D01*
%TO.C,J8*%
X59953300Y-73620000D02*
X61333300Y-73620000D01*
X59953300Y-75000000D02*
X59953300Y-73620000D01*
X59953300Y-76270000D02*
X59953300Y-81460000D01*
X59953300Y-76270000D02*
X62713300Y-76270000D01*
X59953300Y-81460000D02*
X62713300Y-81460000D01*
X62713300Y-76270000D02*
X62713300Y-81460000D01*
%TO.C,J6*%
X38620000Y-73620000D02*
X40000000Y-73620000D01*
X38620000Y-75000000D02*
X38620000Y-73620000D01*
X38620000Y-76270000D02*
X38620000Y-78920000D01*
X38620000Y-76270000D02*
X41380000Y-76270000D01*
X38620000Y-78920000D02*
X41380000Y-78920000D01*
X41380000Y-76270000D02*
X41380000Y-78920000D01*
%TO.C,L1*%
X47397936Y-19890000D02*
X48602064Y-19890000D01*
X47397936Y-22610000D02*
X48602064Y-22610000D01*
%TD*%
M02*
