%TF.GenerationSoftware,KiCad,Pcbnew,10.0.5*%
%TF.CreationDate,2026-08-08T18:07:34+02:00*%
%TF.ProjectId,wisp,77697370-2e6b-4696-9361-645f70636258,rev?*%
%TF.SameCoordinates,Original*%
%TF.FileFunction,Paste,Top*%
%TF.FilePolarity,Positive*%
%FSLAX46Y46*%
G04 Gerber Fmt 4.6, Leading zero omitted, Abs format (unit mm)*
G04 Created by KiCad (PCBNEW 10.0.5) date 2026-08-08 18:07:34*
%MOMM*%
%LPD*%
G01*
G04 APERTURE LIST*
G04 Aperture macros list*
%AMRoundRect*
0 Rectangle with rounded corners*
0 $1 Rounding radius*
0 $2 $3 $4 $5 $6 $7 $8 $9 X,Y pos of 4 corners*
0 Add a 4 corners polygon primitive as box body*
4,1,4,$2,$3,$4,$5,$6,$7,$8,$9,$2,$3,0*
0 Add four circle primitives for the rounded corners*
1,1,$1+$1,$2,$3*
1,1,$1+$1,$4,$5*
1,1,$1+$1,$6,$7*
1,1,$1+$1,$8,$9*
0 Add four rect primitives between the rounded corners*
20,1,$1+$1,$2,$3,$4,$5,0*
20,1,$1+$1,$4,$5,$6,$7,0*
20,1,$1+$1,$6,$7,$8,$9,0*
20,1,$1+$1,$8,$9,$2,$3,0*%
G04 Aperture macros list end*
%ADD10RoundRect,0.250000X-0.250000X-0.475000X0.250000X-0.475000X0.250000X0.475000X-0.250000X0.475000X0*%
%ADD11RoundRect,0.050000X-0.100000X-0.250000X0.100000X-0.250000X0.100000X0.250000X-0.100000X0.250000X0*%
%ADD12RoundRect,0.250000X-0.262500X-0.450000X0.262500X-0.450000X0.262500X0.450000X-0.262500X0.450000X0*%
%ADD13RoundRect,0.090000X-0.660000X-0.360000X0.660000X-0.360000X0.660000X0.360000X-0.660000X0.360000X0*%
%ADD14R,0.177800X0.508000*%
%ADD15R,1.050000X0.650000*%
%ADD16RoundRect,0.243750X-0.243750X-0.456250X0.243750X-0.456250X0.243750X0.456250X-0.243750X0.456250X0*%
%ADD17RoundRect,0.250001X-0.714999X-0.714999X0.714999X-0.714999X0.714999X0.714999X-0.714999X0.714999X0*%
%ADD18RoundRect,0.212500X-0.737500X-0.212500X0.737500X-0.212500X0.737500X0.212500X-0.737500X0.212500X0*%
%ADD19RoundRect,0.212500X-0.212500X-0.737500X0.212500X-0.737500X0.212500X0.737500X-0.212500X0.737500X0*%
%ADD20RoundRect,0.225000X-0.225000X-0.375000X0.225000X-0.375000X0.225000X0.375000X-0.225000X0.375000X0*%
%ADD21RoundRect,0.250000X-1.000000X-0.650000X1.000000X-0.650000X1.000000X0.650000X-1.000000X0.650000X0*%
%ADD22RoundRect,0.250000X-0.375000X-1.075000X0.375000X-1.075000X0.375000X1.075000X-0.375000X1.075000X0*%
%ADD23RoundRect,0.150000X-0.587500X-0.150000X0.587500X-0.150000X0.587500X0.150000X-0.587500X0.150000X0*%
%ADD24RoundRect,0.250000X-0.312500X-1.450000X0.312500X-1.450000X0.312500X1.450000X-0.312500X1.450000X0*%
%ADD25RoundRect,0.100000X-0.175000X-0.100000X0.175000X-0.100000X0.175000X0.100000X-0.175000X0.100000X0*%
%ADD26R,1.050000X1.500000*%
%ADD27RoundRect,0.150000X-0.512500X-0.150000X0.512500X-0.150000X0.512500X0.150000X-0.512500X0.150000X0*%
%ADD28R,2.000000X4.200000*%
%ADD29RoundRect,0.150000X-0.150000X-0.575000X0.150000X-0.575000X0.150000X0.575000X-0.150000X0.575000X0*%
%ADD30RoundRect,0.075000X-0.075000X-0.650000X0.075000X-0.650000X0.075000X0.650000X-0.075000X0.650000X0*%
%ADD31R,0.350000X0.500000*%
%ADD32R,0.900000X0.900000*%
%ADD33R,1.500000X0.900000*%
%ADD34R,0.900000X1.500000*%
G04 APERTURE END LIST*
D10*
%TO.C,C13*%
X20981600Y-78468400D03*
X22881600Y-78468400D03*
%TD*%
D11*
%TO.C,D3*%
X53180200Y-22049800D03*
X53880200Y-22049800D03*
%TD*%
D10*
%TO.C,C6*%
X35450000Y-36000000D03*
X37350000Y-36000000D03*
%TD*%
%TO.C,C16*%
X14939100Y-58190900D03*
X16839100Y-58190900D03*
%TD*%
D12*
%TO.C,R9*%
X24642500Y-28300000D03*
X26467500Y-28300000D03*
%TD*%
%TO.C,R4*%
X40937500Y-24750000D03*
X42762500Y-24750000D03*
%TD*%
D11*
%TO.C,D13*%
X11650000Y-64880000D03*
X12350000Y-64880000D03*
%TD*%
D13*
%TO.C,D1*%
X4550000Y-10350000D03*
X4550000Y-13650000D03*
X9450000Y-13650000D03*
X9450000Y-10350000D03*
%TD*%
D10*
%TO.C,C5*%
X26912500Y-36150000D03*
X28812500Y-36150000D03*
%TD*%
%TO.C,C10*%
X40450000Y-68449200D03*
X42350000Y-68449200D03*
%TD*%
%TO.C,C9*%
X24800000Y-77250000D03*
X26700000Y-77250000D03*
%TD*%
D14*
%TO.C,U6*%
X44000000Y-68449200D03*
X44500000Y-68449200D03*
X45000000Y-68449200D03*
X45000000Y-71550800D03*
X44500000Y-71550800D03*
X44000000Y-71550800D03*
%TD*%
D12*
%TO.C,R20*%
X8537500Y-16150000D03*
X10362500Y-16150000D03*
%TD*%
D15*
%TO.C,SW1*%
X3425000Y-22925000D03*
X7575000Y-22925000D03*
X3425000Y-25075000D03*
X7575000Y-25075000D03*
%TD*%
D16*
%TO.C,D12*%
X13562500Y-30000000D03*
X15437500Y-30000000D03*
%TD*%
D10*
%TO.C,C14*%
X38450000Y-33000000D03*
X40350000Y-33000000D03*
%TD*%
D12*
%TO.C,R7*%
X11648800Y-13461300D03*
X13473800Y-13461300D03*
%TD*%
%TO.C,R2*%
X8953800Y-33338700D03*
X10778800Y-33338700D03*
%TD*%
%TO.C,R15*%
X14198800Y-44888700D03*
X16023800Y-44888700D03*
%TD*%
D11*
%TO.C,D14*%
X53150000Y-67240000D03*
X53850000Y-67240000D03*
%TD*%
D12*
%TO.C,R13*%
X40687500Y-55500000D03*
X42512500Y-55500000D03*
%TD*%
D10*
%TO.C,C7*%
X29187500Y-29850000D03*
X31087500Y-29850000D03*
%TD*%
D17*
%TO.C,U4*%
X25800000Y-69300000D03*
X25800000Y-71700000D03*
X28200000Y-69300000D03*
X28200000Y-71700000D03*
D18*
X22850000Y-68000000D03*
X22850000Y-69250000D03*
X22850000Y-70500000D03*
X22850000Y-71750000D03*
X22850000Y-73000000D03*
D19*
X24500000Y-74650000D03*
X25750000Y-74650000D03*
X27000000Y-74650000D03*
X28250000Y-74650000D03*
X29500000Y-74650000D03*
D18*
X31150000Y-73000000D03*
X31150000Y-71750000D03*
X31150000Y-70500000D03*
X31150000Y-69250000D03*
X31150000Y-68000000D03*
D19*
X29500000Y-66350000D03*
X28250000Y-66350000D03*
X27000000Y-66350000D03*
X25750000Y-66350000D03*
X24500000Y-66350000D03*
%TD*%
D10*
%TO.C,C19*%
X36175000Y-66025000D03*
X38075000Y-66025000D03*
%TD*%
D12*
%TO.C,R1*%
X3337500Y-33355000D03*
X5162500Y-33355000D03*
%TD*%
D10*
%TO.C,C12*%
X17188700Y-12621300D03*
X19088700Y-12621300D03*
%TD*%
D20*
%TO.C,D11*%
X2900000Y-18750000D03*
X6200000Y-18750000D03*
%TD*%
D21*
%TO.C,D4*%
X2500000Y-30200000D03*
X6500000Y-30200000D03*
%TD*%
D10*
%TO.C,C17*%
X3600000Y-16150000D03*
X5500000Y-16150000D03*
%TD*%
D22*
%TO.C,L1*%
X33600000Y-33000000D03*
X36400000Y-33000000D03*
%TD*%
D12*
%TO.C,R14*%
X7405900Y-65898400D03*
X9230900Y-65898400D03*
%TD*%
D11*
%TO.C,D6*%
X7150000Y-62080000D03*
X7850000Y-62080000D03*
%TD*%
D10*
%TO.C,C4*%
X13300000Y-10780000D03*
X15200000Y-10780000D03*
%TD*%
D11*
%TO.C,D5*%
X11650000Y-45200000D03*
X12350000Y-45200000D03*
%TD*%
D12*
%TO.C,R18*%
X3587500Y-65240000D03*
X5412500Y-65240000D03*
%TD*%
D23*
%TO.C,Q3*%
X15162500Y-49590000D03*
X15162500Y-51490000D03*
X17037500Y-50540000D03*
%TD*%
D24*
%TO.C,F1*%
X19862500Y-33000000D03*
X24137500Y-33000000D03*
%TD*%
D12*
%TO.C,R3*%
X16165600Y-14951900D03*
X17990600Y-14951900D03*
%TD*%
D25*
%TO.C,U5*%
X43350000Y-75700000D03*
X43350000Y-76500000D03*
X43350000Y-77300000D03*
X45650000Y-77300000D03*
X45650000Y-76500000D03*
X45650000Y-75700000D03*
D26*
X44500000Y-76500000D03*
%TD*%
D15*
%TO.C,SW2*%
X10925000Y-22925000D03*
X15075000Y-22925000D03*
X10925000Y-25075000D03*
X15075000Y-25075000D03*
%TD*%
D10*
%TO.C,C3*%
X35450000Y-30000000D03*
X37350000Y-30000000D03*
%TD*%
D12*
%TO.C,R22*%
X42437500Y-73400000D03*
X44262500Y-73400000D03*
%TD*%
D10*
%TO.C,C18*%
X39975000Y-66025000D03*
X41875000Y-66025000D03*
%TD*%
D11*
%TO.C,D8*%
X53150000Y-59620000D03*
X53850000Y-59620000D03*
%TD*%
%TO.C,D9*%
X53150000Y-62160000D03*
X53850000Y-62160000D03*
%TD*%
D27*
%TO.C,U2*%
X27862500Y-32050000D03*
X27862500Y-33000000D03*
X27862500Y-33950000D03*
X30137500Y-33950000D03*
X30137500Y-33000000D03*
X30137500Y-32050000D03*
%TD*%
D28*
%TO.C,BZ1*%
X26000000Y-55500000D03*
X34000000Y-55500000D03*
%TD*%
D11*
%TO.C,D7*%
X53150000Y-57080000D03*
X53850000Y-57080000D03*
%TD*%
%TO.C,D15*%
X53150000Y-69780000D03*
X53850000Y-69780000D03*
%TD*%
D12*
%TO.C,R12*%
X12002100Y-42125400D03*
X13827100Y-42125400D03*
%TD*%
%TO.C,R16*%
X3587500Y-67580000D03*
X5412500Y-67580000D03*
%TD*%
D27*
%TO.C,U8*%
X12862500Y-35550000D03*
X12862500Y-36500000D03*
X12862500Y-37450000D03*
X15137500Y-37450000D03*
X15137500Y-36500000D03*
X15137500Y-35550000D03*
%TD*%
D11*
%TO.C,D2*%
X53180200Y-13570200D03*
X53880200Y-13570200D03*
%TD*%
D12*
%TO.C,R11*%
X51687500Y-19080000D03*
X53512500Y-19080000D03*
%TD*%
D10*
%TO.C,C20*%
X38600000Y-75700000D03*
X40500000Y-75700000D03*
%TD*%
D12*
%TO.C,R17*%
X14198800Y-65191300D03*
X16023800Y-65191300D03*
%TD*%
%TO.C,R8*%
X17237500Y-22210000D03*
X19062500Y-22210000D03*
%TD*%
D11*
%TO.C,D10*%
X53150000Y-64700000D03*
X53850000Y-64700000D03*
%TD*%
D29*
%TO.C,J1*%
X2250000Y-35955000D03*
X3050000Y-35955000D03*
D30*
X4250000Y-35955000D03*
X5250000Y-35955000D03*
X5750000Y-35955000D03*
X6750000Y-35955000D03*
D29*
X7950000Y-35955000D03*
X8750000Y-35955000D03*
X8750000Y-35955000D03*
X7950000Y-35955000D03*
D30*
X7250000Y-35955000D03*
X6250000Y-35955000D03*
X4750000Y-35955000D03*
X3750000Y-35955000D03*
D29*
X3050000Y-35955000D03*
X2250000Y-35955000D03*
%TD*%
D10*
%TO.C,C21*%
X39255300Y-71055300D03*
X41155300Y-71055300D03*
%TD*%
D23*
%TO.C,Q4*%
X36662500Y-54550000D03*
X36662500Y-56450000D03*
X38537500Y-55500000D03*
%TD*%
D31*
%TO.C,U7*%
X43525000Y-63975000D03*
X44175000Y-63975000D03*
X44825000Y-63975000D03*
X45475000Y-63975000D03*
X45475000Y-66025000D03*
X44825000Y-66025000D03*
X44175000Y-66025000D03*
X43525000Y-66025000D03*
%TD*%
D12*
%TO.C,R10*%
X51687500Y-16540000D03*
X53512500Y-16540000D03*
%TD*%
%TO.C,R21*%
X14525000Y-27700000D03*
X16350000Y-27700000D03*
%TD*%
D32*
%TO.C,U3*%
X27100000Y-14560000D03*
X27100000Y-15960000D03*
X27100000Y-17360000D03*
X28500000Y-14560000D03*
X28500000Y-15960000D03*
X28500000Y-17360000D03*
X29900000Y-14560000D03*
X29900000Y-15960000D03*
X29900000Y-17360000D03*
D33*
X21250000Y-8240000D03*
X21250000Y-9510000D03*
X21250000Y-10780000D03*
X21250000Y-12050000D03*
X21250000Y-13320000D03*
X21250000Y-14590000D03*
X21250000Y-15860000D03*
X21250000Y-17130000D03*
X21250000Y-18400000D03*
X21250000Y-19670000D03*
X21250000Y-20940000D03*
X21250000Y-22210000D03*
X21250000Y-23480000D03*
X21250000Y-24750000D03*
D34*
X23015000Y-26000000D03*
X24285000Y-26000000D03*
X25555000Y-26000000D03*
X26825000Y-26000000D03*
X28095000Y-26000000D03*
X29365000Y-26000000D03*
X30635000Y-26000000D03*
X31905000Y-26000000D03*
X33175000Y-26000000D03*
X34445000Y-26000000D03*
X35715000Y-26000000D03*
X36985000Y-26000000D03*
D33*
X38750000Y-24750000D03*
X38750000Y-23480000D03*
X38750000Y-22210000D03*
X38750000Y-20940000D03*
X38750000Y-19670000D03*
X38750000Y-18400000D03*
X38750000Y-17130000D03*
X38750000Y-15860000D03*
X38750000Y-14590000D03*
X38750000Y-13320000D03*
X38750000Y-12050000D03*
X38750000Y-10780000D03*
X38750000Y-9510000D03*
X38750000Y-8240000D03*
%TD*%
D10*
%TO.C,C2*%
X17200000Y-9510000D03*
X19100000Y-9510000D03*
%TD*%
M02*
