%TF.GenerationSoftware,KiCad,Pcbnew,10.0.5*%
%TF.CreationDate,2026-08-07T15:17:58+02:00*%
%TF.ProjectId,wisp,77697370-2e6b-4696-9361-645f70636258,rev?*%
%TF.SameCoordinates,Original*%
%TF.FileFunction,Legend,Top*%
%TF.FilePolarity,Positive*%
%FSLAX46Y46*%
G04 Gerber Fmt 4.6, Leading zero omitted, Abs format (unit mm)*
G04 Created by KiCad (PCBNEW 10.0.5) date 2026-08-07 15:17:58*
%MOMM*%
%LPD*%
G01*
G04 APERTURE LIST*
%ADD10C,0.150000*%
%ADD11C,0.120000*%
G04 APERTURE END LIST*
D10*
X4241541Y-51788152D02*
X4432017Y-52454819D01*
X4432017Y-52454819D02*
X4622493Y-51978628D01*
X4622493Y-51978628D02*
X4812969Y-52454819D01*
X4812969Y-52454819D02*
X5003445Y-51788152D01*
X5384398Y-52454819D02*
X5384398Y-51788152D01*
X5384398Y-51454819D02*
X5336779Y-51502438D01*
X5336779Y-51502438D02*
X5384398Y-51550057D01*
X5384398Y-51550057D02*
X5432017Y-51502438D01*
X5432017Y-51502438D02*
X5384398Y-51454819D01*
X5384398Y-51454819D02*
X5384398Y-51550057D01*
X5812969Y-52407200D02*
X5908207Y-52454819D01*
X5908207Y-52454819D02*
X6098683Y-52454819D01*
X6098683Y-52454819D02*
X6193921Y-52407200D01*
X6193921Y-52407200D02*
X6241540Y-52311961D01*
X6241540Y-52311961D02*
X6241540Y-52264342D01*
X6241540Y-52264342D02*
X6193921Y-52169104D01*
X6193921Y-52169104D02*
X6098683Y-52121485D01*
X6098683Y-52121485D02*
X5955826Y-52121485D01*
X5955826Y-52121485D02*
X5860588Y-52073866D01*
X5860588Y-52073866D02*
X5812969Y-51978628D01*
X5812969Y-51978628D02*
X5812969Y-51931009D01*
X5812969Y-51931009D02*
X5860588Y-51835771D01*
X5860588Y-51835771D02*
X5955826Y-51788152D01*
X5955826Y-51788152D02*
X6098683Y-51788152D01*
X6098683Y-51788152D02*
X6193921Y-51835771D01*
X6670112Y-51788152D02*
X6670112Y-52788152D01*
X6670112Y-51835771D02*
X6765350Y-51788152D01*
X6765350Y-51788152D02*
X6955826Y-51788152D01*
X6955826Y-51788152D02*
X7051064Y-51835771D01*
X7051064Y-51835771D02*
X7098683Y-51883390D01*
X7098683Y-51883390D02*
X7146302Y-51978628D01*
X7146302Y-51978628D02*
X7146302Y-52264342D01*
X7146302Y-52264342D02*
X7098683Y-52359580D01*
X7098683Y-52359580D02*
X7051064Y-52407200D01*
X7051064Y-52407200D02*
X6955826Y-52454819D01*
X6955826Y-52454819D02*
X6765350Y-52454819D01*
X6765350Y-52454819D02*
X6670112Y-52407200D01*
X8241541Y-51788152D02*
X8479636Y-52454819D01*
X8479636Y-52454819D02*
X8717731Y-51788152D01*
X9622493Y-52454819D02*
X9051065Y-52454819D01*
X9336779Y-52454819D02*
X9336779Y-51454819D01*
X9336779Y-51454819D02*
X9241541Y-51597676D01*
X9241541Y-51597676D02*
X9146303Y-51692914D01*
X9146303Y-51692914D02*
X9051065Y-51740533D01*
X10812970Y-52073866D02*
X11574875Y-52073866D01*
X12765351Y-52169104D02*
X13241541Y-52169104D01*
X12670113Y-52454819D02*
X13003446Y-51454819D01*
X13003446Y-51454819D02*
X13336779Y-52454819D01*
X13670113Y-51788152D02*
X13670113Y-52454819D01*
X13670113Y-51883390D02*
X13717732Y-51835771D01*
X13717732Y-51835771D02*
X13812970Y-51788152D01*
X13812970Y-51788152D02*
X13955827Y-51788152D01*
X13955827Y-51788152D02*
X14051065Y-51835771D01*
X14051065Y-51835771D02*
X14098684Y-51931009D01*
X14098684Y-51931009D02*
X14098684Y-52454819D01*
X15003446Y-52454819D02*
X15003446Y-51454819D01*
X15003446Y-52407200D02*
X14908208Y-52454819D01*
X14908208Y-52454819D02*
X14717732Y-52454819D01*
X14717732Y-52454819D02*
X14622494Y-52407200D01*
X14622494Y-52407200D02*
X14574875Y-52359580D01*
X14574875Y-52359580D02*
X14527256Y-52264342D01*
X14527256Y-52264342D02*
X14527256Y-51978628D01*
X14527256Y-51978628D02*
X14574875Y-51883390D01*
X14574875Y-51883390D02*
X14622494Y-51835771D01*
X14622494Y-51835771D02*
X14717732Y-51788152D01*
X14717732Y-51788152D02*
X14908208Y-51788152D01*
X14908208Y-51788152D02*
X15003446Y-51835771D01*
X15479637Y-52454819D02*
X15479637Y-51788152D01*
X15479637Y-51978628D02*
X15527256Y-51883390D01*
X15527256Y-51883390D02*
X15574875Y-51835771D01*
X15574875Y-51835771D02*
X15670113Y-51788152D01*
X15670113Y-51788152D02*
X15765351Y-51788152D01*
X16479637Y-52407200D02*
X16384399Y-52454819D01*
X16384399Y-52454819D02*
X16193923Y-52454819D01*
X16193923Y-52454819D02*
X16098685Y-52407200D01*
X16098685Y-52407200D02*
X16051066Y-52311961D01*
X16051066Y-52311961D02*
X16051066Y-51931009D01*
X16051066Y-51931009D02*
X16098685Y-51835771D01*
X16098685Y-51835771D02*
X16193923Y-51788152D01*
X16193923Y-51788152D02*
X16384399Y-51788152D01*
X16384399Y-51788152D02*
X16479637Y-51835771D01*
X16479637Y-51835771D02*
X16527256Y-51931009D01*
X16527256Y-51931009D02*
X16527256Y-52026247D01*
X16527256Y-52026247D02*
X16051066Y-52121485D01*
X17384399Y-52454819D02*
X17384399Y-51931009D01*
X17384399Y-51931009D02*
X17336780Y-51835771D01*
X17336780Y-51835771D02*
X17241542Y-51788152D01*
X17241542Y-51788152D02*
X17051066Y-51788152D01*
X17051066Y-51788152D02*
X16955828Y-51835771D01*
X17384399Y-52407200D02*
X17289161Y-52454819D01*
X17289161Y-52454819D02*
X17051066Y-52454819D01*
X17051066Y-52454819D02*
X16955828Y-52407200D01*
X16955828Y-52407200D02*
X16908209Y-52311961D01*
X16908209Y-52311961D02*
X16908209Y-52216723D01*
X16908209Y-52216723D02*
X16955828Y-52121485D01*
X16955828Y-52121485D02*
X17051066Y-52073866D01*
X17051066Y-52073866D02*
X17289161Y-52073866D01*
X17289161Y-52073866D02*
X17384399Y-52026247D01*
X17812971Y-52407200D02*
X17908209Y-52454819D01*
X17908209Y-52454819D02*
X18098685Y-52454819D01*
X18098685Y-52454819D02*
X18193923Y-52407200D01*
X18193923Y-52407200D02*
X18241542Y-52311961D01*
X18241542Y-52311961D02*
X18241542Y-52264342D01*
X18241542Y-52264342D02*
X18193923Y-52169104D01*
X18193923Y-52169104D02*
X18098685Y-52121485D01*
X18098685Y-52121485D02*
X17955828Y-52121485D01*
X17955828Y-52121485D02*
X17860590Y-52073866D01*
X17860590Y-52073866D02*
X17812971Y-51978628D01*
X17812971Y-51978628D02*
X17812971Y-51931009D01*
X17812971Y-51931009D02*
X17860590Y-51835771D01*
X17860590Y-51835771D02*
X17955828Y-51788152D01*
X17955828Y-51788152D02*
X18098685Y-51788152D01*
X18098685Y-51788152D02*
X18193923Y-51835771D01*
X19765352Y-51931009D02*
X19908209Y-51978628D01*
X19908209Y-51978628D02*
X19955828Y-52026247D01*
X19955828Y-52026247D02*
X20003447Y-52121485D01*
X20003447Y-52121485D02*
X20003447Y-52264342D01*
X20003447Y-52264342D02*
X19955828Y-52359580D01*
X19955828Y-52359580D02*
X19908209Y-52407200D01*
X19908209Y-52407200D02*
X19812971Y-52454819D01*
X19812971Y-52454819D02*
X19432019Y-52454819D01*
X19432019Y-52454819D02*
X19432019Y-51454819D01*
X19432019Y-51454819D02*
X19765352Y-51454819D01*
X19765352Y-51454819D02*
X19860590Y-51502438D01*
X19860590Y-51502438D02*
X19908209Y-51550057D01*
X19908209Y-51550057D02*
X19955828Y-51645295D01*
X19955828Y-51645295D02*
X19955828Y-51740533D01*
X19955828Y-51740533D02*
X19908209Y-51835771D01*
X19908209Y-51835771D02*
X19860590Y-51883390D01*
X19860590Y-51883390D02*
X19765352Y-51931009D01*
X19765352Y-51931009D02*
X19432019Y-51931009D01*
X20860590Y-52454819D02*
X20860590Y-51931009D01*
X20860590Y-51931009D02*
X20812971Y-51835771D01*
X20812971Y-51835771D02*
X20717733Y-51788152D01*
X20717733Y-51788152D02*
X20527257Y-51788152D01*
X20527257Y-51788152D02*
X20432019Y-51835771D01*
X20860590Y-52407200D02*
X20765352Y-52454819D01*
X20765352Y-52454819D02*
X20527257Y-52454819D01*
X20527257Y-52454819D02*
X20432019Y-52407200D01*
X20432019Y-52407200D02*
X20384400Y-52311961D01*
X20384400Y-52311961D02*
X20384400Y-52216723D01*
X20384400Y-52216723D02*
X20432019Y-52121485D01*
X20432019Y-52121485D02*
X20527257Y-52073866D01*
X20527257Y-52073866D02*
X20765352Y-52073866D01*
X20765352Y-52073866D02*
X20860590Y-52026247D01*
X21765352Y-51788152D02*
X21765352Y-52454819D01*
X21336781Y-51788152D02*
X21336781Y-52311961D01*
X21336781Y-52311961D02*
X21384400Y-52407200D01*
X21384400Y-52407200D02*
X21479638Y-52454819D01*
X21479638Y-52454819D02*
X21622495Y-52454819D01*
X21622495Y-52454819D02*
X21717733Y-52407200D01*
X21717733Y-52407200D02*
X21765352Y-52359580D01*
X22622495Y-52407200D02*
X22527257Y-52454819D01*
X22527257Y-52454819D02*
X22336781Y-52454819D01*
X22336781Y-52454819D02*
X22241543Y-52407200D01*
X22241543Y-52407200D02*
X22193924Y-52311961D01*
X22193924Y-52311961D02*
X22193924Y-51931009D01*
X22193924Y-51931009D02*
X22241543Y-51835771D01*
X22241543Y-51835771D02*
X22336781Y-51788152D01*
X22336781Y-51788152D02*
X22527257Y-51788152D01*
X22527257Y-51788152D02*
X22622495Y-51835771D01*
X22622495Y-51835771D02*
X22670114Y-51931009D01*
X22670114Y-51931009D02*
X22670114Y-52026247D01*
X22670114Y-52026247D02*
X22193924Y-52121485D01*
X23098686Y-52454819D02*
X23098686Y-51788152D01*
X23098686Y-51978628D02*
X23146305Y-51883390D01*
X23146305Y-51883390D02*
X23193924Y-51835771D01*
X23193924Y-51835771D02*
X23289162Y-51788152D01*
X23289162Y-51788152D02*
X23384400Y-51788152D01*
X24479639Y-52073866D02*
X25241544Y-52073866D01*
X26432020Y-51550057D02*
X26479639Y-51502438D01*
X26479639Y-51502438D02*
X26574877Y-51454819D01*
X26574877Y-51454819D02*
X26812972Y-51454819D01*
X26812972Y-51454819D02*
X26908210Y-51502438D01*
X26908210Y-51502438D02*
X26955829Y-51550057D01*
X26955829Y-51550057D02*
X27003448Y-51645295D01*
X27003448Y-51645295D02*
X27003448Y-51740533D01*
X27003448Y-51740533D02*
X26955829Y-51883390D01*
X26955829Y-51883390D02*
X26384401Y-52454819D01*
X26384401Y-52454819D02*
X27003448Y-52454819D01*
X27622496Y-51454819D02*
X27717734Y-51454819D01*
X27717734Y-51454819D02*
X27812972Y-51502438D01*
X27812972Y-51502438D02*
X27860591Y-51550057D01*
X27860591Y-51550057D02*
X27908210Y-51645295D01*
X27908210Y-51645295D02*
X27955829Y-51835771D01*
X27955829Y-51835771D02*
X27955829Y-52073866D01*
X27955829Y-52073866D02*
X27908210Y-52264342D01*
X27908210Y-52264342D02*
X27860591Y-52359580D01*
X27860591Y-52359580D02*
X27812972Y-52407200D01*
X27812972Y-52407200D02*
X27717734Y-52454819D01*
X27717734Y-52454819D02*
X27622496Y-52454819D01*
X27622496Y-52454819D02*
X27527258Y-52407200D01*
X27527258Y-52407200D02*
X27479639Y-52359580D01*
X27479639Y-52359580D02*
X27432020Y-52264342D01*
X27432020Y-52264342D02*
X27384401Y-52073866D01*
X27384401Y-52073866D02*
X27384401Y-51835771D01*
X27384401Y-51835771D02*
X27432020Y-51645295D01*
X27432020Y-51645295D02*
X27479639Y-51550057D01*
X27479639Y-51550057D02*
X27527258Y-51502438D01*
X27527258Y-51502438D02*
X27622496Y-51454819D01*
X28336782Y-51550057D02*
X28384401Y-51502438D01*
X28384401Y-51502438D02*
X28479639Y-51454819D01*
X28479639Y-51454819D02*
X28717734Y-51454819D01*
X28717734Y-51454819D02*
X28812972Y-51502438D01*
X28812972Y-51502438D02*
X28860591Y-51550057D01*
X28860591Y-51550057D02*
X28908210Y-51645295D01*
X28908210Y-51645295D02*
X28908210Y-51740533D01*
X28908210Y-51740533D02*
X28860591Y-51883390D01*
X28860591Y-51883390D02*
X28289163Y-52454819D01*
X28289163Y-52454819D02*
X28908210Y-52454819D01*
X29765353Y-51454819D02*
X29574877Y-51454819D01*
X29574877Y-51454819D02*
X29479639Y-51502438D01*
X29479639Y-51502438D02*
X29432020Y-51550057D01*
X29432020Y-51550057D02*
X29336782Y-51692914D01*
X29336782Y-51692914D02*
X29289163Y-51883390D01*
X29289163Y-51883390D02*
X29289163Y-52264342D01*
X29289163Y-52264342D02*
X29336782Y-52359580D01*
X29336782Y-52359580D02*
X29384401Y-52407200D01*
X29384401Y-52407200D02*
X29479639Y-52454819D01*
X29479639Y-52454819D02*
X29670115Y-52454819D01*
X29670115Y-52454819D02*
X29765353Y-52407200D01*
X29765353Y-52407200D02*
X29812972Y-52359580D01*
X29812972Y-52359580D02*
X29860591Y-52264342D01*
X29860591Y-52264342D02*
X29860591Y-52026247D01*
X29860591Y-52026247D02*
X29812972Y-51931009D01*
X29812972Y-51931009D02*
X29765353Y-51883390D01*
X29765353Y-51883390D02*
X29670115Y-51835771D01*
X29670115Y-51835771D02*
X29479639Y-51835771D01*
X29479639Y-51835771D02*
X29384401Y-51883390D01*
X29384401Y-51883390D02*
X29336782Y-51931009D01*
X29336782Y-51931009D02*
X29289163Y-52026247D01*
D11*
X69733333Y-33183855D02*
X69733333Y-33755283D01*
X69733333Y-33755283D02*
X69695238Y-33869569D01*
X69695238Y-33869569D02*
X69619047Y-33945760D01*
X69619047Y-33945760D02*
X69504762Y-33983855D01*
X69504762Y-33983855D02*
X69428571Y-33983855D01*
X70038095Y-33183855D02*
X70533333Y-33183855D01*
X70533333Y-33183855D02*
X70266667Y-33488617D01*
X70266667Y-33488617D02*
X70380952Y-33488617D01*
X70380952Y-33488617D02*
X70457143Y-33526712D01*
X70457143Y-33526712D02*
X70495238Y-33564807D01*
X70495238Y-33564807D02*
X70533333Y-33640998D01*
X70533333Y-33640998D02*
X70533333Y-33831474D01*
X70533333Y-33831474D02*
X70495238Y-33907664D01*
X70495238Y-33907664D02*
X70457143Y-33945760D01*
X70457143Y-33945760D02*
X70380952Y-33983855D01*
X70380952Y-33983855D02*
X70152381Y-33983855D01*
X70152381Y-33983855D02*
X70076190Y-33945760D01*
X70076190Y-33945760D02*
X70038095Y-33907664D01*
X13295237Y-64444807D02*
X13409523Y-64482902D01*
X13409523Y-64482902D02*
X13447618Y-64520998D01*
X13447618Y-64520998D02*
X13485714Y-64597188D01*
X13485714Y-64597188D02*
X13485714Y-64711474D01*
X13485714Y-64711474D02*
X13447618Y-64787664D01*
X13447618Y-64787664D02*
X13409523Y-64825760D01*
X13409523Y-64825760D02*
X13333333Y-64863855D01*
X13333333Y-64863855D02*
X13028571Y-64863855D01*
X13028571Y-64863855D02*
X13028571Y-64063855D01*
X13028571Y-64063855D02*
X13295237Y-64063855D01*
X13295237Y-64063855D02*
X13371428Y-64101950D01*
X13371428Y-64101950D02*
X13409523Y-64140045D01*
X13409523Y-64140045D02*
X13447618Y-64216236D01*
X13447618Y-64216236D02*
X13447618Y-64292426D01*
X13447618Y-64292426D02*
X13409523Y-64368617D01*
X13409523Y-64368617D02*
X13371428Y-64406712D01*
X13371428Y-64406712D02*
X13295237Y-64444807D01*
X13295237Y-64444807D02*
X13028571Y-64444807D01*
X13752380Y-64063855D02*
X14285714Y-64063855D01*
X14285714Y-64063855D02*
X13752380Y-64863855D01*
X13752380Y-64863855D02*
X14285714Y-64863855D01*
X15009523Y-64863855D02*
X14552380Y-64863855D01*
X14780952Y-64863855D02*
X14780952Y-64063855D01*
X14780952Y-64063855D02*
X14704761Y-64178140D01*
X14704761Y-64178140D02*
X14628571Y-64254331D01*
X14628571Y-64254331D02*
X14552380Y-64292426D01*
X21733333Y-57183855D02*
X21733333Y-57755283D01*
X21733333Y-57755283D02*
X21695238Y-57869569D01*
X21695238Y-57869569D02*
X21619047Y-57945760D01*
X21619047Y-57945760D02*
X21504762Y-57983855D01*
X21504762Y-57983855D02*
X21428571Y-57983855D01*
X22495238Y-57183855D02*
X22114286Y-57183855D01*
X22114286Y-57183855D02*
X22076190Y-57564807D01*
X22076190Y-57564807D02*
X22114286Y-57526712D01*
X22114286Y-57526712D02*
X22190476Y-57488617D01*
X22190476Y-57488617D02*
X22380952Y-57488617D01*
X22380952Y-57488617D02*
X22457143Y-57526712D01*
X22457143Y-57526712D02*
X22495238Y-57564807D01*
X22495238Y-57564807D02*
X22533333Y-57640998D01*
X22533333Y-57640998D02*
X22533333Y-57831474D01*
X22533333Y-57831474D02*
X22495238Y-57907664D01*
X22495238Y-57907664D02*
X22457143Y-57945760D01*
X22457143Y-57945760D02*
X22380952Y-57983855D01*
X22380952Y-57983855D02*
X22190476Y-57983855D01*
X22190476Y-57983855D02*
X22114286Y-57945760D01*
X22114286Y-57945760D02*
X22076190Y-57907664D01*
X4933332Y-37725760D02*
X5047618Y-37763855D01*
X5047618Y-37763855D02*
X5238094Y-37763855D01*
X5238094Y-37763855D02*
X5314285Y-37725760D01*
X5314285Y-37725760D02*
X5352380Y-37687664D01*
X5352380Y-37687664D02*
X5390475Y-37611474D01*
X5390475Y-37611474D02*
X5390475Y-37535283D01*
X5390475Y-37535283D02*
X5352380Y-37459093D01*
X5352380Y-37459093D02*
X5314285Y-37420998D01*
X5314285Y-37420998D02*
X5238094Y-37382902D01*
X5238094Y-37382902D02*
X5085713Y-37344807D01*
X5085713Y-37344807D02*
X5009523Y-37306712D01*
X5009523Y-37306712D02*
X4971428Y-37268617D01*
X4971428Y-37268617D02*
X4933332Y-37192426D01*
X4933332Y-37192426D02*
X4933332Y-37116236D01*
X4933332Y-37116236D02*
X4971428Y-37040045D01*
X4971428Y-37040045D02*
X5009523Y-37001950D01*
X5009523Y-37001950D02*
X5085713Y-36963855D01*
X5085713Y-36963855D02*
X5276190Y-36963855D01*
X5276190Y-36963855D02*
X5390475Y-37001950D01*
X5657142Y-36963855D02*
X5847618Y-37763855D01*
X5847618Y-37763855D02*
X5999999Y-37192426D01*
X5999999Y-37192426D02*
X6152380Y-37763855D01*
X6152380Y-37763855D02*
X6342857Y-36963855D01*
X7066666Y-37763855D02*
X6609523Y-37763855D01*
X6838095Y-37763855D02*
X6838095Y-36963855D01*
X6838095Y-36963855D02*
X6761904Y-37078140D01*
X6761904Y-37078140D02*
X6685714Y-37154331D01*
X6685714Y-37154331D02*
X6609523Y-37192426D01*
X39390476Y-41113855D02*
X39390476Y-41761474D01*
X39390476Y-41761474D02*
X39428571Y-41837664D01*
X39428571Y-41837664D02*
X39466666Y-41875760D01*
X39466666Y-41875760D02*
X39542857Y-41913855D01*
X39542857Y-41913855D02*
X39695238Y-41913855D01*
X39695238Y-41913855D02*
X39771428Y-41875760D01*
X39771428Y-41875760D02*
X39809523Y-41837664D01*
X39809523Y-41837664D02*
X39847619Y-41761474D01*
X39847619Y-41761474D02*
X39847619Y-41113855D01*
X40609523Y-41113855D02*
X40228571Y-41113855D01*
X40228571Y-41113855D02*
X40190475Y-41494807D01*
X40190475Y-41494807D02*
X40228571Y-41456712D01*
X40228571Y-41456712D02*
X40304761Y-41418617D01*
X40304761Y-41418617D02*
X40495237Y-41418617D01*
X40495237Y-41418617D02*
X40571428Y-41456712D01*
X40571428Y-41456712D02*
X40609523Y-41494807D01*
X40609523Y-41494807D02*
X40647618Y-41570998D01*
X40647618Y-41570998D02*
X40647618Y-41761474D01*
X40647618Y-41761474D02*
X40609523Y-41837664D01*
X40609523Y-41837664D02*
X40571428Y-41875760D01*
X40571428Y-41875760D02*
X40495237Y-41913855D01*
X40495237Y-41913855D02*
X40304761Y-41913855D01*
X40304761Y-41913855D02*
X40228571Y-41875760D01*
X40228571Y-41875760D02*
X40190475Y-41837664D01*
X23390476Y-39513855D02*
X23390476Y-40161474D01*
X23390476Y-40161474D02*
X23428571Y-40237664D01*
X23428571Y-40237664D02*
X23466666Y-40275760D01*
X23466666Y-40275760D02*
X23542857Y-40313855D01*
X23542857Y-40313855D02*
X23695238Y-40313855D01*
X23695238Y-40313855D02*
X23771428Y-40275760D01*
X23771428Y-40275760D02*
X23809523Y-40237664D01*
X23809523Y-40237664D02*
X23847619Y-40161474D01*
X23847619Y-40161474D02*
X23847619Y-39513855D01*
X24571428Y-39780521D02*
X24571428Y-40313855D01*
X24380952Y-39475760D02*
X24190475Y-40047188D01*
X24190475Y-40047188D02*
X24685714Y-40047188D01*
X10933332Y-37725760D02*
X11047618Y-37763855D01*
X11047618Y-37763855D02*
X11238094Y-37763855D01*
X11238094Y-37763855D02*
X11314285Y-37725760D01*
X11314285Y-37725760D02*
X11352380Y-37687664D01*
X11352380Y-37687664D02*
X11390475Y-37611474D01*
X11390475Y-37611474D02*
X11390475Y-37535283D01*
X11390475Y-37535283D02*
X11352380Y-37459093D01*
X11352380Y-37459093D02*
X11314285Y-37420998D01*
X11314285Y-37420998D02*
X11238094Y-37382902D01*
X11238094Y-37382902D02*
X11085713Y-37344807D01*
X11085713Y-37344807D02*
X11009523Y-37306712D01*
X11009523Y-37306712D02*
X10971428Y-37268617D01*
X10971428Y-37268617D02*
X10933332Y-37192426D01*
X10933332Y-37192426D02*
X10933332Y-37116236D01*
X10933332Y-37116236D02*
X10971428Y-37040045D01*
X10971428Y-37040045D02*
X11009523Y-37001950D01*
X11009523Y-37001950D02*
X11085713Y-36963855D01*
X11085713Y-36963855D02*
X11276190Y-36963855D01*
X11276190Y-36963855D02*
X11390475Y-37001950D01*
X11657142Y-36963855D02*
X11847618Y-37763855D01*
X11847618Y-37763855D02*
X11999999Y-37192426D01*
X11999999Y-37192426D02*
X12152380Y-37763855D01*
X12152380Y-37763855D02*
X12342857Y-36963855D01*
X12609523Y-37040045D02*
X12647619Y-37001950D01*
X12647619Y-37001950D02*
X12723809Y-36963855D01*
X12723809Y-36963855D02*
X12914285Y-36963855D01*
X12914285Y-36963855D02*
X12990476Y-37001950D01*
X12990476Y-37001950D02*
X13028571Y-37040045D01*
X13028571Y-37040045D02*
X13066666Y-37116236D01*
X13066666Y-37116236D02*
X13066666Y-37192426D01*
X13066666Y-37192426D02*
X13028571Y-37306712D01*
X13028571Y-37306712D02*
X12571428Y-37763855D01*
X12571428Y-37763855D02*
X13066666Y-37763855D01*
X10918855Y-9266666D02*
X11490283Y-9266666D01*
X11490283Y-9266666D02*
X11604569Y-9304761D01*
X11604569Y-9304761D02*
X11680760Y-9380952D01*
X11680760Y-9380952D02*
X11718855Y-9495237D01*
X11718855Y-9495237D02*
X11718855Y-9571428D01*
X11718855Y-8466666D02*
X11718855Y-8923809D01*
X11718855Y-8695237D02*
X10918855Y-8695237D01*
X10918855Y-8695237D02*
X11033140Y-8771428D01*
X11033140Y-8771428D02*
X11109331Y-8847618D01*
X11109331Y-8847618D02*
X11147426Y-8923809D01*
X35390476Y-7163855D02*
X35390476Y-7811474D01*
X35390476Y-7811474D02*
X35428571Y-7887664D01*
X35428571Y-7887664D02*
X35466666Y-7925760D01*
X35466666Y-7925760D02*
X35542857Y-7963855D01*
X35542857Y-7963855D02*
X35695238Y-7963855D01*
X35695238Y-7963855D02*
X35771428Y-7925760D01*
X35771428Y-7925760D02*
X35809523Y-7887664D01*
X35809523Y-7887664D02*
X35847619Y-7811474D01*
X35847619Y-7811474D02*
X35847619Y-7163855D01*
X36190475Y-7240045D02*
X36228571Y-7201950D01*
X36228571Y-7201950D02*
X36304761Y-7163855D01*
X36304761Y-7163855D02*
X36495237Y-7163855D01*
X36495237Y-7163855D02*
X36571428Y-7201950D01*
X36571428Y-7201950D02*
X36609523Y-7240045D01*
X36609523Y-7240045D02*
X36647618Y-7316236D01*
X36647618Y-7316236D02*
X36647618Y-7392426D01*
X36647618Y-7392426D02*
X36609523Y-7506712D01*
X36609523Y-7506712D02*
X36152380Y-7963855D01*
X36152380Y-7963855D02*
X36647618Y-7963855D01*
X46953855Y-38039523D02*
X47601474Y-38039523D01*
X47601474Y-38039523D02*
X47677664Y-38001428D01*
X47677664Y-38001428D02*
X47715760Y-37963333D01*
X47715760Y-37963333D02*
X47753855Y-37887142D01*
X47753855Y-37887142D02*
X47753855Y-37734761D01*
X47753855Y-37734761D02*
X47715760Y-37658571D01*
X47715760Y-37658571D02*
X47677664Y-37620476D01*
X47677664Y-37620476D02*
X47601474Y-37582380D01*
X47601474Y-37582380D02*
X46953855Y-37582380D01*
X46953855Y-37277619D02*
X46953855Y-36782381D01*
X46953855Y-36782381D02*
X47258617Y-37049047D01*
X47258617Y-37049047D02*
X47258617Y-36934762D01*
X47258617Y-36934762D02*
X47296712Y-36858571D01*
X47296712Y-36858571D02*
X47334807Y-36820476D01*
X47334807Y-36820476D02*
X47410998Y-36782381D01*
X47410998Y-36782381D02*
X47601474Y-36782381D01*
X47601474Y-36782381D02*
X47677664Y-36820476D01*
X47677664Y-36820476D02*
X47715760Y-36858571D01*
X47715760Y-36858571D02*
X47753855Y-36934762D01*
X47753855Y-36934762D02*
X47753855Y-37163333D01*
X47753855Y-37163333D02*
X47715760Y-37239524D01*
X47715760Y-37239524D02*
X47677664Y-37277619D01*
X51390476Y-43363855D02*
X51390476Y-44011474D01*
X51390476Y-44011474D02*
X51428571Y-44087664D01*
X51428571Y-44087664D02*
X51466666Y-44125760D01*
X51466666Y-44125760D02*
X51542857Y-44163855D01*
X51542857Y-44163855D02*
X51695238Y-44163855D01*
X51695238Y-44163855D02*
X51771428Y-44125760D01*
X51771428Y-44125760D02*
X51809523Y-44087664D01*
X51809523Y-44087664D02*
X51847619Y-44011474D01*
X51847619Y-44011474D02*
X51847619Y-43363855D01*
X52571428Y-43363855D02*
X52419047Y-43363855D01*
X52419047Y-43363855D02*
X52342856Y-43401950D01*
X52342856Y-43401950D02*
X52304761Y-43440045D01*
X52304761Y-43440045D02*
X52228571Y-43554331D01*
X52228571Y-43554331D02*
X52190475Y-43706712D01*
X52190475Y-43706712D02*
X52190475Y-44011474D01*
X52190475Y-44011474D02*
X52228571Y-44087664D01*
X52228571Y-44087664D02*
X52266666Y-44125760D01*
X52266666Y-44125760D02*
X52342856Y-44163855D01*
X52342856Y-44163855D02*
X52495237Y-44163855D01*
X52495237Y-44163855D02*
X52571428Y-44125760D01*
X52571428Y-44125760D02*
X52609523Y-44087664D01*
X52609523Y-44087664D02*
X52647618Y-44011474D01*
X52647618Y-44011474D02*
X52647618Y-43820998D01*
X52647618Y-43820998D02*
X52609523Y-43744807D01*
X52609523Y-43744807D02*
X52571428Y-43706712D01*
X52571428Y-43706712D02*
X52495237Y-43668617D01*
X52495237Y-43668617D02*
X52342856Y-43668617D01*
X52342856Y-43668617D02*
X52266666Y-43706712D01*
X52266666Y-43706712D02*
X52228571Y-43744807D01*
X52228571Y-43744807D02*
X52190475Y-43820998D01*
X69733333Y-17183855D02*
X69733333Y-17755283D01*
X69733333Y-17755283D02*
X69695238Y-17869569D01*
X69695238Y-17869569D02*
X69619047Y-17945760D01*
X69619047Y-17945760D02*
X69504762Y-17983855D01*
X69504762Y-17983855D02*
X69428571Y-17983855D01*
X70076190Y-17260045D02*
X70114286Y-17221950D01*
X70114286Y-17221950D02*
X70190476Y-17183855D01*
X70190476Y-17183855D02*
X70380952Y-17183855D01*
X70380952Y-17183855D02*
X70457143Y-17221950D01*
X70457143Y-17221950D02*
X70495238Y-17260045D01*
X70495238Y-17260045D02*
X70533333Y-17336236D01*
X70533333Y-17336236D02*
X70533333Y-17412426D01*
X70533333Y-17412426D02*
X70495238Y-17526712D01*
X70495238Y-17526712D02*
X70038095Y-17983855D01*
X70038095Y-17983855D02*
X70533333Y-17983855D01*
X37733333Y-57183855D02*
X37733333Y-57755283D01*
X37733333Y-57755283D02*
X37695238Y-57869569D01*
X37695238Y-57869569D02*
X37619047Y-57945760D01*
X37619047Y-57945760D02*
X37504762Y-57983855D01*
X37504762Y-57983855D02*
X37428571Y-57983855D01*
X38038095Y-57183855D02*
X38571429Y-57183855D01*
X38571429Y-57183855D02*
X38228571Y-57983855D01*
X25409524Y-2863855D02*
X25409524Y-2063855D01*
X25409524Y-2063855D02*
X25600000Y-2063855D01*
X25600000Y-2063855D02*
X25714286Y-2101950D01*
X25714286Y-2101950D02*
X25790476Y-2178140D01*
X25790476Y-2178140D02*
X25828571Y-2254331D01*
X25828571Y-2254331D02*
X25866667Y-2406712D01*
X25866667Y-2406712D02*
X25866667Y-2520998D01*
X25866667Y-2520998D02*
X25828571Y-2673379D01*
X25828571Y-2673379D02*
X25790476Y-2749569D01*
X25790476Y-2749569D02*
X25714286Y-2825760D01*
X25714286Y-2825760D02*
X25600000Y-2863855D01*
X25600000Y-2863855D02*
X25409524Y-2863855D01*
X26628571Y-2863855D02*
X26171428Y-2863855D01*
X26400000Y-2863855D02*
X26400000Y-2063855D01*
X26400000Y-2063855D02*
X26323809Y-2178140D01*
X26323809Y-2178140D02*
X26247619Y-2254331D01*
X26247619Y-2254331D02*
X26171428Y-2292426D01*
D10*
X22228571Y-4762295D02*
X21771428Y-4762295D01*
X22000000Y-4762295D02*
X22000000Y-3962295D01*
X22000000Y-3962295D02*
X21923809Y-4076580D01*
X21923809Y-4076580D02*
X21847619Y-4152771D01*
X21847619Y-4152771D02*
X21771428Y-4190866D01*
D11*
X55733333Y-57183855D02*
X55733333Y-57755283D01*
X55733333Y-57755283D02*
X55695238Y-57869569D01*
X55695238Y-57869569D02*
X55619047Y-57945760D01*
X55619047Y-57945760D02*
X55504762Y-57983855D01*
X55504762Y-57983855D02*
X55428571Y-57983855D01*
X56152381Y-57983855D02*
X56304762Y-57983855D01*
X56304762Y-57983855D02*
X56380952Y-57945760D01*
X56380952Y-57945760D02*
X56419048Y-57907664D01*
X56419048Y-57907664D02*
X56495238Y-57793379D01*
X56495238Y-57793379D02*
X56533333Y-57640998D01*
X56533333Y-57640998D02*
X56533333Y-57336236D01*
X56533333Y-57336236D02*
X56495238Y-57260045D01*
X56495238Y-57260045D02*
X56457143Y-57221950D01*
X56457143Y-57221950D02*
X56380952Y-57183855D01*
X56380952Y-57183855D02*
X56228571Y-57183855D01*
X56228571Y-57183855D02*
X56152381Y-57221950D01*
X56152381Y-57221950D02*
X56114286Y-57260045D01*
X56114286Y-57260045D02*
X56076190Y-57336236D01*
X56076190Y-57336236D02*
X56076190Y-57526712D01*
X56076190Y-57526712D02*
X56114286Y-57602902D01*
X56114286Y-57602902D02*
X56152381Y-57640998D01*
X56152381Y-57640998D02*
X56228571Y-57679093D01*
X56228571Y-57679093D02*
X56380952Y-57679093D01*
X56380952Y-57679093D02*
X56457143Y-57640998D01*
X56457143Y-57640998D02*
X56495238Y-57602902D01*
X56495238Y-57602902D02*
X56533333Y-57526712D01*
X69733333Y-49183855D02*
X69733333Y-49755283D01*
X69733333Y-49755283D02*
X69695238Y-49869569D01*
X69695238Y-49869569D02*
X69619047Y-49945760D01*
X69619047Y-49945760D02*
X69504762Y-49983855D01*
X69504762Y-49983855D02*
X69428571Y-49983855D01*
X70457143Y-49450521D02*
X70457143Y-49983855D01*
X70266667Y-49145760D02*
X70076190Y-49717188D01*
X70076190Y-49717188D02*
X70571429Y-49717188D01*
X45733333Y-57183855D02*
X45733333Y-57755283D01*
X45733333Y-57755283D02*
X45695238Y-57869569D01*
X45695238Y-57869569D02*
X45619047Y-57945760D01*
X45619047Y-57945760D02*
X45504762Y-57983855D01*
X45504762Y-57983855D02*
X45428571Y-57983855D01*
X46228571Y-57526712D02*
X46152381Y-57488617D01*
X46152381Y-57488617D02*
X46114286Y-57450521D01*
X46114286Y-57450521D02*
X46076190Y-57374331D01*
X46076190Y-57374331D02*
X46076190Y-57336236D01*
X46076190Y-57336236D02*
X46114286Y-57260045D01*
X46114286Y-57260045D02*
X46152381Y-57221950D01*
X46152381Y-57221950D02*
X46228571Y-57183855D01*
X46228571Y-57183855D02*
X46380952Y-57183855D01*
X46380952Y-57183855D02*
X46457143Y-57221950D01*
X46457143Y-57221950D02*
X46495238Y-57260045D01*
X46495238Y-57260045D02*
X46533333Y-57336236D01*
X46533333Y-57336236D02*
X46533333Y-57374331D01*
X46533333Y-57374331D02*
X46495238Y-57450521D01*
X46495238Y-57450521D02*
X46457143Y-57488617D01*
X46457143Y-57488617D02*
X46380952Y-57526712D01*
X46380952Y-57526712D02*
X46228571Y-57526712D01*
X46228571Y-57526712D02*
X46152381Y-57564807D01*
X46152381Y-57564807D02*
X46114286Y-57602902D01*
X46114286Y-57602902D02*
X46076190Y-57679093D01*
X46076190Y-57679093D02*
X46076190Y-57831474D01*
X46076190Y-57831474D02*
X46114286Y-57907664D01*
X46114286Y-57907664D02*
X46152381Y-57945760D01*
X46152381Y-57945760D02*
X46228571Y-57983855D01*
X46228571Y-57983855D02*
X46380952Y-57983855D01*
X46380952Y-57983855D02*
X46457143Y-57945760D01*
X46457143Y-57945760D02*
X46495238Y-57907664D01*
X46495238Y-57907664D02*
X46533333Y-57831474D01*
X46533333Y-57831474D02*
X46533333Y-57679093D01*
X46533333Y-57679093D02*
X46495238Y-57602902D01*
X46495238Y-57602902D02*
X46457143Y-57564807D01*
X46457143Y-57564807D02*
X46380952Y-57526712D01*
X29733333Y-57183855D02*
X29733333Y-57755283D01*
X29733333Y-57755283D02*
X29695238Y-57869569D01*
X29695238Y-57869569D02*
X29619047Y-57945760D01*
X29619047Y-57945760D02*
X29504762Y-57983855D01*
X29504762Y-57983855D02*
X29428571Y-57983855D01*
X30457143Y-57183855D02*
X30304762Y-57183855D01*
X30304762Y-57183855D02*
X30228571Y-57221950D01*
X30228571Y-57221950D02*
X30190476Y-57260045D01*
X30190476Y-57260045D02*
X30114286Y-57374331D01*
X30114286Y-57374331D02*
X30076190Y-57526712D01*
X30076190Y-57526712D02*
X30076190Y-57831474D01*
X30076190Y-57831474D02*
X30114286Y-57907664D01*
X30114286Y-57907664D02*
X30152381Y-57945760D01*
X30152381Y-57945760D02*
X30228571Y-57983855D01*
X30228571Y-57983855D02*
X30380952Y-57983855D01*
X30380952Y-57983855D02*
X30457143Y-57945760D01*
X30457143Y-57945760D02*
X30495238Y-57907664D01*
X30495238Y-57907664D02*
X30533333Y-57831474D01*
X30533333Y-57831474D02*
X30533333Y-57640998D01*
X30533333Y-57640998D02*
X30495238Y-57564807D01*
X30495238Y-57564807D02*
X30457143Y-57526712D01*
X30457143Y-57526712D02*
X30380952Y-57488617D01*
X30380952Y-57488617D02*
X30228571Y-57488617D01*
X30228571Y-57488617D02*
X30152381Y-57526712D01*
X30152381Y-57526712D02*
X30114286Y-57564807D01*
X30114286Y-57564807D02*
X30076190Y-57640998D01*
X35866666Y-15083855D02*
X35485714Y-15083855D01*
X35485714Y-15083855D02*
X35485714Y-14283855D01*
X36552380Y-15083855D02*
X36095237Y-15083855D01*
X36323809Y-15083855D02*
X36323809Y-14283855D01*
X36323809Y-14283855D02*
X36247618Y-14398140D01*
X36247618Y-14398140D02*
X36171428Y-14474331D01*
X36171428Y-14474331D02*
X36095237Y-14512426D01*
%TO.C,J3*%
X68620000Y-34620000D02*
X70000000Y-34620000D01*
X68620000Y-36000000D02*
X68620000Y-34620000D01*
X68620000Y-37270000D02*
X68620000Y-45000000D01*
X68620000Y-37270000D02*
X71380000Y-37270000D01*
X68620000Y-45000000D02*
X71380000Y-45000000D01*
X71380000Y-37270000D02*
X71380000Y-45000000D01*
%TO.C,TP9*%
X17050000Y-33050000D02*
X18950000Y-33050000D01*
X17050000Y-34950000D02*
X17050000Y-33050000D01*
X18950000Y-33050000D02*
X18950000Y-34950000D01*
X18950000Y-34950000D02*
X17050000Y-34950000D01*
%TO.C,BZ1*%
X9400000Y-65400000D02*
X9400000Y-67600000D01*
X9400000Y-65400000D02*
X18600000Y-65400000D01*
X9400000Y-67600000D02*
X9000000Y-67600000D01*
X9400000Y-72400000D02*
X9400000Y-74600000D01*
X18600000Y-65400000D02*
X18600000Y-67600000D01*
X18600000Y-72400000D02*
X18600000Y-74600000D01*
X18600000Y-74600000D02*
X9400000Y-74600000D01*
%TO.C,TP3*%
X29050000Y-33050000D02*
X30950000Y-33050000D01*
X29050000Y-34950000D02*
X29050000Y-33050000D01*
X30950000Y-33050000D02*
X30950000Y-34950000D01*
X30950000Y-34950000D02*
X29050000Y-34950000D01*
%TO.C,J5*%
X20620000Y-58620000D02*
X22000000Y-58620000D01*
X20620000Y-60000000D02*
X20620000Y-58620000D01*
X20620000Y-61270000D02*
X20620000Y-63920000D01*
X20620000Y-61270000D02*
X23380000Y-61270000D01*
X20620000Y-63920000D02*
X23380000Y-63920000D01*
X23380000Y-61270000D02*
X23380000Y-63920000D01*
%TO.C,SW1*%
X3800000Y-38300000D02*
X3800000Y-38420000D01*
X3800000Y-39430000D02*
X3800000Y-40570000D01*
X3800000Y-41580000D02*
X3800000Y-41700000D01*
X3800000Y-41700000D02*
X8200000Y-41700000D01*
X8200000Y-38300000D02*
X3800000Y-38300000D01*
X8200000Y-38420000D02*
X8200000Y-38300000D01*
X8200000Y-40570000D02*
X8200000Y-39430000D01*
X8200000Y-41700000D02*
X8200000Y-41580000D01*
%TO.C,TP7*%
X29050000Y-36050000D02*
X30950000Y-36050000D01*
X29050000Y-37950000D02*
X29050000Y-36050000D01*
X30950000Y-36050000D02*
X30950000Y-37950000D01*
X30950000Y-37950000D02*
X29050000Y-37950000D01*
%TO.C,TP2*%
X26050000Y-33050000D02*
X27950000Y-33050000D01*
X26050000Y-34950000D02*
X26050000Y-33050000D01*
X27950000Y-33050000D02*
X27950000Y-34950000D01*
X27950000Y-34950000D02*
X26050000Y-34950000D01*
%TO.C,U5*%
X38290000Y-45610000D02*
X38290000Y-42390000D01*
X41710000Y-42390000D02*
X41710000Y-45610000D01*
X38790000Y-42280000D02*
X38550000Y-41950000D01*
X39030000Y-41950000D01*
X38790000Y-42280000D01*
G36*
X38790000Y-42280000D02*
G01*
X38550000Y-41950000D01*
X39030000Y-41950000D01*
X38790000Y-42280000D01*
G37*
%TO.C,U4*%
X18840000Y-40840000D02*
X20815000Y-40840000D01*
X18840000Y-42815000D02*
X18840000Y-40840000D01*
X18840000Y-51160000D02*
X18840000Y-49185000D01*
X20815000Y-51160000D02*
X18840000Y-51160000D01*
X27185000Y-40840000D02*
X29160000Y-40840000D01*
X29160000Y-40840000D02*
X29160000Y-42815000D01*
X29160000Y-49185000D02*
X29160000Y-51160000D01*
X29160000Y-51160000D02*
X27185000Y-51160000D01*
X18640000Y-43500000D02*
X18310000Y-43740000D01*
X18310000Y-43260000D01*
X18640000Y-43500000D01*
G36*
X18640000Y-43500000D02*
G01*
X18310000Y-43740000D01*
X18310000Y-43260000D01*
X18640000Y-43500000D01*
G37*
%TO.C,SW2*%
X9800000Y-38300000D02*
X9800000Y-38420000D01*
X9800000Y-39430000D02*
X9800000Y-40570000D01*
X9800000Y-41580000D02*
X9800000Y-41700000D01*
X9800000Y-41700000D02*
X14200000Y-41700000D01*
X14200000Y-38300000D02*
X9800000Y-38300000D01*
X14200000Y-38420000D02*
X14200000Y-38300000D01*
X14200000Y-40570000D02*
X14200000Y-39430000D01*
X14200000Y-41700000D02*
X14200000Y-41580000D01*
%TO.C,TP10*%
X35050000Y-36050000D02*
X36950000Y-36050000D01*
X35050000Y-37950000D02*
X35050000Y-36050000D01*
X36950000Y-36050000D02*
X36950000Y-37950000D01*
X36950000Y-37950000D02*
X35050000Y-37950000D01*
%TO.C,J1*%
X15100000Y-4300000D02*
X17100000Y-4300000D01*
X15100000Y-13700000D02*
X17100000Y-13700000D01*
X19000000Y-4300000D02*
X20900000Y-4300000D01*
X19000000Y-13700000D02*
X20900000Y-13700000D01*
X20900000Y-13700000D02*
X20900000Y-4300000D01*
%TO.C,U2*%
X35090000Y-8440000D02*
X36910000Y-8440000D01*
X35090000Y-8490000D02*
X35090000Y-8440000D01*
X35090000Y-11560000D02*
X35090000Y-11510000D01*
X36910000Y-8440000D02*
X36910000Y-8490000D01*
X36910000Y-11510000D02*
X36910000Y-11560000D01*
X36910000Y-11560000D02*
X35090000Y-11560000D01*
X34550000Y-8490000D02*
X34310000Y-8160000D01*
X34790000Y-8160000D01*
X34550000Y-8490000D01*
G36*
X34550000Y-8490000D02*
G01*
X34310000Y-8160000D01*
X34790000Y-8160000D01*
X34550000Y-8490000D01*
G37*
%TO.C,U3*%
X48880000Y-13140000D02*
X48880000Y-19300000D01*
X48880000Y-13140000D02*
X67120000Y-13140000D01*
X48880000Y-38100000D02*
X48880000Y-38880000D01*
X48880000Y-38880000D02*
X49880000Y-38880000D01*
X67120000Y-13140000D02*
X67120000Y-19555000D01*
X67120000Y-38100000D02*
X67120000Y-38880000D01*
X67120000Y-38880000D02*
X66120000Y-38880000D01*
X48875000Y-20025000D02*
X48375000Y-20025000D01*
X48875000Y-19525000D01*
X48875000Y-20025000D01*
G36*
X48875000Y-20025000D02*
G01*
X48375000Y-20025000D01*
X48875000Y-19525000D01*
X48875000Y-20025000D01*
G37*
%TO.C,U6*%
X51200000Y-44700000D02*
X51200000Y-45400000D01*
X51200000Y-44700000D02*
X51500000Y-44700000D01*
X51200000Y-47300000D02*
X52800000Y-47300000D01*
%TO.C,TP5*%
X23050000Y-36050000D02*
X24950000Y-36050000D01*
X23050000Y-37950000D02*
X23050000Y-36050000D01*
X24950000Y-36050000D02*
X24950000Y-37950000D01*
X24950000Y-37950000D02*
X23050000Y-37950000D01*
%TO.C,J2*%
X68620000Y-18620000D02*
X70000000Y-18620000D01*
X68620000Y-20000000D02*
X68620000Y-18620000D01*
X68620000Y-21270000D02*
X68620000Y-29000000D01*
X68620000Y-21270000D02*
X71380000Y-21270000D01*
X68620000Y-29000000D02*
X71380000Y-29000000D01*
X71380000Y-21270000D02*
X71380000Y-29000000D01*
%TO.C,J7*%
X36620000Y-58620000D02*
X38000000Y-58620000D01*
X36620000Y-60000000D02*
X36620000Y-58620000D01*
X36620000Y-61270000D02*
X36620000Y-66460000D01*
X36620000Y-61270000D02*
X39380000Y-61270000D01*
X36620000Y-66460000D02*
X39380000Y-66460000D01*
X39380000Y-61270000D02*
X39380000Y-66460000D01*
%TO.C,TP1*%
X23050000Y-33050000D02*
X24950000Y-33050000D01*
X23050000Y-34950000D02*
X23050000Y-33050000D01*
X24950000Y-33050000D02*
X24950000Y-34950000D01*
X24950000Y-34950000D02*
X23050000Y-34950000D01*
%TO.C,D1*%
X22500000Y-3250000D02*
X22500000Y-8750000D01*
X22500000Y-3250000D02*
X29500000Y-3250000D01*
X22500000Y-8750000D02*
X29050000Y-8750000D01*
X23300000Y-6900000D02*
X23300000Y-5100000D01*
X28700000Y-6900000D02*
X28700000Y-5100000D01*
X29050000Y-8750000D02*
X29500000Y-8300000D01*
X29500000Y-8300000D02*
X29500000Y-3250000D01*
%TO.C,J9*%
X54620000Y-58620000D02*
X56000000Y-58620000D01*
X54620000Y-60000000D02*
X54620000Y-58620000D01*
X54620000Y-61270000D02*
X54620000Y-74080000D01*
X54620000Y-61270000D02*
X57380000Y-61270000D01*
X54620000Y-74080000D02*
X57380000Y-74080000D01*
X57380000Y-61270000D02*
X57380000Y-74080000D01*
%TO.C,TP4*%
X32050000Y-33050000D02*
X33950000Y-33050000D01*
X32050000Y-34950000D02*
X32050000Y-33050000D01*
X33950000Y-33050000D02*
X33950000Y-34950000D01*
X33950000Y-34950000D02*
X32050000Y-34950000D01*
%TO.C,TP6*%
X26050000Y-36050000D02*
X27950000Y-36050000D01*
X26050000Y-37950000D02*
X26050000Y-36050000D01*
X27950000Y-36050000D02*
X27950000Y-37950000D01*
X27950000Y-37950000D02*
X26050000Y-37950000D01*
%TO.C,J4*%
X68620000Y-50620000D02*
X70000000Y-50620000D01*
X68620000Y-52000000D02*
X68620000Y-50620000D01*
X68620000Y-53270000D02*
X68620000Y-63540000D01*
X68620000Y-53270000D02*
X71380000Y-53270000D01*
X68620000Y-63540000D02*
X71380000Y-63540000D01*
X71380000Y-53270000D02*
X71380000Y-63540000D01*
%TO.C,TP8*%
X32050000Y-36050000D02*
X33950000Y-36050000D01*
X32050000Y-37950000D02*
X32050000Y-36050000D01*
X33950000Y-36050000D02*
X33950000Y-37950000D01*
X33950000Y-37950000D02*
X32050000Y-37950000D01*
%TO.C,J8*%
X44620000Y-58620000D02*
X46000000Y-58620000D01*
X44620000Y-60000000D02*
X44620000Y-58620000D01*
X44620000Y-61270000D02*
X44620000Y-66460000D01*
X44620000Y-61270000D02*
X47380000Y-61270000D01*
X44620000Y-66460000D02*
X47380000Y-66460000D01*
X47380000Y-61270000D02*
X47380000Y-66460000D01*
%TO.C,J6*%
X28620000Y-58620000D02*
X30000000Y-58620000D01*
X28620000Y-60000000D02*
X28620000Y-58620000D01*
X28620000Y-61270000D02*
X28620000Y-63920000D01*
X28620000Y-61270000D02*
X31380000Y-61270000D01*
X28620000Y-63920000D02*
X31380000Y-63920000D01*
X31380000Y-61270000D02*
X31380000Y-63920000D01*
%TO.C,L1*%
X35397936Y-15640000D02*
X36602064Y-15640000D01*
X35397936Y-18360000D02*
X36602064Y-18360000D01*
%TD*%
M02*
