%TF.GenerationSoftware,KiCad,Pcbnew,10.0.5*%
%TF.CreationDate,2026-08-07T22:43:49+02:00*%
%TF.ProjectId,wisp,77697370-2e6b-4696-9361-645f70636258,rev?*%
%TF.SameCoordinates,Original*%
%TF.FileFunction,Soldermask,Top*%
%TF.FilePolarity,Negative*%
%FSLAX46Y46*%
G04 Gerber Fmt 4.6, Leading zero omitted, Abs format (unit mm)*
G04 Created by KiCad (PCBNEW 10.0.5) date 2026-08-07 22:43:49*
%MOMM*%
%LPD*%
G01*
G04 APERTURE LIST*
G04 Aperture macros list*
%AMRoundRect*
0 Rectangle with rounded corners*
0 $1 Rounding radius*
0 $2 $3 $4 $5 $6 $7 $8 $9 X,Y pos of 4 corners*
0 Add a 4 corners polygon primitive as box body*
4,1,4,$2,$3,$4,$5,$6,$7,$8,$9,$2,$3,0*
0 Add four circle primitives for the rounded corners*
1,1,$1+$1,$2,$3*
1,1,$1+$1,$4,$5*
1,1,$1+$1,$6,$7*
1,1,$1+$1,$8,$9*
0 Add four rect primitives between the rounded corners*
20,1,$1+$1,$2,$3,$4,$5,0*
20,1,$1+$1,$4,$5,$6,$7,0*
20,1,$1+$1,$6,$7,$8,$9,0*
20,1,$1+$1,$8,$9,$2,$3,0*%
G04 Aperture macros list end*
%ADD10R,1.700000X1.700000*%
%ADD11C,1.700000*%
%ADD12R,1.500000X1.500000*%
%ADD13R,2.000000X4.200000*%
%ADD14R,1.050000X0.650000*%
%ADD15C,3.200000*%
%ADD16RoundRect,0.125000X-0.125000X-0.137500X0.125000X-0.137500X0.125000X0.137500X-0.125000X0.137500X0*%
%ADD17RoundRect,0.212500X-0.737500X-0.212500X0.737500X-0.212500X0.737500X0.212500X-0.737500X0.212500X0*%
%ADD18RoundRect,0.212500X-0.212500X-0.737500X0.212500X-0.737500X0.212500X0.737500X-0.212500X0.737500X0*%
%ADD19R,4.800000X4.800000*%
%ADD20C,0.650000*%
%ADD21RoundRect,0.150000X0.575000X-0.150000X0.575000X0.150000X-0.575000X0.150000X-0.575000X-0.150000X0*%
%ADD22RoundRect,0.075000X0.650000X-0.075000X0.650000X0.075000X-0.650000X0.075000X-0.650000X-0.075000X0*%
%ADD23O,2.100000X1.000000*%
%ADD24O,1.600000X1.000000*%
%ADD25RoundRect,0.150000X-0.512500X-0.150000X0.512500X-0.150000X0.512500X0.150000X-0.512500X0.150000X0*%
%ADD26R,1.500000X0.900000*%
%ADD27R,0.900000X1.500000*%
%ADD28C,0.600000*%
%ADD29R,4.200000X4.200000*%
%ADD30R,0.300000X0.400000*%
%ADD31RoundRect,0.090000X-0.660000X-0.360000X0.660000X-0.360000X0.660000X0.360000X-0.660000X0.360000X0*%
%ADD32RoundRect,0.250000X-0.375000X-1.075000X0.375000X-1.075000X0.375000X1.075000X-0.375000X1.075000X0*%
G04 APERTURE END LIST*
D10*
%TO.C,J3*%
X93333300Y-45000000D03*
D11*
X93333300Y-47540000D03*
X93333300Y-50080000D03*
X93333300Y-52620000D03*
%TD*%
D12*
%TO.C,TP9*%
X24000000Y-42500000D03*
%TD*%
D13*
%TO.C,BZ1*%
X14666700Y-87500000D03*
X22666700Y-87500000D03*
%TD*%
D12*
%TO.C,TP3*%
X40000000Y-42500000D03*
%TD*%
D10*
%TO.C,J5*%
X29333300Y-75000000D03*
D11*
X29333300Y-77540000D03*
%TD*%
D14*
%TO.C,SW1*%
X5925000Y-48925000D03*
X10075000Y-48925000D03*
X5925000Y-51075000D03*
X10075000Y-51075000D03*
%TD*%
D15*
%TO.C,MH4*%
X94666700Y-95000000D03*
%TD*%
D12*
%TO.C,TP7*%
X40000000Y-46250000D03*
%TD*%
%TO.C,TP2*%
X36000000Y-42500000D03*
%TD*%
D16*
%TO.C,U5*%
X52133300Y-53812500D03*
X52933300Y-53812500D03*
X53733300Y-53812500D03*
X54533300Y-53812500D03*
X54533300Y-56187500D03*
X53733300Y-56187500D03*
X52933300Y-56187500D03*
X52133300Y-56187500D03*
%TD*%
D17*
%TO.C,U4*%
X27850000Y-55000000D03*
X27850000Y-56250000D03*
X27850000Y-57500000D03*
X27850000Y-58750000D03*
X27850000Y-60000000D03*
D18*
X29500000Y-61650000D03*
X30750000Y-61650000D03*
X32000000Y-61650000D03*
X33250000Y-61650000D03*
X34500000Y-61650000D03*
D17*
X36150000Y-60000000D03*
X36150000Y-58750000D03*
X36150000Y-57500000D03*
X36150000Y-56250000D03*
X36150000Y-55000000D03*
D18*
X34500000Y-53350000D03*
X33250000Y-53350000D03*
X32000000Y-53350000D03*
X30750000Y-53350000D03*
X29500000Y-53350000D03*
D19*
X32000000Y-57500000D03*
%TD*%
D14*
%TO.C,SW2*%
X13925000Y-48925000D03*
X18075000Y-48925000D03*
X13925000Y-51075000D03*
X18075000Y-51075000D03*
%TD*%
D15*
%TO.C,MH1*%
X5333300Y-5000000D03*
%TD*%
D12*
%TO.C,TP10*%
X48000000Y-46250000D03*
%TD*%
D20*
%TO.C,J1*%
X20066700Y-14140000D03*
X20066700Y-8360000D03*
D21*
X18621700Y-14500000D03*
X18621700Y-13700000D03*
D22*
X18621700Y-12500000D03*
X18621700Y-11500000D03*
X18621700Y-11000000D03*
X18621700Y-10000000D03*
D21*
X18621700Y-8800000D03*
X18621700Y-8000000D03*
X18621700Y-8000000D03*
X18621700Y-8800000D03*
D22*
X18621700Y-9500000D03*
X18621700Y-10500000D03*
X18621700Y-12000000D03*
X18621700Y-13000000D03*
D21*
X18621700Y-13700000D03*
X18621700Y-14500000D03*
D23*
X19536700Y-15570000D03*
D24*
X23716700Y-15570000D03*
D23*
X19536700Y-6930000D03*
D24*
X23716700Y-6930000D03*
%TD*%
D25*
%TO.C,U2*%
X46862500Y-11550000D03*
X46862500Y-12500000D03*
X46862500Y-13450000D03*
X49137500Y-13450000D03*
X49137500Y-12500000D03*
X49137500Y-11550000D03*
%TD*%
D26*
%TO.C,U3*%
X68583300Y-28000000D03*
X68583300Y-29270000D03*
X68583300Y-30540000D03*
X68583300Y-31810000D03*
X68583300Y-33080000D03*
X68583300Y-34350000D03*
X68583300Y-35620000D03*
X68583300Y-36890000D03*
X68583300Y-38160000D03*
X68583300Y-39430000D03*
X68583300Y-40700000D03*
X68583300Y-41970000D03*
X68583300Y-43240000D03*
X68583300Y-44510000D03*
D27*
X71623300Y-45760000D03*
X72893300Y-45760000D03*
X74163300Y-45760000D03*
X75433300Y-45760000D03*
X76703300Y-45760000D03*
X77973300Y-45760000D03*
X79243300Y-45760000D03*
X80513300Y-45760000D03*
X81783300Y-45760000D03*
X83053300Y-45760000D03*
D26*
X86083300Y-44510000D03*
X86083300Y-43240000D03*
X86083300Y-41970000D03*
X86083300Y-40700000D03*
X86083300Y-39430000D03*
X86083300Y-38160000D03*
X86083300Y-36890000D03*
X86083300Y-35620000D03*
X86083300Y-34350000D03*
X86083300Y-33080000D03*
X86083300Y-31810000D03*
X86083300Y-30540000D03*
X86083300Y-29270000D03*
X86083300Y-28000000D03*
D28*
X75128300Y-34577500D03*
X75128300Y-36102500D03*
X75890800Y-33815000D03*
X75890800Y-35340000D03*
X75890800Y-36865000D03*
X76653300Y-34577500D03*
D29*
X76653300Y-35340000D03*
D28*
X76653300Y-36102500D03*
X77415800Y-33815000D03*
X77415800Y-35340000D03*
X77415800Y-36865000D03*
X78178300Y-34577500D03*
X78178300Y-36102500D03*
%TD*%
D30*
%TO.C,U6*%
X68833300Y-56600000D03*
X69333300Y-56600000D03*
X69833300Y-56600000D03*
X69833300Y-58400000D03*
X69333300Y-58400000D03*
X68833300Y-58400000D03*
%TD*%
D12*
%TO.C,TP5*%
X32000000Y-46250000D03*
%TD*%
D15*
%TO.C,MH3*%
X5333300Y-95000000D03*
%TD*%
D10*
%TO.C,J2*%
X93333300Y-25000000D03*
D11*
X93333300Y-27540000D03*
X93333300Y-30080000D03*
X93333300Y-32620000D03*
%TD*%
D10*
%TO.C,J7*%
X50666700Y-75000000D03*
D11*
X50666700Y-77540000D03*
X50666700Y-80080000D03*
%TD*%
D12*
%TO.C,TP1*%
X32000000Y-42500000D03*
%TD*%
D31*
%TO.C,D1*%
X32216700Y-5850000D03*
X32216700Y-9150000D03*
X37116700Y-9150000D03*
X37116700Y-5850000D03*
%TD*%
D10*
%TO.C,J9*%
X74666700Y-75000000D03*
D11*
X74666700Y-77540000D03*
X74666700Y-80080000D03*
X74666700Y-82620000D03*
X74666700Y-85160000D03*
X74666700Y-87700000D03*
%TD*%
D15*
%TO.C,MH2*%
X94666700Y-5000000D03*
%TD*%
D12*
%TO.C,TP4*%
X44000000Y-42500000D03*
%TD*%
%TO.C,TP6*%
X36000000Y-46250000D03*
%TD*%
D10*
%TO.C,J4*%
X93333300Y-65000000D03*
D11*
X93333300Y-67540000D03*
X93333300Y-70080000D03*
X93333300Y-72620000D03*
X93333300Y-75160000D03*
%TD*%
D12*
%TO.C,TP8*%
X44000000Y-46250000D03*
%TD*%
D10*
%TO.C,J8*%
X61333300Y-75000000D03*
D11*
X61333300Y-77540000D03*
X61333300Y-80080000D03*
%TD*%
D10*
%TO.C,J6*%
X40000000Y-75000000D03*
D11*
X40000000Y-77540000D03*
%TD*%
D32*
%TO.C,L1*%
X46600000Y-21250000D03*
X49400000Y-21250000D03*
%TD*%
M02*
