%TF.GenerationSoftware,KiCad,Pcbnew,10.0.5*%
%TF.CreationDate,2026-08-07T16:39:31+02:00*%
%TF.ProjectId,wisp,77697370-2e6b-4696-9361-645f70636258,rev?*%
%TF.SameCoordinates,Original*%
%TF.FileFunction,Other,Comment*%
%FSLAX46Y46*%
G04 Gerber Fmt 4.6, Leading zero omitted, Abs format (unit mm)*
G04 Created by KiCad (PCBNEW 10.0.5) date 2026-08-07 16:39:31*
%MOMM*%
%LPD*%
G01*
G04 APERTURE LIST*
%ADD10C,0.150000*%
G04 APERTURE END LIST*
D10*
X55238095Y-16169104D02*
X55714285Y-16169104D01*
X55142857Y-16454819D02*
X55476190Y-15454819D01*
X55476190Y-15454819D02*
X55809523Y-16454819D01*
X56142857Y-15788152D02*
X56142857Y-16454819D01*
X56142857Y-15883390D02*
X56190476Y-15835771D01*
X56190476Y-15835771D02*
X56285714Y-15788152D01*
X56285714Y-15788152D02*
X56428571Y-15788152D01*
X56428571Y-15788152D02*
X56523809Y-15835771D01*
X56523809Y-15835771D02*
X56571428Y-15931009D01*
X56571428Y-15931009D02*
X56571428Y-16454819D01*
X56904762Y-15788152D02*
X57285714Y-15788152D01*
X57047619Y-15454819D02*
X57047619Y-16311961D01*
X57047619Y-16311961D02*
X57095238Y-16407200D01*
X57095238Y-16407200D02*
X57190476Y-16454819D01*
X57190476Y-16454819D02*
X57285714Y-16454819D01*
X58000000Y-16407200D02*
X57904762Y-16454819D01*
X57904762Y-16454819D02*
X57714286Y-16454819D01*
X57714286Y-16454819D02*
X57619048Y-16407200D01*
X57619048Y-16407200D02*
X57571429Y-16311961D01*
X57571429Y-16311961D02*
X57571429Y-15931009D01*
X57571429Y-15931009D02*
X57619048Y-15835771D01*
X57619048Y-15835771D02*
X57714286Y-15788152D01*
X57714286Y-15788152D02*
X57904762Y-15788152D01*
X57904762Y-15788152D02*
X58000000Y-15835771D01*
X58000000Y-15835771D02*
X58047619Y-15931009D01*
X58047619Y-15931009D02*
X58047619Y-16026247D01*
X58047619Y-16026247D02*
X57571429Y-16121485D01*
X58476191Y-15788152D02*
X58476191Y-16454819D01*
X58476191Y-15883390D02*
X58523810Y-15835771D01*
X58523810Y-15835771D02*
X58619048Y-15788152D01*
X58619048Y-15788152D02*
X58761905Y-15788152D01*
X58761905Y-15788152D02*
X58857143Y-15835771D01*
X58857143Y-15835771D02*
X58904762Y-15931009D01*
X58904762Y-15931009D02*
X58904762Y-16454819D01*
X59380953Y-15788152D02*
X59380953Y-16454819D01*
X59380953Y-15883390D02*
X59428572Y-15835771D01*
X59428572Y-15835771D02*
X59523810Y-15788152D01*
X59523810Y-15788152D02*
X59666667Y-15788152D01*
X59666667Y-15788152D02*
X59761905Y-15835771D01*
X59761905Y-15835771D02*
X59809524Y-15931009D01*
X59809524Y-15931009D02*
X59809524Y-16454819D01*
X60714286Y-16454819D02*
X60714286Y-15931009D01*
X60714286Y-15931009D02*
X60666667Y-15835771D01*
X60666667Y-15835771D02*
X60571429Y-15788152D01*
X60571429Y-15788152D02*
X60380953Y-15788152D01*
X60380953Y-15788152D02*
X60285715Y-15835771D01*
X60714286Y-16407200D02*
X60619048Y-16454819D01*
X60619048Y-16454819D02*
X60380953Y-16454819D01*
X60380953Y-16454819D02*
X60285715Y-16407200D01*
X60285715Y-16407200D02*
X60238096Y-16311961D01*
X60238096Y-16311961D02*
X60238096Y-16216723D01*
X60238096Y-16216723D02*
X60285715Y-16121485D01*
X60285715Y-16121485D02*
X60380953Y-16073866D01*
X60380953Y-16073866D02*
X60619048Y-16073866D01*
X60619048Y-16073866D02*
X60714286Y-16026247D01*
X45907142Y-7437438D02*
X45907142Y-5437438D01*
X47049999Y-7437438D02*
X46192856Y-6294580D01*
X47049999Y-5437438D02*
X45907142Y-6580295D01*
X47907142Y-6389819D02*
X48573809Y-6389819D01*
X48859523Y-7437438D02*
X47907142Y-7437438D01*
X47907142Y-7437438D02*
X47907142Y-5437438D01*
X47907142Y-5437438D02*
X48859523Y-5437438D01*
X49716666Y-6389819D02*
X50383333Y-6389819D01*
X50669047Y-7437438D02*
X49716666Y-7437438D01*
X49716666Y-7437438D02*
X49716666Y-5437438D01*
X49716666Y-5437438D02*
X50669047Y-5437438D01*
X51526190Y-7437438D02*
X51526190Y-5437438D01*
X51526190Y-5437438D02*
X52288095Y-5437438D01*
X52288095Y-5437438D02*
X52478571Y-5532676D01*
X52478571Y-5532676D02*
X52573809Y-5627914D01*
X52573809Y-5627914D02*
X52669047Y-5818390D01*
X52669047Y-5818390D02*
X52669047Y-6104104D01*
X52669047Y-6104104D02*
X52573809Y-6294580D01*
X52573809Y-6294580D02*
X52478571Y-6389819D01*
X52478571Y-6389819D02*
X52288095Y-6485057D01*
X52288095Y-6485057D02*
X51526190Y-6485057D01*
X53526190Y-6675533D02*
X55050000Y-6675533D01*
X56383332Y-5437438D02*
X56764285Y-5437438D01*
X56764285Y-5437438D02*
X56954761Y-5532676D01*
X56954761Y-5532676D02*
X57145237Y-5723152D01*
X57145237Y-5723152D02*
X57240475Y-6104104D01*
X57240475Y-6104104D02*
X57240475Y-6770771D01*
X57240475Y-6770771D02*
X57145237Y-7151723D01*
X57145237Y-7151723D02*
X56954761Y-7342200D01*
X56954761Y-7342200D02*
X56764285Y-7437438D01*
X56764285Y-7437438D02*
X56383332Y-7437438D01*
X56383332Y-7437438D02*
X56192856Y-7342200D01*
X56192856Y-7342200D02*
X56002380Y-7151723D01*
X56002380Y-7151723D02*
X55907142Y-6770771D01*
X55907142Y-6770771D02*
X55907142Y-6104104D01*
X55907142Y-6104104D02*
X56002380Y-5723152D01*
X56002380Y-5723152D02*
X56192856Y-5532676D01*
X56192856Y-5532676D02*
X56383332Y-5437438D01*
X58097618Y-5437438D02*
X58097618Y-7056485D01*
X58097618Y-7056485D02*
X58192856Y-7246961D01*
X58192856Y-7246961D02*
X58288094Y-7342200D01*
X58288094Y-7342200D02*
X58478570Y-7437438D01*
X58478570Y-7437438D02*
X58859523Y-7437438D01*
X58859523Y-7437438D02*
X59049999Y-7342200D01*
X59049999Y-7342200D02*
X59145237Y-7246961D01*
X59145237Y-7246961D02*
X59240475Y-7056485D01*
X59240475Y-7056485D02*
X59240475Y-5437438D01*
X59907142Y-5437438D02*
X61049999Y-5437438D01*
X60478570Y-7437438D02*
X60478570Y-5437438D01*
X63050000Y-5437438D02*
X64383333Y-5437438D01*
X64383333Y-5437438D02*
X63050000Y-7437438D01*
X63050000Y-7437438D02*
X64383333Y-7437438D01*
X65526190Y-5437438D02*
X65907143Y-5437438D01*
X65907143Y-5437438D02*
X66097619Y-5532676D01*
X66097619Y-5532676D02*
X66288095Y-5723152D01*
X66288095Y-5723152D02*
X66383333Y-6104104D01*
X66383333Y-6104104D02*
X66383333Y-6770771D01*
X66383333Y-6770771D02*
X66288095Y-7151723D01*
X66288095Y-7151723D02*
X66097619Y-7342200D01*
X66097619Y-7342200D02*
X65907143Y-7437438D01*
X65907143Y-7437438D02*
X65526190Y-7437438D01*
X65526190Y-7437438D02*
X65335714Y-7342200D01*
X65335714Y-7342200D02*
X65145238Y-7151723D01*
X65145238Y-7151723D02*
X65050000Y-6770771D01*
X65050000Y-6770771D02*
X65050000Y-6104104D01*
X65050000Y-6104104D02*
X65145238Y-5723152D01*
X65145238Y-5723152D02*
X65335714Y-5532676D01*
X65335714Y-5532676D02*
X65526190Y-5437438D01*
X67240476Y-7437438D02*
X67240476Y-5437438D01*
X67240476Y-5437438D02*
X68383333Y-7437438D01*
X68383333Y-7437438D02*
X68383333Y-5437438D01*
X69335714Y-6389819D02*
X70002381Y-6389819D01*
X70288095Y-7437438D02*
X69335714Y-7437438D01*
X69335714Y-7437438D02*
X69335714Y-5437438D01*
X69335714Y-5437438D02*
X70288095Y-5437438D01*
%TO.C,MH4*%
X74200000Y-76000000D02*
G75*
G02*
X67800000Y-76000000I-3200000J0D01*
G01*
X67800000Y-76000000D02*
G75*
G02*
X74200000Y-76000000I3200000J0D01*
G01*
%TO.C,MH1*%
X7200000Y-4000000D02*
G75*
G02*
X800000Y-4000000I-3200000J0D01*
G01*
X800000Y-4000000D02*
G75*
G02*
X7200000Y-4000000I3200000J0D01*
G01*
%TO.C,MH3*%
X7200000Y-76000000D02*
G75*
G02*
X800000Y-76000000I-3200000J0D01*
G01*
X800000Y-76000000D02*
G75*
G02*
X7200000Y-76000000I3200000J0D01*
G01*
%TO.C,MH2*%
X74200000Y-4000000D02*
G75*
G02*
X67800000Y-4000000I-3200000J0D01*
G01*
X67800000Y-4000000D02*
G75*
G02*
X74200000Y-4000000I3200000J0D01*
G01*
%TD*%
M02*
