%TF.GenerationSoftware,KiCad,Pcbnew,10.0.5*%
%TF.CreationDate,2026-08-08T13:23:32+02:00*%
%TF.ProjectId,wisp,77697370-2e6b-4696-9361-645f70636258,rev?*%
%TF.SameCoordinates,Original*%
%TF.FileFunction,Legend,Top*%
%TF.FilePolarity,Positive*%
%FSLAX46Y46*%
G04 Gerber Fmt 4.6, Leading zero omitted, Abs format (unit mm)*
G04 Created by KiCad (PCBNEW 10.0.5) date 2026-08-08 13:23:32*
%MOMM*%
%LPD*%
G01*
G04 APERTURE LIST*
%ADD10C,0.120000*%
G04 APERTURE END LIST*
D10*
X20990476Y-40768855D02*
X21447619Y-40768855D01*
X21219047Y-41568855D02*
X21219047Y-40768855D01*
X21714286Y-41568855D02*
X21714286Y-40768855D01*
X21714286Y-40768855D02*
X22019048Y-40768855D01*
X22019048Y-40768855D02*
X22095238Y-40806950D01*
X22095238Y-40806950D02*
X22133333Y-40845045D01*
X22133333Y-40845045D02*
X22171429Y-40921236D01*
X22171429Y-40921236D02*
X22171429Y-41035521D01*
X22171429Y-41035521D02*
X22133333Y-41111712D01*
X22133333Y-41111712D02*
X22095238Y-41149807D01*
X22095238Y-41149807D02*
X22019048Y-41187902D01*
X22019048Y-41187902D02*
X21714286Y-41187902D01*
X22933333Y-41568855D02*
X22476190Y-41568855D01*
X22704762Y-41568855D02*
X22704762Y-40768855D01*
X22704762Y-40768855D02*
X22628571Y-40883140D01*
X22628571Y-40883140D02*
X22552381Y-40959331D01*
X22552381Y-40959331D02*
X22476190Y-40997426D01*
X32990476Y-40768855D02*
X33447619Y-40768855D01*
X33219047Y-41568855D02*
X33219047Y-40768855D01*
X33714286Y-41568855D02*
X33714286Y-40768855D01*
X33714286Y-40768855D02*
X34019048Y-40768855D01*
X34019048Y-40768855D02*
X34095238Y-40806950D01*
X34095238Y-40806950D02*
X34133333Y-40845045D01*
X34133333Y-40845045D02*
X34171429Y-40921236D01*
X34171429Y-40921236D02*
X34171429Y-41035521D01*
X34171429Y-41035521D02*
X34133333Y-41111712D01*
X34133333Y-41111712D02*
X34095238Y-41149807D01*
X34095238Y-41149807D02*
X34019048Y-41187902D01*
X34019048Y-41187902D02*
X33714286Y-41187902D01*
X34857143Y-41035521D02*
X34857143Y-41568855D01*
X34666667Y-40730760D02*
X34476190Y-41302188D01*
X34476190Y-41302188D02*
X34971429Y-41302188D01*
X40445114Y-64822064D02*
X40407018Y-64860160D01*
X40407018Y-64860160D02*
X40292733Y-64898255D01*
X40292733Y-64898255D02*
X40216542Y-64898255D01*
X40216542Y-64898255D02*
X40102256Y-64860160D01*
X40102256Y-64860160D02*
X40026066Y-64783969D01*
X40026066Y-64783969D02*
X39987971Y-64707779D01*
X39987971Y-64707779D02*
X39949875Y-64555398D01*
X39949875Y-64555398D02*
X39949875Y-64441112D01*
X39949875Y-64441112D02*
X39987971Y-64288731D01*
X39987971Y-64288731D02*
X40026066Y-64212540D01*
X40026066Y-64212540D02*
X40102256Y-64136350D01*
X40102256Y-64136350D02*
X40216542Y-64098255D01*
X40216542Y-64098255D02*
X40292733Y-64098255D01*
X40292733Y-64098255D02*
X40407018Y-64136350D01*
X40407018Y-64136350D02*
X40445114Y-64174445D01*
X41207018Y-64898255D02*
X40749875Y-64898255D01*
X40978447Y-64898255D02*
X40978447Y-64098255D01*
X40978447Y-64098255D02*
X40902256Y-64212540D01*
X40902256Y-64212540D02*
X40826066Y-64288731D01*
X40826066Y-64288731D02*
X40749875Y-64326826D01*
X41702257Y-64098255D02*
X41778447Y-64098255D01*
X41778447Y-64098255D02*
X41854638Y-64136350D01*
X41854638Y-64136350D02*
X41892733Y-64174445D01*
X41892733Y-64174445D02*
X41930828Y-64250636D01*
X41930828Y-64250636D02*
X41968923Y-64403017D01*
X41968923Y-64403017D02*
X41968923Y-64593493D01*
X41968923Y-64593493D02*
X41930828Y-64745874D01*
X41930828Y-64745874D02*
X41892733Y-64822064D01*
X41892733Y-64822064D02*
X41854638Y-64860160D01*
X41854638Y-64860160D02*
X41778447Y-64898255D01*
X41778447Y-64898255D02*
X41702257Y-64898255D01*
X41702257Y-64898255D02*
X41626066Y-64860160D01*
X41626066Y-64860160D02*
X41587971Y-64822064D01*
X41587971Y-64822064D02*
X41549876Y-64745874D01*
X41549876Y-64745874D02*
X41511780Y-64593493D01*
X41511780Y-64593493D02*
X41511780Y-64403017D01*
X41511780Y-64403017D02*
X41549876Y-64250636D01*
X41549876Y-64250636D02*
X41587971Y-64174445D01*
X41587971Y-64174445D02*
X41626066Y-64136350D01*
X41626066Y-64136350D02*
X41702257Y-64098255D01*
X52939724Y-12789055D02*
X52939724Y-11989055D01*
X52939724Y-11989055D02*
X53130200Y-11989055D01*
X53130200Y-11989055D02*
X53244486Y-12027150D01*
X53244486Y-12027150D02*
X53320676Y-12103340D01*
X53320676Y-12103340D02*
X53358771Y-12179531D01*
X53358771Y-12179531D02*
X53396867Y-12331912D01*
X53396867Y-12331912D02*
X53396867Y-12446198D01*
X53396867Y-12446198D02*
X53358771Y-12598579D01*
X53358771Y-12598579D02*
X53320676Y-12674769D01*
X53320676Y-12674769D02*
X53244486Y-12750960D01*
X53244486Y-12750960D02*
X53130200Y-12789055D01*
X53130200Y-12789055D02*
X52939724Y-12789055D01*
X53701628Y-12065245D02*
X53739724Y-12027150D01*
X53739724Y-12027150D02*
X53815914Y-11989055D01*
X53815914Y-11989055D02*
X54006390Y-11989055D01*
X54006390Y-11989055D02*
X54082581Y-12027150D01*
X54082581Y-12027150D02*
X54120676Y-12065245D01*
X54120676Y-12065245D02*
X54158771Y-12141436D01*
X54158771Y-12141436D02*
X54158771Y-12217626D01*
X54158771Y-12217626D02*
X54120676Y-12331912D01*
X54120676Y-12331912D02*
X53663533Y-12789055D01*
X53663533Y-12789055D02*
X54158771Y-12789055D01*
X3985714Y-69438855D02*
X3719047Y-69057902D01*
X3528571Y-69438855D02*
X3528571Y-68638855D01*
X3528571Y-68638855D02*
X3833333Y-68638855D01*
X3833333Y-68638855D02*
X3909523Y-68676950D01*
X3909523Y-68676950D02*
X3947618Y-68715045D01*
X3947618Y-68715045D02*
X3985714Y-68791236D01*
X3985714Y-68791236D02*
X3985714Y-68905521D01*
X3985714Y-68905521D02*
X3947618Y-68981712D01*
X3947618Y-68981712D02*
X3909523Y-69019807D01*
X3909523Y-69019807D02*
X3833333Y-69057902D01*
X3833333Y-69057902D02*
X3528571Y-69057902D01*
X4747618Y-69438855D02*
X4290475Y-69438855D01*
X4519047Y-69438855D02*
X4519047Y-68638855D01*
X4519047Y-68638855D02*
X4442856Y-68753140D01*
X4442856Y-68753140D02*
X4366666Y-68829331D01*
X4366666Y-68829331D02*
X4290475Y-68867426D01*
X5433333Y-68638855D02*
X5280952Y-68638855D01*
X5280952Y-68638855D02*
X5204761Y-68676950D01*
X5204761Y-68676950D02*
X5166666Y-68715045D01*
X5166666Y-68715045D02*
X5090476Y-68829331D01*
X5090476Y-68829331D02*
X5052380Y-68981712D01*
X5052380Y-68981712D02*
X5052380Y-69286474D01*
X5052380Y-69286474D02*
X5090476Y-69362664D01*
X5090476Y-69362664D02*
X5128571Y-69400760D01*
X5128571Y-69400760D02*
X5204761Y-69438855D01*
X5204761Y-69438855D02*
X5357142Y-69438855D01*
X5357142Y-69438855D02*
X5433333Y-69400760D01*
X5433333Y-69400760D02*
X5471428Y-69362664D01*
X5471428Y-69362664D02*
X5509523Y-69286474D01*
X5509523Y-69286474D02*
X5509523Y-69095998D01*
X5509523Y-69095998D02*
X5471428Y-69019807D01*
X5471428Y-69019807D02*
X5433333Y-68981712D01*
X5433333Y-68981712D02*
X5357142Y-68943617D01*
X5357142Y-68943617D02*
X5204761Y-68943617D01*
X5204761Y-68943617D02*
X5128571Y-68981712D01*
X5128571Y-68981712D02*
X5090476Y-69019807D01*
X5090476Y-69019807D02*
X5052380Y-69095998D01*
X52085714Y-20938855D02*
X51819047Y-20557902D01*
X51628571Y-20938855D02*
X51628571Y-20138855D01*
X51628571Y-20138855D02*
X51933333Y-20138855D01*
X51933333Y-20138855D02*
X52009523Y-20176950D01*
X52009523Y-20176950D02*
X52047618Y-20215045D01*
X52047618Y-20215045D02*
X52085714Y-20291236D01*
X52085714Y-20291236D02*
X52085714Y-20405521D01*
X52085714Y-20405521D02*
X52047618Y-20481712D01*
X52047618Y-20481712D02*
X52009523Y-20519807D01*
X52009523Y-20519807D02*
X51933333Y-20557902D01*
X51933333Y-20557902D02*
X51628571Y-20557902D01*
X52847618Y-20938855D02*
X52390475Y-20938855D01*
X52619047Y-20938855D02*
X52619047Y-20138855D01*
X52619047Y-20138855D02*
X52542856Y-20253140D01*
X52542856Y-20253140D02*
X52466666Y-20329331D01*
X52466666Y-20329331D02*
X52390475Y-20367426D01*
X53609523Y-20938855D02*
X53152380Y-20938855D01*
X53380952Y-20938855D02*
X53380952Y-20138855D01*
X53380952Y-20138855D02*
X53304761Y-20253140D01*
X53304761Y-20253140D02*
X53228571Y-20329331D01*
X53228571Y-20329331D02*
X53152380Y-20367426D01*
X4116667Y-32223855D02*
X3850000Y-31842902D01*
X3659524Y-32223855D02*
X3659524Y-31423855D01*
X3659524Y-31423855D02*
X3964286Y-31423855D01*
X3964286Y-31423855D02*
X4040476Y-31461950D01*
X4040476Y-31461950D02*
X4078571Y-31500045D01*
X4078571Y-31500045D02*
X4116667Y-31576236D01*
X4116667Y-31576236D02*
X4116667Y-31690521D01*
X4116667Y-31690521D02*
X4078571Y-31766712D01*
X4078571Y-31766712D02*
X4040476Y-31804807D01*
X4040476Y-31804807D02*
X3964286Y-31842902D01*
X3964286Y-31842902D02*
X3659524Y-31842902D01*
X4878571Y-32223855D02*
X4421428Y-32223855D01*
X4650000Y-32223855D02*
X4650000Y-31423855D01*
X4650000Y-31423855D02*
X4573809Y-31538140D01*
X4573809Y-31538140D02*
X4497619Y-31614331D01*
X4497619Y-31614331D02*
X4421428Y-31652426D01*
X25616667Y-79062664D02*
X25578571Y-79100760D01*
X25578571Y-79100760D02*
X25464286Y-79138855D01*
X25464286Y-79138855D02*
X25388095Y-79138855D01*
X25388095Y-79138855D02*
X25273809Y-79100760D01*
X25273809Y-79100760D02*
X25197619Y-79024569D01*
X25197619Y-79024569D02*
X25159524Y-78948379D01*
X25159524Y-78948379D02*
X25121428Y-78795998D01*
X25121428Y-78795998D02*
X25121428Y-78681712D01*
X25121428Y-78681712D02*
X25159524Y-78529331D01*
X25159524Y-78529331D02*
X25197619Y-78453140D01*
X25197619Y-78453140D02*
X25273809Y-78376950D01*
X25273809Y-78376950D02*
X25388095Y-78338855D01*
X25388095Y-78338855D02*
X25464286Y-78338855D01*
X25464286Y-78338855D02*
X25578571Y-78376950D01*
X25578571Y-78376950D02*
X25616667Y-78415045D01*
X25997619Y-79138855D02*
X26150000Y-79138855D01*
X26150000Y-79138855D02*
X26226190Y-79100760D01*
X26226190Y-79100760D02*
X26264286Y-79062664D01*
X26264286Y-79062664D02*
X26340476Y-78948379D01*
X26340476Y-78948379D02*
X26378571Y-78795998D01*
X26378571Y-78795998D02*
X26378571Y-78491236D01*
X26378571Y-78491236D02*
X26340476Y-78415045D01*
X26340476Y-78415045D02*
X26302381Y-78376950D01*
X26302381Y-78376950D02*
X26226190Y-78338855D01*
X26226190Y-78338855D02*
X26073809Y-78338855D01*
X26073809Y-78338855D02*
X25997619Y-78376950D01*
X25997619Y-78376950D02*
X25959524Y-78415045D01*
X25959524Y-78415045D02*
X25921428Y-78491236D01*
X25921428Y-78491236D02*
X25921428Y-78681712D01*
X25921428Y-78681712D02*
X25959524Y-78757902D01*
X25959524Y-78757902D02*
X25997619Y-78795998D01*
X25997619Y-78795998D02*
X26073809Y-78834093D01*
X26073809Y-78834093D02*
X26226190Y-78834093D01*
X26226190Y-78834093D02*
X26302381Y-78795998D01*
X26302381Y-78795998D02*
X26340476Y-78757902D01*
X26340476Y-78757902D02*
X26378571Y-78681712D01*
X11733333Y-54248855D02*
X11733333Y-54820283D01*
X11733333Y-54820283D02*
X11695238Y-54934569D01*
X11695238Y-54934569D02*
X11619047Y-55010760D01*
X11619047Y-55010760D02*
X11504762Y-55048855D01*
X11504762Y-55048855D02*
X11428571Y-55048855D01*
X12228571Y-54591712D02*
X12152381Y-54553617D01*
X12152381Y-54553617D02*
X12114286Y-54515521D01*
X12114286Y-54515521D02*
X12076190Y-54439331D01*
X12076190Y-54439331D02*
X12076190Y-54401236D01*
X12076190Y-54401236D02*
X12114286Y-54325045D01*
X12114286Y-54325045D02*
X12152381Y-54286950D01*
X12152381Y-54286950D02*
X12228571Y-54248855D01*
X12228571Y-54248855D02*
X12380952Y-54248855D01*
X12380952Y-54248855D02*
X12457143Y-54286950D01*
X12457143Y-54286950D02*
X12495238Y-54325045D01*
X12495238Y-54325045D02*
X12533333Y-54401236D01*
X12533333Y-54401236D02*
X12533333Y-54439331D01*
X12533333Y-54439331D02*
X12495238Y-54515521D01*
X12495238Y-54515521D02*
X12457143Y-54553617D01*
X12457143Y-54553617D02*
X12380952Y-54591712D01*
X12380952Y-54591712D02*
X12228571Y-54591712D01*
X12228571Y-54591712D02*
X12152381Y-54629807D01*
X12152381Y-54629807D02*
X12114286Y-54667902D01*
X12114286Y-54667902D02*
X12076190Y-54744093D01*
X12076190Y-54744093D02*
X12076190Y-54896474D01*
X12076190Y-54896474D02*
X12114286Y-54972664D01*
X12114286Y-54972664D02*
X12152381Y-55010760D01*
X12152381Y-55010760D02*
X12228571Y-55048855D01*
X12228571Y-55048855D02*
X12380952Y-55048855D01*
X12380952Y-55048855D02*
X12457143Y-55010760D01*
X12457143Y-55010760D02*
X12495238Y-54972664D01*
X12495238Y-54972664D02*
X12533333Y-54896474D01*
X12533333Y-54896474D02*
X12533333Y-54744093D01*
X12533333Y-54744093D02*
X12495238Y-54667902D01*
X12495238Y-54667902D02*
X12457143Y-54629807D01*
X12457143Y-54629807D02*
X12380952Y-54591712D01*
X4233333Y-54958855D02*
X4233333Y-55530283D01*
X4233333Y-55530283D02*
X4195238Y-55644569D01*
X4195238Y-55644569D02*
X4119047Y-55720760D01*
X4119047Y-55720760D02*
X4004762Y-55758855D01*
X4004762Y-55758855D02*
X3928571Y-55758855D01*
X4995238Y-54958855D02*
X4614286Y-54958855D01*
X4614286Y-54958855D02*
X4576190Y-55339807D01*
X4576190Y-55339807D02*
X4614286Y-55301712D01*
X4614286Y-55301712D02*
X4690476Y-55263617D01*
X4690476Y-55263617D02*
X4880952Y-55263617D01*
X4880952Y-55263617D02*
X4957143Y-55301712D01*
X4957143Y-55301712D02*
X4995238Y-55339807D01*
X4995238Y-55339807D02*
X5033333Y-55415998D01*
X5033333Y-55415998D02*
X5033333Y-55606474D01*
X5033333Y-55606474D02*
X4995238Y-55682664D01*
X4995238Y-55682664D02*
X4957143Y-55720760D01*
X4957143Y-55720760D02*
X4880952Y-55758855D01*
X4880952Y-55758855D02*
X4690476Y-55758855D01*
X4690476Y-55758855D02*
X4614286Y-55720760D01*
X4614286Y-55720760D02*
X4576190Y-55682664D01*
X14116667Y-9542664D02*
X14078571Y-9580760D01*
X14078571Y-9580760D02*
X13964286Y-9618855D01*
X13964286Y-9618855D02*
X13888095Y-9618855D01*
X13888095Y-9618855D02*
X13773809Y-9580760D01*
X13773809Y-9580760D02*
X13697619Y-9504569D01*
X13697619Y-9504569D02*
X13659524Y-9428379D01*
X13659524Y-9428379D02*
X13621428Y-9275998D01*
X13621428Y-9275998D02*
X13621428Y-9161712D01*
X13621428Y-9161712D02*
X13659524Y-9009331D01*
X13659524Y-9009331D02*
X13697619Y-8933140D01*
X13697619Y-8933140D02*
X13773809Y-8856950D01*
X13773809Y-8856950D02*
X13888095Y-8818855D01*
X13888095Y-8818855D02*
X13964286Y-8818855D01*
X13964286Y-8818855D02*
X14078571Y-8856950D01*
X14078571Y-8856950D02*
X14116667Y-8895045D01*
X14802381Y-9085521D02*
X14802381Y-9618855D01*
X14611905Y-8780760D02*
X14421428Y-9352188D01*
X14421428Y-9352188D02*
X14916667Y-9352188D01*
X52939724Y-23558655D02*
X52939724Y-22758655D01*
X52939724Y-22758655D02*
X53130200Y-22758655D01*
X53130200Y-22758655D02*
X53244486Y-22796750D01*
X53244486Y-22796750D02*
X53320676Y-22872940D01*
X53320676Y-22872940D02*
X53358771Y-22949131D01*
X53358771Y-22949131D02*
X53396867Y-23101512D01*
X53396867Y-23101512D02*
X53396867Y-23215798D01*
X53396867Y-23215798D02*
X53358771Y-23368179D01*
X53358771Y-23368179D02*
X53320676Y-23444369D01*
X53320676Y-23444369D02*
X53244486Y-23520560D01*
X53244486Y-23520560D02*
X53130200Y-23558655D01*
X53130200Y-23558655D02*
X52939724Y-23558655D01*
X53663533Y-22758655D02*
X54158771Y-22758655D01*
X54158771Y-22758655D02*
X53892105Y-23063417D01*
X53892105Y-23063417D02*
X54006390Y-23063417D01*
X54006390Y-23063417D02*
X54082581Y-23101512D01*
X54082581Y-23101512D02*
X54120676Y-23139607D01*
X54120676Y-23139607D02*
X54158771Y-23215798D01*
X54158771Y-23215798D02*
X54158771Y-23406274D01*
X54158771Y-23406274D02*
X54120676Y-23482464D01*
X54120676Y-23482464D02*
X54082581Y-23520560D01*
X54082581Y-23520560D02*
X54006390Y-23558655D01*
X54006390Y-23558655D02*
X53777819Y-23558655D01*
X53777819Y-23558655D02*
X53701628Y-23520560D01*
X53701628Y-23520560D02*
X53663533Y-23482464D01*
X18016667Y-8272664D02*
X17978571Y-8310760D01*
X17978571Y-8310760D02*
X17864286Y-8348855D01*
X17864286Y-8348855D02*
X17788095Y-8348855D01*
X17788095Y-8348855D02*
X17673809Y-8310760D01*
X17673809Y-8310760D02*
X17597619Y-8234569D01*
X17597619Y-8234569D02*
X17559524Y-8158379D01*
X17559524Y-8158379D02*
X17521428Y-8005998D01*
X17521428Y-8005998D02*
X17521428Y-7891712D01*
X17521428Y-7891712D02*
X17559524Y-7739331D01*
X17559524Y-7739331D02*
X17597619Y-7663140D01*
X17597619Y-7663140D02*
X17673809Y-7586950D01*
X17673809Y-7586950D02*
X17788095Y-7548855D01*
X17788095Y-7548855D02*
X17864286Y-7548855D01*
X17864286Y-7548855D02*
X17978571Y-7586950D01*
X17978571Y-7586950D02*
X18016667Y-7625045D01*
X18321428Y-7625045D02*
X18359524Y-7586950D01*
X18359524Y-7586950D02*
X18435714Y-7548855D01*
X18435714Y-7548855D02*
X18626190Y-7548855D01*
X18626190Y-7548855D02*
X18702381Y-7586950D01*
X18702381Y-7586950D02*
X18740476Y-7625045D01*
X18740476Y-7625045D02*
X18778571Y-7701236D01*
X18778571Y-7701236D02*
X18778571Y-7777426D01*
X18778571Y-7777426D02*
X18740476Y-7891712D01*
X18740476Y-7891712D02*
X18283333Y-8348855D01*
X18283333Y-8348855D02*
X18778571Y-8348855D01*
X36266667Y-37812664D02*
X36228571Y-37850760D01*
X36228571Y-37850760D02*
X36114286Y-37888855D01*
X36114286Y-37888855D02*
X36038095Y-37888855D01*
X36038095Y-37888855D02*
X35923809Y-37850760D01*
X35923809Y-37850760D02*
X35847619Y-37774569D01*
X35847619Y-37774569D02*
X35809524Y-37698379D01*
X35809524Y-37698379D02*
X35771428Y-37545998D01*
X35771428Y-37545998D02*
X35771428Y-37431712D01*
X35771428Y-37431712D02*
X35809524Y-37279331D01*
X35809524Y-37279331D02*
X35847619Y-37203140D01*
X35847619Y-37203140D02*
X35923809Y-37126950D01*
X35923809Y-37126950D02*
X36038095Y-37088855D01*
X36038095Y-37088855D02*
X36114286Y-37088855D01*
X36114286Y-37088855D02*
X36228571Y-37126950D01*
X36228571Y-37126950D02*
X36266667Y-37165045D01*
X36952381Y-37088855D02*
X36800000Y-37088855D01*
X36800000Y-37088855D02*
X36723809Y-37126950D01*
X36723809Y-37126950D02*
X36685714Y-37165045D01*
X36685714Y-37165045D02*
X36609524Y-37279331D01*
X36609524Y-37279331D02*
X36571428Y-37431712D01*
X36571428Y-37431712D02*
X36571428Y-37736474D01*
X36571428Y-37736474D02*
X36609524Y-37812664D01*
X36609524Y-37812664D02*
X36647619Y-37850760D01*
X36647619Y-37850760D02*
X36723809Y-37888855D01*
X36723809Y-37888855D02*
X36876190Y-37888855D01*
X36876190Y-37888855D02*
X36952381Y-37850760D01*
X36952381Y-37850760D02*
X36990476Y-37812664D01*
X36990476Y-37812664D02*
X37028571Y-37736474D01*
X37028571Y-37736474D02*
X37028571Y-37545998D01*
X37028571Y-37545998D02*
X36990476Y-37469807D01*
X36990476Y-37469807D02*
X36952381Y-37431712D01*
X36952381Y-37431712D02*
X36876190Y-37393617D01*
X36876190Y-37393617D02*
X36723809Y-37393617D01*
X36723809Y-37393617D02*
X36647619Y-37431712D01*
X36647619Y-37431712D02*
X36609524Y-37469807D01*
X36609524Y-37469807D02*
X36571428Y-37545998D01*
X3985714Y-64108855D02*
X3719047Y-63727902D01*
X3528571Y-64108855D02*
X3528571Y-63308855D01*
X3528571Y-63308855D02*
X3833333Y-63308855D01*
X3833333Y-63308855D02*
X3909523Y-63346950D01*
X3909523Y-63346950D02*
X3947618Y-63385045D01*
X3947618Y-63385045D02*
X3985714Y-63461236D01*
X3985714Y-63461236D02*
X3985714Y-63575521D01*
X3985714Y-63575521D02*
X3947618Y-63651712D01*
X3947618Y-63651712D02*
X3909523Y-63689807D01*
X3909523Y-63689807D02*
X3833333Y-63727902D01*
X3833333Y-63727902D02*
X3528571Y-63727902D01*
X4747618Y-64108855D02*
X4290475Y-64108855D01*
X4519047Y-64108855D02*
X4519047Y-63308855D01*
X4519047Y-63308855D02*
X4442856Y-63423140D01*
X4442856Y-63423140D02*
X4366666Y-63499331D01*
X4366666Y-63499331D02*
X4290475Y-63537426D01*
X5204761Y-63651712D02*
X5128571Y-63613617D01*
X5128571Y-63613617D02*
X5090476Y-63575521D01*
X5090476Y-63575521D02*
X5052380Y-63499331D01*
X5052380Y-63499331D02*
X5052380Y-63461236D01*
X5052380Y-63461236D02*
X5090476Y-63385045D01*
X5090476Y-63385045D02*
X5128571Y-63346950D01*
X5128571Y-63346950D02*
X5204761Y-63308855D01*
X5204761Y-63308855D02*
X5357142Y-63308855D01*
X5357142Y-63308855D02*
X5433333Y-63346950D01*
X5433333Y-63346950D02*
X5471428Y-63385045D01*
X5471428Y-63385045D02*
X5509523Y-63461236D01*
X5509523Y-63461236D02*
X5509523Y-63499331D01*
X5509523Y-63499331D02*
X5471428Y-63575521D01*
X5471428Y-63575521D02*
X5433333Y-63613617D01*
X5433333Y-63613617D02*
X5357142Y-63651712D01*
X5357142Y-63651712D02*
X5204761Y-63651712D01*
X5204761Y-63651712D02*
X5128571Y-63689807D01*
X5128571Y-63689807D02*
X5090476Y-63727902D01*
X5090476Y-63727902D02*
X5052380Y-63804093D01*
X5052380Y-63804093D02*
X5052380Y-63956474D01*
X5052380Y-63956474D02*
X5090476Y-64032664D01*
X5090476Y-64032664D02*
X5128571Y-64070760D01*
X5128571Y-64070760D02*
X5204761Y-64108855D01*
X5204761Y-64108855D02*
X5357142Y-64108855D01*
X5357142Y-64108855D02*
X5433333Y-64070760D01*
X5433333Y-64070760D02*
X5471428Y-64032664D01*
X5471428Y-64032664D02*
X5509523Y-63956474D01*
X5509523Y-63956474D02*
X5509523Y-63804093D01*
X5509523Y-63804093D02*
X5471428Y-63727902D01*
X5471428Y-63727902D02*
X5433333Y-63689807D01*
X5433333Y-63689807D02*
X5357142Y-63651712D01*
X11933332Y-21930760D02*
X12047618Y-21968855D01*
X12047618Y-21968855D02*
X12238094Y-21968855D01*
X12238094Y-21968855D02*
X12314285Y-21930760D01*
X12314285Y-21930760D02*
X12352380Y-21892664D01*
X12352380Y-21892664D02*
X12390475Y-21816474D01*
X12390475Y-21816474D02*
X12390475Y-21740283D01*
X12390475Y-21740283D02*
X12352380Y-21664093D01*
X12352380Y-21664093D02*
X12314285Y-21625998D01*
X12314285Y-21625998D02*
X12238094Y-21587902D01*
X12238094Y-21587902D02*
X12085713Y-21549807D01*
X12085713Y-21549807D02*
X12009523Y-21511712D01*
X12009523Y-21511712D02*
X11971428Y-21473617D01*
X11971428Y-21473617D02*
X11933332Y-21397426D01*
X11933332Y-21397426D02*
X11933332Y-21321236D01*
X11933332Y-21321236D02*
X11971428Y-21245045D01*
X11971428Y-21245045D02*
X12009523Y-21206950D01*
X12009523Y-21206950D02*
X12085713Y-21168855D01*
X12085713Y-21168855D02*
X12276190Y-21168855D01*
X12276190Y-21168855D02*
X12390475Y-21206950D01*
X12657142Y-21168855D02*
X12847618Y-21968855D01*
X12847618Y-21968855D02*
X12999999Y-21397426D01*
X12999999Y-21397426D02*
X13152380Y-21968855D01*
X13152380Y-21968855D02*
X13342857Y-21168855D01*
X13609523Y-21245045D02*
X13647619Y-21206950D01*
X13647619Y-21206950D02*
X13723809Y-21168855D01*
X13723809Y-21168855D02*
X13914285Y-21168855D01*
X13914285Y-21168855D02*
X13990476Y-21206950D01*
X13990476Y-21206950D02*
X14028571Y-21245045D01*
X14028571Y-21245045D02*
X14066666Y-21321236D01*
X14066666Y-21321236D02*
X14066666Y-21397426D01*
X14066666Y-21397426D02*
X14028571Y-21511712D01*
X14028571Y-21511712D02*
X13571428Y-21968855D01*
X13571428Y-21968855D02*
X14066666Y-21968855D01*
X40609523Y-45768855D02*
X41066666Y-45768855D01*
X40838094Y-46568855D02*
X40838094Y-45768855D01*
X41333333Y-46568855D02*
X41333333Y-45768855D01*
X41333333Y-45768855D02*
X41638095Y-45768855D01*
X41638095Y-45768855D02*
X41714285Y-45806950D01*
X41714285Y-45806950D02*
X41752380Y-45845045D01*
X41752380Y-45845045D02*
X41790476Y-45921236D01*
X41790476Y-45921236D02*
X41790476Y-46035521D01*
X41790476Y-46035521D02*
X41752380Y-46111712D01*
X41752380Y-46111712D02*
X41714285Y-46149807D01*
X41714285Y-46149807D02*
X41638095Y-46187902D01*
X41638095Y-46187902D02*
X41333333Y-46187902D01*
X42552380Y-46568855D02*
X42095237Y-46568855D01*
X42323809Y-46568855D02*
X42323809Y-45768855D01*
X42323809Y-45768855D02*
X42247618Y-45883140D01*
X42247618Y-45883140D02*
X42171428Y-45959331D01*
X42171428Y-45959331D02*
X42095237Y-45997426D01*
X42857142Y-45845045D02*
X42895238Y-45806950D01*
X42895238Y-45806950D02*
X42971428Y-45768855D01*
X42971428Y-45768855D02*
X43161904Y-45768855D01*
X43161904Y-45768855D02*
X43238095Y-45806950D01*
X43238095Y-45806950D02*
X43276190Y-45845045D01*
X43276190Y-45845045D02*
X43314285Y-45921236D01*
X43314285Y-45921236D02*
X43314285Y-45997426D01*
X43314285Y-45997426D02*
X43276190Y-46111712D01*
X43276190Y-46111712D02*
X42819047Y-46568855D01*
X42819047Y-46568855D02*
X43314285Y-46568855D01*
X52085714Y-15408855D02*
X51819047Y-15027902D01*
X51628571Y-15408855D02*
X51628571Y-14608855D01*
X51628571Y-14608855D02*
X51933333Y-14608855D01*
X51933333Y-14608855D02*
X52009523Y-14646950D01*
X52009523Y-14646950D02*
X52047618Y-14685045D01*
X52047618Y-14685045D02*
X52085714Y-14761236D01*
X52085714Y-14761236D02*
X52085714Y-14875521D01*
X52085714Y-14875521D02*
X52047618Y-14951712D01*
X52047618Y-14951712D02*
X52009523Y-14989807D01*
X52009523Y-14989807D02*
X51933333Y-15027902D01*
X51933333Y-15027902D02*
X51628571Y-15027902D01*
X52847618Y-15408855D02*
X52390475Y-15408855D01*
X52619047Y-15408855D02*
X52619047Y-14608855D01*
X52619047Y-14608855D02*
X52542856Y-14723140D01*
X52542856Y-14723140D02*
X52466666Y-14799331D01*
X52466666Y-14799331D02*
X52390475Y-14837426D01*
X53342857Y-14608855D02*
X53419047Y-14608855D01*
X53419047Y-14608855D02*
X53495238Y-14646950D01*
X53495238Y-14646950D02*
X53533333Y-14685045D01*
X53533333Y-14685045D02*
X53571428Y-14761236D01*
X53571428Y-14761236D02*
X53609523Y-14913617D01*
X53609523Y-14913617D02*
X53609523Y-15104093D01*
X53609523Y-15104093D02*
X53571428Y-15256474D01*
X53571428Y-15256474D02*
X53533333Y-15332664D01*
X53533333Y-15332664D02*
X53495238Y-15370760D01*
X53495238Y-15370760D02*
X53419047Y-15408855D01*
X53419047Y-15408855D02*
X53342857Y-15408855D01*
X53342857Y-15408855D02*
X53266666Y-15370760D01*
X53266666Y-15370760D02*
X53228571Y-15332664D01*
X53228571Y-15332664D02*
X53190476Y-15256474D01*
X53190476Y-15256474D02*
X53152380Y-15104093D01*
X53152380Y-15104093D02*
X53152380Y-14913617D01*
X53152380Y-14913617D02*
X53190476Y-14761236D01*
X53190476Y-14761236D02*
X53228571Y-14685045D01*
X53228571Y-14685045D02*
X53266666Y-14646950D01*
X53266666Y-14646950D02*
X53342857Y-14608855D01*
X52528571Y-66458855D02*
X52528571Y-65658855D01*
X52528571Y-65658855D02*
X52719047Y-65658855D01*
X52719047Y-65658855D02*
X52833333Y-65696950D01*
X52833333Y-65696950D02*
X52909523Y-65773140D01*
X52909523Y-65773140D02*
X52947618Y-65849331D01*
X52947618Y-65849331D02*
X52985714Y-66001712D01*
X52985714Y-66001712D02*
X52985714Y-66115998D01*
X52985714Y-66115998D02*
X52947618Y-66268379D01*
X52947618Y-66268379D02*
X52909523Y-66344569D01*
X52909523Y-66344569D02*
X52833333Y-66420760D01*
X52833333Y-66420760D02*
X52719047Y-66458855D01*
X52719047Y-66458855D02*
X52528571Y-66458855D01*
X53747618Y-66458855D02*
X53290475Y-66458855D01*
X53519047Y-66458855D02*
X53519047Y-65658855D01*
X53519047Y-65658855D02*
X53442856Y-65773140D01*
X53442856Y-65773140D02*
X53366666Y-65849331D01*
X53366666Y-65849331D02*
X53290475Y-65887426D01*
X54433333Y-65925521D02*
X54433333Y-66458855D01*
X54242857Y-65620760D02*
X54052380Y-66192188D01*
X54052380Y-66192188D02*
X54547619Y-66192188D01*
X25421667Y-30158855D02*
X25155000Y-29777902D01*
X24964524Y-30158855D02*
X24964524Y-29358855D01*
X24964524Y-29358855D02*
X25269286Y-29358855D01*
X25269286Y-29358855D02*
X25345476Y-29396950D01*
X25345476Y-29396950D02*
X25383571Y-29435045D01*
X25383571Y-29435045D02*
X25421667Y-29511236D01*
X25421667Y-29511236D02*
X25421667Y-29625521D01*
X25421667Y-29625521D02*
X25383571Y-29701712D01*
X25383571Y-29701712D02*
X25345476Y-29739807D01*
X25345476Y-29739807D02*
X25269286Y-29777902D01*
X25269286Y-29777902D02*
X24964524Y-29777902D01*
X25802619Y-30158855D02*
X25955000Y-30158855D01*
X25955000Y-30158855D02*
X26031190Y-30120760D01*
X26031190Y-30120760D02*
X26069286Y-30082664D01*
X26069286Y-30082664D02*
X26145476Y-29968379D01*
X26145476Y-29968379D02*
X26183571Y-29815998D01*
X26183571Y-29815998D02*
X26183571Y-29511236D01*
X26183571Y-29511236D02*
X26145476Y-29435045D01*
X26145476Y-29435045D02*
X26107381Y-29396950D01*
X26107381Y-29396950D02*
X26031190Y-29358855D01*
X26031190Y-29358855D02*
X25878809Y-29358855D01*
X25878809Y-29358855D02*
X25802619Y-29396950D01*
X25802619Y-29396950D02*
X25764524Y-29435045D01*
X25764524Y-29435045D02*
X25726428Y-29511236D01*
X25726428Y-29511236D02*
X25726428Y-29701712D01*
X25726428Y-29701712D02*
X25764524Y-29777902D01*
X25764524Y-29777902D02*
X25802619Y-29815998D01*
X25802619Y-29815998D02*
X25878809Y-29854093D01*
X25878809Y-29854093D02*
X26031190Y-29854093D01*
X26031190Y-29854093D02*
X26107381Y-29815998D01*
X26107381Y-29815998D02*
X26145476Y-29777902D01*
X26145476Y-29777902D02*
X26183571Y-29701712D01*
X43890476Y-62478855D02*
X43890476Y-63126474D01*
X43890476Y-63126474D02*
X43928571Y-63202664D01*
X43928571Y-63202664D02*
X43966666Y-63240760D01*
X43966666Y-63240760D02*
X44042857Y-63278855D01*
X44042857Y-63278855D02*
X44195238Y-63278855D01*
X44195238Y-63278855D02*
X44271428Y-63240760D01*
X44271428Y-63240760D02*
X44309523Y-63202664D01*
X44309523Y-63202664D02*
X44347619Y-63126474D01*
X44347619Y-63126474D02*
X44347619Y-62478855D01*
X44652380Y-62478855D02*
X45185714Y-62478855D01*
X45185714Y-62478855D02*
X44842856Y-63278855D01*
X12400314Y-40994255D02*
X12133647Y-40613302D01*
X11943171Y-40994255D02*
X11943171Y-40194255D01*
X11943171Y-40194255D02*
X12247933Y-40194255D01*
X12247933Y-40194255D02*
X12324123Y-40232350D01*
X12324123Y-40232350D02*
X12362218Y-40270445D01*
X12362218Y-40270445D02*
X12400314Y-40346636D01*
X12400314Y-40346636D02*
X12400314Y-40460921D01*
X12400314Y-40460921D02*
X12362218Y-40537112D01*
X12362218Y-40537112D02*
X12324123Y-40575207D01*
X12324123Y-40575207D02*
X12247933Y-40613302D01*
X12247933Y-40613302D02*
X11943171Y-40613302D01*
X13162218Y-40994255D02*
X12705075Y-40994255D01*
X12933647Y-40994255D02*
X12933647Y-40194255D01*
X12933647Y-40194255D02*
X12857456Y-40308540D01*
X12857456Y-40308540D02*
X12781266Y-40384731D01*
X12781266Y-40384731D02*
X12705075Y-40422826D01*
X13466980Y-40270445D02*
X13505076Y-40232350D01*
X13505076Y-40232350D02*
X13581266Y-40194255D01*
X13581266Y-40194255D02*
X13771742Y-40194255D01*
X13771742Y-40194255D02*
X13847933Y-40232350D01*
X13847933Y-40232350D02*
X13886028Y-40270445D01*
X13886028Y-40270445D02*
X13924123Y-40346636D01*
X13924123Y-40346636D02*
X13924123Y-40422826D01*
X13924123Y-40422826D02*
X13886028Y-40537112D01*
X13886028Y-40537112D02*
X13428885Y-40994255D01*
X13428885Y-40994255D02*
X13924123Y-40994255D01*
X24990476Y-40768855D02*
X25447619Y-40768855D01*
X25219047Y-41568855D02*
X25219047Y-40768855D01*
X25714286Y-41568855D02*
X25714286Y-40768855D01*
X25714286Y-40768855D02*
X26019048Y-40768855D01*
X26019048Y-40768855D02*
X26095238Y-40806950D01*
X26095238Y-40806950D02*
X26133333Y-40845045D01*
X26133333Y-40845045D02*
X26171429Y-40921236D01*
X26171429Y-40921236D02*
X26171429Y-41035521D01*
X26171429Y-41035521D02*
X26133333Y-41111712D01*
X26133333Y-41111712D02*
X26095238Y-41149807D01*
X26095238Y-41149807D02*
X26019048Y-41187902D01*
X26019048Y-41187902D02*
X25714286Y-41187902D01*
X26476190Y-40845045D02*
X26514286Y-40806950D01*
X26514286Y-40806950D02*
X26590476Y-40768855D01*
X26590476Y-40768855D02*
X26780952Y-40768855D01*
X26780952Y-40768855D02*
X26857143Y-40806950D01*
X26857143Y-40806950D02*
X26895238Y-40845045D01*
X26895238Y-40845045D02*
X26933333Y-40921236D01*
X26933333Y-40921236D02*
X26933333Y-40997426D01*
X26933333Y-40997426D02*
X26895238Y-41111712D01*
X26895238Y-41111712D02*
X26438095Y-41568855D01*
X26438095Y-41568855D02*
X26933333Y-41568855D01*
X56233333Y-23248855D02*
X56233333Y-23820283D01*
X56233333Y-23820283D02*
X56195238Y-23934569D01*
X56195238Y-23934569D02*
X56119047Y-24010760D01*
X56119047Y-24010760D02*
X56004762Y-24048855D01*
X56004762Y-24048855D02*
X55928571Y-24048855D01*
X56538095Y-23248855D02*
X57033333Y-23248855D01*
X57033333Y-23248855D02*
X56766667Y-23553617D01*
X56766667Y-23553617D02*
X56880952Y-23553617D01*
X56880952Y-23553617D02*
X56957143Y-23591712D01*
X56957143Y-23591712D02*
X56995238Y-23629807D01*
X56995238Y-23629807D02*
X57033333Y-23705998D01*
X57033333Y-23705998D02*
X57033333Y-23896474D01*
X57033333Y-23896474D02*
X56995238Y-23972664D01*
X56995238Y-23972664D02*
X56957143Y-24010760D01*
X56957143Y-24010760D02*
X56880952Y-24048855D01*
X56880952Y-24048855D02*
X56652381Y-24048855D01*
X56652381Y-24048855D02*
X56576190Y-24010760D01*
X56576190Y-24010760D02*
X56538095Y-23972664D01*
X38885714Y-31762664D02*
X38847618Y-31800760D01*
X38847618Y-31800760D02*
X38733333Y-31838855D01*
X38733333Y-31838855D02*
X38657142Y-31838855D01*
X38657142Y-31838855D02*
X38542856Y-31800760D01*
X38542856Y-31800760D02*
X38466666Y-31724569D01*
X38466666Y-31724569D02*
X38428571Y-31648379D01*
X38428571Y-31648379D02*
X38390475Y-31495998D01*
X38390475Y-31495998D02*
X38390475Y-31381712D01*
X38390475Y-31381712D02*
X38428571Y-31229331D01*
X38428571Y-31229331D02*
X38466666Y-31153140D01*
X38466666Y-31153140D02*
X38542856Y-31076950D01*
X38542856Y-31076950D02*
X38657142Y-31038855D01*
X38657142Y-31038855D02*
X38733333Y-31038855D01*
X38733333Y-31038855D02*
X38847618Y-31076950D01*
X38847618Y-31076950D02*
X38885714Y-31115045D01*
X39647618Y-31838855D02*
X39190475Y-31838855D01*
X39419047Y-31838855D02*
X39419047Y-31038855D01*
X39419047Y-31038855D02*
X39342856Y-31153140D01*
X39342856Y-31153140D02*
X39266666Y-31229331D01*
X39266666Y-31229331D02*
X39190475Y-31267426D01*
X40333333Y-31305521D02*
X40333333Y-31838855D01*
X40142857Y-31000760D02*
X39952380Y-31572188D01*
X39952380Y-31572188D02*
X40447619Y-31572188D01*
X56233333Y-11248855D02*
X56233333Y-11820283D01*
X56233333Y-11820283D02*
X56195238Y-11934569D01*
X56195238Y-11934569D02*
X56119047Y-12010760D01*
X56119047Y-12010760D02*
X56004762Y-12048855D01*
X56004762Y-12048855D02*
X55928571Y-12048855D01*
X56576190Y-11325045D02*
X56614286Y-11286950D01*
X56614286Y-11286950D02*
X56690476Y-11248855D01*
X56690476Y-11248855D02*
X56880952Y-11248855D01*
X56880952Y-11248855D02*
X56957143Y-11286950D01*
X56957143Y-11286950D02*
X56995238Y-11325045D01*
X56995238Y-11325045D02*
X57033333Y-11401236D01*
X57033333Y-11401236D02*
X57033333Y-11477426D01*
X57033333Y-11477426D02*
X56995238Y-11591712D01*
X56995238Y-11591712D02*
X56538095Y-12048855D01*
X56538095Y-12048855D02*
X57033333Y-12048855D01*
X21733333Y-31269807D02*
X21466667Y-31269807D01*
X21466667Y-31688855D02*
X21466667Y-30888855D01*
X21466667Y-30888855D02*
X21847619Y-30888855D01*
X22571428Y-31688855D02*
X22114285Y-31688855D01*
X22342857Y-31688855D02*
X22342857Y-30888855D01*
X22342857Y-30888855D02*
X22266666Y-31003140D01*
X22266666Y-31003140D02*
X22190476Y-31079331D01*
X22190476Y-31079331D02*
X22114285Y-31117426D01*
X20990476Y-45768855D02*
X21447619Y-45768855D01*
X21219047Y-46568855D02*
X21219047Y-45768855D01*
X21714286Y-46568855D02*
X21714286Y-45768855D01*
X21714286Y-45768855D02*
X22019048Y-45768855D01*
X22019048Y-45768855D02*
X22095238Y-45806950D01*
X22095238Y-45806950D02*
X22133333Y-45845045D01*
X22133333Y-45845045D02*
X22171429Y-45921236D01*
X22171429Y-45921236D02*
X22171429Y-46035521D01*
X22171429Y-46035521D02*
X22133333Y-46111712D01*
X22133333Y-46111712D02*
X22095238Y-46149807D01*
X22095238Y-46149807D02*
X22019048Y-46187902D01*
X22019048Y-46187902D02*
X21714286Y-46187902D01*
X22438095Y-45768855D02*
X22971429Y-45768855D01*
X22971429Y-45768855D02*
X22628571Y-46568855D01*
X56233333Y-49248855D02*
X56233333Y-49820283D01*
X56233333Y-49820283D02*
X56195238Y-49934569D01*
X56195238Y-49934569D02*
X56119047Y-50010760D01*
X56119047Y-50010760D02*
X56004762Y-50048855D01*
X56004762Y-50048855D02*
X55928571Y-50048855D01*
X56652381Y-50048855D02*
X56804762Y-50048855D01*
X56804762Y-50048855D02*
X56880952Y-50010760D01*
X56880952Y-50010760D02*
X56919048Y-49972664D01*
X56919048Y-49972664D02*
X56995238Y-49858379D01*
X56995238Y-49858379D02*
X57033333Y-49705998D01*
X57033333Y-49705998D02*
X57033333Y-49401236D01*
X57033333Y-49401236D02*
X56995238Y-49325045D01*
X56995238Y-49325045D02*
X56957143Y-49286950D01*
X56957143Y-49286950D02*
X56880952Y-49248855D01*
X56880952Y-49248855D02*
X56728571Y-49248855D01*
X56728571Y-49248855D02*
X56652381Y-49286950D01*
X56652381Y-49286950D02*
X56614286Y-49325045D01*
X56614286Y-49325045D02*
X56576190Y-49401236D01*
X56576190Y-49401236D02*
X56576190Y-49591712D01*
X56576190Y-49591712D02*
X56614286Y-49667902D01*
X56614286Y-49667902D02*
X56652381Y-49705998D01*
X56652381Y-49705998D02*
X56728571Y-49744093D01*
X56728571Y-49744093D02*
X56880952Y-49744093D01*
X56880952Y-49744093D02*
X56957143Y-49705998D01*
X56957143Y-49705998D02*
X56995238Y-49667902D01*
X56995238Y-49667902D02*
X57033333Y-49591712D01*
X40990476Y-40768855D02*
X41447619Y-40768855D01*
X41219047Y-41568855D02*
X41219047Y-40768855D01*
X41714286Y-41568855D02*
X41714286Y-40768855D01*
X41714286Y-40768855D02*
X42019048Y-40768855D01*
X42019048Y-40768855D02*
X42095238Y-40806950D01*
X42095238Y-40806950D02*
X42133333Y-40845045D01*
X42133333Y-40845045D02*
X42171429Y-40921236D01*
X42171429Y-40921236D02*
X42171429Y-41035521D01*
X42171429Y-41035521D02*
X42133333Y-41111712D01*
X42133333Y-41111712D02*
X42095238Y-41149807D01*
X42095238Y-41149807D02*
X42019048Y-41187902D01*
X42019048Y-41187902D02*
X41714286Y-41187902D01*
X42857143Y-40768855D02*
X42704762Y-40768855D01*
X42704762Y-40768855D02*
X42628571Y-40806950D01*
X42628571Y-40806950D02*
X42590476Y-40845045D01*
X42590476Y-40845045D02*
X42514286Y-40959331D01*
X42514286Y-40959331D02*
X42476190Y-41111712D01*
X42476190Y-41111712D02*
X42476190Y-41416474D01*
X42476190Y-41416474D02*
X42514286Y-41492664D01*
X42514286Y-41492664D02*
X42552381Y-41530760D01*
X42552381Y-41530760D02*
X42628571Y-41568855D01*
X42628571Y-41568855D02*
X42780952Y-41568855D01*
X42780952Y-41568855D02*
X42857143Y-41530760D01*
X42857143Y-41530760D02*
X42895238Y-41492664D01*
X42895238Y-41492664D02*
X42933333Y-41416474D01*
X42933333Y-41416474D02*
X42933333Y-41225998D01*
X42933333Y-41225998D02*
X42895238Y-41149807D01*
X42895238Y-41149807D02*
X42857143Y-41111712D01*
X42857143Y-41111712D02*
X42780952Y-41073617D01*
X42780952Y-41073617D02*
X42628571Y-41073617D01*
X42628571Y-41073617D02*
X42552381Y-41111712D01*
X42552381Y-41111712D02*
X42514286Y-41149807D01*
X42514286Y-41149807D02*
X42476190Y-41225998D01*
X37523809Y-53695045D02*
X37447619Y-53656950D01*
X37447619Y-53656950D02*
X37371428Y-53580760D01*
X37371428Y-53580760D02*
X37257142Y-53466474D01*
X37257142Y-53466474D02*
X37180952Y-53428379D01*
X37180952Y-53428379D02*
X37104761Y-53428379D01*
X37142857Y-53618855D02*
X37066666Y-53580760D01*
X37066666Y-53580760D02*
X36990476Y-53504569D01*
X36990476Y-53504569D02*
X36952380Y-53352188D01*
X36952380Y-53352188D02*
X36952380Y-53085521D01*
X36952380Y-53085521D02*
X36990476Y-52933140D01*
X36990476Y-52933140D02*
X37066666Y-52856950D01*
X37066666Y-52856950D02*
X37142857Y-52818855D01*
X37142857Y-52818855D02*
X37295238Y-52818855D01*
X37295238Y-52818855D02*
X37371428Y-52856950D01*
X37371428Y-52856950D02*
X37447619Y-52933140D01*
X37447619Y-52933140D02*
X37485714Y-53085521D01*
X37485714Y-53085521D02*
X37485714Y-53352188D01*
X37485714Y-53352188D02*
X37447619Y-53504569D01*
X37447619Y-53504569D02*
X37371428Y-53580760D01*
X37371428Y-53580760D02*
X37295238Y-53618855D01*
X37295238Y-53618855D02*
X37142857Y-53618855D01*
X38171428Y-53085521D02*
X38171428Y-53618855D01*
X37980952Y-52780760D02*
X37790475Y-53352188D01*
X37790475Y-53352188D02*
X38285714Y-53352188D01*
X52909524Y-61378855D02*
X52909524Y-60578855D01*
X52909524Y-60578855D02*
X53100000Y-60578855D01*
X53100000Y-60578855D02*
X53214286Y-60616950D01*
X53214286Y-60616950D02*
X53290476Y-60693140D01*
X53290476Y-60693140D02*
X53328571Y-60769331D01*
X53328571Y-60769331D02*
X53366667Y-60921712D01*
X53366667Y-60921712D02*
X53366667Y-61035998D01*
X53366667Y-61035998D02*
X53328571Y-61188379D01*
X53328571Y-61188379D02*
X53290476Y-61264569D01*
X53290476Y-61264569D02*
X53214286Y-61340760D01*
X53214286Y-61340760D02*
X53100000Y-61378855D01*
X53100000Y-61378855D02*
X52909524Y-61378855D01*
X53747619Y-61378855D02*
X53900000Y-61378855D01*
X53900000Y-61378855D02*
X53976190Y-61340760D01*
X53976190Y-61340760D02*
X54014286Y-61302664D01*
X54014286Y-61302664D02*
X54090476Y-61188379D01*
X54090476Y-61188379D02*
X54128571Y-61035998D01*
X54128571Y-61035998D02*
X54128571Y-60731236D01*
X54128571Y-60731236D02*
X54090476Y-60655045D01*
X54090476Y-60655045D02*
X54052381Y-60616950D01*
X54052381Y-60616950D02*
X53976190Y-60578855D01*
X53976190Y-60578855D02*
X53823809Y-60578855D01*
X53823809Y-60578855D02*
X53747619Y-60616950D01*
X53747619Y-60616950D02*
X53709524Y-60655045D01*
X53709524Y-60655045D02*
X53671428Y-60731236D01*
X53671428Y-60731236D02*
X53671428Y-60921712D01*
X53671428Y-60921712D02*
X53709524Y-60997902D01*
X53709524Y-60997902D02*
X53747619Y-61035998D01*
X53747619Y-61035998D02*
X53823809Y-61074093D01*
X53823809Y-61074093D02*
X53976190Y-61074093D01*
X53976190Y-61074093D02*
X54052381Y-61035998D01*
X54052381Y-61035998D02*
X54090476Y-60997902D01*
X54090476Y-60997902D02*
X54128571Y-60921712D01*
X15374814Y-56953564D02*
X15336718Y-56991660D01*
X15336718Y-56991660D02*
X15222433Y-57029755D01*
X15222433Y-57029755D02*
X15146242Y-57029755D01*
X15146242Y-57029755D02*
X15031956Y-56991660D01*
X15031956Y-56991660D02*
X14955766Y-56915469D01*
X14955766Y-56915469D02*
X14917671Y-56839279D01*
X14917671Y-56839279D02*
X14879575Y-56686898D01*
X14879575Y-56686898D02*
X14879575Y-56572612D01*
X14879575Y-56572612D02*
X14917671Y-56420231D01*
X14917671Y-56420231D02*
X14955766Y-56344040D01*
X14955766Y-56344040D02*
X15031956Y-56267850D01*
X15031956Y-56267850D02*
X15146242Y-56229755D01*
X15146242Y-56229755D02*
X15222433Y-56229755D01*
X15222433Y-56229755D02*
X15336718Y-56267850D01*
X15336718Y-56267850D02*
X15374814Y-56305945D01*
X16136718Y-57029755D02*
X15679575Y-57029755D01*
X15908147Y-57029755D02*
X15908147Y-56229755D01*
X15908147Y-56229755D02*
X15831956Y-56344040D01*
X15831956Y-56344040D02*
X15755766Y-56420231D01*
X15755766Y-56420231D02*
X15679575Y-56458326D01*
X16822433Y-56229755D02*
X16670052Y-56229755D01*
X16670052Y-56229755D02*
X16593861Y-56267850D01*
X16593861Y-56267850D02*
X16555766Y-56305945D01*
X16555766Y-56305945D02*
X16479576Y-56420231D01*
X16479576Y-56420231D02*
X16441480Y-56572612D01*
X16441480Y-56572612D02*
X16441480Y-56877374D01*
X16441480Y-56877374D02*
X16479576Y-56953564D01*
X16479576Y-56953564D02*
X16517671Y-56991660D01*
X16517671Y-56991660D02*
X16593861Y-57029755D01*
X16593861Y-57029755D02*
X16746242Y-57029755D01*
X16746242Y-57029755D02*
X16822433Y-56991660D01*
X16822433Y-56991660D02*
X16860528Y-56953564D01*
X16860528Y-56953564D02*
X16898623Y-56877374D01*
X16898623Y-56877374D02*
X16898623Y-56686898D01*
X16898623Y-56686898D02*
X16860528Y-56610707D01*
X16860528Y-56610707D02*
X16822433Y-56572612D01*
X16822433Y-56572612D02*
X16746242Y-56534517D01*
X16746242Y-56534517D02*
X16593861Y-56534517D01*
X16593861Y-56534517D02*
X16517671Y-56572612D01*
X16517671Y-56572612D02*
X16479576Y-56610707D01*
X16479576Y-56610707D02*
X16441480Y-56686898D01*
X16944767Y-16810755D02*
X16678100Y-16429802D01*
X16487624Y-16810755D02*
X16487624Y-16010755D01*
X16487624Y-16010755D02*
X16792386Y-16010755D01*
X16792386Y-16010755D02*
X16868576Y-16048850D01*
X16868576Y-16048850D02*
X16906671Y-16086945D01*
X16906671Y-16086945D02*
X16944767Y-16163136D01*
X16944767Y-16163136D02*
X16944767Y-16277421D01*
X16944767Y-16277421D02*
X16906671Y-16353612D01*
X16906671Y-16353612D02*
X16868576Y-16391707D01*
X16868576Y-16391707D02*
X16792386Y-16429802D01*
X16792386Y-16429802D02*
X16487624Y-16429802D01*
X17211433Y-16010755D02*
X17706671Y-16010755D01*
X17706671Y-16010755D02*
X17440005Y-16315517D01*
X17440005Y-16315517D02*
X17554290Y-16315517D01*
X17554290Y-16315517D02*
X17630481Y-16353612D01*
X17630481Y-16353612D02*
X17668576Y-16391707D01*
X17668576Y-16391707D02*
X17706671Y-16467898D01*
X17706671Y-16467898D02*
X17706671Y-16658374D01*
X17706671Y-16658374D02*
X17668576Y-16734564D01*
X17668576Y-16734564D02*
X17630481Y-16772660D01*
X17630481Y-16772660D02*
X17554290Y-16810755D01*
X17554290Y-16810755D02*
X17325719Y-16810755D01*
X17325719Y-16810755D02*
X17249528Y-16772660D01*
X17249528Y-16772660D02*
X17211433Y-16734564D01*
X27729167Y-37962664D02*
X27691071Y-38000760D01*
X27691071Y-38000760D02*
X27576786Y-38038855D01*
X27576786Y-38038855D02*
X27500595Y-38038855D01*
X27500595Y-38038855D02*
X27386309Y-38000760D01*
X27386309Y-38000760D02*
X27310119Y-37924569D01*
X27310119Y-37924569D02*
X27272024Y-37848379D01*
X27272024Y-37848379D02*
X27233928Y-37695998D01*
X27233928Y-37695998D02*
X27233928Y-37581712D01*
X27233928Y-37581712D02*
X27272024Y-37429331D01*
X27272024Y-37429331D02*
X27310119Y-37353140D01*
X27310119Y-37353140D02*
X27386309Y-37276950D01*
X27386309Y-37276950D02*
X27500595Y-37238855D01*
X27500595Y-37238855D02*
X27576786Y-37238855D01*
X27576786Y-37238855D02*
X27691071Y-37276950D01*
X27691071Y-37276950D02*
X27729167Y-37315045D01*
X28452976Y-37238855D02*
X28072024Y-37238855D01*
X28072024Y-37238855D02*
X28033928Y-37619807D01*
X28033928Y-37619807D02*
X28072024Y-37581712D01*
X28072024Y-37581712D02*
X28148214Y-37543617D01*
X28148214Y-37543617D02*
X28338690Y-37543617D01*
X28338690Y-37543617D02*
X28414881Y-37581712D01*
X28414881Y-37581712D02*
X28452976Y-37619807D01*
X28452976Y-37619807D02*
X28491071Y-37695998D01*
X28491071Y-37695998D02*
X28491071Y-37886474D01*
X28491071Y-37886474D02*
X28452976Y-37962664D01*
X28452976Y-37962664D02*
X28414881Y-38000760D01*
X28414881Y-38000760D02*
X28338690Y-38038855D01*
X28338690Y-38038855D02*
X28148214Y-38038855D01*
X28148214Y-38038855D02*
X28072024Y-38000760D01*
X28072024Y-38000760D02*
X28033928Y-37962664D01*
X42295476Y-69563855D02*
X42295476Y-70211474D01*
X42295476Y-70211474D02*
X42333571Y-70287664D01*
X42333571Y-70287664D02*
X42371666Y-70325760D01*
X42371666Y-70325760D02*
X42447857Y-70363855D01*
X42447857Y-70363855D02*
X42600238Y-70363855D01*
X42600238Y-70363855D02*
X42676428Y-70325760D01*
X42676428Y-70325760D02*
X42714523Y-70287664D01*
X42714523Y-70287664D02*
X42752619Y-70211474D01*
X42752619Y-70211474D02*
X42752619Y-69563855D01*
X43476428Y-69563855D02*
X43324047Y-69563855D01*
X43324047Y-69563855D02*
X43247856Y-69601950D01*
X43247856Y-69601950D02*
X43209761Y-69640045D01*
X43209761Y-69640045D02*
X43133571Y-69754331D01*
X43133571Y-69754331D02*
X43095475Y-69906712D01*
X43095475Y-69906712D02*
X43095475Y-70211474D01*
X43095475Y-70211474D02*
X43133571Y-70287664D01*
X43133571Y-70287664D02*
X43171666Y-70325760D01*
X43171666Y-70325760D02*
X43247856Y-70363855D01*
X43247856Y-70363855D02*
X43400237Y-70363855D01*
X43400237Y-70363855D02*
X43476428Y-70325760D01*
X43476428Y-70325760D02*
X43514523Y-70287664D01*
X43514523Y-70287664D02*
X43552618Y-70211474D01*
X43552618Y-70211474D02*
X43552618Y-70020998D01*
X43552618Y-70020998D02*
X43514523Y-69944807D01*
X43514523Y-69944807D02*
X43476428Y-69906712D01*
X43476428Y-69906712D02*
X43400237Y-69868617D01*
X43400237Y-69868617D02*
X43247856Y-69868617D01*
X43247856Y-69868617D02*
X43171666Y-69906712D01*
X43171666Y-69906712D02*
X43133571Y-69944807D01*
X43133571Y-69944807D02*
X43095475Y-70020998D01*
X36990476Y-40768855D02*
X37447619Y-40768855D01*
X37219047Y-41568855D02*
X37219047Y-40768855D01*
X37714286Y-41568855D02*
X37714286Y-40768855D01*
X37714286Y-40768855D02*
X38019048Y-40768855D01*
X38019048Y-40768855D02*
X38095238Y-40806950D01*
X38095238Y-40806950D02*
X38133333Y-40845045D01*
X38133333Y-40845045D02*
X38171429Y-40921236D01*
X38171429Y-40921236D02*
X38171429Y-41035521D01*
X38171429Y-41035521D02*
X38133333Y-41111712D01*
X38133333Y-41111712D02*
X38095238Y-41149807D01*
X38095238Y-41149807D02*
X38019048Y-41187902D01*
X38019048Y-41187902D02*
X37714286Y-41187902D01*
X38895238Y-40768855D02*
X38514286Y-40768855D01*
X38514286Y-40768855D02*
X38476190Y-41149807D01*
X38476190Y-41149807D02*
X38514286Y-41111712D01*
X38514286Y-41111712D02*
X38590476Y-41073617D01*
X38590476Y-41073617D02*
X38780952Y-41073617D01*
X38780952Y-41073617D02*
X38857143Y-41111712D01*
X38857143Y-41111712D02*
X38895238Y-41149807D01*
X38895238Y-41149807D02*
X38933333Y-41225998D01*
X38933333Y-41225998D02*
X38933333Y-41416474D01*
X38933333Y-41416474D02*
X38895238Y-41492664D01*
X38895238Y-41492664D02*
X38857143Y-41530760D01*
X38857143Y-41530760D02*
X38780952Y-41568855D01*
X38780952Y-41568855D02*
X38590476Y-41568855D01*
X38590476Y-41568855D02*
X38514286Y-41530760D01*
X38514286Y-41530760D02*
X38476190Y-41492664D01*
X17624414Y-11383964D02*
X17586318Y-11422060D01*
X17586318Y-11422060D02*
X17472033Y-11460155D01*
X17472033Y-11460155D02*
X17395842Y-11460155D01*
X17395842Y-11460155D02*
X17281556Y-11422060D01*
X17281556Y-11422060D02*
X17205366Y-11345869D01*
X17205366Y-11345869D02*
X17167271Y-11269679D01*
X17167271Y-11269679D02*
X17129175Y-11117298D01*
X17129175Y-11117298D02*
X17129175Y-11003012D01*
X17129175Y-11003012D02*
X17167271Y-10850631D01*
X17167271Y-10850631D02*
X17205366Y-10774440D01*
X17205366Y-10774440D02*
X17281556Y-10698250D01*
X17281556Y-10698250D02*
X17395842Y-10660155D01*
X17395842Y-10660155D02*
X17472033Y-10660155D01*
X17472033Y-10660155D02*
X17586318Y-10698250D01*
X17586318Y-10698250D02*
X17624414Y-10736345D01*
X18386318Y-11460155D02*
X17929175Y-11460155D01*
X18157747Y-11460155D02*
X18157747Y-10660155D01*
X18157747Y-10660155D02*
X18081556Y-10774440D01*
X18081556Y-10774440D02*
X18005366Y-10850631D01*
X18005366Y-10850631D02*
X17929175Y-10888726D01*
X18691080Y-10736345D02*
X18729176Y-10698250D01*
X18729176Y-10698250D02*
X18805366Y-10660155D01*
X18805366Y-10660155D02*
X18995842Y-10660155D01*
X18995842Y-10660155D02*
X19072033Y-10698250D01*
X19072033Y-10698250D02*
X19110128Y-10736345D01*
X19110128Y-10736345D02*
X19148223Y-10812536D01*
X19148223Y-10812536D02*
X19148223Y-10888726D01*
X19148223Y-10888726D02*
X19110128Y-11003012D01*
X19110128Y-11003012D02*
X18652985Y-11460155D01*
X18652985Y-11460155D02*
X19148223Y-11460155D01*
X1290714Y-16437664D02*
X1252618Y-16475760D01*
X1252618Y-16475760D02*
X1138333Y-16513855D01*
X1138333Y-16513855D02*
X1062142Y-16513855D01*
X1062142Y-16513855D02*
X947856Y-16475760D01*
X947856Y-16475760D02*
X871666Y-16399569D01*
X871666Y-16399569D02*
X833571Y-16323379D01*
X833571Y-16323379D02*
X795475Y-16170998D01*
X795475Y-16170998D02*
X795475Y-16056712D01*
X795475Y-16056712D02*
X833571Y-15904331D01*
X833571Y-15904331D02*
X871666Y-15828140D01*
X871666Y-15828140D02*
X947856Y-15751950D01*
X947856Y-15751950D02*
X1062142Y-15713855D01*
X1062142Y-15713855D02*
X1138333Y-15713855D01*
X1138333Y-15713855D02*
X1252618Y-15751950D01*
X1252618Y-15751950D02*
X1290714Y-15790045D01*
X2052618Y-16513855D02*
X1595475Y-16513855D01*
X1824047Y-16513855D02*
X1824047Y-15713855D01*
X1824047Y-15713855D02*
X1747856Y-15828140D01*
X1747856Y-15828140D02*
X1671666Y-15904331D01*
X1671666Y-15904331D02*
X1595475Y-15942426D01*
X2319285Y-15713855D02*
X2852619Y-15713855D01*
X2852619Y-15713855D02*
X2509761Y-16513855D01*
X36266667Y-28762664D02*
X36228571Y-28800760D01*
X36228571Y-28800760D02*
X36114286Y-28838855D01*
X36114286Y-28838855D02*
X36038095Y-28838855D01*
X36038095Y-28838855D02*
X35923809Y-28800760D01*
X35923809Y-28800760D02*
X35847619Y-28724569D01*
X35847619Y-28724569D02*
X35809524Y-28648379D01*
X35809524Y-28648379D02*
X35771428Y-28495998D01*
X35771428Y-28495998D02*
X35771428Y-28381712D01*
X35771428Y-28381712D02*
X35809524Y-28229331D01*
X35809524Y-28229331D02*
X35847619Y-28153140D01*
X35847619Y-28153140D02*
X35923809Y-28076950D01*
X35923809Y-28076950D02*
X36038095Y-28038855D01*
X36038095Y-28038855D02*
X36114286Y-28038855D01*
X36114286Y-28038855D02*
X36228571Y-28076950D01*
X36228571Y-28076950D02*
X36266667Y-28115045D01*
X36533333Y-28038855D02*
X37028571Y-28038855D01*
X37028571Y-28038855D02*
X36761905Y-28343617D01*
X36761905Y-28343617D02*
X36876190Y-28343617D01*
X36876190Y-28343617D02*
X36952381Y-28381712D01*
X36952381Y-28381712D02*
X36990476Y-28419807D01*
X36990476Y-28419807D02*
X37028571Y-28495998D01*
X37028571Y-28495998D02*
X37028571Y-28686474D01*
X37028571Y-28686474D02*
X36990476Y-28762664D01*
X36990476Y-28762664D02*
X36952381Y-28800760D01*
X36952381Y-28800760D02*
X36876190Y-28838855D01*
X36876190Y-28838855D02*
X36647619Y-28838855D01*
X36647619Y-28838855D02*
X36571428Y-28800760D01*
X36571428Y-28800760D02*
X36533333Y-28762664D01*
X41716667Y-23618855D02*
X41450000Y-23237902D01*
X41259524Y-23618855D02*
X41259524Y-22818855D01*
X41259524Y-22818855D02*
X41564286Y-22818855D01*
X41564286Y-22818855D02*
X41640476Y-22856950D01*
X41640476Y-22856950D02*
X41678571Y-22895045D01*
X41678571Y-22895045D02*
X41716667Y-22971236D01*
X41716667Y-22971236D02*
X41716667Y-23085521D01*
X41716667Y-23085521D02*
X41678571Y-23161712D01*
X41678571Y-23161712D02*
X41640476Y-23199807D01*
X41640476Y-23199807D02*
X41564286Y-23237902D01*
X41564286Y-23237902D02*
X41259524Y-23237902D01*
X42402381Y-23085521D02*
X42402381Y-23618855D01*
X42211905Y-22780760D02*
X42021428Y-23352188D01*
X42021428Y-23352188D02*
X42516667Y-23352188D01*
X28990476Y-40768855D02*
X29447619Y-40768855D01*
X29219047Y-41568855D02*
X29219047Y-40768855D01*
X29714286Y-41568855D02*
X29714286Y-40768855D01*
X29714286Y-40768855D02*
X30019048Y-40768855D01*
X30019048Y-40768855D02*
X30095238Y-40806950D01*
X30095238Y-40806950D02*
X30133333Y-40845045D01*
X30133333Y-40845045D02*
X30171429Y-40921236D01*
X30171429Y-40921236D02*
X30171429Y-41035521D01*
X30171429Y-41035521D02*
X30133333Y-41111712D01*
X30133333Y-41111712D02*
X30095238Y-41149807D01*
X30095238Y-41149807D02*
X30019048Y-41187902D01*
X30019048Y-41187902D02*
X29714286Y-41187902D01*
X30438095Y-40768855D02*
X30933333Y-40768855D01*
X30933333Y-40768855D02*
X30666667Y-41073617D01*
X30666667Y-41073617D02*
X30780952Y-41073617D01*
X30780952Y-41073617D02*
X30857143Y-41111712D01*
X30857143Y-41111712D02*
X30895238Y-41149807D01*
X30895238Y-41149807D02*
X30933333Y-41225998D01*
X30933333Y-41225998D02*
X30933333Y-41416474D01*
X30933333Y-41416474D02*
X30895238Y-41492664D01*
X30895238Y-41492664D02*
X30857143Y-41530760D01*
X30857143Y-41530760D02*
X30780952Y-41568855D01*
X30780952Y-41568855D02*
X30552381Y-41568855D01*
X30552381Y-41568855D02*
X30476190Y-41530760D01*
X30476190Y-41530760D02*
X30438095Y-41492664D01*
X36609523Y-45768855D02*
X37066666Y-45768855D01*
X36838094Y-46568855D02*
X36838094Y-45768855D01*
X37333333Y-46568855D02*
X37333333Y-45768855D01*
X37333333Y-45768855D02*
X37638095Y-45768855D01*
X37638095Y-45768855D02*
X37714285Y-45806950D01*
X37714285Y-45806950D02*
X37752380Y-45845045D01*
X37752380Y-45845045D02*
X37790476Y-45921236D01*
X37790476Y-45921236D02*
X37790476Y-46035521D01*
X37790476Y-46035521D02*
X37752380Y-46111712D01*
X37752380Y-46111712D02*
X37714285Y-46149807D01*
X37714285Y-46149807D02*
X37638095Y-46187902D01*
X37638095Y-46187902D02*
X37333333Y-46187902D01*
X38552380Y-46568855D02*
X38095237Y-46568855D01*
X38323809Y-46568855D02*
X38323809Y-45768855D01*
X38323809Y-45768855D02*
X38247618Y-45883140D01*
X38247618Y-45883140D02*
X38171428Y-45959331D01*
X38171428Y-45959331D02*
X38095237Y-45997426D01*
X39314285Y-46568855D02*
X38857142Y-46568855D01*
X39085714Y-46568855D02*
X39085714Y-45768855D01*
X39085714Y-45768855D02*
X39009523Y-45883140D01*
X39009523Y-45883140D02*
X38933333Y-45959331D01*
X38933333Y-45959331D02*
X38857142Y-45997426D01*
X21417314Y-77231064D02*
X21379218Y-77269160D01*
X21379218Y-77269160D02*
X21264933Y-77307255D01*
X21264933Y-77307255D02*
X21188742Y-77307255D01*
X21188742Y-77307255D02*
X21074456Y-77269160D01*
X21074456Y-77269160D02*
X20998266Y-77192969D01*
X20998266Y-77192969D02*
X20960171Y-77116779D01*
X20960171Y-77116779D02*
X20922075Y-76964398D01*
X20922075Y-76964398D02*
X20922075Y-76850112D01*
X20922075Y-76850112D02*
X20960171Y-76697731D01*
X20960171Y-76697731D02*
X20998266Y-76621540D01*
X20998266Y-76621540D02*
X21074456Y-76545350D01*
X21074456Y-76545350D02*
X21188742Y-76507255D01*
X21188742Y-76507255D02*
X21264933Y-76507255D01*
X21264933Y-76507255D02*
X21379218Y-76545350D01*
X21379218Y-76545350D02*
X21417314Y-76583445D01*
X22179218Y-77307255D02*
X21722075Y-77307255D01*
X21950647Y-77307255D02*
X21950647Y-76507255D01*
X21950647Y-76507255D02*
X21874456Y-76621540D01*
X21874456Y-76621540D02*
X21798266Y-76697731D01*
X21798266Y-76697731D02*
X21722075Y-76735826D01*
X22445885Y-76507255D02*
X22941123Y-76507255D01*
X22941123Y-76507255D02*
X22674457Y-76812017D01*
X22674457Y-76812017D02*
X22788742Y-76812017D01*
X22788742Y-76812017D02*
X22864933Y-76850112D01*
X22864933Y-76850112D02*
X22903028Y-76888207D01*
X22903028Y-76888207D02*
X22941123Y-76964398D01*
X22941123Y-76964398D02*
X22941123Y-77154874D01*
X22941123Y-77154874D02*
X22903028Y-77231064D01*
X22903028Y-77231064D02*
X22864933Y-77269160D01*
X22864933Y-77269160D02*
X22788742Y-77307255D01*
X22788742Y-77307255D02*
X22560171Y-77307255D01*
X22560171Y-77307255D02*
X22483980Y-77269160D01*
X22483980Y-77269160D02*
X22445885Y-77231064D01*
X25545476Y-32563855D02*
X25545476Y-33211474D01*
X25545476Y-33211474D02*
X25583571Y-33287664D01*
X25583571Y-33287664D02*
X25621666Y-33325760D01*
X25621666Y-33325760D02*
X25697857Y-33363855D01*
X25697857Y-33363855D02*
X25850238Y-33363855D01*
X25850238Y-33363855D02*
X25926428Y-33325760D01*
X25926428Y-33325760D02*
X25964523Y-33287664D01*
X25964523Y-33287664D02*
X26002619Y-33211474D01*
X26002619Y-33211474D02*
X26002619Y-32563855D01*
X26345475Y-32640045D02*
X26383571Y-32601950D01*
X26383571Y-32601950D02*
X26459761Y-32563855D01*
X26459761Y-32563855D02*
X26650237Y-32563855D01*
X26650237Y-32563855D02*
X26726428Y-32601950D01*
X26726428Y-32601950D02*
X26764523Y-32640045D01*
X26764523Y-32640045D02*
X26802618Y-32716236D01*
X26802618Y-32716236D02*
X26802618Y-32792426D01*
X26802618Y-32792426D02*
X26764523Y-32906712D01*
X26764523Y-32906712D02*
X26307380Y-33363855D01*
X26307380Y-33363855D02*
X26802618Y-33363855D01*
X36610714Y-64787664D02*
X36572618Y-64825760D01*
X36572618Y-64825760D02*
X36458333Y-64863855D01*
X36458333Y-64863855D02*
X36382142Y-64863855D01*
X36382142Y-64863855D02*
X36267856Y-64825760D01*
X36267856Y-64825760D02*
X36191666Y-64749569D01*
X36191666Y-64749569D02*
X36153571Y-64673379D01*
X36153571Y-64673379D02*
X36115475Y-64520998D01*
X36115475Y-64520998D02*
X36115475Y-64406712D01*
X36115475Y-64406712D02*
X36153571Y-64254331D01*
X36153571Y-64254331D02*
X36191666Y-64178140D01*
X36191666Y-64178140D02*
X36267856Y-64101950D01*
X36267856Y-64101950D02*
X36382142Y-64063855D01*
X36382142Y-64063855D02*
X36458333Y-64063855D01*
X36458333Y-64063855D02*
X36572618Y-64101950D01*
X36572618Y-64101950D02*
X36610714Y-64140045D01*
X37372618Y-64863855D02*
X36915475Y-64863855D01*
X37144047Y-64863855D02*
X37144047Y-64063855D01*
X37144047Y-64063855D02*
X37067856Y-64178140D01*
X37067856Y-64178140D02*
X36991666Y-64254331D01*
X36991666Y-64254331D02*
X36915475Y-64292426D01*
X37753571Y-64863855D02*
X37905952Y-64863855D01*
X37905952Y-64863855D02*
X37982142Y-64825760D01*
X37982142Y-64825760D02*
X38020238Y-64787664D01*
X38020238Y-64787664D02*
X38096428Y-64673379D01*
X38096428Y-64673379D02*
X38134523Y-64520998D01*
X38134523Y-64520998D02*
X38134523Y-64216236D01*
X38134523Y-64216236D02*
X38096428Y-64140045D01*
X38096428Y-64140045D02*
X38058333Y-64101950D01*
X38058333Y-64101950D02*
X37982142Y-64063855D01*
X37982142Y-64063855D02*
X37829761Y-64063855D01*
X37829761Y-64063855D02*
X37753571Y-64101950D01*
X37753571Y-64101950D02*
X37715476Y-64140045D01*
X37715476Y-64140045D02*
X37677380Y-64216236D01*
X37677380Y-64216236D02*
X37677380Y-64406712D01*
X37677380Y-64406712D02*
X37715476Y-64482902D01*
X37715476Y-64482902D02*
X37753571Y-64520998D01*
X37753571Y-64520998D02*
X37829761Y-64559093D01*
X37829761Y-64559093D02*
X37982142Y-64559093D01*
X37982142Y-64559093D02*
X38058333Y-64520998D01*
X38058333Y-64520998D02*
X38096428Y-64482902D01*
X38096428Y-64482902D02*
X38134523Y-64406712D01*
X52909524Y-56298855D02*
X52909524Y-55498855D01*
X52909524Y-55498855D02*
X53100000Y-55498855D01*
X53100000Y-55498855D02*
X53214286Y-55536950D01*
X53214286Y-55536950D02*
X53290476Y-55613140D01*
X53290476Y-55613140D02*
X53328571Y-55689331D01*
X53328571Y-55689331D02*
X53366667Y-55841712D01*
X53366667Y-55841712D02*
X53366667Y-55955998D01*
X53366667Y-55955998D02*
X53328571Y-56108379D01*
X53328571Y-56108379D02*
X53290476Y-56184569D01*
X53290476Y-56184569D02*
X53214286Y-56260760D01*
X53214286Y-56260760D02*
X53100000Y-56298855D01*
X53100000Y-56298855D02*
X52909524Y-56298855D01*
X53633333Y-55498855D02*
X54166667Y-55498855D01*
X54166667Y-55498855D02*
X53823809Y-56298855D01*
X6409524Y-9068855D02*
X6409524Y-8268855D01*
X6409524Y-8268855D02*
X6600000Y-8268855D01*
X6600000Y-8268855D02*
X6714286Y-8306950D01*
X6714286Y-8306950D02*
X6790476Y-8383140D01*
X6790476Y-8383140D02*
X6828571Y-8459331D01*
X6828571Y-8459331D02*
X6866667Y-8611712D01*
X6866667Y-8611712D02*
X6866667Y-8725998D01*
X6866667Y-8725998D02*
X6828571Y-8878379D01*
X6828571Y-8878379D02*
X6790476Y-8954569D01*
X6790476Y-8954569D02*
X6714286Y-9030760D01*
X6714286Y-9030760D02*
X6600000Y-9068855D01*
X6600000Y-9068855D02*
X6409524Y-9068855D01*
X7628571Y-9068855D02*
X7171428Y-9068855D01*
X7400000Y-9068855D02*
X7400000Y-8268855D01*
X7400000Y-8268855D02*
X7323809Y-8383140D01*
X7323809Y-8383140D02*
X7247619Y-8459331D01*
X7247619Y-8459331D02*
X7171428Y-8497426D01*
X26390476Y-64168855D02*
X26390476Y-64816474D01*
X26390476Y-64816474D02*
X26428571Y-64892664D01*
X26428571Y-64892664D02*
X26466666Y-64930760D01*
X26466666Y-64930760D02*
X26542857Y-64968855D01*
X26542857Y-64968855D02*
X26695238Y-64968855D01*
X26695238Y-64968855D02*
X26771428Y-64930760D01*
X26771428Y-64930760D02*
X26809523Y-64892664D01*
X26809523Y-64892664D02*
X26847619Y-64816474D01*
X26847619Y-64816474D02*
X26847619Y-64168855D01*
X27571428Y-64435521D02*
X27571428Y-64968855D01*
X27380952Y-64130760D02*
X27190475Y-64702188D01*
X27190475Y-64702188D02*
X27685714Y-64702188D01*
X11028571Y-64098855D02*
X11028571Y-63298855D01*
X11028571Y-63298855D02*
X11219047Y-63298855D01*
X11219047Y-63298855D02*
X11333333Y-63336950D01*
X11333333Y-63336950D02*
X11409523Y-63413140D01*
X11409523Y-63413140D02*
X11447618Y-63489331D01*
X11447618Y-63489331D02*
X11485714Y-63641712D01*
X11485714Y-63641712D02*
X11485714Y-63755998D01*
X11485714Y-63755998D02*
X11447618Y-63908379D01*
X11447618Y-63908379D02*
X11409523Y-63984569D01*
X11409523Y-63984569D02*
X11333333Y-64060760D01*
X11333333Y-64060760D02*
X11219047Y-64098855D01*
X11219047Y-64098855D02*
X11028571Y-64098855D01*
X12247618Y-64098855D02*
X11790475Y-64098855D01*
X12019047Y-64098855D02*
X12019047Y-63298855D01*
X12019047Y-63298855D02*
X11942856Y-63413140D01*
X11942856Y-63413140D02*
X11866666Y-63489331D01*
X11866666Y-63489331D02*
X11790475Y-63527426D01*
X12514285Y-63298855D02*
X13009523Y-63298855D01*
X13009523Y-63298855D02*
X12742857Y-63603617D01*
X12742857Y-63603617D02*
X12857142Y-63603617D01*
X12857142Y-63603617D02*
X12933333Y-63641712D01*
X12933333Y-63641712D02*
X12971428Y-63679807D01*
X12971428Y-63679807D02*
X13009523Y-63755998D01*
X13009523Y-63755998D02*
X13009523Y-63946474D01*
X13009523Y-63946474D02*
X12971428Y-64022664D01*
X12971428Y-64022664D02*
X12933333Y-64060760D01*
X12933333Y-64060760D02*
X12857142Y-64098855D01*
X12857142Y-64098855D02*
X12628571Y-64098855D01*
X12628571Y-64098855D02*
X12552380Y-64060760D01*
X12552380Y-64060760D02*
X12514285Y-64022664D01*
X28990476Y-45768855D02*
X29447619Y-45768855D01*
X29219047Y-46568855D02*
X29219047Y-45768855D01*
X29714286Y-46568855D02*
X29714286Y-45768855D01*
X29714286Y-45768855D02*
X30019048Y-45768855D01*
X30019048Y-45768855D02*
X30095238Y-45806950D01*
X30095238Y-45806950D02*
X30133333Y-45845045D01*
X30133333Y-45845045D02*
X30171429Y-45921236D01*
X30171429Y-45921236D02*
X30171429Y-46035521D01*
X30171429Y-46035521D02*
X30133333Y-46111712D01*
X30133333Y-46111712D02*
X30095238Y-46149807D01*
X30095238Y-46149807D02*
X30019048Y-46187902D01*
X30019048Y-46187902D02*
X29714286Y-46187902D01*
X30552381Y-46568855D02*
X30704762Y-46568855D01*
X30704762Y-46568855D02*
X30780952Y-46530760D01*
X30780952Y-46530760D02*
X30819048Y-46492664D01*
X30819048Y-46492664D02*
X30895238Y-46378379D01*
X30895238Y-46378379D02*
X30933333Y-46225998D01*
X30933333Y-46225998D02*
X30933333Y-45921236D01*
X30933333Y-45921236D02*
X30895238Y-45845045D01*
X30895238Y-45845045D02*
X30857143Y-45806950D01*
X30857143Y-45806950D02*
X30780952Y-45768855D01*
X30780952Y-45768855D02*
X30628571Y-45768855D01*
X30628571Y-45768855D02*
X30552381Y-45806950D01*
X30552381Y-45806950D02*
X30514286Y-45845045D01*
X30514286Y-45845045D02*
X30476190Y-45921236D01*
X30476190Y-45921236D02*
X30476190Y-46111712D01*
X30476190Y-46111712D02*
X30514286Y-46187902D01*
X30514286Y-46187902D02*
X30552381Y-46225998D01*
X30552381Y-46225998D02*
X30628571Y-46264093D01*
X30628571Y-46264093D02*
X30780952Y-46264093D01*
X30780952Y-46264093D02*
X30857143Y-46225998D01*
X30857143Y-46225998D02*
X30895238Y-46187902D01*
X30895238Y-46187902D02*
X30933333Y-46111712D01*
X44609523Y-45768855D02*
X45066666Y-45768855D01*
X44838094Y-46568855D02*
X44838094Y-45768855D01*
X45333333Y-46568855D02*
X45333333Y-45768855D01*
X45333333Y-45768855D02*
X45638095Y-45768855D01*
X45638095Y-45768855D02*
X45714285Y-45806950D01*
X45714285Y-45806950D02*
X45752380Y-45845045D01*
X45752380Y-45845045D02*
X45790476Y-45921236D01*
X45790476Y-45921236D02*
X45790476Y-46035521D01*
X45790476Y-46035521D02*
X45752380Y-46111712D01*
X45752380Y-46111712D02*
X45714285Y-46149807D01*
X45714285Y-46149807D02*
X45638095Y-46187902D01*
X45638095Y-46187902D02*
X45333333Y-46187902D01*
X46552380Y-46568855D02*
X46095237Y-46568855D01*
X46323809Y-46568855D02*
X46323809Y-45768855D01*
X46323809Y-45768855D02*
X46247618Y-45883140D01*
X46247618Y-45883140D02*
X46171428Y-45959331D01*
X46171428Y-45959331D02*
X46095237Y-45997426D01*
X46819047Y-45768855D02*
X47314285Y-45768855D01*
X47314285Y-45768855D02*
X47047619Y-46073617D01*
X47047619Y-46073617D02*
X47161904Y-46073617D01*
X47161904Y-46073617D02*
X47238095Y-46111712D01*
X47238095Y-46111712D02*
X47276190Y-46149807D01*
X47276190Y-46149807D02*
X47314285Y-46225998D01*
X47314285Y-46225998D02*
X47314285Y-46416474D01*
X47314285Y-46416474D02*
X47276190Y-46492664D01*
X47276190Y-46492664D02*
X47238095Y-46530760D01*
X47238095Y-46530760D02*
X47161904Y-46568855D01*
X47161904Y-46568855D02*
X46933333Y-46568855D01*
X46933333Y-46568855D02*
X46857142Y-46530760D01*
X46857142Y-46530760D02*
X46819047Y-46492664D01*
X13390476Y-33818855D02*
X13390476Y-34466474D01*
X13390476Y-34466474D02*
X13428571Y-34542664D01*
X13428571Y-34542664D02*
X13466666Y-34580760D01*
X13466666Y-34580760D02*
X13542857Y-34618855D01*
X13542857Y-34618855D02*
X13695238Y-34618855D01*
X13695238Y-34618855D02*
X13771428Y-34580760D01*
X13771428Y-34580760D02*
X13809523Y-34542664D01*
X13809523Y-34542664D02*
X13847619Y-34466474D01*
X13847619Y-34466474D02*
X13847619Y-33818855D01*
X14342856Y-34161712D02*
X14266666Y-34123617D01*
X14266666Y-34123617D02*
X14228571Y-34085521D01*
X14228571Y-34085521D02*
X14190475Y-34009331D01*
X14190475Y-34009331D02*
X14190475Y-33971236D01*
X14190475Y-33971236D02*
X14228571Y-33895045D01*
X14228571Y-33895045D02*
X14266666Y-33856950D01*
X14266666Y-33856950D02*
X14342856Y-33818855D01*
X14342856Y-33818855D02*
X14495237Y-33818855D01*
X14495237Y-33818855D02*
X14571428Y-33856950D01*
X14571428Y-33856950D02*
X14609523Y-33895045D01*
X14609523Y-33895045D02*
X14647618Y-33971236D01*
X14647618Y-33971236D02*
X14647618Y-34009331D01*
X14647618Y-34009331D02*
X14609523Y-34085521D01*
X14609523Y-34085521D02*
X14571428Y-34123617D01*
X14571428Y-34123617D02*
X14495237Y-34161712D01*
X14495237Y-34161712D02*
X14342856Y-34161712D01*
X14342856Y-34161712D02*
X14266666Y-34199807D01*
X14266666Y-34199807D02*
X14228571Y-34237902D01*
X14228571Y-34237902D02*
X14190475Y-34314093D01*
X14190475Y-34314093D02*
X14190475Y-34466474D01*
X14190475Y-34466474D02*
X14228571Y-34542664D01*
X14228571Y-34542664D02*
X14266666Y-34580760D01*
X14266666Y-34580760D02*
X14342856Y-34618855D01*
X14342856Y-34618855D02*
X14495237Y-34618855D01*
X14495237Y-34618855D02*
X14571428Y-34580760D01*
X14571428Y-34580760D02*
X14609523Y-34542664D01*
X14609523Y-34542664D02*
X14647618Y-34466474D01*
X14647618Y-34466474D02*
X14647618Y-34314093D01*
X14647618Y-34314093D02*
X14609523Y-34237902D01*
X14609523Y-34237902D02*
X14571428Y-34199807D01*
X14571428Y-34199807D02*
X14495237Y-34161712D01*
X27509167Y-30137664D02*
X27471071Y-30175760D01*
X27471071Y-30175760D02*
X27356786Y-30213855D01*
X27356786Y-30213855D02*
X27280595Y-30213855D01*
X27280595Y-30213855D02*
X27166309Y-30175760D01*
X27166309Y-30175760D02*
X27090119Y-30099569D01*
X27090119Y-30099569D02*
X27052024Y-30023379D01*
X27052024Y-30023379D02*
X27013928Y-29870998D01*
X27013928Y-29870998D02*
X27013928Y-29756712D01*
X27013928Y-29756712D02*
X27052024Y-29604331D01*
X27052024Y-29604331D02*
X27090119Y-29528140D01*
X27090119Y-29528140D02*
X27166309Y-29451950D01*
X27166309Y-29451950D02*
X27280595Y-29413855D01*
X27280595Y-29413855D02*
X27356786Y-29413855D01*
X27356786Y-29413855D02*
X27471071Y-29451950D01*
X27471071Y-29451950D02*
X27509167Y-29490045D01*
X27775833Y-29413855D02*
X28309167Y-29413855D01*
X28309167Y-29413855D02*
X27966309Y-30213855D01*
X4433332Y-21930760D02*
X4547618Y-21968855D01*
X4547618Y-21968855D02*
X4738094Y-21968855D01*
X4738094Y-21968855D02*
X4814285Y-21930760D01*
X4814285Y-21930760D02*
X4852380Y-21892664D01*
X4852380Y-21892664D02*
X4890475Y-21816474D01*
X4890475Y-21816474D02*
X4890475Y-21740283D01*
X4890475Y-21740283D02*
X4852380Y-21664093D01*
X4852380Y-21664093D02*
X4814285Y-21625998D01*
X4814285Y-21625998D02*
X4738094Y-21587902D01*
X4738094Y-21587902D02*
X4585713Y-21549807D01*
X4585713Y-21549807D02*
X4509523Y-21511712D01*
X4509523Y-21511712D02*
X4471428Y-21473617D01*
X4471428Y-21473617D02*
X4433332Y-21397426D01*
X4433332Y-21397426D02*
X4433332Y-21321236D01*
X4433332Y-21321236D02*
X4471428Y-21245045D01*
X4471428Y-21245045D02*
X4509523Y-21206950D01*
X4509523Y-21206950D02*
X4585713Y-21168855D01*
X4585713Y-21168855D02*
X4776190Y-21168855D01*
X4776190Y-21168855D02*
X4890475Y-21206950D01*
X5157142Y-21168855D02*
X5347618Y-21968855D01*
X5347618Y-21968855D02*
X5499999Y-21397426D01*
X5499999Y-21397426D02*
X5652380Y-21968855D01*
X5652380Y-21968855D02*
X5842857Y-21168855D01*
X6566666Y-21968855D02*
X6109523Y-21968855D01*
X6338095Y-21968855D02*
X6338095Y-21168855D01*
X6338095Y-21168855D02*
X6261904Y-21283140D01*
X6261904Y-21283140D02*
X6185714Y-21359331D01*
X6185714Y-21359331D02*
X6109523Y-21397426D01*
X18016667Y-21078855D02*
X17750000Y-20697902D01*
X17559524Y-21078855D02*
X17559524Y-20278855D01*
X17559524Y-20278855D02*
X17864286Y-20278855D01*
X17864286Y-20278855D02*
X17940476Y-20316950D01*
X17940476Y-20316950D02*
X17978571Y-20355045D01*
X17978571Y-20355045D02*
X18016667Y-20431236D01*
X18016667Y-20431236D02*
X18016667Y-20545521D01*
X18016667Y-20545521D02*
X17978571Y-20621712D01*
X17978571Y-20621712D02*
X17940476Y-20659807D01*
X17940476Y-20659807D02*
X17864286Y-20697902D01*
X17864286Y-20697902D02*
X17559524Y-20697902D01*
X18473809Y-20621712D02*
X18397619Y-20583617D01*
X18397619Y-20583617D02*
X18359524Y-20545521D01*
X18359524Y-20545521D02*
X18321428Y-20469331D01*
X18321428Y-20469331D02*
X18321428Y-20431236D01*
X18321428Y-20431236D02*
X18359524Y-20355045D01*
X18359524Y-20355045D02*
X18397619Y-20316950D01*
X18397619Y-20316950D02*
X18473809Y-20278855D01*
X18473809Y-20278855D02*
X18626190Y-20278855D01*
X18626190Y-20278855D02*
X18702381Y-20316950D01*
X18702381Y-20316950D02*
X18740476Y-20355045D01*
X18740476Y-20355045D02*
X18778571Y-20431236D01*
X18778571Y-20431236D02*
X18778571Y-20469331D01*
X18778571Y-20469331D02*
X18740476Y-20545521D01*
X18740476Y-20545521D02*
X18702381Y-20583617D01*
X18702381Y-20583617D02*
X18626190Y-20621712D01*
X18626190Y-20621712D02*
X18473809Y-20621712D01*
X18473809Y-20621712D02*
X18397619Y-20659807D01*
X18397619Y-20659807D02*
X18359524Y-20697902D01*
X18359524Y-20697902D02*
X18321428Y-20774093D01*
X18321428Y-20774093D02*
X18321428Y-20926474D01*
X18321428Y-20926474D02*
X18359524Y-21002664D01*
X18359524Y-21002664D02*
X18397619Y-21040760D01*
X18397619Y-21040760D02*
X18473809Y-21078855D01*
X18473809Y-21078855D02*
X18626190Y-21078855D01*
X18626190Y-21078855D02*
X18702381Y-21040760D01*
X18702381Y-21040760D02*
X18740476Y-21002664D01*
X18740476Y-21002664D02*
X18778571Y-20926474D01*
X18778571Y-20926474D02*
X18778571Y-20774093D01*
X18778571Y-20774093D02*
X18740476Y-20697902D01*
X18740476Y-20697902D02*
X18702381Y-20659807D01*
X18702381Y-20659807D02*
X18626190Y-20621712D01*
X31791666Y-33363855D02*
X31410714Y-33363855D01*
X31410714Y-33363855D02*
X31410714Y-32563855D01*
X32477380Y-33363855D02*
X32020237Y-33363855D01*
X32248809Y-33363855D02*
X32248809Y-32563855D01*
X32248809Y-32563855D02*
X32172618Y-32678140D01*
X32172618Y-32678140D02*
X32096428Y-32754331D01*
X32096428Y-32754331D02*
X32020237Y-32792426D01*
X1918333Y-59103855D02*
X1918333Y-59675283D01*
X1918333Y-59675283D02*
X1880238Y-59789569D01*
X1880238Y-59789569D02*
X1804047Y-59865760D01*
X1804047Y-59865760D02*
X1689762Y-59903855D01*
X1689762Y-59903855D02*
X1613571Y-59903855D01*
X2223095Y-59103855D02*
X2756429Y-59103855D01*
X2756429Y-59103855D02*
X2413571Y-59903855D01*
X16023809Y-48735045D02*
X15947619Y-48696950D01*
X15947619Y-48696950D02*
X15871428Y-48620760D01*
X15871428Y-48620760D02*
X15757142Y-48506474D01*
X15757142Y-48506474D02*
X15680952Y-48468379D01*
X15680952Y-48468379D02*
X15604761Y-48468379D01*
X15642857Y-48658855D02*
X15566666Y-48620760D01*
X15566666Y-48620760D02*
X15490476Y-48544569D01*
X15490476Y-48544569D02*
X15452380Y-48392188D01*
X15452380Y-48392188D02*
X15452380Y-48125521D01*
X15452380Y-48125521D02*
X15490476Y-47973140D01*
X15490476Y-47973140D02*
X15566666Y-47896950D01*
X15566666Y-47896950D02*
X15642857Y-47858855D01*
X15642857Y-47858855D02*
X15795238Y-47858855D01*
X15795238Y-47858855D02*
X15871428Y-47896950D01*
X15871428Y-47896950D02*
X15947619Y-47973140D01*
X15947619Y-47973140D02*
X15985714Y-48125521D01*
X15985714Y-48125521D02*
X15985714Y-48392188D01*
X15985714Y-48392188D02*
X15947619Y-48544569D01*
X15947619Y-48544569D02*
X15871428Y-48620760D01*
X15871428Y-48620760D02*
X15795238Y-48658855D01*
X15795238Y-48658855D02*
X15642857Y-48658855D01*
X16252380Y-47858855D02*
X16747618Y-47858855D01*
X16747618Y-47858855D02*
X16480952Y-48163617D01*
X16480952Y-48163617D02*
X16595237Y-48163617D01*
X16595237Y-48163617D02*
X16671428Y-48201712D01*
X16671428Y-48201712D02*
X16709523Y-48239807D01*
X16709523Y-48239807D02*
X16747618Y-48315998D01*
X16747618Y-48315998D02*
X16747618Y-48506474D01*
X16747618Y-48506474D02*
X16709523Y-48582664D01*
X16709523Y-48582664D02*
X16671428Y-48620760D01*
X16671428Y-48620760D02*
X16595237Y-48658855D01*
X16595237Y-48658855D02*
X16366666Y-48658855D01*
X16366666Y-48658855D02*
X16290475Y-48620760D01*
X16290475Y-48620760D02*
X16252380Y-48582664D01*
X3578571Y-20808855D02*
X3578571Y-20008855D01*
X3578571Y-20008855D02*
X3769047Y-20008855D01*
X3769047Y-20008855D02*
X3883333Y-20046950D01*
X3883333Y-20046950D02*
X3959523Y-20123140D01*
X3959523Y-20123140D02*
X3997618Y-20199331D01*
X3997618Y-20199331D02*
X4035714Y-20351712D01*
X4035714Y-20351712D02*
X4035714Y-20465998D01*
X4035714Y-20465998D02*
X3997618Y-20618379D01*
X3997618Y-20618379D02*
X3959523Y-20694569D01*
X3959523Y-20694569D02*
X3883333Y-20770760D01*
X3883333Y-20770760D02*
X3769047Y-20808855D01*
X3769047Y-20808855D02*
X3578571Y-20808855D01*
X4797618Y-20808855D02*
X4340475Y-20808855D01*
X4569047Y-20808855D02*
X4569047Y-20008855D01*
X4569047Y-20008855D02*
X4492856Y-20123140D01*
X4492856Y-20123140D02*
X4416666Y-20199331D01*
X4416666Y-20199331D02*
X4340475Y-20237426D01*
X5559523Y-20808855D02*
X5102380Y-20808855D01*
X5330952Y-20808855D02*
X5330952Y-20008855D01*
X5330952Y-20008855D02*
X5254761Y-20123140D01*
X5254761Y-20123140D02*
X5178571Y-20199331D01*
X5178571Y-20199331D02*
X5102380Y-20237426D01*
X11733333Y-52428855D02*
X11733333Y-53000283D01*
X11733333Y-53000283D02*
X11695238Y-53114569D01*
X11695238Y-53114569D02*
X11619047Y-53190760D01*
X11619047Y-53190760D02*
X11504762Y-53228855D01*
X11504762Y-53228855D02*
X11428571Y-53228855D01*
X12457143Y-52428855D02*
X12304762Y-52428855D01*
X12304762Y-52428855D02*
X12228571Y-52466950D01*
X12228571Y-52466950D02*
X12190476Y-52505045D01*
X12190476Y-52505045D02*
X12114286Y-52619331D01*
X12114286Y-52619331D02*
X12076190Y-52771712D01*
X12076190Y-52771712D02*
X12076190Y-53076474D01*
X12076190Y-53076474D02*
X12114286Y-53152664D01*
X12114286Y-53152664D02*
X12152381Y-53190760D01*
X12152381Y-53190760D02*
X12228571Y-53228855D01*
X12228571Y-53228855D02*
X12380952Y-53228855D01*
X12380952Y-53228855D02*
X12457143Y-53190760D01*
X12457143Y-53190760D02*
X12495238Y-53152664D01*
X12495238Y-53152664D02*
X12533333Y-53076474D01*
X12533333Y-53076474D02*
X12533333Y-52885998D01*
X12533333Y-52885998D02*
X12495238Y-52809807D01*
X12495238Y-52809807D02*
X12457143Y-52771712D01*
X12457143Y-52771712D02*
X12380952Y-52733617D01*
X12380952Y-52733617D02*
X12228571Y-52733617D01*
X12228571Y-52733617D02*
X12152381Y-52771712D01*
X12152381Y-52771712D02*
X12114286Y-52809807D01*
X12114286Y-52809807D02*
X12076190Y-52885998D01*
X52909524Y-58838855D02*
X52909524Y-58038855D01*
X52909524Y-58038855D02*
X53100000Y-58038855D01*
X53100000Y-58038855D02*
X53214286Y-58076950D01*
X53214286Y-58076950D02*
X53290476Y-58153140D01*
X53290476Y-58153140D02*
X53328571Y-58229331D01*
X53328571Y-58229331D02*
X53366667Y-58381712D01*
X53366667Y-58381712D02*
X53366667Y-58495998D01*
X53366667Y-58495998D02*
X53328571Y-58648379D01*
X53328571Y-58648379D02*
X53290476Y-58724569D01*
X53290476Y-58724569D02*
X53214286Y-58800760D01*
X53214286Y-58800760D02*
X53100000Y-58838855D01*
X53100000Y-58838855D02*
X52909524Y-58838855D01*
X53823809Y-58381712D02*
X53747619Y-58343617D01*
X53747619Y-58343617D02*
X53709524Y-58305521D01*
X53709524Y-58305521D02*
X53671428Y-58229331D01*
X53671428Y-58229331D02*
X53671428Y-58191236D01*
X53671428Y-58191236D02*
X53709524Y-58115045D01*
X53709524Y-58115045D02*
X53747619Y-58076950D01*
X53747619Y-58076950D02*
X53823809Y-58038855D01*
X53823809Y-58038855D02*
X53976190Y-58038855D01*
X53976190Y-58038855D02*
X54052381Y-58076950D01*
X54052381Y-58076950D02*
X54090476Y-58115045D01*
X54090476Y-58115045D02*
X54128571Y-58191236D01*
X54128571Y-58191236D02*
X54128571Y-58229331D01*
X54128571Y-58229331D02*
X54090476Y-58305521D01*
X54090476Y-58305521D02*
X54052381Y-58343617D01*
X54052381Y-58343617D02*
X53976190Y-58381712D01*
X53976190Y-58381712D02*
X53823809Y-58381712D01*
X53823809Y-58381712D02*
X53747619Y-58419807D01*
X53747619Y-58419807D02*
X53709524Y-58457902D01*
X53709524Y-58457902D02*
X53671428Y-58534093D01*
X53671428Y-58534093D02*
X53671428Y-58686474D01*
X53671428Y-58686474D02*
X53709524Y-58762664D01*
X53709524Y-58762664D02*
X53747619Y-58800760D01*
X53747619Y-58800760D02*
X53823809Y-58838855D01*
X53823809Y-58838855D02*
X53976190Y-58838855D01*
X53976190Y-58838855D02*
X54052381Y-58800760D01*
X54052381Y-58800760D02*
X54090476Y-58762664D01*
X54090476Y-58762664D02*
X54128571Y-58686474D01*
X54128571Y-58686474D02*
X54128571Y-58534093D01*
X54128571Y-58534093D02*
X54090476Y-58457902D01*
X54090476Y-58457902D02*
X54052381Y-58419807D01*
X54052381Y-58419807D02*
X53976190Y-58381712D01*
X14597014Y-64060155D02*
X14330347Y-63679202D01*
X14139871Y-64060155D02*
X14139871Y-63260155D01*
X14139871Y-63260155D02*
X14444633Y-63260155D01*
X14444633Y-63260155D02*
X14520823Y-63298250D01*
X14520823Y-63298250D02*
X14558918Y-63336345D01*
X14558918Y-63336345D02*
X14597014Y-63412536D01*
X14597014Y-63412536D02*
X14597014Y-63526821D01*
X14597014Y-63526821D02*
X14558918Y-63603012D01*
X14558918Y-63603012D02*
X14520823Y-63641107D01*
X14520823Y-63641107D02*
X14444633Y-63679202D01*
X14444633Y-63679202D02*
X14139871Y-63679202D01*
X15358918Y-64060155D02*
X14901775Y-64060155D01*
X15130347Y-64060155D02*
X15130347Y-63260155D01*
X15130347Y-63260155D02*
X15054156Y-63374440D01*
X15054156Y-63374440D02*
X14977966Y-63450631D01*
X14977966Y-63450631D02*
X14901775Y-63488726D01*
X15625585Y-63260155D02*
X16158919Y-63260155D01*
X16158919Y-63260155D02*
X15816061Y-64060155D01*
X5233333Y-44258855D02*
X5233333Y-44830283D01*
X5233333Y-44830283D02*
X5195238Y-44944569D01*
X5195238Y-44944569D02*
X5119047Y-45020760D01*
X5119047Y-45020760D02*
X5004762Y-45058855D01*
X5004762Y-45058855D02*
X4928571Y-45058855D01*
X6033333Y-45058855D02*
X5576190Y-45058855D01*
X5804762Y-45058855D02*
X5804762Y-44258855D01*
X5804762Y-44258855D02*
X5728571Y-44373140D01*
X5728571Y-44373140D02*
X5652381Y-44449331D01*
X5652381Y-44449331D02*
X5576190Y-44487426D01*
X52528571Y-63918855D02*
X52528571Y-63118855D01*
X52528571Y-63118855D02*
X52719047Y-63118855D01*
X52719047Y-63118855D02*
X52833333Y-63156950D01*
X52833333Y-63156950D02*
X52909523Y-63233140D01*
X52909523Y-63233140D02*
X52947618Y-63309331D01*
X52947618Y-63309331D02*
X52985714Y-63461712D01*
X52985714Y-63461712D02*
X52985714Y-63575998D01*
X52985714Y-63575998D02*
X52947618Y-63728379D01*
X52947618Y-63728379D02*
X52909523Y-63804569D01*
X52909523Y-63804569D02*
X52833333Y-63880760D01*
X52833333Y-63880760D02*
X52719047Y-63918855D01*
X52719047Y-63918855D02*
X52528571Y-63918855D01*
X53747618Y-63918855D02*
X53290475Y-63918855D01*
X53519047Y-63918855D02*
X53519047Y-63118855D01*
X53519047Y-63118855D02*
X53442856Y-63233140D01*
X53442856Y-63233140D02*
X53366666Y-63309331D01*
X53366666Y-63309331D02*
X53290475Y-63347426D01*
X54242857Y-63118855D02*
X54319047Y-63118855D01*
X54319047Y-63118855D02*
X54395238Y-63156950D01*
X54395238Y-63156950D02*
X54433333Y-63195045D01*
X54433333Y-63195045D02*
X54471428Y-63271236D01*
X54471428Y-63271236D02*
X54509523Y-63423617D01*
X54509523Y-63423617D02*
X54509523Y-63614093D01*
X54509523Y-63614093D02*
X54471428Y-63766474D01*
X54471428Y-63766474D02*
X54433333Y-63842664D01*
X54433333Y-63842664D02*
X54395238Y-63880760D01*
X54395238Y-63880760D02*
X54319047Y-63918855D01*
X54319047Y-63918855D02*
X54242857Y-63918855D01*
X54242857Y-63918855D02*
X54166666Y-63880760D01*
X54166666Y-63880760D02*
X54128571Y-63842664D01*
X54128571Y-63842664D02*
X54090476Y-63766474D01*
X54090476Y-63766474D02*
X54052380Y-63614093D01*
X54052380Y-63614093D02*
X54052380Y-63423617D01*
X54052380Y-63423617D02*
X54090476Y-63271236D01*
X54090476Y-63271236D02*
X54128571Y-63195045D01*
X54128571Y-63195045D02*
X54166666Y-63156950D01*
X54166666Y-63156950D02*
X54242857Y-63118855D01*
X3909524Y-28268855D02*
X3909524Y-27468855D01*
X3909524Y-27468855D02*
X4100000Y-27468855D01*
X4100000Y-27468855D02*
X4214286Y-27506950D01*
X4214286Y-27506950D02*
X4290476Y-27583140D01*
X4290476Y-27583140D02*
X4328571Y-27659331D01*
X4328571Y-27659331D02*
X4366667Y-27811712D01*
X4366667Y-27811712D02*
X4366667Y-27925998D01*
X4366667Y-27925998D02*
X4328571Y-28078379D01*
X4328571Y-28078379D02*
X4290476Y-28154569D01*
X4290476Y-28154569D02*
X4214286Y-28230760D01*
X4214286Y-28230760D02*
X4100000Y-28268855D01*
X4100000Y-28268855D02*
X3909524Y-28268855D01*
X5052381Y-27735521D02*
X5052381Y-28268855D01*
X4861905Y-27430760D02*
X4671428Y-28002188D01*
X4671428Y-28002188D02*
X5166667Y-28002188D01*
X43890476Y-78288855D02*
X43890476Y-78936474D01*
X43890476Y-78936474D02*
X43928571Y-79012664D01*
X43928571Y-79012664D02*
X43966666Y-79050760D01*
X43966666Y-79050760D02*
X44042857Y-79088855D01*
X44042857Y-79088855D02*
X44195238Y-79088855D01*
X44195238Y-79088855D02*
X44271428Y-79050760D01*
X44271428Y-79050760D02*
X44309523Y-79012664D01*
X44309523Y-79012664D02*
X44347619Y-78936474D01*
X44347619Y-78936474D02*
X44347619Y-78288855D01*
X45109523Y-78288855D02*
X44728571Y-78288855D01*
X44728571Y-78288855D02*
X44690475Y-78669807D01*
X44690475Y-78669807D02*
X44728571Y-78631712D01*
X44728571Y-78631712D02*
X44804761Y-78593617D01*
X44804761Y-78593617D02*
X44995237Y-78593617D01*
X44995237Y-78593617D02*
X45071428Y-78631712D01*
X45071428Y-78631712D02*
X45109523Y-78669807D01*
X45109523Y-78669807D02*
X45147618Y-78745998D01*
X45147618Y-78745998D02*
X45147618Y-78936474D01*
X45147618Y-78936474D02*
X45109523Y-79012664D01*
X45109523Y-79012664D02*
X45071428Y-79050760D01*
X45071428Y-79050760D02*
X44995237Y-79088855D01*
X44995237Y-79088855D02*
X44804761Y-79088855D01*
X44804761Y-79088855D02*
X44728571Y-79050760D01*
X44728571Y-79050760D02*
X44690475Y-79012664D01*
X42835714Y-72268855D02*
X42569047Y-71887902D01*
X42378571Y-72268855D02*
X42378571Y-71468855D01*
X42378571Y-71468855D02*
X42683333Y-71468855D01*
X42683333Y-71468855D02*
X42759523Y-71506950D01*
X42759523Y-71506950D02*
X42797618Y-71545045D01*
X42797618Y-71545045D02*
X42835714Y-71621236D01*
X42835714Y-71621236D02*
X42835714Y-71735521D01*
X42835714Y-71735521D02*
X42797618Y-71811712D01*
X42797618Y-71811712D02*
X42759523Y-71849807D01*
X42759523Y-71849807D02*
X42683333Y-71887902D01*
X42683333Y-71887902D02*
X42378571Y-71887902D01*
X43140475Y-71545045D02*
X43178571Y-71506950D01*
X43178571Y-71506950D02*
X43254761Y-71468855D01*
X43254761Y-71468855D02*
X43445237Y-71468855D01*
X43445237Y-71468855D02*
X43521428Y-71506950D01*
X43521428Y-71506950D02*
X43559523Y-71545045D01*
X43559523Y-71545045D02*
X43597618Y-71621236D01*
X43597618Y-71621236D02*
X43597618Y-71697426D01*
X43597618Y-71697426D02*
X43559523Y-71811712D01*
X43559523Y-71811712D02*
X43102380Y-72268855D01*
X43102380Y-72268855D02*
X43597618Y-72268855D01*
X43902380Y-71545045D02*
X43940476Y-71506950D01*
X43940476Y-71506950D02*
X44016666Y-71468855D01*
X44016666Y-71468855D02*
X44207142Y-71468855D01*
X44207142Y-71468855D02*
X44283333Y-71506950D01*
X44283333Y-71506950D02*
X44321428Y-71545045D01*
X44321428Y-71545045D02*
X44359523Y-71621236D01*
X44359523Y-71621236D02*
X44359523Y-71697426D01*
X44359523Y-71697426D02*
X44321428Y-71811712D01*
X44321428Y-71811712D02*
X43864285Y-72268855D01*
X43864285Y-72268855D02*
X44359523Y-72268855D01*
X13528571Y-31858855D02*
X13528571Y-31058855D01*
X13528571Y-31058855D02*
X13719047Y-31058855D01*
X13719047Y-31058855D02*
X13833333Y-31096950D01*
X13833333Y-31096950D02*
X13909523Y-31173140D01*
X13909523Y-31173140D02*
X13947618Y-31249331D01*
X13947618Y-31249331D02*
X13985714Y-31401712D01*
X13985714Y-31401712D02*
X13985714Y-31515998D01*
X13985714Y-31515998D02*
X13947618Y-31668379D01*
X13947618Y-31668379D02*
X13909523Y-31744569D01*
X13909523Y-31744569D02*
X13833333Y-31820760D01*
X13833333Y-31820760D02*
X13719047Y-31858855D01*
X13719047Y-31858855D02*
X13528571Y-31858855D01*
X14747618Y-31858855D02*
X14290475Y-31858855D01*
X14519047Y-31858855D02*
X14519047Y-31058855D01*
X14519047Y-31058855D02*
X14442856Y-31173140D01*
X14442856Y-31173140D02*
X14366666Y-31249331D01*
X14366666Y-31249331D02*
X14290475Y-31287426D01*
X15052380Y-31135045D02*
X15090476Y-31096950D01*
X15090476Y-31096950D02*
X15166666Y-31058855D01*
X15166666Y-31058855D02*
X15357142Y-31058855D01*
X15357142Y-31058855D02*
X15433333Y-31096950D01*
X15433333Y-31096950D02*
X15471428Y-31135045D01*
X15471428Y-31135045D02*
X15509523Y-31211236D01*
X15509523Y-31211236D02*
X15509523Y-31287426D01*
X15509523Y-31287426D02*
X15471428Y-31401712D01*
X15471428Y-31401712D02*
X15014285Y-31858855D01*
X15014285Y-31858855D02*
X15509523Y-31858855D01*
X7804114Y-64767255D02*
X7537447Y-64386302D01*
X7346971Y-64767255D02*
X7346971Y-63967255D01*
X7346971Y-63967255D02*
X7651733Y-63967255D01*
X7651733Y-63967255D02*
X7727923Y-64005350D01*
X7727923Y-64005350D02*
X7766018Y-64043445D01*
X7766018Y-64043445D02*
X7804114Y-64119636D01*
X7804114Y-64119636D02*
X7804114Y-64233921D01*
X7804114Y-64233921D02*
X7766018Y-64310112D01*
X7766018Y-64310112D02*
X7727923Y-64348207D01*
X7727923Y-64348207D02*
X7651733Y-64386302D01*
X7651733Y-64386302D02*
X7346971Y-64386302D01*
X8566018Y-64767255D02*
X8108875Y-64767255D01*
X8337447Y-64767255D02*
X8337447Y-63967255D01*
X8337447Y-63967255D02*
X8261256Y-64081540D01*
X8261256Y-64081540D02*
X8185066Y-64157731D01*
X8185066Y-64157731D02*
X8108875Y-64195826D01*
X9251733Y-64233921D02*
X9251733Y-64767255D01*
X9061257Y-63929160D02*
X8870780Y-64500588D01*
X8870780Y-64500588D02*
X9366019Y-64500588D01*
X32609523Y-45768855D02*
X33066666Y-45768855D01*
X32838094Y-46568855D02*
X32838094Y-45768855D01*
X33333333Y-46568855D02*
X33333333Y-45768855D01*
X33333333Y-45768855D02*
X33638095Y-45768855D01*
X33638095Y-45768855D02*
X33714285Y-45806950D01*
X33714285Y-45806950D02*
X33752380Y-45845045D01*
X33752380Y-45845045D02*
X33790476Y-45921236D01*
X33790476Y-45921236D02*
X33790476Y-46035521D01*
X33790476Y-46035521D02*
X33752380Y-46111712D01*
X33752380Y-46111712D02*
X33714285Y-46149807D01*
X33714285Y-46149807D02*
X33638095Y-46187902D01*
X33638095Y-46187902D02*
X33333333Y-46187902D01*
X34552380Y-46568855D02*
X34095237Y-46568855D01*
X34323809Y-46568855D02*
X34323809Y-45768855D01*
X34323809Y-45768855D02*
X34247618Y-45883140D01*
X34247618Y-45883140D02*
X34171428Y-45959331D01*
X34171428Y-45959331D02*
X34095237Y-45997426D01*
X35047619Y-45768855D02*
X35123809Y-45768855D01*
X35123809Y-45768855D02*
X35200000Y-45806950D01*
X35200000Y-45806950D02*
X35238095Y-45845045D01*
X35238095Y-45845045D02*
X35276190Y-45921236D01*
X35276190Y-45921236D02*
X35314285Y-46073617D01*
X35314285Y-46073617D02*
X35314285Y-46264093D01*
X35314285Y-46264093D02*
X35276190Y-46416474D01*
X35276190Y-46416474D02*
X35238095Y-46492664D01*
X35238095Y-46492664D02*
X35200000Y-46530760D01*
X35200000Y-46530760D02*
X35123809Y-46568855D01*
X35123809Y-46568855D02*
X35047619Y-46568855D01*
X35047619Y-46568855D02*
X34971428Y-46530760D01*
X34971428Y-46530760D02*
X34933333Y-46492664D01*
X34933333Y-46492664D02*
X34895238Y-46416474D01*
X34895238Y-46416474D02*
X34857142Y-46264093D01*
X34857142Y-46264093D02*
X34857142Y-46073617D01*
X34857142Y-46073617D02*
X34895238Y-45921236D01*
X34895238Y-45921236D02*
X34933333Y-45845045D01*
X34933333Y-45845045D02*
X34971428Y-45806950D01*
X34971428Y-45806950D02*
X35047619Y-45768855D01*
X14923214Y-26568855D02*
X14656547Y-26187902D01*
X14466071Y-26568855D02*
X14466071Y-25768855D01*
X14466071Y-25768855D02*
X14770833Y-25768855D01*
X14770833Y-25768855D02*
X14847023Y-25806950D01*
X14847023Y-25806950D02*
X14885118Y-25845045D01*
X14885118Y-25845045D02*
X14923214Y-25921236D01*
X14923214Y-25921236D02*
X14923214Y-26035521D01*
X14923214Y-26035521D02*
X14885118Y-26111712D01*
X14885118Y-26111712D02*
X14847023Y-26149807D01*
X14847023Y-26149807D02*
X14770833Y-26187902D01*
X14770833Y-26187902D02*
X14466071Y-26187902D01*
X15227975Y-25845045D02*
X15266071Y-25806950D01*
X15266071Y-25806950D02*
X15342261Y-25768855D01*
X15342261Y-25768855D02*
X15532737Y-25768855D01*
X15532737Y-25768855D02*
X15608928Y-25806950D01*
X15608928Y-25806950D02*
X15647023Y-25845045D01*
X15647023Y-25845045D02*
X15685118Y-25921236D01*
X15685118Y-25921236D02*
X15685118Y-25997426D01*
X15685118Y-25997426D02*
X15647023Y-26111712D01*
X15647023Y-26111712D02*
X15189880Y-26568855D01*
X15189880Y-26568855D02*
X15685118Y-26568855D01*
X16447023Y-26568855D02*
X15989880Y-26568855D01*
X16218452Y-26568855D02*
X16218452Y-25768855D01*
X16218452Y-25768855D02*
X16142261Y-25883140D01*
X16142261Y-25883140D02*
X16066071Y-25959331D01*
X16066071Y-25959331D02*
X15989880Y-25997426D01*
X29563855Y-28104523D02*
X30211474Y-28104523D01*
X30211474Y-28104523D02*
X30287664Y-28066428D01*
X30287664Y-28066428D02*
X30325760Y-28028333D01*
X30325760Y-28028333D02*
X30363855Y-27952142D01*
X30363855Y-27952142D02*
X30363855Y-27799761D01*
X30363855Y-27799761D02*
X30325760Y-27723571D01*
X30325760Y-27723571D02*
X30287664Y-27685476D01*
X30287664Y-27685476D02*
X30211474Y-27647380D01*
X30211474Y-27647380D02*
X29563855Y-27647380D01*
X29563855Y-27342619D02*
X29563855Y-26847381D01*
X29563855Y-26847381D02*
X29868617Y-27114047D01*
X29868617Y-27114047D02*
X29868617Y-26999762D01*
X29868617Y-26999762D02*
X29906712Y-26923571D01*
X29906712Y-26923571D02*
X29944807Y-26885476D01*
X29944807Y-26885476D02*
X30020998Y-26847381D01*
X30020998Y-26847381D02*
X30211474Y-26847381D01*
X30211474Y-26847381D02*
X30287664Y-26885476D01*
X30287664Y-26885476D02*
X30325760Y-26923571D01*
X30325760Y-26923571D02*
X30363855Y-26999762D01*
X30363855Y-26999762D02*
X30363855Y-27228333D01*
X30363855Y-27228333D02*
X30325760Y-27304524D01*
X30325760Y-27304524D02*
X30287664Y-27342619D01*
X14597014Y-46747555D02*
X14330347Y-46366602D01*
X14139871Y-46747555D02*
X14139871Y-45947555D01*
X14139871Y-45947555D02*
X14444633Y-45947555D01*
X14444633Y-45947555D02*
X14520823Y-45985650D01*
X14520823Y-45985650D02*
X14558918Y-46023745D01*
X14558918Y-46023745D02*
X14597014Y-46099936D01*
X14597014Y-46099936D02*
X14597014Y-46214221D01*
X14597014Y-46214221D02*
X14558918Y-46290412D01*
X14558918Y-46290412D02*
X14520823Y-46328507D01*
X14520823Y-46328507D02*
X14444633Y-46366602D01*
X14444633Y-46366602D02*
X14139871Y-46366602D01*
X15358918Y-46747555D02*
X14901775Y-46747555D01*
X15130347Y-46747555D02*
X15130347Y-45947555D01*
X15130347Y-45947555D02*
X15054156Y-46061840D01*
X15054156Y-46061840D02*
X14977966Y-46138031D01*
X14977966Y-46138031D02*
X14901775Y-46176126D01*
X16082728Y-45947555D02*
X15701776Y-45947555D01*
X15701776Y-45947555D02*
X15663680Y-46328507D01*
X15663680Y-46328507D02*
X15701776Y-46290412D01*
X15701776Y-46290412D02*
X15777966Y-46252317D01*
X15777966Y-46252317D02*
X15968442Y-46252317D01*
X15968442Y-46252317D02*
X16044633Y-46290412D01*
X16044633Y-46290412D02*
X16082728Y-46328507D01*
X16082728Y-46328507D02*
X16120823Y-46404698D01*
X16120823Y-46404698D02*
X16120823Y-46595174D01*
X16120823Y-46595174D02*
X16082728Y-46671364D01*
X16082728Y-46671364D02*
X16044633Y-46709460D01*
X16044633Y-46709460D02*
X15968442Y-46747555D01*
X15968442Y-46747555D02*
X15777966Y-46747555D01*
X15777966Y-46747555D02*
X15701776Y-46709460D01*
X15701776Y-46709460D02*
X15663680Y-46671364D01*
X29295237Y-50149807D02*
X29409523Y-50187902D01*
X29409523Y-50187902D02*
X29447618Y-50225998D01*
X29447618Y-50225998D02*
X29485714Y-50302188D01*
X29485714Y-50302188D02*
X29485714Y-50416474D01*
X29485714Y-50416474D02*
X29447618Y-50492664D01*
X29447618Y-50492664D02*
X29409523Y-50530760D01*
X29409523Y-50530760D02*
X29333333Y-50568855D01*
X29333333Y-50568855D02*
X29028571Y-50568855D01*
X29028571Y-50568855D02*
X29028571Y-49768855D01*
X29028571Y-49768855D02*
X29295237Y-49768855D01*
X29295237Y-49768855D02*
X29371428Y-49806950D01*
X29371428Y-49806950D02*
X29409523Y-49845045D01*
X29409523Y-49845045D02*
X29447618Y-49921236D01*
X29447618Y-49921236D02*
X29447618Y-49997426D01*
X29447618Y-49997426D02*
X29409523Y-50073617D01*
X29409523Y-50073617D02*
X29371428Y-50111712D01*
X29371428Y-50111712D02*
X29295237Y-50149807D01*
X29295237Y-50149807D02*
X29028571Y-50149807D01*
X29752380Y-49768855D02*
X30285714Y-49768855D01*
X30285714Y-49768855D02*
X29752380Y-50568855D01*
X29752380Y-50568855D02*
X30285714Y-50568855D01*
X31009523Y-50568855D02*
X30552380Y-50568855D01*
X30780952Y-50568855D02*
X30780952Y-49768855D01*
X30780952Y-49768855D02*
X30704761Y-49883140D01*
X30704761Y-49883140D02*
X30628571Y-49959331D01*
X30628571Y-49959331D02*
X30552380Y-49997426D01*
X41085714Y-54368855D02*
X40819047Y-53987902D01*
X40628571Y-54368855D02*
X40628571Y-53568855D01*
X40628571Y-53568855D02*
X40933333Y-53568855D01*
X40933333Y-53568855D02*
X41009523Y-53606950D01*
X41009523Y-53606950D02*
X41047618Y-53645045D01*
X41047618Y-53645045D02*
X41085714Y-53721236D01*
X41085714Y-53721236D02*
X41085714Y-53835521D01*
X41085714Y-53835521D02*
X41047618Y-53911712D01*
X41047618Y-53911712D02*
X41009523Y-53949807D01*
X41009523Y-53949807D02*
X40933333Y-53987902D01*
X40933333Y-53987902D02*
X40628571Y-53987902D01*
X41847618Y-54368855D02*
X41390475Y-54368855D01*
X41619047Y-54368855D02*
X41619047Y-53568855D01*
X41619047Y-53568855D02*
X41542856Y-53683140D01*
X41542856Y-53683140D02*
X41466666Y-53759331D01*
X41466666Y-53759331D02*
X41390475Y-53797426D01*
X42114285Y-53568855D02*
X42609523Y-53568855D01*
X42609523Y-53568855D02*
X42342857Y-53873617D01*
X42342857Y-53873617D02*
X42457142Y-53873617D01*
X42457142Y-53873617D02*
X42533333Y-53911712D01*
X42533333Y-53911712D02*
X42571428Y-53949807D01*
X42571428Y-53949807D02*
X42609523Y-54025998D01*
X42609523Y-54025998D02*
X42609523Y-54216474D01*
X42609523Y-54216474D02*
X42571428Y-54292664D01*
X42571428Y-54292664D02*
X42533333Y-54330760D01*
X42533333Y-54330760D02*
X42457142Y-54368855D01*
X42457142Y-54368855D02*
X42228571Y-54368855D01*
X42228571Y-54368855D02*
X42152380Y-54330760D01*
X42152380Y-54330760D02*
X42114285Y-54292664D01*
X8935714Y-18008855D02*
X8669047Y-17627902D01*
X8478571Y-18008855D02*
X8478571Y-17208855D01*
X8478571Y-17208855D02*
X8783333Y-17208855D01*
X8783333Y-17208855D02*
X8859523Y-17246950D01*
X8859523Y-17246950D02*
X8897618Y-17285045D01*
X8897618Y-17285045D02*
X8935714Y-17361236D01*
X8935714Y-17361236D02*
X8935714Y-17475521D01*
X8935714Y-17475521D02*
X8897618Y-17551712D01*
X8897618Y-17551712D02*
X8859523Y-17589807D01*
X8859523Y-17589807D02*
X8783333Y-17627902D01*
X8783333Y-17627902D02*
X8478571Y-17627902D01*
X9240475Y-17285045D02*
X9278571Y-17246950D01*
X9278571Y-17246950D02*
X9354761Y-17208855D01*
X9354761Y-17208855D02*
X9545237Y-17208855D01*
X9545237Y-17208855D02*
X9621428Y-17246950D01*
X9621428Y-17246950D02*
X9659523Y-17285045D01*
X9659523Y-17285045D02*
X9697618Y-17361236D01*
X9697618Y-17361236D02*
X9697618Y-17437426D01*
X9697618Y-17437426D02*
X9659523Y-17551712D01*
X9659523Y-17551712D02*
X9202380Y-18008855D01*
X9202380Y-18008855D02*
X9697618Y-18008855D01*
X10192857Y-17208855D02*
X10269047Y-17208855D01*
X10269047Y-17208855D02*
X10345238Y-17246950D01*
X10345238Y-17246950D02*
X10383333Y-17285045D01*
X10383333Y-17285045D02*
X10421428Y-17361236D01*
X10421428Y-17361236D02*
X10459523Y-17513617D01*
X10459523Y-17513617D02*
X10459523Y-17704093D01*
X10459523Y-17704093D02*
X10421428Y-17856474D01*
X10421428Y-17856474D02*
X10383333Y-17932664D01*
X10383333Y-17932664D02*
X10345238Y-17970760D01*
X10345238Y-17970760D02*
X10269047Y-18008855D01*
X10269047Y-18008855D02*
X10192857Y-18008855D01*
X10192857Y-18008855D02*
X10116666Y-17970760D01*
X10116666Y-17970760D02*
X10078571Y-17932664D01*
X10078571Y-17932664D02*
X10040476Y-17856474D01*
X10040476Y-17856474D02*
X10002380Y-17704093D01*
X10002380Y-17704093D02*
X10002380Y-17513617D01*
X10002380Y-17513617D02*
X10040476Y-17361236D01*
X10040476Y-17361236D02*
X10078571Y-17285045D01*
X10078571Y-17285045D02*
X10116666Y-17246950D01*
X10116666Y-17246950D02*
X10192857Y-17208855D01*
X11409524Y-44418855D02*
X11409524Y-43618855D01*
X11409524Y-43618855D02*
X11600000Y-43618855D01*
X11600000Y-43618855D02*
X11714286Y-43656950D01*
X11714286Y-43656950D02*
X11790476Y-43733140D01*
X11790476Y-43733140D02*
X11828571Y-43809331D01*
X11828571Y-43809331D02*
X11866667Y-43961712D01*
X11866667Y-43961712D02*
X11866667Y-44075998D01*
X11866667Y-44075998D02*
X11828571Y-44228379D01*
X11828571Y-44228379D02*
X11790476Y-44304569D01*
X11790476Y-44304569D02*
X11714286Y-44380760D01*
X11714286Y-44380760D02*
X11600000Y-44418855D01*
X11600000Y-44418855D02*
X11409524Y-44418855D01*
X12590476Y-43618855D02*
X12209524Y-43618855D01*
X12209524Y-43618855D02*
X12171428Y-43999807D01*
X12171428Y-43999807D02*
X12209524Y-43961712D01*
X12209524Y-43961712D02*
X12285714Y-43923617D01*
X12285714Y-43923617D02*
X12476190Y-43923617D01*
X12476190Y-43923617D02*
X12552381Y-43961712D01*
X12552381Y-43961712D02*
X12590476Y-43999807D01*
X12590476Y-43999807D02*
X12628571Y-44075998D01*
X12628571Y-44075998D02*
X12628571Y-44266474D01*
X12628571Y-44266474D02*
X12590476Y-44342664D01*
X12590476Y-44342664D02*
X12552381Y-44380760D01*
X12552381Y-44380760D02*
X12476190Y-44418855D01*
X12476190Y-44418855D02*
X12285714Y-44418855D01*
X12285714Y-44418855D02*
X12209524Y-44380760D01*
X12209524Y-44380760D02*
X12171428Y-44342664D01*
X39691014Y-72867964D02*
X39652918Y-72906060D01*
X39652918Y-72906060D02*
X39538633Y-72944155D01*
X39538633Y-72944155D02*
X39462442Y-72944155D01*
X39462442Y-72944155D02*
X39348156Y-72906060D01*
X39348156Y-72906060D02*
X39271966Y-72829869D01*
X39271966Y-72829869D02*
X39233871Y-72753679D01*
X39233871Y-72753679D02*
X39195775Y-72601298D01*
X39195775Y-72601298D02*
X39195775Y-72487012D01*
X39195775Y-72487012D02*
X39233871Y-72334631D01*
X39233871Y-72334631D02*
X39271966Y-72258440D01*
X39271966Y-72258440D02*
X39348156Y-72182250D01*
X39348156Y-72182250D02*
X39462442Y-72144155D01*
X39462442Y-72144155D02*
X39538633Y-72144155D01*
X39538633Y-72144155D02*
X39652918Y-72182250D01*
X39652918Y-72182250D02*
X39691014Y-72220345D01*
X39995775Y-72220345D02*
X40033871Y-72182250D01*
X40033871Y-72182250D02*
X40110061Y-72144155D01*
X40110061Y-72144155D02*
X40300537Y-72144155D01*
X40300537Y-72144155D02*
X40376728Y-72182250D01*
X40376728Y-72182250D02*
X40414823Y-72220345D01*
X40414823Y-72220345D02*
X40452918Y-72296536D01*
X40452918Y-72296536D02*
X40452918Y-72372726D01*
X40452918Y-72372726D02*
X40414823Y-72487012D01*
X40414823Y-72487012D02*
X39957680Y-72944155D01*
X39957680Y-72944155D02*
X40452918Y-72944155D01*
X41214823Y-72944155D02*
X40757680Y-72944155D01*
X40986252Y-72944155D02*
X40986252Y-72144155D01*
X40986252Y-72144155D02*
X40910061Y-72258440D01*
X40910061Y-72258440D02*
X40833871Y-72334631D01*
X40833871Y-72334631D02*
X40757680Y-72372726D01*
X12427967Y-15320155D02*
X12161300Y-14939202D01*
X11970824Y-15320155D02*
X11970824Y-14520155D01*
X11970824Y-14520155D02*
X12275586Y-14520155D01*
X12275586Y-14520155D02*
X12351776Y-14558250D01*
X12351776Y-14558250D02*
X12389871Y-14596345D01*
X12389871Y-14596345D02*
X12427967Y-14672536D01*
X12427967Y-14672536D02*
X12427967Y-14786821D01*
X12427967Y-14786821D02*
X12389871Y-14863012D01*
X12389871Y-14863012D02*
X12351776Y-14901107D01*
X12351776Y-14901107D02*
X12275586Y-14939202D01*
X12275586Y-14939202D02*
X11970824Y-14939202D01*
X12694633Y-14520155D02*
X13227967Y-14520155D01*
X13227967Y-14520155D02*
X12885109Y-15320155D01*
X56233333Y-35248855D02*
X56233333Y-35820283D01*
X56233333Y-35820283D02*
X56195238Y-35934569D01*
X56195238Y-35934569D02*
X56119047Y-36010760D01*
X56119047Y-36010760D02*
X56004762Y-36048855D01*
X56004762Y-36048855D02*
X55928571Y-36048855D01*
X56957143Y-35515521D02*
X56957143Y-36048855D01*
X56766667Y-35210760D02*
X56576190Y-35782188D01*
X56576190Y-35782188D02*
X57071429Y-35782188D01*
X9732967Y-32207555D02*
X9466300Y-31826602D01*
X9275824Y-32207555D02*
X9275824Y-31407555D01*
X9275824Y-31407555D02*
X9580586Y-31407555D01*
X9580586Y-31407555D02*
X9656776Y-31445650D01*
X9656776Y-31445650D02*
X9694871Y-31483745D01*
X9694871Y-31483745D02*
X9732967Y-31559936D01*
X9732967Y-31559936D02*
X9732967Y-31674221D01*
X9732967Y-31674221D02*
X9694871Y-31750412D01*
X9694871Y-31750412D02*
X9656776Y-31788507D01*
X9656776Y-31788507D02*
X9580586Y-31826602D01*
X9580586Y-31826602D02*
X9275824Y-31826602D01*
X10037728Y-31483745D02*
X10075824Y-31445650D01*
X10075824Y-31445650D02*
X10152014Y-31407555D01*
X10152014Y-31407555D02*
X10342490Y-31407555D01*
X10342490Y-31407555D02*
X10418681Y-31445650D01*
X10418681Y-31445650D02*
X10456776Y-31483745D01*
X10456776Y-31483745D02*
X10494871Y-31559936D01*
X10494871Y-31559936D02*
X10494871Y-31636126D01*
X10494871Y-31636126D02*
X10456776Y-31750412D01*
X10456776Y-31750412D02*
X9999633Y-32207555D01*
X9999633Y-32207555D02*
X10494871Y-32207555D01*
X24990476Y-45768855D02*
X25447619Y-45768855D01*
X25219047Y-46568855D02*
X25219047Y-45768855D01*
X25714286Y-46568855D02*
X25714286Y-45768855D01*
X25714286Y-45768855D02*
X26019048Y-45768855D01*
X26019048Y-45768855D02*
X26095238Y-45806950D01*
X26095238Y-45806950D02*
X26133333Y-45845045D01*
X26133333Y-45845045D02*
X26171429Y-45921236D01*
X26171429Y-45921236D02*
X26171429Y-46035521D01*
X26171429Y-46035521D02*
X26133333Y-46111712D01*
X26133333Y-46111712D02*
X26095238Y-46149807D01*
X26095238Y-46149807D02*
X26019048Y-46187902D01*
X26019048Y-46187902D02*
X25714286Y-46187902D01*
X26628571Y-46111712D02*
X26552381Y-46073617D01*
X26552381Y-46073617D02*
X26514286Y-46035521D01*
X26514286Y-46035521D02*
X26476190Y-45959331D01*
X26476190Y-45959331D02*
X26476190Y-45921236D01*
X26476190Y-45921236D02*
X26514286Y-45845045D01*
X26514286Y-45845045D02*
X26552381Y-45806950D01*
X26552381Y-45806950D02*
X26628571Y-45768855D01*
X26628571Y-45768855D02*
X26780952Y-45768855D01*
X26780952Y-45768855D02*
X26857143Y-45806950D01*
X26857143Y-45806950D02*
X26895238Y-45845045D01*
X26895238Y-45845045D02*
X26933333Y-45921236D01*
X26933333Y-45921236D02*
X26933333Y-45959331D01*
X26933333Y-45959331D02*
X26895238Y-46035521D01*
X26895238Y-46035521D02*
X26857143Y-46073617D01*
X26857143Y-46073617D02*
X26780952Y-46111712D01*
X26780952Y-46111712D02*
X26628571Y-46111712D01*
X26628571Y-46111712D02*
X26552381Y-46149807D01*
X26552381Y-46149807D02*
X26514286Y-46187902D01*
X26514286Y-46187902D02*
X26476190Y-46264093D01*
X26476190Y-46264093D02*
X26476190Y-46416474D01*
X26476190Y-46416474D02*
X26514286Y-46492664D01*
X26514286Y-46492664D02*
X26552381Y-46530760D01*
X26552381Y-46530760D02*
X26628571Y-46568855D01*
X26628571Y-46568855D02*
X26780952Y-46568855D01*
X26780952Y-46568855D02*
X26857143Y-46530760D01*
X26857143Y-46530760D02*
X26895238Y-46492664D01*
X26895238Y-46492664D02*
X26933333Y-46416474D01*
X26933333Y-46416474D02*
X26933333Y-46264093D01*
X26933333Y-46264093D02*
X26895238Y-46187902D01*
X26895238Y-46187902D02*
X26857143Y-46149807D01*
X26857143Y-46149807D02*
X26780952Y-46111712D01*
X52528571Y-68998855D02*
X52528571Y-68198855D01*
X52528571Y-68198855D02*
X52719047Y-68198855D01*
X52719047Y-68198855D02*
X52833333Y-68236950D01*
X52833333Y-68236950D02*
X52909523Y-68313140D01*
X52909523Y-68313140D02*
X52947618Y-68389331D01*
X52947618Y-68389331D02*
X52985714Y-68541712D01*
X52985714Y-68541712D02*
X52985714Y-68655998D01*
X52985714Y-68655998D02*
X52947618Y-68808379D01*
X52947618Y-68808379D02*
X52909523Y-68884569D01*
X52909523Y-68884569D02*
X52833333Y-68960760D01*
X52833333Y-68960760D02*
X52719047Y-68998855D01*
X52719047Y-68998855D02*
X52528571Y-68998855D01*
X53747618Y-68998855D02*
X53290475Y-68998855D01*
X53519047Y-68998855D02*
X53519047Y-68198855D01*
X53519047Y-68198855D02*
X53442856Y-68313140D01*
X53442856Y-68313140D02*
X53366666Y-68389331D01*
X53366666Y-68389331D02*
X53290475Y-68427426D01*
X54471428Y-68198855D02*
X54090476Y-68198855D01*
X54090476Y-68198855D02*
X54052380Y-68579807D01*
X54052380Y-68579807D02*
X54090476Y-68541712D01*
X54090476Y-68541712D02*
X54166666Y-68503617D01*
X54166666Y-68503617D02*
X54357142Y-68503617D01*
X54357142Y-68503617D02*
X54433333Y-68541712D01*
X54433333Y-68541712D02*
X54471428Y-68579807D01*
X54471428Y-68579807D02*
X54509523Y-68655998D01*
X54509523Y-68655998D02*
X54509523Y-68846474D01*
X54509523Y-68846474D02*
X54471428Y-68922664D01*
X54471428Y-68922664D02*
X54433333Y-68960760D01*
X54433333Y-68960760D02*
X54357142Y-68998855D01*
X54357142Y-68998855D02*
X54166666Y-68998855D01*
X54166666Y-68998855D02*
X54090476Y-68960760D01*
X54090476Y-68960760D02*
X54052380Y-68922664D01*
X37861514Y-68716864D02*
X37823418Y-68754960D01*
X37823418Y-68754960D02*
X37709133Y-68793055D01*
X37709133Y-68793055D02*
X37632942Y-68793055D01*
X37632942Y-68793055D02*
X37518656Y-68754960D01*
X37518656Y-68754960D02*
X37442466Y-68678769D01*
X37442466Y-68678769D02*
X37404371Y-68602579D01*
X37404371Y-68602579D02*
X37366275Y-68450198D01*
X37366275Y-68450198D02*
X37366275Y-68335912D01*
X37366275Y-68335912D02*
X37404371Y-68183531D01*
X37404371Y-68183531D02*
X37442466Y-68107340D01*
X37442466Y-68107340D02*
X37518656Y-68031150D01*
X37518656Y-68031150D02*
X37632942Y-67993055D01*
X37632942Y-67993055D02*
X37709133Y-67993055D01*
X37709133Y-67993055D02*
X37823418Y-68031150D01*
X37823418Y-68031150D02*
X37861514Y-68069245D01*
X38623418Y-68793055D02*
X38166275Y-68793055D01*
X38394847Y-68793055D02*
X38394847Y-67993055D01*
X38394847Y-67993055D02*
X38318656Y-68107340D01*
X38318656Y-68107340D02*
X38242466Y-68183531D01*
X38242466Y-68183531D02*
X38166275Y-68221626D01*
X39080561Y-68335912D02*
X39004371Y-68297817D01*
X39004371Y-68297817D02*
X38966276Y-68259721D01*
X38966276Y-68259721D02*
X38928180Y-68183531D01*
X38928180Y-68183531D02*
X38928180Y-68145436D01*
X38928180Y-68145436D02*
X38966276Y-68069245D01*
X38966276Y-68069245D02*
X39004371Y-68031150D01*
X39004371Y-68031150D02*
X39080561Y-67993055D01*
X39080561Y-67993055D02*
X39232942Y-67993055D01*
X39232942Y-67993055D02*
X39309133Y-68031150D01*
X39309133Y-68031150D02*
X39347228Y-68069245D01*
X39347228Y-68069245D02*
X39385323Y-68145436D01*
X39385323Y-68145436D02*
X39385323Y-68183531D01*
X39385323Y-68183531D02*
X39347228Y-68259721D01*
X39347228Y-68259721D02*
X39309133Y-68297817D01*
X39309133Y-68297817D02*
X39232942Y-68335912D01*
X39232942Y-68335912D02*
X39080561Y-68335912D01*
X39080561Y-68335912D02*
X39004371Y-68374007D01*
X39004371Y-68374007D02*
X38966276Y-68412102D01*
X38966276Y-68412102D02*
X38928180Y-68488293D01*
X38928180Y-68488293D02*
X38928180Y-68640674D01*
X38928180Y-68640674D02*
X38966276Y-68716864D01*
X38966276Y-68716864D02*
X39004371Y-68754960D01*
X39004371Y-68754960D02*
X39080561Y-68793055D01*
X39080561Y-68793055D02*
X39232942Y-68793055D01*
X39232942Y-68793055D02*
X39309133Y-68754960D01*
X39309133Y-68754960D02*
X39347228Y-68716864D01*
X39347228Y-68716864D02*
X39385323Y-68640674D01*
X39385323Y-68640674D02*
X39385323Y-68488293D01*
X39385323Y-68488293D02*
X39347228Y-68412102D01*
X39347228Y-68412102D02*
X39309133Y-68374007D01*
X39309133Y-68374007D02*
X39232942Y-68335912D01*
X39035714Y-74462664D02*
X38997618Y-74500760D01*
X38997618Y-74500760D02*
X38883333Y-74538855D01*
X38883333Y-74538855D02*
X38807142Y-74538855D01*
X38807142Y-74538855D02*
X38692856Y-74500760D01*
X38692856Y-74500760D02*
X38616666Y-74424569D01*
X38616666Y-74424569D02*
X38578571Y-74348379D01*
X38578571Y-74348379D02*
X38540475Y-74195998D01*
X38540475Y-74195998D02*
X38540475Y-74081712D01*
X38540475Y-74081712D02*
X38578571Y-73929331D01*
X38578571Y-73929331D02*
X38616666Y-73853140D01*
X38616666Y-73853140D02*
X38692856Y-73776950D01*
X38692856Y-73776950D02*
X38807142Y-73738855D01*
X38807142Y-73738855D02*
X38883333Y-73738855D01*
X38883333Y-73738855D02*
X38997618Y-73776950D01*
X38997618Y-73776950D02*
X39035714Y-73815045D01*
X39340475Y-73815045D02*
X39378571Y-73776950D01*
X39378571Y-73776950D02*
X39454761Y-73738855D01*
X39454761Y-73738855D02*
X39645237Y-73738855D01*
X39645237Y-73738855D02*
X39721428Y-73776950D01*
X39721428Y-73776950D02*
X39759523Y-73815045D01*
X39759523Y-73815045D02*
X39797618Y-73891236D01*
X39797618Y-73891236D02*
X39797618Y-73967426D01*
X39797618Y-73967426D02*
X39759523Y-74081712D01*
X39759523Y-74081712D02*
X39302380Y-74538855D01*
X39302380Y-74538855D02*
X39797618Y-74538855D01*
X40292857Y-73738855D02*
X40369047Y-73738855D01*
X40369047Y-73738855D02*
X40445238Y-73776950D01*
X40445238Y-73776950D02*
X40483333Y-73815045D01*
X40483333Y-73815045D02*
X40521428Y-73891236D01*
X40521428Y-73891236D02*
X40559523Y-74043617D01*
X40559523Y-74043617D02*
X40559523Y-74234093D01*
X40559523Y-74234093D02*
X40521428Y-74386474D01*
X40521428Y-74386474D02*
X40483333Y-74462664D01*
X40483333Y-74462664D02*
X40445238Y-74500760D01*
X40445238Y-74500760D02*
X40369047Y-74538855D01*
X40369047Y-74538855D02*
X40292857Y-74538855D01*
X40292857Y-74538855D02*
X40216666Y-74500760D01*
X40216666Y-74500760D02*
X40178571Y-74462664D01*
X40178571Y-74462664D02*
X40140476Y-74386474D01*
X40140476Y-74386474D02*
X40102380Y-74234093D01*
X40102380Y-74234093D02*
X40102380Y-74043617D01*
X40102380Y-74043617D02*
X40140476Y-73891236D01*
X40140476Y-73891236D02*
X40178571Y-73815045D01*
X40178571Y-73815045D02*
X40216666Y-73776950D01*
X40216666Y-73776950D02*
X40292857Y-73738855D01*
X6909524Y-61298855D02*
X6909524Y-60498855D01*
X6909524Y-60498855D02*
X7100000Y-60498855D01*
X7100000Y-60498855D02*
X7214286Y-60536950D01*
X7214286Y-60536950D02*
X7290476Y-60613140D01*
X7290476Y-60613140D02*
X7328571Y-60689331D01*
X7328571Y-60689331D02*
X7366667Y-60841712D01*
X7366667Y-60841712D02*
X7366667Y-60955998D01*
X7366667Y-60955998D02*
X7328571Y-61108379D01*
X7328571Y-61108379D02*
X7290476Y-61184569D01*
X7290476Y-61184569D02*
X7214286Y-61260760D01*
X7214286Y-61260760D02*
X7100000Y-61298855D01*
X7100000Y-61298855D02*
X6909524Y-61298855D01*
X8052381Y-60498855D02*
X7900000Y-60498855D01*
X7900000Y-60498855D02*
X7823809Y-60536950D01*
X7823809Y-60536950D02*
X7785714Y-60575045D01*
X7785714Y-60575045D02*
X7709524Y-60689331D01*
X7709524Y-60689331D02*
X7671428Y-60841712D01*
X7671428Y-60841712D02*
X7671428Y-61146474D01*
X7671428Y-61146474D02*
X7709524Y-61222664D01*
X7709524Y-61222664D02*
X7747619Y-61260760D01*
X7747619Y-61260760D02*
X7823809Y-61298855D01*
X7823809Y-61298855D02*
X7976190Y-61298855D01*
X7976190Y-61298855D02*
X8052381Y-61260760D01*
X8052381Y-61260760D02*
X8090476Y-61222664D01*
X8090476Y-61222664D02*
X8128571Y-61146474D01*
X8128571Y-61146474D02*
X8128571Y-60955998D01*
X8128571Y-60955998D02*
X8090476Y-60879807D01*
X8090476Y-60879807D02*
X8052381Y-60841712D01*
X8052381Y-60841712D02*
X7976190Y-60803617D01*
X7976190Y-60803617D02*
X7823809Y-60803617D01*
X7823809Y-60803617D02*
X7747619Y-60841712D01*
X7747619Y-60841712D02*
X7709524Y-60879807D01*
X7709524Y-60879807D02*
X7671428Y-60955998D01*
M02*
