%TF.GenerationSoftware,KiCad,Pcbnew,10.0.5*%
%TF.CreationDate,2026-08-07T15:17:58+02:00*%
%TF.ProjectId,wisp,77697370-2e6b-4696-9361-645f70636258,rev?*%
%TF.SameCoordinates,Original*%
%TF.FileFunction,AssemblyDrawing,Top*%
%FSLAX46Y46*%
G04 Gerber Fmt 4.6, Leading zero omitted, Abs format (unit mm)*
G04 Created by KiCad (PCBNEW 10.0.5) date 2026-08-07 15:17:58*
%MOMM*%
%LPD*%
G01*
G04 APERTURE LIST*
%ADD10C,0.150000*%
%ADD11C,0.090000*%
%ADD12C,0.110000*%
%ADD13C,0.120000*%
%ADD14C,0.100000*%
G04 APERTURE END LIST*
D10*
X60999999Y-46454819D02*
X60999999Y-45788152D01*
X60999999Y-45883390D02*
X61047618Y-45835771D01*
X61047618Y-45835771D02*
X61142856Y-45788152D01*
X61142856Y-45788152D02*
X61285713Y-45788152D01*
X61285713Y-45788152D02*
X61380951Y-45835771D01*
X61380951Y-45835771D02*
X61428570Y-45931009D01*
X61428570Y-45931009D02*
X61428570Y-46454819D01*
X61428570Y-45931009D02*
X61476189Y-45835771D01*
X61476189Y-45835771D02*
X61571427Y-45788152D01*
X61571427Y-45788152D02*
X61714284Y-45788152D01*
X61714284Y-45788152D02*
X61809523Y-45835771D01*
X61809523Y-45835771D02*
X61857142Y-45931009D01*
X61857142Y-45931009D02*
X61857142Y-46454819D01*
X62333332Y-46454819D02*
X62333332Y-45788152D01*
X62333332Y-45883390D02*
X62380951Y-45835771D01*
X62380951Y-45835771D02*
X62476189Y-45788152D01*
X62476189Y-45788152D02*
X62619046Y-45788152D01*
X62619046Y-45788152D02*
X62714284Y-45835771D01*
X62714284Y-45835771D02*
X62761903Y-45931009D01*
X62761903Y-45931009D02*
X62761903Y-46454819D01*
X62761903Y-45931009D02*
X62809522Y-45835771D01*
X62809522Y-45835771D02*
X62904760Y-45788152D01*
X62904760Y-45788152D02*
X63047617Y-45788152D01*
X63047617Y-45788152D02*
X63142856Y-45835771D01*
X63142856Y-45835771D02*
X63190475Y-45931009D01*
X63190475Y-45931009D02*
X63190475Y-46454819D01*
X63571427Y-45454819D02*
X63809522Y-46454819D01*
X63809522Y-46454819D02*
X63999998Y-45740533D01*
X63999998Y-45740533D02*
X64190474Y-46454819D01*
X64190474Y-46454819D02*
X64428570Y-45454819D01*
X65238093Y-46454819D02*
X65238093Y-45931009D01*
X65238093Y-45931009D02*
X65190474Y-45835771D01*
X65190474Y-45835771D02*
X65095236Y-45788152D01*
X65095236Y-45788152D02*
X64904760Y-45788152D01*
X64904760Y-45788152D02*
X64809522Y-45835771D01*
X65238093Y-46407200D02*
X65142855Y-46454819D01*
X65142855Y-46454819D02*
X64904760Y-46454819D01*
X64904760Y-46454819D02*
X64809522Y-46407200D01*
X64809522Y-46407200D02*
X64761903Y-46311961D01*
X64761903Y-46311961D02*
X64761903Y-46216723D01*
X64761903Y-46216723D02*
X64809522Y-46121485D01*
X64809522Y-46121485D02*
X64904760Y-46073866D01*
X64904760Y-46073866D02*
X65142855Y-46073866D01*
X65142855Y-46073866D02*
X65238093Y-46026247D01*
X65619046Y-45788152D02*
X65857141Y-46454819D01*
X65857141Y-46454819D02*
X66095236Y-45788152D01*
X66857141Y-46407200D02*
X66761903Y-46454819D01*
X66761903Y-46454819D02*
X66571427Y-46454819D01*
X66571427Y-46454819D02*
X66476189Y-46407200D01*
X66476189Y-46407200D02*
X66428570Y-46311961D01*
X66428570Y-46311961D02*
X66428570Y-45931009D01*
X66428570Y-45931009D02*
X66476189Y-45835771D01*
X66476189Y-45835771D02*
X66571427Y-45788152D01*
X66571427Y-45788152D02*
X66761903Y-45788152D01*
X66761903Y-45788152D02*
X66857141Y-45835771D01*
X66857141Y-45835771D02*
X66904760Y-45931009D01*
X66904760Y-45931009D02*
X66904760Y-46026247D01*
X66904760Y-46026247D02*
X66428570Y-46121485D01*
X68095237Y-45454819D02*
X68095237Y-46264342D01*
X68095237Y-46264342D02*
X68142856Y-46359580D01*
X68142856Y-46359580D02*
X68190475Y-46407200D01*
X68190475Y-46407200D02*
X68285713Y-46454819D01*
X68285713Y-46454819D02*
X68476189Y-46454819D01*
X68476189Y-46454819D02*
X68571427Y-46407200D01*
X68571427Y-46407200D02*
X68619046Y-46359580D01*
X68619046Y-46359580D02*
X68666665Y-46264342D01*
X68666665Y-46264342D02*
X68666665Y-45454819D01*
X69095237Y-46169104D02*
X69571427Y-46169104D01*
X68999999Y-46454819D02*
X69333332Y-45454819D01*
X69333332Y-45454819D02*
X69666665Y-46454819D01*
X70571427Y-46454819D02*
X70238094Y-45978628D01*
X69999999Y-46454819D02*
X69999999Y-45454819D01*
X69999999Y-45454819D02*
X70380951Y-45454819D01*
X70380951Y-45454819D02*
X70476189Y-45502438D01*
X70476189Y-45502438D02*
X70523808Y-45550057D01*
X70523808Y-45550057D02*
X70571427Y-45645295D01*
X70571427Y-45645295D02*
X70571427Y-45788152D01*
X70571427Y-45788152D02*
X70523808Y-45883390D01*
X70523808Y-45883390D02*
X70476189Y-45931009D01*
X70476189Y-45931009D02*
X70380951Y-45978628D01*
X70380951Y-45978628D02*
X69999999Y-45978628D01*
X70857142Y-45454819D02*
X71428570Y-45454819D01*
X71142856Y-46454819D02*
X71142856Y-45454819D01*
X72809523Y-46835771D02*
X72761904Y-46788152D01*
X72761904Y-46788152D02*
X72666666Y-46645295D01*
X72666666Y-46645295D02*
X72619047Y-46550057D01*
X72619047Y-46550057D02*
X72571428Y-46407200D01*
X72571428Y-46407200D02*
X72523809Y-46169104D01*
X72523809Y-46169104D02*
X72523809Y-45978628D01*
X72523809Y-45978628D02*
X72571428Y-45740533D01*
X72571428Y-45740533D02*
X72619047Y-45597676D01*
X72619047Y-45597676D02*
X72666666Y-45502438D01*
X72666666Y-45502438D02*
X72761904Y-45359580D01*
X72761904Y-45359580D02*
X72809523Y-45311961D01*
X73666666Y-46454819D02*
X73190476Y-46454819D01*
X73190476Y-46454819D02*
X73190476Y-45454819D01*
X74000000Y-46454819D02*
X74000000Y-45454819D01*
X74000000Y-45454819D02*
X74238095Y-45454819D01*
X74238095Y-45454819D02*
X74380952Y-45502438D01*
X74380952Y-45502438D02*
X74476190Y-45597676D01*
X74476190Y-45597676D02*
X74523809Y-45692914D01*
X74523809Y-45692914D02*
X74571428Y-45883390D01*
X74571428Y-45883390D02*
X74571428Y-46026247D01*
X74571428Y-46026247D02*
X74523809Y-46216723D01*
X74523809Y-46216723D02*
X74476190Y-46311961D01*
X74476190Y-46311961D02*
X74380952Y-46407200D01*
X74380952Y-46407200D02*
X74238095Y-46454819D01*
X74238095Y-46454819D02*
X74000000Y-46454819D01*
X74952381Y-45550057D02*
X75000000Y-45502438D01*
X75000000Y-45502438D02*
X75095238Y-45454819D01*
X75095238Y-45454819D02*
X75333333Y-45454819D01*
X75333333Y-45454819D02*
X75428571Y-45502438D01*
X75428571Y-45502438D02*
X75476190Y-45550057D01*
X75476190Y-45550057D02*
X75523809Y-45645295D01*
X75523809Y-45645295D02*
X75523809Y-45740533D01*
X75523809Y-45740533D02*
X75476190Y-45883390D01*
X75476190Y-45883390D02*
X74904762Y-46454819D01*
X74904762Y-46454819D02*
X75523809Y-46454819D01*
X76380952Y-45788152D02*
X76380952Y-46454819D01*
X76142857Y-45407200D02*
X75904762Y-46121485D01*
X75904762Y-46121485D02*
X76523809Y-46121485D01*
X77428571Y-46454819D02*
X76857143Y-46454819D01*
X77142857Y-46454819D02*
X77142857Y-45454819D01*
X77142857Y-45454819D02*
X77047619Y-45597676D01*
X77047619Y-45597676D02*
X76952381Y-45692914D01*
X76952381Y-45692914D02*
X76857143Y-45740533D01*
X78047619Y-45454819D02*
X78142857Y-45454819D01*
X78142857Y-45454819D02*
X78238095Y-45502438D01*
X78238095Y-45502438D02*
X78285714Y-45550057D01*
X78285714Y-45550057D02*
X78333333Y-45645295D01*
X78333333Y-45645295D02*
X78380952Y-45835771D01*
X78380952Y-45835771D02*
X78380952Y-46073866D01*
X78380952Y-46073866D02*
X78333333Y-46264342D01*
X78333333Y-46264342D02*
X78285714Y-46359580D01*
X78285714Y-46359580D02*
X78238095Y-46407200D01*
X78238095Y-46407200D02*
X78142857Y-46454819D01*
X78142857Y-46454819D02*
X78047619Y-46454819D01*
X78047619Y-46454819D02*
X77952381Y-46407200D01*
X77952381Y-46407200D02*
X77904762Y-46359580D01*
X77904762Y-46359580D02*
X77857143Y-46264342D01*
X77857143Y-46264342D02*
X77809524Y-46073866D01*
X77809524Y-46073866D02*
X77809524Y-45835771D01*
X77809524Y-45835771D02*
X77857143Y-45645295D01*
X77857143Y-45645295D02*
X77904762Y-45550057D01*
X77904762Y-45550057D02*
X77952381Y-45502438D01*
X77952381Y-45502438D02*
X78047619Y-45454819D01*
X78714286Y-46835771D02*
X78761905Y-46788152D01*
X78761905Y-46788152D02*
X78857143Y-46645295D01*
X78857143Y-46645295D02*
X78904762Y-46550057D01*
X78904762Y-46550057D02*
X78952381Y-46407200D01*
X78952381Y-46407200D02*
X79000000Y-46169104D01*
X79000000Y-46169104D02*
X79000000Y-45978628D01*
X79000000Y-45978628D02*
X78952381Y-45740533D01*
X78952381Y-45740533D02*
X78904762Y-45597676D01*
X78904762Y-45597676D02*
X78857143Y-45502438D01*
X78857143Y-45502438D02*
X78761905Y-45359580D01*
X78761905Y-45359580D02*
X78714286Y-45311961D01*
X69454819Y-40143333D02*
X70169104Y-40143333D01*
X70169104Y-40143333D02*
X70311961Y-40190952D01*
X70311961Y-40190952D02*
X70407200Y-40286190D01*
X70407200Y-40286190D02*
X70454819Y-40429047D01*
X70454819Y-40429047D02*
X70454819Y-40524285D01*
X69454819Y-39762380D02*
X69454819Y-39143333D01*
X69454819Y-39143333D02*
X69835771Y-39476666D01*
X69835771Y-39476666D02*
X69835771Y-39333809D01*
X69835771Y-39333809D02*
X69883390Y-39238571D01*
X69883390Y-39238571D02*
X69931009Y-39190952D01*
X69931009Y-39190952D02*
X70026247Y-39143333D01*
X70026247Y-39143333D02*
X70264342Y-39143333D01*
X70264342Y-39143333D02*
X70359580Y-39190952D01*
X70359580Y-39190952D02*
X70407200Y-39238571D01*
X70407200Y-39238571D02*
X70454819Y-39333809D01*
X70454819Y-39333809D02*
X70454819Y-39619523D01*
X70454819Y-39619523D02*
X70407200Y-39714761D01*
X70407200Y-39714761D02*
X70359580Y-39762380D01*
X17261905Y-35681009D02*
X17595238Y-35681009D01*
X17738095Y-36204819D02*
X17261905Y-36204819D01*
X17261905Y-36204819D02*
X17261905Y-35204819D01*
X17261905Y-35204819D02*
X17738095Y-35204819D01*
X18166667Y-36204819D02*
X18166667Y-35204819D01*
X18166667Y-35204819D02*
X18738095Y-36204819D01*
X18738095Y-36204819D02*
X18738095Y-35204819D01*
X16738095Y-31804819D02*
X17309523Y-31804819D01*
X17023809Y-32804819D02*
X17023809Y-31804819D01*
X17642857Y-32804819D02*
X17642857Y-31804819D01*
X17642857Y-31804819D02*
X18023809Y-31804819D01*
X18023809Y-31804819D02*
X18119047Y-31852438D01*
X18119047Y-31852438D02*
X18166666Y-31900057D01*
X18166666Y-31900057D02*
X18214285Y-31995295D01*
X18214285Y-31995295D02*
X18214285Y-32138152D01*
X18214285Y-32138152D02*
X18166666Y-32233390D01*
X18166666Y-32233390D02*
X18119047Y-32281009D01*
X18119047Y-32281009D02*
X18023809Y-32328628D01*
X18023809Y-32328628D02*
X17642857Y-32328628D01*
X18690476Y-32804819D02*
X18880952Y-32804819D01*
X18880952Y-32804819D02*
X18976190Y-32757200D01*
X18976190Y-32757200D02*
X19023809Y-32709580D01*
X19023809Y-32709580D02*
X19119047Y-32566723D01*
X19119047Y-32566723D02*
X19166666Y-32376247D01*
X19166666Y-32376247D02*
X19166666Y-31995295D01*
X19166666Y-31995295D02*
X19119047Y-31900057D01*
X19119047Y-31900057D02*
X19071428Y-31852438D01*
X19071428Y-31852438D02*
X18976190Y-31804819D01*
X18976190Y-31804819D02*
X18785714Y-31804819D01*
X18785714Y-31804819D02*
X18690476Y-31852438D01*
X18690476Y-31852438D02*
X18642857Y-31900057D01*
X18642857Y-31900057D02*
X18595238Y-31995295D01*
X18595238Y-31995295D02*
X18595238Y-32233390D01*
X18595238Y-32233390D02*
X18642857Y-32328628D01*
X18642857Y-32328628D02*
X18690476Y-32376247D01*
X18690476Y-32376247D02*
X18785714Y-32423866D01*
X18785714Y-32423866D02*
X18976190Y-32423866D01*
X18976190Y-32423866D02*
X19071428Y-32376247D01*
X19071428Y-32376247D02*
X19119047Y-32328628D01*
X19119047Y-32328628D02*
X19166666Y-32233390D01*
X12071428Y-75431009D02*
X12214285Y-75478628D01*
X12214285Y-75478628D02*
X12261904Y-75526247D01*
X12261904Y-75526247D02*
X12309523Y-75621485D01*
X12309523Y-75621485D02*
X12309523Y-75764342D01*
X12309523Y-75764342D02*
X12261904Y-75859580D01*
X12261904Y-75859580D02*
X12214285Y-75907200D01*
X12214285Y-75907200D02*
X12119047Y-75954819D01*
X12119047Y-75954819D02*
X11738095Y-75954819D01*
X11738095Y-75954819D02*
X11738095Y-74954819D01*
X11738095Y-74954819D02*
X12071428Y-74954819D01*
X12071428Y-74954819D02*
X12166666Y-75002438D01*
X12166666Y-75002438D02*
X12214285Y-75050057D01*
X12214285Y-75050057D02*
X12261904Y-75145295D01*
X12261904Y-75145295D02*
X12261904Y-75240533D01*
X12261904Y-75240533D02*
X12214285Y-75335771D01*
X12214285Y-75335771D02*
X12166666Y-75383390D01*
X12166666Y-75383390D02*
X12071428Y-75431009D01*
X12071428Y-75431009D02*
X11738095Y-75431009D01*
X13166666Y-75288152D02*
X13166666Y-75954819D01*
X12738095Y-75288152D02*
X12738095Y-75811961D01*
X12738095Y-75811961D02*
X12785714Y-75907200D01*
X12785714Y-75907200D02*
X12880952Y-75954819D01*
X12880952Y-75954819D02*
X13023809Y-75954819D01*
X13023809Y-75954819D02*
X13119047Y-75907200D01*
X13119047Y-75907200D02*
X13166666Y-75859580D01*
X13547619Y-75288152D02*
X14071428Y-75288152D01*
X14071428Y-75288152D02*
X13547619Y-75954819D01*
X13547619Y-75954819D02*
X14071428Y-75954819D01*
X14357143Y-75288152D02*
X14880952Y-75288152D01*
X14880952Y-75288152D02*
X14357143Y-75954819D01*
X14357143Y-75954819D02*
X14880952Y-75954819D01*
X15642857Y-75907200D02*
X15547619Y-75954819D01*
X15547619Y-75954819D02*
X15357143Y-75954819D01*
X15357143Y-75954819D02*
X15261905Y-75907200D01*
X15261905Y-75907200D02*
X15214286Y-75811961D01*
X15214286Y-75811961D02*
X15214286Y-75431009D01*
X15214286Y-75431009D02*
X15261905Y-75335771D01*
X15261905Y-75335771D02*
X15357143Y-75288152D01*
X15357143Y-75288152D02*
X15547619Y-75288152D01*
X15547619Y-75288152D02*
X15642857Y-75335771D01*
X15642857Y-75335771D02*
X15690476Y-75431009D01*
X15690476Y-75431009D02*
X15690476Y-75526247D01*
X15690476Y-75526247D02*
X15214286Y-75621485D01*
X16119048Y-75954819D02*
X16119048Y-75288152D01*
X16119048Y-75478628D02*
X16166667Y-75383390D01*
X16166667Y-75383390D02*
X16214286Y-75335771D01*
X16214286Y-75335771D02*
X16309524Y-75288152D01*
X16309524Y-75288152D02*
X16404762Y-75288152D01*
X13119047Y-69931009D02*
X13261904Y-69978628D01*
X13261904Y-69978628D02*
X13309523Y-70026247D01*
X13309523Y-70026247D02*
X13357142Y-70121485D01*
X13357142Y-70121485D02*
X13357142Y-70264342D01*
X13357142Y-70264342D02*
X13309523Y-70359580D01*
X13309523Y-70359580D02*
X13261904Y-70407200D01*
X13261904Y-70407200D02*
X13166666Y-70454819D01*
X13166666Y-70454819D02*
X12785714Y-70454819D01*
X12785714Y-70454819D02*
X12785714Y-69454819D01*
X12785714Y-69454819D02*
X13119047Y-69454819D01*
X13119047Y-69454819D02*
X13214285Y-69502438D01*
X13214285Y-69502438D02*
X13261904Y-69550057D01*
X13261904Y-69550057D02*
X13309523Y-69645295D01*
X13309523Y-69645295D02*
X13309523Y-69740533D01*
X13309523Y-69740533D02*
X13261904Y-69835771D01*
X13261904Y-69835771D02*
X13214285Y-69883390D01*
X13214285Y-69883390D02*
X13119047Y-69931009D01*
X13119047Y-69931009D02*
X12785714Y-69931009D01*
X13690476Y-69454819D02*
X14357142Y-69454819D01*
X14357142Y-69454819D02*
X13690476Y-70454819D01*
X13690476Y-70454819D02*
X14357142Y-70454819D01*
X15261904Y-70454819D02*
X14690476Y-70454819D01*
X14976190Y-70454819D02*
X14976190Y-69454819D01*
X14976190Y-69454819D02*
X14880952Y-69597676D01*
X14880952Y-69597676D02*
X14785714Y-69692914D01*
X14785714Y-69692914D02*
X14690476Y-69740533D01*
X27023809Y-35204819D02*
X27023809Y-35919104D01*
X27023809Y-35919104D02*
X26976190Y-36061961D01*
X26976190Y-36061961D02*
X26880952Y-36157200D01*
X26880952Y-36157200D02*
X26738095Y-36204819D01*
X26738095Y-36204819D02*
X26642857Y-36204819D01*
X27357143Y-35204819D02*
X27928571Y-35204819D01*
X27642857Y-36204819D02*
X27642857Y-35204819D01*
X28214286Y-35919104D02*
X28690476Y-35919104D01*
X28119048Y-36204819D02*
X28452381Y-35204819D01*
X28452381Y-35204819D02*
X28785714Y-36204819D01*
X29642857Y-35252438D02*
X29547619Y-35204819D01*
X29547619Y-35204819D02*
X29404762Y-35204819D01*
X29404762Y-35204819D02*
X29261905Y-35252438D01*
X29261905Y-35252438D02*
X29166667Y-35347676D01*
X29166667Y-35347676D02*
X29119048Y-35442914D01*
X29119048Y-35442914D02*
X29071429Y-35633390D01*
X29071429Y-35633390D02*
X29071429Y-35776247D01*
X29071429Y-35776247D02*
X29119048Y-35966723D01*
X29119048Y-35966723D02*
X29166667Y-36061961D01*
X29166667Y-36061961D02*
X29261905Y-36157200D01*
X29261905Y-36157200D02*
X29404762Y-36204819D01*
X29404762Y-36204819D02*
X29500000Y-36204819D01*
X29500000Y-36204819D02*
X29642857Y-36157200D01*
X29642857Y-36157200D02*
X29690476Y-36109580D01*
X29690476Y-36109580D02*
X29690476Y-35776247D01*
X29690476Y-35776247D02*
X29500000Y-35776247D01*
X29880953Y-36300057D02*
X30642857Y-36300057D01*
X30738096Y-35204819D02*
X31309524Y-35204819D01*
X31023810Y-36204819D02*
X31023810Y-35204819D01*
X31642858Y-36204819D02*
X31642858Y-35204819D01*
X31642858Y-35204819D02*
X31976191Y-35919104D01*
X31976191Y-35919104D02*
X32309524Y-35204819D01*
X32309524Y-35204819D02*
X32309524Y-36204819D01*
X32738096Y-36157200D02*
X32880953Y-36204819D01*
X32880953Y-36204819D02*
X33119048Y-36204819D01*
X33119048Y-36204819D02*
X33214286Y-36157200D01*
X33214286Y-36157200D02*
X33261905Y-36109580D01*
X33261905Y-36109580D02*
X33309524Y-36014342D01*
X33309524Y-36014342D02*
X33309524Y-35919104D01*
X33309524Y-35919104D02*
X33261905Y-35823866D01*
X33261905Y-35823866D02*
X33214286Y-35776247D01*
X33214286Y-35776247D02*
X33119048Y-35728628D01*
X33119048Y-35728628D02*
X32928572Y-35681009D01*
X32928572Y-35681009D02*
X32833334Y-35633390D01*
X32833334Y-35633390D02*
X32785715Y-35585771D01*
X32785715Y-35585771D02*
X32738096Y-35490533D01*
X32738096Y-35490533D02*
X32738096Y-35395295D01*
X32738096Y-35395295D02*
X32785715Y-35300057D01*
X32785715Y-35300057D02*
X32833334Y-35252438D01*
X32833334Y-35252438D02*
X32928572Y-35204819D01*
X32928572Y-35204819D02*
X33166667Y-35204819D01*
X33166667Y-35204819D02*
X33309524Y-35252438D01*
X28738095Y-31804819D02*
X29309523Y-31804819D01*
X29023809Y-32804819D02*
X29023809Y-31804819D01*
X29642857Y-32804819D02*
X29642857Y-31804819D01*
X29642857Y-31804819D02*
X30023809Y-31804819D01*
X30023809Y-31804819D02*
X30119047Y-31852438D01*
X30119047Y-31852438D02*
X30166666Y-31900057D01*
X30166666Y-31900057D02*
X30214285Y-31995295D01*
X30214285Y-31995295D02*
X30214285Y-32138152D01*
X30214285Y-32138152D02*
X30166666Y-32233390D01*
X30166666Y-32233390D02*
X30119047Y-32281009D01*
X30119047Y-32281009D02*
X30023809Y-32328628D01*
X30023809Y-32328628D02*
X29642857Y-32328628D01*
X30547619Y-31804819D02*
X31166666Y-31804819D01*
X31166666Y-31804819D02*
X30833333Y-32185771D01*
X30833333Y-32185771D02*
X30976190Y-32185771D01*
X30976190Y-32185771D02*
X31071428Y-32233390D01*
X31071428Y-32233390D02*
X31119047Y-32281009D01*
X31119047Y-32281009D02*
X31166666Y-32376247D01*
X31166666Y-32376247D02*
X31166666Y-32614342D01*
X31166666Y-32614342D02*
X31119047Y-32709580D01*
X31119047Y-32709580D02*
X31071428Y-32757200D01*
X31071428Y-32757200D02*
X30976190Y-32804819D01*
X30976190Y-32804819D02*
X30690476Y-32804819D01*
X30690476Y-32804819D02*
X30595238Y-32757200D01*
X30595238Y-32757200D02*
X30547619Y-32709580D01*
X14690475Y-65327200D02*
X14833332Y-65374819D01*
X14833332Y-65374819D02*
X15071427Y-65374819D01*
X15071427Y-65374819D02*
X15166665Y-65327200D01*
X15166665Y-65327200D02*
X15214284Y-65279580D01*
X15214284Y-65279580D02*
X15261903Y-65184342D01*
X15261903Y-65184342D02*
X15261903Y-65089104D01*
X15261903Y-65089104D02*
X15214284Y-64993866D01*
X15214284Y-64993866D02*
X15166665Y-64946247D01*
X15166665Y-64946247D02*
X15071427Y-64898628D01*
X15071427Y-64898628D02*
X14880951Y-64851009D01*
X14880951Y-64851009D02*
X14785713Y-64803390D01*
X14785713Y-64803390D02*
X14738094Y-64755771D01*
X14738094Y-64755771D02*
X14690475Y-64660533D01*
X14690475Y-64660533D02*
X14690475Y-64565295D01*
X14690475Y-64565295D02*
X14738094Y-64470057D01*
X14738094Y-64470057D02*
X14785713Y-64422438D01*
X14785713Y-64422438D02*
X14880951Y-64374819D01*
X14880951Y-64374819D02*
X15119046Y-64374819D01*
X15119046Y-64374819D02*
X15261903Y-64422438D01*
X15595237Y-64708152D02*
X15785713Y-65374819D01*
X15785713Y-65374819D02*
X15976189Y-64898628D01*
X15976189Y-64898628D02*
X16166665Y-65374819D01*
X16166665Y-65374819D02*
X16357141Y-64708152D01*
X16738094Y-65374819D02*
X16738094Y-64708152D01*
X16738094Y-64374819D02*
X16690475Y-64422438D01*
X16690475Y-64422438D02*
X16738094Y-64470057D01*
X16738094Y-64470057D02*
X16785713Y-64422438D01*
X16785713Y-64422438D02*
X16738094Y-64374819D01*
X16738094Y-64374819D02*
X16738094Y-64470057D01*
X17071427Y-64708152D02*
X17452379Y-64708152D01*
X17214284Y-64374819D02*
X17214284Y-65231961D01*
X17214284Y-65231961D02*
X17261903Y-65327200D01*
X17261903Y-65327200D02*
X17357141Y-65374819D01*
X17357141Y-65374819D02*
X17452379Y-65374819D01*
X18214284Y-65327200D02*
X18119046Y-65374819D01*
X18119046Y-65374819D02*
X17928570Y-65374819D01*
X17928570Y-65374819D02*
X17833332Y-65327200D01*
X17833332Y-65327200D02*
X17785713Y-65279580D01*
X17785713Y-65279580D02*
X17738094Y-65184342D01*
X17738094Y-65184342D02*
X17738094Y-64898628D01*
X17738094Y-64898628D02*
X17785713Y-64803390D01*
X17785713Y-64803390D02*
X17833332Y-64755771D01*
X17833332Y-64755771D02*
X17928570Y-64708152D01*
X17928570Y-64708152D02*
X18119046Y-64708152D01*
X18119046Y-64708152D02*
X18214284Y-64755771D01*
X18642856Y-65374819D02*
X18642856Y-64374819D01*
X19071427Y-65374819D02*
X19071427Y-64851009D01*
X19071427Y-64851009D02*
X19023808Y-64755771D01*
X19023808Y-64755771D02*
X18928570Y-64708152D01*
X18928570Y-64708152D02*
X18785713Y-64708152D01*
X18785713Y-64708152D02*
X18690475Y-64755771D01*
X18690475Y-64755771D02*
X18642856Y-64803390D01*
X19928570Y-65327200D02*
X19833332Y-65374819D01*
X19833332Y-65374819D02*
X19642856Y-65374819D01*
X19642856Y-65374819D02*
X19547618Y-65327200D01*
X19547618Y-65327200D02*
X19499999Y-65231961D01*
X19499999Y-65231961D02*
X19499999Y-64851009D01*
X19499999Y-64851009D02*
X19547618Y-64755771D01*
X19547618Y-64755771D02*
X19642856Y-64708152D01*
X19642856Y-64708152D02*
X19833332Y-64708152D01*
X19833332Y-64708152D02*
X19928570Y-64755771D01*
X19928570Y-64755771D02*
X19976189Y-64851009D01*
X19976189Y-64851009D02*
X19976189Y-64946247D01*
X19976189Y-64946247D02*
X19499999Y-65041485D01*
X20833332Y-65374819D02*
X20833332Y-64374819D01*
X20833332Y-65327200D02*
X20738094Y-65374819D01*
X20738094Y-65374819D02*
X20547618Y-65374819D01*
X20547618Y-65374819D02*
X20452380Y-65327200D01*
X20452380Y-65327200D02*
X20404761Y-65279580D01*
X20404761Y-65279580D02*
X20357142Y-65184342D01*
X20357142Y-65184342D02*
X20357142Y-64898628D01*
X20357142Y-64898628D02*
X20404761Y-64803390D01*
X20404761Y-64803390D02*
X20452380Y-64755771D01*
X20452380Y-64755771D02*
X20547618Y-64708152D01*
X20547618Y-64708152D02*
X20738094Y-64708152D01*
X20738094Y-64708152D02*
X20833332Y-64755771D01*
X22071428Y-65374819D02*
X22071428Y-64374819D01*
X22071428Y-64374819D02*
X22309523Y-64374819D01*
X22309523Y-64374819D02*
X22452380Y-64422438D01*
X22452380Y-64422438D02*
X22547618Y-64517676D01*
X22547618Y-64517676D02*
X22595237Y-64612914D01*
X22595237Y-64612914D02*
X22642856Y-64803390D01*
X22642856Y-64803390D02*
X22642856Y-64946247D01*
X22642856Y-64946247D02*
X22595237Y-65136723D01*
X22595237Y-65136723D02*
X22547618Y-65231961D01*
X22547618Y-65231961D02*
X22452380Y-65327200D01*
X22452380Y-65327200D02*
X22309523Y-65374819D01*
X22309523Y-65374819D02*
X22071428Y-65374819D01*
X23642856Y-65279580D02*
X23595237Y-65327200D01*
X23595237Y-65327200D02*
X23452380Y-65374819D01*
X23452380Y-65374819D02*
X23357142Y-65374819D01*
X23357142Y-65374819D02*
X23214285Y-65327200D01*
X23214285Y-65327200D02*
X23119047Y-65231961D01*
X23119047Y-65231961D02*
X23071428Y-65136723D01*
X23071428Y-65136723D02*
X23023809Y-64946247D01*
X23023809Y-64946247D02*
X23023809Y-64803390D01*
X23023809Y-64803390D02*
X23071428Y-64612914D01*
X23071428Y-64612914D02*
X23119047Y-64517676D01*
X23119047Y-64517676D02*
X23214285Y-64422438D01*
X23214285Y-64422438D02*
X23357142Y-64374819D01*
X23357142Y-64374819D02*
X23452380Y-64374819D01*
X23452380Y-64374819D02*
X23595237Y-64422438D01*
X23595237Y-64422438D02*
X23642856Y-64470057D01*
X25023809Y-64374819D02*
X25214285Y-64374819D01*
X25214285Y-64374819D02*
X25309523Y-64422438D01*
X25309523Y-64422438D02*
X25404761Y-64517676D01*
X25404761Y-64517676D02*
X25452380Y-64708152D01*
X25452380Y-64708152D02*
X25452380Y-65041485D01*
X25452380Y-65041485D02*
X25404761Y-65231961D01*
X25404761Y-65231961D02*
X25309523Y-65327200D01*
X25309523Y-65327200D02*
X25214285Y-65374819D01*
X25214285Y-65374819D02*
X25023809Y-65374819D01*
X25023809Y-65374819D02*
X24928571Y-65327200D01*
X24928571Y-65327200D02*
X24833333Y-65231961D01*
X24833333Y-65231961D02*
X24785714Y-65041485D01*
X24785714Y-65041485D02*
X24785714Y-64708152D01*
X24785714Y-64708152D02*
X24833333Y-64517676D01*
X24833333Y-64517676D02*
X24928571Y-64422438D01*
X24928571Y-64422438D02*
X25023809Y-64374819D01*
X26309523Y-64708152D02*
X26309523Y-65374819D01*
X25880952Y-64708152D02*
X25880952Y-65231961D01*
X25880952Y-65231961D02*
X25928571Y-65327200D01*
X25928571Y-65327200D02*
X26023809Y-65374819D01*
X26023809Y-65374819D02*
X26166666Y-65374819D01*
X26166666Y-65374819D02*
X26261904Y-65327200D01*
X26261904Y-65327200D02*
X26309523Y-65279580D01*
X26642857Y-64708152D02*
X27023809Y-64708152D01*
X26785714Y-64374819D02*
X26785714Y-65231961D01*
X26785714Y-65231961D02*
X26833333Y-65327200D01*
X26833333Y-65327200D02*
X26928571Y-65374819D01*
X26928571Y-65374819D02*
X27023809Y-65374819D01*
X27357143Y-64708152D02*
X27357143Y-65708152D01*
X27357143Y-64755771D02*
X27452381Y-64708152D01*
X27452381Y-64708152D02*
X27642857Y-64708152D01*
X27642857Y-64708152D02*
X27738095Y-64755771D01*
X27738095Y-64755771D02*
X27785714Y-64803390D01*
X27785714Y-64803390D02*
X27833333Y-64898628D01*
X27833333Y-64898628D02*
X27833333Y-65184342D01*
X27833333Y-65184342D02*
X27785714Y-65279580D01*
X27785714Y-65279580D02*
X27738095Y-65327200D01*
X27738095Y-65327200D02*
X27642857Y-65374819D01*
X27642857Y-65374819D02*
X27452381Y-65374819D01*
X27452381Y-65374819D02*
X27357143Y-65327200D01*
X28690476Y-64708152D02*
X28690476Y-65374819D01*
X28261905Y-64708152D02*
X28261905Y-65231961D01*
X28261905Y-65231961D02*
X28309524Y-65327200D01*
X28309524Y-65327200D02*
X28404762Y-65374819D01*
X28404762Y-65374819D02*
X28547619Y-65374819D01*
X28547619Y-65374819D02*
X28642857Y-65327200D01*
X28642857Y-65327200D02*
X28690476Y-65279580D01*
X29023810Y-64708152D02*
X29404762Y-64708152D01*
X29166667Y-64374819D02*
X29166667Y-65231961D01*
X29166667Y-65231961D02*
X29214286Y-65327200D01*
X29214286Y-65327200D02*
X29309524Y-65374819D01*
X29309524Y-65374819D02*
X29404762Y-65374819D01*
X21454819Y-61603333D02*
X22169104Y-61603333D01*
X22169104Y-61603333D02*
X22311961Y-61650952D01*
X22311961Y-61650952D02*
X22407200Y-61746190D01*
X22407200Y-61746190D02*
X22454819Y-61889047D01*
X22454819Y-61889047D02*
X22454819Y-61984285D01*
X21454819Y-60650952D02*
X21454819Y-61127142D01*
X21454819Y-61127142D02*
X21931009Y-61174761D01*
X21931009Y-61174761D02*
X21883390Y-61127142D01*
X21883390Y-61127142D02*
X21835771Y-61031904D01*
X21835771Y-61031904D02*
X21835771Y-60793809D01*
X21835771Y-60793809D02*
X21883390Y-60698571D01*
X21883390Y-60698571D02*
X21931009Y-60650952D01*
X21931009Y-60650952D02*
X22026247Y-60603333D01*
X22026247Y-60603333D02*
X22264342Y-60603333D01*
X22264342Y-60603333D02*
X22359580Y-60650952D01*
X22359580Y-60650952D02*
X22407200Y-60698571D01*
X22407200Y-60698571D02*
X22454819Y-60793809D01*
X22454819Y-60793809D02*
X22454819Y-61031904D01*
X22454819Y-61031904D02*
X22407200Y-61127142D01*
X22407200Y-61127142D02*
X22359580Y-61174761D01*
X4547618Y-43054819D02*
X4214285Y-42578628D01*
X3976190Y-43054819D02*
X3976190Y-42054819D01*
X3976190Y-42054819D02*
X4357142Y-42054819D01*
X4357142Y-42054819D02*
X4452380Y-42102438D01*
X4452380Y-42102438D02*
X4499999Y-42150057D01*
X4499999Y-42150057D02*
X4547618Y-42245295D01*
X4547618Y-42245295D02*
X4547618Y-42388152D01*
X4547618Y-42388152D02*
X4499999Y-42483390D01*
X4499999Y-42483390D02*
X4452380Y-42531009D01*
X4452380Y-42531009D02*
X4357142Y-42578628D01*
X4357142Y-42578628D02*
X3976190Y-42578628D01*
X4976190Y-42531009D02*
X5309523Y-42531009D01*
X5452380Y-43054819D02*
X4976190Y-43054819D01*
X4976190Y-43054819D02*
X4976190Y-42054819D01*
X4976190Y-42054819D02*
X5452380Y-42054819D01*
X5833333Y-43007200D02*
X5976190Y-43054819D01*
X5976190Y-43054819D02*
X6214285Y-43054819D01*
X6214285Y-43054819D02*
X6309523Y-43007200D01*
X6309523Y-43007200D02*
X6357142Y-42959580D01*
X6357142Y-42959580D02*
X6404761Y-42864342D01*
X6404761Y-42864342D02*
X6404761Y-42769104D01*
X6404761Y-42769104D02*
X6357142Y-42673866D01*
X6357142Y-42673866D02*
X6309523Y-42626247D01*
X6309523Y-42626247D02*
X6214285Y-42578628D01*
X6214285Y-42578628D02*
X6023809Y-42531009D01*
X6023809Y-42531009D02*
X5928571Y-42483390D01*
X5928571Y-42483390D02*
X5880952Y-42435771D01*
X5880952Y-42435771D02*
X5833333Y-42340533D01*
X5833333Y-42340533D02*
X5833333Y-42245295D01*
X5833333Y-42245295D02*
X5880952Y-42150057D01*
X5880952Y-42150057D02*
X5928571Y-42102438D01*
X5928571Y-42102438D02*
X6023809Y-42054819D01*
X6023809Y-42054819D02*
X6261904Y-42054819D01*
X6261904Y-42054819D02*
X6404761Y-42102438D01*
X6833333Y-42531009D02*
X7166666Y-42531009D01*
X7309523Y-43054819D02*
X6833333Y-43054819D01*
X6833333Y-43054819D02*
X6833333Y-42054819D01*
X6833333Y-42054819D02*
X7309523Y-42054819D01*
X7595238Y-42054819D02*
X8166666Y-42054819D01*
X7880952Y-43054819D02*
X7880952Y-42054819D01*
D11*
X5199999Y-40244320D02*
X5285714Y-40272891D01*
X5285714Y-40272891D02*
X5428571Y-40272891D01*
X5428571Y-40272891D02*
X5485714Y-40244320D01*
X5485714Y-40244320D02*
X5514285Y-40215748D01*
X5514285Y-40215748D02*
X5542856Y-40158605D01*
X5542856Y-40158605D02*
X5542856Y-40101462D01*
X5542856Y-40101462D02*
X5514285Y-40044320D01*
X5514285Y-40044320D02*
X5485714Y-40015748D01*
X5485714Y-40015748D02*
X5428571Y-39987177D01*
X5428571Y-39987177D02*
X5314285Y-39958605D01*
X5314285Y-39958605D02*
X5257142Y-39930034D01*
X5257142Y-39930034D02*
X5228571Y-39901462D01*
X5228571Y-39901462D02*
X5199999Y-39844320D01*
X5199999Y-39844320D02*
X5199999Y-39787177D01*
X5199999Y-39787177D02*
X5228571Y-39730034D01*
X5228571Y-39730034D02*
X5257142Y-39701462D01*
X5257142Y-39701462D02*
X5314285Y-39672891D01*
X5314285Y-39672891D02*
X5457142Y-39672891D01*
X5457142Y-39672891D02*
X5542856Y-39701462D01*
X5742857Y-39672891D02*
X5885714Y-40272891D01*
X5885714Y-40272891D02*
X6000000Y-39844320D01*
X6000000Y-39844320D02*
X6114285Y-40272891D01*
X6114285Y-40272891D02*
X6257143Y-39672891D01*
X6799999Y-40272891D02*
X6457142Y-40272891D01*
X6628571Y-40272891D02*
X6628571Y-39672891D01*
X6628571Y-39672891D02*
X6571428Y-39758605D01*
X6571428Y-39758605D02*
X6514285Y-39815748D01*
X6514285Y-39815748D02*
X6457142Y-39844320D01*
D10*
X69666667Y-76454819D02*
X69666667Y-75454819D01*
X69666667Y-75454819D02*
X70000000Y-76169104D01*
X70000000Y-76169104D02*
X70333333Y-75454819D01*
X70333333Y-75454819D02*
X70333333Y-76454819D01*
X70809524Y-76454819D02*
X70809524Y-75454819D01*
X70809524Y-75931009D02*
X71380952Y-75931009D01*
X71380952Y-76454819D02*
X71380952Y-75454819D01*
X72285714Y-75788152D02*
X72285714Y-76454819D01*
X72047619Y-75407200D02*
X71809524Y-76121485D01*
X71809524Y-76121485D02*
X72428571Y-76121485D01*
X28785714Y-39157200D02*
X28928571Y-39204819D01*
X28928571Y-39204819D02*
X29166666Y-39204819D01*
X29166666Y-39204819D02*
X29261904Y-39157200D01*
X29261904Y-39157200D02*
X29309523Y-39109580D01*
X29309523Y-39109580D02*
X29357142Y-39014342D01*
X29357142Y-39014342D02*
X29357142Y-38919104D01*
X29357142Y-38919104D02*
X29309523Y-38823866D01*
X29309523Y-38823866D02*
X29261904Y-38776247D01*
X29261904Y-38776247D02*
X29166666Y-38728628D01*
X29166666Y-38728628D02*
X28976190Y-38681009D01*
X28976190Y-38681009D02*
X28880952Y-38633390D01*
X28880952Y-38633390D02*
X28833333Y-38585771D01*
X28833333Y-38585771D02*
X28785714Y-38490533D01*
X28785714Y-38490533D02*
X28785714Y-38395295D01*
X28785714Y-38395295D02*
X28833333Y-38300057D01*
X28833333Y-38300057D02*
X28880952Y-38252438D01*
X28880952Y-38252438D02*
X28976190Y-38204819D01*
X28976190Y-38204819D02*
X29214285Y-38204819D01*
X29214285Y-38204819D02*
X29357142Y-38252438D01*
X29785714Y-39204819D02*
X29785714Y-38204819D01*
X29785714Y-38204819D02*
X30023809Y-38204819D01*
X30023809Y-38204819D02*
X30166666Y-38252438D01*
X30166666Y-38252438D02*
X30261904Y-38347676D01*
X30261904Y-38347676D02*
X30309523Y-38442914D01*
X30309523Y-38442914D02*
X30357142Y-38633390D01*
X30357142Y-38633390D02*
X30357142Y-38776247D01*
X30357142Y-38776247D02*
X30309523Y-38966723D01*
X30309523Y-38966723D02*
X30261904Y-39061961D01*
X30261904Y-39061961D02*
X30166666Y-39157200D01*
X30166666Y-39157200D02*
X30023809Y-39204819D01*
X30023809Y-39204819D02*
X29785714Y-39204819D01*
X30738095Y-38919104D02*
X31214285Y-38919104D01*
X30642857Y-39204819D02*
X30976190Y-38204819D01*
X30976190Y-38204819D02*
X31309523Y-39204819D01*
X28738095Y-34804819D02*
X29309523Y-34804819D01*
X29023809Y-35804819D02*
X29023809Y-34804819D01*
X29642857Y-35804819D02*
X29642857Y-34804819D01*
X29642857Y-34804819D02*
X30023809Y-34804819D01*
X30023809Y-34804819D02*
X30119047Y-34852438D01*
X30119047Y-34852438D02*
X30166666Y-34900057D01*
X30166666Y-34900057D02*
X30214285Y-34995295D01*
X30214285Y-34995295D02*
X30214285Y-35138152D01*
X30214285Y-35138152D02*
X30166666Y-35233390D01*
X30166666Y-35233390D02*
X30119047Y-35281009D01*
X30119047Y-35281009D02*
X30023809Y-35328628D01*
X30023809Y-35328628D02*
X29642857Y-35328628D01*
X30547619Y-34804819D02*
X31214285Y-34804819D01*
X31214285Y-34804819D02*
X30785714Y-35804819D01*
X24071428Y-35204819D02*
X24071428Y-35919104D01*
X24071428Y-35919104D02*
X24023809Y-36061961D01*
X24023809Y-36061961D02*
X23928571Y-36157200D01*
X23928571Y-36157200D02*
X23785714Y-36204819D01*
X23785714Y-36204819D02*
X23690476Y-36204819D01*
X24404762Y-35204819D02*
X24976190Y-35204819D01*
X24690476Y-36204819D02*
X24690476Y-35204819D01*
X25261905Y-35919104D02*
X25738095Y-35919104D01*
X25166667Y-36204819D02*
X25500000Y-35204819D01*
X25500000Y-35204819D02*
X25833333Y-36204819D01*
X26690476Y-35252438D02*
X26595238Y-35204819D01*
X26595238Y-35204819D02*
X26452381Y-35204819D01*
X26452381Y-35204819D02*
X26309524Y-35252438D01*
X26309524Y-35252438D02*
X26214286Y-35347676D01*
X26214286Y-35347676D02*
X26166667Y-35442914D01*
X26166667Y-35442914D02*
X26119048Y-35633390D01*
X26119048Y-35633390D02*
X26119048Y-35776247D01*
X26119048Y-35776247D02*
X26166667Y-35966723D01*
X26166667Y-35966723D02*
X26214286Y-36061961D01*
X26214286Y-36061961D02*
X26309524Y-36157200D01*
X26309524Y-36157200D02*
X26452381Y-36204819D01*
X26452381Y-36204819D02*
X26547619Y-36204819D01*
X26547619Y-36204819D02*
X26690476Y-36157200D01*
X26690476Y-36157200D02*
X26738095Y-36109580D01*
X26738095Y-36109580D02*
X26738095Y-35776247D01*
X26738095Y-35776247D02*
X26547619Y-35776247D01*
X26928572Y-36300057D02*
X27690476Y-36300057D01*
X27785715Y-35204819D02*
X28357143Y-35204819D01*
X28071429Y-36204819D02*
X28071429Y-35204819D01*
X29261905Y-36109580D02*
X29214286Y-36157200D01*
X29214286Y-36157200D02*
X29071429Y-36204819D01*
X29071429Y-36204819D02*
X28976191Y-36204819D01*
X28976191Y-36204819D02*
X28833334Y-36157200D01*
X28833334Y-36157200D02*
X28738096Y-36061961D01*
X28738096Y-36061961D02*
X28690477Y-35966723D01*
X28690477Y-35966723D02*
X28642858Y-35776247D01*
X28642858Y-35776247D02*
X28642858Y-35633390D01*
X28642858Y-35633390D02*
X28690477Y-35442914D01*
X28690477Y-35442914D02*
X28738096Y-35347676D01*
X28738096Y-35347676D02*
X28833334Y-35252438D01*
X28833334Y-35252438D02*
X28976191Y-35204819D01*
X28976191Y-35204819D02*
X29071429Y-35204819D01*
X29071429Y-35204819D02*
X29214286Y-35252438D01*
X29214286Y-35252438D02*
X29261905Y-35300057D01*
X29690477Y-36204819D02*
X29690477Y-35204819D01*
X30261905Y-36204819D02*
X29833334Y-35633390D01*
X30261905Y-35204819D02*
X29690477Y-35776247D01*
X25738095Y-31804819D02*
X26309523Y-31804819D01*
X26023809Y-32804819D02*
X26023809Y-31804819D01*
X26642857Y-32804819D02*
X26642857Y-31804819D01*
X26642857Y-31804819D02*
X27023809Y-31804819D01*
X27023809Y-31804819D02*
X27119047Y-31852438D01*
X27119047Y-31852438D02*
X27166666Y-31900057D01*
X27166666Y-31900057D02*
X27214285Y-31995295D01*
X27214285Y-31995295D02*
X27214285Y-32138152D01*
X27214285Y-32138152D02*
X27166666Y-32233390D01*
X27166666Y-32233390D02*
X27119047Y-32281009D01*
X27119047Y-32281009D02*
X27023809Y-32328628D01*
X27023809Y-32328628D02*
X26642857Y-32328628D01*
X27595238Y-31900057D02*
X27642857Y-31852438D01*
X27642857Y-31852438D02*
X27738095Y-31804819D01*
X27738095Y-31804819D02*
X27976190Y-31804819D01*
X27976190Y-31804819D02*
X28071428Y-31852438D01*
X28071428Y-31852438D02*
X28119047Y-31900057D01*
X28119047Y-31900057D02*
X28166666Y-31995295D01*
X28166666Y-31995295D02*
X28166666Y-32090533D01*
X28166666Y-32090533D02*
X28119047Y-32233390D01*
X28119047Y-32233390D02*
X27547619Y-32804819D01*
X27547619Y-32804819D02*
X28166666Y-32804819D01*
X37619047Y-46381009D02*
X37761904Y-46428628D01*
X37761904Y-46428628D02*
X37809523Y-46476247D01*
X37809523Y-46476247D02*
X37857142Y-46571485D01*
X37857142Y-46571485D02*
X37857142Y-46714342D01*
X37857142Y-46714342D02*
X37809523Y-46809580D01*
X37809523Y-46809580D02*
X37761904Y-46857200D01*
X37761904Y-46857200D02*
X37666666Y-46904819D01*
X37666666Y-46904819D02*
X37285714Y-46904819D01*
X37285714Y-46904819D02*
X37285714Y-45904819D01*
X37285714Y-45904819D02*
X37619047Y-45904819D01*
X37619047Y-45904819D02*
X37714285Y-45952438D01*
X37714285Y-45952438D02*
X37761904Y-46000057D01*
X37761904Y-46000057D02*
X37809523Y-46095295D01*
X37809523Y-46095295D02*
X37809523Y-46190533D01*
X37809523Y-46190533D02*
X37761904Y-46285771D01*
X37761904Y-46285771D02*
X37714285Y-46333390D01*
X37714285Y-46333390D02*
X37619047Y-46381009D01*
X37619047Y-46381009D02*
X37285714Y-46381009D01*
X38285714Y-46904819D02*
X38285714Y-45904819D01*
X38285714Y-45904819D02*
X38619047Y-46619104D01*
X38619047Y-46619104D02*
X38952380Y-45904819D01*
X38952380Y-45904819D02*
X38952380Y-46904819D01*
X39428571Y-46381009D02*
X39761904Y-46381009D01*
X39904761Y-46904819D02*
X39428571Y-46904819D01*
X39428571Y-46904819D02*
X39428571Y-45904819D01*
X39428571Y-45904819D02*
X39904761Y-45904819D01*
X40761904Y-45904819D02*
X40571428Y-45904819D01*
X40571428Y-45904819D02*
X40476190Y-45952438D01*
X40476190Y-45952438D02*
X40428571Y-46000057D01*
X40428571Y-46000057D02*
X40333333Y-46142914D01*
X40333333Y-46142914D02*
X40285714Y-46333390D01*
X40285714Y-46333390D02*
X40285714Y-46714342D01*
X40285714Y-46714342D02*
X40333333Y-46809580D01*
X40333333Y-46809580D02*
X40380952Y-46857200D01*
X40380952Y-46857200D02*
X40476190Y-46904819D01*
X40476190Y-46904819D02*
X40666666Y-46904819D01*
X40666666Y-46904819D02*
X40761904Y-46857200D01*
X40761904Y-46857200D02*
X40809523Y-46809580D01*
X40809523Y-46809580D02*
X40857142Y-46714342D01*
X40857142Y-46714342D02*
X40857142Y-46476247D01*
X40857142Y-46476247D02*
X40809523Y-46381009D01*
X40809523Y-46381009D02*
X40761904Y-46333390D01*
X40761904Y-46333390D02*
X40666666Y-46285771D01*
X40666666Y-46285771D02*
X40476190Y-46285771D01*
X40476190Y-46285771D02*
X40380952Y-46333390D01*
X40380952Y-46333390D02*
X40333333Y-46381009D01*
X40333333Y-46381009D02*
X40285714Y-46476247D01*
X41428571Y-46333390D02*
X41333333Y-46285771D01*
X41333333Y-46285771D02*
X41285714Y-46238152D01*
X41285714Y-46238152D02*
X41238095Y-46142914D01*
X41238095Y-46142914D02*
X41238095Y-46095295D01*
X41238095Y-46095295D02*
X41285714Y-46000057D01*
X41285714Y-46000057D02*
X41333333Y-45952438D01*
X41333333Y-45952438D02*
X41428571Y-45904819D01*
X41428571Y-45904819D02*
X41619047Y-45904819D01*
X41619047Y-45904819D02*
X41714285Y-45952438D01*
X41714285Y-45952438D02*
X41761904Y-46000057D01*
X41761904Y-46000057D02*
X41809523Y-46095295D01*
X41809523Y-46095295D02*
X41809523Y-46142914D01*
X41809523Y-46142914D02*
X41761904Y-46238152D01*
X41761904Y-46238152D02*
X41714285Y-46285771D01*
X41714285Y-46285771D02*
X41619047Y-46333390D01*
X41619047Y-46333390D02*
X41428571Y-46333390D01*
X41428571Y-46333390D02*
X41333333Y-46381009D01*
X41333333Y-46381009D02*
X41285714Y-46428628D01*
X41285714Y-46428628D02*
X41238095Y-46523866D01*
X41238095Y-46523866D02*
X41238095Y-46714342D01*
X41238095Y-46714342D02*
X41285714Y-46809580D01*
X41285714Y-46809580D02*
X41333333Y-46857200D01*
X41333333Y-46857200D02*
X41428571Y-46904819D01*
X41428571Y-46904819D02*
X41619047Y-46904819D01*
X41619047Y-46904819D02*
X41714285Y-46857200D01*
X41714285Y-46857200D02*
X41761904Y-46809580D01*
X41761904Y-46809580D02*
X41809523Y-46714342D01*
X41809523Y-46714342D02*
X41809523Y-46523866D01*
X41809523Y-46523866D02*
X41761904Y-46428628D01*
X41761904Y-46428628D02*
X41714285Y-46381009D01*
X41714285Y-46381009D02*
X41619047Y-46333390D01*
X42428571Y-45904819D02*
X42523809Y-45904819D01*
X42523809Y-45904819D02*
X42619047Y-45952438D01*
X42619047Y-45952438D02*
X42666666Y-46000057D01*
X42666666Y-46000057D02*
X42714285Y-46095295D01*
X42714285Y-46095295D02*
X42761904Y-46285771D01*
X42761904Y-46285771D02*
X42761904Y-46523866D01*
X42761904Y-46523866D02*
X42714285Y-46714342D01*
X42714285Y-46714342D02*
X42666666Y-46809580D01*
X42666666Y-46809580D02*
X42619047Y-46857200D01*
X42619047Y-46857200D02*
X42523809Y-46904819D01*
X42523809Y-46904819D02*
X42428571Y-46904819D01*
X42428571Y-46904819D02*
X42333333Y-46857200D01*
X42333333Y-46857200D02*
X42285714Y-46809580D01*
X42285714Y-46809580D02*
X42238095Y-46714342D01*
X42238095Y-46714342D02*
X42190476Y-46523866D01*
X42190476Y-46523866D02*
X42190476Y-46285771D01*
X42190476Y-46285771D02*
X42238095Y-46095295D01*
X42238095Y-46095295D02*
X42285714Y-46000057D01*
X42285714Y-46000057D02*
X42333333Y-45952438D01*
X42333333Y-45952438D02*
X42428571Y-45904819D01*
D12*
X39428571Y-43591244D02*
X39428571Y-44198387D01*
X39428571Y-44198387D02*
X39464285Y-44269815D01*
X39464285Y-44269815D02*
X39500000Y-44305530D01*
X39500000Y-44305530D02*
X39571428Y-44341244D01*
X39571428Y-44341244D02*
X39714285Y-44341244D01*
X39714285Y-44341244D02*
X39785714Y-44305530D01*
X39785714Y-44305530D02*
X39821428Y-44269815D01*
X39821428Y-44269815D02*
X39857142Y-44198387D01*
X39857142Y-44198387D02*
X39857142Y-43591244D01*
X40571428Y-43591244D02*
X40214285Y-43591244D01*
X40214285Y-43591244D02*
X40178571Y-43948387D01*
X40178571Y-43948387D02*
X40214285Y-43912672D01*
X40214285Y-43912672D02*
X40285714Y-43876958D01*
X40285714Y-43876958D02*
X40464285Y-43876958D01*
X40464285Y-43876958D02*
X40535714Y-43912672D01*
X40535714Y-43912672D02*
X40571428Y-43948387D01*
X40571428Y-43948387D02*
X40607142Y-44019815D01*
X40607142Y-44019815D02*
X40607142Y-44198387D01*
X40607142Y-44198387D02*
X40571428Y-44269815D01*
X40571428Y-44269815D02*
X40535714Y-44305530D01*
X40535714Y-44305530D02*
X40464285Y-44341244D01*
X40464285Y-44341244D02*
X40285714Y-44341244D01*
X40285714Y-44341244D02*
X40214285Y-44305530D01*
X40214285Y-44305530D02*
X40178571Y-44269815D01*
D10*
X19047619Y-52457200D02*
X19190476Y-52504819D01*
X19190476Y-52504819D02*
X19428571Y-52504819D01*
X19428571Y-52504819D02*
X19523809Y-52457200D01*
X19523809Y-52457200D02*
X19571428Y-52409580D01*
X19571428Y-52409580D02*
X19619047Y-52314342D01*
X19619047Y-52314342D02*
X19619047Y-52219104D01*
X19619047Y-52219104D02*
X19571428Y-52123866D01*
X19571428Y-52123866D02*
X19523809Y-52076247D01*
X19523809Y-52076247D02*
X19428571Y-52028628D01*
X19428571Y-52028628D02*
X19238095Y-51981009D01*
X19238095Y-51981009D02*
X19142857Y-51933390D01*
X19142857Y-51933390D02*
X19095238Y-51885771D01*
X19095238Y-51885771D02*
X19047619Y-51790533D01*
X19047619Y-51790533D02*
X19047619Y-51695295D01*
X19047619Y-51695295D02*
X19095238Y-51600057D01*
X19095238Y-51600057D02*
X19142857Y-51552438D01*
X19142857Y-51552438D02*
X19238095Y-51504819D01*
X19238095Y-51504819D02*
X19476190Y-51504819D01*
X19476190Y-51504819D02*
X19619047Y-51552438D01*
X20619047Y-52409580D02*
X20571428Y-52457200D01*
X20571428Y-52457200D02*
X20428571Y-52504819D01*
X20428571Y-52504819D02*
X20333333Y-52504819D01*
X20333333Y-52504819D02*
X20190476Y-52457200D01*
X20190476Y-52457200D02*
X20095238Y-52361961D01*
X20095238Y-52361961D02*
X20047619Y-52266723D01*
X20047619Y-52266723D02*
X20000000Y-52076247D01*
X20000000Y-52076247D02*
X20000000Y-51933390D01*
X20000000Y-51933390D02*
X20047619Y-51742914D01*
X20047619Y-51742914D02*
X20095238Y-51647676D01*
X20095238Y-51647676D02*
X20190476Y-51552438D01*
X20190476Y-51552438D02*
X20333333Y-51504819D01*
X20333333Y-51504819D02*
X20428571Y-51504819D01*
X20428571Y-51504819D02*
X20571428Y-51552438D01*
X20571428Y-51552438D02*
X20619047Y-51600057D01*
X21047619Y-52504819D02*
X21047619Y-51504819D01*
X21047619Y-51504819D02*
X21285714Y-51504819D01*
X21285714Y-51504819D02*
X21428571Y-51552438D01*
X21428571Y-51552438D02*
X21523809Y-51647676D01*
X21523809Y-51647676D02*
X21571428Y-51742914D01*
X21571428Y-51742914D02*
X21619047Y-51933390D01*
X21619047Y-51933390D02*
X21619047Y-52076247D01*
X21619047Y-52076247D02*
X21571428Y-52266723D01*
X21571428Y-52266723D02*
X21523809Y-52361961D01*
X21523809Y-52361961D02*
X21428571Y-52457200D01*
X21428571Y-52457200D02*
X21285714Y-52504819D01*
X21285714Y-52504819D02*
X21047619Y-52504819D01*
X22476190Y-51838152D02*
X22476190Y-52504819D01*
X22238095Y-51457200D02*
X22000000Y-52171485D01*
X22000000Y-52171485D02*
X22619047Y-52171485D01*
X23523809Y-52504819D02*
X22952381Y-52504819D01*
X23238095Y-52504819D02*
X23238095Y-51504819D01*
X23238095Y-51504819D02*
X23142857Y-51647676D01*
X23142857Y-51647676D02*
X23047619Y-51742914D01*
X23047619Y-51742914D02*
X22952381Y-51790533D01*
X23952381Y-52123866D02*
X24714286Y-52123866D01*
X25190476Y-52504819D02*
X25190476Y-51504819D01*
X25190476Y-51504819D02*
X25428571Y-51504819D01*
X25428571Y-51504819D02*
X25571428Y-51552438D01*
X25571428Y-51552438D02*
X25666666Y-51647676D01*
X25666666Y-51647676D02*
X25714285Y-51742914D01*
X25714285Y-51742914D02*
X25761904Y-51933390D01*
X25761904Y-51933390D02*
X25761904Y-52076247D01*
X25761904Y-52076247D02*
X25714285Y-52266723D01*
X25714285Y-52266723D02*
X25666666Y-52361961D01*
X25666666Y-52361961D02*
X25571428Y-52457200D01*
X25571428Y-52457200D02*
X25428571Y-52504819D01*
X25428571Y-52504819D02*
X25190476Y-52504819D01*
X26190476Y-52123866D02*
X26952381Y-52123866D01*
X27999999Y-52504819D02*
X27666666Y-52028628D01*
X27428571Y-52504819D02*
X27428571Y-51504819D01*
X27428571Y-51504819D02*
X27809523Y-51504819D01*
X27809523Y-51504819D02*
X27904761Y-51552438D01*
X27904761Y-51552438D02*
X27952380Y-51600057D01*
X27952380Y-51600057D02*
X27999999Y-51695295D01*
X27999999Y-51695295D02*
X27999999Y-51838152D01*
X27999999Y-51838152D02*
X27952380Y-51933390D01*
X27952380Y-51933390D02*
X27904761Y-51981009D01*
X27904761Y-51981009D02*
X27809523Y-52028628D01*
X27809523Y-52028628D02*
X27428571Y-52028628D01*
X28380952Y-51600057D02*
X28428571Y-51552438D01*
X28428571Y-51552438D02*
X28523809Y-51504819D01*
X28523809Y-51504819D02*
X28761904Y-51504819D01*
X28761904Y-51504819D02*
X28857142Y-51552438D01*
X28857142Y-51552438D02*
X28904761Y-51600057D01*
X28904761Y-51600057D02*
X28952380Y-51695295D01*
X28952380Y-51695295D02*
X28952380Y-51790533D01*
X28952380Y-51790533D02*
X28904761Y-51933390D01*
X28904761Y-51933390D02*
X28333333Y-52504819D01*
X28333333Y-52504819D02*
X28952380Y-52504819D01*
X23238095Y-45454819D02*
X23238095Y-46264342D01*
X23238095Y-46264342D02*
X23285714Y-46359580D01*
X23285714Y-46359580D02*
X23333333Y-46407200D01*
X23333333Y-46407200D02*
X23428571Y-46454819D01*
X23428571Y-46454819D02*
X23619047Y-46454819D01*
X23619047Y-46454819D02*
X23714285Y-46407200D01*
X23714285Y-46407200D02*
X23761904Y-46359580D01*
X23761904Y-46359580D02*
X23809523Y-46264342D01*
X23809523Y-46264342D02*
X23809523Y-45454819D01*
X24714285Y-45788152D02*
X24714285Y-46454819D01*
X24476190Y-45407200D02*
X24238095Y-46121485D01*
X24238095Y-46121485D02*
X24857142Y-46121485D01*
X10642857Y-42531009D02*
X10785714Y-42578628D01*
X10785714Y-42578628D02*
X10833333Y-42626247D01*
X10833333Y-42626247D02*
X10880952Y-42721485D01*
X10880952Y-42721485D02*
X10880952Y-42864342D01*
X10880952Y-42864342D02*
X10833333Y-42959580D01*
X10833333Y-42959580D02*
X10785714Y-43007200D01*
X10785714Y-43007200D02*
X10690476Y-43054819D01*
X10690476Y-43054819D02*
X10309524Y-43054819D01*
X10309524Y-43054819D02*
X10309524Y-42054819D01*
X10309524Y-42054819D02*
X10642857Y-42054819D01*
X10642857Y-42054819D02*
X10738095Y-42102438D01*
X10738095Y-42102438D02*
X10785714Y-42150057D01*
X10785714Y-42150057D02*
X10833333Y-42245295D01*
X10833333Y-42245295D02*
X10833333Y-42340533D01*
X10833333Y-42340533D02*
X10785714Y-42435771D01*
X10785714Y-42435771D02*
X10738095Y-42483390D01*
X10738095Y-42483390D02*
X10642857Y-42531009D01*
X10642857Y-42531009D02*
X10309524Y-42531009D01*
X11500000Y-42054819D02*
X11690476Y-42054819D01*
X11690476Y-42054819D02*
X11785714Y-42102438D01*
X11785714Y-42102438D02*
X11880952Y-42197676D01*
X11880952Y-42197676D02*
X11928571Y-42388152D01*
X11928571Y-42388152D02*
X11928571Y-42721485D01*
X11928571Y-42721485D02*
X11880952Y-42911961D01*
X11880952Y-42911961D02*
X11785714Y-43007200D01*
X11785714Y-43007200D02*
X11690476Y-43054819D01*
X11690476Y-43054819D02*
X11500000Y-43054819D01*
X11500000Y-43054819D02*
X11404762Y-43007200D01*
X11404762Y-43007200D02*
X11309524Y-42911961D01*
X11309524Y-42911961D02*
X11261905Y-42721485D01*
X11261905Y-42721485D02*
X11261905Y-42388152D01*
X11261905Y-42388152D02*
X11309524Y-42197676D01*
X11309524Y-42197676D02*
X11404762Y-42102438D01*
X11404762Y-42102438D02*
X11500000Y-42054819D01*
X12547619Y-42054819D02*
X12738095Y-42054819D01*
X12738095Y-42054819D02*
X12833333Y-42102438D01*
X12833333Y-42102438D02*
X12928571Y-42197676D01*
X12928571Y-42197676D02*
X12976190Y-42388152D01*
X12976190Y-42388152D02*
X12976190Y-42721485D01*
X12976190Y-42721485D02*
X12928571Y-42911961D01*
X12928571Y-42911961D02*
X12833333Y-43007200D01*
X12833333Y-43007200D02*
X12738095Y-43054819D01*
X12738095Y-43054819D02*
X12547619Y-43054819D01*
X12547619Y-43054819D02*
X12452381Y-43007200D01*
X12452381Y-43007200D02*
X12357143Y-42911961D01*
X12357143Y-42911961D02*
X12309524Y-42721485D01*
X12309524Y-42721485D02*
X12309524Y-42388152D01*
X12309524Y-42388152D02*
X12357143Y-42197676D01*
X12357143Y-42197676D02*
X12452381Y-42102438D01*
X12452381Y-42102438D02*
X12547619Y-42054819D01*
X13261905Y-42054819D02*
X13833333Y-42054819D01*
X13547619Y-43054819D02*
X13547619Y-42054819D01*
D11*
X11199999Y-40244320D02*
X11285714Y-40272891D01*
X11285714Y-40272891D02*
X11428571Y-40272891D01*
X11428571Y-40272891D02*
X11485714Y-40244320D01*
X11485714Y-40244320D02*
X11514285Y-40215748D01*
X11514285Y-40215748D02*
X11542856Y-40158605D01*
X11542856Y-40158605D02*
X11542856Y-40101462D01*
X11542856Y-40101462D02*
X11514285Y-40044320D01*
X11514285Y-40044320D02*
X11485714Y-40015748D01*
X11485714Y-40015748D02*
X11428571Y-39987177D01*
X11428571Y-39987177D02*
X11314285Y-39958605D01*
X11314285Y-39958605D02*
X11257142Y-39930034D01*
X11257142Y-39930034D02*
X11228571Y-39901462D01*
X11228571Y-39901462D02*
X11199999Y-39844320D01*
X11199999Y-39844320D02*
X11199999Y-39787177D01*
X11199999Y-39787177D02*
X11228571Y-39730034D01*
X11228571Y-39730034D02*
X11257142Y-39701462D01*
X11257142Y-39701462D02*
X11314285Y-39672891D01*
X11314285Y-39672891D02*
X11457142Y-39672891D01*
X11457142Y-39672891D02*
X11542856Y-39701462D01*
X11742857Y-39672891D02*
X11885714Y-40272891D01*
X11885714Y-40272891D02*
X12000000Y-39844320D01*
X12000000Y-39844320D02*
X12114285Y-40272891D01*
X12114285Y-40272891D02*
X12257143Y-39672891D01*
X12457142Y-39730034D02*
X12485714Y-39701462D01*
X12485714Y-39701462D02*
X12542857Y-39672891D01*
X12542857Y-39672891D02*
X12685714Y-39672891D01*
X12685714Y-39672891D02*
X12742857Y-39701462D01*
X12742857Y-39701462D02*
X12771428Y-39730034D01*
X12771428Y-39730034D02*
X12799999Y-39787177D01*
X12799999Y-39787177D02*
X12799999Y-39844320D01*
X12799999Y-39844320D02*
X12771428Y-39930034D01*
X12771428Y-39930034D02*
X12428571Y-40272891D01*
X12428571Y-40272891D02*
X12799999Y-40272891D01*
D10*
X2666667Y-4454819D02*
X2666667Y-3454819D01*
X2666667Y-3454819D02*
X3000000Y-4169104D01*
X3000000Y-4169104D02*
X3333333Y-3454819D01*
X3333333Y-3454819D02*
X3333333Y-4454819D01*
X3809524Y-4454819D02*
X3809524Y-3454819D01*
X3809524Y-3931009D02*
X4380952Y-3931009D01*
X4380952Y-4454819D02*
X4380952Y-3454819D01*
X5380952Y-4454819D02*
X4809524Y-4454819D01*
X5095238Y-4454819D02*
X5095238Y-3454819D01*
X5095238Y-3454819D02*
X5000000Y-3597676D01*
X5000000Y-3597676D02*
X4904762Y-3692914D01*
X4904762Y-3692914D02*
X4809524Y-3740533D01*
X35000000Y-39204819D02*
X35000000Y-38204819D01*
X35666666Y-38204819D02*
X35857142Y-38204819D01*
X35857142Y-38204819D02*
X35952380Y-38252438D01*
X35952380Y-38252438D02*
X36047618Y-38347676D01*
X36047618Y-38347676D02*
X36095237Y-38538152D01*
X36095237Y-38538152D02*
X36095237Y-38871485D01*
X36095237Y-38871485D02*
X36047618Y-39061961D01*
X36047618Y-39061961D02*
X35952380Y-39157200D01*
X35952380Y-39157200D02*
X35857142Y-39204819D01*
X35857142Y-39204819D02*
X35666666Y-39204819D01*
X35666666Y-39204819D02*
X35571428Y-39157200D01*
X35571428Y-39157200D02*
X35476190Y-39061961D01*
X35476190Y-39061961D02*
X35428571Y-38871485D01*
X35428571Y-38871485D02*
X35428571Y-38538152D01*
X35428571Y-38538152D02*
X35476190Y-38347676D01*
X35476190Y-38347676D02*
X35571428Y-38252438D01*
X35571428Y-38252438D02*
X35666666Y-38204819D01*
X36714285Y-38204819D02*
X36809523Y-38204819D01*
X36809523Y-38204819D02*
X36904761Y-38252438D01*
X36904761Y-38252438D02*
X36952380Y-38300057D01*
X36952380Y-38300057D02*
X36999999Y-38395295D01*
X36999999Y-38395295D02*
X37047618Y-38585771D01*
X37047618Y-38585771D02*
X37047618Y-38823866D01*
X37047618Y-38823866D02*
X36999999Y-39014342D01*
X36999999Y-39014342D02*
X36952380Y-39109580D01*
X36952380Y-39109580D02*
X36904761Y-39157200D01*
X36904761Y-39157200D02*
X36809523Y-39204819D01*
X36809523Y-39204819D02*
X36714285Y-39204819D01*
X36714285Y-39204819D02*
X36619047Y-39157200D01*
X36619047Y-39157200D02*
X36571428Y-39109580D01*
X36571428Y-39109580D02*
X36523809Y-39014342D01*
X36523809Y-39014342D02*
X36476190Y-38823866D01*
X36476190Y-38823866D02*
X36476190Y-38585771D01*
X36476190Y-38585771D02*
X36523809Y-38395295D01*
X36523809Y-38395295D02*
X36571428Y-38300057D01*
X36571428Y-38300057D02*
X36619047Y-38252438D01*
X36619047Y-38252438D02*
X36714285Y-38204819D01*
X34261905Y-34804819D02*
X34833333Y-34804819D01*
X34547619Y-35804819D02*
X34547619Y-34804819D01*
X35166667Y-35804819D02*
X35166667Y-34804819D01*
X35166667Y-34804819D02*
X35547619Y-34804819D01*
X35547619Y-34804819D02*
X35642857Y-34852438D01*
X35642857Y-34852438D02*
X35690476Y-34900057D01*
X35690476Y-34900057D02*
X35738095Y-34995295D01*
X35738095Y-34995295D02*
X35738095Y-35138152D01*
X35738095Y-35138152D02*
X35690476Y-35233390D01*
X35690476Y-35233390D02*
X35642857Y-35281009D01*
X35642857Y-35281009D02*
X35547619Y-35328628D01*
X35547619Y-35328628D02*
X35166667Y-35328628D01*
X36690476Y-35804819D02*
X36119048Y-35804819D01*
X36404762Y-35804819D02*
X36404762Y-34804819D01*
X36404762Y-34804819D02*
X36309524Y-34947676D01*
X36309524Y-34947676D02*
X36214286Y-35042914D01*
X36214286Y-35042914D02*
X36119048Y-35090533D01*
X37309524Y-34804819D02*
X37404762Y-34804819D01*
X37404762Y-34804819D02*
X37500000Y-34852438D01*
X37500000Y-34852438D02*
X37547619Y-34900057D01*
X37547619Y-34900057D02*
X37595238Y-34995295D01*
X37595238Y-34995295D02*
X37642857Y-35185771D01*
X37642857Y-35185771D02*
X37642857Y-35423866D01*
X37642857Y-35423866D02*
X37595238Y-35614342D01*
X37595238Y-35614342D02*
X37547619Y-35709580D01*
X37547619Y-35709580D02*
X37500000Y-35757200D01*
X37500000Y-35757200D02*
X37404762Y-35804819D01*
X37404762Y-35804819D02*
X37309524Y-35804819D01*
X37309524Y-35804819D02*
X37214286Y-35757200D01*
X37214286Y-35757200D02*
X37166667Y-35709580D01*
X37166667Y-35709580D02*
X37119048Y-35614342D01*
X37119048Y-35614342D02*
X37071429Y-35423866D01*
X37071429Y-35423866D02*
X37071429Y-35185771D01*
X37071429Y-35185771D02*
X37119048Y-34995295D01*
X37119048Y-34995295D02*
X37166667Y-34900057D01*
X37166667Y-34900057D02*
X37214286Y-34852438D01*
X37214286Y-34852438D02*
X37309524Y-34804819D01*
X21554819Y-11380951D02*
X22364342Y-11380951D01*
X22364342Y-11380951D02*
X22459580Y-11333332D01*
X22459580Y-11333332D02*
X22507200Y-11285713D01*
X22507200Y-11285713D02*
X22554819Y-11190475D01*
X22554819Y-11190475D02*
X22554819Y-10999999D01*
X22554819Y-10999999D02*
X22507200Y-10904761D01*
X22507200Y-10904761D02*
X22459580Y-10857142D01*
X22459580Y-10857142D02*
X22364342Y-10809523D01*
X22364342Y-10809523D02*
X21554819Y-10809523D01*
X22507200Y-10380951D02*
X22554819Y-10238094D01*
X22554819Y-10238094D02*
X22554819Y-9999999D01*
X22554819Y-9999999D02*
X22507200Y-9904761D01*
X22507200Y-9904761D02*
X22459580Y-9857142D01*
X22459580Y-9857142D02*
X22364342Y-9809523D01*
X22364342Y-9809523D02*
X22269104Y-9809523D01*
X22269104Y-9809523D02*
X22173866Y-9857142D01*
X22173866Y-9857142D02*
X22126247Y-9904761D01*
X22126247Y-9904761D02*
X22078628Y-9999999D01*
X22078628Y-9999999D02*
X22031009Y-10190475D01*
X22031009Y-10190475D02*
X21983390Y-10285713D01*
X21983390Y-10285713D02*
X21935771Y-10333332D01*
X21935771Y-10333332D02*
X21840533Y-10380951D01*
X21840533Y-10380951D02*
X21745295Y-10380951D01*
X21745295Y-10380951D02*
X21650057Y-10333332D01*
X21650057Y-10333332D02*
X21602438Y-10285713D01*
X21602438Y-10285713D02*
X21554819Y-10190475D01*
X21554819Y-10190475D02*
X21554819Y-9952380D01*
X21554819Y-9952380D02*
X21602438Y-9809523D01*
X22031009Y-9047618D02*
X22078628Y-8904761D01*
X22078628Y-8904761D02*
X22126247Y-8857142D01*
X22126247Y-8857142D02*
X22221485Y-8809523D01*
X22221485Y-8809523D02*
X22364342Y-8809523D01*
X22364342Y-8809523D02*
X22459580Y-8857142D01*
X22459580Y-8857142D02*
X22507200Y-8904761D01*
X22507200Y-8904761D02*
X22554819Y-8999999D01*
X22554819Y-8999999D02*
X22554819Y-9380951D01*
X22554819Y-9380951D02*
X21554819Y-9380951D01*
X21554819Y-9380951D02*
X21554819Y-9047618D01*
X21554819Y-9047618D02*
X21602438Y-8952380D01*
X21602438Y-8952380D02*
X21650057Y-8904761D01*
X21650057Y-8904761D02*
X21745295Y-8857142D01*
X21745295Y-8857142D02*
X21840533Y-8857142D01*
X21840533Y-8857142D02*
X21935771Y-8904761D01*
X21935771Y-8904761D02*
X21983390Y-8952380D01*
X21983390Y-8952380D02*
X22031009Y-9047618D01*
X22031009Y-9047618D02*
X22031009Y-9380951D01*
X22173866Y-8380951D02*
X22173866Y-7619047D01*
X22459580Y-6571428D02*
X22507200Y-6619047D01*
X22507200Y-6619047D02*
X22554819Y-6761904D01*
X22554819Y-6761904D02*
X22554819Y-6857142D01*
X22554819Y-6857142D02*
X22507200Y-6999999D01*
X22507200Y-6999999D02*
X22411961Y-7095237D01*
X22411961Y-7095237D02*
X22316723Y-7142856D01*
X22316723Y-7142856D02*
X22126247Y-7190475D01*
X22126247Y-7190475D02*
X21983390Y-7190475D01*
X21983390Y-7190475D02*
X21792914Y-7142856D01*
X21792914Y-7142856D02*
X21697676Y-7095237D01*
X21697676Y-7095237D02*
X21602438Y-6999999D01*
X21602438Y-6999999D02*
X21554819Y-6857142D01*
X21554819Y-6857142D02*
X21554819Y-6761904D01*
X21554819Y-6761904D02*
X21602438Y-6619047D01*
X21602438Y-6619047D02*
X21650057Y-6571428D01*
X16454819Y-9333333D02*
X17169104Y-9333333D01*
X17169104Y-9333333D02*
X17311961Y-9380952D01*
X17311961Y-9380952D02*
X17407200Y-9476190D01*
X17407200Y-9476190D02*
X17454819Y-9619047D01*
X17454819Y-9619047D02*
X17454819Y-9714285D01*
X17454819Y-8333333D02*
X17454819Y-8904761D01*
X17454819Y-8619047D02*
X16454819Y-8619047D01*
X16454819Y-8619047D02*
X16597676Y-8714285D01*
X16597676Y-8714285D02*
X16692914Y-8809523D01*
X16692914Y-8809523D02*
X16740533Y-8904761D01*
X30690476Y-12569104D02*
X31166666Y-12569104D01*
X30595238Y-12854819D02*
X30928571Y-11854819D01*
X30928571Y-11854819D02*
X31261904Y-12854819D01*
X31595238Y-12854819D02*
X31595238Y-11854819D01*
X31595238Y-11854819D02*
X31976190Y-11854819D01*
X31976190Y-11854819D02*
X32071428Y-11902438D01*
X32071428Y-11902438D02*
X32119047Y-11950057D01*
X32119047Y-11950057D02*
X32166666Y-12045295D01*
X32166666Y-12045295D02*
X32166666Y-12188152D01*
X32166666Y-12188152D02*
X32119047Y-12283390D01*
X32119047Y-12283390D02*
X32071428Y-12331009D01*
X32071428Y-12331009D02*
X31976190Y-12378628D01*
X31976190Y-12378628D02*
X31595238Y-12378628D01*
X33023809Y-11854819D02*
X32833333Y-11854819D01*
X32833333Y-11854819D02*
X32738095Y-11902438D01*
X32738095Y-11902438D02*
X32690476Y-11950057D01*
X32690476Y-11950057D02*
X32595238Y-12092914D01*
X32595238Y-12092914D02*
X32547619Y-12283390D01*
X32547619Y-12283390D02*
X32547619Y-12664342D01*
X32547619Y-12664342D02*
X32595238Y-12759580D01*
X32595238Y-12759580D02*
X32642857Y-12807200D01*
X32642857Y-12807200D02*
X32738095Y-12854819D01*
X32738095Y-12854819D02*
X32928571Y-12854819D01*
X32928571Y-12854819D02*
X33023809Y-12807200D01*
X33023809Y-12807200D02*
X33071428Y-12759580D01*
X33071428Y-12759580D02*
X33119047Y-12664342D01*
X33119047Y-12664342D02*
X33119047Y-12426247D01*
X33119047Y-12426247D02*
X33071428Y-12331009D01*
X33071428Y-12331009D02*
X33023809Y-12283390D01*
X33023809Y-12283390D02*
X32928571Y-12235771D01*
X32928571Y-12235771D02*
X32738095Y-12235771D01*
X32738095Y-12235771D02*
X32642857Y-12283390D01*
X32642857Y-12283390D02*
X32595238Y-12331009D01*
X32595238Y-12331009D02*
X32547619Y-12426247D01*
X33452381Y-11854819D02*
X34071428Y-11854819D01*
X34071428Y-11854819D02*
X33738095Y-12235771D01*
X33738095Y-12235771D02*
X33880952Y-12235771D01*
X33880952Y-12235771D02*
X33976190Y-12283390D01*
X33976190Y-12283390D02*
X34023809Y-12331009D01*
X34023809Y-12331009D02*
X34071428Y-12426247D01*
X34071428Y-12426247D02*
X34071428Y-12664342D01*
X34071428Y-12664342D02*
X34023809Y-12759580D01*
X34023809Y-12759580D02*
X33976190Y-12807200D01*
X33976190Y-12807200D02*
X33880952Y-12854819D01*
X33880952Y-12854819D02*
X33595238Y-12854819D01*
X33595238Y-12854819D02*
X33500000Y-12807200D01*
X33500000Y-12807200D02*
X33452381Y-12759580D01*
X34452381Y-11950057D02*
X34500000Y-11902438D01*
X34500000Y-11902438D02*
X34595238Y-11854819D01*
X34595238Y-11854819D02*
X34833333Y-11854819D01*
X34833333Y-11854819D02*
X34928571Y-11902438D01*
X34928571Y-11902438D02*
X34976190Y-11950057D01*
X34976190Y-11950057D02*
X35023809Y-12045295D01*
X35023809Y-12045295D02*
X35023809Y-12140533D01*
X35023809Y-12140533D02*
X34976190Y-12283390D01*
X34976190Y-12283390D02*
X34404762Y-12854819D01*
X34404762Y-12854819D02*
X35023809Y-12854819D01*
X35642857Y-11854819D02*
X35738095Y-11854819D01*
X35738095Y-11854819D02*
X35833333Y-11902438D01*
X35833333Y-11902438D02*
X35880952Y-11950057D01*
X35880952Y-11950057D02*
X35928571Y-12045295D01*
X35928571Y-12045295D02*
X35976190Y-12235771D01*
X35976190Y-12235771D02*
X35976190Y-12473866D01*
X35976190Y-12473866D02*
X35928571Y-12664342D01*
X35928571Y-12664342D02*
X35880952Y-12759580D01*
X35880952Y-12759580D02*
X35833333Y-12807200D01*
X35833333Y-12807200D02*
X35738095Y-12854819D01*
X35738095Y-12854819D02*
X35642857Y-12854819D01*
X35642857Y-12854819D02*
X35547619Y-12807200D01*
X35547619Y-12807200D02*
X35500000Y-12759580D01*
X35500000Y-12759580D02*
X35452381Y-12664342D01*
X35452381Y-12664342D02*
X35404762Y-12473866D01*
X35404762Y-12473866D02*
X35404762Y-12235771D01*
X35404762Y-12235771D02*
X35452381Y-12045295D01*
X35452381Y-12045295D02*
X35500000Y-11950057D01*
X35500000Y-11950057D02*
X35547619Y-11902438D01*
X35547619Y-11902438D02*
X35642857Y-11854819D01*
X36309524Y-11854819D02*
X36928571Y-11854819D01*
X36928571Y-11854819D02*
X36595238Y-12235771D01*
X36595238Y-12235771D02*
X36738095Y-12235771D01*
X36738095Y-12235771D02*
X36833333Y-12283390D01*
X36833333Y-12283390D02*
X36880952Y-12331009D01*
X36880952Y-12331009D02*
X36928571Y-12426247D01*
X36928571Y-12426247D02*
X36928571Y-12664342D01*
X36928571Y-12664342D02*
X36880952Y-12759580D01*
X36880952Y-12759580D02*
X36833333Y-12807200D01*
X36833333Y-12807200D02*
X36738095Y-12854819D01*
X36738095Y-12854819D02*
X36452381Y-12854819D01*
X36452381Y-12854819D02*
X36357143Y-12807200D01*
X36357143Y-12807200D02*
X36309524Y-12759580D01*
X37261905Y-11854819D02*
X37500000Y-12854819D01*
X37500000Y-12854819D02*
X37690476Y-12140533D01*
X37690476Y-12140533D02*
X37880952Y-12854819D01*
X37880952Y-12854819D02*
X38119048Y-11854819D01*
X38500000Y-11854819D02*
X38500000Y-12664342D01*
X38500000Y-12664342D02*
X38547619Y-12759580D01*
X38547619Y-12759580D02*
X38595238Y-12807200D01*
X38595238Y-12807200D02*
X38690476Y-12854819D01*
X38690476Y-12854819D02*
X38880952Y-12854819D01*
X38880952Y-12854819D02*
X38976190Y-12807200D01*
X38976190Y-12807200D02*
X39023809Y-12759580D01*
X39023809Y-12759580D02*
X39071428Y-12664342D01*
X39071428Y-12664342D02*
X39071428Y-11854819D01*
X39547619Y-12473866D02*
X40309524Y-12473866D01*
X40690476Y-11854819D02*
X41357142Y-11854819D01*
X41357142Y-11854819D02*
X40928571Y-12854819D01*
D12*
X35607365Y-10548571D02*
X36190222Y-10548571D01*
X36190222Y-10548571D02*
X36258794Y-10514285D01*
X36258794Y-10514285D02*
X36293080Y-10480000D01*
X36293080Y-10480000D02*
X36327365Y-10411428D01*
X36327365Y-10411428D02*
X36327365Y-10274285D01*
X36327365Y-10274285D02*
X36293080Y-10205714D01*
X36293080Y-10205714D02*
X36258794Y-10171428D01*
X36258794Y-10171428D02*
X36190222Y-10137142D01*
X36190222Y-10137142D02*
X35607365Y-10137142D01*
X35675937Y-9828571D02*
X35641651Y-9794285D01*
X35641651Y-9794285D02*
X35607365Y-9725714D01*
X35607365Y-9725714D02*
X35607365Y-9554285D01*
X35607365Y-9554285D02*
X35641651Y-9485714D01*
X35641651Y-9485714D02*
X35675937Y-9451428D01*
X35675937Y-9451428D02*
X35744508Y-9417142D01*
X35744508Y-9417142D02*
X35813080Y-9417142D01*
X35813080Y-9417142D02*
X35915937Y-9451428D01*
X35915937Y-9451428D02*
X36327365Y-9862856D01*
X36327365Y-9862856D02*
X36327365Y-9417142D01*
D10*
X50976191Y-40431009D02*
X51309524Y-40431009D01*
X51452381Y-40954819D02*
X50976191Y-40954819D01*
X50976191Y-40954819D02*
X50976191Y-39954819D01*
X50976191Y-39954819D02*
X51452381Y-39954819D01*
X51833334Y-40907200D02*
X51976191Y-40954819D01*
X51976191Y-40954819D02*
X52214286Y-40954819D01*
X52214286Y-40954819D02*
X52309524Y-40907200D01*
X52309524Y-40907200D02*
X52357143Y-40859580D01*
X52357143Y-40859580D02*
X52404762Y-40764342D01*
X52404762Y-40764342D02*
X52404762Y-40669104D01*
X52404762Y-40669104D02*
X52357143Y-40573866D01*
X52357143Y-40573866D02*
X52309524Y-40526247D01*
X52309524Y-40526247D02*
X52214286Y-40478628D01*
X52214286Y-40478628D02*
X52023810Y-40431009D01*
X52023810Y-40431009D02*
X51928572Y-40383390D01*
X51928572Y-40383390D02*
X51880953Y-40335771D01*
X51880953Y-40335771D02*
X51833334Y-40240533D01*
X51833334Y-40240533D02*
X51833334Y-40145295D01*
X51833334Y-40145295D02*
X51880953Y-40050057D01*
X51880953Y-40050057D02*
X51928572Y-40002438D01*
X51928572Y-40002438D02*
X52023810Y-39954819D01*
X52023810Y-39954819D02*
X52261905Y-39954819D01*
X52261905Y-39954819D02*
X52404762Y-40002438D01*
X52833334Y-40954819D02*
X52833334Y-39954819D01*
X52833334Y-39954819D02*
X53214286Y-39954819D01*
X53214286Y-39954819D02*
X53309524Y-40002438D01*
X53309524Y-40002438D02*
X53357143Y-40050057D01*
X53357143Y-40050057D02*
X53404762Y-40145295D01*
X53404762Y-40145295D02*
X53404762Y-40288152D01*
X53404762Y-40288152D02*
X53357143Y-40383390D01*
X53357143Y-40383390D02*
X53309524Y-40431009D01*
X53309524Y-40431009D02*
X53214286Y-40478628D01*
X53214286Y-40478628D02*
X52833334Y-40478628D01*
X53738096Y-39954819D02*
X54357143Y-39954819D01*
X54357143Y-39954819D02*
X54023810Y-40335771D01*
X54023810Y-40335771D02*
X54166667Y-40335771D01*
X54166667Y-40335771D02*
X54261905Y-40383390D01*
X54261905Y-40383390D02*
X54309524Y-40431009D01*
X54309524Y-40431009D02*
X54357143Y-40526247D01*
X54357143Y-40526247D02*
X54357143Y-40764342D01*
X54357143Y-40764342D02*
X54309524Y-40859580D01*
X54309524Y-40859580D02*
X54261905Y-40907200D01*
X54261905Y-40907200D02*
X54166667Y-40954819D01*
X54166667Y-40954819D02*
X53880953Y-40954819D01*
X53880953Y-40954819D02*
X53785715Y-40907200D01*
X53785715Y-40907200D02*
X53738096Y-40859580D01*
X54738096Y-40050057D02*
X54785715Y-40002438D01*
X54785715Y-40002438D02*
X54880953Y-39954819D01*
X54880953Y-39954819D02*
X55119048Y-39954819D01*
X55119048Y-39954819D02*
X55214286Y-40002438D01*
X55214286Y-40002438D02*
X55261905Y-40050057D01*
X55261905Y-40050057D02*
X55309524Y-40145295D01*
X55309524Y-40145295D02*
X55309524Y-40240533D01*
X55309524Y-40240533D02*
X55261905Y-40383390D01*
X55261905Y-40383390D02*
X54690477Y-40954819D01*
X54690477Y-40954819D02*
X55309524Y-40954819D01*
X55738096Y-40573866D02*
X56500001Y-40573866D01*
X56880953Y-39954819D02*
X57119048Y-40954819D01*
X57119048Y-40954819D02*
X57309524Y-40240533D01*
X57309524Y-40240533D02*
X57500000Y-40954819D01*
X57500000Y-40954819D02*
X57738096Y-39954819D01*
X58690476Y-40954819D02*
X58357143Y-40478628D01*
X58119048Y-40954819D02*
X58119048Y-39954819D01*
X58119048Y-39954819D02*
X58500000Y-39954819D01*
X58500000Y-39954819D02*
X58595238Y-40002438D01*
X58595238Y-40002438D02*
X58642857Y-40050057D01*
X58642857Y-40050057D02*
X58690476Y-40145295D01*
X58690476Y-40145295D02*
X58690476Y-40288152D01*
X58690476Y-40288152D02*
X58642857Y-40383390D01*
X58642857Y-40383390D02*
X58595238Y-40431009D01*
X58595238Y-40431009D02*
X58500000Y-40478628D01*
X58500000Y-40478628D02*
X58119048Y-40478628D01*
X59309524Y-39954819D02*
X59500000Y-39954819D01*
X59500000Y-39954819D02*
X59595238Y-40002438D01*
X59595238Y-40002438D02*
X59690476Y-40097676D01*
X59690476Y-40097676D02*
X59738095Y-40288152D01*
X59738095Y-40288152D02*
X59738095Y-40621485D01*
X59738095Y-40621485D02*
X59690476Y-40811961D01*
X59690476Y-40811961D02*
X59595238Y-40907200D01*
X59595238Y-40907200D02*
X59500000Y-40954819D01*
X59500000Y-40954819D02*
X59309524Y-40954819D01*
X59309524Y-40954819D02*
X59214286Y-40907200D01*
X59214286Y-40907200D02*
X59119048Y-40811961D01*
X59119048Y-40811961D02*
X59071429Y-40621485D01*
X59071429Y-40621485D02*
X59071429Y-40288152D01*
X59071429Y-40288152D02*
X59119048Y-40097676D01*
X59119048Y-40097676D02*
X59214286Y-40002438D01*
X59214286Y-40002438D02*
X59309524Y-39954819D01*
X60357143Y-39954819D02*
X60547619Y-39954819D01*
X60547619Y-39954819D02*
X60642857Y-40002438D01*
X60642857Y-40002438D02*
X60738095Y-40097676D01*
X60738095Y-40097676D02*
X60785714Y-40288152D01*
X60785714Y-40288152D02*
X60785714Y-40621485D01*
X60785714Y-40621485D02*
X60738095Y-40811961D01*
X60738095Y-40811961D02*
X60642857Y-40907200D01*
X60642857Y-40907200D02*
X60547619Y-40954819D01*
X60547619Y-40954819D02*
X60357143Y-40954819D01*
X60357143Y-40954819D02*
X60261905Y-40907200D01*
X60261905Y-40907200D02*
X60166667Y-40811961D01*
X60166667Y-40811961D02*
X60119048Y-40621485D01*
X60119048Y-40621485D02*
X60119048Y-40288152D01*
X60119048Y-40288152D02*
X60166667Y-40097676D01*
X60166667Y-40097676D02*
X60261905Y-40002438D01*
X60261905Y-40002438D02*
X60357143Y-39954819D01*
X61214286Y-40954819D02*
X61214286Y-39954819D01*
X61214286Y-39954819D02*
X61547619Y-40669104D01*
X61547619Y-40669104D02*
X61880952Y-39954819D01*
X61880952Y-39954819D02*
X61880952Y-40954819D01*
X62357143Y-40573866D02*
X63119048Y-40573866D01*
X63500000Y-39954819D02*
X64119047Y-39954819D01*
X64119047Y-39954819D02*
X63785714Y-40335771D01*
X63785714Y-40335771D02*
X63928571Y-40335771D01*
X63928571Y-40335771D02*
X64023809Y-40383390D01*
X64023809Y-40383390D02*
X64071428Y-40431009D01*
X64071428Y-40431009D02*
X64119047Y-40526247D01*
X64119047Y-40526247D02*
X64119047Y-40764342D01*
X64119047Y-40764342D02*
X64071428Y-40859580D01*
X64071428Y-40859580D02*
X64023809Y-40907200D01*
X64023809Y-40907200D02*
X63928571Y-40954819D01*
X63928571Y-40954819D02*
X63642857Y-40954819D01*
X63642857Y-40954819D02*
X63547619Y-40907200D01*
X63547619Y-40907200D02*
X63500000Y-40859580D01*
X64500000Y-40050057D02*
X64547619Y-40002438D01*
X64547619Y-40002438D02*
X64642857Y-39954819D01*
X64642857Y-39954819D02*
X64880952Y-39954819D01*
X64880952Y-39954819D02*
X64976190Y-40002438D01*
X64976190Y-40002438D02*
X65023809Y-40050057D01*
X65023809Y-40050057D02*
X65071428Y-40145295D01*
X65071428Y-40145295D02*
X65071428Y-40240533D01*
X65071428Y-40240533D02*
X65023809Y-40383390D01*
X65023809Y-40383390D02*
X64452381Y-40954819D01*
X64452381Y-40954819D02*
X65071428Y-40954819D01*
X57238095Y-28454819D02*
X57238095Y-29264342D01*
X57238095Y-29264342D02*
X57285714Y-29359580D01*
X57285714Y-29359580D02*
X57333333Y-29407200D01*
X57333333Y-29407200D02*
X57428571Y-29454819D01*
X57428571Y-29454819D02*
X57619047Y-29454819D01*
X57619047Y-29454819D02*
X57714285Y-29407200D01*
X57714285Y-29407200D02*
X57761904Y-29359580D01*
X57761904Y-29359580D02*
X57809523Y-29264342D01*
X57809523Y-29264342D02*
X57809523Y-28454819D01*
X58190476Y-28454819D02*
X58809523Y-28454819D01*
X58809523Y-28454819D02*
X58476190Y-28835771D01*
X58476190Y-28835771D02*
X58619047Y-28835771D01*
X58619047Y-28835771D02*
X58714285Y-28883390D01*
X58714285Y-28883390D02*
X58761904Y-28931009D01*
X58761904Y-28931009D02*
X58809523Y-29026247D01*
X58809523Y-29026247D02*
X58809523Y-29264342D01*
X58809523Y-29264342D02*
X58761904Y-29359580D01*
X58761904Y-29359580D02*
X58714285Y-29407200D01*
X58714285Y-29407200D02*
X58619047Y-29454819D01*
X58619047Y-29454819D02*
X58333333Y-29454819D01*
X58333333Y-29454819D02*
X58238095Y-29407200D01*
X58238095Y-29407200D02*
X58190476Y-29359580D01*
X47047619Y-48131009D02*
X47190476Y-48178628D01*
X47190476Y-48178628D02*
X47238095Y-48226247D01*
X47238095Y-48226247D02*
X47285714Y-48321485D01*
X47285714Y-48321485D02*
X47285714Y-48464342D01*
X47285714Y-48464342D02*
X47238095Y-48559580D01*
X47238095Y-48559580D02*
X47190476Y-48607200D01*
X47190476Y-48607200D02*
X47095238Y-48654819D01*
X47095238Y-48654819D02*
X46714286Y-48654819D01*
X46714286Y-48654819D02*
X46714286Y-47654819D01*
X46714286Y-47654819D02*
X47047619Y-47654819D01*
X47047619Y-47654819D02*
X47142857Y-47702438D01*
X47142857Y-47702438D02*
X47190476Y-47750057D01*
X47190476Y-47750057D02*
X47238095Y-47845295D01*
X47238095Y-47845295D02*
X47238095Y-47940533D01*
X47238095Y-47940533D02*
X47190476Y-48035771D01*
X47190476Y-48035771D02*
X47142857Y-48083390D01*
X47142857Y-48083390D02*
X47047619Y-48131009D01*
X47047619Y-48131009D02*
X46714286Y-48131009D01*
X47714286Y-48654819D02*
X47714286Y-47654819D01*
X47714286Y-48131009D02*
X48285714Y-48131009D01*
X48285714Y-48654819D02*
X48285714Y-47654819D01*
X49285714Y-48654819D02*
X48714286Y-48654819D01*
X49000000Y-48654819D02*
X49000000Y-47654819D01*
X49000000Y-47654819D02*
X48904762Y-47797676D01*
X48904762Y-47797676D02*
X48809524Y-47892914D01*
X48809524Y-47892914D02*
X48714286Y-47940533D01*
X49619048Y-47654819D02*
X50285714Y-47654819D01*
X50285714Y-47654819D02*
X49857143Y-48654819D01*
X51142857Y-47654819D02*
X50666667Y-47654819D01*
X50666667Y-47654819D02*
X50619048Y-48131009D01*
X50619048Y-48131009D02*
X50666667Y-48083390D01*
X50666667Y-48083390D02*
X50761905Y-48035771D01*
X50761905Y-48035771D02*
X51000000Y-48035771D01*
X51000000Y-48035771D02*
X51095238Y-48083390D01*
X51095238Y-48083390D02*
X51142857Y-48131009D01*
X51142857Y-48131009D02*
X51190476Y-48226247D01*
X51190476Y-48226247D02*
X51190476Y-48464342D01*
X51190476Y-48464342D02*
X51142857Y-48559580D01*
X51142857Y-48559580D02*
X51095238Y-48607200D01*
X51095238Y-48607200D02*
X51000000Y-48654819D01*
X51000000Y-48654819D02*
X50761905Y-48654819D01*
X50761905Y-48654819D02*
X50666667Y-48607200D01*
X50666667Y-48607200D02*
X50619048Y-48559580D01*
X51809524Y-47654819D02*
X51904762Y-47654819D01*
X51904762Y-47654819D02*
X52000000Y-47702438D01*
X52000000Y-47702438D02*
X52047619Y-47750057D01*
X52047619Y-47750057D02*
X52095238Y-47845295D01*
X52095238Y-47845295D02*
X52142857Y-48035771D01*
X52142857Y-48035771D02*
X52142857Y-48273866D01*
X52142857Y-48273866D02*
X52095238Y-48464342D01*
X52095238Y-48464342D02*
X52047619Y-48559580D01*
X52047619Y-48559580D02*
X52000000Y-48607200D01*
X52000000Y-48607200D02*
X51904762Y-48654819D01*
X51904762Y-48654819D02*
X51809524Y-48654819D01*
X51809524Y-48654819D02*
X51714286Y-48607200D01*
X51714286Y-48607200D02*
X51666667Y-48559580D01*
X51666667Y-48559580D02*
X51619048Y-48464342D01*
X51619048Y-48464342D02*
X51571429Y-48273866D01*
X51571429Y-48273866D02*
X51571429Y-48035771D01*
X51571429Y-48035771D02*
X51619048Y-47845295D01*
X51619048Y-47845295D02*
X51666667Y-47750057D01*
X51666667Y-47750057D02*
X51714286Y-47702438D01*
X51714286Y-47702438D02*
X51809524Y-47654819D01*
X52904762Y-48131009D02*
X52571429Y-48131009D01*
X52571429Y-48654819D02*
X52571429Y-47654819D01*
X52571429Y-47654819D02*
X53047619Y-47654819D01*
X53285715Y-47654819D02*
X53619048Y-48654819D01*
X53619048Y-48654819D02*
X53952381Y-47654819D01*
X54285715Y-48654819D02*
X54285715Y-47654819D01*
X54761905Y-48273866D02*
X55523810Y-48273866D01*
X55857143Y-47654819D02*
X56428571Y-47654819D01*
X56142857Y-48654819D02*
X56142857Y-47654819D01*
X57333333Y-48654819D02*
X57000000Y-48178628D01*
X56761905Y-48654819D02*
X56761905Y-47654819D01*
X56761905Y-47654819D02*
X57142857Y-47654819D01*
X57142857Y-47654819D02*
X57238095Y-47702438D01*
X57238095Y-47702438D02*
X57285714Y-47750057D01*
X57285714Y-47750057D02*
X57333333Y-47845295D01*
X57333333Y-47845295D02*
X57333333Y-47988152D01*
X57333333Y-47988152D02*
X57285714Y-48083390D01*
X57285714Y-48083390D02*
X57238095Y-48131009D01*
X57238095Y-48131009D02*
X57142857Y-48178628D01*
X57142857Y-48178628D02*
X56761905Y-48178628D01*
X22238095Y-38823866D02*
X23000000Y-38823866D01*
X22619047Y-39204819D02*
X22619047Y-38442914D01*
X23380952Y-38204819D02*
X23999999Y-38204819D01*
X23999999Y-38204819D02*
X23666666Y-38585771D01*
X23666666Y-38585771D02*
X23809523Y-38585771D01*
X23809523Y-38585771D02*
X23904761Y-38633390D01*
X23904761Y-38633390D02*
X23952380Y-38681009D01*
X23952380Y-38681009D02*
X23999999Y-38776247D01*
X23999999Y-38776247D02*
X23999999Y-39014342D01*
X23999999Y-39014342D02*
X23952380Y-39109580D01*
X23952380Y-39109580D02*
X23904761Y-39157200D01*
X23904761Y-39157200D02*
X23809523Y-39204819D01*
X23809523Y-39204819D02*
X23523809Y-39204819D01*
X23523809Y-39204819D02*
X23428571Y-39157200D01*
X23428571Y-39157200D02*
X23380952Y-39109580D01*
X24285714Y-38204819D02*
X24619047Y-39204819D01*
X24619047Y-39204819D02*
X24952380Y-38204819D01*
X25190476Y-38204819D02*
X25809523Y-38204819D01*
X25809523Y-38204819D02*
X25476190Y-38585771D01*
X25476190Y-38585771D02*
X25619047Y-38585771D01*
X25619047Y-38585771D02*
X25714285Y-38633390D01*
X25714285Y-38633390D02*
X25761904Y-38681009D01*
X25761904Y-38681009D02*
X25809523Y-38776247D01*
X25809523Y-38776247D02*
X25809523Y-39014342D01*
X25809523Y-39014342D02*
X25761904Y-39109580D01*
X25761904Y-39109580D02*
X25714285Y-39157200D01*
X25714285Y-39157200D02*
X25619047Y-39204819D01*
X25619047Y-39204819D02*
X25333333Y-39204819D01*
X25333333Y-39204819D02*
X25238095Y-39157200D01*
X25238095Y-39157200D02*
X25190476Y-39109580D01*
X22738095Y-34804819D02*
X23309523Y-34804819D01*
X23023809Y-35804819D02*
X23023809Y-34804819D01*
X23642857Y-35804819D02*
X23642857Y-34804819D01*
X23642857Y-34804819D02*
X24023809Y-34804819D01*
X24023809Y-34804819D02*
X24119047Y-34852438D01*
X24119047Y-34852438D02*
X24166666Y-34900057D01*
X24166666Y-34900057D02*
X24214285Y-34995295D01*
X24214285Y-34995295D02*
X24214285Y-35138152D01*
X24214285Y-35138152D02*
X24166666Y-35233390D01*
X24166666Y-35233390D02*
X24119047Y-35281009D01*
X24119047Y-35281009D02*
X24023809Y-35328628D01*
X24023809Y-35328628D02*
X23642857Y-35328628D01*
X25119047Y-34804819D02*
X24642857Y-34804819D01*
X24642857Y-34804819D02*
X24595238Y-35281009D01*
X24595238Y-35281009D02*
X24642857Y-35233390D01*
X24642857Y-35233390D02*
X24738095Y-35185771D01*
X24738095Y-35185771D02*
X24976190Y-35185771D01*
X24976190Y-35185771D02*
X25071428Y-35233390D01*
X25071428Y-35233390D02*
X25119047Y-35281009D01*
X25119047Y-35281009D02*
X25166666Y-35376247D01*
X25166666Y-35376247D02*
X25166666Y-35614342D01*
X25166666Y-35614342D02*
X25119047Y-35709580D01*
X25119047Y-35709580D02*
X25071428Y-35757200D01*
X25071428Y-35757200D02*
X24976190Y-35804819D01*
X24976190Y-35804819D02*
X24738095Y-35804819D01*
X24738095Y-35804819D02*
X24642857Y-35757200D01*
X24642857Y-35757200D02*
X24595238Y-35709580D01*
X2666667Y-76454819D02*
X2666667Y-75454819D01*
X2666667Y-75454819D02*
X3000000Y-76169104D01*
X3000000Y-76169104D02*
X3333333Y-75454819D01*
X3333333Y-75454819D02*
X3333333Y-76454819D01*
X3809524Y-76454819D02*
X3809524Y-75454819D01*
X3809524Y-75931009D02*
X4380952Y-75931009D01*
X4380952Y-76454819D02*
X4380952Y-75454819D01*
X4761905Y-75454819D02*
X5380952Y-75454819D01*
X5380952Y-75454819D02*
X5047619Y-75835771D01*
X5047619Y-75835771D02*
X5190476Y-75835771D01*
X5190476Y-75835771D02*
X5285714Y-75883390D01*
X5285714Y-75883390D02*
X5333333Y-75931009D01*
X5333333Y-75931009D02*
X5380952Y-76026247D01*
X5380952Y-76026247D02*
X5380952Y-76264342D01*
X5380952Y-76264342D02*
X5333333Y-76359580D01*
X5333333Y-76359580D02*
X5285714Y-76407200D01*
X5285714Y-76407200D02*
X5190476Y-76454819D01*
X5190476Y-76454819D02*
X4904762Y-76454819D01*
X4904762Y-76454819D02*
X4809524Y-76407200D01*
X4809524Y-76407200D02*
X4761905Y-76359580D01*
X64166666Y-30407200D02*
X64309523Y-30454819D01*
X64309523Y-30454819D02*
X64547618Y-30454819D01*
X64547618Y-30454819D02*
X64642856Y-30407200D01*
X64642856Y-30407200D02*
X64690475Y-30359580D01*
X64690475Y-30359580D02*
X64738094Y-30264342D01*
X64738094Y-30264342D02*
X64738094Y-30169104D01*
X64738094Y-30169104D02*
X64690475Y-30073866D01*
X64690475Y-30073866D02*
X64642856Y-30026247D01*
X64642856Y-30026247D02*
X64547618Y-29978628D01*
X64547618Y-29978628D02*
X64357142Y-29931009D01*
X64357142Y-29931009D02*
X64261904Y-29883390D01*
X64261904Y-29883390D02*
X64214285Y-29835771D01*
X64214285Y-29835771D02*
X64166666Y-29740533D01*
X64166666Y-29740533D02*
X64166666Y-29645295D01*
X64166666Y-29645295D02*
X64214285Y-29550057D01*
X64214285Y-29550057D02*
X64261904Y-29502438D01*
X64261904Y-29502438D02*
X64357142Y-29454819D01*
X64357142Y-29454819D02*
X64595237Y-29454819D01*
X64595237Y-29454819D02*
X64738094Y-29502438D01*
X65547618Y-30407200D02*
X65452380Y-30454819D01*
X65452380Y-30454819D02*
X65261904Y-30454819D01*
X65261904Y-30454819D02*
X65166666Y-30407200D01*
X65166666Y-30407200D02*
X65119047Y-30311961D01*
X65119047Y-30311961D02*
X65119047Y-29931009D01*
X65119047Y-29931009D02*
X65166666Y-29835771D01*
X65166666Y-29835771D02*
X65261904Y-29788152D01*
X65261904Y-29788152D02*
X65452380Y-29788152D01*
X65452380Y-29788152D02*
X65547618Y-29835771D01*
X65547618Y-29835771D02*
X65595237Y-29931009D01*
X65595237Y-29931009D02*
X65595237Y-30026247D01*
X65595237Y-30026247D02*
X65119047Y-30121485D01*
X66452380Y-30407200D02*
X66357142Y-30454819D01*
X66357142Y-30454819D02*
X66166666Y-30454819D01*
X66166666Y-30454819D02*
X66071428Y-30407200D01*
X66071428Y-30407200D02*
X66023809Y-30359580D01*
X66023809Y-30359580D02*
X65976190Y-30264342D01*
X65976190Y-30264342D02*
X65976190Y-29978628D01*
X65976190Y-29978628D02*
X66023809Y-29883390D01*
X66023809Y-29883390D02*
X66071428Y-29835771D01*
X66071428Y-29835771D02*
X66166666Y-29788152D01*
X66166666Y-29788152D02*
X66357142Y-29788152D01*
X66357142Y-29788152D02*
X66452380Y-29835771D01*
X67023809Y-30454819D02*
X66928571Y-30407200D01*
X66928571Y-30407200D02*
X66880952Y-30359580D01*
X66880952Y-30359580D02*
X66833333Y-30264342D01*
X66833333Y-30264342D02*
X66833333Y-29978628D01*
X66833333Y-29978628D02*
X66880952Y-29883390D01*
X66880952Y-29883390D02*
X66928571Y-29835771D01*
X66928571Y-29835771D02*
X67023809Y-29788152D01*
X67023809Y-29788152D02*
X67166666Y-29788152D01*
X67166666Y-29788152D02*
X67261904Y-29835771D01*
X67261904Y-29835771D02*
X67309523Y-29883390D01*
X67309523Y-29883390D02*
X67357142Y-29978628D01*
X67357142Y-29978628D02*
X67357142Y-30264342D01*
X67357142Y-30264342D02*
X67309523Y-30359580D01*
X67309523Y-30359580D02*
X67261904Y-30407200D01*
X67261904Y-30407200D02*
X67166666Y-30454819D01*
X67166666Y-30454819D02*
X67023809Y-30454819D01*
X67785714Y-29788152D02*
X67785714Y-30454819D01*
X67785714Y-29883390D02*
X67833333Y-29835771D01*
X67833333Y-29835771D02*
X67928571Y-29788152D01*
X67928571Y-29788152D02*
X68071428Y-29788152D01*
X68071428Y-29788152D02*
X68166666Y-29835771D01*
X68166666Y-29835771D02*
X68214285Y-29931009D01*
X68214285Y-29931009D02*
X68214285Y-30454819D01*
X69119047Y-30454819D02*
X69119047Y-29454819D01*
X69119047Y-30407200D02*
X69023809Y-30454819D01*
X69023809Y-30454819D02*
X68833333Y-30454819D01*
X68833333Y-30454819D02*
X68738095Y-30407200D01*
X68738095Y-30407200D02*
X68690476Y-30359580D01*
X68690476Y-30359580D02*
X68642857Y-30264342D01*
X68642857Y-30264342D02*
X68642857Y-29978628D01*
X68642857Y-29978628D02*
X68690476Y-29883390D01*
X68690476Y-29883390D02*
X68738095Y-29835771D01*
X68738095Y-29835771D02*
X68833333Y-29788152D01*
X68833333Y-29788152D02*
X69023809Y-29788152D01*
X69023809Y-29788152D02*
X69119047Y-29835771D01*
X70357143Y-30454819D02*
X70357143Y-29454819D01*
X70785714Y-29550057D02*
X70833333Y-29502438D01*
X70833333Y-29502438D02*
X70928571Y-29454819D01*
X70928571Y-29454819D02*
X71166666Y-29454819D01*
X71166666Y-29454819D02*
X71261904Y-29502438D01*
X71261904Y-29502438D02*
X71309523Y-29550057D01*
X71309523Y-29550057D02*
X71357142Y-29645295D01*
X71357142Y-29645295D02*
X71357142Y-29740533D01*
X71357142Y-29740533D02*
X71309523Y-29883390D01*
X71309523Y-29883390D02*
X70738095Y-30454819D01*
X70738095Y-30454819D02*
X71357142Y-30454819D01*
X72357142Y-30359580D02*
X72309523Y-30407200D01*
X72309523Y-30407200D02*
X72166666Y-30454819D01*
X72166666Y-30454819D02*
X72071428Y-30454819D01*
X72071428Y-30454819D02*
X71928571Y-30407200D01*
X71928571Y-30407200D02*
X71833333Y-30311961D01*
X71833333Y-30311961D02*
X71785714Y-30216723D01*
X71785714Y-30216723D02*
X71738095Y-30026247D01*
X71738095Y-30026247D02*
X71738095Y-29883390D01*
X71738095Y-29883390D02*
X71785714Y-29692914D01*
X71785714Y-29692914D02*
X71833333Y-29597676D01*
X71833333Y-29597676D02*
X71928571Y-29502438D01*
X71928571Y-29502438D02*
X72071428Y-29454819D01*
X72071428Y-29454819D02*
X72166666Y-29454819D01*
X72166666Y-29454819D02*
X72309523Y-29502438D01*
X72309523Y-29502438D02*
X72357142Y-29550057D01*
X73880952Y-29931009D02*
X74023809Y-29978628D01*
X74023809Y-29978628D02*
X74071428Y-30026247D01*
X74071428Y-30026247D02*
X74119047Y-30121485D01*
X74119047Y-30121485D02*
X74119047Y-30264342D01*
X74119047Y-30264342D02*
X74071428Y-30359580D01*
X74071428Y-30359580D02*
X74023809Y-30407200D01*
X74023809Y-30407200D02*
X73928571Y-30454819D01*
X73928571Y-30454819D02*
X73547619Y-30454819D01*
X73547619Y-30454819D02*
X73547619Y-29454819D01*
X73547619Y-29454819D02*
X73880952Y-29454819D01*
X73880952Y-29454819D02*
X73976190Y-29502438D01*
X73976190Y-29502438D02*
X74023809Y-29550057D01*
X74023809Y-29550057D02*
X74071428Y-29645295D01*
X74071428Y-29645295D02*
X74071428Y-29740533D01*
X74071428Y-29740533D02*
X74023809Y-29835771D01*
X74023809Y-29835771D02*
X73976190Y-29883390D01*
X73976190Y-29883390D02*
X73880952Y-29931009D01*
X73880952Y-29931009D02*
X73547619Y-29931009D01*
X74976190Y-29788152D02*
X74976190Y-30454819D01*
X74547619Y-29788152D02*
X74547619Y-30311961D01*
X74547619Y-30311961D02*
X74595238Y-30407200D01*
X74595238Y-30407200D02*
X74690476Y-30454819D01*
X74690476Y-30454819D02*
X74833333Y-30454819D01*
X74833333Y-30454819D02*
X74928571Y-30407200D01*
X74928571Y-30407200D02*
X74976190Y-30359580D01*
X75404762Y-30407200D02*
X75500000Y-30454819D01*
X75500000Y-30454819D02*
X75690476Y-30454819D01*
X75690476Y-30454819D02*
X75785714Y-30407200D01*
X75785714Y-30407200D02*
X75833333Y-30311961D01*
X75833333Y-30311961D02*
X75833333Y-30264342D01*
X75833333Y-30264342D02*
X75785714Y-30169104D01*
X75785714Y-30169104D02*
X75690476Y-30121485D01*
X75690476Y-30121485D02*
X75547619Y-30121485D01*
X75547619Y-30121485D02*
X75452381Y-30073866D01*
X75452381Y-30073866D02*
X75404762Y-29978628D01*
X75404762Y-29978628D02*
X75404762Y-29931009D01*
X75404762Y-29931009D02*
X75452381Y-29835771D01*
X75452381Y-29835771D02*
X75547619Y-29788152D01*
X75547619Y-29788152D02*
X75690476Y-29788152D01*
X75690476Y-29788152D02*
X75785714Y-29835771D01*
X69454819Y-24143333D02*
X70169104Y-24143333D01*
X70169104Y-24143333D02*
X70311961Y-24190952D01*
X70311961Y-24190952D02*
X70407200Y-24286190D01*
X70407200Y-24286190D02*
X70454819Y-24429047D01*
X70454819Y-24429047D02*
X70454819Y-24524285D01*
X69550057Y-23714761D02*
X69502438Y-23667142D01*
X69502438Y-23667142D02*
X69454819Y-23571904D01*
X69454819Y-23571904D02*
X69454819Y-23333809D01*
X69454819Y-23333809D02*
X69502438Y-23238571D01*
X69502438Y-23238571D02*
X69550057Y-23190952D01*
X69550057Y-23190952D02*
X69645295Y-23143333D01*
X69645295Y-23143333D02*
X69740533Y-23143333D01*
X69740533Y-23143333D02*
X69883390Y-23190952D01*
X69883390Y-23190952D02*
X70454819Y-23762380D01*
X70454819Y-23762380D02*
X70454819Y-23143333D01*
X34380952Y-67914819D02*
X33809524Y-67914819D01*
X34095238Y-67914819D02*
X34095238Y-66914819D01*
X34095238Y-66914819D02*
X34000000Y-67057676D01*
X34000000Y-67057676D02*
X33904762Y-67152914D01*
X33904762Y-67152914D02*
X33809524Y-67200533D01*
X34809524Y-67533866D02*
X35571429Y-67533866D01*
X35952381Y-66914819D02*
X36190476Y-67914819D01*
X36190476Y-67914819D02*
X36380952Y-67200533D01*
X36380952Y-67200533D02*
X36571428Y-67914819D01*
X36571428Y-67914819D02*
X36809524Y-66914819D01*
X37190476Y-67914819D02*
X37190476Y-67248152D01*
X37190476Y-66914819D02*
X37142857Y-66962438D01*
X37142857Y-66962438D02*
X37190476Y-67010057D01*
X37190476Y-67010057D02*
X37238095Y-66962438D01*
X37238095Y-66962438D02*
X37190476Y-66914819D01*
X37190476Y-66914819D02*
X37190476Y-67010057D01*
X37666666Y-67914819D02*
X37666666Y-67248152D01*
X37666666Y-67438628D02*
X37714285Y-67343390D01*
X37714285Y-67343390D02*
X37761904Y-67295771D01*
X37761904Y-67295771D02*
X37857142Y-67248152D01*
X37857142Y-67248152D02*
X37952380Y-67248152D01*
X38666666Y-67867200D02*
X38571428Y-67914819D01*
X38571428Y-67914819D02*
X38380952Y-67914819D01*
X38380952Y-67914819D02*
X38285714Y-67867200D01*
X38285714Y-67867200D02*
X38238095Y-67771961D01*
X38238095Y-67771961D02*
X38238095Y-67391009D01*
X38238095Y-67391009D02*
X38285714Y-67295771D01*
X38285714Y-67295771D02*
X38380952Y-67248152D01*
X38380952Y-67248152D02*
X38571428Y-67248152D01*
X38571428Y-67248152D02*
X38666666Y-67295771D01*
X38666666Y-67295771D02*
X38714285Y-67391009D01*
X38714285Y-67391009D02*
X38714285Y-67486247D01*
X38714285Y-67486247D02*
X38238095Y-67581485D01*
X40238095Y-67391009D02*
X40380952Y-67438628D01*
X40380952Y-67438628D02*
X40428571Y-67486247D01*
X40428571Y-67486247D02*
X40476190Y-67581485D01*
X40476190Y-67581485D02*
X40476190Y-67724342D01*
X40476190Y-67724342D02*
X40428571Y-67819580D01*
X40428571Y-67819580D02*
X40380952Y-67867200D01*
X40380952Y-67867200D02*
X40285714Y-67914819D01*
X40285714Y-67914819D02*
X39904762Y-67914819D01*
X39904762Y-67914819D02*
X39904762Y-66914819D01*
X39904762Y-66914819D02*
X40238095Y-66914819D01*
X40238095Y-66914819D02*
X40333333Y-66962438D01*
X40333333Y-66962438D02*
X40380952Y-67010057D01*
X40380952Y-67010057D02*
X40428571Y-67105295D01*
X40428571Y-67105295D02*
X40428571Y-67200533D01*
X40428571Y-67200533D02*
X40380952Y-67295771D01*
X40380952Y-67295771D02*
X40333333Y-67343390D01*
X40333333Y-67343390D02*
X40238095Y-67391009D01*
X40238095Y-67391009D02*
X39904762Y-67391009D01*
X41333333Y-67248152D02*
X41333333Y-67914819D01*
X40904762Y-67248152D02*
X40904762Y-67771961D01*
X40904762Y-67771961D02*
X40952381Y-67867200D01*
X40952381Y-67867200D02*
X41047619Y-67914819D01*
X41047619Y-67914819D02*
X41190476Y-67914819D01*
X41190476Y-67914819D02*
X41285714Y-67867200D01*
X41285714Y-67867200D02*
X41333333Y-67819580D01*
X41761905Y-67867200D02*
X41857143Y-67914819D01*
X41857143Y-67914819D02*
X42047619Y-67914819D01*
X42047619Y-67914819D02*
X42142857Y-67867200D01*
X42142857Y-67867200D02*
X42190476Y-67771961D01*
X42190476Y-67771961D02*
X42190476Y-67724342D01*
X42190476Y-67724342D02*
X42142857Y-67629104D01*
X42142857Y-67629104D02*
X42047619Y-67581485D01*
X42047619Y-67581485D02*
X41904762Y-67581485D01*
X41904762Y-67581485D02*
X41809524Y-67533866D01*
X41809524Y-67533866D02*
X41761905Y-67438628D01*
X41761905Y-67438628D02*
X41761905Y-67391009D01*
X41761905Y-67391009D02*
X41809524Y-67295771D01*
X41809524Y-67295771D02*
X41904762Y-67248152D01*
X41904762Y-67248152D02*
X42047619Y-67248152D01*
X42047619Y-67248152D02*
X42142857Y-67295771D01*
X37454819Y-62873333D02*
X38169104Y-62873333D01*
X38169104Y-62873333D02*
X38311961Y-62920952D01*
X38311961Y-62920952D02*
X38407200Y-63016190D01*
X38407200Y-63016190D02*
X38454819Y-63159047D01*
X38454819Y-63159047D02*
X38454819Y-63254285D01*
X37454819Y-62492380D02*
X37454819Y-61825714D01*
X37454819Y-61825714D02*
X38454819Y-62254285D01*
X21333333Y-35204819D02*
X21333333Y-35919104D01*
X21333333Y-35919104D02*
X21285714Y-36061961D01*
X21285714Y-36061961D02*
X21190476Y-36157200D01*
X21190476Y-36157200D02*
X21047619Y-36204819D01*
X21047619Y-36204819D02*
X20952381Y-36204819D01*
X21666667Y-35204819D02*
X22238095Y-35204819D01*
X21952381Y-36204819D02*
X21952381Y-35204819D01*
X22523810Y-35919104D02*
X23000000Y-35919104D01*
X22428572Y-36204819D02*
X22761905Y-35204819D01*
X22761905Y-35204819D02*
X23095238Y-36204819D01*
X23952381Y-35252438D02*
X23857143Y-35204819D01*
X23857143Y-35204819D02*
X23714286Y-35204819D01*
X23714286Y-35204819D02*
X23571429Y-35252438D01*
X23571429Y-35252438D02*
X23476191Y-35347676D01*
X23476191Y-35347676D02*
X23428572Y-35442914D01*
X23428572Y-35442914D02*
X23380953Y-35633390D01*
X23380953Y-35633390D02*
X23380953Y-35776247D01*
X23380953Y-35776247D02*
X23428572Y-35966723D01*
X23428572Y-35966723D02*
X23476191Y-36061961D01*
X23476191Y-36061961D02*
X23571429Y-36157200D01*
X23571429Y-36157200D02*
X23714286Y-36204819D01*
X23714286Y-36204819D02*
X23809524Y-36204819D01*
X23809524Y-36204819D02*
X23952381Y-36157200D01*
X23952381Y-36157200D02*
X24000000Y-36109580D01*
X24000000Y-36109580D02*
X24000000Y-35776247D01*
X24000000Y-35776247D02*
X23809524Y-35776247D01*
X24190477Y-36300057D02*
X24952381Y-36300057D01*
X25047620Y-35204819D02*
X25619048Y-35204819D01*
X25333334Y-36204819D02*
X25333334Y-35204819D01*
X25952382Y-36204819D02*
X25952382Y-35204819D01*
X25952382Y-35204819D02*
X26190477Y-35204819D01*
X26190477Y-35204819D02*
X26333334Y-35252438D01*
X26333334Y-35252438D02*
X26428572Y-35347676D01*
X26428572Y-35347676D02*
X26476191Y-35442914D01*
X26476191Y-35442914D02*
X26523810Y-35633390D01*
X26523810Y-35633390D02*
X26523810Y-35776247D01*
X26523810Y-35776247D02*
X26476191Y-35966723D01*
X26476191Y-35966723D02*
X26428572Y-36061961D01*
X26428572Y-36061961D02*
X26333334Y-36157200D01*
X26333334Y-36157200D02*
X26190477Y-36204819D01*
X26190477Y-36204819D02*
X25952382Y-36204819D01*
X26952382Y-36204819D02*
X26952382Y-35204819D01*
X22738095Y-31804819D02*
X23309523Y-31804819D01*
X23023809Y-32804819D02*
X23023809Y-31804819D01*
X23642857Y-32804819D02*
X23642857Y-31804819D01*
X23642857Y-31804819D02*
X24023809Y-31804819D01*
X24023809Y-31804819D02*
X24119047Y-31852438D01*
X24119047Y-31852438D02*
X24166666Y-31900057D01*
X24166666Y-31900057D02*
X24214285Y-31995295D01*
X24214285Y-31995295D02*
X24214285Y-32138152D01*
X24214285Y-32138152D02*
X24166666Y-32233390D01*
X24166666Y-32233390D02*
X24119047Y-32281009D01*
X24119047Y-32281009D02*
X24023809Y-32328628D01*
X24023809Y-32328628D02*
X23642857Y-32328628D01*
X25166666Y-32804819D02*
X24595238Y-32804819D01*
X24880952Y-32804819D02*
X24880952Y-31804819D01*
X24880952Y-31804819D02*
X24785714Y-31947676D01*
X24785714Y-31947676D02*
X24690476Y-32042914D01*
X24690476Y-32042914D02*
X24595238Y-32090533D01*
X22690476Y-9454819D02*
X22928571Y-10454819D01*
X22928571Y-10454819D02*
X23119047Y-9740533D01*
X23119047Y-9740533D02*
X23309523Y-10454819D01*
X23309523Y-10454819D02*
X23547619Y-9454819D01*
X23880952Y-10407200D02*
X24023809Y-10454819D01*
X24023809Y-10454819D02*
X24261904Y-10454819D01*
X24261904Y-10454819D02*
X24357142Y-10407200D01*
X24357142Y-10407200D02*
X24404761Y-10359580D01*
X24404761Y-10359580D02*
X24452380Y-10264342D01*
X24452380Y-10264342D02*
X24452380Y-10169104D01*
X24452380Y-10169104D02*
X24404761Y-10073866D01*
X24404761Y-10073866D02*
X24357142Y-10026247D01*
X24357142Y-10026247D02*
X24261904Y-9978628D01*
X24261904Y-9978628D02*
X24071428Y-9931009D01*
X24071428Y-9931009D02*
X23976190Y-9883390D01*
X23976190Y-9883390D02*
X23928571Y-9835771D01*
X23928571Y-9835771D02*
X23880952Y-9740533D01*
X23880952Y-9740533D02*
X23880952Y-9645295D01*
X23880952Y-9645295D02*
X23928571Y-9550057D01*
X23928571Y-9550057D02*
X23976190Y-9502438D01*
X23976190Y-9502438D02*
X24071428Y-9454819D01*
X24071428Y-9454819D02*
X24309523Y-9454819D01*
X24309523Y-9454819D02*
X24452380Y-9502438D01*
X24833333Y-9550057D02*
X24880952Y-9502438D01*
X24880952Y-9502438D02*
X24976190Y-9454819D01*
X24976190Y-9454819D02*
X25214285Y-9454819D01*
X25214285Y-9454819D02*
X25309523Y-9502438D01*
X25309523Y-9502438D02*
X25357142Y-9550057D01*
X25357142Y-9550057D02*
X25404761Y-9645295D01*
X25404761Y-9645295D02*
X25404761Y-9740533D01*
X25404761Y-9740533D02*
X25357142Y-9883390D01*
X25357142Y-9883390D02*
X24785714Y-10454819D01*
X24785714Y-10454819D02*
X25404761Y-10454819D01*
X25976190Y-9883390D02*
X25880952Y-9835771D01*
X25880952Y-9835771D02*
X25833333Y-9788152D01*
X25833333Y-9788152D02*
X25785714Y-9692914D01*
X25785714Y-9692914D02*
X25785714Y-9645295D01*
X25785714Y-9645295D02*
X25833333Y-9550057D01*
X25833333Y-9550057D02*
X25880952Y-9502438D01*
X25880952Y-9502438D02*
X25976190Y-9454819D01*
X25976190Y-9454819D02*
X26166666Y-9454819D01*
X26166666Y-9454819D02*
X26261904Y-9502438D01*
X26261904Y-9502438D02*
X26309523Y-9550057D01*
X26309523Y-9550057D02*
X26357142Y-9645295D01*
X26357142Y-9645295D02*
X26357142Y-9692914D01*
X26357142Y-9692914D02*
X26309523Y-9788152D01*
X26309523Y-9788152D02*
X26261904Y-9835771D01*
X26261904Y-9835771D02*
X26166666Y-9883390D01*
X26166666Y-9883390D02*
X25976190Y-9883390D01*
X25976190Y-9883390D02*
X25880952Y-9931009D01*
X25880952Y-9931009D02*
X25833333Y-9978628D01*
X25833333Y-9978628D02*
X25785714Y-10073866D01*
X25785714Y-10073866D02*
X25785714Y-10264342D01*
X25785714Y-10264342D02*
X25833333Y-10359580D01*
X25833333Y-10359580D02*
X25880952Y-10407200D01*
X25880952Y-10407200D02*
X25976190Y-10454819D01*
X25976190Y-10454819D02*
X26166666Y-10454819D01*
X26166666Y-10454819D02*
X26261904Y-10407200D01*
X26261904Y-10407200D02*
X26309523Y-10359580D01*
X26309523Y-10359580D02*
X26357142Y-10264342D01*
X26357142Y-10264342D02*
X26357142Y-10073866D01*
X26357142Y-10073866D02*
X26309523Y-9978628D01*
X26309523Y-9978628D02*
X26261904Y-9931009D01*
X26261904Y-9931009D02*
X26166666Y-9883390D01*
X27309523Y-10454819D02*
X26738095Y-10454819D01*
X27023809Y-10454819D02*
X27023809Y-9454819D01*
X27023809Y-9454819D02*
X26928571Y-9597676D01*
X26928571Y-9597676D02*
X26833333Y-9692914D01*
X26833333Y-9692914D02*
X26738095Y-9740533D01*
X27690476Y-9550057D02*
X27738095Y-9502438D01*
X27738095Y-9502438D02*
X27833333Y-9454819D01*
X27833333Y-9454819D02*
X28071428Y-9454819D01*
X28071428Y-9454819D02*
X28166666Y-9502438D01*
X28166666Y-9502438D02*
X28214285Y-9550057D01*
X28214285Y-9550057D02*
X28261904Y-9645295D01*
X28261904Y-9645295D02*
X28261904Y-9740533D01*
X28261904Y-9740533D02*
X28214285Y-9883390D01*
X28214285Y-9883390D02*
X27642857Y-10454819D01*
X27642857Y-10454819D02*
X28261904Y-10454819D01*
X29023809Y-9931009D02*
X29166666Y-9978628D01*
X29166666Y-9978628D02*
X29214285Y-10026247D01*
X29214285Y-10026247D02*
X29261904Y-10121485D01*
X29261904Y-10121485D02*
X29261904Y-10264342D01*
X29261904Y-10264342D02*
X29214285Y-10359580D01*
X29214285Y-10359580D02*
X29166666Y-10407200D01*
X29166666Y-10407200D02*
X29071428Y-10454819D01*
X29071428Y-10454819D02*
X28690476Y-10454819D01*
X28690476Y-10454819D02*
X28690476Y-9454819D01*
X28690476Y-9454819D02*
X29023809Y-9454819D01*
X29023809Y-9454819D02*
X29119047Y-9502438D01*
X29119047Y-9502438D02*
X29166666Y-9550057D01*
X29166666Y-9550057D02*
X29214285Y-9645295D01*
X29214285Y-9645295D02*
X29214285Y-9740533D01*
X29214285Y-9740533D02*
X29166666Y-9835771D01*
X29166666Y-9835771D02*
X29119047Y-9883390D01*
X29119047Y-9883390D02*
X29023809Y-9931009D01*
X29023809Y-9931009D02*
X28690476Y-9931009D01*
X25409524Y-6362295D02*
X25409524Y-5562295D01*
X25409524Y-5562295D02*
X25600000Y-5562295D01*
X25600000Y-5562295D02*
X25714286Y-5600390D01*
X25714286Y-5600390D02*
X25790476Y-5676580D01*
X25790476Y-5676580D02*
X25828571Y-5752771D01*
X25828571Y-5752771D02*
X25866667Y-5905152D01*
X25866667Y-5905152D02*
X25866667Y-6019438D01*
X25866667Y-6019438D02*
X25828571Y-6171819D01*
X25828571Y-6171819D02*
X25790476Y-6248009D01*
X25790476Y-6248009D02*
X25714286Y-6324200D01*
X25714286Y-6324200D02*
X25600000Y-6362295D01*
X25600000Y-6362295D02*
X25409524Y-6362295D01*
X26628571Y-6362295D02*
X26171428Y-6362295D01*
X26400000Y-6362295D02*
X26400000Y-5562295D01*
X26400000Y-5562295D02*
X26323809Y-5676580D01*
X26323809Y-5676580D02*
X26247619Y-5752771D01*
X26247619Y-5752771D02*
X26171428Y-5790866D01*
X49499999Y-75011009D02*
X49833332Y-75011009D01*
X49976189Y-75534819D02*
X49499999Y-75534819D01*
X49499999Y-75534819D02*
X49499999Y-74534819D01*
X49499999Y-74534819D02*
X49976189Y-74534819D01*
X50309523Y-75534819D02*
X50833332Y-74868152D01*
X50309523Y-74868152D02*
X50833332Y-75534819D01*
X51214285Y-74868152D02*
X51214285Y-75868152D01*
X51214285Y-74915771D02*
X51309523Y-74868152D01*
X51309523Y-74868152D02*
X51499999Y-74868152D01*
X51499999Y-74868152D02*
X51595237Y-74915771D01*
X51595237Y-74915771D02*
X51642856Y-74963390D01*
X51642856Y-74963390D02*
X51690475Y-75058628D01*
X51690475Y-75058628D02*
X51690475Y-75344342D01*
X51690475Y-75344342D02*
X51642856Y-75439580D01*
X51642856Y-75439580D02*
X51595237Y-75487200D01*
X51595237Y-75487200D02*
X51499999Y-75534819D01*
X51499999Y-75534819D02*
X51309523Y-75534819D01*
X51309523Y-75534819D02*
X51214285Y-75487200D01*
X52547618Y-75534819D02*
X52547618Y-75011009D01*
X52547618Y-75011009D02*
X52499999Y-74915771D01*
X52499999Y-74915771D02*
X52404761Y-74868152D01*
X52404761Y-74868152D02*
X52214285Y-74868152D01*
X52214285Y-74868152D02*
X52119047Y-74915771D01*
X52547618Y-75487200D02*
X52452380Y-75534819D01*
X52452380Y-75534819D02*
X52214285Y-75534819D01*
X52214285Y-75534819D02*
X52119047Y-75487200D01*
X52119047Y-75487200D02*
X52071428Y-75391961D01*
X52071428Y-75391961D02*
X52071428Y-75296723D01*
X52071428Y-75296723D02*
X52119047Y-75201485D01*
X52119047Y-75201485D02*
X52214285Y-75153866D01*
X52214285Y-75153866D02*
X52452380Y-75153866D01*
X52452380Y-75153866D02*
X52547618Y-75106247D01*
X53023809Y-74868152D02*
X53023809Y-75534819D01*
X53023809Y-74963390D02*
X53071428Y-74915771D01*
X53071428Y-74915771D02*
X53166666Y-74868152D01*
X53166666Y-74868152D02*
X53309523Y-74868152D01*
X53309523Y-74868152D02*
X53404761Y-74915771D01*
X53404761Y-74915771D02*
X53452380Y-75011009D01*
X53452380Y-75011009D02*
X53452380Y-75534819D01*
X53880952Y-75487200D02*
X53976190Y-75534819D01*
X53976190Y-75534819D02*
X54166666Y-75534819D01*
X54166666Y-75534819D02*
X54261904Y-75487200D01*
X54261904Y-75487200D02*
X54309523Y-75391961D01*
X54309523Y-75391961D02*
X54309523Y-75344342D01*
X54309523Y-75344342D02*
X54261904Y-75249104D01*
X54261904Y-75249104D02*
X54166666Y-75201485D01*
X54166666Y-75201485D02*
X54023809Y-75201485D01*
X54023809Y-75201485D02*
X53928571Y-75153866D01*
X53928571Y-75153866D02*
X53880952Y-75058628D01*
X53880952Y-75058628D02*
X53880952Y-75011009D01*
X53880952Y-75011009D02*
X53928571Y-74915771D01*
X53928571Y-74915771D02*
X54023809Y-74868152D01*
X54023809Y-74868152D02*
X54166666Y-74868152D01*
X54166666Y-74868152D02*
X54261904Y-74915771D01*
X54738095Y-75534819D02*
X54738095Y-74868152D01*
X54738095Y-74534819D02*
X54690476Y-74582438D01*
X54690476Y-74582438D02*
X54738095Y-74630057D01*
X54738095Y-74630057D02*
X54785714Y-74582438D01*
X54785714Y-74582438D02*
X54738095Y-74534819D01*
X54738095Y-74534819D02*
X54738095Y-74630057D01*
X55357142Y-75534819D02*
X55261904Y-75487200D01*
X55261904Y-75487200D02*
X55214285Y-75439580D01*
X55214285Y-75439580D02*
X55166666Y-75344342D01*
X55166666Y-75344342D02*
X55166666Y-75058628D01*
X55166666Y-75058628D02*
X55214285Y-74963390D01*
X55214285Y-74963390D02*
X55261904Y-74915771D01*
X55261904Y-74915771D02*
X55357142Y-74868152D01*
X55357142Y-74868152D02*
X55499999Y-74868152D01*
X55499999Y-74868152D02*
X55595237Y-74915771D01*
X55595237Y-74915771D02*
X55642856Y-74963390D01*
X55642856Y-74963390D02*
X55690475Y-75058628D01*
X55690475Y-75058628D02*
X55690475Y-75344342D01*
X55690475Y-75344342D02*
X55642856Y-75439580D01*
X55642856Y-75439580D02*
X55595237Y-75487200D01*
X55595237Y-75487200D02*
X55499999Y-75534819D01*
X55499999Y-75534819D02*
X55357142Y-75534819D01*
X56119047Y-74868152D02*
X56119047Y-75534819D01*
X56119047Y-74963390D02*
X56166666Y-74915771D01*
X56166666Y-74915771D02*
X56261904Y-74868152D01*
X56261904Y-74868152D02*
X56404761Y-74868152D01*
X56404761Y-74868152D02*
X56499999Y-74915771D01*
X56499999Y-74915771D02*
X56547618Y-75011009D01*
X56547618Y-75011009D02*
X56547618Y-75534819D01*
X57785714Y-75534819D02*
X57785714Y-74534819D01*
X57785714Y-75011009D02*
X58357142Y-75011009D01*
X58357142Y-75534819D02*
X58357142Y-74534819D01*
X59214285Y-75487200D02*
X59119047Y-75534819D01*
X59119047Y-75534819D02*
X58928571Y-75534819D01*
X58928571Y-75534819D02*
X58833333Y-75487200D01*
X58833333Y-75487200D02*
X58785714Y-75391961D01*
X58785714Y-75391961D02*
X58785714Y-75011009D01*
X58785714Y-75011009D02*
X58833333Y-74915771D01*
X58833333Y-74915771D02*
X58928571Y-74868152D01*
X58928571Y-74868152D02*
X59119047Y-74868152D01*
X59119047Y-74868152D02*
X59214285Y-74915771D01*
X59214285Y-74915771D02*
X59261904Y-75011009D01*
X59261904Y-75011009D02*
X59261904Y-75106247D01*
X59261904Y-75106247D02*
X58785714Y-75201485D01*
X60119047Y-75534819D02*
X60119047Y-75011009D01*
X60119047Y-75011009D02*
X60071428Y-74915771D01*
X60071428Y-74915771D02*
X59976190Y-74868152D01*
X59976190Y-74868152D02*
X59785714Y-74868152D01*
X59785714Y-74868152D02*
X59690476Y-74915771D01*
X60119047Y-75487200D02*
X60023809Y-75534819D01*
X60023809Y-75534819D02*
X59785714Y-75534819D01*
X59785714Y-75534819D02*
X59690476Y-75487200D01*
X59690476Y-75487200D02*
X59642857Y-75391961D01*
X59642857Y-75391961D02*
X59642857Y-75296723D01*
X59642857Y-75296723D02*
X59690476Y-75201485D01*
X59690476Y-75201485D02*
X59785714Y-75153866D01*
X59785714Y-75153866D02*
X60023809Y-75153866D01*
X60023809Y-75153866D02*
X60119047Y-75106247D01*
X61023809Y-75534819D02*
X61023809Y-74534819D01*
X61023809Y-75487200D02*
X60928571Y-75534819D01*
X60928571Y-75534819D02*
X60738095Y-75534819D01*
X60738095Y-75534819D02*
X60642857Y-75487200D01*
X60642857Y-75487200D02*
X60595238Y-75439580D01*
X60595238Y-75439580D02*
X60547619Y-75344342D01*
X60547619Y-75344342D02*
X60547619Y-75058628D01*
X60547619Y-75058628D02*
X60595238Y-74963390D01*
X60595238Y-74963390D02*
X60642857Y-74915771D01*
X60642857Y-74915771D02*
X60738095Y-74868152D01*
X60738095Y-74868152D02*
X60928571Y-74868152D01*
X60928571Y-74868152D02*
X61023809Y-74915771D01*
X61880952Y-75487200D02*
X61785714Y-75534819D01*
X61785714Y-75534819D02*
X61595238Y-75534819D01*
X61595238Y-75534819D02*
X61500000Y-75487200D01*
X61500000Y-75487200D02*
X61452381Y-75391961D01*
X61452381Y-75391961D02*
X61452381Y-75011009D01*
X61452381Y-75011009D02*
X61500000Y-74915771D01*
X61500000Y-74915771D02*
X61595238Y-74868152D01*
X61595238Y-74868152D02*
X61785714Y-74868152D01*
X61785714Y-74868152D02*
X61880952Y-74915771D01*
X61880952Y-74915771D02*
X61928571Y-75011009D01*
X61928571Y-75011009D02*
X61928571Y-75106247D01*
X61928571Y-75106247D02*
X61452381Y-75201485D01*
X62357143Y-75534819D02*
X62357143Y-74868152D01*
X62357143Y-75058628D02*
X62404762Y-74963390D01*
X62404762Y-74963390D02*
X62452381Y-74915771D01*
X62452381Y-74915771D02*
X62547619Y-74868152D01*
X62547619Y-74868152D02*
X62642857Y-74868152D01*
X55454819Y-66683333D02*
X56169104Y-66683333D01*
X56169104Y-66683333D02*
X56311961Y-66730952D01*
X56311961Y-66730952D02*
X56407200Y-66826190D01*
X56407200Y-66826190D02*
X56454819Y-66969047D01*
X56454819Y-66969047D02*
X56454819Y-67064285D01*
X56454819Y-66159523D02*
X56454819Y-65969047D01*
X56454819Y-65969047D02*
X56407200Y-65873809D01*
X56407200Y-65873809D02*
X56359580Y-65826190D01*
X56359580Y-65826190D02*
X56216723Y-65730952D01*
X56216723Y-65730952D02*
X56026247Y-65683333D01*
X56026247Y-65683333D02*
X55645295Y-65683333D01*
X55645295Y-65683333D02*
X55550057Y-65730952D01*
X55550057Y-65730952D02*
X55502438Y-65778571D01*
X55502438Y-65778571D02*
X55454819Y-65873809D01*
X55454819Y-65873809D02*
X55454819Y-66064285D01*
X55454819Y-66064285D02*
X55502438Y-66159523D01*
X55502438Y-66159523D02*
X55550057Y-66207142D01*
X55550057Y-66207142D02*
X55645295Y-66254761D01*
X55645295Y-66254761D02*
X55883390Y-66254761D01*
X55883390Y-66254761D02*
X55978628Y-66207142D01*
X55978628Y-66207142D02*
X56026247Y-66159523D01*
X56026247Y-66159523D02*
X56073866Y-66064285D01*
X56073866Y-66064285D02*
X56073866Y-65873809D01*
X56073866Y-65873809D02*
X56026247Y-65778571D01*
X56026247Y-65778571D02*
X55978628Y-65730952D01*
X55978628Y-65730952D02*
X55883390Y-65683333D01*
X69666667Y-4454819D02*
X69666667Y-3454819D01*
X69666667Y-3454819D02*
X70000000Y-4169104D01*
X70000000Y-4169104D02*
X70333333Y-3454819D01*
X70333333Y-3454819D02*
X70333333Y-4454819D01*
X70809524Y-4454819D02*
X70809524Y-3454819D01*
X70809524Y-3931009D02*
X71380952Y-3931009D01*
X71380952Y-4454819D02*
X71380952Y-3454819D01*
X71809524Y-3550057D02*
X71857143Y-3502438D01*
X71857143Y-3502438D02*
X71952381Y-3454819D01*
X71952381Y-3454819D02*
X72190476Y-3454819D01*
X72190476Y-3454819D02*
X72285714Y-3502438D01*
X72285714Y-3502438D02*
X72333333Y-3550057D01*
X72333333Y-3550057D02*
X72380952Y-3645295D01*
X72380952Y-3645295D02*
X72380952Y-3740533D01*
X72380952Y-3740533D02*
X72333333Y-3883390D01*
X72333333Y-3883390D02*
X71761905Y-4454819D01*
X71761905Y-4454819D02*
X72380952Y-4454819D01*
X30047618Y-35204819D02*
X30047618Y-35919104D01*
X30047618Y-35919104D02*
X29999999Y-36061961D01*
X29999999Y-36061961D02*
X29904761Y-36157200D01*
X29904761Y-36157200D02*
X29761904Y-36204819D01*
X29761904Y-36204819D02*
X29666666Y-36204819D01*
X30380952Y-35204819D02*
X30952380Y-35204819D01*
X30666666Y-36204819D02*
X30666666Y-35204819D01*
X31238095Y-35919104D02*
X31714285Y-35919104D01*
X31142857Y-36204819D02*
X31476190Y-35204819D01*
X31476190Y-35204819D02*
X31809523Y-36204819D01*
X32666666Y-35252438D02*
X32571428Y-35204819D01*
X32571428Y-35204819D02*
X32428571Y-35204819D01*
X32428571Y-35204819D02*
X32285714Y-35252438D01*
X32285714Y-35252438D02*
X32190476Y-35347676D01*
X32190476Y-35347676D02*
X32142857Y-35442914D01*
X32142857Y-35442914D02*
X32095238Y-35633390D01*
X32095238Y-35633390D02*
X32095238Y-35776247D01*
X32095238Y-35776247D02*
X32142857Y-35966723D01*
X32142857Y-35966723D02*
X32190476Y-36061961D01*
X32190476Y-36061961D02*
X32285714Y-36157200D01*
X32285714Y-36157200D02*
X32428571Y-36204819D01*
X32428571Y-36204819D02*
X32523809Y-36204819D01*
X32523809Y-36204819D02*
X32666666Y-36157200D01*
X32666666Y-36157200D02*
X32714285Y-36109580D01*
X32714285Y-36109580D02*
X32714285Y-35776247D01*
X32714285Y-35776247D02*
X32523809Y-35776247D01*
X32904762Y-36300057D02*
X33666666Y-36300057D01*
X33761905Y-35204819D02*
X34333333Y-35204819D01*
X34047619Y-36204819D02*
X34047619Y-35204819D01*
X34666667Y-36204819D02*
X34666667Y-35204819D01*
X34666667Y-35204819D02*
X34904762Y-35204819D01*
X34904762Y-35204819D02*
X35047619Y-35252438D01*
X35047619Y-35252438D02*
X35142857Y-35347676D01*
X35142857Y-35347676D02*
X35190476Y-35442914D01*
X35190476Y-35442914D02*
X35238095Y-35633390D01*
X35238095Y-35633390D02*
X35238095Y-35776247D01*
X35238095Y-35776247D02*
X35190476Y-35966723D01*
X35190476Y-35966723D02*
X35142857Y-36061961D01*
X35142857Y-36061961D02*
X35047619Y-36157200D01*
X35047619Y-36157200D02*
X34904762Y-36204819D01*
X34904762Y-36204819D02*
X34666667Y-36204819D01*
X35857143Y-35204819D02*
X36047619Y-35204819D01*
X36047619Y-35204819D02*
X36142857Y-35252438D01*
X36142857Y-35252438D02*
X36238095Y-35347676D01*
X36238095Y-35347676D02*
X36285714Y-35538152D01*
X36285714Y-35538152D02*
X36285714Y-35871485D01*
X36285714Y-35871485D02*
X36238095Y-36061961D01*
X36238095Y-36061961D02*
X36142857Y-36157200D01*
X36142857Y-36157200D02*
X36047619Y-36204819D01*
X36047619Y-36204819D02*
X35857143Y-36204819D01*
X35857143Y-36204819D02*
X35761905Y-36157200D01*
X35761905Y-36157200D02*
X35666667Y-36061961D01*
X35666667Y-36061961D02*
X35619048Y-35871485D01*
X35619048Y-35871485D02*
X35619048Y-35538152D01*
X35619048Y-35538152D02*
X35666667Y-35347676D01*
X35666667Y-35347676D02*
X35761905Y-35252438D01*
X35761905Y-35252438D02*
X35857143Y-35204819D01*
X31738095Y-31804819D02*
X32309523Y-31804819D01*
X32023809Y-32804819D02*
X32023809Y-31804819D01*
X32642857Y-32804819D02*
X32642857Y-31804819D01*
X32642857Y-31804819D02*
X33023809Y-31804819D01*
X33023809Y-31804819D02*
X33119047Y-31852438D01*
X33119047Y-31852438D02*
X33166666Y-31900057D01*
X33166666Y-31900057D02*
X33214285Y-31995295D01*
X33214285Y-31995295D02*
X33214285Y-32138152D01*
X33214285Y-32138152D02*
X33166666Y-32233390D01*
X33166666Y-32233390D02*
X33119047Y-32281009D01*
X33119047Y-32281009D02*
X33023809Y-32328628D01*
X33023809Y-32328628D02*
X32642857Y-32328628D01*
X34071428Y-32138152D02*
X34071428Y-32804819D01*
X33833333Y-31757200D02*
X33595238Y-32471485D01*
X33595238Y-32471485D02*
X34214285Y-32471485D01*
X26238095Y-38252438D02*
X26142857Y-38204819D01*
X26142857Y-38204819D02*
X26000000Y-38204819D01*
X26000000Y-38204819D02*
X25857143Y-38252438D01*
X25857143Y-38252438D02*
X25761905Y-38347676D01*
X25761905Y-38347676D02*
X25714286Y-38442914D01*
X25714286Y-38442914D02*
X25666667Y-38633390D01*
X25666667Y-38633390D02*
X25666667Y-38776247D01*
X25666667Y-38776247D02*
X25714286Y-38966723D01*
X25714286Y-38966723D02*
X25761905Y-39061961D01*
X25761905Y-39061961D02*
X25857143Y-39157200D01*
X25857143Y-39157200D02*
X26000000Y-39204819D01*
X26000000Y-39204819D02*
X26095238Y-39204819D01*
X26095238Y-39204819D02*
X26238095Y-39157200D01*
X26238095Y-39157200D02*
X26285714Y-39109580D01*
X26285714Y-39109580D02*
X26285714Y-38776247D01*
X26285714Y-38776247D02*
X26095238Y-38776247D01*
X26714286Y-39204819D02*
X26714286Y-38204819D01*
X26714286Y-38204819D02*
X27285714Y-39204819D01*
X27285714Y-39204819D02*
X27285714Y-38204819D01*
X27761905Y-39204819D02*
X27761905Y-38204819D01*
X27761905Y-38204819D02*
X28000000Y-38204819D01*
X28000000Y-38204819D02*
X28142857Y-38252438D01*
X28142857Y-38252438D02*
X28238095Y-38347676D01*
X28238095Y-38347676D02*
X28285714Y-38442914D01*
X28285714Y-38442914D02*
X28333333Y-38633390D01*
X28333333Y-38633390D02*
X28333333Y-38776247D01*
X28333333Y-38776247D02*
X28285714Y-38966723D01*
X28285714Y-38966723D02*
X28238095Y-39061961D01*
X28238095Y-39061961D02*
X28142857Y-39157200D01*
X28142857Y-39157200D02*
X28000000Y-39204819D01*
X28000000Y-39204819D02*
X27761905Y-39204819D01*
X25738095Y-34804819D02*
X26309523Y-34804819D01*
X26023809Y-35804819D02*
X26023809Y-34804819D01*
X26642857Y-35804819D02*
X26642857Y-34804819D01*
X26642857Y-34804819D02*
X27023809Y-34804819D01*
X27023809Y-34804819D02*
X27119047Y-34852438D01*
X27119047Y-34852438D02*
X27166666Y-34900057D01*
X27166666Y-34900057D02*
X27214285Y-34995295D01*
X27214285Y-34995295D02*
X27214285Y-35138152D01*
X27214285Y-35138152D02*
X27166666Y-35233390D01*
X27166666Y-35233390D02*
X27119047Y-35281009D01*
X27119047Y-35281009D02*
X27023809Y-35328628D01*
X27023809Y-35328628D02*
X26642857Y-35328628D01*
X28071428Y-34804819D02*
X27880952Y-34804819D01*
X27880952Y-34804819D02*
X27785714Y-34852438D01*
X27785714Y-34852438D02*
X27738095Y-34900057D01*
X27738095Y-34900057D02*
X27642857Y-35042914D01*
X27642857Y-35042914D02*
X27595238Y-35233390D01*
X27595238Y-35233390D02*
X27595238Y-35614342D01*
X27595238Y-35614342D02*
X27642857Y-35709580D01*
X27642857Y-35709580D02*
X27690476Y-35757200D01*
X27690476Y-35757200D02*
X27785714Y-35804819D01*
X27785714Y-35804819D02*
X27976190Y-35804819D01*
X27976190Y-35804819D02*
X28071428Y-35757200D01*
X28071428Y-35757200D02*
X28119047Y-35709580D01*
X28119047Y-35709580D02*
X28166666Y-35614342D01*
X28166666Y-35614342D02*
X28166666Y-35376247D01*
X28166666Y-35376247D02*
X28119047Y-35281009D01*
X28119047Y-35281009D02*
X28071428Y-35233390D01*
X28071428Y-35233390D02*
X27976190Y-35185771D01*
X27976190Y-35185771D02*
X27785714Y-35185771D01*
X27785714Y-35185771D02*
X27690476Y-35233390D01*
X27690476Y-35233390D02*
X27642857Y-35281009D01*
X27642857Y-35281009D02*
X27595238Y-35376247D01*
X63119048Y-64994819D02*
X63119048Y-63994819D01*
X63547619Y-64090057D02*
X63595238Y-64042438D01*
X63595238Y-64042438D02*
X63690476Y-63994819D01*
X63690476Y-63994819D02*
X63928571Y-63994819D01*
X63928571Y-63994819D02*
X64023809Y-64042438D01*
X64023809Y-64042438D02*
X64071428Y-64090057D01*
X64071428Y-64090057D02*
X64119047Y-64185295D01*
X64119047Y-64185295D02*
X64119047Y-64280533D01*
X64119047Y-64280533D02*
X64071428Y-64423390D01*
X64071428Y-64423390D02*
X63500000Y-64994819D01*
X63500000Y-64994819D02*
X64119047Y-64994819D01*
X64500000Y-64947200D02*
X64642857Y-64994819D01*
X64642857Y-64994819D02*
X64880952Y-64994819D01*
X64880952Y-64994819D02*
X64976190Y-64947200D01*
X64976190Y-64947200D02*
X65023809Y-64899580D01*
X65023809Y-64899580D02*
X65071428Y-64804342D01*
X65071428Y-64804342D02*
X65071428Y-64709104D01*
X65071428Y-64709104D02*
X65023809Y-64613866D01*
X65023809Y-64613866D02*
X64976190Y-64566247D01*
X64976190Y-64566247D02*
X64880952Y-64518628D01*
X64880952Y-64518628D02*
X64690476Y-64471009D01*
X64690476Y-64471009D02*
X64595238Y-64423390D01*
X64595238Y-64423390D02*
X64547619Y-64375771D01*
X64547619Y-64375771D02*
X64500000Y-64280533D01*
X64500000Y-64280533D02*
X64500000Y-64185295D01*
X64500000Y-64185295D02*
X64547619Y-64090057D01*
X64547619Y-64090057D02*
X64595238Y-64042438D01*
X64595238Y-64042438D02*
X64690476Y-63994819D01*
X64690476Y-63994819D02*
X64928571Y-63994819D01*
X64928571Y-63994819D02*
X65071428Y-64042438D01*
X66261905Y-64994819D02*
X66261905Y-63994819D01*
X66261905Y-63994819D02*
X66595238Y-64709104D01*
X66595238Y-64709104D02*
X66928571Y-63994819D01*
X66928571Y-63994819D02*
X66928571Y-64994819D01*
X67404762Y-64994819D02*
X67404762Y-64328152D01*
X67404762Y-63994819D02*
X67357143Y-64042438D01*
X67357143Y-64042438D02*
X67404762Y-64090057D01*
X67404762Y-64090057D02*
X67452381Y-64042438D01*
X67452381Y-64042438D02*
X67404762Y-63994819D01*
X67404762Y-63994819D02*
X67404762Y-64090057D01*
X68309523Y-64947200D02*
X68214285Y-64994819D01*
X68214285Y-64994819D02*
X68023809Y-64994819D01*
X68023809Y-64994819D02*
X67928571Y-64947200D01*
X67928571Y-64947200D02*
X67880952Y-64899580D01*
X67880952Y-64899580D02*
X67833333Y-64804342D01*
X67833333Y-64804342D02*
X67833333Y-64518628D01*
X67833333Y-64518628D02*
X67880952Y-64423390D01*
X67880952Y-64423390D02*
X67928571Y-64375771D01*
X67928571Y-64375771D02*
X68023809Y-64328152D01*
X68023809Y-64328152D02*
X68214285Y-64328152D01*
X68214285Y-64328152D02*
X68309523Y-64375771D01*
X69785714Y-65375771D02*
X69738095Y-65328152D01*
X69738095Y-65328152D02*
X69642857Y-65185295D01*
X69642857Y-65185295D02*
X69595238Y-65090057D01*
X69595238Y-65090057D02*
X69547619Y-64947200D01*
X69547619Y-64947200D02*
X69500000Y-64709104D01*
X69500000Y-64709104D02*
X69500000Y-64518628D01*
X69500000Y-64518628D02*
X69547619Y-64280533D01*
X69547619Y-64280533D02*
X69595238Y-64137676D01*
X69595238Y-64137676D02*
X69642857Y-64042438D01*
X69642857Y-64042438D02*
X69738095Y-63899580D01*
X69738095Y-63899580D02*
X69785714Y-63851961D01*
X70166667Y-64994819D02*
X70166667Y-63994819D01*
X70642857Y-64994819D02*
X70642857Y-63994819D01*
X70642857Y-63994819D02*
X71214285Y-64994819D01*
X71214285Y-64994819D02*
X71214285Y-63994819D01*
X71690476Y-64994819D02*
X71690476Y-63994819D01*
X71690476Y-63994819D02*
X72023809Y-64709104D01*
X72023809Y-64709104D02*
X72357142Y-63994819D01*
X72357142Y-63994819D02*
X72357142Y-64994819D01*
X72833333Y-64994819D02*
X72833333Y-63994819D01*
X72833333Y-63994819D02*
X73214285Y-63994819D01*
X73214285Y-63994819D02*
X73309523Y-64042438D01*
X73309523Y-64042438D02*
X73357142Y-64090057D01*
X73357142Y-64090057D02*
X73404761Y-64185295D01*
X73404761Y-64185295D02*
X73404761Y-64328152D01*
X73404761Y-64328152D02*
X73357142Y-64423390D01*
X73357142Y-64423390D02*
X73309523Y-64471009D01*
X73309523Y-64471009D02*
X73214285Y-64518628D01*
X73214285Y-64518628D02*
X72833333Y-64518628D01*
X74261904Y-64328152D02*
X74261904Y-64994819D01*
X74023809Y-63947200D02*
X73785714Y-64661485D01*
X73785714Y-64661485D02*
X74404761Y-64661485D01*
X75214285Y-64328152D02*
X75214285Y-64994819D01*
X74976190Y-63947200D02*
X74738095Y-64661485D01*
X74738095Y-64661485D02*
X75357142Y-64661485D01*
X76261904Y-64994819D02*
X75690476Y-64994819D01*
X75976190Y-64994819D02*
X75976190Y-63994819D01*
X75976190Y-63994819D02*
X75880952Y-64137676D01*
X75880952Y-64137676D02*
X75785714Y-64232914D01*
X75785714Y-64232914D02*
X75690476Y-64280533D01*
X76595238Y-65375771D02*
X76642857Y-65328152D01*
X76642857Y-65328152D02*
X76738095Y-65185295D01*
X76738095Y-65185295D02*
X76785714Y-65090057D01*
X76785714Y-65090057D02*
X76833333Y-64947200D01*
X76833333Y-64947200D02*
X76880952Y-64709104D01*
X76880952Y-64709104D02*
X76880952Y-64518628D01*
X76880952Y-64518628D02*
X76833333Y-64280533D01*
X76833333Y-64280533D02*
X76785714Y-64137676D01*
X76785714Y-64137676D02*
X76738095Y-64042438D01*
X76738095Y-64042438D02*
X76642857Y-63899580D01*
X76642857Y-63899580D02*
X76595238Y-63851961D01*
X69454819Y-57413333D02*
X70169104Y-57413333D01*
X70169104Y-57413333D02*
X70311961Y-57460952D01*
X70311961Y-57460952D02*
X70407200Y-57556190D01*
X70407200Y-57556190D02*
X70454819Y-57699047D01*
X70454819Y-57699047D02*
X70454819Y-57794285D01*
X69788152Y-56508571D02*
X70454819Y-56508571D01*
X69407200Y-56746666D02*
X70121485Y-56984761D01*
X70121485Y-56984761D02*
X70121485Y-56365714D01*
X31809524Y-39157200D02*
X31952381Y-39204819D01*
X31952381Y-39204819D02*
X32190476Y-39204819D01*
X32190476Y-39204819D02*
X32285714Y-39157200D01*
X32285714Y-39157200D02*
X32333333Y-39109580D01*
X32333333Y-39109580D02*
X32380952Y-39014342D01*
X32380952Y-39014342D02*
X32380952Y-38919104D01*
X32380952Y-38919104D02*
X32333333Y-38823866D01*
X32333333Y-38823866D02*
X32285714Y-38776247D01*
X32285714Y-38776247D02*
X32190476Y-38728628D01*
X32190476Y-38728628D02*
X32000000Y-38681009D01*
X32000000Y-38681009D02*
X31904762Y-38633390D01*
X31904762Y-38633390D02*
X31857143Y-38585771D01*
X31857143Y-38585771D02*
X31809524Y-38490533D01*
X31809524Y-38490533D02*
X31809524Y-38395295D01*
X31809524Y-38395295D02*
X31857143Y-38300057D01*
X31857143Y-38300057D02*
X31904762Y-38252438D01*
X31904762Y-38252438D02*
X32000000Y-38204819D01*
X32000000Y-38204819D02*
X32238095Y-38204819D01*
X32238095Y-38204819D02*
X32380952Y-38252438D01*
X33380952Y-39109580D02*
X33333333Y-39157200D01*
X33333333Y-39157200D02*
X33190476Y-39204819D01*
X33190476Y-39204819D02*
X33095238Y-39204819D01*
X33095238Y-39204819D02*
X32952381Y-39157200D01*
X32952381Y-39157200D02*
X32857143Y-39061961D01*
X32857143Y-39061961D02*
X32809524Y-38966723D01*
X32809524Y-38966723D02*
X32761905Y-38776247D01*
X32761905Y-38776247D02*
X32761905Y-38633390D01*
X32761905Y-38633390D02*
X32809524Y-38442914D01*
X32809524Y-38442914D02*
X32857143Y-38347676D01*
X32857143Y-38347676D02*
X32952381Y-38252438D01*
X32952381Y-38252438D02*
X33095238Y-38204819D01*
X33095238Y-38204819D02*
X33190476Y-38204819D01*
X33190476Y-38204819D02*
X33333333Y-38252438D01*
X33333333Y-38252438D02*
X33380952Y-38300057D01*
X34285714Y-39204819D02*
X33809524Y-39204819D01*
X33809524Y-39204819D02*
X33809524Y-38204819D01*
X31738095Y-34804819D02*
X32309523Y-34804819D01*
X32023809Y-35804819D02*
X32023809Y-34804819D01*
X32642857Y-35804819D02*
X32642857Y-34804819D01*
X32642857Y-34804819D02*
X33023809Y-34804819D01*
X33023809Y-34804819D02*
X33119047Y-34852438D01*
X33119047Y-34852438D02*
X33166666Y-34900057D01*
X33166666Y-34900057D02*
X33214285Y-34995295D01*
X33214285Y-34995295D02*
X33214285Y-35138152D01*
X33214285Y-35138152D02*
X33166666Y-35233390D01*
X33166666Y-35233390D02*
X33119047Y-35281009D01*
X33119047Y-35281009D02*
X33023809Y-35328628D01*
X33023809Y-35328628D02*
X32642857Y-35328628D01*
X33785714Y-35233390D02*
X33690476Y-35185771D01*
X33690476Y-35185771D02*
X33642857Y-35138152D01*
X33642857Y-35138152D02*
X33595238Y-35042914D01*
X33595238Y-35042914D02*
X33595238Y-34995295D01*
X33595238Y-34995295D02*
X33642857Y-34900057D01*
X33642857Y-34900057D02*
X33690476Y-34852438D01*
X33690476Y-34852438D02*
X33785714Y-34804819D01*
X33785714Y-34804819D02*
X33976190Y-34804819D01*
X33976190Y-34804819D02*
X34071428Y-34852438D01*
X34071428Y-34852438D02*
X34119047Y-34900057D01*
X34119047Y-34900057D02*
X34166666Y-34995295D01*
X34166666Y-34995295D02*
X34166666Y-35042914D01*
X34166666Y-35042914D02*
X34119047Y-35138152D01*
X34119047Y-35138152D02*
X34071428Y-35185771D01*
X34071428Y-35185771D02*
X33976190Y-35233390D01*
X33976190Y-35233390D02*
X33785714Y-35233390D01*
X33785714Y-35233390D02*
X33690476Y-35281009D01*
X33690476Y-35281009D02*
X33642857Y-35328628D01*
X33642857Y-35328628D02*
X33595238Y-35423866D01*
X33595238Y-35423866D02*
X33595238Y-35614342D01*
X33595238Y-35614342D02*
X33642857Y-35709580D01*
X33642857Y-35709580D02*
X33690476Y-35757200D01*
X33690476Y-35757200D02*
X33785714Y-35804819D01*
X33785714Y-35804819D02*
X33976190Y-35804819D01*
X33976190Y-35804819D02*
X34071428Y-35757200D01*
X34071428Y-35757200D02*
X34119047Y-35709580D01*
X34119047Y-35709580D02*
X34166666Y-35614342D01*
X34166666Y-35614342D02*
X34166666Y-35423866D01*
X34166666Y-35423866D02*
X34119047Y-35328628D01*
X34119047Y-35328628D02*
X34071428Y-35281009D01*
X34071428Y-35281009D02*
X33976190Y-35233390D01*
X38999999Y-67629104D02*
X39476189Y-67629104D01*
X38904761Y-67914819D02*
X39238094Y-66914819D01*
X39238094Y-66914819D02*
X39571427Y-67914819D01*
X39904761Y-67248152D02*
X39904761Y-67914819D01*
X39904761Y-67343390D02*
X39952380Y-67295771D01*
X39952380Y-67295771D02*
X40047618Y-67248152D01*
X40047618Y-67248152D02*
X40190475Y-67248152D01*
X40190475Y-67248152D02*
X40285713Y-67295771D01*
X40285713Y-67295771D02*
X40333332Y-67391009D01*
X40333332Y-67391009D02*
X40333332Y-67914819D01*
X41238094Y-67914819D02*
X41238094Y-67391009D01*
X41238094Y-67391009D02*
X41190475Y-67295771D01*
X41190475Y-67295771D02*
X41095237Y-67248152D01*
X41095237Y-67248152D02*
X40904761Y-67248152D01*
X40904761Y-67248152D02*
X40809523Y-67295771D01*
X41238094Y-67867200D02*
X41142856Y-67914819D01*
X41142856Y-67914819D02*
X40904761Y-67914819D01*
X40904761Y-67914819D02*
X40809523Y-67867200D01*
X40809523Y-67867200D02*
X40761904Y-67771961D01*
X40761904Y-67771961D02*
X40761904Y-67676723D01*
X40761904Y-67676723D02*
X40809523Y-67581485D01*
X40809523Y-67581485D02*
X40904761Y-67533866D01*
X40904761Y-67533866D02*
X41142856Y-67533866D01*
X41142856Y-67533866D02*
X41238094Y-67486247D01*
X41857142Y-67914819D02*
X41761904Y-67867200D01*
X41761904Y-67867200D02*
X41714285Y-67771961D01*
X41714285Y-67771961D02*
X41714285Y-66914819D01*
X42380952Y-67914819D02*
X42285714Y-67867200D01*
X42285714Y-67867200D02*
X42238095Y-67819580D01*
X42238095Y-67819580D02*
X42190476Y-67724342D01*
X42190476Y-67724342D02*
X42190476Y-67438628D01*
X42190476Y-67438628D02*
X42238095Y-67343390D01*
X42238095Y-67343390D02*
X42285714Y-67295771D01*
X42285714Y-67295771D02*
X42380952Y-67248152D01*
X42380952Y-67248152D02*
X42523809Y-67248152D01*
X42523809Y-67248152D02*
X42619047Y-67295771D01*
X42619047Y-67295771D02*
X42666666Y-67343390D01*
X42666666Y-67343390D02*
X42714285Y-67438628D01*
X42714285Y-67438628D02*
X42714285Y-67724342D01*
X42714285Y-67724342D02*
X42666666Y-67819580D01*
X42666666Y-67819580D02*
X42619047Y-67867200D01*
X42619047Y-67867200D02*
X42523809Y-67914819D01*
X42523809Y-67914819D02*
X42380952Y-67914819D01*
X43571428Y-67248152D02*
X43571428Y-68057676D01*
X43571428Y-68057676D02*
X43523809Y-68152914D01*
X43523809Y-68152914D02*
X43476190Y-68200533D01*
X43476190Y-68200533D02*
X43380952Y-68248152D01*
X43380952Y-68248152D02*
X43238095Y-68248152D01*
X43238095Y-68248152D02*
X43142857Y-68200533D01*
X43571428Y-67867200D02*
X43476190Y-67914819D01*
X43476190Y-67914819D02*
X43285714Y-67914819D01*
X43285714Y-67914819D02*
X43190476Y-67867200D01*
X43190476Y-67867200D02*
X43142857Y-67819580D01*
X43142857Y-67819580D02*
X43095238Y-67724342D01*
X43095238Y-67724342D02*
X43095238Y-67438628D01*
X43095238Y-67438628D02*
X43142857Y-67343390D01*
X43142857Y-67343390D02*
X43190476Y-67295771D01*
X43190476Y-67295771D02*
X43285714Y-67248152D01*
X43285714Y-67248152D02*
X43476190Y-67248152D01*
X43476190Y-67248152D02*
X43571428Y-67295771D01*
X44761905Y-67867200D02*
X44904762Y-67914819D01*
X44904762Y-67914819D02*
X45142857Y-67914819D01*
X45142857Y-67914819D02*
X45238095Y-67867200D01*
X45238095Y-67867200D02*
X45285714Y-67819580D01*
X45285714Y-67819580D02*
X45333333Y-67724342D01*
X45333333Y-67724342D02*
X45333333Y-67629104D01*
X45333333Y-67629104D02*
X45285714Y-67533866D01*
X45285714Y-67533866D02*
X45238095Y-67486247D01*
X45238095Y-67486247D02*
X45142857Y-67438628D01*
X45142857Y-67438628D02*
X44952381Y-67391009D01*
X44952381Y-67391009D02*
X44857143Y-67343390D01*
X44857143Y-67343390D02*
X44809524Y-67295771D01*
X44809524Y-67295771D02*
X44761905Y-67200533D01*
X44761905Y-67200533D02*
X44761905Y-67105295D01*
X44761905Y-67105295D02*
X44809524Y-67010057D01*
X44809524Y-67010057D02*
X44857143Y-66962438D01*
X44857143Y-66962438D02*
X44952381Y-66914819D01*
X44952381Y-66914819D02*
X45190476Y-66914819D01*
X45190476Y-66914819D02*
X45333333Y-66962438D01*
X46142857Y-67867200D02*
X46047619Y-67914819D01*
X46047619Y-67914819D02*
X45857143Y-67914819D01*
X45857143Y-67914819D02*
X45761905Y-67867200D01*
X45761905Y-67867200D02*
X45714286Y-67771961D01*
X45714286Y-67771961D02*
X45714286Y-67391009D01*
X45714286Y-67391009D02*
X45761905Y-67295771D01*
X45761905Y-67295771D02*
X45857143Y-67248152D01*
X45857143Y-67248152D02*
X46047619Y-67248152D01*
X46047619Y-67248152D02*
X46142857Y-67295771D01*
X46142857Y-67295771D02*
X46190476Y-67391009D01*
X46190476Y-67391009D02*
X46190476Y-67486247D01*
X46190476Y-67486247D02*
X45714286Y-67581485D01*
X46619048Y-67248152D02*
X46619048Y-67914819D01*
X46619048Y-67343390D02*
X46666667Y-67295771D01*
X46666667Y-67295771D02*
X46761905Y-67248152D01*
X46761905Y-67248152D02*
X46904762Y-67248152D01*
X46904762Y-67248152D02*
X47000000Y-67295771D01*
X47000000Y-67295771D02*
X47047619Y-67391009D01*
X47047619Y-67391009D02*
X47047619Y-67914819D01*
X47476191Y-67867200D02*
X47571429Y-67914819D01*
X47571429Y-67914819D02*
X47761905Y-67914819D01*
X47761905Y-67914819D02*
X47857143Y-67867200D01*
X47857143Y-67867200D02*
X47904762Y-67771961D01*
X47904762Y-67771961D02*
X47904762Y-67724342D01*
X47904762Y-67724342D02*
X47857143Y-67629104D01*
X47857143Y-67629104D02*
X47761905Y-67581485D01*
X47761905Y-67581485D02*
X47619048Y-67581485D01*
X47619048Y-67581485D02*
X47523810Y-67533866D01*
X47523810Y-67533866D02*
X47476191Y-67438628D01*
X47476191Y-67438628D02*
X47476191Y-67391009D01*
X47476191Y-67391009D02*
X47523810Y-67295771D01*
X47523810Y-67295771D02*
X47619048Y-67248152D01*
X47619048Y-67248152D02*
X47761905Y-67248152D01*
X47761905Y-67248152D02*
X47857143Y-67295771D01*
X48476191Y-67914819D02*
X48380953Y-67867200D01*
X48380953Y-67867200D02*
X48333334Y-67819580D01*
X48333334Y-67819580D02*
X48285715Y-67724342D01*
X48285715Y-67724342D02*
X48285715Y-67438628D01*
X48285715Y-67438628D02*
X48333334Y-67343390D01*
X48333334Y-67343390D02*
X48380953Y-67295771D01*
X48380953Y-67295771D02*
X48476191Y-67248152D01*
X48476191Y-67248152D02*
X48619048Y-67248152D01*
X48619048Y-67248152D02*
X48714286Y-67295771D01*
X48714286Y-67295771D02*
X48761905Y-67343390D01*
X48761905Y-67343390D02*
X48809524Y-67438628D01*
X48809524Y-67438628D02*
X48809524Y-67724342D01*
X48809524Y-67724342D02*
X48761905Y-67819580D01*
X48761905Y-67819580D02*
X48714286Y-67867200D01*
X48714286Y-67867200D02*
X48619048Y-67914819D01*
X48619048Y-67914819D02*
X48476191Y-67914819D01*
X49238096Y-67914819D02*
X49238096Y-67248152D01*
X49238096Y-67438628D02*
X49285715Y-67343390D01*
X49285715Y-67343390D02*
X49333334Y-67295771D01*
X49333334Y-67295771D02*
X49428572Y-67248152D01*
X49428572Y-67248152D02*
X49523810Y-67248152D01*
X50619049Y-67914819D02*
X50619049Y-66914819D01*
X50619049Y-66914819D02*
X51000001Y-66914819D01*
X51000001Y-66914819D02*
X51095239Y-66962438D01*
X51095239Y-66962438D02*
X51142858Y-67010057D01*
X51142858Y-67010057D02*
X51190477Y-67105295D01*
X51190477Y-67105295D02*
X51190477Y-67248152D01*
X51190477Y-67248152D02*
X51142858Y-67343390D01*
X51142858Y-67343390D02*
X51095239Y-67391009D01*
X51095239Y-67391009D02*
X51000001Y-67438628D01*
X51000001Y-67438628D02*
X50619049Y-67438628D01*
X52047620Y-67914819D02*
X52047620Y-67391009D01*
X52047620Y-67391009D02*
X52000001Y-67295771D01*
X52000001Y-67295771D02*
X51904763Y-67248152D01*
X51904763Y-67248152D02*
X51714287Y-67248152D01*
X51714287Y-67248152D02*
X51619049Y-67295771D01*
X52047620Y-67867200D02*
X51952382Y-67914819D01*
X51952382Y-67914819D02*
X51714287Y-67914819D01*
X51714287Y-67914819D02*
X51619049Y-67867200D01*
X51619049Y-67867200D02*
X51571430Y-67771961D01*
X51571430Y-67771961D02*
X51571430Y-67676723D01*
X51571430Y-67676723D02*
X51619049Y-67581485D01*
X51619049Y-67581485D02*
X51714287Y-67533866D01*
X51714287Y-67533866D02*
X51952382Y-67533866D01*
X51952382Y-67533866D02*
X52047620Y-67486247D01*
X52952382Y-67914819D02*
X52952382Y-66914819D01*
X52952382Y-67867200D02*
X52857144Y-67914819D01*
X52857144Y-67914819D02*
X52666668Y-67914819D01*
X52666668Y-67914819D02*
X52571430Y-67867200D01*
X52571430Y-67867200D02*
X52523811Y-67819580D01*
X52523811Y-67819580D02*
X52476192Y-67724342D01*
X52476192Y-67724342D02*
X52476192Y-67438628D01*
X52476192Y-67438628D02*
X52523811Y-67343390D01*
X52523811Y-67343390D02*
X52571430Y-67295771D01*
X52571430Y-67295771D02*
X52666668Y-67248152D01*
X52666668Y-67248152D02*
X52857144Y-67248152D01*
X52857144Y-67248152D02*
X52952382Y-67295771D01*
X45454819Y-62873333D02*
X46169104Y-62873333D01*
X46169104Y-62873333D02*
X46311961Y-62920952D01*
X46311961Y-62920952D02*
X46407200Y-63016190D01*
X46407200Y-63016190D02*
X46454819Y-63159047D01*
X46454819Y-63159047D02*
X46454819Y-63254285D01*
X45883390Y-62254285D02*
X45835771Y-62349523D01*
X45835771Y-62349523D02*
X45788152Y-62397142D01*
X45788152Y-62397142D02*
X45692914Y-62444761D01*
X45692914Y-62444761D02*
X45645295Y-62444761D01*
X45645295Y-62444761D02*
X45550057Y-62397142D01*
X45550057Y-62397142D02*
X45502438Y-62349523D01*
X45502438Y-62349523D02*
X45454819Y-62254285D01*
X45454819Y-62254285D02*
X45454819Y-62063809D01*
X45454819Y-62063809D02*
X45502438Y-61968571D01*
X45502438Y-61968571D02*
X45550057Y-61920952D01*
X45550057Y-61920952D02*
X45645295Y-61873333D01*
X45645295Y-61873333D02*
X45692914Y-61873333D01*
X45692914Y-61873333D02*
X45788152Y-61920952D01*
X45788152Y-61920952D02*
X45835771Y-61968571D01*
X45835771Y-61968571D02*
X45883390Y-62063809D01*
X45883390Y-62063809D02*
X45883390Y-62254285D01*
X45883390Y-62254285D02*
X45931009Y-62349523D01*
X45931009Y-62349523D02*
X45978628Y-62397142D01*
X45978628Y-62397142D02*
X46073866Y-62444761D01*
X46073866Y-62444761D02*
X46264342Y-62444761D01*
X46264342Y-62444761D02*
X46359580Y-62397142D01*
X46359580Y-62397142D02*
X46407200Y-62349523D01*
X46407200Y-62349523D02*
X46454819Y-62254285D01*
X46454819Y-62254285D02*
X46454819Y-62063809D01*
X46454819Y-62063809D02*
X46407200Y-61968571D01*
X46407200Y-61968571D02*
X46359580Y-61920952D01*
X46359580Y-61920952D02*
X46264342Y-61873333D01*
X46264342Y-61873333D02*
X46073866Y-61873333D01*
X46073866Y-61873333D02*
X45978628Y-61920952D01*
X45978628Y-61920952D02*
X45931009Y-61968571D01*
X45931009Y-61968571D02*
X45883390Y-62063809D01*
X23738093Y-65374819D02*
X23404760Y-64898628D01*
X23166665Y-65374819D02*
X23166665Y-64374819D01*
X23166665Y-64374819D02*
X23547617Y-64374819D01*
X23547617Y-64374819D02*
X23642855Y-64422438D01*
X23642855Y-64422438D02*
X23690474Y-64470057D01*
X23690474Y-64470057D02*
X23738093Y-64565295D01*
X23738093Y-64565295D02*
X23738093Y-64708152D01*
X23738093Y-64708152D02*
X23690474Y-64803390D01*
X23690474Y-64803390D02*
X23642855Y-64851009D01*
X23642855Y-64851009D02*
X23547617Y-64898628D01*
X23547617Y-64898628D02*
X23166665Y-64898628D01*
X24547617Y-65327200D02*
X24452379Y-65374819D01*
X24452379Y-65374819D02*
X24261903Y-65374819D01*
X24261903Y-65374819D02*
X24166665Y-65327200D01*
X24166665Y-65327200D02*
X24119046Y-65231961D01*
X24119046Y-65231961D02*
X24119046Y-64851009D01*
X24119046Y-64851009D02*
X24166665Y-64755771D01*
X24166665Y-64755771D02*
X24261903Y-64708152D01*
X24261903Y-64708152D02*
X24452379Y-64708152D01*
X24452379Y-64708152D02*
X24547617Y-64755771D01*
X24547617Y-64755771D02*
X24595236Y-64851009D01*
X24595236Y-64851009D02*
X24595236Y-64946247D01*
X24595236Y-64946247D02*
X24119046Y-65041485D01*
X25404760Y-65327200D02*
X25309522Y-65374819D01*
X25309522Y-65374819D02*
X25119046Y-65374819D01*
X25119046Y-65374819D02*
X25023808Y-65327200D01*
X25023808Y-65327200D02*
X24976189Y-65231961D01*
X24976189Y-65231961D02*
X24976189Y-64851009D01*
X24976189Y-64851009D02*
X25023808Y-64755771D01*
X25023808Y-64755771D02*
X25119046Y-64708152D01*
X25119046Y-64708152D02*
X25309522Y-64708152D01*
X25309522Y-64708152D02*
X25404760Y-64755771D01*
X25404760Y-64755771D02*
X25452379Y-64851009D01*
X25452379Y-64851009D02*
X25452379Y-64946247D01*
X25452379Y-64946247D02*
X24976189Y-65041485D01*
X26309522Y-65374819D02*
X26309522Y-64374819D01*
X26309522Y-65327200D02*
X26214284Y-65374819D01*
X26214284Y-65374819D02*
X26023808Y-65374819D01*
X26023808Y-65374819D02*
X25928570Y-65327200D01*
X25928570Y-65327200D02*
X25880951Y-65279580D01*
X25880951Y-65279580D02*
X25833332Y-65184342D01*
X25833332Y-65184342D02*
X25833332Y-64898628D01*
X25833332Y-64898628D02*
X25880951Y-64803390D01*
X25880951Y-64803390D02*
X25928570Y-64755771D01*
X25928570Y-64755771D02*
X26023808Y-64708152D01*
X26023808Y-64708152D02*
X26214284Y-64708152D01*
X26214284Y-64708152D02*
X26309522Y-64755771D01*
X27499998Y-64327200D02*
X26642856Y-65612914D01*
X27833332Y-65374819D02*
X27833332Y-64374819D01*
X27833332Y-64851009D02*
X28404760Y-64851009D01*
X28404760Y-65374819D02*
X28404760Y-64374819D01*
X29309522Y-65374819D02*
X29309522Y-64851009D01*
X29309522Y-64851009D02*
X29261903Y-64755771D01*
X29261903Y-64755771D02*
X29166665Y-64708152D01*
X29166665Y-64708152D02*
X28976189Y-64708152D01*
X28976189Y-64708152D02*
X28880951Y-64755771D01*
X29309522Y-65327200D02*
X29214284Y-65374819D01*
X29214284Y-65374819D02*
X28976189Y-65374819D01*
X28976189Y-65374819D02*
X28880951Y-65327200D01*
X28880951Y-65327200D02*
X28833332Y-65231961D01*
X28833332Y-65231961D02*
X28833332Y-65136723D01*
X28833332Y-65136723D02*
X28880951Y-65041485D01*
X28880951Y-65041485D02*
X28976189Y-64993866D01*
X28976189Y-64993866D02*
X29214284Y-64993866D01*
X29214284Y-64993866D02*
X29309522Y-64946247D01*
X29928570Y-65374819D02*
X29833332Y-65327200D01*
X29833332Y-65327200D02*
X29785713Y-65231961D01*
X29785713Y-65231961D02*
X29785713Y-64374819D01*
X30452380Y-65374819D02*
X30357142Y-65327200D01*
X30357142Y-65327200D02*
X30309523Y-65231961D01*
X30309523Y-65231961D02*
X30309523Y-64374819D01*
X32166666Y-65279580D02*
X32119047Y-65327200D01*
X32119047Y-65327200D02*
X31976190Y-65374819D01*
X31976190Y-65374819D02*
X31880952Y-65374819D01*
X31880952Y-65374819D02*
X31738095Y-65327200D01*
X31738095Y-65327200D02*
X31642857Y-65231961D01*
X31642857Y-65231961D02*
X31595238Y-65136723D01*
X31595238Y-65136723D02*
X31547619Y-64946247D01*
X31547619Y-64946247D02*
X31547619Y-64803390D01*
X31547619Y-64803390D02*
X31595238Y-64612914D01*
X31595238Y-64612914D02*
X31642857Y-64517676D01*
X31642857Y-64517676D02*
X31738095Y-64422438D01*
X31738095Y-64422438D02*
X31880952Y-64374819D01*
X31880952Y-64374819D02*
X31976190Y-64374819D01*
X31976190Y-64374819D02*
X32119047Y-64422438D01*
X32119047Y-64422438D02*
X32166666Y-64470057D01*
X32738095Y-65374819D02*
X32642857Y-65327200D01*
X32642857Y-65327200D02*
X32595238Y-65279580D01*
X32595238Y-65279580D02*
X32547619Y-65184342D01*
X32547619Y-65184342D02*
X32547619Y-64898628D01*
X32547619Y-64898628D02*
X32595238Y-64803390D01*
X32595238Y-64803390D02*
X32642857Y-64755771D01*
X32642857Y-64755771D02*
X32738095Y-64708152D01*
X32738095Y-64708152D02*
X32880952Y-64708152D01*
X32880952Y-64708152D02*
X32976190Y-64755771D01*
X32976190Y-64755771D02*
X33023809Y-64803390D01*
X33023809Y-64803390D02*
X33071428Y-64898628D01*
X33071428Y-64898628D02*
X33071428Y-65184342D01*
X33071428Y-65184342D02*
X33023809Y-65279580D01*
X33023809Y-65279580D02*
X32976190Y-65327200D01*
X32976190Y-65327200D02*
X32880952Y-65374819D01*
X32880952Y-65374819D02*
X32738095Y-65374819D01*
X33500000Y-64708152D02*
X33500000Y-65374819D01*
X33500000Y-64803390D02*
X33547619Y-64755771D01*
X33547619Y-64755771D02*
X33642857Y-64708152D01*
X33642857Y-64708152D02*
X33785714Y-64708152D01*
X33785714Y-64708152D02*
X33880952Y-64755771D01*
X33880952Y-64755771D02*
X33928571Y-64851009D01*
X33928571Y-64851009D02*
X33928571Y-65374819D01*
X34261905Y-64708152D02*
X34642857Y-64708152D01*
X34404762Y-64374819D02*
X34404762Y-65231961D01*
X34404762Y-65231961D02*
X34452381Y-65327200D01*
X34452381Y-65327200D02*
X34547619Y-65374819D01*
X34547619Y-65374819D02*
X34642857Y-65374819D01*
X35404762Y-65374819D02*
X35404762Y-64851009D01*
X35404762Y-64851009D02*
X35357143Y-64755771D01*
X35357143Y-64755771D02*
X35261905Y-64708152D01*
X35261905Y-64708152D02*
X35071429Y-64708152D01*
X35071429Y-64708152D02*
X34976191Y-64755771D01*
X35404762Y-65327200D02*
X35309524Y-65374819D01*
X35309524Y-65374819D02*
X35071429Y-65374819D01*
X35071429Y-65374819D02*
X34976191Y-65327200D01*
X34976191Y-65327200D02*
X34928572Y-65231961D01*
X34928572Y-65231961D02*
X34928572Y-65136723D01*
X34928572Y-65136723D02*
X34976191Y-65041485D01*
X34976191Y-65041485D02*
X35071429Y-64993866D01*
X35071429Y-64993866D02*
X35309524Y-64993866D01*
X35309524Y-64993866D02*
X35404762Y-64946247D01*
X36309524Y-65327200D02*
X36214286Y-65374819D01*
X36214286Y-65374819D02*
X36023810Y-65374819D01*
X36023810Y-65374819D02*
X35928572Y-65327200D01*
X35928572Y-65327200D02*
X35880953Y-65279580D01*
X35880953Y-65279580D02*
X35833334Y-65184342D01*
X35833334Y-65184342D02*
X35833334Y-64898628D01*
X35833334Y-64898628D02*
X35880953Y-64803390D01*
X35880953Y-64803390D02*
X35928572Y-64755771D01*
X35928572Y-64755771D02*
X36023810Y-64708152D01*
X36023810Y-64708152D02*
X36214286Y-64708152D01*
X36214286Y-64708152D02*
X36309524Y-64755771D01*
X36595239Y-64708152D02*
X36976191Y-64708152D01*
X36738096Y-64374819D02*
X36738096Y-65231961D01*
X36738096Y-65231961D02*
X36785715Y-65327200D01*
X36785715Y-65327200D02*
X36880953Y-65374819D01*
X36880953Y-65374819D02*
X36976191Y-65374819D01*
X29454819Y-61603333D02*
X30169104Y-61603333D01*
X30169104Y-61603333D02*
X30311961Y-61650952D01*
X30311961Y-61650952D02*
X30407200Y-61746190D01*
X30407200Y-61746190D02*
X30454819Y-61889047D01*
X30454819Y-61889047D02*
X30454819Y-61984285D01*
X29454819Y-60698571D02*
X29454819Y-60889047D01*
X29454819Y-60889047D02*
X29502438Y-60984285D01*
X29502438Y-60984285D02*
X29550057Y-61031904D01*
X29550057Y-61031904D02*
X29692914Y-61127142D01*
X29692914Y-61127142D02*
X29883390Y-61174761D01*
X29883390Y-61174761D02*
X30264342Y-61174761D01*
X30264342Y-61174761D02*
X30359580Y-61127142D01*
X30359580Y-61127142D02*
X30407200Y-61079523D01*
X30407200Y-61079523D02*
X30454819Y-60984285D01*
X30454819Y-60984285D02*
X30454819Y-60793809D01*
X30454819Y-60793809D02*
X30407200Y-60698571D01*
X30407200Y-60698571D02*
X30359580Y-60650952D01*
X30359580Y-60650952D02*
X30264342Y-60603333D01*
X30264342Y-60603333D02*
X30026247Y-60603333D01*
X30026247Y-60603333D02*
X29931009Y-60650952D01*
X29931009Y-60650952D02*
X29883390Y-60698571D01*
X29883390Y-60698571D02*
X29835771Y-60793809D01*
X29835771Y-60793809D02*
X29835771Y-60984285D01*
X29835771Y-60984285D02*
X29883390Y-61079523D01*
X29883390Y-61079523D02*
X29931009Y-61127142D01*
X29931009Y-61127142D02*
X30026247Y-61174761D01*
X34023810Y-18830057D02*
X34071429Y-18782438D01*
X34071429Y-18782438D02*
X34166667Y-18734819D01*
X34166667Y-18734819D02*
X34404762Y-18734819D01*
X34404762Y-18734819D02*
X34500000Y-18782438D01*
X34500000Y-18782438D02*
X34547619Y-18830057D01*
X34547619Y-18830057D02*
X34595238Y-18925295D01*
X34595238Y-18925295D02*
X34595238Y-19020533D01*
X34595238Y-19020533D02*
X34547619Y-19163390D01*
X34547619Y-19163390D02*
X33976191Y-19734819D01*
X33976191Y-19734819D02*
X34595238Y-19734819D01*
X35023810Y-19639580D02*
X35071429Y-19687200D01*
X35071429Y-19687200D02*
X35023810Y-19734819D01*
X35023810Y-19734819D02*
X34976191Y-19687200D01*
X34976191Y-19687200D02*
X35023810Y-19639580D01*
X35023810Y-19639580D02*
X35023810Y-19734819D01*
X35452381Y-18830057D02*
X35500000Y-18782438D01*
X35500000Y-18782438D02*
X35595238Y-18734819D01*
X35595238Y-18734819D02*
X35833333Y-18734819D01*
X35833333Y-18734819D02*
X35928571Y-18782438D01*
X35928571Y-18782438D02*
X35976190Y-18830057D01*
X35976190Y-18830057D02*
X36023809Y-18925295D01*
X36023809Y-18925295D02*
X36023809Y-19020533D01*
X36023809Y-19020533D02*
X35976190Y-19163390D01*
X35976190Y-19163390D02*
X35404762Y-19734819D01*
X35404762Y-19734819D02*
X36023809Y-19734819D01*
X36880952Y-19068152D02*
X36880952Y-19734819D01*
X36452381Y-19068152D02*
X36452381Y-19591961D01*
X36452381Y-19591961D02*
X36500000Y-19687200D01*
X36500000Y-19687200D02*
X36595238Y-19734819D01*
X36595238Y-19734819D02*
X36738095Y-19734819D01*
X36738095Y-19734819D02*
X36833333Y-19687200D01*
X36833333Y-19687200D02*
X36880952Y-19639580D01*
X37357143Y-19734819D02*
X37357143Y-18734819D01*
X37357143Y-19211009D02*
X37928571Y-19211009D01*
X37928571Y-19734819D02*
X37928571Y-18734819D01*
D13*
X35866666Y-17363855D02*
X35485714Y-17363855D01*
X35485714Y-17363855D02*
X35485714Y-16563855D01*
X36552380Y-17363855D02*
X36095237Y-17363855D01*
X36323809Y-17363855D02*
X36323809Y-16563855D01*
X36323809Y-16563855D02*
X36247618Y-16678140D01*
X36247618Y-16678140D02*
X36171428Y-16754331D01*
X36171428Y-16754331D02*
X36095237Y-16792426D01*
%TO.C,J3*%
D14*
X68730000Y-35365000D02*
X69365000Y-34730000D01*
X68730000Y-44890000D02*
X68730000Y-35365000D01*
X69365000Y-34730000D02*
X71270000Y-34730000D01*
X71270000Y-34730000D02*
X71270000Y-44890000D01*
X71270000Y-44890000D02*
X68730000Y-44890000D01*
%TO.C,BZ1*%
X9500000Y-66500000D02*
X9500000Y-74500000D01*
X9500000Y-74500000D02*
X18500000Y-74500000D01*
X10500000Y-65500000D02*
X9500000Y-66500000D01*
X18500000Y-65500000D02*
X10500000Y-65500000D01*
X18500000Y-74500000D02*
X18500000Y-65500000D01*
%TO.C,J5*%
X20730000Y-59365000D02*
X21365000Y-58730000D01*
X20730000Y-63810000D02*
X20730000Y-59365000D01*
X21365000Y-58730000D02*
X23270000Y-58730000D01*
X23270000Y-58730000D02*
X23270000Y-63810000D01*
X23270000Y-63810000D02*
X20730000Y-63810000D01*
%TO.C,SW1*%
X3900000Y-38400000D02*
X3900000Y-41600000D01*
X3900000Y-41600000D02*
X8100000Y-41600000D01*
X5600000Y-38900000D02*
X6400000Y-38900000D01*
X6400000Y-41100000D02*
X5600000Y-41100000D01*
X8100000Y-38400000D02*
X3900000Y-38400000D01*
X8100000Y-41600000D02*
X8100000Y-38400000D01*
X5600000Y-41100000D02*
G75*
G02*
X5600000Y-38900000I0J1100000D01*
G01*
X6400000Y-38900000D02*
G75*
G02*
X6400000Y-41100000I0J-1100000D01*
G01*
%TO.C,U5*%
X39250000Y-42500000D02*
X41500000Y-42500000D01*
X41500000Y-45500000D01*
X38500000Y-45500000D01*
X38500000Y-43250000D01*
X39250000Y-42500000D01*
%TO.C,U4*%
X19950000Y-40950000D02*
X29050000Y-40950000D01*
X29050000Y-51050000D01*
X18950000Y-51050000D01*
X18950000Y-41950000D01*
X19950000Y-40950000D01*
%TO.C,SW2*%
X9900000Y-38400000D02*
X9900000Y-41600000D01*
X9900000Y-41600000D02*
X14100000Y-41600000D01*
X11600000Y-38900000D02*
X12400000Y-38900000D01*
X12400000Y-41100000D02*
X11600000Y-41100000D01*
X14100000Y-38400000D02*
X9900000Y-38400000D01*
X14100000Y-41600000D02*
X14100000Y-38400000D01*
X11600000Y-41100000D02*
G75*
G02*
X11600000Y-38900000I0J1100000D01*
G01*
X12400000Y-38900000D02*
G75*
G02*
X12400000Y-41100000I0J-1100000D01*
G01*
%TO.C,J1*%
X13350000Y-4530000D02*
X20650000Y-4530000D01*
X13350000Y-13470000D02*
X13350000Y-4530000D01*
X13350000Y-13470000D02*
X20650000Y-13470000D01*
X20650000Y-13470000D02*
X20650000Y-4530000D01*
%TO.C,U2*%
X35600000Y-8550000D02*
X36800000Y-8550000D01*
X36800000Y-11450000D01*
X35200000Y-11450000D01*
X35200000Y-8950000D01*
X35600000Y-8550000D01*
%TO.C,U3*%
X49000000Y-13260000D02*
X49000000Y-18980000D01*
X49000000Y-13260000D02*
X67000000Y-13260000D01*
X49000000Y-19980000D02*
X49000000Y-38760000D01*
X49000000Y-19980000D02*
X49500000Y-19480000D01*
X49000000Y-38760000D02*
X67000000Y-38760000D01*
X49500000Y-19480000D02*
X49000000Y-18980000D01*
X67000000Y-38760000D02*
X67000000Y-13260000D01*
%TO.C,U6*%
X51200000Y-45250000D02*
X52800000Y-45250000D01*
X52800000Y-46750000D01*
X51200000Y-46750000D01*
X51200000Y-45250000D01*
%TO.C,J2*%
X68730000Y-19365000D02*
X69365000Y-18730000D01*
X68730000Y-28890000D02*
X68730000Y-19365000D01*
X69365000Y-18730000D02*
X71270000Y-18730000D01*
X71270000Y-18730000D02*
X71270000Y-28890000D01*
X71270000Y-28890000D02*
X68730000Y-28890000D01*
%TO.C,J7*%
X36730000Y-59365000D02*
X37365000Y-58730000D01*
X36730000Y-66350000D02*
X36730000Y-59365000D01*
X37365000Y-58730000D02*
X39270000Y-58730000D01*
X39270000Y-58730000D02*
X39270000Y-66350000D01*
X39270000Y-66350000D02*
X36730000Y-66350000D01*
%TO.C,D1*%
X23500000Y-3500000D02*
X23500000Y-8500000D01*
X23500000Y-8500000D02*
X28500000Y-8500000D01*
X28500000Y-3500000D02*
X23500000Y-3500000D01*
X28500000Y-7500000D02*
X27500000Y-8500000D01*
X28500000Y-8500000D02*
X28500000Y-3500000D01*
X28000000Y-6000000D02*
G75*
G02*
X24000000Y-6000000I-2000000J0D01*
G01*
X24000000Y-6000000D02*
G75*
G02*
X28000000Y-6000000I2000000J0D01*
G01*
%TO.C,J9*%
X54730000Y-59365000D02*
X55365000Y-58730000D01*
X54730000Y-73970000D02*
X54730000Y-59365000D01*
X55365000Y-58730000D02*
X57270000Y-58730000D01*
X57270000Y-58730000D02*
X57270000Y-73970000D01*
X57270000Y-73970000D02*
X54730000Y-73970000D01*
%TO.C,J4*%
X68730000Y-51365000D02*
X69365000Y-50730000D01*
X68730000Y-63430000D02*
X68730000Y-51365000D01*
X69365000Y-50730000D02*
X71270000Y-50730000D01*
X71270000Y-50730000D02*
X71270000Y-63430000D01*
X71270000Y-63430000D02*
X68730000Y-63430000D01*
%TO.C,J8*%
X44730000Y-59365000D02*
X45365000Y-58730000D01*
X44730000Y-66350000D02*
X44730000Y-59365000D01*
X45365000Y-58730000D02*
X47270000Y-58730000D01*
X47270000Y-58730000D02*
X47270000Y-66350000D01*
X47270000Y-66350000D02*
X44730000Y-66350000D01*
%TO.C,J6*%
X28730000Y-59365000D02*
X29365000Y-58730000D01*
X28730000Y-63810000D02*
X28730000Y-59365000D01*
X29365000Y-58730000D02*
X31270000Y-58730000D01*
X31270000Y-58730000D02*
X31270000Y-63810000D01*
X31270000Y-63810000D02*
X28730000Y-63810000D01*
%TO.C,L1*%
X34400000Y-15750000D02*
X37600000Y-15750000D01*
X37600000Y-18250000D01*
X34400000Y-18250000D01*
X34400000Y-15750000D01*
%TD*%
M02*
