%TF.GenerationSoftware,KiCad,Pcbnew,10.0.5*%
%TF.CreationDate,2026-08-07T13:37:17+02:00*%
%TF.ProjectId,wisp,77697370-2e6b-4696-9361-645f70636258,rev?*%
%TF.SameCoordinates,Original*%
%TF.FileFunction,Soldermask,Top*%
%TF.FilePolarity,Negative*%
%FSLAX46Y46*%
G04 Gerber Fmt 4.6, Leading zero omitted, Abs format (unit mm)*
G04 Created by KiCad (PCBNEW 10.0.5) date 2026-08-07 13:37:17*
%MOMM*%
%LPD*%
G01*
G04 APERTURE LIST*
G04 Aperture macros list*
%AMRoundRect*
0 Rectangle with rounded corners*
0 $1 Rounding radius*
0 $2 $3 $4 $5 $6 $7 $8 $9 X,Y pos of 4 corners*
0 Add a 4 corners polygon primitive as box body*
4,1,4,$2,$3,$4,$5,$6,$7,$8,$9,$2,$3,0*
0 Add four circle primitives for the rounded corners*
1,1,$1+$1,$2,$3*
1,1,$1+$1,$4,$5*
1,1,$1+$1,$6,$7*
1,1,$1+$1,$8,$9*
0 Add four rect primitives between the rounded corners*
20,1,$1+$1,$2,$3,$4,$5,0*
20,1,$1+$1,$4,$5,$6,$7,0*
20,1,$1+$1,$6,$7,$8,$9,0*
20,1,$1+$1,$8,$9,$2,$3,0*%
G04 Aperture macros list end*
%ADD10RoundRect,0.150000X-0.587500X-0.150000X0.587500X-0.150000X0.587500X0.150000X-0.587500X0.150000X0*%
%ADD11RoundRect,0.250000X-0.250000X-0.475000X0.250000X-0.475000X0.250000X0.475000X-0.250000X0.475000X0*%
%ADD12R,1.700000X1.700000*%
%ADD13C,1.700000*%
%ADD14RoundRect,0.250000X-0.262500X-0.450000X0.262500X-0.450000X0.262500X0.450000X-0.262500X0.450000X0*%
%ADD15R,1.500000X1.500000*%
%ADD16R,2.000000X4.200000*%
%ADD17R,1.050000X0.650000*%
%ADD18RoundRect,0.050000X-0.150000X-0.300000X0.150000X-0.300000X0.150000X0.300000X-0.150000X0.300000X0*%
%ADD19C,3.200000*%
%ADD20RoundRect,0.125000X-0.125000X-0.137500X0.125000X-0.137500X0.125000X0.137500X-0.125000X0.137500X0*%
%ADD21RoundRect,0.212500X-0.737500X-0.212500X0.737500X-0.212500X0.737500X0.212500X-0.737500X0.212500X0*%
%ADD22RoundRect,0.212500X-0.212500X-0.737500X0.212500X-0.737500X0.212500X0.737500X-0.212500X0.737500X0*%
%ADD23R,4.800000X4.800000*%
%ADD24RoundRect,0.150000X-0.825000X-0.150000X0.825000X-0.150000X0.825000X0.150000X-0.825000X0.150000X0*%
%ADD25C,0.650000*%
%ADD26RoundRect,0.150000X0.575000X-0.150000X0.575000X0.150000X-0.575000X0.150000X-0.575000X-0.150000X0*%
%ADD27RoundRect,0.075000X0.650000X-0.075000X0.650000X0.075000X-0.650000X0.075000X-0.650000X-0.075000X0*%
%ADD28O,2.100000X1.000000*%
%ADD29O,1.600000X1.000000*%
%ADD30RoundRect,0.150000X-0.512500X-0.150000X0.512500X-0.150000X0.512500X0.150000X-0.512500X0.150000X0*%
%ADD31R,1.500000X0.900000*%
%ADD32R,0.900000X1.500000*%
%ADD33C,0.600000*%
%ADD34R,4.200000X4.200000*%
%ADD35RoundRect,0.225000X-0.225000X-0.375000X0.225000X-0.375000X0.225000X0.375000X-0.225000X0.375000X0*%
%ADD36R,0.300000X0.400000*%
%ADD37RoundRect,0.090000X-0.660000X-0.360000X0.660000X-0.360000X0.660000X0.360000X-0.660000X0.360000X0*%
%ADD38RoundRect,0.250000X-0.375000X-0.625000X0.375000X-0.625000X0.375000X0.625000X-0.375000X0.625000X0*%
%ADD39RoundRect,0.250000X-0.375000X-1.075000X0.375000X-1.075000X0.375000X1.075000X-0.375000X1.075000X0*%
G04 APERTURE END LIST*
D10*
%TO.C,Q4*%
X33062500Y-91050000D03*
X33062500Y-92950000D03*
X34937500Y-92000000D03*
%TD*%
D11*
%TO.C,C2*%
X4050000Y-48000000D03*
X5950000Y-48000000D03*
%TD*%
D12*
%TO.C,J3*%
X134000000Y-40190000D03*
D13*
X134000000Y-42730000D03*
X134000000Y-45270000D03*
X134000000Y-47810000D03*
%TD*%
D14*
%TO.C,R11*%
X125087500Y-21000000D03*
X126912500Y-21000000D03*
%TD*%
D15*
%TO.C,TP9*%
X4000000Y-66000000D03*
%TD*%
D16*
%TO.C,BZ1*%
X18000000Y-92000000D03*
X26000000Y-92000000D03*
%TD*%
D14*
%TO.C,R8*%
X55087500Y-68000000D03*
X56912500Y-68000000D03*
%TD*%
D15*
%TO.C,TP3*%
X14000000Y-72000000D03*
%TD*%
D11*
%TO.C,C1*%
X4050000Y-36000000D03*
X5950000Y-36000000D03*
%TD*%
D12*
%TO.C,J5*%
X48000000Y-92725000D03*
D13*
X48000000Y-95265000D03*
%TD*%
D17*
%TO.C,SW1*%
X51925000Y-34925000D03*
X56075000Y-34925000D03*
X51925000Y-37075000D03*
X56075000Y-37075000D03*
%TD*%
D18*
%TO.C,D5*%
X61650000Y-86000000D03*
X62350000Y-86000000D03*
%TD*%
D19*
%TO.C,MH4*%
X134000000Y-94000000D03*
%TD*%
D15*
%TO.C,TP7*%
X14000000Y-60000000D03*
%TD*%
%TO.C,TP2*%
X9000000Y-72000000D03*
%TD*%
D20*
%TO.C,U5*%
X60800000Y-70812500D03*
X61600000Y-70812500D03*
X62400000Y-70812500D03*
X63200000Y-70812500D03*
X63200000Y-73187500D03*
X62400000Y-73187500D03*
X61600000Y-73187500D03*
X60800000Y-73187500D03*
%TD*%
D11*
%TO.C,C10*%
X77050000Y-65000000D03*
X78950000Y-65000000D03*
%TD*%
D21*
%TO.C,U4*%
X41850000Y-71500000D03*
X41850000Y-72750000D03*
X41850000Y-74000000D03*
X41850000Y-75250000D03*
X41850000Y-76500000D03*
D22*
X43500000Y-78150000D03*
X44750000Y-78150000D03*
X46000000Y-78150000D03*
X47250000Y-78150000D03*
X48500000Y-78150000D03*
D21*
X50150000Y-76500000D03*
X50150000Y-75250000D03*
X50150000Y-74000000D03*
X50150000Y-72750000D03*
X50150000Y-71500000D03*
D22*
X48500000Y-69850000D03*
X47250000Y-69850000D03*
X46000000Y-69850000D03*
X44750000Y-69850000D03*
X43500000Y-69850000D03*
D23*
X46000000Y-74000000D03*
%TD*%
D10*
%TO.C,Q2*%
X29062500Y-51050000D03*
X29062500Y-52950000D03*
X30937500Y-52000000D03*
%TD*%
D11*
%TO.C,C11*%
X125050000Y-68000000D03*
X126950000Y-68000000D03*
%TD*%
D14*
%TO.C,R14*%
X81087500Y-86000000D03*
X82912500Y-86000000D03*
%TD*%
D17*
%TO.C,SW2*%
X51925000Y-56925000D03*
X56075000Y-56925000D03*
X51925000Y-59075000D03*
X56075000Y-59075000D03*
%TD*%
D19*
%TO.C,MH1*%
X6000000Y-6000000D03*
%TD*%
D15*
%TO.C,TP10*%
X9000000Y-66000000D03*
%TD*%
D14*
%TO.C,R13*%
X33087500Y-86000000D03*
X34912500Y-86000000D03*
%TD*%
%TO.C,R1*%
X15087500Y-18538100D03*
X16912500Y-18538100D03*
%TD*%
D24*
%TO.C,U1*%
X13525000Y-37555000D03*
X13525000Y-38825000D03*
X13525000Y-40095000D03*
X13525000Y-41365000D03*
X13525000Y-42635000D03*
X13525000Y-43905000D03*
X13525000Y-45175000D03*
X13525000Y-46445000D03*
X18475000Y-46445000D03*
X18475000Y-45175000D03*
X18475000Y-43905000D03*
X18475000Y-42635000D03*
X18475000Y-41365000D03*
X18475000Y-40095000D03*
X18475000Y-38825000D03*
X18475000Y-37555000D03*
%TD*%
D14*
%TO.C,R12*%
X47087500Y-82302600D03*
X48912500Y-82302600D03*
%TD*%
D25*
%TO.C,J1*%
X12840000Y-10890000D03*
X12840000Y-5110000D03*
D26*
X11395000Y-11250000D03*
X11395000Y-10450000D03*
D27*
X11395000Y-9250000D03*
X11395000Y-8250000D03*
X11395000Y-7750000D03*
X11395000Y-6750000D03*
D26*
X11395000Y-5550000D03*
X11395000Y-4750000D03*
X11395000Y-4750000D03*
X11395000Y-5550000D03*
D27*
X11395000Y-6250000D03*
X11395000Y-7250000D03*
X11395000Y-8750000D03*
X11395000Y-9750000D03*
D26*
X11395000Y-10450000D03*
X11395000Y-11250000D03*
D28*
X12310000Y-12320000D03*
D29*
X16490000Y-12320000D03*
D28*
X12310000Y-3680000D03*
D29*
X16490000Y-3680000D03*
%TD*%
D14*
%TO.C,R5*%
X29087500Y-30000000D03*
X30912500Y-30000000D03*
%TD*%
%TO.C,R2*%
X15087500Y-26805200D03*
X16912500Y-26805200D03*
%TD*%
D11*
%TO.C,C3*%
X51050000Y-24000000D03*
X52950000Y-24000000D03*
%TD*%
D18*
%TO.C,D9*%
X101650000Y-78000000D03*
X102350000Y-78000000D03*
%TD*%
%TO.C,D6*%
X75650000Y-86000000D03*
X76350000Y-86000000D03*
%TD*%
D30*
%TO.C,U2*%
X32862500Y-15050000D03*
X32862500Y-16000000D03*
X32862500Y-16950000D03*
X35137500Y-16950000D03*
X35137500Y-16000000D03*
X35137500Y-15050000D03*
%TD*%
D18*
%TO.C,D7*%
X93650000Y-78000000D03*
X94350000Y-78000000D03*
%TD*%
D31*
%TO.C,U3*%
X86250000Y-35865000D03*
X86250000Y-37135000D03*
X86250000Y-38405000D03*
X86250000Y-39675000D03*
X86250000Y-40945000D03*
X86250000Y-42215000D03*
X86250000Y-43485000D03*
X86250000Y-44755000D03*
X86250000Y-46025000D03*
X86250000Y-47295000D03*
X86250000Y-48565000D03*
X86250000Y-49835000D03*
X86250000Y-51105000D03*
X86250000Y-52375000D03*
D32*
X89290000Y-53625000D03*
X90560000Y-53625000D03*
X91830000Y-53625000D03*
X93100000Y-53625000D03*
X94370000Y-53625000D03*
X95640000Y-53625000D03*
X96910000Y-53625000D03*
X98180000Y-53625000D03*
X99450000Y-53625000D03*
X100720000Y-53625000D03*
D31*
X103750000Y-52375000D03*
X103750000Y-51105000D03*
X103750000Y-49835000D03*
X103750000Y-48565000D03*
X103750000Y-47295000D03*
X103750000Y-46025000D03*
X103750000Y-44755000D03*
X103750000Y-43485000D03*
X103750000Y-42215000D03*
X103750000Y-40945000D03*
X103750000Y-39675000D03*
X103750000Y-38405000D03*
X103750000Y-37135000D03*
X103750000Y-35865000D03*
D33*
X92795000Y-42442500D03*
X92795000Y-43967500D03*
X93557500Y-41680000D03*
X93557500Y-43205000D03*
X93557500Y-44730000D03*
X94320000Y-42442500D03*
D34*
X94320000Y-43205000D03*
D33*
X94320000Y-43967500D03*
X95082500Y-41680000D03*
X95082500Y-43205000D03*
X95082500Y-44730000D03*
X95845000Y-42442500D03*
X95845000Y-43967500D03*
%TD*%
D35*
%TO.C,D4*%
X40181900Y-86000000D03*
X43481900Y-86000000D03*
%TD*%
D11*
%TO.C,C6*%
X43050000Y-24000000D03*
X44950000Y-24000000D03*
%TD*%
D18*
%TO.C,D3*%
X125650000Y-31000000D03*
X126350000Y-31000000D03*
%TD*%
D11*
%TO.C,C7*%
X33050000Y-6000000D03*
X34950000Y-6000000D03*
%TD*%
D14*
%TO.C,R10*%
X125087500Y-16000000D03*
X126912500Y-16000000D03*
%TD*%
D36*
%TO.C,U6*%
X77500000Y-73100000D03*
X78000000Y-73100000D03*
X78500000Y-73100000D03*
X78500000Y-74900000D03*
X78000000Y-74900000D03*
X77500000Y-74900000D03*
%TD*%
D11*
%TO.C,C5*%
X23050000Y-22000000D03*
X24950000Y-22000000D03*
%TD*%
D15*
%TO.C,TP5*%
X4000000Y-60000000D03*
%TD*%
D19*
%TO.C,MH3*%
X6000000Y-94000000D03*
%TD*%
D12*
%TO.C,J2*%
X134000000Y-18190000D03*
D13*
X134000000Y-20730000D03*
X134000000Y-23270000D03*
X134000000Y-25810000D03*
%TD*%
D10*
%TO.C,Q3*%
X47230600Y-86085400D03*
X47230600Y-87985400D03*
X49105600Y-87035400D03*
%TD*%
D14*
%TO.C,R4*%
X43087500Y-58000000D03*
X44912500Y-58000000D03*
%TD*%
D12*
%TO.C,J7*%
X76000000Y-91125000D03*
D13*
X76000000Y-93665000D03*
X76000000Y-96205000D03*
%TD*%
D15*
%TO.C,TP1*%
X4000000Y-72000000D03*
%TD*%
D18*
%TO.C,D2*%
X125650000Y-26000000D03*
X126350000Y-26000000D03*
%TD*%
D14*
%TO.C,R9*%
X55087500Y-76000000D03*
X56912500Y-76000000D03*
%TD*%
%TO.C,R3*%
X43087500Y-36000000D03*
X44912500Y-36000000D03*
%TD*%
D11*
%TO.C,C4*%
X43050000Y-30000000D03*
X44950000Y-30000000D03*
%TD*%
D37*
%TO.C,D1*%
X65550000Y-6350000D03*
X65550000Y-9650000D03*
X70450000Y-9650000D03*
X70450000Y-6350000D03*
%TD*%
D12*
%TO.C,J9*%
X114000000Y-83505000D03*
D13*
X114000000Y-86045000D03*
X114000000Y-88585000D03*
X114000000Y-91125000D03*
X114000000Y-93665000D03*
X114000000Y-96205000D03*
%TD*%
D19*
%TO.C,MH2*%
X134000000Y-6000000D03*
%TD*%
D15*
%TO.C,TP4*%
X19000000Y-72000000D03*
%TD*%
%TO.C,TP6*%
X9000000Y-60000000D03*
%TD*%
D10*
%TO.C,Q1*%
X29062500Y-35050000D03*
X29062500Y-36950000D03*
X30937500Y-36000000D03*
%TD*%
D38*
%TO.C,F1*%
X14600000Y-22656700D03*
X17400000Y-22656700D03*
%TD*%
D14*
%TO.C,R6*%
X29087500Y-58000000D03*
X30912500Y-58000000D03*
%TD*%
D12*
%TO.C,J4*%
X134000000Y-62920000D03*
D13*
X134000000Y-65460000D03*
X134000000Y-68000000D03*
X134000000Y-70540000D03*
X134000000Y-73080000D03*
%TD*%
D15*
%TO.C,TP8*%
X19000000Y-60000000D03*
%TD*%
D11*
%TO.C,C8*%
X45050000Y-65000000D03*
X46950000Y-65000000D03*
%TD*%
D12*
%TO.C,J8*%
X90000000Y-91125000D03*
D13*
X90000000Y-93665000D03*
X90000000Y-96205000D03*
%TD*%
D18*
%TO.C,D10*%
X105650000Y-78000000D03*
X106350000Y-78000000D03*
%TD*%
D14*
%TO.C,R7*%
X66357500Y-16000000D03*
X68182500Y-16000000D03*
%TD*%
D12*
%TO.C,J6*%
X62000000Y-92725000D03*
D13*
X62000000Y-95265000D03*
%TD*%
D18*
%TO.C,D8*%
X97650000Y-78000000D03*
X98350000Y-78000000D03*
%TD*%
D11*
%TO.C,C9*%
X61050000Y-65000000D03*
X62950000Y-65000000D03*
%TD*%
D39*
%TO.C,L1*%
X42600000Y-16000000D03*
X45400000Y-16000000D03*
%TD*%
M02*
