%TF.GenerationSoftware,KiCad,Pcbnew,10.0.5*%
%TF.CreationDate,2026-08-07T22:43:49+02:00*%
%TF.ProjectId,wisp,77697370-2e6b-4696-9361-645f70636258,rev?*%
%TF.SameCoordinates,Original*%
%TF.FileFunction,Other,User*%
%FSLAX46Y46*%
G04 Gerber Fmt 4.6, Leading zero omitted, Abs format (unit mm)*
G04 Created by KiCad (PCBNEW 10.0.5) date 2026-08-07 22:43:49*
%MOMM*%
%LPD*%
G01*
G04 APERTURE LIST*
%ADD10C,0.050000*%
G04 APERTURE END LIST*
%TO.C,Q4*%
D10*
X24736700Y-86000000D02*
X24736700Y-87110000D01*
X24736700Y-87110000D02*
X25766700Y-87110000D01*
X24736700Y-87890000D02*
X24736700Y-89000000D01*
X24736700Y-89000000D02*
X25766700Y-89000000D01*
X25766700Y-85800000D02*
X25766700Y-86000000D01*
X25766700Y-86000000D02*
X24736700Y-86000000D01*
X25766700Y-87110000D02*
X25766700Y-87890000D01*
X25766700Y-87890000D02*
X24736700Y-87890000D01*
X25766700Y-89000000D02*
X25766700Y-89200000D01*
X25766700Y-89200000D02*
X27566700Y-89200000D01*
X27566700Y-85800000D02*
X25766700Y-85800000D01*
X27566700Y-86950000D02*
X27566700Y-85800000D01*
X27566700Y-88050000D02*
X28596700Y-88050000D01*
X27566700Y-89200000D02*
X27566700Y-88050000D01*
X28596700Y-86950000D02*
X27566700Y-86950000D01*
X28596700Y-88050000D02*
X28596700Y-86950000D01*
%TO.C,C2*%
X38300000Y-37770000D02*
X41700000Y-37770000D01*
X41700000Y-39730000D01*
X38300000Y-39730000D01*
X38300000Y-37770000D01*
%TO.C,R11*%
X86320000Y-46550000D02*
X89680000Y-46550000D01*
X89680000Y-48450000D01*
X86320000Y-48450000D01*
X86320000Y-46550000D01*
%TO.C,R8*%
X43653300Y-61550000D02*
X47013300Y-61550000D01*
X47013300Y-63450000D01*
X43653300Y-63450000D01*
X43653300Y-61550000D01*
%TO.C,C1*%
X38300000Y-27770000D02*
X41700000Y-27770000D01*
X41700000Y-29730000D01*
X38300000Y-29730000D01*
X38300000Y-27770000D01*
%TO.C,D5*%
X39200000Y-70600000D02*
X39200000Y-69400000D01*
X39200000Y-70600000D02*
X40800000Y-70600000D01*
X40800000Y-69400000D02*
X39200000Y-69400000D01*
X40800000Y-70600000D02*
X40800000Y-69400000D01*
%TO.C,C10*%
X75633300Y-54020000D02*
X79033300Y-54020000D01*
X79033300Y-55980000D01*
X75633300Y-55980000D01*
X75633300Y-54020000D01*
%TO.C,Q2*%
X27403300Y-37250000D02*
X27403300Y-38360000D01*
X27403300Y-38360000D02*
X28433300Y-38360000D01*
X27403300Y-39140000D02*
X27403300Y-40250000D01*
X27403300Y-40250000D02*
X28433300Y-40250000D01*
X28433300Y-37050000D02*
X28433300Y-37250000D01*
X28433300Y-37250000D02*
X27403300Y-37250000D01*
X28433300Y-38360000D02*
X28433300Y-39140000D01*
X28433300Y-39140000D02*
X27403300Y-39140000D01*
X28433300Y-40250000D02*
X28433300Y-40450000D01*
X28433300Y-40450000D02*
X30233300Y-40450000D01*
X30233300Y-37050000D02*
X28433300Y-37050000D01*
X30233300Y-38200000D02*
X30233300Y-37050000D01*
X30233300Y-39300000D02*
X31263300Y-39300000D01*
X30233300Y-40450000D02*
X30233300Y-39300000D01*
X31263300Y-38200000D02*
X30233300Y-38200000D01*
X31263300Y-39300000D02*
X31263300Y-38200000D01*
%TO.C,C11*%
X86300000Y-31520000D02*
X89700000Y-31520000D01*
X89700000Y-33480000D01*
X86300000Y-33480000D01*
X86300000Y-31520000D01*
%TO.C,R14*%
X54320000Y-69050000D02*
X57680000Y-69050000D01*
X57680000Y-70950000D01*
X54320000Y-70950000D01*
X54320000Y-69050000D01*
%TO.C,R13*%
X22320000Y-69050000D02*
X25680000Y-69050000D01*
X25680000Y-70950000D01*
X22320000Y-70950000D01*
X22320000Y-69050000D01*
%TO.C,R1*%
X32986700Y-27800000D02*
X36346700Y-27800000D01*
X36346700Y-29700000D01*
X32986700Y-29700000D01*
X32986700Y-27800000D01*
%TO.C,U1*%
X14966700Y-28750000D02*
X14966700Y-38750000D01*
X14966700Y-38750000D02*
X16466700Y-38750000D01*
X16466700Y-28550000D02*
X16466700Y-28750000D01*
X16466700Y-28750000D02*
X14966700Y-28750000D01*
X16466700Y-38750000D02*
X16466700Y-38950000D01*
X16466700Y-38950000D02*
X20866700Y-38950000D01*
X20866700Y-28550000D02*
X16466700Y-28550000D01*
X20866700Y-28750000D02*
X20866700Y-28550000D01*
X20866700Y-38750000D02*
X22366700Y-38750000D01*
X20866700Y-38950000D02*
X20866700Y-38750000D01*
X22366700Y-28750000D02*
X20866700Y-28750000D01*
X22366700Y-38750000D02*
X22366700Y-28750000D01*
%TO.C,R12*%
X27653300Y-69050000D02*
X31013300Y-69050000D01*
X31013300Y-70950000D01*
X27653300Y-70950000D01*
X27653300Y-69050000D01*
%TO.C,R5*%
X16986700Y-46550000D02*
X20346700Y-46550000D01*
X20346700Y-48450000D01*
X16986700Y-48450000D01*
X16986700Y-46550000D01*
%TO.C,R2*%
X32986700Y-37800000D02*
X36346700Y-37800000D01*
X36346700Y-39700000D01*
X32986700Y-39700000D01*
X32986700Y-37800000D01*
%TO.C,C3*%
X38300000Y-11520000D02*
X41700000Y-11520000D01*
X41700000Y-13480000D01*
X38300000Y-13480000D01*
X38300000Y-11520000D01*
%TO.C,D9*%
X73866700Y-70600000D02*
X73866700Y-69400000D01*
X73866700Y-70600000D02*
X75466700Y-70600000D01*
X75466700Y-69400000D02*
X73866700Y-69400000D01*
X75466700Y-70600000D02*
X75466700Y-69400000D01*
%TO.C,D6*%
X49866700Y-70600000D02*
X49866700Y-69400000D01*
X49866700Y-70600000D02*
X51466700Y-70600000D01*
X51466700Y-69400000D02*
X49866700Y-69400000D01*
X51466700Y-70600000D02*
X51466700Y-69400000D01*
%TO.C,D7*%
X60533300Y-70600000D02*
X60533300Y-69400000D01*
X60533300Y-70600000D02*
X62133300Y-70600000D01*
X62133300Y-69400000D02*
X60533300Y-69400000D01*
X62133300Y-70600000D02*
X62133300Y-69400000D01*
%TO.C,D4*%
X21650000Y-76150000D02*
X21650000Y-73850000D01*
X21650000Y-76150000D02*
X26350000Y-76150000D01*
X26350000Y-73850000D02*
X21650000Y-73850000D01*
X26350000Y-76150000D02*
X26350000Y-73850000D01*
%TO.C,C6*%
X38300000Y-20270000D02*
X41700000Y-20270000D01*
X41700000Y-22230000D01*
X38300000Y-22230000D01*
X38300000Y-20270000D01*
%TO.C,D3*%
X87200000Y-28100000D02*
X87200000Y-26900000D01*
X87200000Y-28100000D02*
X88800000Y-28100000D01*
X88800000Y-26900000D02*
X87200000Y-26900000D01*
X88800000Y-28100000D02*
X88800000Y-26900000D01*
%TO.C,C7*%
X24966700Y-11520000D02*
X28366700Y-11520000D01*
X28366700Y-13480000D01*
X24966700Y-13480000D01*
X24966700Y-11520000D01*
%TO.C,R10*%
X86320000Y-41550000D02*
X89680000Y-41550000D01*
X89680000Y-43450000D01*
X86320000Y-43450000D01*
X86320000Y-41550000D01*
%TO.C,C5*%
X54300000Y-20270000D02*
X57700000Y-20270000D01*
X57700000Y-22230000D01*
X54300000Y-22230000D01*
X54300000Y-20270000D01*
%TO.C,Q3*%
X32736700Y-68500000D02*
X32736700Y-69610000D01*
X32736700Y-69610000D02*
X33766700Y-69610000D01*
X32736700Y-70390000D02*
X32736700Y-71500000D01*
X32736700Y-71500000D02*
X33766700Y-71500000D01*
X33766700Y-68300000D02*
X33766700Y-68500000D01*
X33766700Y-68500000D02*
X32736700Y-68500000D01*
X33766700Y-69610000D02*
X33766700Y-70390000D01*
X33766700Y-70390000D02*
X32736700Y-70390000D01*
X33766700Y-71500000D02*
X33766700Y-71700000D01*
X33766700Y-71700000D02*
X35566700Y-71700000D01*
X35566700Y-68300000D02*
X33766700Y-68300000D01*
X35566700Y-69450000D02*
X35566700Y-68300000D01*
X35566700Y-70550000D02*
X36596700Y-70550000D01*
X35566700Y-71700000D02*
X35566700Y-70550000D01*
X36596700Y-69450000D02*
X35566700Y-69450000D01*
X36596700Y-70550000D02*
X36596700Y-69450000D01*
%TO.C,R4*%
X11653300Y-46550000D02*
X15013300Y-46550000D01*
X15013300Y-48450000D01*
X11653300Y-48450000D01*
X11653300Y-46550000D01*
%TO.C,D2*%
X90200000Y-23100000D02*
X90200000Y-21900000D01*
X90200000Y-23100000D02*
X91800000Y-23100000D01*
X91800000Y-21900000D02*
X90200000Y-21900000D01*
X91800000Y-23100000D02*
X91800000Y-21900000D01*
%TO.C,R9*%
X59653300Y-61550000D02*
X63013300Y-61550000D01*
X63013300Y-63450000D01*
X59653300Y-63450000D01*
X59653300Y-61550000D01*
%TO.C,R3*%
X6320000Y-46550000D02*
X9680000Y-46550000D01*
X9680000Y-48450000D01*
X6320000Y-48450000D01*
X6320000Y-46550000D01*
%TO.C,C4*%
X46300000Y-26520000D02*
X49700000Y-26520000D01*
X49700000Y-28480000D01*
X46300000Y-28480000D01*
X46300000Y-26520000D01*
%TO.C,Q1*%
X27403300Y-27250000D02*
X27403300Y-28360000D01*
X27403300Y-28360000D02*
X28433300Y-28360000D01*
X27403300Y-29140000D02*
X27403300Y-30250000D01*
X27403300Y-30250000D02*
X28433300Y-30250000D01*
X28433300Y-27050000D02*
X28433300Y-27250000D01*
X28433300Y-27250000D02*
X27403300Y-27250000D01*
X28433300Y-28360000D02*
X28433300Y-29140000D01*
X28433300Y-29140000D02*
X27403300Y-29140000D01*
X28433300Y-30250000D02*
X28433300Y-30450000D01*
X28433300Y-30450000D02*
X30233300Y-30450000D01*
X30233300Y-27050000D02*
X28433300Y-27050000D01*
X30233300Y-28200000D02*
X30233300Y-27050000D01*
X30233300Y-29300000D02*
X31263300Y-29300000D01*
X30233300Y-30450000D02*
X30233300Y-29300000D01*
X31263300Y-28200000D02*
X30233300Y-28200000D01*
X31263300Y-29300000D02*
X31263300Y-28200000D01*
%TO.C,F1*%
X7053300Y-20120000D02*
X11613300Y-20120000D01*
X11613300Y-22380000D01*
X7053300Y-22380000D01*
X7053300Y-20120000D01*
%TO.C,R6*%
X22320000Y-46550000D02*
X25680000Y-46550000D01*
X25680000Y-48450000D01*
X22320000Y-48450000D01*
X22320000Y-46550000D01*
%TO.C,C8*%
X43633300Y-54020000D02*
X47033300Y-54020000D01*
X47033300Y-55980000D01*
X43633300Y-55980000D01*
X43633300Y-54020000D01*
%TO.C,D10*%
X79200000Y-70600000D02*
X79200000Y-69400000D01*
X79200000Y-70600000D02*
X80800000Y-70600000D01*
X80800000Y-69400000D02*
X79200000Y-69400000D01*
X80800000Y-70600000D02*
X80800000Y-69400000D01*
%TO.C,R7*%
X32986700Y-14050000D02*
X36346700Y-14050000D01*
X36346700Y-15950000D01*
X32986700Y-15950000D01*
X32986700Y-14050000D01*
%TO.C,D8*%
X65866700Y-70600000D02*
X65866700Y-69400000D01*
X65866700Y-70600000D02*
X67466700Y-70600000D01*
X67466700Y-69400000D02*
X65866700Y-69400000D01*
X67466700Y-70600000D02*
X67466700Y-69400000D01*
%TO.C,C9*%
X59633300Y-54020000D02*
X63033300Y-54020000D01*
X63033300Y-55980000D01*
X59633300Y-55980000D01*
X59633300Y-54020000D01*
%TD*%
M02*
