M48
; DRILL file KiCad 10.0.5 date 2026-08-07T22:43:50
; FORMAT={-:-/ absolute / metric / decimal}
; #@! TF.CreationDate,2026-08-07T22:43:50+02:00
; #@! TF.GenerationSoftware,Kicad,Pcbnew,10.0.5
; #@! TF.FileFunction,MixedPlating,1,2
FMAT,2
METRIC
; #@! TA.AperFunction,Plated,PTH,ViaDrill
T1C0.300
; #@! TA.AperFunction,Plated,PTH,ComponentDrill
T2C0.300
; #@! TA.AperFunction,Plated,PTH,ComponentDrill
T3C0.600
; #@! TA.AperFunction,Plated,PTH,ComponentDrill
T4C1.000
; #@! TA.AperFunction,NonPlated,NPTH,ComponentDrill
T5C0.650
; #@! TA.AperFunction,NonPlated,NPTH,ComponentDrill
T6C3.200
%
G90
G05
T1
X10.53Y-45.479
X11.194Y-50.75
X12.494Y-49.15
X13.163Y-33.789
X15.474Y-14.034
X15.581Y-49.073
X15.94Y-10.044
X16.97Y-14.038
X18.354Y-35.188
X19.116Y-27.896
X19.689Y-37.433
X21.382Y-40.397
X22.453Y-36.352
X23.177Y-35.171
X23.392Y-26.543
X24.463Y-73.732
X24.463Y-75.406
X25.046Y-9.647
X25.283Y-36.737
X27.699Y-61.157
X27.897Y-16.108
X27.897Y-89.785
X30.514Y-63.718
X30.611Y-30.843
X31.251Y-13.506
X32.283Y-15.813
X33.903Y-45.676
X35.137Y-6.305
X39.686Y-33.79
X41.954Y-46.255
X42.569Y-44.565
X43.104Y-48.106
X44.048Y-61.184
X45.58Y-57.373
X45.889Y-15.835
X46.738Y-16.684
X47.502Y-16.108
X48.527Y-30.843
X51.472Y-45.596
X51.474Y-13.16
X51.882Y-72.356
X52.12Y-48.867
X52.731Y-73.206
X53.518Y-55.021
X53.816Y-46.888
X60.262Y-53.563
X60.316Y-45.358
X60.531Y-39.9
X61.501Y-61.333
X64.099Y-34.626
X64.908Y-76.695
X65.138Y-37.65
X66.274Y-32.808
X66.966Y-34.547
X67.1Y-35.984
X70.308Y-34.659
X70.431Y-43.303
X70.513Y-56.597
X70.758Y-42.012
X71.234Y-41.041
X72.452Y-41.033
X75.236Y-57.552
X78.26Y-51.127
X78.346Y-69.545
X78.439Y-49.303
X78.771Y-69.97
X79.195Y-68.696
X79.345Y-32.19
X79.62Y-69.121
X79.669Y-52.335
X80.601Y-28.088
X83.507Y-43.042
X83.713Y-31.733
X83.892Y-24.909
X84.013Y-33.277
X86.988Y-45.82
X87.78Y-40.395
X89.17Y-43.703
X90.394Y-42.329
X90.54Y-73.216
X90.965Y-73.64
X91.39Y-72.367
X91.814Y-72.791
X93.44Y-38.434
X93.864Y-38.01
X94.289Y-39.284
X94.713Y-38.859
T2
X75.128Y-34.578
X75.128Y-36.102
X75.891Y-33.815
X75.891Y-35.34
X75.891Y-36.865
X76.653Y-34.578
X76.653Y-36.102
X77.416Y-33.815
X77.416Y-35.34
X77.416Y-36.865
X78.178Y-34.578
X78.178Y-36.102
T4
X29.333Y-75.0
X29.333Y-77.54
X40.0Y-75.0
X40.0Y-77.54
X50.667Y-75.0
X50.667Y-77.54
X50.667Y-80.08
X61.333Y-75.0
X61.333Y-77.54
X61.333Y-80.08
X74.667Y-75.0
X74.667Y-77.54
X74.667Y-80.08
X74.667Y-82.62
X74.667Y-85.16
X74.667Y-87.7
X93.333Y-25.0
X93.333Y-27.54
X93.333Y-30.08
X93.333Y-32.62
X93.333Y-45.0
X93.333Y-47.54
X93.333Y-50.08
X93.333Y-52.62
X93.333Y-65.0
X93.333Y-67.54
X93.333Y-70.08
X93.333Y-72.62
X93.333Y-75.16
T5
X20.067Y-8.36
X20.067Y-14.14
T6
X5.333Y-5.0
X5.333Y-95.0
X94.667Y-5.0
X94.667Y-95.0
T3
X18.987Y-6.93G85X20.087Y-6.93
G05
X18.987Y-15.57G85X20.087Y-15.57
G05
X23.417Y-6.93G85X24.017Y-6.93
G05
X23.417Y-15.57G85X24.017Y-15.57
G05
M30
