%TF.GenerationSoftware,KiCad,Pcbnew,10.0.5*%
%TF.CreationDate,2026-08-07T10:43:09+02:00*%
%TF.ProjectId,wisp,77697370-2e6b-4696-9361-645f70636258,rev?*%
%TF.SameCoordinates,Original*%
%TF.FileFunction,Other,User*%
%FSLAX46Y46*%
G04 Gerber Fmt 4.6, Leading zero omitted, Abs format (unit mm)*
G04 Created by KiCad (PCBNEW 10.0.5) date 2026-08-07 10:43:09*
%MOMM*%
%LPD*%
G01*
G04 APERTURE LIST*
%ADD10C,0.050000*%
G04 APERTURE END LIST*
%TO.C,Q4*%
D10*
X32070000Y-90500000D02*
X33100000Y-90500000D01*
X32070000Y-91610000D02*
X32070000Y-90500000D01*
X32070000Y-92390000D02*
X33100000Y-92390000D01*
X32070000Y-93500000D02*
X32070000Y-92390000D01*
X33100000Y-90300000D02*
X34900000Y-90300000D01*
X33100000Y-90500000D02*
X33100000Y-90300000D01*
X33100000Y-91610000D02*
X32070000Y-91610000D01*
X33100000Y-92390000D02*
X33100000Y-91610000D01*
X33100000Y-93500000D02*
X32070000Y-93500000D01*
X33100000Y-93700000D02*
X33100000Y-93500000D01*
X34900000Y-90300000D02*
X34900000Y-91450000D01*
X34900000Y-91450000D02*
X35930000Y-91450000D01*
X34900000Y-92550000D02*
X34900000Y-93700000D01*
X34900000Y-93700000D02*
X33100000Y-93700000D01*
X35930000Y-91450000D02*
X35930000Y-92550000D01*
X35930000Y-92550000D02*
X34900000Y-92550000D01*
%TO.C,C2*%
X3300000Y-47020000D02*
X6700000Y-47020000D01*
X6700000Y-48980000D01*
X3300000Y-48980000D01*
X3300000Y-47020000D01*
%TO.C,J3*%
X132230000Y-38420000D02*
X135770000Y-38420000D01*
X135770000Y-49580000D01*
X132230000Y-49580000D01*
X132230000Y-38420000D01*
%TO.C,R11*%
X124320000Y-20050000D02*
X127680000Y-20050000D01*
X127680000Y-21950000D01*
X124320000Y-21950000D01*
X124320000Y-20050000D01*
%TO.C,TP9*%
X2750000Y-64750000D02*
X2750000Y-67250000D01*
X2750000Y-64750000D02*
X5250000Y-64750000D01*
X5250000Y-67250000D02*
X2750000Y-67250000D01*
X5250000Y-67250000D02*
X5250000Y-64750000D01*
%TO.C,BZ1*%
X16750000Y-89650000D02*
X17250000Y-89650000D01*
X16750000Y-94350000D02*
X16750000Y-89650000D01*
X17250000Y-87250000D02*
X26750000Y-87250000D01*
X17250000Y-89650000D02*
X17250000Y-87250000D01*
X17250000Y-94350000D02*
X16750000Y-94350000D01*
X17250000Y-96750000D02*
X17250000Y-94350000D01*
X26750000Y-87250000D02*
X26750000Y-89650000D01*
X26750000Y-89650000D02*
X27250000Y-89650000D01*
X26750000Y-94350000D02*
X26750000Y-96750000D01*
X26750000Y-96750000D02*
X17250000Y-96750000D01*
X27250000Y-89650000D02*
X27250000Y-94350000D01*
X27250000Y-94350000D02*
X26750000Y-94350000D01*
%TO.C,R8*%
X54320000Y-67050000D02*
X57680000Y-67050000D01*
X57680000Y-68950000D01*
X54320000Y-68950000D01*
X54320000Y-67050000D01*
%TO.C,TP3*%
X12750000Y-70750000D02*
X12750000Y-73250000D01*
X12750000Y-70750000D02*
X15250000Y-70750000D01*
X15250000Y-73250000D02*
X12750000Y-73250000D01*
X15250000Y-73250000D02*
X15250000Y-70750000D01*
%TO.C,C1*%
X3300000Y-35020000D02*
X6700000Y-35020000D01*
X6700000Y-36980000D01*
X3300000Y-36980000D01*
X3300000Y-35020000D01*
%TO.C,J5*%
X46230000Y-90955000D02*
X49770000Y-90955000D01*
X49770000Y-97045000D01*
X46230000Y-97045000D01*
X46230000Y-90955000D01*
%TO.C,SW1*%
X51150000Y-34150000D02*
X56850000Y-34150000D01*
X51150000Y-37850000D02*
X51150000Y-34150000D01*
X56850000Y-34150000D02*
X56850000Y-37850000D01*
X56850000Y-37850000D02*
X51150000Y-37850000D01*
%TO.C,D5*%
X61200000Y-85400000D02*
X61200000Y-86600000D01*
X61200000Y-85400000D02*
X62800000Y-85400000D01*
X62800000Y-85400000D02*
X62800000Y-86600000D01*
X62800000Y-86600000D02*
X61200000Y-86600000D01*
%TO.C,MH4*%
X137450000Y-94000000D02*
G75*
G02*
X130550000Y-94000000I-3450000J0D01*
G01*
X130550000Y-94000000D02*
G75*
G02*
X137450000Y-94000000I3450000J0D01*
G01*
%TO.C,TP7*%
X12750000Y-58750000D02*
X12750000Y-61250000D01*
X12750000Y-58750000D02*
X15250000Y-58750000D01*
X15250000Y-61250000D02*
X12750000Y-61250000D01*
X15250000Y-61250000D02*
X15250000Y-58750000D01*
%TO.C,TP2*%
X7750000Y-70750000D02*
X7750000Y-73250000D01*
X7750000Y-70750000D02*
X10250000Y-70750000D01*
X10250000Y-73250000D02*
X7750000Y-73250000D01*
X10250000Y-73250000D02*
X10250000Y-70750000D01*
%TO.C,U5*%
X60250000Y-70250000D02*
X63750000Y-70250000D01*
X63750000Y-73750000D01*
X60250000Y-73750000D01*
X60250000Y-70250000D01*
%TO.C,C10*%
X76300000Y-64020000D02*
X79700000Y-64020000D01*
X79700000Y-65980000D01*
X76300000Y-65980000D01*
X76300000Y-64020000D01*
%TO.C,U4*%
X40650000Y-70820000D02*
X40700000Y-70820000D01*
X40650000Y-77180000D02*
X40650000Y-70820000D01*
X40700000Y-68700000D02*
X42820000Y-68700000D01*
X40700000Y-70820000D02*
X40700000Y-68700000D01*
X40700000Y-77180000D02*
X40650000Y-77180000D01*
X40700000Y-79300000D02*
X40700000Y-77180000D01*
X42820000Y-68650000D02*
X49180000Y-68650000D01*
X42820000Y-68700000D02*
X42820000Y-68650000D01*
X42820000Y-79300000D02*
X40700000Y-79300000D01*
X42820000Y-79350000D02*
X42820000Y-79300000D01*
X49180000Y-68650000D02*
X49180000Y-68700000D01*
X49180000Y-68700000D02*
X51300000Y-68700000D01*
X49180000Y-79300000D02*
X49180000Y-79350000D01*
X49180000Y-79350000D02*
X42820000Y-79350000D01*
X51300000Y-68700000D02*
X51300000Y-70820000D01*
X51300000Y-70820000D02*
X51350000Y-70820000D01*
X51300000Y-77180000D02*
X51300000Y-79300000D01*
X51300000Y-79300000D02*
X49180000Y-79300000D01*
X51350000Y-70820000D02*
X51350000Y-77180000D01*
X51350000Y-77180000D02*
X51300000Y-77180000D01*
%TO.C,Q2*%
X28070000Y-50500000D02*
X29100000Y-50500000D01*
X28070000Y-51610000D02*
X28070000Y-50500000D01*
X28070000Y-52390000D02*
X29100000Y-52390000D01*
X28070000Y-53500000D02*
X28070000Y-52390000D01*
X29100000Y-50300000D02*
X30900000Y-50300000D01*
X29100000Y-50500000D02*
X29100000Y-50300000D01*
X29100000Y-51610000D02*
X28070000Y-51610000D01*
X29100000Y-52390000D02*
X29100000Y-51610000D01*
X29100000Y-53500000D02*
X28070000Y-53500000D01*
X29100000Y-53700000D02*
X29100000Y-53500000D01*
X30900000Y-50300000D02*
X30900000Y-51450000D01*
X30900000Y-51450000D02*
X31930000Y-51450000D01*
X30900000Y-52550000D02*
X30900000Y-53700000D01*
X30900000Y-53700000D02*
X29100000Y-53700000D01*
X31930000Y-51450000D02*
X31930000Y-52550000D01*
X31930000Y-52550000D02*
X30900000Y-52550000D01*
%TO.C,C11*%
X124300000Y-67020000D02*
X127700000Y-67020000D01*
X127700000Y-68980000D01*
X124300000Y-68980000D01*
X124300000Y-67020000D01*
%TO.C,R14*%
X80320000Y-85050000D02*
X83680000Y-85050000D01*
X83680000Y-86950000D01*
X80320000Y-86950000D01*
X80320000Y-85050000D01*
%TO.C,SW2*%
X51150000Y-56150000D02*
X56850000Y-56150000D01*
X51150000Y-59850000D02*
X51150000Y-56150000D01*
X56850000Y-56150000D02*
X56850000Y-59850000D01*
X56850000Y-59850000D02*
X51150000Y-59850000D01*
%TO.C,MH1*%
X9450000Y-6000000D02*
G75*
G02*
X2550000Y-6000000I-3450000J0D01*
G01*
X2550000Y-6000000D02*
G75*
G02*
X9450000Y-6000000I3450000J0D01*
G01*
%TO.C,TP10*%
X7750000Y-64750000D02*
X7750000Y-67250000D01*
X7750000Y-64750000D02*
X10250000Y-64750000D01*
X10250000Y-67250000D02*
X7750000Y-67250000D01*
X10250000Y-67250000D02*
X10250000Y-64750000D01*
%TO.C,R13*%
X32320000Y-85050000D02*
X35680000Y-85050000D01*
X35680000Y-86950000D01*
X32320000Y-86950000D01*
X32320000Y-85050000D01*
%TO.C,R1*%
X14320000Y-17588100D02*
X17680000Y-17588100D01*
X17680000Y-19488100D01*
X14320000Y-19488100D01*
X14320000Y-17588100D01*
%TO.C,U1*%
X12300000Y-37000000D02*
X13800000Y-37000000D01*
X12300000Y-47000000D02*
X12300000Y-37000000D01*
X13800000Y-36800000D02*
X18200000Y-36800000D01*
X13800000Y-37000000D02*
X13800000Y-36800000D01*
X13800000Y-47000000D02*
X12300000Y-47000000D01*
X13800000Y-47200000D02*
X13800000Y-47000000D01*
X18200000Y-36800000D02*
X18200000Y-37000000D01*
X18200000Y-37000000D02*
X19700000Y-37000000D01*
X18200000Y-47000000D02*
X18200000Y-47200000D01*
X18200000Y-47200000D02*
X13800000Y-47200000D01*
X19700000Y-37000000D02*
X19700000Y-47000000D01*
X19700000Y-47000000D02*
X18200000Y-47000000D01*
%TO.C,R12*%
X46320000Y-81352600D02*
X49680000Y-81352600D01*
X49680000Y-83252600D01*
X46320000Y-83252600D01*
X46320000Y-81352600D01*
%TO.C,J1*%
X10170000Y-2680000D02*
X19590000Y-2680000D01*
X10170000Y-13320000D02*
X10170000Y-2680000D01*
X10170000Y-13320000D02*
X19590000Y-13320000D01*
X19590000Y-13320000D02*
X19590000Y-2680000D01*
%TO.C,R5*%
X28320000Y-29050000D02*
X31680000Y-29050000D01*
X31680000Y-30950000D01*
X28320000Y-30950000D01*
X28320000Y-29050000D01*
%TO.C,R2*%
X14320000Y-25855200D02*
X17680000Y-25855200D01*
X17680000Y-27755200D01*
X14320000Y-27755200D01*
X14320000Y-25855200D01*
%TO.C,C3*%
X50300000Y-23020000D02*
X53700000Y-23020000D01*
X53700000Y-24980000D01*
X50300000Y-24980000D01*
X50300000Y-23020000D01*
%TO.C,D9*%
X101200000Y-77400000D02*
X101200000Y-78600000D01*
X101200000Y-77400000D02*
X102800000Y-77400000D01*
X102800000Y-77400000D02*
X102800000Y-78600000D01*
X102800000Y-78600000D02*
X101200000Y-78600000D01*
%TO.C,D6*%
X75200000Y-85400000D02*
X75200000Y-86600000D01*
X75200000Y-85400000D02*
X76800000Y-85400000D01*
X76800000Y-85400000D02*
X76800000Y-86600000D01*
X76800000Y-86600000D02*
X75200000Y-86600000D01*
%TO.C,U2*%
X31950000Y-14500000D02*
X32950000Y-14500000D01*
X31950000Y-17500000D02*
X31950000Y-14500000D01*
X32950000Y-14300000D02*
X35050000Y-14300000D01*
X32950000Y-14500000D02*
X32950000Y-14300000D01*
X32950000Y-17500000D02*
X31950000Y-17500000D01*
X32950000Y-17700000D02*
X32950000Y-17500000D01*
X35050000Y-14300000D02*
X35050000Y-14500000D01*
X35050000Y-14500000D02*
X36050000Y-14500000D01*
X35050000Y-17500000D02*
X35050000Y-17700000D01*
X35050000Y-17700000D02*
X32950000Y-17700000D01*
X36050000Y-14500000D02*
X36050000Y-17500000D01*
X36050000Y-17500000D02*
X35050000Y-17500000D01*
%TO.C,D7*%
X93200000Y-77400000D02*
X93200000Y-78600000D01*
X93200000Y-77400000D02*
X94800000Y-77400000D01*
X94800000Y-77400000D02*
X94800000Y-78600000D01*
X94800000Y-78600000D02*
X93200000Y-78600000D01*
%TO.C,U3*%
X71000000Y-13375000D02*
X71000000Y-34315000D01*
X71000000Y-34315000D02*
X85250000Y-34315000D01*
X85250000Y-54625000D02*
X85250000Y-34315000D01*
X85250000Y-54625000D02*
X104750000Y-54625000D01*
X104750000Y-34315000D02*
X104750000Y-54625000D01*
X104750000Y-34315000D02*
X119000000Y-34315000D01*
X119000000Y-13375000D02*
X71000000Y-13375000D01*
X119000000Y-34315000D02*
X119000000Y-13375000D01*
%TO.C,D4*%
X39481900Y-84850000D02*
X39481900Y-87150000D01*
X39481900Y-84850000D02*
X44181900Y-84850000D01*
X44181900Y-84850000D02*
X44181900Y-87150000D01*
X44181900Y-87150000D02*
X39481900Y-87150000D01*
%TO.C,C6*%
X42300000Y-23020000D02*
X45700000Y-23020000D01*
X45700000Y-24980000D01*
X42300000Y-24980000D01*
X42300000Y-23020000D01*
%TO.C,D3*%
X125200000Y-30400000D02*
X125200000Y-31600000D01*
X125200000Y-30400000D02*
X126800000Y-30400000D01*
X126800000Y-30400000D02*
X126800000Y-31600000D01*
X126800000Y-31600000D02*
X125200000Y-31600000D01*
%TO.C,C7*%
X32300000Y-5020000D02*
X35700000Y-5020000D01*
X35700000Y-6980000D01*
X32300000Y-6980000D01*
X32300000Y-5020000D01*
%TO.C,R10*%
X124320000Y-15050000D02*
X127680000Y-15050000D01*
X127680000Y-16950000D01*
X124320000Y-16950000D01*
X124320000Y-15050000D01*
%TO.C,C5*%
X22300000Y-21020000D02*
X25700000Y-21020000D01*
X25700000Y-22980000D01*
X22300000Y-22980000D01*
X22300000Y-21020000D01*
%TO.C,TP5*%
X2750000Y-58750000D02*
X2750000Y-61250000D01*
X2750000Y-58750000D02*
X5250000Y-58750000D01*
X5250000Y-61250000D02*
X2750000Y-61250000D01*
X5250000Y-61250000D02*
X5250000Y-58750000D01*
%TO.C,MH3*%
X9450000Y-94000000D02*
G75*
G02*
X2550000Y-94000000I-3450000J0D01*
G01*
X2550000Y-94000000D02*
G75*
G02*
X9450000Y-94000000I3450000J0D01*
G01*
%TO.C,J2*%
X132230000Y-16420000D02*
X135770000Y-16420000D01*
X135770000Y-27580000D01*
X132230000Y-27580000D01*
X132230000Y-16420000D01*
%TO.C,Q3*%
X46238100Y-85535400D02*
X47268100Y-85535400D01*
X46238100Y-86645400D02*
X46238100Y-85535400D01*
X46238100Y-87425400D02*
X47268100Y-87425400D01*
X46238100Y-88535400D02*
X46238100Y-87425400D01*
X47268100Y-85335400D02*
X49068100Y-85335400D01*
X47268100Y-85535400D02*
X47268100Y-85335400D01*
X47268100Y-86645400D02*
X46238100Y-86645400D01*
X47268100Y-87425400D02*
X47268100Y-86645400D01*
X47268100Y-88535400D02*
X46238100Y-88535400D01*
X47268100Y-88735400D02*
X47268100Y-88535400D01*
X49068100Y-85335400D02*
X49068100Y-86485400D01*
X49068100Y-86485400D02*
X50098100Y-86485400D01*
X49068100Y-87585400D02*
X49068100Y-88735400D01*
X49068100Y-88735400D02*
X47268100Y-88735400D01*
X50098100Y-86485400D02*
X50098100Y-87585400D01*
X50098100Y-87585400D02*
X49068100Y-87585400D01*
%TO.C,R4*%
X42320000Y-57050000D02*
X45680000Y-57050000D01*
X45680000Y-58950000D01*
X42320000Y-58950000D01*
X42320000Y-57050000D01*
%TO.C,J7*%
X74230000Y-89355000D02*
X77770000Y-89355000D01*
X77770000Y-97975000D01*
X74230000Y-97975000D01*
X74230000Y-89355000D01*
%TO.C,TP1*%
X2750000Y-70750000D02*
X2750000Y-73250000D01*
X2750000Y-70750000D02*
X5250000Y-70750000D01*
X5250000Y-73250000D02*
X2750000Y-73250000D01*
X5250000Y-73250000D02*
X5250000Y-70750000D01*
%TO.C,D2*%
X125200000Y-25400000D02*
X125200000Y-26600000D01*
X125200000Y-25400000D02*
X126800000Y-25400000D01*
X126800000Y-25400000D02*
X126800000Y-26600000D01*
X126800000Y-26600000D02*
X125200000Y-26600000D01*
%TO.C,R9*%
X54320000Y-75050000D02*
X57680000Y-75050000D01*
X57680000Y-76950000D01*
X54320000Y-76950000D01*
X54320000Y-75050000D01*
%TO.C,R3*%
X42320000Y-35050000D02*
X45680000Y-35050000D01*
X45680000Y-36950000D01*
X42320000Y-36950000D01*
X42320000Y-35050000D01*
%TO.C,C4*%
X42300000Y-29020000D02*
X45700000Y-29020000D01*
X45700000Y-30980000D01*
X42300000Y-30980000D01*
X42300000Y-29020000D01*
%TO.C,D1*%
X64550000Y-5250000D02*
X64550000Y-10750000D01*
X64550000Y-10750000D02*
X71450000Y-10750000D01*
X71450000Y-5250000D02*
X64550000Y-5250000D01*
X71450000Y-10750000D02*
X71450000Y-5250000D01*
%TO.C,J9*%
X112230000Y-81735000D02*
X115770000Y-81735000D01*
X115770000Y-97975000D01*
X112230000Y-97975000D01*
X112230000Y-81735000D01*
%TO.C,MH2*%
X137450000Y-6000000D02*
G75*
G02*
X130550000Y-6000000I-3450000J0D01*
G01*
X130550000Y-6000000D02*
G75*
G02*
X137450000Y-6000000I3450000J0D01*
G01*
%TO.C,TP4*%
X17750000Y-70750000D02*
X17750000Y-73250000D01*
X17750000Y-70750000D02*
X20250000Y-70750000D01*
X20250000Y-73250000D02*
X17750000Y-73250000D01*
X20250000Y-73250000D02*
X20250000Y-70750000D01*
%TO.C,TP6*%
X7750000Y-58750000D02*
X7750000Y-61250000D01*
X7750000Y-58750000D02*
X10250000Y-58750000D01*
X10250000Y-61250000D02*
X7750000Y-61250000D01*
X10250000Y-61250000D02*
X10250000Y-58750000D01*
%TO.C,Q1*%
X28070000Y-34500000D02*
X29100000Y-34500000D01*
X28070000Y-35610000D02*
X28070000Y-34500000D01*
X28070000Y-36390000D02*
X29100000Y-36390000D01*
X28070000Y-37500000D02*
X28070000Y-36390000D01*
X29100000Y-34300000D02*
X30900000Y-34300000D01*
X29100000Y-34500000D02*
X29100000Y-34300000D01*
X29100000Y-35610000D02*
X28070000Y-35610000D01*
X29100000Y-36390000D02*
X29100000Y-35610000D01*
X29100000Y-37500000D02*
X28070000Y-37500000D01*
X29100000Y-37700000D02*
X29100000Y-37500000D01*
X30900000Y-34300000D02*
X30900000Y-35450000D01*
X30900000Y-35450000D02*
X31930000Y-35450000D01*
X30900000Y-36550000D02*
X30900000Y-37700000D01*
X30900000Y-37700000D02*
X29100000Y-37700000D01*
X31930000Y-35450000D02*
X31930000Y-36550000D01*
X31930000Y-36550000D02*
X30900000Y-36550000D01*
%TO.C,F1*%
X13720000Y-21526700D02*
X18280000Y-21526700D01*
X18280000Y-23786700D01*
X13720000Y-23786700D01*
X13720000Y-21526700D01*
%TO.C,R6*%
X28320000Y-57050000D02*
X31680000Y-57050000D01*
X31680000Y-58950000D01*
X28320000Y-58950000D01*
X28320000Y-57050000D01*
%TO.C,J4*%
X132230000Y-61150000D02*
X135770000Y-61150000D01*
X135770000Y-74850000D01*
X132230000Y-74850000D01*
X132230000Y-61150000D01*
%TO.C,TP8*%
X17750000Y-58750000D02*
X17750000Y-61250000D01*
X17750000Y-58750000D02*
X20250000Y-58750000D01*
X20250000Y-61250000D02*
X17750000Y-61250000D01*
X20250000Y-61250000D02*
X20250000Y-58750000D01*
%TO.C,C8*%
X44300000Y-64020000D02*
X47700000Y-64020000D01*
X47700000Y-65980000D01*
X44300000Y-65980000D01*
X44300000Y-64020000D01*
%TO.C,J8*%
X88230000Y-89355000D02*
X91770000Y-89355000D01*
X91770000Y-97975000D01*
X88230000Y-97975000D01*
X88230000Y-89355000D01*
%TO.C,D10*%
X105200000Y-77400000D02*
X105200000Y-78600000D01*
X105200000Y-77400000D02*
X106800000Y-77400000D01*
X106800000Y-77400000D02*
X106800000Y-78600000D01*
X106800000Y-78600000D02*
X105200000Y-78600000D01*
%TO.C,R7*%
X65590000Y-15050000D02*
X68950000Y-15050000D01*
X68950000Y-16950000D01*
X65590000Y-16950000D01*
X65590000Y-15050000D01*
%TO.C,J6*%
X60230000Y-90955000D02*
X63770000Y-90955000D01*
X63770000Y-97045000D01*
X60230000Y-97045000D01*
X60230000Y-90955000D01*
%TO.C,D8*%
X97200000Y-77400000D02*
X97200000Y-78600000D01*
X97200000Y-77400000D02*
X98800000Y-77400000D01*
X98800000Y-77400000D02*
X98800000Y-78600000D01*
X98800000Y-78600000D02*
X97200000Y-78600000D01*
%TO.C,C9*%
X60300000Y-64020000D02*
X63700000Y-64020000D01*
X63700000Y-65980000D01*
X60300000Y-65980000D01*
X60300000Y-64020000D01*
%TO.C,L1*%
X41720000Y-14420000D02*
X46280000Y-14420000D01*
X46280000Y-17580000D01*
X41720000Y-17580000D01*
X41720000Y-14420000D01*
%TD*%
M02*
