%TF.GenerationSoftware,KiCad,Pcbnew,10.0.5*%
%TF.CreationDate,2026-08-07T16:39:31+02:00*%
%TF.ProjectId,wisp,77697370-2e6b-4696-9361-645f70636258,rev?*%
%TF.SameCoordinates,Original*%
%TF.FileFunction,Paste,Top*%
%TF.FilePolarity,Positive*%
%FSLAX46Y46*%
G04 Gerber Fmt 4.6, Leading zero omitted, Abs format (unit mm)*
G04 Created by KiCad (PCBNEW 10.0.5) date 2026-08-07 16:39:31*
%MOMM*%
%LPD*%
G01*
G04 APERTURE LIST*
G04 Aperture macros list*
%AMRoundRect*
0 Rectangle with rounded corners*
0 $1 Rounding radius*
0 $2 $3 $4 $5 $6 $7 $8 $9 X,Y pos of 4 corners*
0 Add a 4 corners polygon primitive as box body*
4,1,4,$2,$3,$4,$5,$6,$7,$8,$9,$2,$3,0*
0 Add four circle primitives for the rounded corners*
1,1,$1+$1,$2,$3*
1,1,$1+$1,$4,$5*
1,1,$1+$1,$6,$7*
1,1,$1+$1,$8,$9*
0 Add four rect primitives between the rounded corners*
20,1,$1+$1,$2,$3,$4,$5,0*
20,1,$1+$1,$4,$5,$6,$7,0*
20,1,$1+$1,$6,$7,$8,$9,0*
20,1,$1+$1,$8,$9,$2,$3,0*%
G04 Aperture macros list end*
%ADD10R,2.000000X4.200000*%
%ADD11R,1.050000X0.650000*%
%ADD12RoundRect,0.125000X-0.125000X-0.137500X0.125000X-0.137500X0.125000X0.137500X-0.125000X0.137500X0*%
%ADD13RoundRect,0.250001X-0.714999X-0.714999X0.714999X-0.714999X0.714999X0.714999X-0.714999X0.714999X0*%
%ADD14RoundRect,0.212500X-0.737500X-0.212500X0.737500X-0.212500X0.737500X0.212500X-0.737500X0.212500X0*%
%ADD15RoundRect,0.212500X-0.212500X-0.737500X0.212500X-0.737500X0.212500X0.737500X-0.212500X0.737500X0*%
%ADD16RoundRect,0.150000X0.575000X-0.150000X0.575000X0.150000X-0.575000X0.150000X-0.575000X-0.150000X0*%
%ADD17RoundRect,0.075000X0.650000X-0.075000X0.650000X0.075000X-0.650000X0.075000X-0.650000X-0.075000X0*%
%ADD18RoundRect,0.150000X-0.512500X-0.150000X0.512500X-0.150000X0.512500X0.150000X-0.512500X0.150000X0*%
%ADD19R,1.500000X0.900000*%
%ADD20R,0.900000X1.500000*%
%ADD21R,1.050000X1.050000*%
%ADD22R,0.300000X0.400000*%
%ADD23RoundRect,0.090000X-0.660000X-0.360000X0.660000X-0.360000X0.660000X0.360000X-0.660000X0.360000X0*%
%ADD24RoundRect,0.250000X-0.375000X-1.075000X0.375000X-1.075000X0.375000X1.075000X-0.375000X1.075000X0*%
G04 APERTURE END LIST*
D10*
%TO.C,BZ1*%
X10000000Y-70000000D03*
X18000000Y-70000000D03*
%TD*%
D11*
%TO.C,SW1*%
X3925000Y-38925000D03*
X8075000Y-38925000D03*
X3925000Y-41075000D03*
X8075000Y-41075000D03*
%TD*%
D12*
%TO.C,U5*%
X38800000Y-42812500D03*
X39600000Y-42812500D03*
X40400000Y-42812500D03*
X41200000Y-42812500D03*
X41200000Y-45187500D03*
X40400000Y-45187500D03*
X39600000Y-45187500D03*
X38800000Y-45187500D03*
%TD*%
D13*
%TO.C,U4*%
X22800000Y-44800000D03*
X22800000Y-47200000D03*
X25200000Y-44800000D03*
X25200000Y-47200000D03*
D14*
X19850000Y-43500000D03*
X19850000Y-44750000D03*
X19850000Y-46000000D03*
X19850000Y-47250000D03*
X19850000Y-48500000D03*
D15*
X21500000Y-50150000D03*
X22750000Y-50150000D03*
X24000000Y-50150000D03*
X25250000Y-50150000D03*
X26500000Y-50150000D03*
D14*
X28150000Y-48500000D03*
X28150000Y-47250000D03*
X28150000Y-46000000D03*
X28150000Y-44750000D03*
X28150000Y-43500000D03*
D15*
X26500000Y-41850000D03*
X25250000Y-41850000D03*
X24000000Y-41850000D03*
X22750000Y-41850000D03*
X21500000Y-41850000D03*
%TD*%
D11*
%TO.C,SW2*%
X9925000Y-38925000D03*
X14075000Y-38925000D03*
X9925000Y-41075000D03*
X14075000Y-41075000D03*
%TD*%
D16*
%TO.C,J1*%
X12955000Y-12250000D03*
X12955000Y-11450000D03*
D17*
X12955000Y-10250000D03*
X12955000Y-9250000D03*
X12955000Y-8750000D03*
X12955000Y-7750000D03*
D16*
X12955000Y-6550000D03*
X12955000Y-5750000D03*
X12955000Y-5750000D03*
X12955000Y-6550000D03*
D17*
X12955000Y-7250000D03*
X12955000Y-8250000D03*
X12955000Y-9750000D03*
X12955000Y-10750000D03*
D16*
X12955000Y-11450000D03*
X12955000Y-12250000D03*
%TD*%
D18*
%TO.C,U2*%
X34862500Y-9050000D03*
X34862500Y-10000000D03*
X34862500Y-10950000D03*
X37137500Y-10950000D03*
X37137500Y-10000000D03*
X37137500Y-9050000D03*
%TD*%
D19*
%TO.C,U3*%
X49250000Y-20750000D03*
X49250000Y-22020000D03*
X49250000Y-23290000D03*
X49250000Y-24560000D03*
X49250000Y-25830000D03*
X49250000Y-27100000D03*
X49250000Y-28370000D03*
X49250000Y-29640000D03*
X49250000Y-30910000D03*
X49250000Y-32180000D03*
X49250000Y-33450000D03*
X49250000Y-34720000D03*
X49250000Y-35990000D03*
X49250000Y-37260000D03*
D20*
X52290000Y-38510000D03*
X53560000Y-38510000D03*
X54830000Y-38510000D03*
X56100000Y-38510000D03*
X57370000Y-38510000D03*
X58640000Y-38510000D03*
X59910000Y-38510000D03*
X61180000Y-38510000D03*
X62450000Y-38510000D03*
X63720000Y-38510000D03*
D19*
X66750000Y-37260000D03*
X66750000Y-35990000D03*
X66750000Y-34720000D03*
X66750000Y-33450000D03*
X66750000Y-32180000D03*
X66750000Y-30910000D03*
X66750000Y-29640000D03*
X66750000Y-28370000D03*
X66750000Y-27100000D03*
X66750000Y-25830000D03*
X66750000Y-24560000D03*
X66750000Y-23290000D03*
X66750000Y-22020000D03*
X66750000Y-20750000D03*
D21*
X55795000Y-26565000D03*
X55795000Y-28090000D03*
X55795000Y-29615000D03*
X57320000Y-26565000D03*
X57320000Y-28090000D03*
X57320000Y-29615000D03*
X58845000Y-26565000D03*
X58845000Y-28090000D03*
X58845000Y-29615000D03*
%TD*%
D22*
%TO.C,U6*%
X51500000Y-45100000D03*
X52000000Y-45100000D03*
X52500000Y-45100000D03*
X52500000Y-46900000D03*
X52000000Y-46900000D03*
X51500000Y-46900000D03*
%TD*%
D23*
%TO.C,D1*%
X23550000Y-4350000D03*
X23550000Y-7650000D03*
X28450000Y-7650000D03*
X28450000Y-4350000D03*
%TD*%
D24*
%TO.C,L1*%
X34600000Y-17000000D03*
X37400000Y-17000000D03*
%TD*%
M02*
