M48
; DRILL file KiCad 10.0.5 date 2026-08-08T18:07:34
; FORMAT={-:-/ absolute / metric / decimal}
; #@! TF.CreationDate,2026-08-08T18:07:34+02:00
; #@! TF.GenerationSoftware,Kicad,Pcbnew,10.0.5
; #@! TF.FileFunction,Plated,1,4,PTH
FMAT,2
METRIC
; #@! TA.AperFunction,Plated,PTH,ComponentDrill
T1C0.200
; #@! TA.AperFunction,Plated,PTH,ViaDrill
T2C0.300
; #@! TA.AperFunction,Plated,PTH,ComponentDrill
T3C0.600
; #@! TA.AperFunction,Plated,PTH,ComponentDrill
T4C1.000
%
G90
G05
T1
X27.1Y-15.26
X27.1Y-16.66
X27.8Y-14.56
X27.8Y-15.96
X27.8Y-17.36
X28.5Y-15.26
X28.5Y-16.66
X29.2Y-14.56
X29.2Y-15.96
X29.2Y-17.36
X29.9Y-15.26
X29.9Y-16.66
T2
X1.426Y-27.916
X2.0Y-10.0
X2.0Y-14.0
X2.0Y-22.0
X2.0Y-26.0
X2.0Y-34.0
X2.0Y-42.0
X2.0Y-46.0
X2.0Y-50.0
X2.0Y-54.0
X2.0Y-58.0
X2.0Y-62.0
X2.0Y-66.0
X2.0Y-70.0
X2.0Y-74.0
X2.0Y-78.0
X2.25Y-36.355
X3.825Y-25.075
X4.001Y-31.879
X4.574Y-37.335
X5.562Y-33.355
X5.812Y-65.24
X5.9Y-16.15
X6.0Y-2.0
X6.0Y-6.0
X6.0Y-10.0
X6.0Y-14.0
X6.0Y-22.0
X6.0Y-26.0
X6.0Y-34.0
X6.0Y-38.0
X6.0Y-42.0
X6.0Y-46.0
X6.0Y-50.0
X6.0Y-54.0
X6.0Y-58.0
X6.0Y-62.0
X6.0Y-66.0
X6.0Y-70.0
X6.0Y-74.0
X6.0Y-78.0
X6.411Y-12.778
X7.067Y-40.145
X7.205Y-31.751
X7.806Y-65.898
X7.975Y-25.075
X9.15Y-35.955
X9.267Y-24.441
X9.85Y-13.65
X10.0Y-18.0
X10.0Y-22.0
X10.0Y-26.0
X10.0Y-30.0
X10.0Y-34.0
X10.0Y-38.0
X10.0Y-42.0
X10.0Y-46.0
X10.0Y-50.0
X10.0Y-54.0
X10.0Y-58.0
X10.0Y-62.0
X10.0Y-70.0
X10.0Y-74.0
X10.0Y-78.0
X10.762Y-16.15
X10.918Y-31.057
X11.179Y-33.339
X11.325Y-25.075
X12.447Y-33.384
X12.887Y-32.335
X13.262Y-36.5
X13.317Y-9.323
X13.962Y-30.0
X14.0Y-18.0
X14.0Y-22.0
X14.0Y-26.0
X14.0Y-34.0
X14.0Y-38.0
X14.0Y-54.0
X14.0Y-62.0
X14.0Y-70.0
X14.0Y-74.0
X14.0Y-78.0
X14.792Y-31.525
X14.925Y-27.7
X15.475Y-25.075
X15.562Y-51.49
X15.6Y-10.78
X15.798Y-40.672
X16.189Y-22.666
X16.566Y-14.952
X16.619Y-36.667
X16.719Y-34.375
X17.239Y-58.191
X17.589Y-12.621
X17.6Y-9.51
X17.637Y-22.21
X17.983Y-35.391
X18.0Y-18.0
X18.0Y-26.0
X18.0Y-30.0
X18.0Y-34.0
X18.0Y-38.0
X18.0Y-42.0
X18.0Y-46.0
X18.0Y-54.0
X18.0Y-58.0
X19.003Y-35.257
X19.012Y-14.893
X19.489Y-12.621
X19.5Y-9.51
X19.865Y-14.393
X21.382Y-78.468
X21.65Y-8.24
X21.65Y-9.51
X21.911Y-36.572
X22.0Y-26.0
X22.0Y-30.0
X22.0Y-34.0
X22.0Y-38.0
X22.0Y-46.0
X22.0Y-50.0
X22.0Y-54.0
X22.0Y-58.0
X22.0Y-66.0
X22.0Y-74.0
X22.686Y-19.417
X22.884Y-20.255
X23.135Y-23.395
X23.189Y-18.517
X23.201Y-24.491
X23.282Y-78.468
X24.655Y-30.527
X24.798Y-49.532
X24.806Y-66.607
X24.806Y-74.907
X24.872Y-16.236
X25.043Y-28.3
X25.2Y-77.25
X25.5Y-54.45
X25.5Y-56.55
X25.574Y-36.639
X25.8Y-69.3
X25.8Y-71.7
X26.0Y-10.0
X26.0Y-14.0
X26.0Y-18.0
X26.0Y-22.0
X26.0Y-30.0
X26.0Y-34.0
X26.0Y-38.0
X26.0Y-46.0
X26.0Y-50.0
X26.0Y-78.0
X26.056Y-66.607
X26.056Y-74.907
X26.5Y-54.45
X26.5Y-56.55
X27.1Y-77.25
X27.525Y-14.985
X27.525Y-16.935
X27.806Y-48.814
X27.96Y-34.907
X28.2Y-69.3
X28.2Y-71.7
X28.262Y-32.05
X29.212Y-36.15
X29.475Y-14.985
X29.475Y-16.935
X30.0Y-10.0
X30.0Y-22.0
X30.0Y-38.0
X30.0Y-46.0
X30.0Y-50.0
X30.0Y-54.0
X30.0Y-58.0
X30.0Y-78.0
X30.15Y-27.927
X30.156Y-24.091
X30.537Y-33.95
X30.73Y-74.931
X31.076Y-24.555
X31.145Y-27.407
X32.162Y-32.887
X32.231Y-31.651
X33.786Y-24.402
X34.0Y-10.0
X34.0Y-14.0
X34.0Y-18.0
X34.0Y-22.0
X34.0Y-30.0
X34.0Y-38.0
X34.0Y-46.0
X34.0Y-50.0
X34.0Y-66.0
X34.0Y-70.0
X34.0Y-74.0
X34.0Y-78.0
X34.908Y-27.921
X35.8Y-22.572
X35.85Y-30.0
X35.85Y-36.0
X36.575Y-66.025
X36.584Y-20.232
X36.8Y-33.0
X36.897Y-38.785
X37.062Y-56.45
X37.75Y-30.0
X37.75Y-36.0
X38.0Y-26.0
X38.0Y-38.0
X38.0Y-46.0
X38.0Y-50.0
X38.0Y-54.0
X38.0Y-58.0
X38.0Y-70.0
X38.0Y-74.0
X38.0Y-78.0
X38.4Y-43.0
X38.475Y-66.025
X38.85Y-33.0
X39.15Y-8.24
X39.444Y-37.757
X39.655Y-71.055
X40.375Y-66.025
X40.466Y-54.237
X40.75Y-33.0
X40.85Y-68.449
X40.9Y-75.7
X41.071Y-22.865
X41.337Y-24.75
X41.381Y-20.325
X41.555Y-71.055
X42.0Y-10.0
X42.0Y-14.0
X42.0Y-18.0
X42.0Y-22.0
X42.0Y-26.0
X42.0Y-30.0
X42.0Y-34.0
X42.0Y-38.0
X42.0Y-42.0
X42.0Y-46.0
X42.0Y-50.0
X42.0Y-54.0
X42.0Y-58.0
X42.0Y-62.0
X42.0Y-70.0
X42.0Y-78.0
X42.275Y-66.025
X42.4Y-43.0
X42.426Y-75.542
X42.547Y-17.007
X42.75Y-68.449
X42.837Y-73.4
X43.456Y-64.369
X43.565Y-15.367
X43.743Y-68.756
X43.75Y-76.5
X44.175Y-63.525
X44.288Y-35.178
X44.5Y-72.101
X44.825Y-66.475
X45.334Y-72.363
X45.4Y-68.449
X45.461Y-33.119
X45.875Y-66.025
X45.917Y-28.604
X46.0Y-10.0
X46.0Y-14.0
X46.0Y-18.0
X46.0Y-22.0
X46.0Y-26.0
X46.0Y-30.0
X46.0Y-34.0
X46.0Y-38.0
X46.0Y-42.0
X46.0Y-46.0
X46.0Y-50.0
X46.0Y-54.0
X46.0Y-58.0
X46.0Y-62.0
X46.0Y-70.0
X46.0Y-74.0
X46.0Y-78.0
X46.044Y-76.43
X46.05Y-77.3
X46.084Y-18.901
X47.614Y-26.093
X50.0Y-10.0
X50.0Y-14.0
X50.0Y-18.0
X50.0Y-22.0
X50.0Y-26.0
X50.0Y-30.0
X50.0Y-34.0
X50.0Y-38.0
X50.0Y-42.0
X50.0Y-46.0
X50.0Y-50.0
X50.0Y-54.0
X50.0Y-58.0
X52.087Y-16.54
X52.087Y-19.08
X54.0Y-2.0
X54.0Y-6.0
X54.0Y-10.0
X54.0Y-26.0
X54.0Y-30.0
X54.0Y-34.0
X54.0Y-38.0
X54.0Y-42.0
X54.0Y-46.0
X54.0Y-50.0
X54.0Y-54.0
X54.0Y-58.0
X54.0Y-66.0
X54.0Y-74.0
X54.0Y-78.0
X55.173Y-27.473
X57.949Y-45.028
X58.0Y-10.0
X58.0Y-14.0
X58.0Y-18.0
X58.0Y-22.0
X58.0Y-26.0
X58.0Y-30.0
X58.0Y-34.0
X58.0Y-38.0
X58.0Y-42.0
X58.0Y-46.0
X58.0Y-50.0
X58.0Y-54.0
X58.0Y-58.0
X58.0Y-62.0
X58.0Y-66.0
X58.0Y-70.0
X58.0Y-74.0
X58.0Y-78.0
T4
X4.5Y-48.0
X4.5Y-50.54
X4.5Y-53.08
X4.5Y-57.0
X4.5Y-59.54
X4.5Y-62.08
X12.0Y-48.0
X12.0Y-50.54
X12.0Y-57.0
X12.0Y-59.54
X12.0Y-62.08
X56.5Y-14.0
X56.5Y-16.54
X56.5Y-19.08
X56.5Y-21.62
X56.5Y-26.0
X56.5Y-28.54
X56.5Y-31.08
X56.5Y-33.62
X56.5Y-38.0
X56.5Y-40.54
X56.5Y-43.08
X56.5Y-45.62
X56.5Y-48.16
X56.5Y-52.0
X56.5Y-54.54
X56.5Y-57.08
X56.5Y-59.62
X56.5Y-62.16
X56.5Y-64.7
X56.5Y-67.24
X56.5Y-69.78
T3
X1.18Y-36.32G85X1.18Y-37.42
G05
X1.18Y-40.75G85X1.18Y-41.35
G05
X9.82Y-36.32G85X9.82Y-37.42
G05
X9.82Y-40.75G85X9.82Y-41.35
G05
M30
