%TF.GenerationSoftware,KiCad,Pcbnew,10.0.5*%
%TF.CreationDate,2026-08-07T23:43:03+02:00*%
%TF.ProjectId,wisp,77697370-2e6b-4696-9361-645f70636258,rev?*%
%TF.SameCoordinates,Original*%
%TF.FileFunction,AssemblyDrawing,Bot*%
%FSLAX46Y46*%
G04 Gerber Fmt 4.6, Leading zero omitted, Abs format (unit mm)*
G04 Created by KiCad (PCBNEW 10.0.5) date 2026-08-07 23:43:03*
%MOMM*%
%LPD*%
G01*
G04 APERTURE LIST*
%ADD10C,0.150000*%
%ADD11C,0.110000*%
%ADD12C,0.080000*%
%ADD13C,0.120000*%
%ADD14C,0.100000*%
G04 APERTURE END LIST*
D10*
X30357175Y-85554819D02*
X30357175Y-84554819D01*
X30357175Y-84554819D02*
X30023842Y-85269104D01*
X30023842Y-85269104D02*
X29690509Y-84554819D01*
X29690509Y-84554819D02*
X29690509Y-85554819D01*
X29214318Y-85554819D02*
X29214318Y-84554819D01*
X29214318Y-84554819D02*
X28880985Y-85269104D01*
X28880985Y-85269104D02*
X28547652Y-84554819D01*
X28547652Y-84554819D02*
X28547652Y-85554819D01*
X27738128Y-85031009D02*
X27595271Y-85078628D01*
X27595271Y-85078628D02*
X27547652Y-85126247D01*
X27547652Y-85126247D02*
X27500033Y-85221485D01*
X27500033Y-85221485D02*
X27500033Y-85364342D01*
X27500033Y-85364342D02*
X27547652Y-85459580D01*
X27547652Y-85459580D02*
X27595271Y-85507200D01*
X27595271Y-85507200D02*
X27690509Y-85554819D01*
X27690509Y-85554819D02*
X28071461Y-85554819D01*
X28071461Y-85554819D02*
X28071461Y-84554819D01*
X28071461Y-84554819D02*
X27738128Y-84554819D01*
X27738128Y-84554819D02*
X27642890Y-84602438D01*
X27642890Y-84602438D02*
X27595271Y-84650057D01*
X27595271Y-84650057D02*
X27547652Y-84745295D01*
X27547652Y-84745295D02*
X27547652Y-84840533D01*
X27547652Y-84840533D02*
X27595271Y-84935771D01*
X27595271Y-84935771D02*
X27642890Y-84983390D01*
X27642890Y-84983390D02*
X27738128Y-85031009D01*
X27738128Y-85031009D02*
X28071461Y-85031009D01*
X27214318Y-84554819D02*
X26642890Y-84554819D01*
X26928604Y-85554819D02*
X26928604Y-84554819D01*
X26404794Y-84554819D02*
X25785747Y-84554819D01*
X25785747Y-84554819D02*
X26119080Y-84935771D01*
X26119080Y-84935771D02*
X25976223Y-84935771D01*
X25976223Y-84935771D02*
X25880985Y-84983390D01*
X25880985Y-84983390D02*
X25833366Y-85031009D01*
X25833366Y-85031009D02*
X25785747Y-85126247D01*
X25785747Y-85126247D02*
X25785747Y-85364342D01*
X25785747Y-85364342D02*
X25833366Y-85459580D01*
X25833366Y-85459580D02*
X25880985Y-85507200D01*
X25880985Y-85507200D02*
X25976223Y-85554819D01*
X25976223Y-85554819D02*
X26261937Y-85554819D01*
X26261937Y-85554819D02*
X26357175Y-85507200D01*
X26357175Y-85507200D02*
X26404794Y-85459580D01*
X25309556Y-85554819D02*
X25119080Y-85554819D01*
X25119080Y-85554819D02*
X25023842Y-85507200D01*
X25023842Y-85507200D02*
X24976223Y-85459580D01*
X24976223Y-85459580D02*
X24880985Y-85316723D01*
X24880985Y-85316723D02*
X24833366Y-85126247D01*
X24833366Y-85126247D02*
X24833366Y-84745295D01*
X24833366Y-84745295D02*
X24880985Y-84650057D01*
X24880985Y-84650057D02*
X24928604Y-84602438D01*
X24928604Y-84602438D02*
X25023842Y-84554819D01*
X25023842Y-84554819D02*
X25214318Y-84554819D01*
X25214318Y-84554819D02*
X25309556Y-84602438D01*
X25309556Y-84602438D02*
X25357175Y-84650057D01*
X25357175Y-84650057D02*
X25404794Y-84745295D01*
X25404794Y-84745295D02*
X25404794Y-84983390D01*
X25404794Y-84983390D02*
X25357175Y-85078628D01*
X25357175Y-85078628D02*
X25309556Y-85126247D01*
X25309556Y-85126247D02*
X25214318Y-85173866D01*
X25214318Y-85173866D02*
X25023842Y-85173866D01*
X25023842Y-85173866D02*
X24928604Y-85126247D01*
X24928604Y-85126247D02*
X24880985Y-85078628D01*
X24880985Y-85078628D02*
X24833366Y-84983390D01*
X24214318Y-84554819D02*
X24119080Y-84554819D01*
X24119080Y-84554819D02*
X24023842Y-84602438D01*
X24023842Y-84602438D02*
X23976223Y-84650057D01*
X23976223Y-84650057D02*
X23928604Y-84745295D01*
X23928604Y-84745295D02*
X23880985Y-84935771D01*
X23880985Y-84935771D02*
X23880985Y-85173866D01*
X23880985Y-85173866D02*
X23928604Y-85364342D01*
X23928604Y-85364342D02*
X23976223Y-85459580D01*
X23976223Y-85459580D02*
X24023842Y-85507200D01*
X24023842Y-85507200D02*
X24119080Y-85554819D01*
X24119080Y-85554819D02*
X24214318Y-85554819D01*
X24214318Y-85554819D02*
X24309556Y-85507200D01*
X24309556Y-85507200D02*
X24357175Y-85459580D01*
X24357175Y-85459580D02*
X24404794Y-85364342D01*
X24404794Y-85364342D02*
X24452413Y-85173866D01*
X24452413Y-85173866D02*
X24452413Y-84935771D01*
X24452413Y-84935771D02*
X24404794Y-84745295D01*
X24404794Y-84745295D02*
X24357175Y-84650057D01*
X24357175Y-84650057D02*
X24309556Y-84602438D01*
X24309556Y-84602438D02*
X24214318Y-84554819D01*
X23023842Y-84888152D02*
X23023842Y-85554819D01*
X23261937Y-84507200D02*
X23500032Y-85221485D01*
X23500032Y-85221485D02*
X22880985Y-85221485D01*
D11*
X27062637Y-87431428D02*
X27028351Y-87362857D01*
X27028351Y-87362857D02*
X26959780Y-87294285D01*
X26959780Y-87294285D02*
X26856922Y-87191428D01*
X26856922Y-87191428D02*
X26822637Y-87122857D01*
X26822637Y-87122857D02*
X26822637Y-87054285D01*
X26994065Y-87088571D02*
X26959780Y-87020000D01*
X26959780Y-87020000D02*
X26891208Y-86951428D01*
X26891208Y-86951428D02*
X26754065Y-86917142D01*
X26754065Y-86917142D02*
X26514065Y-86917142D01*
X26514065Y-86917142D02*
X26376922Y-86951428D01*
X26376922Y-86951428D02*
X26308351Y-87020000D01*
X26308351Y-87020000D02*
X26274065Y-87088571D01*
X26274065Y-87088571D02*
X26274065Y-87225714D01*
X26274065Y-87225714D02*
X26308351Y-87294285D01*
X26308351Y-87294285D02*
X26376922Y-87362857D01*
X26376922Y-87362857D02*
X26514065Y-87397142D01*
X26514065Y-87397142D02*
X26754065Y-87397142D01*
X26754065Y-87397142D02*
X26891208Y-87362857D01*
X26891208Y-87362857D02*
X26959780Y-87294285D01*
X26959780Y-87294285D02*
X26994065Y-87225714D01*
X26994065Y-87225714D02*
X26994065Y-87088571D01*
X26514065Y-88014286D02*
X26994065Y-88014286D01*
X26239780Y-87842857D02*
X26754065Y-87671428D01*
X26754065Y-87671428D02*
X26754065Y-88117143D01*
D10*
X41547619Y-37524819D02*
X42119047Y-37524819D01*
X41833333Y-37524819D02*
X41833333Y-36524819D01*
X41833333Y-36524819D02*
X41928571Y-36667676D01*
X41928571Y-36667676D02*
X42023809Y-36762914D01*
X42023809Y-36762914D02*
X42119047Y-36810533D01*
X40928571Y-36524819D02*
X40833333Y-36524819D01*
X40833333Y-36524819D02*
X40738095Y-36572438D01*
X40738095Y-36572438D02*
X40690476Y-36620057D01*
X40690476Y-36620057D02*
X40642857Y-36715295D01*
X40642857Y-36715295D02*
X40595238Y-36905771D01*
X40595238Y-36905771D02*
X40595238Y-37143866D01*
X40595238Y-37143866D02*
X40642857Y-37334342D01*
X40642857Y-37334342D02*
X40690476Y-37429580D01*
X40690476Y-37429580D02*
X40738095Y-37477200D01*
X40738095Y-37477200D02*
X40833333Y-37524819D01*
X40833333Y-37524819D02*
X40928571Y-37524819D01*
X40928571Y-37524819D02*
X41023809Y-37477200D01*
X41023809Y-37477200D02*
X41071428Y-37429580D01*
X41071428Y-37429580D02*
X41119047Y-37334342D01*
X41119047Y-37334342D02*
X41166666Y-37143866D01*
X41166666Y-37143866D02*
X41166666Y-36905771D01*
X41166666Y-36905771D02*
X41119047Y-36715295D01*
X41119047Y-36715295D02*
X41071428Y-36620057D01*
X41071428Y-36620057D02*
X41023809Y-36572438D01*
X41023809Y-36572438D02*
X40928571Y-36524819D01*
X39976190Y-36524819D02*
X39880952Y-36524819D01*
X39880952Y-36524819D02*
X39785714Y-36572438D01*
X39785714Y-36572438D02*
X39738095Y-36620057D01*
X39738095Y-36620057D02*
X39690476Y-36715295D01*
X39690476Y-36715295D02*
X39642857Y-36905771D01*
X39642857Y-36905771D02*
X39642857Y-37143866D01*
X39642857Y-37143866D02*
X39690476Y-37334342D01*
X39690476Y-37334342D02*
X39738095Y-37429580D01*
X39738095Y-37429580D02*
X39785714Y-37477200D01*
X39785714Y-37477200D02*
X39880952Y-37524819D01*
X39880952Y-37524819D02*
X39976190Y-37524819D01*
X39976190Y-37524819D02*
X40071428Y-37477200D01*
X40071428Y-37477200D02*
X40119047Y-37429580D01*
X40119047Y-37429580D02*
X40166666Y-37334342D01*
X40166666Y-37334342D02*
X40214285Y-37143866D01*
X40214285Y-37143866D02*
X40214285Y-36905771D01*
X40214285Y-36905771D02*
X40166666Y-36715295D01*
X40166666Y-36715295D02*
X40119047Y-36620057D01*
X40119047Y-36620057D02*
X40071428Y-36572438D01*
X40071428Y-36572438D02*
X39976190Y-36524819D01*
X39214285Y-36858152D02*
X39214285Y-37524819D01*
X39214285Y-36953390D02*
X39166666Y-36905771D01*
X39166666Y-36905771D02*
X39071428Y-36858152D01*
X39071428Y-36858152D02*
X38928571Y-36858152D01*
X38928571Y-36858152D02*
X38833333Y-36905771D01*
X38833333Y-36905771D02*
X38785714Y-37001009D01*
X38785714Y-37001009D02*
X38785714Y-37524819D01*
X37976190Y-37001009D02*
X38309523Y-37001009D01*
X38309523Y-37524819D02*
X38309523Y-36524819D01*
X38309523Y-36524819D02*
X37833333Y-36524819D01*
D12*
X40083333Y-38929530D02*
X40107142Y-38953340D01*
X40107142Y-38953340D02*
X40178571Y-38977149D01*
X40178571Y-38977149D02*
X40226190Y-38977149D01*
X40226190Y-38977149D02*
X40297618Y-38953340D01*
X40297618Y-38953340D02*
X40345237Y-38905720D01*
X40345237Y-38905720D02*
X40369047Y-38858101D01*
X40369047Y-38858101D02*
X40392856Y-38762863D01*
X40392856Y-38762863D02*
X40392856Y-38691435D01*
X40392856Y-38691435D02*
X40369047Y-38596197D01*
X40369047Y-38596197D02*
X40345237Y-38548578D01*
X40345237Y-38548578D02*
X40297618Y-38500959D01*
X40297618Y-38500959D02*
X40226190Y-38477149D01*
X40226190Y-38477149D02*
X40178571Y-38477149D01*
X40178571Y-38477149D02*
X40107142Y-38500959D01*
X40107142Y-38500959D02*
X40083333Y-38524768D01*
X39892856Y-38524768D02*
X39869047Y-38500959D01*
X39869047Y-38500959D02*
X39821428Y-38477149D01*
X39821428Y-38477149D02*
X39702380Y-38477149D01*
X39702380Y-38477149D02*
X39654761Y-38500959D01*
X39654761Y-38500959D02*
X39630952Y-38524768D01*
X39630952Y-38524768D02*
X39607142Y-38572387D01*
X39607142Y-38572387D02*
X39607142Y-38620006D01*
X39607142Y-38620006D02*
X39630952Y-38691435D01*
X39630952Y-38691435D02*
X39916666Y-38977149D01*
X39916666Y-38977149D02*
X39607142Y-38977149D01*
D10*
X88928571Y-45638152D02*
X88928571Y-46304819D01*
X89166666Y-45257200D02*
X89404761Y-45971485D01*
X89404761Y-45971485D02*
X88785714Y-45971485D01*
X88404761Y-46209580D02*
X88357142Y-46257200D01*
X88357142Y-46257200D02*
X88404761Y-46304819D01*
X88404761Y-46304819D02*
X88452380Y-46257200D01*
X88452380Y-46257200D02*
X88404761Y-46209580D01*
X88404761Y-46209580D02*
X88404761Y-46304819D01*
X88023809Y-45304819D02*
X87357143Y-45304819D01*
X87357143Y-45304819D02*
X87785714Y-46304819D01*
X86976190Y-46304819D02*
X86976190Y-45304819D01*
X86880952Y-45923866D02*
X86595238Y-46304819D01*
X86595238Y-45638152D02*
X86976190Y-46019104D01*
D12*
X88321428Y-47727149D02*
X88488094Y-47489054D01*
X88607142Y-47727149D02*
X88607142Y-47227149D01*
X88607142Y-47227149D02*
X88416666Y-47227149D01*
X88416666Y-47227149D02*
X88369047Y-47250959D01*
X88369047Y-47250959D02*
X88345237Y-47274768D01*
X88345237Y-47274768D02*
X88321428Y-47322387D01*
X88321428Y-47322387D02*
X88321428Y-47393816D01*
X88321428Y-47393816D02*
X88345237Y-47441435D01*
X88345237Y-47441435D02*
X88369047Y-47465244D01*
X88369047Y-47465244D02*
X88416666Y-47489054D01*
X88416666Y-47489054D02*
X88607142Y-47489054D01*
X87845237Y-47727149D02*
X88130951Y-47727149D01*
X87988094Y-47727149D02*
X87988094Y-47227149D01*
X87988094Y-47227149D02*
X88035713Y-47298578D01*
X88035713Y-47298578D02*
X88083332Y-47346197D01*
X88083332Y-47346197D02*
X88130951Y-47370006D01*
X87369047Y-47727149D02*
X87654761Y-47727149D01*
X87511904Y-47727149D02*
X87511904Y-47227149D01*
X87511904Y-47227149D02*
X87559523Y-47298578D01*
X87559523Y-47298578D02*
X87607142Y-47346197D01*
X87607142Y-47346197D02*
X87654761Y-47370006D01*
D10*
X46261871Y-60638152D02*
X46261871Y-61304819D01*
X46499966Y-60257200D02*
X46738061Y-60971485D01*
X46738061Y-60971485D02*
X46119014Y-60971485D01*
X45738061Y-61209580D02*
X45690442Y-61257200D01*
X45690442Y-61257200D02*
X45738061Y-61304819D01*
X45738061Y-61304819D02*
X45785680Y-61257200D01*
X45785680Y-61257200D02*
X45738061Y-61209580D01*
X45738061Y-61209580D02*
X45738061Y-61304819D01*
X45357109Y-60304819D02*
X44690443Y-60304819D01*
X44690443Y-60304819D02*
X45119014Y-61304819D01*
X44309490Y-61304819D02*
X44309490Y-60304819D01*
X44214252Y-60923866D02*
X43928538Y-61304819D01*
X43928538Y-60638152D02*
X44309490Y-61019104D01*
D12*
X45416633Y-62727149D02*
X45583299Y-62489054D01*
X45702347Y-62727149D02*
X45702347Y-62227149D01*
X45702347Y-62227149D02*
X45511871Y-62227149D01*
X45511871Y-62227149D02*
X45464252Y-62250959D01*
X45464252Y-62250959D02*
X45440442Y-62274768D01*
X45440442Y-62274768D02*
X45416633Y-62322387D01*
X45416633Y-62322387D02*
X45416633Y-62393816D01*
X45416633Y-62393816D02*
X45440442Y-62441435D01*
X45440442Y-62441435D02*
X45464252Y-62465244D01*
X45464252Y-62465244D02*
X45511871Y-62489054D01*
X45511871Y-62489054D02*
X45702347Y-62489054D01*
X45130918Y-62441435D02*
X45178537Y-62417625D01*
X45178537Y-62417625D02*
X45202347Y-62393816D01*
X45202347Y-62393816D02*
X45226156Y-62346197D01*
X45226156Y-62346197D02*
X45226156Y-62322387D01*
X45226156Y-62322387D02*
X45202347Y-62274768D01*
X45202347Y-62274768D02*
X45178537Y-62250959D01*
X45178537Y-62250959D02*
X45130918Y-62227149D01*
X45130918Y-62227149D02*
X45035680Y-62227149D01*
X45035680Y-62227149D02*
X44988061Y-62250959D01*
X44988061Y-62250959D02*
X44964252Y-62274768D01*
X44964252Y-62274768D02*
X44940442Y-62322387D01*
X44940442Y-62322387D02*
X44940442Y-62346197D01*
X44940442Y-62346197D02*
X44964252Y-62393816D01*
X44964252Y-62393816D02*
X44988061Y-62417625D01*
X44988061Y-62417625D02*
X45035680Y-62441435D01*
X45035680Y-62441435D02*
X45130918Y-62441435D01*
X45130918Y-62441435D02*
X45178537Y-62465244D01*
X45178537Y-62465244D02*
X45202347Y-62489054D01*
X45202347Y-62489054D02*
X45226156Y-62536673D01*
X45226156Y-62536673D02*
X45226156Y-62631911D01*
X45226156Y-62631911D02*
X45202347Y-62679530D01*
X45202347Y-62679530D02*
X45178537Y-62703340D01*
X45178537Y-62703340D02*
X45130918Y-62727149D01*
X45130918Y-62727149D02*
X45035680Y-62727149D01*
X45035680Y-62727149D02*
X44988061Y-62703340D01*
X44988061Y-62703340D02*
X44964252Y-62679530D01*
X44964252Y-62679530D02*
X44940442Y-62631911D01*
X44940442Y-62631911D02*
X44940442Y-62536673D01*
X44940442Y-62536673D02*
X44964252Y-62489054D01*
X44964252Y-62489054D02*
X44988061Y-62465244D01*
X44988061Y-62465244D02*
X45035680Y-62441435D01*
D10*
X41547619Y-27524819D02*
X42119047Y-27524819D01*
X41833333Y-27524819D02*
X41833333Y-26524819D01*
X41833333Y-26524819D02*
X41928571Y-26667676D01*
X41928571Y-26667676D02*
X42023809Y-26762914D01*
X42023809Y-26762914D02*
X42119047Y-26810533D01*
X40928571Y-26524819D02*
X40833333Y-26524819D01*
X40833333Y-26524819D02*
X40738095Y-26572438D01*
X40738095Y-26572438D02*
X40690476Y-26620057D01*
X40690476Y-26620057D02*
X40642857Y-26715295D01*
X40642857Y-26715295D02*
X40595238Y-26905771D01*
X40595238Y-26905771D02*
X40595238Y-27143866D01*
X40595238Y-27143866D02*
X40642857Y-27334342D01*
X40642857Y-27334342D02*
X40690476Y-27429580D01*
X40690476Y-27429580D02*
X40738095Y-27477200D01*
X40738095Y-27477200D02*
X40833333Y-27524819D01*
X40833333Y-27524819D02*
X40928571Y-27524819D01*
X40928571Y-27524819D02*
X41023809Y-27477200D01*
X41023809Y-27477200D02*
X41071428Y-27429580D01*
X41071428Y-27429580D02*
X41119047Y-27334342D01*
X41119047Y-27334342D02*
X41166666Y-27143866D01*
X41166666Y-27143866D02*
X41166666Y-26905771D01*
X41166666Y-26905771D02*
X41119047Y-26715295D01*
X41119047Y-26715295D02*
X41071428Y-26620057D01*
X41071428Y-26620057D02*
X41023809Y-26572438D01*
X41023809Y-26572438D02*
X40928571Y-26524819D01*
X39976190Y-26524819D02*
X39880952Y-26524819D01*
X39880952Y-26524819D02*
X39785714Y-26572438D01*
X39785714Y-26572438D02*
X39738095Y-26620057D01*
X39738095Y-26620057D02*
X39690476Y-26715295D01*
X39690476Y-26715295D02*
X39642857Y-26905771D01*
X39642857Y-26905771D02*
X39642857Y-27143866D01*
X39642857Y-27143866D02*
X39690476Y-27334342D01*
X39690476Y-27334342D02*
X39738095Y-27429580D01*
X39738095Y-27429580D02*
X39785714Y-27477200D01*
X39785714Y-27477200D02*
X39880952Y-27524819D01*
X39880952Y-27524819D02*
X39976190Y-27524819D01*
X39976190Y-27524819D02*
X40071428Y-27477200D01*
X40071428Y-27477200D02*
X40119047Y-27429580D01*
X40119047Y-27429580D02*
X40166666Y-27334342D01*
X40166666Y-27334342D02*
X40214285Y-27143866D01*
X40214285Y-27143866D02*
X40214285Y-26905771D01*
X40214285Y-26905771D02*
X40166666Y-26715295D01*
X40166666Y-26715295D02*
X40119047Y-26620057D01*
X40119047Y-26620057D02*
X40071428Y-26572438D01*
X40071428Y-26572438D02*
X39976190Y-26524819D01*
X39214285Y-26858152D02*
X39214285Y-27524819D01*
X39214285Y-26953390D02*
X39166666Y-26905771D01*
X39166666Y-26905771D02*
X39071428Y-26858152D01*
X39071428Y-26858152D02*
X38928571Y-26858152D01*
X38928571Y-26858152D02*
X38833333Y-26905771D01*
X38833333Y-26905771D02*
X38785714Y-27001009D01*
X38785714Y-27001009D02*
X38785714Y-27524819D01*
X37976190Y-27001009D02*
X38309523Y-27001009D01*
X38309523Y-27524819D02*
X38309523Y-26524819D01*
X38309523Y-26524819D02*
X37833333Y-26524819D01*
D12*
X40083333Y-28929530D02*
X40107142Y-28953340D01*
X40107142Y-28953340D02*
X40178571Y-28977149D01*
X40178571Y-28977149D02*
X40226190Y-28977149D01*
X40226190Y-28977149D02*
X40297618Y-28953340D01*
X40297618Y-28953340D02*
X40345237Y-28905720D01*
X40345237Y-28905720D02*
X40369047Y-28858101D01*
X40369047Y-28858101D02*
X40392856Y-28762863D01*
X40392856Y-28762863D02*
X40392856Y-28691435D01*
X40392856Y-28691435D02*
X40369047Y-28596197D01*
X40369047Y-28596197D02*
X40345237Y-28548578D01*
X40345237Y-28548578D02*
X40297618Y-28500959D01*
X40297618Y-28500959D02*
X40226190Y-28477149D01*
X40226190Y-28477149D02*
X40178571Y-28477149D01*
X40178571Y-28477149D02*
X40107142Y-28500959D01*
X40107142Y-28500959D02*
X40083333Y-28524768D01*
X39607142Y-28977149D02*
X39892856Y-28977149D01*
X39749999Y-28977149D02*
X39749999Y-28477149D01*
X39749999Y-28477149D02*
X39797618Y-28548578D01*
X39797618Y-28548578D02*
X39845237Y-28596197D01*
X39845237Y-28596197D02*
X39892856Y-28620006D01*
D10*
X44880952Y-69104819D02*
X44880952Y-68104819D01*
X44880952Y-68104819D02*
X44500000Y-68104819D01*
X44500000Y-68104819D02*
X44404762Y-68152438D01*
X44404762Y-68152438D02*
X44357143Y-68200057D01*
X44357143Y-68200057D02*
X44309524Y-68295295D01*
X44309524Y-68295295D02*
X44309524Y-68438152D01*
X44309524Y-68438152D02*
X44357143Y-68533390D01*
X44357143Y-68533390D02*
X44404762Y-68581009D01*
X44404762Y-68581009D02*
X44500000Y-68628628D01*
X44500000Y-68628628D02*
X44880952Y-68628628D01*
X43880952Y-68581009D02*
X43547619Y-68581009D01*
X43404762Y-69104819D02*
X43880952Y-69104819D01*
X43880952Y-69104819D02*
X43880952Y-68104819D01*
X43880952Y-68104819D02*
X43404762Y-68104819D01*
X43023809Y-69057200D02*
X42880952Y-69104819D01*
X42880952Y-69104819D02*
X42642857Y-69104819D01*
X42642857Y-69104819D02*
X42547619Y-69057200D01*
X42547619Y-69057200D02*
X42500000Y-69009580D01*
X42500000Y-69009580D02*
X42452381Y-68914342D01*
X42452381Y-68914342D02*
X42452381Y-68819104D01*
X42452381Y-68819104D02*
X42500000Y-68723866D01*
X42500000Y-68723866D02*
X42547619Y-68676247D01*
X42547619Y-68676247D02*
X42642857Y-68628628D01*
X42642857Y-68628628D02*
X42833333Y-68581009D01*
X42833333Y-68581009D02*
X42928571Y-68533390D01*
X42928571Y-68533390D02*
X42976190Y-68485771D01*
X42976190Y-68485771D02*
X43023809Y-68390533D01*
X43023809Y-68390533D02*
X43023809Y-68295295D01*
X43023809Y-68295295D02*
X42976190Y-68200057D01*
X42976190Y-68200057D02*
X42928571Y-68152438D01*
X42928571Y-68152438D02*
X42833333Y-68104819D01*
X42833333Y-68104819D02*
X42595238Y-68104819D01*
X42595238Y-68104819D02*
X42452381Y-68152438D01*
X42023809Y-69104819D02*
X42023809Y-68104819D01*
X42023809Y-68104819D02*
X41785714Y-68104819D01*
X41785714Y-68104819D02*
X41642857Y-68152438D01*
X41642857Y-68152438D02*
X41547619Y-68247676D01*
X41547619Y-68247676D02*
X41500000Y-68342914D01*
X41500000Y-68342914D02*
X41452381Y-68533390D01*
X41452381Y-68533390D02*
X41452381Y-68676247D01*
X41452381Y-68676247D02*
X41500000Y-68866723D01*
X41500000Y-68866723D02*
X41547619Y-68961961D01*
X41547619Y-68961961D02*
X41642857Y-69057200D01*
X41642857Y-69057200D02*
X41785714Y-69104819D01*
X41785714Y-69104819D02*
X42023809Y-69104819D01*
X40547619Y-68104819D02*
X41023809Y-68104819D01*
X41023809Y-68104819D02*
X41071428Y-68581009D01*
X41071428Y-68581009D02*
X41023809Y-68533390D01*
X41023809Y-68533390D02*
X40928571Y-68485771D01*
X40928571Y-68485771D02*
X40690476Y-68485771D01*
X40690476Y-68485771D02*
X40595238Y-68533390D01*
X40595238Y-68533390D02*
X40547619Y-68581009D01*
X40547619Y-68581009D02*
X40500000Y-68676247D01*
X40500000Y-68676247D02*
X40500000Y-68914342D01*
X40500000Y-68914342D02*
X40547619Y-69009580D01*
X40547619Y-69009580D02*
X40595238Y-69057200D01*
X40595238Y-69057200D02*
X40690476Y-69104819D01*
X40690476Y-69104819D02*
X40928571Y-69104819D01*
X40928571Y-69104819D02*
X41023809Y-69057200D01*
X41023809Y-69057200D02*
X41071428Y-69009580D01*
X40214285Y-68104819D02*
X39880952Y-69104819D01*
X39880952Y-69104819D02*
X39547619Y-68104819D01*
X39023809Y-68104819D02*
X38928571Y-68104819D01*
X38928571Y-68104819D02*
X38833333Y-68152438D01*
X38833333Y-68152438D02*
X38785714Y-68200057D01*
X38785714Y-68200057D02*
X38738095Y-68295295D01*
X38738095Y-68295295D02*
X38690476Y-68485771D01*
X38690476Y-68485771D02*
X38690476Y-68723866D01*
X38690476Y-68723866D02*
X38738095Y-68914342D01*
X38738095Y-68914342D02*
X38785714Y-69009580D01*
X38785714Y-69009580D02*
X38833333Y-69057200D01*
X38833333Y-69057200D02*
X38928571Y-69104819D01*
X38928571Y-69104819D02*
X39023809Y-69104819D01*
X39023809Y-69104819D02*
X39119047Y-69057200D01*
X39119047Y-69057200D02*
X39166666Y-69009580D01*
X39166666Y-69009580D02*
X39214285Y-68914342D01*
X39214285Y-68914342D02*
X39261904Y-68723866D01*
X39261904Y-68723866D02*
X39261904Y-68485771D01*
X39261904Y-68485771D02*
X39214285Y-68295295D01*
X39214285Y-68295295D02*
X39166666Y-68200057D01*
X39166666Y-68200057D02*
X39119047Y-68152438D01*
X39119047Y-68152438D02*
X39023809Y-68104819D01*
X37785714Y-69104819D02*
X38261904Y-69104819D01*
X38261904Y-69104819D02*
X38261904Y-68104819D01*
X36928571Y-69104819D02*
X37499999Y-69104819D01*
X37214285Y-69104819D02*
X37214285Y-68104819D01*
X37214285Y-68104819D02*
X37309523Y-68247676D01*
X37309523Y-68247676D02*
X37404761Y-68342914D01*
X37404761Y-68342914D02*
X37499999Y-68390533D01*
X36499999Y-68104819D02*
X36499999Y-68914342D01*
X36499999Y-68914342D02*
X36452380Y-69009580D01*
X36452380Y-69009580D02*
X36404761Y-69057200D01*
X36404761Y-69057200D02*
X36309523Y-69104819D01*
X36309523Y-69104819D02*
X36119047Y-69104819D01*
X36119047Y-69104819D02*
X36023809Y-69057200D01*
X36023809Y-69057200D02*
X35976190Y-69009580D01*
X35976190Y-69009580D02*
X35928571Y-68914342D01*
X35928571Y-68914342D02*
X35928571Y-68104819D01*
X34976190Y-69104819D02*
X35452380Y-69104819D01*
X35452380Y-69104819D02*
X35452380Y-68104819D01*
X40611094Y-71804819D02*
X40611094Y-70804819D01*
X40611094Y-70804819D02*
X40372999Y-70804819D01*
X40372999Y-70804819D02*
X40230142Y-70852438D01*
X40230142Y-70852438D02*
X40134904Y-70947676D01*
X40134904Y-70947676D02*
X40087285Y-71042914D01*
X40087285Y-71042914D02*
X40039666Y-71233390D01*
X40039666Y-71233390D02*
X40039666Y-71376247D01*
X40039666Y-71376247D02*
X40087285Y-71566723D01*
X40087285Y-71566723D02*
X40134904Y-71661961D01*
X40134904Y-71661961D02*
X40230142Y-71757200D01*
X40230142Y-71757200D02*
X40372999Y-71804819D01*
X40372999Y-71804819D02*
X40611094Y-71804819D01*
X39134904Y-70804819D02*
X39611094Y-70804819D01*
X39611094Y-70804819D02*
X39658713Y-71281009D01*
X39658713Y-71281009D02*
X39611094Y-71233390D01*
X39611094Y-71233390D02*
X39515856Y-71185771D01*
X39515856Y-71185771D02*
X39277761Y-71185771D01*
X39277761Y-71185771D02*
X39182523Y-71233390D01*
X39182523Y-71233390D02*
X39134904Y-71281009D01*
X39134904Y-71281009D02*
X39087285Y-71376247D01*
X39087285Y-71376247D02*
X39087285Y-71614342D01*
X39087285Y-71614342D02*
X39134904Y-71709580D01*
X39134904Y-71709580D02*
X39182523Y-71757200D01*
X39182523Y-71757200D02*
X39277761Y-71804819D01*
X39277761Y-71804819D02*
X39515856Y-71804819D01*
X39515856Y-71804819D02*
X39611094Y-71757200D01*
X39611094Y-71757200D02*
X39658713Y-71709580D01*
X78880919Y-53774819D02*
X79452347Y-53774819D01*
X79166633Y-53774819D02*
X79166633Y-52774819D01*
X79166633Y-52774819D02*
X79261871Y-52917676D01*
X79261871Y-52917676D02*
X79357109Y-53012914D01*
X79357109Y-53012914D02*
X79452347Y-53060533D01*
X78261871Y-52774819D02*
X78166633Y-52774819D01*
X78166633Y-52774819D02*
X78071395Y-52822438D01*
X78071395Y-52822438D02*
X78023776Y-52870057D01*
X78023776Y-52870057D02*
X77976157Y-52965295D01*
X77976157Y-52965295D02*
X77928538Y-53155771D01*
X77928538Y-53155771D02*
X77928538Y-53393866D01*
X77928538Y-53393866D02*
X77976157Y-53584342D01*
X77976157Y-53584342D02*
X78023776Y-53679580D01*
X78023776Y-53679580D02*
X78071395Y-53727200D01*
X78071395Y-53727200D02*
X78166633Y-53774819D01*
X78166633Y-53774819D02*
X78261871Y-53774819D01*
X78261871Y-53774819D02*
X78357109Y-53727200D01*
X78357109Y-53727200D02*
X78404728Y-53679580D01*
X78404728Y-53679580D02*
X78452347Y-53584342D01*
X78452347Y-53584342D02*
X78499966Y-53393866D01*
X78499966Y-53393866D02*
X78499966Y-53155771D01*
X78499966Y-53155771D02*
X78452347Y-52965295D01*
X78452347Y-52965295D02*
X78404728Y-52870057D01*
X78404728Y-52870057D02*
X78357109Y-52822438D01*
X78357109Y-52822438D02*
X78261871Y-52774819D01*
X77309490Y-52774819D02*
X77214252Y-52774819D01*
X77214252Y-52774819D02*
X77119014Y-52822438D01*
X77119014Y-52822438D02*
X77071395Y-52870057D01*
X77071395Y-52870057D02*
X77023776Y-52965295D01*
X77023776Y-52965295D02*
X76976157Y-53155771D01*
X76976157Y-53155771D02*
X76976157Y-53393866D01*
X76976157Y-53393866D02*
X77023776Y-53584342D01*
X77023776Y-53584342D02*
X77071395Y-53679580D01*
X77071395Y-53679580D02*
X77119014Y-53727200D01*
X77119014Y-53727200D02*
X77214252Y-53774819D01*
X77214252Y-53774819D02*
X77309490Y-53774819D01*
X77309490Y-53774819D02*
X77404728Y-53727200D01*
X77404728Y-53727200D02*
X77452347Y-53679580D01*
X77452347Y-53679580D02*
X77499966Y-53584342D01*
X77499966Y-53584342D02*
X77547585Y-53393866D01*
X77547585Y-53393866D02*
X77547585Y-53155771D01*
X77547585Y-53155771D02*
X77499966Y-52965295D01*
X77499966Y-52965295D02*
X77452347Y-52870057D01*
X77452347Y-52870057D02*
X77404728Y-52822438D01*
X77404728Y-52822438D02*
X77309490Y-52774819D01*
X76547585Y-53108152D02*
X76547585Y-53774819D01*
X76547585Y-53203390D02*
X76499966Y-53155771D01*
X76499966Y-53155771D02*
X76404728Y-53108152D01*
X76404728Y-53108152D02*
X76261871Y-53108152D01*
X76261871Y-53108152D02*
X76166633Y-53155771D01*
X76166633Y-53155771D02*
X76119014Y-53251009D01*
X76119014Y-53251009D02*
X76119014Y-53774819D01*
X75309490Y-53251009D02*
X75642823Y-53251009D01*
X75642823Y-53774819D02*
X75642823Y-52774819D01*
X75642823Y-52774819D02*
X75166633Y-52774819D01*
D12*
X77654728Y-55179530D02*
X77678537Y-55203340D01*
X77678537Y-55203340D02*
X77749966Y-55227149D01*
X77749966Y-55227149D02*
X77797585Y-55227149D01*
X77797585Y-55227149D02*
X77869013Y-55203340D01*
X77869013Y-55203340D02*
X77916632Y-55155720D01*
X77916632Y-55155720D02*
X77940442Y-55108101D01*
X77940442Y-55108101D02*
X77964251Y-55012863D01*
X77964251Y-55012863D02*
X77964251Y-54941435D01*
X77964251Y-54941435D02*
X77940442Y-54846197D01*
X77940442Y-54846197D02*
X77916632Y-54798578D01*
X77916632Y-54798578D02*
X77869013Y-54750959D01*
X77869013Y-54750959D02*
X77797585Y-54727149D01*
X77797585Y-54727149D02*
X77749966Y-54727149D01*
X77749966Y-54727149D02*
X77678537Y-54750959D01*
X77678537Y-54750959D02*
X77654728Y-54774768D01*
X77178537Y-55227149D02*
X77464251Y-55227149D01*
X77321394Y-55227149D02*
X77321394Y-54727149D01*
X77321394Y-54727149D02*
X77369013Y-54798578D01*
X77369013Y-54798578D02*
X77416632Y-54846197D01*
X77416632Y-54846197D02*
X77464251Y-54870006D01*
X76869014Y-54727149D02*
X76821395Y-54727149D01*
X76821395Y-54727149D02*
X76773776Y-54750959D01*
X76773776Y-54750959D02*
X76749966Y-54774768D01*
X76749966Y-54774768D02*
X76726157Y-54822387D01*
X76726157Y-54822387D02*
X76702347Y-54917625D01*
X76702347Y-54917625D02*
X76702347Y-55036673D01*
X76702347Y-55036673D02*
X76726157Y-55131911D01*
X76726157Y-55131911D02*
X76749966Y-55179530D01*
X76749966Y-55179530D02*
X76773776Y-55203340D01*
X76773776Y-55203340D02*
X76821395Y-55227149D01*
X76821395Y-55227149D02*
X76869014Y-55227149D01*
X76869014Y-55227149D02*
X76916633Y-55203340D01*
X76916633Y-55203340D02*
X76940442Y-55179530D01*
X76940442Y-55179530D02*
X76964252Y-55131911D01*
X76964252Y-55131911D02*
X76988061Y-55036673D01*
X76988061Y-55036673D02*
X76988061Y-54917625D01*
X76988061Y-54917625D02*
X76964252Y-54822387D01*
X76964252Y-54822387D02*
X76940442Y-54774768D01*
X76940442Y-54774768D02*
X76916633Y-54750959D01*
X76916633Y-54750959D02*
X76869014Y-54727149D01*
D10*
X33023775Y-36804819D02*
X33023775Y-35804819D01*
X33023775Y-35804819D02*
X32690442Y-36519104D01*
X32690442Y-36519104D02*
X32357109Y-35804819D01*
X32357109Y-35804819D02*
X32357109Y-36804819D01*
X31880918Y-36804819D02*
X31880918Y-35804819D01*
X31880918Y-35804819D02*
X31547585Y-36519104D01*
X31547585Y-36519104D02*
X31214252Y-35804819D01*
X31214252Y-35804819D02*
X31214252Y-36804819D01*
X30404728Y-36281009D02*
X30261871Y-36328628D01*
X30261871Y-36328628D02*
X30214252Y-36376247D01*
X30214252Y-36376247D02*
X30166633Y-36471485D01*
X30166633Y-36471485D02*
X30166633Y-36614342D01*
X30166633Y-36614342D02*
X30214252Y-36709580D01*
X30214252Y-36709580D02*
X30261871Y-36757200D01*
X30261871Y-36757200D02*
X30357109Y-36804819D01*
X30357109Y-36804819D02*
X30738061Y-36804819D01*
X30738061Y-36804819D02*
X30738061Y-35804819D01*
X30738061Y-35804819D02*
X30404728Y-35804819D01*
X30404728Y-35804819D02*
X30309490Y-35852438D01*
X30309490Y-35852438D02*
X30261871Y-35900057D01*
X30261871Y-35900057D02*
X30214252Y-35995295D01*
X30214252Y-35995295D02*
X30214252Y-36090533D01*
X30214252Y-36090533D02*
X30261871Y-36185771D01*
X30261871Y-36185771D02*
X30309490Y-36233390D01*
X30309490Y-36233390D02*
X30404728Y-36281009D01*
X30404728Y-36281009D02*
X30738061Y-36281009D01*
X29880918Y-35804819D02*
X29309490Y-35804819D01*
X29595204Y-36804819D02*
X29595204Y-35804819D01*
X29071394Y-35804819D02*
X28452347Y-35804819D01*
X28452347Y-35804819D02*
X28785680Y-36185771D01*
X28785680Y-36185771D02*
X28642823Y-36185771D01*
X28642823Y-36185771D02*
X28547585Y-36233390D01*
X28547585Y-36233390D02*
X28499966Y-36281009D01*
X28499966Y-36281009D02*
X28452347Y-36376247D01*
X28452347Y-36376247D02*
X28452347Y-36614342D01*
X28452347Y-36614342D02*
X28499966Y-36709580D01*
X28499966Y-36709580D02*
X28547585Y-36757200D01*
X28547585Y-36757200D02*
X28642823Y-36804819D01*
X28642823Y-36804819D02*
X28928537Y-36804819D01*
X28928537Y-36804819D02*
X29023775Y-36757200D01*
X29023775Y-36757200D02*
X29071394Y-36709580D01*
X27976156Y-36804819D02*
X27785680Y-36804819D01*
X27785680Y-36804819D02*
X27690442Y-36757200D01*
X27690442Y-36757200D02*
X27642823Y-36709580D01*
X27642823Y-36709580D02*
X27547585Y-36566723D01*
X27547585Y-36566723D02*
X27499966Y-36376247D01*
X27499966Y-36376247D02*
X27499966Y-35995295D01*
X27499966Y-35995295D02*
X27547585Y-35900057D01*
X27547585Y-35900057D02*
X27595204Y-35852438D01*
X27595204Y-35852438D02*
X27690442Y-35804819D01*
X27690442Y-35804819D02*
X27880918Y-35804819D01*
X27880918Y-35804819D02*
X27976156Y-35852438D01*
X27976156Y-35852438D02*
X28023775Y-35900057D01*
X28023775Y-35900057D02*
X28071394Y-35995295D01*
X28071394Y-35995295D02*
X28071394Y-36233390D01*
X28071394Y-36233390D02*
X28023775Y-36328628D01*
X28023775Y-36328628D02*
X27976156Y-36376247D01*
X27976156Y-36376247D02*
X27880918Y-36423866D01*
X27880918Y-36423866D02*
X27690442Y-36423866D01*
X27690442Y-36423866D02*
X27595204Y-36376247D01*
X27595204Y-36376247D02*
X27547585Y-36328628D01*
X27547585Y-36328628D02*
X27499966Y-36233390D01*
X26880918Y-35804819D02*
X26785680Y-35804819D01*
X26785680Y-35804819D02*
X26690442Y-35852438D01*
X26690442Y-35852438D02*
X26642823Y-35900057D01*
X26642823Y-35900057D02*
X26595204Y-35995295D01*
X26595204Y-35995295D02*
X26547585Y-36185771D01*
X26547585Y-36185771D02*
X26547585Y-36423866D01*
X26547585Y-36423866D02*
X26595204Y-36614342D01*
X26595204Y-36614342D02*
X26642823Y-36709580D01*
X26642823Y-36709580D02*
X26690442Y-36757200D01*
X26690442Y-36757200D02*
X26785680Y-36804819D01*
X26785680Y-36804819D02*
X26880918Y-36804819D01*
X26880918Y-36804819D02*
X26976156Y-36757200D01*
X26976156Y-36757200D02*
X27023775Y-36709580D01*
X27023775Y-36709580D02*
X27071394Y-36614342D01*
X27071394Y-36614342D02*
X27119013Y-36423866D01*
X27119013Y-36423866D02*
X27119013Y-36185771D01*
X27119013Y-36185771D02*
X27071394Y-35995295D01*
X27071394Y-35995295D02*
X27023775Y-35900057D01*
X27023775Y-35900057D02*
X26976156Y-35852438D01*
X26976156Y-35852438D02*
X26880918Y-35804819D01*
X25690442Y-36138152D02*
X25690442Y-36804819D01*
X25928537Y-35757200D02*
X26166632Y-36471485D01*
X26166632Y-36471485D02*
X25547585Y-36471485D01*
D11*
X29729237Y-38681428D02*
X29694951Y-38612857D01*
X29694951Y-38612857D02*
X29626380Y-38544285D01*
X29626380Y-38544285D02*
X29523522Y-38441428D01*
X29523522Y-38441428D02*
X29489237Y-38372857D01*
X29489237Y-38372857D02*
X29489237Y-38304285D01*
X29660665Y-38338571D02*
X29626380Y-38270000D01*
X29626380Y-38270000D02*
X29557808Y-38201428D01*
X29557808Y-38201428D02*
X29420665Y-38167142D01*
X29420665Y-38167142D02*
X29180665Y-38167142D01*
X29180665Y-38167142D02*
X29043522Y-38201428D01*
X29043522Y-38201428D02*
X28974951Y-38270000D01*
X28974951Y-38270000D02*
X28940665Y-38338571D01*
X28940665Y-38338571D02*
X28940665Y-38475714D01*
X28940665Y-38475714D02*
X28974951Y-38544285D01*
X28974951Y-38544285D02*
X29043522Y-38612857D01*
X29043522Y-38612857D02*
X29180665Y-38647142D01*
X29180665Y-38647142D02*
X29420665Y-38647142D01*
X29420665Y-38647142D02*
X29557808Y-38612857D01*
X29557808Y-38612857D02*
X29626380Y-38544285D01*
X29626380Y-38544285D02*
X29660665Y-38475714D01*
X29660665Y-38475714D02*
X29660665Y-38338571D01*
X29009237Y-38921428D02*
X28974951Y-38955714D01*
X28974951Y-38955714D02*
X28940665Y-39024286D01*
X28940665Y-39024286D02*
X28940665Y-39195714D01*
X28940665Y-39195714D02*
X28974951Y-39264286D01*
X28974951Y-39264286D02*
X29009237Y-39298571D01*
X29009237Y-39298571D02*
X29077808Y-39332857D01*
X29077808Y-39332857D02*
X29146380Y-39332857D01*
X29146380Y-39332857D02*
X29249237Y-39298571D01*
X29249237Y-39298571D02*
X29660665Y-38887143D01*
X29660665Y-38887143D02*
X29660665Y-39332857D01*
D10*
X89547619Y-31274819D02*
X90119047Y-31274819D01*
X89833333Y-31274819D02*
X89833333Y-30274819D01*
X89833333Y-30274819D02*
X89928571Y-30417676D01*
X89928571Y-30417676D02*
X90023809Y-30512914D01*
X90023809Y-30512914D02*
X90119047Y-30560533D01*
X88928571Y-30274819D02*
X88833333Y-30274819D01*
X88833333Y-30274819D02*
X88738095Y-30322438D01*
X88738095Y-30322438D02*
X88690476Y-30370057D01*
X88690476Y-30370057D02*
X88642857Y-30465295D01*
X88642857Y-30465295D02*
X88595238Y-30655771D01*
X88595238Y-30655771D02*
X88595238Y-30893866D01*
X88595238Y-30893866D02*
X88642857Y-31084342D01*
X88642857Y-31084342D02*
X88690476Y-31179580D01*
X88690476Y-31179580D02*
X88738095Y-31227200D01*
X88738095Y-31227200D02*
X88833333Y-31274819D01*
X88833333Y-31274819D02*
X88928571Y-31274819D01*
X88928571Y-31274819D02*
X89023809Y-31227200D01*
X89023809Y-31227200D02*
X89071428Y-31179580D01*
X89071428Y-31179580D02*
X89119047Y-31084342D01*
X89119047Y-31084342D02*
X89166666Y-30893866D01*
X89166666Y-30893866D02*
X89166666Y-30655771D01*
X89166666Y-30655771D02*
X89119047Y-30465295D01*
X89119047Y-30465295D02*
X89071428Y-30370057D01*
X89071428Y-30370057D02*
X89023809Y-30322438D01*
X89023809Y-30322438D02*
X88928571Y-30274819D01*
X87976190Y-30274819D02*
X87880952Y-30274819D01*
X87880952Y-30274819D02*
X87785714Y-30322438D01*
X87785714Y-30322438D02*
X87738095Y-30370057D01*
X87738095Y-30370057D02*
X87690476Y-30465295D01*
X87690476Y-30465295D02*
X87642857Y-30655771D01*
X87642857Y-30655771D02*
X87642857Y-30893866D01*
X87642857Y-30893866D02*
X87690476Y-31084342D01*
X87690476Y-31084342D02*
X87738095Y-31179580D01*
X87738095Y-31179580D02*
X87785714Y-31227200D01*
X87785714Y-31227200D02*
X87880952Y-31274819D01*
X87880952Y-31274819D02*
X87976190Y-31274819D01*
X87976190Y-31274819D02*
X88071428Y-31227200D01*
X88071428Y-31227200D02*
X88119047Y-31179580D01*
X88119047Y-31179580D02*
X88166666Y-31084342D01*
X88166666Y-31084342D02*
X88214285Y-30893866D01*
X88214285Y-30893866D02*
X88214285Y-30655771D01*
X88214285Y-30655771D02*
X88166666Y-30465295D01*
X88166666Y-30465295D02*
X88119047Y-30370057D01*
X88119047Y-30370057D02*
X88071428Y-30322438D01*
X88071428Y-30322438D02*
X87976190Y-30274819D01*
X87214285Y-30608152D02*
X87214285Y-31274819D01*
X87214285Y-30703390D02*
X87166666Y-30655771D01*
X87166666Y-30655771D02*
X87071428Y-30608152D01*
X87071428Y-30608152D02*
X86928571Y-30608152D01*
X86928571Y-30608152D02*
X86833333Y-30655771D01*
X86833333Y-30655771D02*
X86785714Y-30751009D01*
X86785714Y-30751009D02*
X86785714Y-31274819D01*
X85976190Y-30751009D02*
X86309523Y-30751009D01*
X86309523Y-31274819D02*
X86309523Y-30274819D01*
X86309523Y-30274819D02*
X85833333Y-30274819D01*
D12*
X88321428Y-32679530D02*
X88345237Y-32703340D01*
X88345237Y-32703340D02*
X88416666Y-32727149D01*
X88416666Y-32727149D02*
X88464285Y-32727149D01*
X88464285Y-32727149D02*
X88535713Y-32703340D01*
X88535713Y-32703340D02*
X88583332Y-32655720D01*
X88583332Y-32655720D02*
X88607142Y-32608101D01*
X88607142Y-32608101D02*
X88630951Y-32512863D01*
X88630951Y-32512863D02*
X88630951Y-32441435D01*
X88630951Y-32441435D02*
X88607142Y-32346197D01*
X88607142Y-32346197D02*
X88583332Y-32298578D01*
X88583332Y-32298578D02*
X88535713Y-32250959D01*
X88535713Y-32250959D02*
X88464285Y-32227149D01*
X88464285Y-32227149D02*
X88416666Y-32227149D01*
X88416666Y-32227149D02*
X88345237Y-32250959D01*
X88345237Y-32250959D02*
X88321428Y-32274768D01*
X87845237Y-32727149D02*
X88130951Y-32727149D01*
X87988094Y-32727149D02*
X87988094Y-32227149D01*
X87988094Y-32227149D02*
X88035713Y-32298578D01*
X88035713Y-32298578D02*
X88083332Y-32346197D01*
X88083332Y-32346197D02*
X88130951Y-32370006D01*
X87369047Y-32727149D02*
X87654761Y-32727149D01*
X87511904Y-32727149D02*
X87511904Y-32227149D01*
X87511904Y-32227149D02*
X87559523Y-32298578D01*
X87559523Y-32298578D02*
X87607142Y-32346197D01*
X87607142Y-32346197D02*
X87654761Y-32370006D01*
D10*
X56928571Y-68138152D02*
X56928571Y-68804819D01*
X57166666Y-67757200D02*
X57404761Y-68471485D01*
X57404761Y-68471485D02*
X56785714Y-68471485D01*
X56404761Y-68709580D02*
X56357142Y-68757200D01*
X56357142Y-68757200D02*
X56404761Y-68804819D01*
X56404761Y-68804819D02*
X56452380Y-68757200D01*
X56452380Y-68757200D02*
X56404761Y-68709580D01*
X56404761Y-68709580D02*
X56404761Y-68804819D01*
X56023809Y-67804819D02*
X55357143Y-67804819D01*
X55357143Y-67804819D02*
X55785714Y-68804819D01*
X54976190Y-68804819D02*
X54976190Y-67804819D01*
X54880952Y-68423866D02*
X54595238Y-68804819D01*
X54595238Y-68138152D02*
X54976190Y-68519104D01*
D12*
X56321428Y-70227149D02*
X56488094Y-69989054D01*
X56607142Y-70227149D02*
X56607142Y-69727149D01*
X56607142Y-69727149D02*
X56416666Y-69727149D01*
X56416666Y-69727149D02*
X56369047Y-69750959D01*
X56369047Y-69750959D02*
X56345237Y-69774768D01*
X56345237Y-69774768D02*
X56321428Y-69822387D01*
X56321428Y-69822387D02*
X56321428Y-69893816D01*
X56321428Y-69893816D02*
X56345237Y-69941435D01*
X56345237Y-69941435D02*
X56369047Y-69965244D01*
X56369047Y-69965244D02*
X56416666Y-69989054D01*
X56416666Y-69989054D02*
X56607142Y-69989054D01*
X55845237Y-70227149D02*
X56130951Y-70227149D01*
X55988094Y-70227149D02*
X55988094Y-69727149D01*
X55988094Y-69727149D02*
X56035713Y-69798578D01*
X56035713Y-69798578D02*
X56083332Y-69846197D01*
X56083332Y-69846197D02*
X56130951Y-69870006D01*
X55416666Y-69893816D02*
X55416666Y-70227149D01*
X55535714Y-69703340D02*
X55654761Y-70060482D01*
X55654761Y-70060482D02*
X55345238Y-70060482D01*
D10*
X24119047Y-68804819D02*
X24690475Y-68804819D01*
X24404761Y-68804819D02*
X24404761Y-67804819D01*
X24404761Y-67804819D02*
X24499999Y-67947676D01*
X24499999Y-67947676D02*
X24595237Y-68042914D01*
X24595237Y-68042914D02*
X24690475Y-68090533D01*
X23690475Y-68804819D02*
X23690475Y-67804819D01*
X23595237Y-68423866D02*
X23309523Y-68804819D01*
X23309523Y-68138152D02*
X23690475Y-68519104D01*
D12*
X24321428Y-70227149D02*
X24488094Y-69989054D01*
X24607142Y-70227149D02*
X24607142Y-69727149D01*
X24607142Y-69727149D02*
X24416666Y-69727149D01*
X24416666Y-69727149D02*
X24369047Y-69750959D01*
X24369047Y-69750959D02*
X24345237Y-69774768D01*
X24345237Y-69774768D02*
X24321428Y-69822387D01*
X24321428Y-69822387D02*
X24321428Y-69893816D01*
X24321428Y-69893816D02*
X24345237Y-69941435D01*
X24345237Y-69941435D02*
X24369047Y-69965244D01*
X24369047Y-69965244D02*
X24416666Y-69989054D01*
X24416666Y-69989054D02*
X24607142Y-69989054D01*
X23845237Y-70227149D02*
X24130951Y-70227149D01*
X23988094Y-70227149D02*
X23988094Y-69727149D01*
X23988094Y-69727149D02*
X24035713Y-69798578D01*
X24035713Y-69798578D02*
X24083332Y-69846197D01*
X24083332Y-69846197D02*
X24130951Y-69870006D01*
X23678571Y-69727149D02*
X23369047Y-69727149D01*
X23369047Y-69727149D02*
X23535714Y-69917625D01*
X23535714Y-69917625D02*
X23464285Y-69917625D01*
X23464285Y-69917625D02*
X23416666Y-69941435D01*
X23416666Y-69941435D02*
X23392857Y-69965244D01*
X23392857Y-69965244D02*
X23369047Y-70012863D01*
X23369047Y-70012863D02*
X23369047Y-70131911D01*
X23369047Y-70131911D02*
X23392857Y-70179530D01*
X23392857Y-70179530D02*
X23416666Y-70203340D01*
X23416666Y-70203340D02*
X23464285Y-70227149D01*
X23464285Y-70227149D02*
X23607142Y-70227149D01*
X23607142Y-70227149D02*
X23654761Y-70203340D01*
X23654761Y-70203340D02*
X23678571Y-70179530D01*
D10*
X35547652Y-26554819D02*
X36023842Y-26554819D01*
X36023842Y-26554819D02*
X36071461Y-27031009D01*
X36071461Y-27031009D02*
X36023842Y-26983390D01*
X36023842Y-26983390D02*
X35928604Y-26935771D01*
X35928604Y-26935771D02*
X35690509Y-26935771D01*
X35690509Y-26935771D02*
X35595271Y-26983390D01*
X35595271Y-26983390D02*
X35547652Y-27031009D01*
X35547652Y-27031009D02*
X35500033Y-27126247D01*
X35500033Y-27126247D02*
X35500033Y-27364342D01*
X35500033Y-27364342D02*
X35547652Y-27459580D01*
X35547652Y-27459580D02*
X35595271Y-27507200D01*
X35595271Y-27507200D02*
X35690509Y-27554819D01*
X35690509Y-27554819D02*
X35928604Y-27554819D01*
X35928604Y-27554819D02*
X36023842Y-27507200D01*
X36023842Y-27507200D02*
X36071461Y-27459580D01*
X35071461Y-27459580D02*
X35023842Y-27507200D01*
X35023842Y-27507200D02*
X35071461Y-27554819D01*
X35071461Y-27554819D02*
X35119080Y-27507200D01*
X35119080Y-27507200D02*
X35071461Y-27459580D01*
X35071461Y-27459580D02*
X35071461Y-27554819D01*
X34071462Y-27554819D02*
X34642890Y-27554819D01*
X34357176Y-27554819D02*
X34357176Y-26554819D01*
X34357176Y-26554819D02*
X34452414Y-26697676D01*
X34452414Y-26697676D02*
X34547652Y-26792914D01*
X34547652Y-26792914D02*
X34642890Y-26840533D01*
X33642890Y-27554819D02*
X33642890Y-26554819D01*
X33547652Y-27173866D02*
X33261938Y-27554819D01*
X33261938Y-26888152D02*
X33642890Y-27269104D01*
D12*
X34750033Y-28977149D02*
X34916699Y-28739054D01*
X35035747Y-28977149D02*
X35035747Y-28477149D01*
X35035747Y-28477149D02*
X34845271Y-28477149D01*
X34845271Y-28477149D02*
X34797652Y-28500959D01*
X34797652Y-28500959D02*
X34773842Y-28524768D01*
X34773842Y-28524768D02*
X34750033Y-28572387D01*
X34750033Y-28572387D02*
X34750033Y-28643816D01*
X34750033Y-28643816D02*
X34773842Y-28691435D01*
X34773842Y-28691435D02*
X34797652Y-28715244D01*
X34797652Y-28715244D02*
X34845271Y-28739054D01*
X34845271Y-28739054D02*
X35035747Y-28739054D01*
X34273842Y-28977149D02*
X34559556Y-28977149D01*
X34416699Y-28977149D02*
X34416699Y-28477149D01*
X34416699Y-28477149D02*
X34464318Y-28548578D01*
X34464318Y-28548578D02*
X34511937Y-28596197D01*
X34511937Y-28596197D02*
X34559556Y-28620006D01*
D10*
X20809557Y-28209580D02*
X20857176Y-28257200D01*
X20857176Y-28257200D02*
X21000033Y-28304819D01*
X21000033Y-28304819D02*
X21095271Y-28304819D01*
X21095271Y-28304819D02*
X21238128Y-28257200D01*
X21238128Y-28257200D02*
X21333366Y-28161961D01*
X21333366Y-28161961D02*
X21380985Y-28066723D01*
X21380985Y-28066723D02*
X21428604Y-27876247D01*
X21428604Y-27876247D02*
X21428604Y-27733390D01*
X21428604Y-27733390D02*
X21380985Y-27542914D01*
X21380985Y-27542914D02*
X21333366Y-27447676D01*
X21333366Y-27447676D02*
X21238128Y-27352438D01*
X21238128Y-27352438D02*
X21095271Y-27304819D01*
X21095271Y-27304819D02*
X21000033Y-27304819D01*
X21000033Y-27304819D02*
X20857176Y-27352438D01*
X20857176Y-27352438D02*
X20809557Y-27400057D01*
X20380985Y-28304819D02*
X20380985Y-27304819D01*
X20380985Y-27781009D02*
X19809557Y-27781009D01*
X19809557Y-28304819D02*
X19809557Y-27304819D01*
X19428604Y-27304819D02*
X18809557Y-27304819D01*
X18809557Y-27304819D02*
X19142890Y-27685771D01*
X19142890Y-27685771D02*
X19000033Y-27685771D01*
X19000033Y-27685771D02*
X18904795Y-27733390D01*
X18904795Y-27733390D02*
X18857176Y-27781009D01*
X18857176Y-27781009D02*
X18809557Y-27876247D01*
X18809557Y-27876247D02*
X18809557Y-28114342D01*
X18809557Y-28114342D02*
X18857176Y-28209580D01*
X18857176Y-28209580D02*
X18904795Y-28257200D01*
X18904795Y-28257200D02*
X19000033Y-28304819D01*
X19000033Y-28304819D02*
X19285747Y-28304819D01*
X19285747Y-28304819D02*
X19380985Y-28257200D01*
X19380985Y-28257200D02*
X19428604Y-28209580D01*
X17952414Y-27638152D02*
X17952414Y-28304819D01*
X18190509Y-27257200D02*
X18428604Y-27971485D01*
X18428604Y-27971485D02*
X17809557Y-27971485D01*
X17238128Y-27304819D02*
X17142890Y-27304819D01*
X17142890Y-27304819D02*
X17047652Y-27352438D01*
X17047652Y-27352438D02*
X17000033Y-27400057D01*
X17000033Y-27400057D02*
X16952414Y-27495295D01*
X16952414Y-27495295D02*
X16904795Y-27685771D01*
X16904795Y-27685771D02*
X16904795Y-27923866D01*
X16904795Y-27923866D02*
X16952414Y-28114342D01*
X16952414Y-28114342D02*
X17000033Y-28209580D01*
X17000033Y-28209580D02*
X17047652Y-28257200D01*
X17047652Y-28257200D02*
X17142890Y-28304819D01*
X17142890Y-28304819D02*
X17238128Y-28304819D01*
X17238128Y-28304819D02*
X17333366Y-28257200D01*
X17333366Y-28257200D02*
X17380985Y-28209580D01*
X17380985Y-28209580D02*
X17428604Y-28114342D01*
X17428604Y-28114342D02*
X17476223Y-27923866D01*
X17476223Y-27923866D02*
X17476223Y-27685771D01*
X17476223Y-27685771D02*
X17428604Y-27495295D01*
X17428604Y-27495295D02*
X17380985Y-27400057D01*
X17380985Y-27400057D02*
X17333366Y-27352438D01*
X17333366Y-27352438D02*
X17238128Y-27304819D01*
X15904795Y-28209580D02*
X15952414Y-28257200D01*
X15952414Y-28257200D02*
X16095271Y-28304819D01*
X16095271Y-28304819D02*
X16190509Y-28304819D01*
X16190509Y-28304819D02*
X16333366Y-28257200D01*
X16333366Y-28257200D02*
X16428604Y-28161961D01*
X16428604Y-28161961D02*
X16476223Y-28066723D01*
X16476223Y-28066723D02*
X16523842Y-27876247D01*
X16523842Y-27876247D02*
X16523842Y-27733390D01*
X16523842Y-27733390D02*
X16476223Y-27542914D01*
X16476223Y-27542914D02*
X16428604Y-27447676D01*
X16428604Y-27447676D02*
X16333366Y-27352438D01*
X16333366Y-27352438D02*
X16190509Y-27304819D01*
X16190509Y-27304819D02*
X16095271Y-27304819D01*
X16095271Y-27304819D02*
X15952414Y-27352438D01*
X15952414Y-27352438D02*
X15904795Y-27400057D01*
X18121519Y-32988095D02*
X18931042Y-32988095D01*
X18931042Y-32988095D02*
X19026280Y-33035714D01*
X19026280Y-33035714D02*
X19073900Y-33083333D01*
X19073900Y-33083333D02*
X19121519Y-33178571D01*
X19121519Y-33178571D02*
X19121519Y-33369047D01*
X19121519Y-33369047D02*
X19073900Y-33464285D01*
X19073900Y-33464285D02*
X19026280Y-33511904D01*
X19026280Y-33511904D02*
X18931042Y-33559523D01*
X18931042Y-33559523D02*
X18121519Y-33559523D01*
X19121519Y-34559523D02*
X19121519Y-33988095D01*
X19121519Y-34273809D02*
X18121519Y-34273809D01*
X18121519Y-34273809D02*
X18264376Y-34178571D01*
X18264376Y-34178571D02*
X18359614Y-34083333D01*
X18359614Y-34083333D02*
X18407233Y-33988095D01*
X30499966Y-68804819D02*
X31071394Y-68804819D01*
X30785680Y-68804819D02*
X30785680Y-67804819D01*
X30785680Y-67804819D02*
X30880918Y-67947676D01*
X30880918Y-67947676D02*
X30976156Y-68042914D01*
X30976156Y-68042914D02*
X31071394Y-68090533D01*
X29880918Y-67804819D02*
X29785680Y-67804819D01*
X29785680Y-67804819D02*
X29690442Y-67852438D01*
X29690442Y-67852438D02*
X29642823Y-67900057D01*
X29642823Y-67900057D02*
X29595204Y-67995295D01*
X29595204Y-67995295D02*
X29547585Y-68185771D01*
X29547585Y-68185771D02*
X29547585Y-68423866D01*
X29547585Y-68423866D02*
X29595204Y-68614342D01*
X29595204Y-68614342D02*
X29642823Y-68709580D01*
X29642823Y-68709580D02*
X29690442Y-68757200D01*
X29690442Y-68757200D02*
X29785680Y-68804819D01*
X29785680Y-68804819D02*
X29880918Y-68804819D01*
X29880918Y-68804819D02*
X29976156Y-68757200D01*
X29976156Y-68757200D02*
X30023775Y-68709580D01*
X30023775Y-68709580D02*
X30071394Y-68614342D01*
X30071394Y-68614342D02*
X30119013Y-68423866D01*
X30119013Y-68423866D02*
X30119013Y-68185771D01*
X30119013Y-68185771D02*
X30071394Y-67995295D01*
X30071394Y-67995295D02*
X30023775Y-67900057D01*
X30023775Y-67900057D02*
X29976156Y-67852438D01*
X29976156Y-67852438D02*
X29880918Y-67804819D01*
X28928537Y-67804819D02*
X28833299Y-67804819D01*
X28833299Y-67804819D02*
X28738061Y-67852438D01*
X28738061Y-67852438D02*
X28690442Y-67900057D01*
X28690442Y-67900057D02*
X28642823Y-67995295D01*
X28642823Y-67995295D02*
X28595204Y-68185771D01*
X28595204Y-68185771D02*
X28595204Y-68423866D01*
X28595204Y-68423866D02*
X28642823Y-68614342D01*
X28642823Y-68614342D02*
X28690442Y-68709580D01*
X28690442Y-68709580D02*
X28738061Y-68757200D01*
X28738061Y-68757200D02*
X28833299Y-68804819D01*
X28833299Y-68804819D02*
X28928537Y-68804819D01*
X28928537Y-68804819D02*
X29023775Y-68757200D01*
X29023775Y-68757200D02*
X29071394Y-68709580D01*
X29071394Y-68709580D02*
X29119013Y-68614342D01*
X29119013Y-68614342D02*
X29166632Y-68423866D01*
X29166632Y-68423866D02*
X29166632Y-68185771D01*
X29166632Y-68185771D02*
X29119013Y-67995295D01*
X29119013Y-67995295D02*
X29071394Y-67900057D01*
X29071394Y-67900057D02*
X29023775Y-67852438D01*
X29023775Y-67852438D02*
X28928537Y-67804819D01*
X27595204Y-68804819D02*
X27928537Y-68328628D01*
X28166632Y-68804819D02*
X28166632Y-67804819D01*
X28166632Y-67804819D02*
X27785680Y-67804819D01*
X27785680Y-67804819D02*
X27690442Y-67852438D01*
X27690442Y-67852438D02*
X27642823Y-67900057D01*
X27642823Y-67900057D02*
X27595204Y-67995295D01*
X27595204Y-67995295D02*
X27595204Y-68138152D01*
X27595204Y-68138152D02*
X27642823Y-68233390D01*
X27642823Y-68233390D02*
X27690442Y-68281009D01*
X27690442Y-68281009D02*
X27785680Y-68328628D01*
X27785680Y-68328628D02*
X28166632Y-68328628D01*
D12*
X29654728Y-70227149D02*
X29821394Y-69989054D01*
X29940442Y-70227149D02*
X29940442Y-69727149D01*
X29940442Y-69727149D02*
X29749966Y-69727149D01*
X29749966Y-69727149D02*
X29702347Y-69750959D01*
X29702347Y-69750959D02*
X29678537Y-69774768D01*
X29678537Y-69774768D02*
X29654728Y-69822387D01*
X29654728Y-69822387D02*
X29654728Y-69893816D01*
X29654728Y-69893816D02*
X29678537Y-69941435D01*
X29678537Y-69941435D02*
X29702347Y-69965244D01*
X29702347Y-69965244D02*
X29749966Y-69989054D01*
X29749966Y-69989054D02*
X29940442Y-69989054D01*
X29178537Y-70227149D02*
X29464251Y-70227149D01*
X29321394Y-70227149D02*
X29321394Y-69727149D01*
X29321394Y-69727149D02*
X29369013Y-69798578D01*
X29369013Y-69798578D02*
X29416632Y-69846197D01*
X29416632Y-69846197D02*
X29464251Y-69870006D01*
X28988061Y-69774768D02*
X28964252Y-69750959D01*
X28964252Y-69750959D02*
X28916633Y-69727149D01*
X28916633Y-69727149D02*
X28797585Y-69727149D01*
X28797585Y-69727149D02*
X28749966Y-69750959D01*
X28749966Y-69750959D02*
X28726157Y-69774768D01*
X28726157Y-69774768D02*
X28702347Y-69822387D01*
X28702347Y-69822387D02*
X28702347Y-69870006D01*
X28702347Y-69870006D02*
X28726157Y-69941435D01*
X28726157Y-69941435D02*
X29011871Y-70227149D01*
X29011871Y-70227149D02*
X28702347Y-70227149D01*
D10*
X19261938Y-46304819D02*
X19833366Y-46304819D01*
X19547652Y-46304819D02*
X19547652Y-45304819D01*
X19547652Y-45304819D02*
X19642890Y-45447676D01*
X19642890Y-45447676D02*
X19738128Y-45542914D01*
X19738128Y-45542914D02*
X19833366Y-45590533D01*
X18642890Y-45304819D02*
X18547652Y-45304819D01*
X18547652Y-45304819D02*
X18452414Y-45352438D01*
X18452414Y-45352438D02*
X18404795Y-45400057D01*
X18404795Y-45400057D02*
X18357176Y-45495295D01*
X18357176Y-45495295D02*
X18309557Y-45685771D01*
X18309557Y-45685771D02*
X18309557Y-45923866D01*
X18309557Y-45923866D02*
X18357176Y-46114342D01*
X18357176Y-46114342D02*
X18404795Y-46209580D01*
X18404795Y-46209580D02*
X18452414Y-46257200D01*
X18452414Y-46257200D02*
X18547652Y-46304819D01*
X18547652Y-46304819D02*
X18642890Y-46304819D01*
X18642890Y-46304819D02*
X18738128Y-46257200D01*
X18738128Y-46257200D02*
X18785747Y-46209580D01*
X18785747Y-46209580D02*
X18833366Y-46114342D01*
X18833366Y-46114342D02*
X18880985Y-45923866D01*
X18880985Y-45923866D02*
X18880985Y-45685771D01*
X18880985Y-45685771D02*
X18833366Y-45495295D01*
X18833366Y-45495295D02*
X18785747Y-45400057D01*
X18785747Y-45400057D02*
X18738128Y-45352438D01*
X18738128Y-45352438D02*
X18642890Y-45304819D01*
X17880985Y-46304819D02*
X17880985Y-45304819D01*
X17785747Y-45923866D02*
X17500033Y-46304819D01*
X17500033Y-45638152D02*
X17880985Y-46019104D01*
D12*
X18750033Y-47727149D02*
X18916699Y-47489054D01*
X19035747Y-47727149D02*
X19035747Y-47227149D01*
X19035747Y-47227149D02*
X18845271Y-47227149D01*
X18845271Y-47227149D02*
X18797652Y-47250959D01*
X18797652Y-47250959D02*
X18773842Y-47274768D01*
X18773842Y-47274768D02*
X18750033Y-47322387D01*
X18750033Y-47322387D02*
X18750033Y-47393816D01*
X18750033Y-47393816D02*
X18773842Y-47441435D01*
X18773842Y-47441435D02*
X18797652Y-47465244D01*
X18797652Y-47465244D02*
X18845271Y-47489054D01*
X18845271Y-47489054D02*
X19035747Y-47489054D01*
X18297652Y-47227149D02*
X18535747Y-47227149D01*
X18535747Y-47227149D02*
X18559556Y-47465244D01*
X18559556Y-47465244D02*
X18535747Y-47441435D01*
X18535747Y-47441435D02*
X18488128Y-47417625D01*
X18488128Y-47417625D02*
X18369080Y-47417625D01*
X18369080Y-47417625D02*
X18321461Y-47441435D01*
X18321461Y-47441435D02*
X18297652Y-47465244D01*
X18297652Y-47465244D02*
X18273842Y-47512863D01*
X18273842Y-47512863D02*
X18273842Y-47631911D01*
X18273842Y-47631911D02*
X18297652Y-47679530D01*
X18297652Y-47679530D02*
X18321461Y-47703340D01*
X18321461Y-47703340D02*
X18369080Y-47727149D01*
X18369080Y-47727149D02*
X18488128Y-47727149D01*
X18488128Y-47727149D02*
X18535747Y-47703340D01*
X18535747Y-47703340D02*
X18559556Y-47679530D01*
D10*
X35547652Y-36554819D02*
X36023842Y-36554819D01*
X36023842Y-36554819D02*
X36071461Y-37031009D01*
X36071461Y-37031009D02*
X36023842Y-36983390D01*
X36023842Y-36983390D02*
X35928604Y-36935771D01*
X35928604Y-36935771D02*
X35690509Y-36935771D01*
X35690509Y-36935771D02*
X35595271Y-36983390D01*
X35595271Y-36983390D02*
X35547652Y-37031009D01*
X35547652Y-37031009D02*
X35500033Y-37126247D01*
X35500033Y-37126247D02*
X35500033Y-37364342D01*
X35500033Y-37364342D02*
X35547652Y-37459580D01*
X35547652Y-37459580D02*
X35595271Y-37507200D01*
X35595271Y-37507200D02*
X35690509Y-37554819D01*
X35690509Y-37554819D02*
X35928604Y-37554819D01*
X35928604Y-37554819D02*
X36023842Y-37507200D01*
X36023842Y-37507200D02*
X36071461Y-37459580D01*
X35071461Y-37459580D02*
X35023842Y-37507200D01*
X35023842Y-37507200D02*
X35071461Y-37554819D01*
X35071461Y-37554819D02*
X35119080Y-37507200D01*
X35119080Y-37507200D02*
X35071461Y-37459580D01*
X35071461Y-37459580D02*
X35071461Y-37554819D01*
X34071462Y-37554819D02*
X34642890Y-37554819D01*
X34357176Y-37554819D02*
X34357176Y-36554819D01*
X34357176Y-36554819D02*
X34452414Y-36697676D01*
X34452414Y-36697676D02*
X34547652Y-36792914D01*
X34547652Y-36792914D02*
X34642890Y-36840533D01*
X33642890Y-37554819D02*
X33642890Y-36554819D01*
X33547652Y-37173866D02*
X33261938Y-37554819D01*
X33261938Y-36888152D02*
X33642890Y-37269104D01*
D12*
X34750033Y-38977149D02*
X34916699Y-38739054D01*
X35035747Y-38977149D02*
X35035747Y-38477149D01*
X35035747Y-38477149D02*
X34845271Y-38477149D01*
X34845271Y-38477149D02*
X34797652Y-38500959D01*
X34797652Y-38500959D02*
X34773842Y-38524768D01*
X34773842Y-38524768D02*
X34750033Y-38572387D01*
X34750033Y-38572387D02*
X34750033Y-38643816D01*
X34750033Y-38643816D02*
X34773842Y-38691435D01*
X34773842Y-38691435D02*
X34797652Y-38715244D01*
X34797652Y-38715244D02*
X34845271Y-38739054D01*
X34845271Y-38739054D02*
X35035747Y-38739054D01*
X34559556Y-38524768D02*
X34535747Y-38500959D01*
X34535747Y-38500959D02*
X34488128Y-38477149D01*
X34488128Y-38477149D02*
X34369080Y-38477149D01*
X34369080Y-38477149D02*
X34321461Y-38500959D01*
X34321461Y-38500959D02*
X34297652Y-38524768D01*
X34297652Y-38524768D02*
X34273842Y-38572387D01*
X34273842Y-38572387D02*
X34273842Y-38620006D01*
X34273842Y-38620006D02*
X34297652Y-38691435D01*
X34297652Y-38691435D02*
X34583366Y-38977149D01*
X34583366Y-38977149D02*
X34273842Y-38977149D01*
D10*
X41071428Y-11274819D02*
X41642856Y-11274819D01*
X41357142Y-11274819D02*
X41357142Y-10274819D01*
X41357142Y-10274819D02*
X41452380Y-10417676D01*
X41452380Y-10417676D02*
X41547618Y-10512914D01*
X41547618Y-10512914D02*
X41642856Y-10560533D01*
X40452380Y-10274819D02*
X40357142Y-10274819D01*
X40357142Y-10274819D02*
X40261904Y-10322438D01*
X40261904Y-10322438D02*
X40214285Y-10370057D01*
X40214285Y-10370057D02*
X40166666Y-10465295D01*
X40166666Y-10465295D02*
X40119047Y-10655771D01*
X40119047Y-10655771D02*
X40119047Y-10893866D01*
X40119047Y-10893866D02*
X40166666Y-11084342D01*
X40166666Y-11084342D02*
X40214285Y-11179580D01*
X40214285Y-11179580D02*
X40261904Y-11227200D01*
X40261904Y-11227200D02*
X40357142Y-11274819D01*
X40357142Y-11274819D02*
X40452380Y-11274819D01*
X40452380Y-11274819D02*
X40547618Y-11227200D01*
X40547618Y-11227200D02*
X40595237Y-11179580D01*
X40595237Y-11179580D02*
X40642856Y-11084342D01*
X40642856Y-11084342D02*
X40690475Y-10893866D01*
X40690475Y-10893866D02*
X40690475Y-10655771D01*
X40690475Y-10655771D02*
X40642856Y-10465295D01*
X40642856Y-10465295D02*
X40595237Y-10370057D01*
X40595237Y-10370057D02*
X40547618Y-10322438D01*
X40547618Y-10322438D02*
X40452380Y-10274819D01*
X39261904Y-10608152D02*
X39261904Y-11274819D01*
X39690475Y-10608152D02*
X39690475Y-11131961D01*
X39690475Y-11131961D02*
X39642856Y-11227200D01*
X39642856Y-11227200D02*
X39547618Y-11274819D01*
X39547618Y-11274819D02*
X39404761Y-11274819D01*
X39404761Y-11274819D02*
X39309523Y-11227200D01*
X39309523Y-11227200D02*
X39261904Y-11179580D01*
X38452380Y-10751009D02*
X38785713Y-10751009D01*
X38785713Y-11274819D02*
X38785713Y-10274819D01*
X38785713Y-10274819D02*
X38309523Y-10274819D01*
D12*
X40083333Y-12679530D02*
X40107142Y-12703340D01*
X40107142Y-12703340D02*
X40178571Y-12727149D01*
X40178571Y-12727149D02*
X40226190Y-12727149D01*
X40226190Y-12727149D02*
X40297618Y-12703340D01*
X40297618Y-12703340D02*
X40345237Y-12655720D01*
X40345237Y-12655720D02*
X40369047Y-12608101D01*
X40369047Y-12608101D02*
X40392856Y-12512863D01*
X40392856Y-12512863D02*
X40392856Y-12441435D01*
X40392856Y-12441435D02*
X40369047Y-12346197D01*
X40369047Y-12346197D02*
X40345237Y-12298578D01*
X40345237Y-12298578D02*
X40297618Y-12250959D01*
X40297618Y-12250959D02*
X40226190Y-12227149D01*
X40226190Y-12227149D02*
X40178571Y-12227149D01*
X40178571Y-12227149D02*
X40107142Y-12250959D01*
X40107142Y-12250959D02*
X40083333Y-12274768D01*
X39916666Y-12227149D02*
X39607142Y-12227149D01*
X39607142Y-12227149D02*
X39773809Y-12417625D01*
X39773809Y-12417625D02*
X39702380Y-12417625D01*
X39702380Y-12417625D02*
X39654761Y-12441435D01*
X39654761Y-12441435D02*
X39630952Y-12465244D01*
X39630952Y-12465244D02*
X39607142Y-12512863D01*
X39607142Y-12512863D02*
X39607142Y-12631911D01*
X39607142Y-12631911D02*
X39630952Y-12679530D01*
X39630952Y-12679530D02*
X39654761Y-12703340D01*
X39654761Y-12703340D02*
X39702380Y-12727149D01*
X39702380Y-12727149D02*
X39845237Y-12727149D01*
X39845237Y-12727149D02*
X39892856Y-12703340D01*
X39892856Y-12703340D02*
X39916666Y-12679530D01*
D10*
X79547652Y-69104819D02*
X79547652Y-68104819D01*
X79547652Y-68104819D02*
X79166700Y-68104819D01*
X79166700Y-68104819D02*
X79071462Y-68152438D01*
X79071462Y-68152438D02*
X79023843Y-68200057D01*
X79023843Y-68200057D02*
X78976224Y-68295295D01*
X78976224Y-68295295D02*
X78976224Y-68438152D01*
X78976224Y-68438152D02*
X79023843Y-68533390D01*
X79023843Y-68533390D02*
X79071462Y-68581009D01*
X79071462Y-68581009D02*
X79166700Y-68628628D01*
X79166700Y-68628628D02*
X79547652Y-68628628D01*
X78547652Y-68581009D02*
X78214319Y-68581009D01*
X78071462Y-69104819D02*
X78547652Y-69104819D01*
X78547652Y-69104819D02*
X78547652Y-68104819D01*
X78547652Y-68104819D02*
X78071462Y-68104819D01*
X77690509Y-69057200D02*
X77547652Y-69104819D01*
X77547652Y-69104819D02*
X77309557Y-69104819D01*
X77309557Y-69104819D02*
X77214319Y-69057200D01*
X77214319Y-69057200D02*
X77166700Y-69009580D01*
X77166700Y-69009580D02*
X77119081Y-68914342D01*
X77119081Y-68914342D02*
X77119081Y-68819104D01*
X77119081Y-68819104D02*
X77166700Y-68723866D01*
X77166700Y-68723866D02*
X77214319Y-68676247D01*
X77214319Y-68676247D02*
X77309557Y-68628628D01*
X77309557Y-68628628D02*
X77500033Y-68581009D01*
X77500033Y-68581009D02*
X77595271Y-68533390D01*
X77595271Y-68533390D02*
X77642890Y-68485771D01*
X77642890Y-68485771D02*
X77690509Y-68390533D01*
X77690509Y-68390533D02*
X77690509Y-68295295D01*
X77690509Y-68295295D02*
X77642890Y-68200057D01*
X77642890Y-68200057D02*
X77595271Y-68152438D01*
X77595271Y-68152438D02*
X77500033Y-68104819D01*
X77500033Y-68104819D02*
X77261938Y-68104819D01*
X77261938Y-68104819D02*
X77119081Y-68152438D01*
X76690509Y-69104819D02*
X76690509Y-68104819D01*
X76690509Y-68104819D02*
X76452414Y-68104819D01*
X76452414Y-68104819D02*
X76309557Y-68152438D01*
X76309557Y-68152438D02*
X76214319Y-68247676D01*
X76214319Y-68247676D02*
X76166700Y-68342914D01*
X76166700Y-68342914D02*
X76119081Y-68533390D01*
X76119081Y-68533390D02*
X76119081Y-68676247D01*
X76119081Y-68676247D02*
X76166700Y-68866723D01*
X76166700Y-68866723D02*
X76214319Y-68961961D01*
X76214319Y-68961961D02*
X76309557Y-69057200D01*
X76309557Y-69057200D02*
X76452414Y-69104819D01*
X76452414Y-69104819D02*
X76690509Y-69104819D01*
X75214319Y-68104819D02*
X75690509Y-68104819D01*
X75690509Y-68104819D02*
X75738128Y-68581009D01*
X75738128Y-68581009D02*
X75690509Y-68533390D01*
X75690509Y-68533390D02*
X75595271Y-68485771D01*
X75595271Y-68485771D02*
X75357176Y-68485771D01*
X75357176Y-68485771D02*
X75261938Y-68533390D01*
X75261938Y-68533390D02*
X75214319Y-68581009D01*
X75214319Y-68581009D02*
X75166700Y-68676247D01*
X75166700Y-68676247D02*
X75166700Y-68914342D01*
X75166700Y-68914342D02*
X75214319Y-69009580D01*
X75214319Y-69009580D02*
X75261938Y-69057200D01*
X75261938Y-69057200D02*
X75357176Y-69104819D01*
X75357176Y-69104819D02*
X75595271Y-69104819D01*
X75595271Y-69104819D02*
X75690509Y-69057200D01*
X75690509Y-69057200D02*
X75738128Y-69009580D01*
X74880985Y-68104819D02*
X74547652Y-69104819D01*
X74547652Y-69104819D02*
X74214319Y-68104819D01*
X73690509Y-68104819D02*
X73595271Y-68104819D01*
X73595271Y-68104819D02*
X73500033Y-68152438D01*
X73500033Y-68152438D02*
X73452414Y-68200057D01*
X73452414Y-68200057D02*
X73404795Y-68295295D01*
X73404795Y-68295295D02*
X73357176Y-68485771D01*
X73357176Y-68485771D02*
X73357176Y-68723866D01*
X73357176Y-68723866D02*
X73404795Y-68914342D01*
X73404795Y-68914342D02*
X73452414Y-69009580D01*
X73452414Y-69009580D02*
X73500033Y-69057200D01*
X73500033Y-69057200D02*
X73595271Y-69104819D01*
X73595271Y-69104819D02*
X73690509Y-69104819D01*
X73690509Y-69104819D02*
X73785747Y-69057200D01*
X73785747Y-69057200D02*
X73833366Y-69009580D01*
X73833366Y-69009580D02*
X73880985Y-68914342D01*
X73880985Y-68914342D02*
X73928604Y-68723866D01*
X73928604Y-68723866D02*
X73928604Y-68485771D01*
X73928604Y-68485771D02*
X73880985Y-68295295D01*
X73880985Y-68295295D02*
X73833366Y-68200057D01*
X73833366Y-68200057D02*
X73785747Y-68152438D01*
X73785747Y-68152438D02*
X73690509Y-68104819D01*
X72452414Y-69104819D02*
X72928604Y-69104819D01*
X72928604Y-69104819D02*
X72928604Y-68104819D01*
X71595271Y-69104819D02*
X72166699Y-69104819D01*
X71880985Y-69104819D02*
X71880985Y-68104819D01*
X71880985Y-68104819D02*
X71976223Y-68247676D01*
X71976223Y-68247676D02*
X72071461Y-68342914D01*
X72071461Y-68342914D02*
X72166699Y-68390533D01*
X71166699Y-68104819D02*
X71166699Y-68914342D01*
X71166699Y-68914342D02*
X71119080Y-69009580D01*
X71119080Y-69009580D02*
X71071461Y-69057200D01*
X71071461Y-69057200D02*
X70976223Y-69104819D01*
X70976223Y-69104819D02*
X70785747Y-69104819D01*
X70785747Y-69104819D02*
X70690509Y-69057200D01*
X70690509Y-69057200D02*
X70642890Y-69009580D01*
X70642890Y-69009580D02*
X70595271Y-68914342D01*
X70595271Y-68914342D02*
X70595271Y-68104819D01*
X69642890Y-69104819D02*
X70119080Y-69104819D01*
X70119080Y-69104819D02*
X70119080Y-68104819D01*
X75277794Y-71804819D02*
X75277794Y-70804819D01*
X75277794Y-70804819D02*
X75039699Y-70804819D01*
X75039699Y-70804819D02*
X74896842Y-70852438D01*
X74896842Y-70852438D02*
X74801604Y-70947676D01*
X74801604Y-70947676D02*
X74753985Y-71042914D01*
X74753985Y-71042914D02*
X74706366Y-71233390D01*
X74706366Y-71233390D02*
X74706366Y-71376247D01*
X74706366Y-71376247D02*
X74753985Y-71566723D01*
X74753985Y-71566723D02*
X74801604Y-71661961D01*
X74801604Y-71661961D02*
X74896842Y-71757200D01*
X74896842Y-71757200D02*
X75039699Y-71804819D01*
X75039699Y-71804819D02*
X75277794Y-71804819D01*
X74230175Y-71804819D02*
X74039699Y-71804819D01*
X74039699Y-71804819D02*
X73944461Y-71757200D01*
X73944461Y-71757200D02*
X73896842Y-71709580D01*
X73896842Y-71709580D02*
X73801604Y-71566723D01*
X73801604Y-71566723D02*
X73753985Y-71376247D01*
X73753985Y-71376247D02*
X73753985Y-70995295D01*
X73753985Y-70995295D02*
X73801604Y-70900057D01*
X73801604Y-70900057D02*
X73849223Y-70852438D01*
X73849223Y-70852438D02*
X73944461Y-70804819D01*
X73944461Y-70804819D02*
X74134937Y-70804819D01*
X74134937Y-70804819D02*
X74230175Y-70852438D01*
X74230175Y-70852438D02*
X74277794Y-70900057D01*
X74277794Y-70900057D02*
X74325413Y-70995295D01*
X74325413Y-70995295D02*
X74325413Y-71233390D01*
X74325413Y-71233390D02*
X74277794Y-71328628D01*
X74277794Y-71328628D02*
X74230175Y-71376247D01*
X74230175Y-71376247D02*
X74134937Y-71423866D01*
X74134937Y-71423866D02*
X73944461Y-71423866D01*
X73944461Y-71423866D02*
X73849223Y-71376247D01*
X73849223Y-71376247D02*
X73801604Y-71328628D01*
X73801604Y-71328628D02*
X73753985Y-71233390D01*
X55547652Y-69104819D02*
X55547652Y-68104819D01*
X55547652Y-68104819D02*
X55166700Y-68104819D01*
X55166700Y-68104819D02*
X55071462Y-68152438D01*
X55071462Y-68152438D02*
X55023843Y-68200057D01*
X55023843Y-68200057D02*
X54976224Y-68295295D01*
X54976224Y-68295295D02*
X54976224Y-68438152D01*
X54976224Y-68438152D02*
X55023843Y-68533390D01*
X55023843Y-68533390D02*
X55071462Y-68581009D01*
X55071462Y-68581009D02*
X55166700Y-68628628D01*
X55166700Y-68628628D02*
X55547652Y-68628628D01*
X54547652Y-68581009D02*
X54214319Y-68581009D01*
X54071462Y-69104819D02*
X54547652Y-69104819D01*
X54547652Y-69104819D02*
X54547652Y-68104819D01*
X54547652Y-68104819D02*
X54071462Y-68104819D01*
X53690509Y-69057200D02*
X53547652Y-69104819D01*
X53547652Y-69104819D02*
X53309557Y-69104819D01*
X53309557Y-69104819D02*
X53214319Y-69057200D01*
X53214319Y-69057200D02*
X53166700Y-69009580D01*
X53166700Y-69009580D02*
X53119081Y-68914342D01*
X53119081Y-68914342D02*
X53119081Y-68819104D01*
X53119081Y-68819104D02*
X53166700Y-68723866D01*
X53166700Y-68723866D02*
X53214319Y-68676247D01*
X53214319Y-68676247D02*
X53309557Y-68628628D01*
X53309557Y-68628628D02*
X53500033Y-68581009D01*
X53500033Y-68581009D02*
X53595271Y-68533390D01*
X53595271Y-68533390D02*
X53642890Y-68485771D01*
X53642890Y-68485771D02*
X53690509Y-68390533D01*
X53690509Y-68390533D02*
X53690509Y-68295295D01*
X53690509Y-68295295D02*
X53642890Y-68200057D01*
X53642890Y-68200057D02*
X53595271Y-68152438D01*
X53595271Y-68152438D02*
X53500033Y-68104819D01*
X53500033Y-68104819D02*
X53261938Y-68104819D01*
X53261938Y-68104819D02*
X53119081Y-68152438D01*
X52690509Y-69104819D02*
X52690509Y-68104819D01*
X52690509Y-68104819D02*
X52452414Y-68104819D01*
X52452414Y-68104819D02*
X52309557Y-68152438D01*
X52309557Y-68152438D02*
X52214319Y-68247676D01*
X52214319Y-68247676D02*
X52166700Y-68342914D01*
X52166700Y-68342914D02*
X52119081Y-68533390D01*
X52119081Y-68533390D02*
X52119081Y-68676247D01*
X52119081Y-68676247D02*
X52166700Y-68866723D01*
X52166700Y-68866723D02*
X52214319Y-68961961D01*
X52214319Y-68961961D02*
X52309557Y-69057200D01*
X52309557Y-69057200D02*
X52452414Y-69104819D01*
X52452414Y-69104819D02*
X52690509Y-69104819D01*
X51214319Y-68104819D02*
X51690509Y-68104819D01*
X51690509Y-68104819D02*
X51738128Y-68581009D01*
X51738128Y-68581009D02*
X51690509Y-68533390D01*
X51690509Y-68533390D02*
X51595271Y-68485771D01*
X51595271Y-68485771D02*
X51357176Y-68485771D01*
X51357176Y-68485771D02*
X51261938Y-68533390D01*
X51261938Y-68533390D02*
X51214319Y-68581009D01*
X51214319Y-68581009D02*
X51166700Y-68676247D01*
X51166700Y-68676247D02*
X51166700Y-68914342D01*
X51166700Y-68914342D02*
X51214319Y-69009580D01*
X51214319Y-69009580D02*
X51261938Y-69057200D01*
X51261938Y-69057200D02*
X51357176Y-69104819D01*
X51357176Y-69104819D02*
X51595271Y-69104819D01*
X51595271Y-69104819D02*
X51690509Y-69057200D01*
X51690509Y-69057200D02*
X51738128Y-69009580D01*
X50880985Y-68104819D02*
X50547652Y-69104819D01*
X50547652Y-69104819D02*
X50214319Y-68104819D01*
X49690509Y-68104819D02*
X49595271Y-68104819D01*
X49595271Y-68104819D02*
X49500033Y-68152438D01*
X49500033Y-68152438D02*
X49452414Y-68200057D01*
X49452414Y-68200057D02*
X49404795Y-68295295D01*
X49404795Y-68295295D02*
X49357176Y-68485771D01*
X49357176Y-68485771D02*
X49357176Y-68723866D01*
X49357176Y-68723866D02*
X49404795Y-68914342D01*
X49404795Y-68914342D02*
X49452414Y-69009580D01*
X49452414Y-69009580D02*
X49500033Y-69057200D01*
X49500033Y-69057200D02*
X49595271Y-69104819D01*
X49595271Y-69104819D02*
X49690509Y-69104819D01*
X49690509Y-69104819D02*
X49785747Y-69057200D01*
X49785747Y-69057200D02*
X49833366Y-69009580D01*
X49833366Y-69009580D02*
X49880985Y-68914342D01*
X49880985Y-68914342D02*
X49928604Y-68723866D01*
X49928604Y-68723866D02*
X49928604Y-68485771D01*
X49928604Y-68485771D02*
X49880985Y-68295295D01*
X49880985Y-68295295D02*
X49833366Y-68200057D01*
X49833366Y-68200057D02*
X49785747Y-68152438D01*
X49785747Y-68152438D02*
X49690509Y-68104819D01*
X48452414Y-69104819D02*
X48928604Y-69104819D01*
X48928604Y-69104819D02*
X48928604Y-68104819D01*
X47595271Y-69104819D02*
X48166699Y-69104819D01*
X47880985Y-69104819D02*
X47880985Y-68104819D01*
X47880985Y-68104819D02*
X47976223Y-68247676D01*
X47976223Y-68247676D02*
X48071461Y-68342914D01*
X48071461Y-68342914D02*
X48166699Y-68390533D01*
X47166699Y-68104819D02*
X47166699Y-68914342D01*
X47166699Y-68914342D02*
X47119080Y-69009580D01*
X47119080Y-69009580D02*
X47071461Y-69057200D01*
X47071461Y-69057200D02*
X46976223Y-69104819D01*
X46976223Y-69104819D02*
X46785747Y-69104819D01*
X46785747Y-69104819D02*
X46690509Y-69057200D01*
X46690509Y-69057200D02*
X46642890Y-69009580D01*
X46642890Y-69009580D02*
X46595271Y-68914342D01*
X46595271Y-68914342D02*
X46595271Y-68104819D01*
X45642890Y-69104819D02*
X46119080Y-69104819D01*
X46119080Y-69104819D02*
X46119080Y-68104819D01*
X51277794Y-71804819D02*
X51277794Y-70804819D01*
X51277794Y-70804819D02*
X51039699Y-70804819D01*
X51039699Y-70804819D02*
X50896842Y-70852438D01*
X50896842Y-70852438D02*
X50801604Y-70947676D01*
X50801604Y-70947676D02*
X50753985Y-71042914D01*
X50753985Y-71042914D02*
X50706366Y-71233390D01*
X50706366Y-71233390D02*
X50706366Y-71376247D01*
X50706366Y-71376247D02*
X50753985Y-71566723D01*
X50753985Y-71566723D02*
X50801604Y-71661961D01*
X50801604Y-71661961D02*
X50896842Y-71757200D01*
X50896842Y-71757200D02*
X51039699Y-71804819D01*
X51039699Y-71804819D02*
X51277794Y-71804819D01*
X49849223Y-70804819D02*
X50039699Y-70804819D01*
X50039699Y-70804819D02*
X50134937Y-70852438D01*
X50134937Y-70852438D02*
X50182556Y-70900057D01*
X50182556Y-70900057D02*
X50277794Y-71042914D01*
X50277794Y-71042914D02*
X50325413Y-71233390D01*
X50325413Y-71233390D02*
X50325413Y-71614342D01*
X50325413Y-71614342D02*
X50277794Y-71709580D01*
X50277794Y-71709580D02*
X50230175Y-71757200D01*
X50230175Y-71757200D02*
X50134937Y-71804819D01*
X50134937Y-71804819D02*
X49944461Y-71804819D01*
X49944461Y-71804819D02*
X49849223Y-71757200D01*
X49849223Y-71757200D02*
X49801604Y-71709580D01*
X49801604Y-71709580D02*
X49753985Y-71614342D01*
X49753985Y-71614342D02*
X49753985Y-71376247D01*
X49753985Y-71376247D02*
X49801604Y-71281009D01*
X49801604Y-71281009D02*
X49849223Y-71233390D01*
X49849223Y-71233390D02*
X49944461Y-71185771D01*
X49944461Y-71185771D02*
X50134937Y-71185771D01*
X50134937Y-71185771D02*
X50230175Y-71233390D01*
X50230175Y-71233390D02*
X50277794Y-71281009D01*
X50277794Y-71281009D02*
X50325413Y-71376247D01*
X66214252Y-69104819D02*
X66214252Y-68104819D01*
X66214252Y-68104819D02*
X65833300Y-68104819D01*
X65833300Y-68104819D02*
X65738062Y-68152438D01*
X65738062Y-68152438D02*
X65690443Y-68200057D01*
X65690443Y-68200057D02*
X65642824Y-68295295D01*
X65642824Y-68295295D02*
X65642824Y-68438152D01*
X65642824Y-68438152D02*
X65690443Y-68533390D01*
X65690443Y-68533390D02*
X65738062Y-68581009D01*
X65738062Y-68581009D02*
X65833300Y-68628628D01*
X65833300Y-68628628D02*
X66214252Y-68628628D01*
X65214252Y-68581009D02*
X64880919Y-68581009D01*
X64738062Y-69104819D02*
X65214252Y-69104819D01*
X65214252Y-69104819D02*
X65214252Y-68104819D01*
X65214252Y-68104819D02*
X64738062Y-68104819D01*
X64357109Y-69057200D02*
X64214252Y-69104819D01*
X64214252Y-69104819D02*
X63976157Y-69104819D01*
X63976157Y-69104819D02*
X63880919Y-69057200D01*
X63880919Y-69057200D02*
X63833300Y-69009580D01*
X63833300Y-69009580D02*
X63785681Y-68914342D01*
X63785681Y-68914342D02*
X63785681Y-68819104D01*
X63785681Y-68819104D02*
X63833300Y-68723866D01*
X63833300Y-68723866D02*
X63880919Y-68676247D01*
X63880919Y-68676247D02*
X63976157Y-68628628D01*
X63976157Y-68628628D02*
X64166633Y-68581009D01*
X64166633Y-68581009D02*
X64261871Y-68533390D01*
X64261871Y-68533390D02*
X64309490Y-68485771D01*
X64309490Y-68485771D02*
X64357109Y-68390533D01*
X64357109Y-68390533D02*
X64357109Y-68295295D01*
X64357109Y-68295295D02*
X64309490Y-68200057D01*
X64309490Y-68200057D02*
X64261871Y-68152438D01*
X64261871Y-68152438D02*
X64166633Y-68104819D01*
X64166633Y-68104819D02*
X63928538Y-68104819D01*
X63928538Y-68104819D02*
X63785681Y-68152438D01*
X63357109Y-69104819D02*
X63357109Y-68104819D01*
X63357109Y-68104819D02*
X63119014Y-68104819D01*
X63119014Y-68104819D02*
X62976157Y-68152438D01*
X62976157Y-68152438D02*
X62880919Y-68247676D01*
X62880919Y-68247676D02*
X62833300Y-68342914D01*
X62833300Y-68342914D02*
X62785681Y-68533390D01*
X62785681Y-68533390D02*
X62785681Y-68676247D01*
X62785681Y-68676247D02*
X62833300Y-68866723D01*
X62833300Y-68866723D02*
X62880919Y-68961961D01*
X62880919Y-68961961D02*
X62976157Y-69057200D01*
X62976157Y-69057200D02*
X63119014Y-69104819D01*
X63119014Y-69104819D02*
X63357109Y-69104819D01*
X61880919Y-68104819D02*
X62357109Y-68104819D01*
X62357109Y-68104819D02*
X62404728Y-68581009D01*
X62404728Y-68581009D02*
X62357109Y-68533390D01*
X62357109Y-68533390D02*
X62261871Y-68485771D01*
X62261871Y-68485771D02*
X62023776Y-68485771D01*
X62023776Y-68485771D02*
X61928538Y-68533390D01*
X61928538Y-68533390D02*
X61880919Y-68581009D01*
X61880919Y-68581009D02*
X61833300Y-68676247D01*
X61833300Y-68676247D02*
X61833300Y-68914342D01*
X61833300Y-68914342D02*
X61880919Y-69009580D01*
X61880919Y-69009580D02*
X61928538Y-69057200D01*
X61928538Y-69057200D02*
X62023776Y-69104819D01*
X62023776Y-69104819D02*
X62261871Y-69104819D01*
X62261871Y-69104819D02*
X62357109Y-69057200D01*
X62357109Y-69057200D02*
X62404728Y-69009580D01*
X61547585Y-68104819D02*
X61214252Y-69104819D01*
X61214252Y-69104819D02*
X60880919Y-68104819D01*
X60357109Y-68104819D02*
X60261871Y-68104819D01*
X60261871Y-68104819D02*
X60166633Y-68152438D01*
X60166633Y-68152438D02*
X60119014Y-68200057D01*
X60119014Y-68200057D02*
X60071395Y-68295295D01*
X60071395Y-68295295D02*
X60023776Y-68485771D01*
X60023776Y-68485771D02*
X60023776Y-68723866D01*
X60023776Y-68723866D02*
X60071395Y-68914342D01*
X60071395Y-68914342D02*
X60119014Y-69009580D01*
X60119014Y-69009580D02*
X60166633Y-69057200D01*
X60166633Y-69057200D02*
X60261871Y-69104819D01*
X60261871Y-69104819D02*
X60357109Y-69104819D01*
X60357109Y-69104819D02*
X60452347Y-69057200D01*
X60452347Y-69057200D02*
X60499966Y-69009580D01*
X60499966Y-69009580D02*
X60547585Y-68914342D01*
X60547585Y-68914342D02*
X60595204Y-68723866D01*
X60595204Y-68723866D02*
X60595204Y-68485771D01*
X60595204Y-68485771D02*
X60547585Y-68295295D01*
X60547585Y-68295295D02*
X60499966Y-68200057D01*
X60499966Y-68200057D02*
X60452347Y-68152438D01*
X60452347Y-68152438D02*
X60357109Y-68104819D01*
X59119014Y-69104819D02*
X59595204Y-69104819D01*
X59595204Y-69104819D02*
X59595204Y-68104819D01*
X58261871Y-69104819D02*
X58833299Y-69104819D01*
X58547585Y-69104819D02*
X58547585Y-68104819D01*
X58547585Y-68104819D02*
X58642823Y-68247676D01*
X58642823Y-68247676D02*
X58738061Y-68342914D01*
X58738061Y-68342914D02*
X58833299Y-68390533D01*
X57833299Y-68104819D02*
X57833299Y-68914342D01*
X57833299Y-68914342D02*
X57785680Y-69009580D01*
X57785680Y-69009580D02*
X57738061Y-69057200D01*
X57738061Y-69057200D02*
X57642823Y-69104819D01*
X57642823Y-69104819D02*
X57452347Y-69104819D01*
X57452347Y-69104819D02*
X57357109Y-69057200D01*
X57357109Y-69057200D02*
X57309490Y-69009580D01*
X57309490Y-69009580D02*
X57261871Y-68914342D01*
X57261871Y-68914342D02*
X57261871Y-68104819D01*
X56309490Y-69104819D02*
X56785680Y-69104819D01*
X56785680Y-69104819D02*
X56785680Y-68104819D01*
X61944394Y-71804819D02*
X61944394Y-70804819D01*
X61944394Y-70804819D02*
X61706299Y-70804819D01*
X61706299Y-70804819D02*
X61563442Y-70852438D01*
X61563442Y-70852438D02*
X61468204Y-70947676D01*
X61468204Y-70947676D02*
X61420585Y-71042914D01*
X61420585Y-71042914D02*
X61372966Y-71233390D01*
X61372966Y-71233390D02*
X61372966Y-71376247D01*
X61372966Y-71376247D02*
X61420585Y-71566723D01*
X61420585Y-71566723D02*
X61468204Y-71661961D01*
X61468204Y-71661961D02*
X61563442Y-71757200D01*
X61563442Y-71757200D02*
X61706299Y-71804819D01*
X61706299Y-71804819D02*
X61944394Y-71804819D01*
X61039632Y-70804819D02*
X60372966Y-70804819D01*
X60372966Y-70804819D02*
X60801537Y-71804819D01*
X26714285Y-73354819D02*
X27285713Y-73354819D01*
X26999999Y-73354819D02*
X26999999Y-72354819D01*
X26999999Y-72354819D02*
X27095237Y-72497676D01*
X27095237Y-72497676D02*
X27190475Y-72592914D01*
X27190475Y-72592914D02*
X27285713Y-72640533D01*
X26285713Y-73354819D02*
X26285713Y-72354819D01*
X26285713Y-72354819D02*
X25714285Y-73354819D01*
X25714285Y-73354819D02*
X25714285Y-72354819D01*
X24809523Y-72688152D02*
X24809523Y-73354819D01*
X25047618Y-72307200D02*
X25285713Y-73021485D01*
X25285713Y-73021485D02*
X24666666Y-73021485D01*
X23761904Y-73354819D02*
X24333332Y-73354819D01*
X24047618Y-73354819D02*
X24047618Y-72354819D01*
X24047618Y-72354819D02*
X24142856Y-72497676D01*
X24142856Y-72497676D02*
X24238094Y-72592914D01*
X24238094Y-72592914D02*
X24333332Y-72640533D01*
X22904761Y-72688152D02*
X22904761Y-73354819D01*
X23142856Y-72307200D02*
X23380951Y-73021485D01*
X23380951Y-73021485D02*
X22761904Y-73021485D01*
X22238094Y-72783390D02*
X22333332Y-72735771D01*
X22333332Y-72735771D02*
X22380951Y-72688152D01*
X22380951Y-72688152D02*
X22428570Y-72592914D01*
X22428570Y-72592914D02*
X22428570Y-72545295D01*
X22428570Y-72545295D02*
X22380951Y-72450057D01*
X22380951Y-72450057D02*
X22333332Y-72402438D01*
X22333332Y-72402438D02*
X22238094Y-72354819D01*
X22238094Y-72354819D02*
X22047618Y-72354819D01*
X22047618Y-72354819D02*
X21952380Y-72402438D01*
X21952380Y-72402438D02*
X21904761Y-72450057D01*
X21904761Y-72450057D02*
X21857142Y-72545295D01*
X21857142Y-72545295D02*
X21857142Y-72592914D01*
X21857142Y-72592914D02*
X21904761Y-72688152D01*
X21904761Y-72688152D02*
X21952380Y-72735771D01*
X21952380Y-72735771D02*
X22047618Y-72783390D01*
X22047618Y-72783390D02*
X22238094Y-72783390D01*
X22238094Y-72783390D02*
X22333332Y-72831009D01*
X22333332Y-72831009D02*
X22380951Y-72878628D01*
X22380951Y-72878628D02*
X22428570Y-72973866D01*
X22428570Y-72973866D02*
X22428570Y-73164342D01*
X22428570Y-73164342D02*
X22380951Y-73259580D01*
X22380951Y-73259580D02*
X22333332Y-73307200D01*
X22333332Y-73307200D02*
X22238094Y-73354819D01*
X22238094Y-73354819D02*
X22047618Y-73354819D01*
X22047618Y-73354819D02*
X21952380Y-73307200D01*
X21952380Y-73307200D02*
X21904761Y-73259580D01*
X21904761Y-73259580D02*
X21857142Y-73164342D01*
X21857142Y-73164342D02*
X21857142Y-72973866D01*
X21857142Y-72973866D02*
X21904761Y-72878628D01*
X21904761Y-72878628D02*
X21952380Y-72831009D01*
X21952380Y-72831009D02*
X22047618Y-72783390D01*
X21523808Y-72354819D02*
X21285713Y-73354819D01*
X21285713Y-73354819D02*
X21095237Y-72640533D01*
X21095237Y-72640533D02*
X20904761Y-73354819D01*
X20904761Y-73354819D02*
X20666666Y-72354819D01*
X24738094Y-77454819D02*
X24738094Y-76454819D01*
X24738094Y-76454819D02*
X24499999Y-76454819D01*
X24499999Y-76454819D02*
X24357142Y-76502438D01*
X24357142Y-76502438D02*
X24261904Y-76597676D01*
X24261904Y-76597676D02*
X24214285Y-76692914D01*
X24214285Y-76692914D02*
X24166666Y-76883390D01*
X24166666Y-76883390D02*
X24166666Y-77026247D01*
X24166666Y-77026247D02*
X24214285Y-77216723D01*
X24214285Y-77216723D02*
X24261904Y-77311961D01*
X24261904Y-77311961D02*
X24357142Y-77407200D01*
X24357142Y-77407200D02*
X24499999Y-77454819D01*
X24499999Y-77454819D02*
X24738094Y-77454819D01*
X23309523Y-76788152D02*
X23309523Y-77454819D01*
X23547618Y-76407200D02*
X23785713Y-77121485D01*
X23785713Y-77121485D02*
X23166666Y-77121485D01*
X41642856Y-19120057D02*
X41595237Y-19072438D01*
X41595237Y-19072438D02*
X41499999Y-19024819D01*
X41499999Y-19024819D02*
X41261904Y-19024819D01*
X41261904Y-19024819D02*
X41166666Y-19072438D01*
X41166666Y-19072438D02*
X41119047Y-19120057D01*
X41119047Y-19120057D02*
X41071428Y-19215295D01*
X41071428Y-19215295D02*
X41071428Y-19310533D01*
X41071428Y-19310533D02*
X41119047Y-19453390D01*
X41119047Y-19453390D02*
X41690475Y-20024819D01*
X41690475Y-20024819D02*
X41071428Y-20024819D01*
X40690475Y-19120057D02*
X40642856Y-19072438D01*
X40642856Y-19072438D02*
X40547618Y-19024819D01*
X40547618Y-19024819D02*
X40309523Y-19024819D01*
X40309523Y-19024819D02*
X40214285Y-19072438D01*
X40214285Y-19072438D02*
X40166666Y-19120057D01*
X40166666Y-19120057D02*
X40119047Y-19215295D01*
X40119047Y-19215295D02*
X40119047Y-19310533D01*
X40119047Y-19310533D02*
X40166666Y-19453390D01*
X40166666Y-19453390D02*
X40738094Y-20024819D01*
X40738094Y-20024819D02*
X40119047Y-20024819D01*
X39261904Y-19358152D02*
X39261904Y-20024819D01*
X39690475Y-19358152D02*
X39690475Y-19881961D01*
X39690475Y-19881961D02*
X39642856Y-19977200D01*
X39642856Y-19977200D02*
X39547618Y-20024819D01*
X39547618Y-20024819D02*
X39404761Y-20024819D01*
X39404761Y-20024819D02*
X39309523Y-19977200D01*
X39309523Y-19977200D02*
X39261904Y-19929580D01*
X38452380Y-19501009D02*
X38785713Y-19501009D01*
X38785713Y-20024819D02*
X38785713Y-19024819D01*
X38785713Y-19024819D02*
X38309523Y-19024819D01*
D12*
X40083333Y-21429530D02*
X40107142Y-21453340D01*
X40107142Y-21453340D02*
X40178571Y-21477149D01*
X40178571Y-21477149D02*
X40226190Y-21477149D01*
X40226190Y-21477149D02*
X40297618Y-21453340D01*
X40297618Y-21453340D02*
X40345237Y-21405720D01*
X40345237Y-21405720D02*
X40369047Y-21358101D01*
X40369047Y-21358101D02*
X40392856Y-21262863D01*
X40392856Y-21262863D02*
X40392856Y-21191435D01*
X40392856Y-21191435D02*
X40369047Y-21096197D01*
X40369047Y-21096197D02*
X40345237Y-21048578D01*
X40345237Y-21048578D02*
X40297618Y-21000959D01*
X40297618Y-21000959D02*
X40226190Y-20977149D01*
X40226190Y-20977149D02*
X40178571Y-20977149D01*
X40178571Y-20977149D02*
X40107142Y-21000959D01*
X40107142Y-21000959D02*
X40083333Y-21024768D01*
X39654761Y-20977149D02*
X39749999Y-20977149D01*
X39749999Y-20977149D02*
X39797618Y-21000959D01*
X39797618Y-21000959D02*
X39821428Y-21024768D01*
X39821428Y-21024768D02*
X39869047Y-21096197D01*
X39869047Y-21096197D02*
X39892856Y-21191435D01*
X39892856Y-21191435D02*
X39892856Y-21381911D01*
X39892856Y-21381911D02*
X39869047Y-21429530D01*
X39869047Y-21429530D02*
X39845237Y-21453340D01*
X39845237Y-21453340D02*
X39797618Y-21477149D01*
X39797618Y-21477149D02*
X39702380Y-21477149D01*
X39702380Y-21477149D02*
X39654761Y-21453340D01*
X39654761Y-21453340D02*
X39630952Y-21429530D01*
X39630952Y-21429530D02*
X39607142Y-21381911D01*
X39607142Y-21381911D02*
X39607142Y-21262863D01*
X39607142Y-21262863D02*
X39630952Y-21215244D01*
X39630952Y-21215244D02*
X39654761Y-21191435D01*
X39654761Y-21191435D02*
X39702380Y-21167625D01*
X39702380Y-21167625D02*
X39797618Y-21167625D01*
X39797618Y-21167625D02*
X39845237Y-21191435D01*
X39845237Y-21191435D02*
X39869047Y-21215244D01*
X39869047Y-21215244D02*
X39892856Y-21262863D01*
D10*
X92880952Y-26604819D02*
X92880952Y-25604819D01*
X92880952Y-25604819D02*
X92500000Y-25604819D01*
X92500000Y-25604819D02*
X92404762Y-25652438D01*
X92404762Y-25652438D02*
X92357143Y-25700057D01*
X92357143Y-25700057D02*
X92309524Y-25795295D01*
X92309524Y-25795295D02*
X92309524Y-25938152D01*
X92309524Y-25938152D02*
X92357143Y-26033390D01*
X92357143Y-26033390D02*
X92404762Y-26081009D01*
X92404762Y-26081009D02*
X92500000Y-26128628D01*
X92500000Y-26128628D02*
X92880952Y-26128628D01*
X91880952Y-26081009D02*
X91547619Y-26081009D01*
X91404762Y-26604819D02*
X91880952Y-26604819D01*
X91880952Y-26604819D02*
X91880952Y-25604819D01*
X91880952Y-25604819D02*
X91404762Y-25604819D01*
X91023809Y-26557200D02*
X90880952Y-26604819D01*
X90880952Y-26604819D02*
X90642857Y-26604819D01*
X90642857Y-26604819D02*
X90547619Y-26557200D01*
X90547619Y-26557200D02*
X90500000Y-26509580D01*
X90500000Y-26509580D02*
X90452381Y-26414342D01*
X90452381Y-26414342D02*
X90452381Y-26319104D01*
X90452381Y-26319104D02*
X90500000Y-26223866D01*
X90500000Y-26223866D02*
X90547619Y-26176247D01*
X90547619Y-26176247D02*
X90642857Y-26128628D01*
X90642857Y-26128628D02*
X90833333Y-26081009D01*
X90833333Y-26081009D02*
X90928571Y-26033390D01*
X90928571Y-26033390D02*
X90976190Y-25985771D01*
X90976190Y-25985771D02*
X91023809Y-25890533D01*
X91023809Y-25890533D02*
X91023809Y-25795295D01*
X91023809Y-25795295D02*
X90976190Y-25700057D01*
X90976190Y-25700057D02*
X90928571Y-25652438D01*
X90928571Y-25652438D02*
X90833333Y-25604819D01*
X90833333Y-25604819D02*
X90595238Y-25604819D01*
X90595238Y-25604819D02*
X90452381Y-25652438D01*
X90023809Y-26604819D02*
X90023809Y-25604819D01*
X90023809Y-25604819D02*
X89785714Y-25604819D01*
X89785714Y-25604819D02*
X89642857Y-25652438D01*
X89642857Y-25652438D02*
X89547619Y-25747676D01*
X89547619Y-25747676D02*
X89500000Y-25842914D01*
X89500000Y-25842914D02*
X89452381Y-26033390D01*
X89452381Y-26033390D02*
X89452381Y-26176247D01*
X89452381Y-26176247D02*
X89500000Y-26366723D01*
X89500000Y-26366723D02*
X89547619Y-26461961D01*
X89547619Y-26461961D02*
X89642857Y-26557200D01*
X89642857Y-26557200D02*
X89785714Y-26604819D01*
X89785714Y-26604819D02*
X90023809Y-26604819D01*
X88547619Y-25604819D02*
X89023809Y-25604819D01*
X89023809Y-25604819D02*
X89071428Y-26081009D01*
X89071428Y-26081009D02*
X89023809Y-26033390D01*
X89023809Y-26033390D02*
X88928571Y-25985771D01*
X88928571Y-25985771D02*
X88690476Y-25985771D01*
X88690476Y-25985771D02*
X88595238Y-26033390D01*
X88595238Y-26033390D02*
X88547619Y-26081009D01*
X88547619Y-26081009D02*
X88500000Y-26176247D01*
X88500000Y-26176247D02*
X88500000Y-26414342D01*
X88500000Y-26414342D02*
X88547619Y-26509580D01*
X88547619Y-26509580D02*
X88595238Y-26557200D01*
X88595238Y-26557200D02*
X88690476Y-26604819D01*
X88690476Y-26604819D02*
X88928571Y-26604819D01*
X88928571Y-26604819D02*
X89023809Y-26557200D01*
X89023809Y-26557200D02*
X89071428Y-26509580D01*
X88214285Y-25604819D02*
X87880952Y-26604819D01*
X87880952Y-26604819D02*
X87547619Y-25604819D01*
X87023809Y-25604819D02*
X86928571Y-25604819D01*
X86928571Y-25604819D02*
X86833333Y-25652438D01*
X86833333Y-25652438D02*
X86785714Y-25700057D01*
X86785714Y-25700057D02*
X86738095Y-25795295D01*
X86738095Y-25795295D02*
X86690476Y-25985771D01*
X86690476Y-25985771D02*
X86690476Y-26223866D01*
X86690476Y-26223866D02*
X86738095Y-26414342D01*
X86738095Y-26414342D02*
X86785714Y-26509580D01*
X86785714Y-26509580D02*
X86833333Y-26557200D01*
X86833333Y-26557200D02*
X86928571Y-26604819D01*
X86928571Y-26604819D02*
X87023809Y-26604819D01*
X87023809Y-26604819D02*
X87119047Y-26557200D01*
X87119047Y-26557200D02*
X87166666Y-26509580D01*
X87166666Y-26509580D02*
X87214285Y-26414342D01*
X87214285Y-26414342D02*
X87261904Y-26223866D01*
X87261904Y-26223866D02*
X87261904Y-25985771D01*
X87261904Y-25985771D02*
X87214285Y-25795295D01*
X87214285Y-25795295D02*
X87166666Y-25700057D01*
X87166666Y-25700057D02*
X87119047Y-25652438D01*
X87119047Y-25652438D02*
X87023809Y-25604819D01*
X85785714Y-26604819D02*
X86261904Y-26604819D01*
X86261904Y-26604819D02*
X86261904Y-25604819D01*
X84928571Y-26604819D02*
X85499999Y-26604819D01*
X85214285Y-26604819D02*
X85214285Y-25604819D01*
X85214285Y-25604819D02*
X85309523Y-25747676D01*
X85309523Y-25747676D02*
X85404761Y-25842914D01*
X85404761Y-25842914D02*
X85499999Y-25890533D01*
X84499999Y-25604819D02*
X84499999Y-26414342D01*
X84499999Y-26414342D02*
X84452380Y-26509580D01*
X84452380Y-26509580D02*
X84404761Y-26557200D01*
X84404761Y-26557200D02*
X84309523Y-26604819D01*
X84309523Y-26604819D02*
X84119047Y-26604819D01*
X84119047Y-26604819D02*
X84023809Y-26557200D01*
X84023809Y-26557200D02*
X83976190Y-26509580D01*
X83976190Y-26509580D02*
X83928571Y-26414342D01*
X83928571Y-26414342D02*
X83928571Y-25604819D01*
X82976190Y-26604819D02*
X83452380Y-26604819D01*
X83452380Y-26604819D02*
X83452380Y-25604819D01*
X88611094Y-29304819D02*
X88611094Y-28304819D01*
X88611094Y-28304819D02*
X88372999Y-28304819D01*
X88372999Y-28304819D02*
X88230142Y-28352438D01*
X88230142Y-28352438D02*
X88134904Y-28447676D01*
X88134904Y-28447676D02*
X88087285Y-28542914D01*
X88087285Y-28542914D02*
X88039666Y-28733390D01*
X88039666Y-28733390D02*
X88039666Y-28876247D01*
X88039666Y-28876247D02*
X88087285Y-29066723D01*
X88087285Y-29066723D02*
X88134904Y-29161961D01*
X88134904Y-29161961D02*
X88230142Y-29257200D01*
X88230142Y-29257200D02*
X88372999Y-29304819D01*
X88372999Y-29304819D02*
X88611094Y-29304819D01*
X87706332Y-28304819D02*
X87087285Y-28304819D01*
X87087285Y-28304819D02*
X87420618Y-28685771D01*
X87420618Y-28685771D02*
X87277761Y-28685771D01*
X87277761Y-28685771D02*
X87182523Y-28733390D01*
X87182523Y-28733390D02*
X87134904Y-28781009D01*
X87134904Y-28781009D02*
X87087285Y-28876247D01*
X87087285Y-28876247D02*
X87087285Y-29114342D01*
X87087285Y-29114342D02*
X87134904Y-29209580D01*
X87134904Y-29209580D02*
X87182523Y-29257200D01*
X87182523Y-29257200D02*
X87277761Y-29304819D01*
X87277761Y-29304819D02*
X87563475Y-29304819D01*
X87563475Y-29304819D02*
X87658713Y-29257200D01*
X87658713Y-29257200D02*
X87706332Y-29209580D01*
X28547651Y-10370057D02*
X28500032Y-10322438D01*
X28500032Y-10322438D02*
X28404794Y-10274819D01*
X28404794Y-10274819D02*
X28166699Y-10274819D01*
X28166699Y-10274819D02*
X28071461Y-10322438D01*
X28071461Y-10322438D02*
X28023842Y-10370057D01*
X28023842Y-10370057D02*
X27976223Y-10465295D01*
X27976223Y-10465295D02*
X27976223Y-10560533D01*
X27976223Y-10560533D02*
X28023842Y-10703390D01*
X28023842Y-10703390D02*
X28595270Y-11274819D01*
X28595270Y-11274819D02*
X27976223Y-11274819D01*
X27547651Y-11179580D02*
X27500032Y-11227200D01*
X27500032Y-11227200D02*
X27547651Y-11274819D01*
X27547651Y-11274819D02*
X27595270Y-11227200D01*
X27595270Y-11227200D02*
X27547651Y-11179580D01*
X27547651Y-11179580D02*
X27547651Y-11274819D01*
X27119080Y-10370057D02*
X27071461Y-10322438D01*
X27071461Y-10322438D02*
X26976223Y-10274819D01*
X26976223Y-10274819D02*
X26738128Y-10274819D01*
X26738128Y-10274819D02*
X26642890Y-10322438D01*
X26642890Y-10322438D02*
X26595271Y-10370057D01*
X26595271Y-10370057D02*
X26547652Y-10465295D01*
X26547652Y-10465295D02*
X26547652Y-10560533D01*
X26547652Y-10560533D02*
X26595271Y-10703390D01*
X26595271Y-10703390D02*
X27166699Y-11274819D01*
X27166699Y-11274819D02*
X26547652Y-11274819D01*
X26119080Y-10608152D02*
X26119080Y-11274819D01*
X26119080Y-10703390D02*
X26071461Y-10655771D01*
X26071461Y-10655771D02*
X25976223Y-10608152D01*
X25976223Y-10608152D02*
X25833366Y-10608152D01*
X25833366Y-10608152D02*
X25738128Y-10655771D01*
X25738128Y-10655771D02*
X25690509Y-10751009D01*
X25690509Y-10751009D02*
X25690509Y-11274819D01*
X24880985Y-10751009D02*
X25214318Y-10751009D01*
X25214318Y-11274819D02*
X25214318Y-10274819D01*
X25214318Y-10274819D02*
X24738128Y-10274819D01*
D12*
X26750033Y-12679530D02*
X26773842Y-12703340D01*
X26773842Y-12703340D02*
X26845271Y-12727149D01*
X26845271Y-12727149D02*
X26892890Y-12727149D01*
X26892890Y-12727149D02*
X26964318Y-12703340D01*
X26964318Y-12703340D02*
X27011937Y-12655720D01*
X27011937Y-12655720D02*
X27035747Y-12608101D01*
X27035747Y-12608101D02*
X27059556Y-12512863D01*
X27059556Y-12512863D02*
X27059556Y-12441435D01*
X27059556Y-12441435D02*
X27035747Y-12346197D01*
X27035747Y-12346197D02*
X27011937Y-12298578D01*
X27011937Y-12298578D02*
X26964318Y-12250959D01*
X26964318Y-12250959D02*
X26892890Y-12227149D01*
X26892890Y-12227149D02*
X26845271Y-12227149D01*
X26845271Y-12227149D02*
X26773842Y-12250959D01*
X26773842Y-12250959D02*
X26750033Y-12274768D01*
X26583366Y-12227149D02*
X26250033Y-12227149D01*
X26250033Y-12227149D02*
X26464318Y-12727149D01*
D10*
X88928571Y-40638152D02*
X88928571Y-41304819D01*
X89166666Y-40257200D02*
X89404761Y-40971485D01*
X89404761Y-40971485D02*
X88785714Y-40971485D01*
X88404761Y-41209580D02*
X88357142Y-41257200D01*
X88357142Y-41257200D02*
X88404761Y-41304819D01*
X88404761Y-41304819D02*
X88452380Y-41257200D01*
X88452380Y-41257200D02*
X88404761Y-41209580D01*
X88404761Y-41209580D02*
X88404761Y-41304819D01*
X88023809Y-40304819D02*
X87357143Y-40304819D01*
X87357143Y-40304819D02*
X87785714Y-41304819D01*
X86976190Y-41304819D02*
X86976190Y-40304819D01*
X86880952Y-40923866D02*
X86595238Y-41304819D01*
X86595238Y-40638152D02*
X86976190Y-41019104D01*
D12*
X88321428Y-42727149D02*
X88488094Y-42489054D01*
X88607142Y-42727149D02*
X88607142Y-42227149D01*
X88607142Y-42227149D02*
X88416666Y-42227149D01*
X88416666Y-42227149D02*
X88369047Y-42250959D01*
X88369047Y-42250959D02*
X88345237Y-42274768D01*
X88345237Y-42274768D02*
X88321428Y-42322387D01*
X88321428Y-42322387D02*
X88321428Y-42393816D01*
X88321428Y-42393816D02*
X88345237Y-42441435D01*
X88345237Y-42441435D02*
X88369047Y-42465244D01*
X88369047Y-42465244D02*
X88416666Y-42489054D01*
X88416666Y-42489054D02*
X88607142Y-42489054D01*
X87845237Y-42727149D02*
X88130951Y-42727149D01*
X87988094Y-42727149D02*
X87988094Y-42227149D01*
X87988094Y-42227149D02*
X88035713Y-42298578D01*
X88035713Y-42298578D02*
X88083332Y-42346197D01*
X88083332Y-42346197D02*
X88130951Y-42370006D01*
X87535714Y-42227149D02*
X87488095Y-42227149D01*
X87488095Y-42227149D02*
X87440476Y-42250959D01*
X87440476Y-42250959D02*
X87416666Y-42274768D01*
X87416666Y-42274768D02*
X87392857Y-42322387D01*
X87392857Y-42322387D02*
X87369047Y-42417625D01*
X87369047Y-42417625D02*
X87369047Y-42536673D01*
X87369047Y-42536673D02*
X87392857Y-42631911D01*
X87392857Y-42631911D02*
X87416666Y-42679530D01*
X87416666Y-42679530D02*
X87440476Y-42703340D01*
X87440476Y-42703340D02*
X87488095Y-42727149D01*
X87488095Y-42727149D02*
X87535714Y-42727149D01*
X87535714Y-42727149D02*
X87583333Y-42703340D01*
X87583333Y-42703340D02*
X87607142Y-42679530D01*
X87607142Y-42679530D02*
X87630952Y-42631911D01*
X87630952Y-42631911D02*
X87654761Y-42536673D01*
X87654761Y-42536673D02*
X87654761Y-42417625D01*
X87654761Y-42417625D02*
X87630952Y-42322387D01*
X87630952Y-42322387D02*
X87607142Y-42274768D01*
X87607142Y-42274768D02*
X87583333Y-42250959D01*
X87583333Y-42250959D02*
X87535714Y-42227149D01*
D10*
X57071428Y-20024819D02*
X57642856Y-20024819D01*
X57357142Y-20024819D02*
X57357142Y-19024819D01*
X57357142Y-19024819D02*
X57452380Y-19167676D01*
X57452380Y-19167676D02*
X57547618Y-19262914D01*
X57547618Y-19262914D02*
X57642856Y-19310533D01*
X56452380Y-19024819D02*
X56357142Y-19024819D01*
X56357142Y-19024819D02*
X56261904Y-19072438D01*
X56261904Y-19072438D02*
X56214285Y-19120057D01*
X56214285Y-19120057D02*
X56166666Y-19215295D01*
X56166666Y-19215295D02*
X56119047Y-19405771D01*
X56119047Y-19405771D02*
X56119047Y-19643866D01*
X56119047Y-19643866D02*
X56166666Y-19834342D01*
X56166666Y-19834342D02*
X56214285Y-19929580D01*
X56214285Y-19929580D02*
X56261904Y-19977200D01*
X56261904Y-19977200D02*
X56357142Y-20024819D01*
X56357142Y-20024819D02*
X56452380Y-20024819D01*
X56452380Y-20024819D02*
X56547618Y-19977200D01*
X56547618Y-19977200D02*
X56595237Y-19929580D01*
X56595237Y-19929580D02*
X56642856Y-19834342D01*
X56642856Y-19834342D02*
X56690475Y-19643866D01*
X56690475Y-19643866D02*
X56690475Y-19405771D01*
X56690475Y-19405771D02*
X56642856Y-19215295D01*
X56642856Y-19215295D02*
X56595237Y-19120057D01*
X56595237Y-19120057D02*
X56547618Y-19072438D01*
X56547618Y-19072438D02*
X56452380Y-19024819D01*
X55261904Y-19358152D02*
X55261904Y-20024819D01*
X55690475Y-19358152D02*
X55690475Y-19881961D01*
X55690475Y-19881961D02*
X55642856Y-19977200D01*
X55642856Y-19977200D02*
X55547618Y-20024819D01*
X55547618Y-20024819D02*
X55404761Y-20024819D01*
X55404761Y-20024819D02*
X55309523Y-19977200D01*
X55309523Y-19977200D02*
X55261904Y-19929580D01*
X54452380Y-19501009D02*
X54785713Y-19501009D01*
X54785713Y-20024819D02*
X54785713Y-19024819D01*
X54785713Y-19024819D02*
X54309523Y-19024819D01*
D12*
X56083333Y-21429530D02*
X56107142Y-21453340D01*
X56107142Y-21453340D02*
X56178571Y-21477149D01*
X56178571Y-21477149D02*
X56226190Y-21477149D01*
X56226190Y-21477149D02*
X56297618Y-21453340D01*
X56297618Y-21453340D02*
X56345237Y-21405720D01*
X56345237Y-21405720D02*
X56369047Y-21358101D01*
X56369047Y-21358101D02*
X56392856Y-21262863D01*
X56392856Y-21262863D02*
X56392856Y-21191435D01*
X56392856Y-21191435D02*
X56369047Y-21096197D01*
X56369047Y-21096197D02*
X56345237Y-21048578D01*
X56345237Y-21048578D02*
X56297618Y-21000959D01*
X56297618Y-21000959D02*
X56226190Y-20977149D01*
X56226190Y-20977149D02*
X56178571Y-20977149D01*
X56178571Y-20977149D02*
X56107142Y-21000959D01*
X56107142Y-21000959D02*
X56083333Y-21024768D01*
X55630952Y-20977149D02*
X55869047Y-20977149D01*
X55869047Y-20977149D02*
X55892856Y-21215244D01*
X55892856Y-21215244D02*
X55869047Y-21191435D01*
X55869047Y-21191435D02*
X55821428Y-21167625D01*
X55821428Y-21167625D02*
X55702380Y-21167625D01*
X55702380Y-21167625D02*
X55654761Y-21191435D01*
X55654761Y-21191435D02*
X55630952Y-21215244D01*
X55630952Y-21215244D02*
X55607142Y-21262863D01*
X55607142Y-21262863D02*
X55607142Y-21381911D01*
X55607142Y-21381911D02*
X55630952Y-21429530D01*
X55630952Y-21429530D02*
X55654761Y-21453340D01*
X55654761Y-21453340D02*
X55702380Y-21477149D01*
X55702380Y-21477149D02*
X55821428Y-21477149D01*
X55821428Y-21477149D02*
X55869047Y-21453340D01*
X55869047Y-21453340D02*
X55892856Y-21429530D01*
D10*
X37380985Y-67150057D02*
X37333366Y-67102438D01*
X37333366Y-67102438D02*
X37238128Y-67054819D01*
X37238128Y-67054819D02*
X37000033Y-67054819D01*
X37000033Y-67054819D02*
X36904795Y-67102438D01*
X36904795Y-67102438D02*
X36857176Y-67150057D01*
X36857176Y-67150057D02*
X36809557Y-67245295D01*
X36809557Y-67245295D02*
X36809557Y-67340533D01*
X36809557Y-67340533D02*
X36857176Y-67483390D01*
X36857176Y-67483390D02*
X37428604Y-68054819D01*
X37428604Y-68054819D02*
X36809557Y-68054819D01*
X36380985Y-68054819D02*
X36380985Y-67054819D01*
X36380985Y-67054819D02*
X35809557Y-68054819D01*
X35809557Y-68054819D02*
X35809557Y-67054819D01*
X35428604Y-67054819D02*
X34761938Y-67054819D01*
X34761938Y-67054819D02*
X35190509Y-68054819D01*
X34190509Y-67054819D02*
X34095271Y-67054819D01*
X34095271Y-67054819D02*
X34000033Y-67102438D01*
X34000033Y-67102438D02*
X33952414Y-67150057D01*
X33952414Y-67150057D02*
X33904795Y-67245295D01*
X33904795Y-67245295D02*
X33857176Y-67435771D01*
X33857176Y-67435771D02*
X33857176Y-67673866D01*
X33857176Y-67673866D02*
X33904795Y-67864342D01*
X33904795Y-67864342D02*
X33952414Y-67959580D01*
X33952414Y-67959580D02*
X34000033Y-68007200D01*
X34000033Y-68007200D02*
X34095271Y-68054819D01*
X34095271Y-68054819D02*
X34190509Y-68054819D01*
X34190509Y-68054819D02*
X34285747Y-68007200D01*
X34285747Y-68007200D02*
X34333366Y-67959580D01*
X34333366Y-67959580D02*
X34380985Y-67864342D01*
X34380985Y-67864342D02*
X34428604Y-67673866D01*
X34428604Y-67673866D02*
X34428604Y-67435771D01*
X34428604Y-67435771D02*
X34380985Y-67245295D01*
X34380985Y-67245295D02*
X34333366Y-67150057D01*
X34333366Y-67150057D02*
X34285747Y-67102438D01*
X34285747Y-67102438D02*
X34190509Y-67054819D01*
X33238128Y-67054819D02*
X33142890Y-67054819D01*
X33142890Y-67054819D02*
X33047652Y-67102438D01*
X33047652Y-67102438D02*
X33000033Y-67150057D01*
X33000033Y-67150057D02*
X32952414Y-67245295D01*
X32952414Y-67245295D02*
X32904795Y-67435771D01*
X32904795Y-67435771D02*
X32904795Y-67673866D01*
X32904795Y-67673866D02*
X32952414Y-67864342D01*
X32952414Y-67864342D02*
X33000033Y-67959580D01*
X33000033Y-67959580D02*
X33047652Y-68007200D01*
X33047652Y-68007200D02*
X33142890Y-68054819D01*
X33142890Y-68054819D02*
X33238128Y-68054819D01*
X33238128Y-68054819D02*
X33333366Y-68007200D01*
X33333366Y-68007200D02*
X33380985Y-67959580D01*
X33380985Y-67959580D02*
X33428604Y-67864342D01*
X33428604Y-67864342D02*
X33476223Y-67673866D01*
X33476223Y-67673866D02*
X33476223Y-67435771D01*
X33476223Y-67435771D02*
X33428604Y-67245295D01*
X33428604Y-67245295D02*
X33380985Y-67150057D01*
X33380985Y-67150057D02*
X33333366Y-67102438D01*
X33333366Y-67102438D02*
X33238128Y-67054819D01*
X32523842Y-67150057D02*
X32476223Y-67102438D01*
X32476223Y-67102438D02*
X32380985Y-67054819D01*
X32380985Y-67054819D02*
X32142890Y-67054819D01*
X32142890Y-67054819D02*
X32047652Y-67102438D01*
X32047652Y-67102438D02*
X32000033Y-67150057D01*
X32000033Y-67150057D02*
X31952414Y-67245295D01*
X31952414Y-67245295D02*
X31952414Y-67340533D01*
X31952414Y-67340533D02*
X32000033Y-67483390D01*
X32000033Y-67483390D02*
X32571461Y-68054819D01*
X32571461Y-68054819D02*
X31952414Y-68054819D01*
D11*
X35062637Y-69931428D02*
X35028351Y-69862857D01*
X35028351Y-69862857D02*
X34959780Y-69794285D01*
X34959780Y-69794285D02*
X34856922Y-69691428D01*
X34856922Y-69691428D02*
X34822637Y-69622857D01*
X34822637Y-69622857D02*
X34822637Y-69554285D01*
X34994065Y-69588571D02*
X34959780Y-69520000D01*
X34959780Y-69520000D02*
X34891208Y-69451428D01*
X34891208Y-69451428D02*
X34754065Y-69417142D01*
X34754065Y-69417142D02*
X34514065Y-69417142D01*
X34514065Y-69417142D02*
X34376922Y-69451428D01*
X34376922Y-69451428D02*
X34308351Y-69520000D01*
X34308351Y-69520000D02*
X34274065Y-69588571D01*
X34274065Y-69588571D02*
X34274065Y-69725714D01*
X34274065Y-69725714D02*
X34308351Y-69794285D01*
X34308351Y-69794285D02*
X34376922Y-69862857D01*
X34376922Y-69862857D02*
X34514065Y-69897142D01*
X34514065Y-69897142D02*
X34754065Y-69897142D01*
X34754065Y-69897142D02*
X34891208Y-69862857D01*
X34891208Y-69862857D02*
X34959780Y-69794285D01*
X34959780Y-69794285D02*
X34994065Y-69725714D01*
X34994065Y-69725714D02*
X34994065Y-69588571D01*
X34274065Y-70137143D02*
X34274065Y-70582857D01*
X34274065Y-70582857D02*
X34548351Y-70342857D01*
X34548351Y-70342857D02*
X34548351Y-70445714D01*
X34548351Y-70445714D02*
X34582637Y-70514286D01*
X34582637Y-70514286D02*
X34616922Y-70548571D01*
X34616922Y-70548571D02*
X34685494Y-70582857D01*
X34685494Y-70582857D02*
X34856922Y-70582857D01*
X34856922Y-70582857D02*
X34925494Y-70548571D01*
X34925494Y-70548571D02*
X34959780Y-70514286D01*
X34959780Y-70514286D02*
X34994065Y-70445714D01*
X34994065Y-70445714D02*
X34994065Y-70240000D01*
X34994065Y-70240000D02*
X34959780Y-70171428D01*
X34959780Y-70171428D02*
X34925494Y-70137143D01*
D10*
X13928538Y-46304819D02*
X14499966Y-46304819D01*
X14214252Y-46304819D02*
X14214252Y-45304819D01*
X14214252Y-45304819D02*
X14309490Y-45447676D01*
X14309490Y-45447676D02*
X14404728Y-45542914D01*
X14404728Y-45542914D02*
X14499966Y-45590533D01*
X13309490Y-45304819D02*
X13214252Y-45304819D01*
X13214252Y-45304819D02*
X13119014Y-45352438D01*
X13119014Y-45352438D02*
X13071395Y-45400057D01*
X13071395Y-45400057D02*
X13023776Y-45495295D01*
X13023776Y-45495295D02*
X12976157Y-45685771D01*
X12976157Y-45685771D02*
X12976157Y-45923866D01*
X12976157Y-45923866D02*
X13023776Y-46114342D01*
X13023776Y-46114342D02*
X13071395Y-46209580D01*
X13071395Y-46209580D02*
X13119014Y-46257200D01*
X13119014Y-46257200D02*
X13214252Y-46304819D01*
X13214252Y-46304819D02*
X13309490Y-46304819D01*
X13309490Y-46304819D02*
X13404728Y-46257200D01*
X13404728Y-46257200D02*
X13452347Y-46209580D01*
X13452347Y-46209580D02*
X13499966Y-46114342D01*
X13499966Y-46114342D02*
X13547585Y-45923866D01*
X13547585Y-45923866D02*
X13547585Y-45685771D01*
X13547585Y-45685771D02*
X13499966Y-45495295D01*
X13499966Y-45495295D02*
X13452347Y-45400057D01*
X13452347Y-45400057D02*
X13404728Y-45352438D01*
X13404728Y-45352438D02*
X13309490Y-45304819D01*
X12547585Y-46304819D02*
X12547585Y-45304819D01*
X12452347Y-45923866D02*
X12166633Y-46304819D01*
X12166633Y-45638152D02*
X12547585Y-46019104D01*
D12*
X13416633Y-47727149D02*
X13583299Y-47489054D01*
X13702347Y-47727149D02*
X13702347Y-47227149D01*
X13702347Y-47227149D02*
X13511871Y-47227149D01*
X13511871Y-47227149D02*
X13464252Y-47250959D01*
X13464252Y-47250959D02*
X13440442Y-47274768D01*
X13440442Y-47274768D02*
X13416633Y-47322387D01*
X13416633Y-47322387D02*
X13416633Y-47393816D01*
X13416633Y-47393816D02*
X13440442Y-47441435D01*
X13440442Y-47441435D02*
X13464252Y-47465244D01*
X13464252Y-47465244D02*
X13511871Y-47489054D01*
X13511871Y-47489054D02*
X13702347Y-47489054D01*
X12988061Y-47393816D02*
X12988061Y-47727149D01*
X13107109Y-47203340D02*
X13226156Y-47560482D01*
X13226156Y-47560482D02*
X12916633Y-47560482D01*
D10*
X95880952Y-21604819D02*
X95880952Y-20604819D01*
X95880952Y-20604819D02*
X95500000Y-20604819D01*
X95500000Y-20604819D02*
X95404762Y-20652438D01*
X95404762Y-20652438D02*
X95357143Y-20700057D01*
X95357143Y-20700057D02*
X95309524Y-20795295D01*
X95309524Y-20795295D02*
X95309524Y-20938152D01*
X95309524Y-20938152D02*
X95357143Y-21033390D01*
X95357143Y-21033390D02*
X95404762Y-21081009D01*
X95404762Y-21081009D02*
X95500000Y-21128628D01*
X95500000Y-21128628D02*
X95880952Y-21128628D01*
X94880952Y-21081009D02*
X94547619Y-21081009D01*
X94404762Y-21604819D02*
X94880952Y-21604819D01*
X94880952Y-21604819D02*
X94880952Y-20604819D01*
X94880952Y-20604819D02*
X94404762Y-20604819D01*
X94023809Y-21557200D02*
X93880952Y-21604819D01*
X93880952Y-21604819D02*
X93642857Y-21604819D01*
X93642857Y-21604819D02*
X93547619Y-21557200D01*
X93547619Y-21557200D02*
X93500000Y-21509580D01*
X93500000Y-21509580D02*
X93452381Y-21414342D01*
X93452381Y-21414342D02*
X93452381Y-21319104D01*
X93452381Y-21319104D02*
X93500000Y-21223866D01*
X93500000Y-21223866D02*
X93547619Y-21176247D01*
X93547619Y-21176247D02*
X93642857Y-21128628D01*
X93642857Y-21128628D02*
X93833333Y-21081009D01*
X93833333Y-21081009D02*
X93928571Y-21033390D01*
X93928571Y-21033390D02*
X93976190Y-20985771D01*
X93976190Y-20985771D02*
X94023809Y-20890533D01*
X94023809Y-20890533D02*
X94023809Y-20795295D01*
X94023809Y-20795295D02*
X93976190Y-20700057D01*
X93976190Y-20700057D02*
X93928571Y-20652438D01*
X93928571Y-20652438D02*
X93833333Y-20604819D01*
X93833333Y-20604819D02*
X93595238Y-20604819D01*
X93595238Y-20604819D02*
X93452381Y-20652438D01*
X93023809Y-21604819D02*
X93023809Y-20604819D01*
X93023809Y-20604819D02*
X92785714Y-20604819D01*
X92785714Y-20604819D02*
X92642857Y-20652438D01*
X92642857Y-20652438D02*
X92547619Y-20747676D01*
X92547619Y-20747676D02*
X92500000Y-20842914D01*
X92500000Y-20842914D02*
X92452381Y-21033390D01*
X92452381Y-21033390D02*
X92452381Y-21176247D01*
X92452381Y-21176247D02*
X92500000Y-21366723D01*
X92500000Y-21366723D02*
X92547619Y-21461961D01*
X92547619Y-21461961D02*
X92642857Y-21557200D01*
X92642857Y-21557200D02*
X92785714Y-21604819D01*
X92785714Y-21604819D02*
X93023809Y-21604819D01*
X91547619Y-20604819D02*
X92023809Y-20604819D01*
X92023809Y-20604819D02*
X92071428Y-21081009D01*
X92071428Y-21081009D02*
X92023809Y-21033390D01*
X92023809Y-21033390D02*
X91928571Y-20985771D01*
X91928571Y-20985771D02*
X91690476Y-20985771D01*
X91690476Y-20985771D02*
X91595238Y-21033390D01*
X91595238Y-21033390D02*
X91547619Y-21081009D01*
X91547619Y-21081009D02*
X91500000Y-21176247D01*
X91500000Y-21176247D02*
X91500000Y-21414342D01*
X91500000Y-21414342D02*
X91547619Y-21509580D01*
X91547619Y-21509580D02*
X91595238Y-21557200D01*
X91595238Y-21557200D02*
X91690476Y-21604819D01*
X91690476Y-21604819D02*
X91928571Y-21604819D01*
X91928571Y-21604819D02*
X92023809Y-21557200D01*
X92023809Y-21557200D02*
X92071428Y-21509580D01*
X91214285Y-20604819D02*
X90880952Y-21604819D01*
X90880952Y-21604819D02*
X90547619Y-20604819D01*
X90023809Y-20604819D02*
X89928571Y-20604819D01*
X89928571Y-20604819D02*
X89833333Y-20652438D01*
X89833333Y-20652438D02*
X89785714Y-20700057D01*
X89785714Y-20700057D02*
X89738095Y-20795295D01*
X89738095Y-20795295D02*
X89690476Y-20985771D01*
X89690476Y-20985771D02*
X89690476Y-21223866D01*
X89690476Y-21223866D02*
X89738095Y-21414342D01*
X89738095Y-21414342D02*
X89785714Y-21509580D01*
X89785714Y-21509580D02*
X89833333Y-21557200D01*
X89833333Y-21557200D02*
X89928571Y-21604819D01*
X89928571Y-21604819D02*
X90023809Y-21604819D01*
X90023809Y-21604819D02*
X90119047Y-21557200D01*
X90119047Y-21557200D02*
X90166666Y-21509580D01*
X90166666Y-21509580D02*
X90214285Y-21414342D01*
X90214285Y-21414342D02*
X90261904Y-21223866D01*
X90261904Y-21223866D02*
X90261904Y-20985771D01*
X90261904Y-20985771D02*
X90214285Y-20795295D01*
X90214285Y-20795295D02*
X90166666Y-20700057D01*
X90166666Y-20700057D02*
X90119047Y-20652438D01*
X90119047Y-20652438D02*
X90023809Y-20604819D01*
X88785714Y-21604819D02*
X89261904Y-21604819D01*
X89261904Y-21604819D02*
X89261904Y-20604819D01*
X87928571Y-21604819D02*
X88499999Y-21604819D01*
X88214285Y-21604819D02*
X88214285Y-20604819D01*
X88214285Y-20604819D02*
X88309523Y-20747676D01*
X88309523Y-20747676D02*
X88404761Y-20842914D01*
X88404761Y-20842914D02*
X88499999Y-20890533D01*
X87499999Y-20604819D02*
X87499999Y-21414342D01*
X87499999Y-21414342D02*
X87452380Y-21509580D01*
X87452380Y-21509580D02*
X87404761Y-21557200D01*
X87404761Y-21557200D02*
X87309523Y-21604819D01*
X87309523Y-21604819D02*
X87119047Y-21604819D01*
X87119047Y-21604819D02*
X87023809Y-21557200D01*
X87023809Y-21557200D02*
X86976190Y-21509580D01*
X86976190Y-21509580D02*
X86928571Y-21414342D01*
X86928571Y-21414342D02*
X86928571Y-20604819D01*
X85976190Y-21604819D02*
X86452380Y-21604819D01*
X86452380Y-21604819D02*
X86452380Y-20604819D01*
X91611094Y-24304819D02*
X91611094Y-23304819D01*
X91611094Y-23304819D02*
X91372999Y-23304819D01*
X91372999Y-23304819D02*
X91230142Y-23352438D01*
X91230142Y-23352438D02*
X91134904Y-23447676D01*
X91134904Y-23447676D02*
X91087285Y-23542914D01*
X91087285Y-23542914D02*
X91039666Y-23733390D01*
X91039666Y-23733390D02*
X91039666Y-23876247D01*
X91039666Y-23876247D02*
X91087285Y-24066723D01*
X91087285Y-24066723D02*
X91134904Y-24161961D01*
X91134904Y-24161961D02*
X91230142Y-24257200D01*
X91230142Y-24257200D02*
X91372999Y-24304819D01*
X91372999Y-24304819D02*
X91611094Y-24304819D01*
X90658713Y-23400057D02*
X90611094Y-23352438D01*
X90611094Y-23352438D02*
X90515856Y-23304819D01*
X90515856Y-23304819D02*
X90277761Y-23304819D01*
X90277761Y-23304819D02*
X90182523Y-23352438D01*
X90182523Y-23352438D02*
X90134904Y-23400057D01*
X90134904Y-23400057D02*
X90087285Y-23495295D01*
X90087285Y-23495295D02*
X90087285Y-23590533D01*
X90087285Y-23590533D02*
X90134904Y-23733390D01*
X90134904Y-23733390D02*
X90706332Y-24304819D01*
X90706332Y-24304819D02*
X90087285Y-24304819D01*
X62261871Y-60638152D02*
X62261871Y-61304819D01*
X62499966Y-60257200D02*
X62738061Y-60971485D01*
X62738061Y-60971485D02*
X62119014Y-60971485D01*
X61738061Y-61209580D02*
X61690442Y-61257200D01*
X61690442Y-61257200D02*
X61738061Y-61304819D01*
X61738061Y-61304819D02*
X61785680Y-61257200D01*
X61785680Y-61257200D02*
X61738061Y-61209580D01*
X61738061Y-61209580D02*
X61738061Y-61304819D01*
X61357109Y-60304819D02*
X60690443Y-60304819D01*
X60690443Y-60304819D02*
X61119014Y-61304819D01*
X60309490Y-61304819D02*
X60309490Y-60304819D01*
X60214252Y-60923866D02*
X59928538Y-61304819D01*
X59928538Y-60638152D02*
X60309490Y-61019104D01*
D12*
X61416633Y-62727149D02*
X61583299Y-62489054D01*
X61702347Y-62727149D02*
X61702347Y-62227149D01*
X61702347Y-62227149D02*
X61511871Y-62227149D01*
X61511871Y-62227149D02*
X61464252Y-62250959D01*
X61464252Y-62250959D02*
X61440442Y-62274768D01*
X61440442Y-62274768D02*
X61416633Y-62322387D01*
X61416633Y-62322387D02*
X61416633Y-62393816D01*
X61416633Y-62393816D02*
X61440442Y-62441435D01*
X61440442Y-62441435D02*
X61464252Y-62465244D01*
X61464252Y-62465244D02*
X61511871Y-62489054D01*
X61511871Y-62489054D02*
X61702347Y-62489054D01*
X61178537Y-62727149D02*
X61083299Y-62727149D01*
X61083299Y-62727149D02*
X61035680Y-62703340D01*
X61035680Y-62703340D02*
X61011871Y-62679530D01*
X61011871Y-62679530D02*
X60964252Y-62608101D01*
X60964252Y-62608101D02*
X60940442Y-62512863D01*
X60940442Y-62512863D02*
X60940442Y-62322387D01*
X60940442Y-62322387D02*
X60964252Y-62274768D01*
X60964252Y-62274768D02*
X60988061Y-62250959D01*
X60988061Y-62250959D02*
X61035680Y-62227149D01*
X61035680Y-62227149D02*
X61130918Y-62227149D01*
X61130918Y-62227149D02*
X61178537Y-62250959D01*
X61178537Y-62250959D02*
X61202347Y-62274768D01*
X61202347Y-62274768D02*
X61226156Y-62322387D01*
X61226156Y-62322387D02*
X61226156Y-62441435D01*
X61226156Y-62441435D02*
X61202347Y-62489054D01*
X61202347Y-62489054D02*
X61178537Y-62512863D01*
X61178537Y-62512863D02*
X61130918Y-62536673D01*
X61130918Y-62536673D02*
X61035680Y-62536673D01*
X61035680Y-62536673D02*
X60988061Y-62512863D01*
X60988061Y-62512863D02*
X60964252Y-62489054D01*
X60964252Y-62489054D02*
X60940442Y-62441435D01*
D10*
X8595238Y-46304819D02*
X9166666Y-46304819D01*
X8880952Y-46304819D02*
X8880952Y-45304819D01*
X8880952Y-45304819D02*
X8976190Y-45447676D01*
X8976190Y-45447676D02*
X9071428Y-45542914D01*
X9071428Y-45542914D02*
X9166666Y-45590533D01*
X7976190Y-45304819D02*
X7880952Y-45304819D01*
X7880952Y-45304819D02*
X7785714Y-45352438D01*
X7785714Y-45352438D02*
X7738095Y-45400057D01*
X7738095Y-45400057D02*
X7690476Y-45495295D01*
X7690476Y-45495295D02*
X7642857Y-45685771D01*
X7642857Y-45685771D02*
X7642857Y-45923866D01*
X7642857Y-45923866D02*
X7690476Y-46114342D01*
X7690476Y-46114342D02*
X7738095Y-46209580D01*
X7738095Y-46209580D02*
X7785714Y-46257200D01*
X7785714Y-46257200D02*
X7880952Y-46304819D01*
X7880952Y-46304819D02*
X7976190Y-46304819D01*
X7976190Y-46304819D02*
X8071428Y-46257200D01*
X8071428Y-46257200D02*
X8119047Y-46209580D01*
X8119047Y-46209580D02*
X8166666Y-46114342D01*
X8166666Y-46114342D02*
X8214285Y-45923866D01*
X8214285Y-45923866D02*
X8214285Y-45685771D01*
X8214285Y-45685771D02*
X8166666Y-45495295D01*
X8166666Y-45495295D02*
X8119047Y-45400057D01*
X8119047Y-45400057D02*
X8071428Y-45352438D01*
X8071428Y-45352438D02*
X7976190Y-45304819D01*
X7214285Y-46304819D02*
X7214285Y-45304819D01*
X7119047Y-45923866D02*
X6833333Y-46304819D01*
X6833333Y-45638152D02*
X7214285Y-46019104D01*
D12*
X8083333Y-47727149D02*
X8249999Y-47489054D01*
X8369047Y-47727149D02*
X8369047Y-47227149D01*
X8369047Y-47227149D02*
X8178571Y-47227149D01*
X8178571Y-47227149D02*
X8130952Y-47250959D01*
X8130952Y-47250959D02*
X8107142Y-47274768D01*
X8107142Y-47274768D02*
X8083333Y-47322387D01*
X8083333Y-47322387D02*
X8083333Y-47393816D01*
X8083333Y-47393816D02*
X8107142Y-47441435D01*
X8107142Y-47441435D02*
X8130952Y-47465244D01*
X8130952Y-47465244D02*
X8178571Y-47489054D01*
X8178571Y-47489054D02*
X8369047Y-47489054D01*
X7916666Y-47227149D02*
X7607142Y-47227149D01*
X7607142Y-47227149D02*
X7773809Y-47417625D01*
X7773809Y-47417625D02*
X7702380Y-47417625D01*
X7702380Y-47417625D02*
X7654761Y-47441435D01*
X7654761Y-47441435D02*
X7630952Y-47465244D01*
X7630952Y-47465244D02*
X7607142Y-47512863D01*
X7607142Y-47512863D02*
X7607142Y-47631911D01*
X7607142Y-47631911D02*
X7630952Y-47679530D01*
X7630952Y-47679530D02*
X7654761Y-47703340D01*
X7654761Y-47703340D02*
X7702380Y-47727149D01*
X7702380Y-47727149D02*
X7845237Y-47727149D01*
X7845237Y-47727149D02*
X7892856Y-47703340D01*
X7892856Y-47703340D02*
X7916666Y-47679530D01*
D10*
X48595238Y-26274819D02*
X49166666Y-26274819D01*
X48880952Y-26274819D02*
X48880952Y-25274819D01*
X48880952Y-25274819D02*
X48976190Y-25417676D01*
X48976190Y-25417676D02*
X49071428Y-25512914D01*
X49071428Y-25512914D02*
X49166666Y-25560533D01*
X47738095Y-25608152D02*
X47738095Y-26274819D01*
X48166666Y-25608152D02*
X48166666Y-26131961D01*
X48166666Y-26131961D02*
X48119047Y-26227200D01*
X48119047Y-26227200D02*
X48023809Y-26274819D01*
X48023809Y-26274819D02*
X47880952Y-26274819D01*
X47880952Y-26274819D02*
X47785714Y-26227200D01*
X47785714Y-26227200D02*
X47738095Y-26179580D01*
X46928571Y-25751009D02*
X47261904Y-25751009D01*
X47261904Y-26274819D02*
X47261904Y-25274819D01*
X47261904Y-25274819D02*
X46785714Y-25274819D01*
D12*
X48083333Y-27679530D02*
X48107142Y-27703340D01*
X48107142Y-27703340D02*
X48178571Y-27727149D01*
X48178571Y-27727149D02*
X48226190Y-27727149D01*
X48226190Y-27727149D02*
X48297618Y-27703340D01*
X48297618Y-27703340D02*
X48345237Y-27655720D01*
X48345237Y-27655720D02*
X48369047Y-27608101D01*
X48369047Y-27608101D02*
X48392856Y-27512863D01*
X48392856Y-27512863D02*
X48392856Y-27441435D01*
X48392856Y-27441435D02*
X48369047Y-27346197D01*
X48369047Y-27346197D02*
X48345237Y-27298578D01*
X48345237Y-27298578D02*
X48297618Y-27250959D01*
X48297618Y-27250959D02*
X48226190Y-27227149D01*
X48226190Y-27227149D02*
X48178571Y-27227149D01*
X48178571Y-27227149D02*
X48107142Y-27250959D01*
X48107142Y-27250959D02*
X48083333Y-27274768D01*
X47654761Y-27393816D02*
X47654761Y-27727149D01*
X47773809Y-27203340D02*
X47892856Y-27560482D01*
X47892856Y-27560482D02*
X47583333Y-27560482D01*
D10*
X33023775Y-26804819D02*
X33023775Y-25804819D01*
X33023775Y-25804819D02*
X32690442Y-26519104D01*
X32690442Y-26519104D02*
X32357109Y-25804819D01*
X32357109Y-25804819D02*
X32357109Y-26804819D01*
X31880918Y-26804819D02*
X31880918Y-25804819D01*
X31880918Y-25804819D02*
X31547585Y-26519104D01*
X31547585Y-26519104D02*
X31214252Y-25804819D01*
X31214252Y-25804819D02*
X31214252Y-26804819D01*
X30404728Y-26281009D02*
X30261871Y-26328628D01*
X30261871Y-26328628D02*
X30214252Y-26376247D01*
X30214252Y-26376247D02*
X30166633Y-26471485D01*
X30166633Y-26471485D02*
X30166633Y-26614342D01*
X30166633Y-26614342D02*
X30214252Y-26709580D01*
X30214252Y-26709580D02*
X30261871Y-26757200D01*
X30261871Y-26757200D02*
X30357109Y-26804819D01*
X30357109Y-26804819D02*
X30738061Y-26804819D01*
X30738061Y-26804819D02*
X30738061Y-25804819D01*
X30738061Y-25804819D02*
X30404728Y-25804819D01*
X30404728Y-25804819D02*
X30309490Y-25852438D01*
X30309490Y-25852438D02*
X30261871Y-25900057D01*
X30261871Y-25900057D02*
X30214252Y-25995295D01*
X30214252Y-25995295D02*
X30214252Y-26090533D01*
X30214252Y-26090533D02*
X30261871Y-26185771D01*
X30261871Y-26185771D02*
X30309490Y-26233390D01*
X30309490Y-26233390D02*
X30404728Y-26281009D01*
X30404728Y-26281009D02*
X30738061Y-26281009D01*
X29880918Y-25804819D02*
X29309490Y-25804819D01*
X29595204Y-26804819D02*
X29595204Y-25804819D01*
X29071394Y-25804819D02*
X28452347Y-25804819D01*
X28452347Y-25804819D02*
X28785680Y-26185771D01*
X28785680Y-26185771D02*
X28642823Y-26185771D01*
X28642823Y-26185771D02*
X28547585Y-26233390D01*
X28547585Y-26233390D02*
X28499966Y-26281009D01*
X28499966Y-26281009D02*
X28452347Y-26376247D01*
X28452347Y-26376247D02*
X28452347Y-26614342D01*
X28452347Y-26614342D02*
X28499966Y-26709580D01*
X28499966Y-26709580D02*
X28547585Y-26757200D01*
X28547585Y-26757200D02*
X28642823Y-26804819D01*
X28642823Y-26804819D02*
X28928537Y-26804819D01*
X28928537Y-26804819D02*
X29023775Y-26757200D01*
X29023775Y-26757200D02*
X29071394Y-26709580D01*
X27976156Y-26804819D02*
X27785680Y-26804819D01*
X27785680Y-26804819D02*
X27690442Y-26757200D01*
X27690442Y-26757200D02*
X27642823Y-26709580D01*
X27642823Y-26709580D02*
X27547585Y-26566723D01*
X27547585Y-26566723D02*
X27499966Y-26376247D01*
X27499966Y-26376247D02*
X27499966Y-25995295D01*
X27499966Y-25995295D02*
X27547585Y-25900057D01*
X27547585Y-25900057D02*
X27595204Y-25852438D01*
X27595204Y-25852438D02*
X27690442Y-25804819D01*
X27690442Y-25804819D02*
X27880918Y-25804819D01*
X27880918Y-25804819D02*
X27976156Y-25852438D01*
X27976156Y-25852438D02*
X28023775Y-25900057D01*
X28023775Y-25900057D02*
X28071394Y-25995295D01*
X28071394Y-25995295D02*
X28071394Y-26233390D01*
X28071394Y-26233390D02*
X28023775Y-26328628D01*
X28023775Y-26328628D02*
X27976156Y-26376247D01*
X27976156Y-26376247D02*
X27880918Y-26423866D01*
X27880918Y-26423866D02*
X27690442Y-26423866D01*
X27690442Y-26423866D02*
X27595204Y-26376247D01*
X27595204Y-26376247D02*
X27547585Y-26328628D01*
X27547585Y-26328628D02*
X27499966Y-26233390D01*
X26880918Y-25804819D02*
X26785680Y-25804819D01*
X26785680Y-25804819D02*
X26690442Y-25852438D01*
X26690442Y-25852438D02*
X26642823Y-25900057D01*
X26642823Y-25900057D02*
X26595204Y-25995295D01*
X26595204Y-25995295D02*
X26547585Y-26185771D01*
X26547585Y-26185771D02*
X26547585Y-26423866D01*
X26547585Y-26423866D02*
X26595204Y-26614342D01*
X26595204Y-26614342D02*
X26642823Y-26709580D01*
X26642823Y-26709580D02*
X26690442Y-26757200D01*
X26690442Y-26757200D02*
X26785680Y-26804819D01*
X26785680Y-26804819D02*
X26880918Y-26804819D01*
X26880918Y-26804819D02*
X26976156Y-26757200D01*
X26976156Y-26757200D02*
X27023775Y-26709580D01*
X27023775Y-26709580D02*
X27071394Y-26614342D01*
X27071394Y-26614342D02*
X27119013Y-26423866D01*
X27119013Y-26423866D02*
X27119013Y-26185771D01*
X27119013Y-26185771D02*
X27071394Y-25995295D01*
X27071394Y-25995295D02*
X27023775Y-25900057D01*
X27023775Y-25900057D02*
X26976156Y-25852438D01*
X26976156Y-25852438D02*
X26880918Y-25804819D01*
X25690442Y-26138152D02*
X25690442Y-26804819D01*
X25928537Y-25757200D02*
X26166632Y-26471485D01*
X26166632Y-26471485D02*
X25547585Y-26471485D01*
D11*
X29729237Y-28681428D02*
X29694951Y-28612857D01*
X29694951Y-28612857D02*
X29626380Y-28544285D01*
X29626380Y-28544285D02*
X29523522Y-28441428D01*
X29523522Y-28441428D02*
X29489237Y-28372857D01*
X29489237Y-28372857D02*
X29489237Y-28304285D01*
X29660665Y-28338571D02*
X29626380Y-28270000D01*
X29626380Y-28270000D02*
X29557808Y-28201428D01*
X29557808Y-28201428D02*
X29420665Y-28167142D01*
X29420665Y-28167142D02*
X29180665Y-28167142D01*
X29180665Y-28167142D02*
X29043522Y-28201428D01*
X29043522Y-28201428D02*
X28974951Y-28270000D01*
X28974951Y-28270000D02*
X28940665Y-28338571D01*
X28940665Y-28338571D02*
X28940665Y-28475714D01*
X28940665Y-28475714D02*
X28974951Y-28544285D01*
X28974951Y-28544285D02*
X29043522Y-28612857D01*
X29043522Y-28612857D02*
X29180665Y-28647142D01*
X29180665Y-28647142D02*
X29420665Y-28647142D01*
X29420665Y-28647142D02*
X29557808Y-28612857D01*
X29557808Y-28612857D02*
X29626380Y-28544285D01*
X29626380Y-28544285D02*
X29660665Y-28475714D01*
X29660665Y-28475714D02*
X29660665Y-28338571D01*
X29660665Y-29332857D02*
X29660665Y-28921428D01*
X29660665Y-29127143D02*
X28940665Y-29127143D01*
X28940665Y-29127143D02*
X29043522Y-29058571D01*
X29043522Y-29058571D02*
X29112094Y-28990000D01*
X29112094Y-28990000D02*
X29146380Y-28921428D01*
D10*
X11142823Y-18874819D02*
X11619013Y-18874819D01*
X11619013Y-18874819D02*
X11666632Y-19351009D01*
X11666632Y-19351009D02*
X11619013Y-19303390D01*
X11619013Y-19303390D02*
X11523775Y-19255771D01*
X11523775Y-19255771D02*
X11285680Y-19255771D01*
X11285680Y-19255771D02*
X11190442Y-19303390D01*
X11190442Y-19303390D02*
X11142823Y-19351009D01*
X11142823Y-19351009D02*
X11095204Y-19446247D01*
X11095204Y-19446247D02*
X11095204Y-19684342D01*
X11095204Y-19684342D02*
X11142823Y-19779580D01*
X11142823Y-19779580D02*
X11190442Y-19827200D01*
X11190442Y-19827200D02*
X11285680Y-19874819D01*
X11285680Y-19874819D02*
X11523775Y-19874819D01*
X11523775Y-19874819D02*
X11619013Y-19827200D01*
X11619013Y-19827200D02*
X11666632Y-19779580D01*
X10476156Y-18874819D02*
X10380918Y-18874819D01*
X10380918Y-18874819D02*
X10285680Y-18922438D01*
X10285680Y-18922438D02*
X10238061Y-18970057D01*
X10238061Y-18970057D02*
X10190442Y-19065295D01*
X10190442Y-19065295D02*
X10142823Y-19255771D01*
X10142823Y-19255771D02*
X10142823Y-19493866D01*
X10142823Y-19493866D02*
X10190442Y-19684342D01*
X10190442Y-19684342D02*
X10238061Y-19779580D01*
X10238061Y-19779580D02*
X10285680Y-19827200D01*
X10285680Y-19827200D02*
X10380918Y-19874819D01*
X10380918Y-19874819D02*
X10476156Y-19874819D01*
X10476156Y-19874819D02*
X10571394Y-19827200D01*
X10571394Y-19827200D02*
X10619013Y-19779580D01*
X10619013Y-19779580D02*
X10666632Y-19684342D01*
X10666632Y-19684342D02*
X10714251Y-19493866D01*
X10714251Y-19493866D02*
X10714251Y-19255771D01*
X10714251Y-19255771D02*
X10666632Y-19065295D01*
X10666632Y-19065295D02*
X10619013Y-18970057D01*
X10619013Y-18970057D02*
X10571394Y-18922438D01*
X10571394Y-18922438D02*
X10476156Y-18874819D01*
X9523775Y-18874819D02*
X9428537Y-18874819D01*
X9428537Y-18874819D02*
X9333299Y-18922438D01*
X9333299Y-18922438D02*
X9285680Y-18970057D01*
X9285680Y-18970057D02*
X9238061Y-19065295D01*
X9238061Y-19065295D02*
X9190442Y-19255771D01*
X9190442Y-19255771D02*
X9190442Y-19493866D01*
X9190442Y-19493866D02*
X9238061Y-19684342D01*
X9238061Y-19684342D02*
X9285680Y-19779580D01*
X9285680Y-19779580D02*
X9333299Y-19827200D01*
X9333299Y-19827200D02*
X9428537Y-19874819D01*
X9428537Y-19874819D02*
X9523775Y-19874819D01*
X9523775Y-19874819D02*
X9619013Y-19827200D01*
X9619013Y-19827200D02*
X9666632Y-19779580D01*
X9666632Y-19779580D02*
X9714251Y-19684342D01*
X9714251Y-19684342D02*
X9761870Y-19493866D01*
X9761870Y-19493866D02*
X9761870Y-19255771D01*
X9761870Y-19255771D02*
X9714251Y-19065295D01*
X9714251Y-19065295D02*
X9666632Y-18970057D01*
X9666632Y-18970057D02*
X9619013Y-18922438D01*
X9619013Y-18922438D02*
X9523775Y-18874819D01*
X8761870Y-19874819D02*
X8761870Y-19208152D01*
X8761870Y-19303390D02*
X8714251Y-19255771D01*
X8714251Y-19255771D02*
X8619013Y-19208152D01*
X8619013Y-19208152D02*
X8476156Y-19208152D01*
X8476156Y-19208152D02*
X8380918Y-19255771D01*
X8380918Y-19255771D02*
X8333299Y-19351009D01*
X8333299Y-19351009D02*
X8333299Y-19874819D01*
X8333299Y-19351009D02*
X8285680Y-19255771D01*
X8285680Y-19255771D02*
X8190442Y-19208152D01*
X8190442Y-19208152D02*
X8047585Y-19208152D01*
X8047585Y-19208152D02*
X7952346Y-19255771D01*
X7952346Y-19255771D02*
X7904727Y-19351009D01*
X7904727Y-19351009D02*
X7904727Y-19874819D01*
X7476156Y-19589104D02*
X6999966Y-19589104D01*
X7571394Y-19874819D02*
X7238061Y-18874819D01*
X7238061Y-18874819D02*
X6904728Y-19874819D01*
D13*
X9599966Y-21194807D02*
X9866632Y-21194807D01*
X9866632Y-21613855D02*
X9866632Y-20813855D01*
X9866632Y-20813855D02*
X9485680Y-20813855D01*
X8761871Y-21613855D02*
X9219014Y-21613855D01*
X8990442Y-21613855D02*
X8990442Y-20813855D01*
X8990442Y-20813855D02*
X9066633Y-20928140D01*
X9066633Y-20928140D02*
X9142823Y-21004331D01*
X9142823Y-21004331D02*
X9219014Y-21042426D01*
D10*
X24595238Y-46304819D02*
X25166666Y-46304819D01*
X24880952Y-46304819D02*
X24880952Y-45304819D01*
X24880952Y-45304819D02*
X24976190Y-45447676D01*
X24976190Y-45447676D02*
X25071428Y-45542914D01*
X25071428Y-45542914D02*
X25166666Y-45590533D01*
X23976190Y-45304819D02*
X23880952Y-45304819D01*
X23880952Y-45304819D02*
X23785714Y-45352438D01*
X23785714Y-45352438D02*
X23738095Y-45400057D01*
X23738095Y-45400057D02*
X23690476Y-45495295D01*
X23690476Y-45495295D02*
X23642857Y-45685771D01*
X23642857Y-45685771D02*
X23642857Y-45923866D01*
X23642857Y-45923866D02*
X23690476Y-46114342D01*
X23690476Y-46114342D02*
X23738095Y-46209580D01*
X23738095Y-46209580D02*
X23785714Y-46257200D01*
X23785714Y-46257200D02*
X23880952Y-46304819D01*
X23880952Y-46304819D02*
X23976190Y-46304819D01*
X23976190Y-46304819D02*
X24071428Y-46257200D01*
X24071428Y-46257200D02*
X24119047Y-46209580D01*
X24119047Y-46209580D02*
X24166666Y-46114342D01*
X24166666Y-46114342D02*
X24214285Y-45923866D01*
X24214285Y-45923866D02*
X24214285Y-45685771D01*
X24214285Y-45685771D02*
X24166666Y-45495295D01*
X24166666Y-45495295D02*
X24119047Y-45400057D01*
X24119047Y-45400057D02*
X24071428Y-45352438D01*
X24071428Y-45352438D02*
X23976190Y-45304819D01*
X23214285Y-46304819D02*
X23214285Y-45304819D01*
X23119047Y-45923866D02*
X22833333Y-46304819D01*
X22833333Y-45638152D02*
X23214285Y-46019104D01*
D12*
X24083333Y-47727149D02*
X24249999Y-47489054D01*
X24369047Y-47727149D02*
X24369047Y-47227149D01*
X24369047Y-47227149D02*
X24178571Y-47227149D01*
X24178571Y-47227149D02*
X24130952Y-47250959D01*
X24130952Y-47250959D02*
X24107142Y-47274768D01*
X24107142Y-47274768D02*
X24083333Y-47322387D01*
X24083333Y-47322387D02*
X24083333Y-47393816D01*
X24083333Y-47393816D02*
X24107142Y-47441435D01*
X24107142Y-47441435D02*
X24130952Y-47465244D01*
X24130952Y-47465244D02*
X24178571Y-47489054D01*
X24178571Y-47489054D02*
X24369047Y-47489054D01*
X23654761Y-47227149D02*
X23749999Y-47227149D01*
X23749999Y-47227149D02*
X23797618Y-47250959D01*
X23797618Y-47250959D02*
X23821428Y-47274768D01*
X23821428Y-47274768D02*
X23869047Y-47346197D01*
X23869047Y-47346197D02*
X23892856Y-47441435D01*
X23892856Y-47441435D02*
X23892856Y-47631911D01*
X23892856Y-47631911D02*
X23869047Y-47679530D01*
X23869047Y-47679530D02*
X23845237Y-47703340D01*
X23845237Y-47703340D02*
X23797618Y-47727149D01*
X23797618Y-47727149D02*
X23702380Y-47727149D01*
X23702380Y-47727149D02*
X23654761Y-47703340D01*
X23654761Y-47703340D02*
X23630952Y-47679530D01*
X23630952Y-47679530D02*
X23607142Y-47631911D01*
X23607142Y-47631911D02*
X23607142Y-47512863D01*
X23607142Y-47512863D02*
X23630952Y-47465244D01*
X23630952Y-47465244D02*
X23654761Y-47441435D01*
X23654761Y-47441435D02*
X23702380Y-47417625D01*
X23702380Y-47417625D02*
X23797618Y-47417625D01*
X23797618Y-47417625D02*
X23845237Y-47441435D01*
X23845237Y-47441435D02*
X23869047Y-47465244D01*
X23869047Y-47465244D02*
X23892856Y-47512863D01*
D10*
X46880919Y-53774819D02*
X47452347Y-53774819D01*
X47166633Y-53774819D02*
X47166633Y-52774819D01*
X47166633Y-52774819D02*
X47261871Y-52917676D01*
X47261871Y-52917676D02*
X47357109Y-53012914D01*
X47357109Y-53012914D02*
X47452347Y-53060533D01*
X46261871Y-52774819D02*
X46166633Y-52774819D01*
X46166633Y-52774819D02*
X46071395Y-52822438D01*
X46071395Y-52822438D02*
X46023776Y-52870057D01*
X46023776Y-52870057D02*
X45976157Y-52965295D01*
X45976157Y-52965295D02*
X45928538Y-53155771D01*
X45928538Y-53155771D02*
X45928538Y-53393866D01*
X45928538Y-53393866D02*
X45976157Y-53584342D01*
X45976157Y-53584342D02*
X46023776Y-53679580D01*
X46023776Y-53679580D02*
X46071395Y-53727200D01*
X46071395Y-53727200D02*
X46166633Y-53774819D01*
X46166633Y-53774819D02*
X46261871Y-53774819D01*
X46261871Y-53774819D02*
X46357109Y-53727200D01*
X46357109Y-53727200D02*
X46404728Y-53679580D01*
X46404728Y-53679580D02*
X46452347Y-53584342D01*
X46452347Y-53584342D02*
X46499966Y-53393866D01*
X46499966Y-53393866D02*
X46499966Y-53155771D01*
X46499966Y-53155771D02*
X46452347Y-52965295D01*
X46452347Y-52965295D02*
X46404728Y-52870057D01*
X46404728Y-52870057D02*
X46357109Y-52822438D01*
X46357109Y-52822438D02*
X46261871Y-52774819D01*
X45309490Y-52774819D02*
X45214252Y-52774819D01*
X45214252Y-52774819D02*
X45119014Y-52822438D01*
X45119014Y-52822438D02*
X45071395Y-52870057D01*
X45071395Y-52870057D02*
X45023776Y-52965295D01*
X45023776Y-52965295D02*
X44976157Y-53155771D01*
X44976157Y-53155771D02*
X44976157Y-53393866D01*
X44976157Y-53393866D02*
X45023776Y-53584342D01*
X45023776Y-53584342D02*
X45071395Y-53679580D01*
X45071395Y-53679580D02*
X45119014Y-53727200D01*
X45119014Y-53727200D02*
X45214252Y-53774819D01*
X45214252Y-53774819D02*
X45309490Y-53774819D01*
X45309490Y-53774819D02*
X45404728Y-53727200D01*
X45404728Y-53727200D02*
X45452347Y-53679580D01*
X45452347Y-53679580D02*
X45499966Y-53584342D01*
X45499966Y-53584342D02*
X45547585Y-53393866D01*
X45547585Y-53393866D02*
X45547585Y-53155771D01*
X45547585Y-53155771D02*
X45499966Y-52965295D01*
X45499966Y-52965295D02*
X45452347Y-52870057D01*
X45452347Y-52870057D02*
X45404728Y-52822438D01*
X45404728Y-52822438D02*
X45309490Y-52774819D01*
X44547585Y-53108152D02*
X44547585Y-53774819D01*
X44547585Y-53203390D02*
X44499966Y-53155771D01*
X44499966Y-53155771D02*
X44404728Y-53108152D01*
X44404728Y-53108152D02*
X44261871Y-53108152D01*
X44261871Y-53108152D02*
X44166633Y-53155771D01*
X44166633Y-53155771D02*
X44119014Y-53251009D01*
X44119014Y-53251009D02*
X44119014Y-53774819D01*
X43309490Y-53251009D02*
X43642823Y-53251009D01*
X43642823Y-53774819D02*
X43642823Y-52774819D01*
X43642823Y-52774819D02*
X43166633Y-52774819D01*
D12*
X45416633Y-55179530D02*
X45440442Y-55203340D01*
X45440442Y-55203340D02*
X45511871Y-55227149D01*
X45511871Y-55227149D02*
X45559490Y-55227149D01*
X45559490Y-55227149D02*
X45630918Y-55203340D01*
X45630918Y-55203340D02*
X45678537Y-55155720D01*
X45678537Y-55155720D02*
X45702347Y-55108101D01*
X45702347Y-55108101D02*
X45726156Y-55012863D01*
X45726156Y-55012863D02*
X45726156Y-54941435D01*
X45726156Y-54941435D02*
X45702347Y-54846197D01*
X45702347Y-54846197D02*
X45678537Y-54798578D01*
X45678537Y-54798578D02*
X45630918Y-54750959D01*
X45630918Y-54750959D02*
X45559490Y-54727149D01*
X45559490Y-54727149D02*
X45511871Y-54727149D01*
X45511871Y-54727149D02*
X45440442Y-54750959D01*
X45440442Y-54750959D02*
X45416633Y-54774768D01*
X45130918Y-54941435D02*
X45178537Y-54917625D01*
X45178537Y-54917625D02*
X45202347Y-54893816D01*
X45202347Y-54893816D02*
X45226156Y-54846197D01*
X45226156Y-54846197D02*
X45226156Y-54822387D01*
X45226156Y-54822387D02*
X45202347Y-54774768D01*
X45202347Y-54774768D02*
X45178537Y-54750959D01*
X45178537Y-54750959D02*
X45130918Y-54727149D01*
X45130918Y-54727149D02*
X45035680Y-54727149D01*
X45035680Y-54727149D02*
X44988061Y-54750959D01*
X44988061Y-54750959D02*
X44964252Y-54774768D01*
X44964252Y-54774768D02*
X44940442Y-54822387D01*
X44940442Y-54822387D02*
X44940442Y-54846197D01*
X44940442Y-54846197D02*
X44964252Y-54893816D01*
X44964252Y-54893816D02*
X44988061Y-54917625D01*
X44988061Y-54917625D02*
X45035680Y-54941435D01*
X45035680Y-54941435D02*
X45130918Y-54941435D01*
X45130918Y-54941435D02*
X45178537Y-54965244D01*
X45178537Y-54965244D02*
X45202347Y-54989054D01*
X45202347Y-54989054D02*
X45226156Y-55036673D01*
X45226156Y-55036673D02*
X45226156Y-55131911D01*
X45226156Y-55131911D02*
X45202347Y-55179530D01*
X45202347Y-55179530D02*
X45178537Y-55203340D01*
X45178537Y-55203340D02*
X45130918Y-55227149D01*
X45130918Y-55227149D02*
X45035680Y-55227149D01*
X45035680Y-55227149D02*
X44988061Y-55203340D01*
X44988061Y-55203340D02*
X44964252Y-55179530D01*
X44964252Y-55179530D02*
X44940442Y-55131911D01*
X44940442Y-55131911D02*
X44940442Y-55036673D01*
X44940442Y-55036673D02*
X44964252Y-54989054D01*
X44964252Y-54989054D02*
X44988061Y-54965244D01*
X44988061Y-54965244D02*
X45035680Y-54941435D01*
D10*
X84880952Y-69104819D02*
X84880952Y-68104819D01*
X84880952Y-68104819D02*
X84500000Y-68104819D01*
X84500000Y-68104819D02*
X84404762Y-68152438D01*
X84404762Y-68152438D02*
X84357143Y-68200057D01*
X84357143Y-68200057D02*
X84309524Y-68295295D01*
X84309524Y-68295295D02*
X84309524Y-68438152D01*
X84309524Y-68438152D02*
X84357143Y-68533390D01*
X84357143Y-68533390D02*
X84404762Y-68581009D01*
X84404762Y-68581009D02*
X84500000Y-68628628D01*
X84500000Y-68628628D02*
X84880952Y-68628628D01*
X83880952Y-68581009D02*
X83547619Y-68581009D01*
X83404762Y-69104819D02*
X83880952Y-69104819D01*
X83880952Y-69104819D02*
X83880952Y-68104819D01*
X83880952Y-68104819D02*
X83404762Y-68104819D01*
X83023809Y-69057200D02*
X82880952Y-69104819D01*
X82880952Y-69104819D02*
X82642857Y-69104819D01*
X82642857Y-69104819D02*
X82547619Y-69057200D01*
X82547619Y-69057200D02*
X82500000Y-69009580D01*
X82500000Y-69009580D02*
X82452381Y-68914342D01*
X82452381Y-68914342D02*
X82452381Y-68819104D01*
X82452381Y-68819104D02*
X82500000Y-68723866D01*
X82500000Y-68723866D02*
X82547619Y-68676247D01*
X82547619Y-68676247D02*
X82642857Y-68628628D01*
X82642857Y-68628628D02*
X82833333Y-68581009D01*
X82833333Y-68581009D02*
X82928571Y-68533390D01*
X82928571Y-68533390D02*
X82976190Y-68485771D01*
X82976190Y-68485771D02*
X83023809Y-68390533D01*
X83023809Y-68390533D02*
X83023809Y-68295295D01*
X83023809Y-68295295D02*
X82976190Y-68200057D01*
X82976190Y-68200057D02*
X82928571Y-68152438D01*
X82928571Y-68152438D02*
X82833333Y-68104819D01*
X82833333Y-68104819D02*
X82595238Y-68104819D01*
X82595238Y-68104819D02*
X82452381Y-68152438D01*
X82023809Y-69104819D02*
X82023809Y-68104819D01*
X82023809Y-68104819D02*
X81785714Y-68104819D01*
X81785714Y-68104819D02*
X81642857Y-68152438D01*
X81642857Y-68152438D02*
X81547619Y-68247676D01*
X81547619Y-68247676D02*
X81500000Y-68342914D01*
X81500000Y-68342914D02*
X81452381Y-68533390D01*
X81452381Y-68533390D02*
X81452381Y-68676247D01*
X81452381Y-68676247D02*
X81500000Y-68866723D01*
X81500000Y-68866723D02*
X81547619Y-68961961D01*
X81547619Y-68961961D02*
X81642857Y-69057200D01*
X81642857Y-69057200D02*
X81785714Y-69104819D01*
X81785714Y-69104819D02*
X82023809Y-69104819D01*
X80547619Y-68104819D02*
X81023809Y-68104819D01*
X81023809Y-68104819D02*
X81071428Y-68581009D01*
X81071428Y-68581009D02*
X81023809Y-68533390D01*
X81023809Y-68533390D02*
X80928571Y-68485771D01*
X80928571Y-68485771D02*
X80690476Y-68485771D01*
X80690476Y-68485771D02*
X80595238Y-68533390D01*
X80595238Y-68533390D02*
X80547619Y-68581009D01*
X80547619Y-68581009D02*
X80500000Y-68676247D01*
X80500000Y-68676247D02*
X80500000Y-68914342D01*
X80500000Y-68914342D02*
X80547619Y-69009580D01*
X80547619Y-69009580D02*
X80595238Y-69057200D01*
X80595238Y-69057200D02*
X80690476Y-69104819D01*
X80690476Y-69104819D02*
X80928571Y-69104819D01*
X80928571Y-69104819D02*
X81023809Y-69057200D01*
X81023809Y-69057200D02*
X81071428Y-69009580D01*
X80214285Y-68104819D02*
X79880952Y-69104819D01*
X79880952Y-69104819D02*
X79547619Y-68104819D01*
X79023809Y-68104819D02*
X78928571Y-68104819D01*
X78928571Y-68104819D02*
X78833333Y-68152438D01*
X78833333Y-68152438D02*
X78785714Y-68200057D01*
X78785714Y-68200057D02*
X78738095Y-68295295D01*
X78738095Y-68295295D02*
X78690476Y-68485771D01*
X78690476Y-68485771D02*
X78690476Y-68723866D01*
X78690476Y-68723866D02*
X78738095Y-68914342D01*
X78738095Y-68914342D02*
X78785714Y-69009580D01*
X78785714Y-69009580D02*
X78833333Y-69057200D01*
X78833333Y-69057200D02*
X78928571Y-69104819D01*
X78928571Y-69104819D02*
X79023809Y-69104819D01*
X79023809Y-69104819D02*
X79119047Y-69057200D01*
X79119047Y-69057200D02*
X79166666Y-69009580D01*
X79166666Y-69009580D02*
X79214285Y-68914342D01*
X79214285Y-68914342D02*
X79261904Y-68723866D01*
X79261904Y-68723866D02*
X79261904Y-68485771D01*
X79261904Y-68485771D02*
X79214285Y-68295295D01*
X79214285Y-68295295D02*
X79166666Y-68200057D01*
X79166666Y-68200057D02*
X79119047Y-68152438D01*
X79119047Y-68152438D02*
X79023809Y-68104819D01*
X77785714Y-69104819D02*
X78261904Y-69104819D01*
X78261904Y-69104819D02*
X78261904Y-68104819D01*
X76928571Y-69104819D02*
X77499999Y-69104819D01*
X77214285Y-69104819D02*
X77214285Y-68104819D01*
X77214285Y-68104819D02*
X77309523Y-68247676D01*
X77309523Y-68247676D02*
X77404761Y-68342914D01*
X77404761Y-68342914D02*
X77499999Y-68390533D01*
X76499999Y-68104819D02*
X76499999Y-68914342D01*
X76499999Y-68914342D02*
X76452380Y-69009580D01*
X76452380Y-69009580D02*
X76404761Y-69057200D01*
X76404761Y-69057200D02*
X76309523Y-69104819D01*
X76309523Y-69104819D02*
X76119047Y-69104819D01*
X76119047Y-69104819D02*
X76023809Y-69057200D01*
X76023809Y-69057200D02*
X75976190Y-69009580D01*
X75976190Y-69009580D02*
X75928571Y-68914342D01*
X75928571Y-68914342D02*
X75928571Y-68104819D01*
X74976190Y-69104819D02*
X75452380Y-69104819D01*
X75452380Y-69104819D02*
X75452380Y-68104819D01*
X81087285Y-71804819D02*
X81087285Y-70804819D01*
X81087285Y-70804819D02*
X80849190Y-70804819D01*
X80849190Y-70804819D02*
X80706333Y-70852438D01*
X80706333Y-70852438D02*
X80611095Y-70947676D01*
X80611095Y-70947676D02*
X80563476Y-71042914D01*
X80563476Y-71042914D02*
X80515857Y-71233390D01*
X80515857Y-71233390D02*
X80515857Y-71376247D01*
X80515857Y-71376247D02*
X80563476Y-71566723D01*
X80563476Y-71566723D02*
X80611095Y-71661961D01*
X80611095Y-71661961D02*
X80706333Y-71757200D01*
X80706333Y-71757200D02*
X80849190Y-71804819D01*
X80849190Y-71804819D02*
X81087285Y-71804819D01*
X79563476Y-71804819D02*
X80134904Y-71804819D01*
X79849190Y-71804819D02*
X79849190Y-70804819D01*
X79849190Y-70804819D02*
X79944428Y-70947676D01*
X79944428Y-70947676D02*
X80039666Y-71042914D01*
X80039666Y-71042914D02*
X80134904Y-71090533D01*
X78944428Y-70804819D02*
X78849190Y-70804819D01*
X78849190Y-70804819D02*
X78753952Y-70852438D01*
X78753952Y-70852438D02*
X78706333Y-70900057D01*
X78706333Y-70900057D02*
X78658714Y-70995295D01*
X78658714Y-70995295D02*
X78611095Y-71185771D01*
X78611095Y-71185771D02*
X78611095Y-71423866D01*
X78611095Y-71423866D02*
X78658714Y-71614342D01*
X78658714Y-71614342D02*
X78706333Y-71709580D01*
X78706333Y-71709580D02*
X78753952Y-71757200D01*
X78753952Y-71757200D02*
X78849190Y-71804819D01*
X78849190Y-71804819D02*
X78944428Y-71804819D01*
X78944428Y-71804819D02*
X79039666Y-71757200D01*
X79039666Y-71757200D02*
X79087285Y-71709580D01*
X79087285Y-71709580D02*
X79134904Y-71614342D01*
X79134904Y-71614342D02*
X79182523Y-71423866D01*
X79182523Y-71423866D02*
X79182523Y-71185771D01*
X79182523Y-71185771D02*
X79134904Y-70995295D01*
X79134904Y-70995295D02*
X79087285Y-70900057D01*
X79087285Y-70900057D02*
X79039666Y-70852438D01*
X79039666Y-70852438D02*
X78944428Y-70804819D01*
X36452413Y-12804819D02*
X35833366Y-12804819D01*
X35833366Y-12804819D02*
X36166699Y-13185771D01*
X36166699Y-13185771D02*
X36023842Y-13185771D01*
X36023842Y-13185771D02*
X35928604Y-13233390D01*
X35928604Y-13233390D02*
X35880985Y-13281009D01*
X35880985Y-13281009D02*
X35833366Y-13376247D01*
X35833366Y-13376247D02*
X35833366Y-13614342D01*
X35833366Y-13614342D02*
X35880985Y-13709580D01*
X35880985Y-13709580D02*
X35928604Y-13757200D01*
X35928604Y-13757200D02*
X36023842Y-13804819D01*
X36023842Y-13804819D02*
X36309556Y-13804819D01*
X36309556Y-13804819D02*
X36404794Y-13757200D01*
X36404794Y-13757200D02*
X36452413Y-13709580D01*
X35500032Y-12804819D02*
X34880985Y-12804819D01*
X34880985Y-12804819D02*
X35214318Y-13185771D01*
X35214318Y-13185771D02*
X35071461Y-13185771D01*
X35071461Y-13185771D02*
X34976223Y-13233390D01*
X34976223Y-13233390D02*
X34928604Y-13281009D01*
X34928604Y-13281009D02*
X34880985Y-13376247D01*
X34880985Y-13376247D02*
X34880985Y-13614342D01*
X34880985Y-13614342D02*
X34928604Y-13709580D01*
X34928604Y-13709580D02*
X34976223Y-13757200D01*
X34976223Y-13757200D02*
X35071461Y-13804819D01*
X35071461Y-13804819D02*
X35357175Y-13804819D01*
X35357175Y-13804819D02*
X35452413Y-13757200D01*
X35452413Y-13757200D02*
X35500032Y-13709580D01*
X34261937Y-12804819D02*
X34166699Y-12804819D01*
X34166699Y-12804819D02*
X34071461Y-12852438D01*
X34071461Y-12852438D02*
X34023842Y-12900057D01*
X34023842Y-12900057D02*
X33976223Y-12995295D01*
X33976223Y-12995295D02*
X33928604Y-13185771D01*
X33928604Y-13185771D02*
X33928604Y-13423866D01*
X33928604Y-13423866D02*
X33976223Y-13614342D01*
X33976223Y-13614342D02*
X34023842Y-13709580D01*
X34023842Y-13709580D02*
X34071461Y-13757200D01*
X34071461Y-13757200D02*
X34166699Y-13804819D01*
X34166699Y-13804819D02*
X34261937Y-13804819D01*
X34261937Y-13804819D02*
X34357175Y-13757200D01*
X34357175Y-13757200D02*
X34404794Y-13709580D01*
X34404794Y-13709580D02*
X34452413Y-13614342D01*
X34452413Y-13614342D02*
X34500032Y-13423866D01*
X34500032Y-13423866D02*
X34500032Y-13185771D01*
X34500032Y-13185771D02*
X34452413Y-12995295D01*
X34452413Y-12995295D02*
X34404794Y-12900057D01*
X34404794Y-12900057D02*
X34357175Y-12852438D01*
X34357175Y-12852438D02*
X34261937Y-12804819D01*
X32928604Y-13804819D02*
X33261937Y-13328628D01*
X33500032Y-13804819D02*
X33500032Y-12804819D01*
X33500032Y-12804819D02*
X33119080Y-12804819D01*
X33119080Y-12804819D02*
X33023842Y-12852438D01*
X33023842Y-12852438D02*
X32976223Y-12900057D01*
X32976223Y-12900057D02*
X32928604Y-12995295D01*
X32928604Y-12995295D02*
X32928604Y-13138152D01*
X32928604Y-13138152D02*
X32976223Y-13233390D01*
X32976223Y-13233390D02*
X33023842Y-13281009D01*
X33023842Y-13281009D02*
X33119080Y-13328628D01*
X33119080Y-13328628D02*
X33500032Y-13328628D01*
D12*
X34750033Y-15227149D02*
X34916699Y-14989054D01*
X35035747Y-15227149D02*
X35035747Y-14727149D01*
X35035747Y-14727149D02*
X34845271Y-14727149D01*
X34845271Y-14727149D02*
X34797652Y-14750959D01*
X34797652Y-14750959D02*
X34773842Y-14774768D01*
X34773842Y-14774768D02*
X34750033Y-14822387D01*
X34750033Y-14822387D02*
X34750033Y-14893816D01*
X34750033Y-14893816D02*
X34773842Y-14941435D01*
X34773842Y-14941435D02*
X34797652Y-14965244D01*
X34797652Y-14965244D02*
X34845271Y-14989054D01*
X34845271Y-14989054D02*
X35035747Y-14989054D01*
X34583366Y-14727149D02*
X34250033Y-14727149D01*
X34250033Y-14727149D02*
X34464318Y-15227149D01*
D10*
X71547652Y-69104819D02*
X71547652Y-68104819D01*
X71547652Y-68104819D02*
X71166700Y-68104819D01*
X71166700Y-68104819D02*
X71071462Y-68152438D01*
X71071462Y-68152438D02*
X71023843Y-68200057D01*
X71023843Y-68200057D02*
X70976224Y-68295295D01*
X70976224Y-68295295D02*
X70976224Y-68438152D01*
X70976224Y-68438152D02*
X71023843Y-68533390D01*
X71023843Y-68533390D02*
X71071462Y-68581009D01*
X71071462Y-68581009D02*
X71166700Y-68628628D01*
X71166700Y-68628628D02*
X71547652Y-68628628D01*
X70547652Y-68581009D02*
X70214319Y-68581009D01*
X70071462Y-69104819D02*
X70547652Y-69104819D01*
X70547652Y-69104819D02*
X70547652Y-68104819D01*
X70547652Y-68104819D02*
X70071462Y-68104819D01*
X69690509Y-69057200D02*
X69547652Y-69104819D01*
X69547652Y-69104819D02*
X69309557Y-69104819D01*
X69309557Y-69104819D02*
X69214319Y-69057200D01*
X69214319Y-69057200D02*
X69166700Y-69009580D01*
X69166700Y-69009580D02*
X69119081Y-68914342D01*
X69119081Y-68914342D02*
X69119081Y-68819104D01*
X69119081Y-68819104D02*
X69166700Y-68723866D01*
X69166700Y-68723866D02*
X69214319Y-68676247D01*
X69214319Y-68676247D02*
X69309557Y-68628628D01*
X69309557Y-68628628D02*
X69500033Y-68581009D01*
X69500033Y-68581009D02*
X69595271Y-68533390D01*
X69595271Y-68533390D02*
X69642890Y-68485771D01*
X69642890Y-68485771D02*
X69690509Y-68390533D01*
X69690509Y-68390533D02*
X69690509Y-68295295D01*
X69690509Y-68295295D02*
X69642890Y-68200057D01*
X69642890Y-68200057D02*
X69595271Y-68152438D01*
X69595271Y-68152438D02*
X69500033Y-68104819D01*
X69500033Y-68104819D02*
X69261938Y-68104819D01*
X69261938Y-68104819D02*
X69119081Y-68152438D01*
X68690509Y-69104819D02*
X68690509Y-68104819D01*
X68690509Y-68104819D02*
X68452414Y-68104819D01*
X68452414Y-68104819D02*
X68309557Y-68152438D01*
X68309557Y-68152438D02*
X68214319Y-68247676D01*
X68214319Y-68247676D02*
X68166700Y-68342914D01*
X68166700Y-68342914D02*
X68119081Y-68533390D01*
X68119081Y-68533390D02*
X68119081Y-68676247D01*
X68119081Y-68676247D02*
X68166700Y-68866723D01*
X68166700Y-68866723D02*
X68214319Y-68961961D01*
X68214319Y-68961961D02*
X68309557Y-69057200D01*
X68309557Y-69057200D02*
X68452414Y-69104819D01*
X68452414Y-69104819D02*
X68690509Y-69104819D01*
X67214319Y-68104819D02*
X67690509Y-68104819D01*
X67690509Y-68104819D02*
X67738128Y-68581009D01*
X67738128Y-68581009D02*
X67690509Y-68533390D01*
X67690509Y-68533390D02*
X67595271Y-68485771D01*
X67595271Y-68485771D02*
X67357176Y-68485771D01*
X67357176Y-68485771D02*
X67261938Y-68533390D01*
X67261938Y-68533390D02*
X67214319Y-68581009D01*
X67214319Y-68581009D02*
X67166700Y-68676247D01*
X67166700Y-68676247D02*
X67166700Y-68914342D01*
X67166700Y-68914342D02*
X67214319Y-69009580D01*
X67214319Y-69009580D02*
X67261938Y-69057200D01*
X67261938Y-69057200D02*
X67357176Y-69104819D01*
X67357176Y-69104819D02*
X67595271Y-69104819D01*
X67595271Y-69104819D02*
X67690509Y-69057200D01*
X67690509Y-69057200D02*
X67738128Y-69009580D01*
X66880985Y-68104819D02*
X66547652Y-69104819D01*
X66547652Y-69104819D02*
X66214319Y-68104819D01*
X65690509Y-68104819D02*
X65595271Y-68104819D01*
X65595271Y-68104819D02*
X65500033Y-68152438D01*
X65500033Y-68152438D02*
X65452414Y-68200057D01*
X65452414Y-68200057D02*
X65404795Y-68295295D01*
X65404795Y-68295295D02*
X65357176Y-68485771D01*
X65357176Y-68485771D02*
X65357176Y-68723866D01*
X65357176Y-68723866D02*
X65404795Y-68914342D01*
X65404795Y-68914342D02*
X65452414Y-69009580D01*
X65452414Y-69009580D02*
X65500033Y-69057200D01*
X65500033Y-69057200D02*
X65595271Y-69104819D01*
X65595271Y-69104819D02*
X65690509Y-69104819D01*
X65690509Y-69104819D02*
X65785747Y-69057200D01*
X65785747Y-69057200D02*
X65833366Y-69009580D01*
X65833366Y-69009580D02*
X65880985Y-68914342D01*
X65880985Y-68914342D02*
X65928604Y-68723866D01*
X65928604Y-68723866D02*
X65928604Y-68485771D01*
X65928604Y-68485771D02*
X65880985Y-68295295D01*
X65880985Y-68295295D02*
X65833366Y-68200057D01*
X65833366Y-68200057D02*
X65785747Y-68152438D01*
X65785747Y-68152438D02*
X65690509Y-68104819D01*
X64452414Y-69104819D02*
X64928604Y-69104819D01*
X64928604Y-69104819D02*
X64928604Y-68104819D01*
X63595271Y-69104819D02*
X64166699Y-69104819D01*
X63880985Y-69104819D02*
X63880985Y-68104819D01*
X63880985Y-68104819D02*
X63976223Y-68247676D01*
X63976223Y-68247676D02*
X64071461Y-68342914D01*
X64071461Y-68342914D02*
X64166699Y-68390533D01*
X63166699Y-68104819D02*
X63166699Y-68914342D01*
X63166699Y-68914342D02*
X63119080Y-69009580D01*
X63119080Y-69009580D02*
X63071461Y-69057200D01*
X63071461Y-69057200D02*
X62976223Y-69104819D01*
X62976223Y-69104819D02*
X62785747Y-69104819D01*
X62785747Y-69104819D02*
X62690509Y-69057200D01*
X62690509Y-69057200D02*
X62642890Y-69009580D01*
X62642890Y-69009580D02*
X62595271Y-68914342D01*
X62595271Y-68914342D02*
X62595271Y-68104819D01*
X61642890Y-69104819D02*
X62119080Y-69104819D01*
X62119080Y-69104819D02*
X62119080Y-68104819D01*
X67277794Y-71804819D02*
X67277794Y-70804819D01*
X67277794Y-70804819D02*
X67039699Y-70804819D01*
X67039699Y-70804819D02*
X66896842Y-70852438D01*
X66896842Y-70852438D02*
X66801604Y-70947676D01*
X66801604Y-70947676D02*
X66753985Y-71042914D01*
X66753985Y-71042914D02*
X66706366Y-71233390D01*
X66706366Y-71233390D02*
X66706366Y-71376247D01*
X66706366Y-71376247D02*
X66753985Y-71566723D01*
X66753985Y-71566723D02*
X66801604Y-71661961D01*
X66801604Y-71661961D02*
X66896842Y-71757200D01*
X66896842Y-71757200D02*
X67039699Y-71804819D01*
X67039699Y-71804819D02*
X67277794Y-71804819D01*
X66134937Y-71233390D02*
X66230175Y-71185771D01*
X66230175Y-71185771D02*
X66277794Y-71138152D01*
X66277794Y-71138152D02*
X66325413Y-71042914D01*
X66325413Y-71042914D02*
X66325413Y-70995295D01*
X66325413Y-70995295D02*
X66277794Y-70900057D01*
X66277794Y-70900057D02*
X66230175Y-70852438D01*
X66230175Y-70852438D02*
X66134937Y-70804819D01*
X66134937Y-70804819D02*
X65944461Y-70804819D01*
X65944461Y-70804819D02*
X65849223Y-70852438D01*
X65849223Y-70852438D02*
X65801604Y-70900057D01*
X65801604Y-70900057D02*
X65753985Y-70995295D01*
X65753985Y-70995295D02*
X65753985Y-71042914D01*
X65753985Y-71042914D02*
X65801604Y-71138152D01*
X65801604Y-71138152D02*
X65849223Y-71185771D01*
X65849223Y-71185771D02*
X65944461Y-71233390D01*
X65944461Y-71233390D02*
X66134937Y-71233390D01*
X66134937Y-71233390D02*
X66230175Y-71281009D01*
X66230175Y-71281009D02*
X66277794Y-71328628D01*
X66277794Y-71328628D02*
X66325413Y-71423866D01*
X66325413Y-71423866D02*
X66325413Y-71614342D01*
X66325413Y-71614342D02*
X66277794Y-71709580D01*
X66277794Y-71709580D02*
X66230175Y-71757200D01*
X66230175Y-71757200D02*
X66134937Y-71804819D01*
X66134937Y-71804819D02*
X65944461Y-71804819D01*
X65944461Y-71804819D02*
X65849223Y-71757200D01*
X65849223Y-71757200D02*
X65801604Y-71709580D01*
X65801604Y-71709580D02*
X65753985Y-71614342D01*
X65753985Y-71614342D02*
X65753985Y-71423866D01*
X65753985Y-71423866D02*
X65801604Y-71328628D01*
X65801604Y-71328628D02*
X65849223Y-71281009D01*
X65849223Y-71281009D02*
X65944461Y-71233390D01*
X62880919Y-53774819D02*
X63452347Y-53774819D01*
X63166633Y-53774819D02*
X63166633Y-52774819D01*
X63166633Y-52774819D02*
X63261871Y-52917676D01*
X63261871Y-52917676D02*
X63357109Y-53012914D01*
X63357109Y-53012914D02*
X63452347Y-53060533D01*
X62261871Y-52774819D02*
X62166633Y-52774819D01*
X62166633Y-52774819D02*
X62071395Y-52822438D01*
X62071395Y-52822438D02*
X62023776Y-52870057D01*
X62023776Y-52870057D02*
X61976157Y-52965295D01*
X61976157Y-52965295D02*
X61928538Y-53155771D01*
X61928538Y-53155771D02*
X61928538Y-53393866D01*
X61928538Y-53393866D02*
X61976157Y-53584342D01*
X61976157Y-53584342D02*
X62023776Y-53679580D01*
X62023776Y-53679580D02*
X62071395Y-53727200D01*
X62071395Y-53727200D02*
X62166633Y-53774819D01*
X62166633Y-53774819D02*
X62261871Y-53774819D01*
X62261871Y-53774819D02*
X62357109Y-53727200D01*
X62357109Y-53727200D02*
X62404728Y-53679580D01*
X62404728Y-53679580D02*
X62452347Y-53584342D01*
X62452347Y-53584342D02*
X62499966Y-53393866D01*
X62499966Y-53393866D02*
X62499966Y-53155771D01*
X62499966Y-53155771D02*
X62452347Y-52965295D01*
X62452347Y-52965295D02*
X62404728Y-52870057D01*
X62404728Y-52870057D02*
X62357109Y-52822438D01*
X62357109Y-52822438D02*
X62261871Y-52774819D01*
X61309490Y-52774819D02*
X61214252Y-52774819D01*
X61214252Y-52774819D02*
X61119014Y-52822438D01*
X61119014Y-52822438D02*
X61071395Y-52870057D01*
X61071395Y-52870057D02*
X61023776Y-52965295D01*
X61023776Y-52965295D02*
X60976157Y-53155771D01*
X60976157Y-53155771D02*
X60976157Y-53393866D01*
X60976157Y-53393866D02*
X61023776Y-53584342D01*
X61023776Y-53584342D02*
X61071395Y-53679580D01*
X61071395Y-53679580D02*
X61119014Y-53727200D01*
X61119014Y-53727200D02*
X61214252Y-53774819D01*
X61214252Y-53774819D02*
X61309490Y-53774819D01*
X61309490Y-53774819D02*
X61404728Y-53727200D01*
X61404728Y-53727200D02*
X61452347Y-53679580D01*
X61452347Y-53679580D02*
X61499966Y-53584342D01*
X61499966Y-53584342D02*
X61547585Y-53393866D01*
X61547585Y-53393866D02*
X61547585Y-53155771D01*
X61547585Y-53155771D02*
X61499966Y-52965295D01*
X61499966Y-52965295D02*
X61452347Y-52870057D01*
X61452347Y-52870057D02*
X61404728Y-52822438D01*
X61404728Y-52822438D02*
X61309490Y-52774819D01*
X60547585Y-53108152D02*
X60547585Y-53774819D01*
X60547585Y-53203390D02*
X60499966Y-53155771D01*
X60499966Y-53155771D02*
X60404728Y-53108152D01*
X60404728Y-53108152D02*
X60261871Y-53108152D01*
X60261871Y-53108152D02*
X60166633Y-53155771D01*
X60166633Y-53155771D02*
X60119014Y-53251009D01*
X60119014Y-53251009D02*
X60119014Y-53774819D01*
X59309490Y-53251009D02*
X59642823Y-53251009D01*
X59642823Y-53774819D02*
X59642823Y-52774819D01*
X59642823Y-52774819D02*
X59166633Y-52774819D01*
D12*
X61416633Y-55179530D02*
X61440442Y-55203340D01*
X61440442Y-55203340D02*
X61511871Y-55227149D01*
X61511871Y-55227149D02*
X61559490Y-55227149D01*
X61559490Y-55227149D02*
X61630918Y-55203340D01*
X61630918Y-55203340D02*
X61678537Y-55155720D01*
X61678537Y-55155720D02*
X61702347Y-55108101D01*
X61702347Y-55108101D02*
X61726156Y-55012863D01*
X61726156Y-55012863D02*
X61726156Y-54941435D01*
X61726156Y-54941435D02*
X61702347Y-54846197D01*
X61702347Y-54846197D02*
X61678537Y-54798578D01*
X61678537Y-54798578D02*
X61630918Y-54750959D01*
X61630918Y-54750959D02*
X61559490Y-54727149D01*
X61559490Y-54727149D02*
X61511871Y-54727149D01*
X61511871Y-54727149D02*
X61440442Y-54750959D01*
X61440442Y-54750959D02*
X61416633Y-54774768D01*
X61178537Y-55227149D02*
X61083299Y-55227149D01*
X61083299Y-55227149D02*
X61035680Y-55203340D01*
X61035680Y-55203340D02*
X61011871Y-55179530D01*
X61011871Y-55179530D02*
X60964252Y-55108101D01*
X60964252Y-55108101D02*
X60940442Y-55012863D01*
X60940442Y-55012863D02*
X60940442Y-54822387D01*
X60940442Y-54822387D02*
X60964252Y-54774768D01*
X60964252Y-54774768D02*
X60988061Y-54750959D01*
X60988061Y-54750959D02*
X61035680Y-54727149D01*
X61035680Y-54727149D02*
X61130918Y-54727149D01*
X61130918Y-54727149D02*
X61178537Y-54750959D01*
X61178537Y-54750959D02*
X61202347Y-54774768D01*
X61202347Y-54774768D02*
X61226156Y-54822387D01*
X61226156Y-54822387D02*
X61226156Y-54941435D01*
X61226156Y-54941435D02*
X61202347Y-54989054D01*
X61202347Y-54989054D02*
X61178537Y-55012863D01*
X61178537Y-55012863D02*
X61130918Y-55036673D01*
X61130918Y-55036673D02*
X61035680Y-55036673D01*
X61035680Y-55036673D02*
X60988061Y-55012863D01*
X60988061Y-55012863D02*
X60964252Y-54989054D01*
X60964252Y-54989054D02*
X60940442Y-54941435D01*
D14*
%TO.C,Q4*%
X26341700Y-88950000D02*
X27316700Y-88950000D01*
X27316700Y-86050000D01*
X26016700Y-86050000D01*
X26016700Y-88625000D01*
X26341700Y-88950000D01*
%TO.C,C2*%
X39000000Y-38125000D02*
X41000000Y-38125000D01*
X41000000Y-39375000D01*
X39000000Y-39375000D01*
X39000000Y-38125000D01*
%TO.C,R11*%
X87000000Y-46875000D02*
X89000000Y-46875000D01*
X89000000Y-48125000D01*
X87000000Y-48125000D01*
X87000000Y-46875000D01*
%TO.C,R8*%
X44333300Y-61875000D02*
X46333300Y-61875000D01*
X46333300Y-63125000D01*
X44333300Y-63125000D01*
X44333300Y-61875000D01*
%TO.C,C1*%
X39000000Y-28125000D02*
X41000000Y-28125000D01*
X41000000Y-29375000D01*
X39000000Y-29375000D01*
X39000000Y-28125000D01*
%TO.C,D5*%
X39500000Y-69700000D02*
X39500000Y-70300000D01*
X39500000Y-70300000D02*
X40500000Y-70300000D01*
X39850000Y-69800000D02*
X39850000Y-70200000D01*
X39850000Y-70000000D02*
X39700000Y-70000000D01*
X39850000Y-70000000D02*
X40150000Y-69800000D01*
X40150000Y-69800000D02*
X40150000Y-70200000D01*
X40150000Y-70000000D02*
X40300000Y-70000000D01*
X40150000Y-70200000D02*
X39850000Y-70000000D01*
X40500000Y-69700000D02*
X39500000Y-69700000D01*
X40500000Y-70300000D02*
X40500000Y-69700000D01*
%TO.C,C10*%
X76333300Y-54375000D02*
X78333300Y-54375000D01*
X78333300Y-55625000D01*
X76333300Y-55625000D01*
X76333300Y-54375000D01*
%TO.C,Q2*%
X29008300Y-40200000D02*
X29983300Y-40200000D01*
X29983300Y-37300000D01*
X28683300Y-37300000D01*
X28683300Y-39875000D01*
X29008300Y-40200000D01*
%TO.C,C11*%
X87000000Y-31875000D02*
X89000000Y-31875000D01*
X89000000Y-33125000D01*
X87000000Y-33125000D01*
X87000000Y-31875000D01*
%TO.C,R14*%
X55000000Y-69375000D02*
X57000000Y-69375000D01*
X57000000Y-70625000D01*
X55000000Y-70625000D01*
X55000000Y-69375000D01*
%TO.C,R13*%
X23000000Y-69375000D02*
X25000000Y-69375000D01*
X25000000Y-70625000D01*
X23000000Y-70625000D01*
X23000000Y-69375000D01*
%TO.C,R1*%
X33666700Y-28125000D02*
X35666700Y-28125000D01*
X35666700Y-29375000D01*
X33666700Y-29375000D01*
X33666700Y-28125000D01*
%TO.C,U1*%
X17691700Y-38700000D02*
X20616700Y-38700000D01*
X20616700Y-28800000D01*
X16716700Y-28800000D01*
X16716700Y-37725000D01*
X17691700Y-38700000D01*
%TO.C,R12*%
X28333300Y-69375000D02*
X30333300Y-69375000D01*
X30333300Y-70625000D01*
X28333300Y-70625000D01*
X28333300Y-69375000D01*
%TO.C,R5*%
X17666700Y-46875000D02*
X19666700Y-46875000D01*
X19666700Y-48125000D01*
X17666700Y-48125000D01*
X17666700Y-46875000D01*
%TO.C,R2*%
X33666700Y-38125000D02*
X35666700Y-38125000D01*
X35666700Y-39375000D01*
X33666700Y-39375000D01*
X33666700Y-38125000D01*
%TO.C,C3*%
X39000000Y-11875000D02*
X41000000Y-11875000D01*
X41000000Y-13125000D01*
X39000000Y-13125000D01*
X39000000Y-11875000D01*
%TO.C,D9*%
X74166700Y-69700000D02*
X74166700Y-70300000D01*
X74166700Y-70300000D02*
X75166700Y-70300000D01*
X74516700Y-69800000D02*
X74516700Y-70200000D01*
X74516700Y-70000000D02*
X74366700Y-70000000D01*
X74516700Y-70000000D02*
X74816700Y-69800000D01*
X74816700Y-69800000D02*
X74816700Y-70200000D01*
X74816700Y-70000000D02*
X74966700Y-70000000D01*
X74816700Y-70200000D02*
X74516700Y-70000000D01*
X75166700Y-69700000D02*
X74166700Y-69700000D01*
X75166700Y-70300000D02*
X75166700Y-69700000D01*
%TO.C,D6*%
X50166700Y-69700000D02*
X50166700Y-70300000D01*
X50166700Y-70300000D02*
X51166700Y-70300000D01*
X50516700Y-69800000D02*
X50516700Y-70200000D01*
X50516700Y-70000000D02*
X50366700Y-70000000D01*
X50516700Y-70000000D02*
X50816700Y-69800000D01*
X50816700Y-69800000D02*
X50816700Y-70200000D01*
X50816700Y-70000000D02*
X50966700Y-70000000D01*
X50816700Y-70200000D02*
X50516700Y-70000000D01*
X51166700Y-69700000D02*
X50166700Y-69700000D01*
X51166700Y-70300000D02*
X51166700Y-69700000D01*
%TO.C,D7*%
X60833300Y-69700000D02*
X60833300Y-70300000D01*
X60833300Y-70300000D02*
X61833300Y-70300000D01*
X61183300Y-69800000D02*
X61183300Y-70200000D01*
X61183300Y-70000000D02*
X61033300Y-70000000D01*
X61183300Y-70000000D02*
X61483300Y-69800000D01*
X61483300Y-69800000D02*
X61483300Y-70200000D01*
X61483300Y-70000000D02*
X61633300Y-70000000D01*
X61483300Y-70200000D02*
X61183300Y-70000000D01*
X61833300Y-69700000D02*
X60833300Y-69700000D01*
X61833300Y-70300000D02*
X61833300Y-69700000D01*
%TO.C,D4*%
X22600000Y-74100000D02*
X22600000Y-75900000D01*
X22600000Y-75900000D02*
X25400000Y-75900000D01*
X23250000Y-75000000D02*
X23650000Y-75000000D01*
X23650000Y-75000000D02*
X23650000Y-74450000D01*
X23650000Y-75000000D02*
X23650000Y-75550000D01*
X23650000Y-75000000D02*
X24250000Y-75400000D01*
X24250000Y-74600000D02*
X23650000Y-75000000D01*
X24250000Y-75000000D02*
X24750000Y-75000000D01*
X24250000Y-75400000D02*
X24250000Y-74600000D01*
X25400000Y-74100000D02*
X22600000Y-74100000D01*
X25400000Y-75900000D02*
X25400000Y-74100000D01*
%TO.C,C6*%
X39000000Y-20625000D02*
X41000000Y-20625000D01*
X41000000Y-21875000D01*
X39000000Y-21875000D01*
X39000000Y-20625000D01*
%TO.C,D3*%
X87500000Y-27200000D02*
X87500000Y-27800000D01*
X87500000Y-27800000D02*
X88500000Y-27800000D01*
X87850000Y-27300000D02*
X87850000Y-27700000D01*
X87850000Y-27500000D02*
X87700000Y-27500000D01*
X87850000Y-27500000D02*
X88150000Y-27300000D01*
X88150000Y-27300000D02*
X88150000Y-27700000D01*
X88150000Y-27500000D02*
X88300000Y-27500000D01*
X88150000Y-27700000D02*
X87850000Y-27500000D01*
X88500000Y-27200000D02*
X87500000Y-27200000D01*
X88500000Y-27800000D02*
X88500000Y-27200000D01*
%TO.C,C7*%
X25666700Y-11875000D02*
X27666700Y-11875000D01*
X27666700Y-13125000D01*
X25666700Y-13125000D01*
X25666700Y-11875000D01*
%TO.C,R10*%
X87000000Y-41875000D02*
X89000000Y-41875000D01*
X89000000Y-43125000D01*
X87000000Y-43125000D01*
X87000000Y-41875000D01*
%TO.C,C5*%
X55000000Y-20625000D02*
X57000000Y-20625000D01*
X57000000Y-21875000D01*
X55000000Y-21875000D01*
X55000000Y-20625000D01*
%TO.C,Q3*%
X34341700Y-71450000D02*
X35316700Y-71450000D01*
X35316700Y-68550000D01*
X34016700Y-68550000D01*
X34016700Y-71125000D01*
X34341700Y-71450000D01*
%TO.C,R4*%
X12333300Y-46875000D02*
X14333300Y-46875000D01*
X14333300Y-48125000D01*
X12333300Y-48125000D01*
X12333300Y-46875000D01*
%TO.C,D2*%
X90500000Y-22200000D02*
X90500000Y-22800000D01*
X90500000Y-22800000D02*
X91500000Y-22800000D01*
X90850000Y-22300000D02*
X90850000Y-22700000D01*
X90850000Y-22500000D02*
X90700000Y-22500000D01*
X90850000Y-22500000D02*
X91150000Y-22300000D01*
X91150000Y-22300000D02*
X91150000Y-22700000D01*
X91150000Y-22500000D02*
X91300000Y-22500000D01*
X91150000Y-22700000D02*
X90850000Y-22500000D01*
X91500000Y-22200000D02*
X90500000Y-22200000D01*
X91500000Y-22800000D02*
X91500000Y-22200000D01*
%TO.C,R9*%
X60333300Y-61875000D02*
X62333300Y-61875000D01*
X62333300Y-63125000D01*
X60333300Y-63125000D01*
X60333300Y-61875000D01*
%TO.C,R3*%
X7000000Y-46875000D02*
X9000000Y-46875000D01*
X9000000Y-48125000D01*
X7000000Y-48125000D01*
X7000000Y-46875000D01*
%TO.C,C4*%
X47000000Y-26875000D02*
X49000000Y-26875000D01*
X49000000Y-28125000D01*
X47000000Y-28125000D01*
X47000000Y-26875000D01*
%TO.C,Q1*%
X29008300Y-30200000D02*
X29983300Y-30200000D01*
X29983300Y-27300000D01*
X28683300Y-27300000D01*
X28683300Y-29875000D01*
X29008300Y-30200000D01*
%TO.C,F1*%
X7733300Y-20450000D02*
X10933300Y-20450000D01*
X10933300Y-22050000D01*
X7733300Y-22050000D01*
X7733300Y-20450000D01*
%TO.C,R6*%
X23000000Y-46875000D02*
X25000000Y-46875000D01*
X25000000Y-48125000D01*
X23000000Y-48125000D01*
X23000000Y-46875000D01*
%TO.C,C8*%
X44333300Y-54375000D02*
X46333300Y-54375000D01*
X46333300Y-55625000D01*
X44333300Y-55625000D01*
X44333300Y-54375000D01*
%TO.C,D10*%
X79500000Y-69700000D02*
X79500000Y-70300000D01*
X79500000Y-70300000D02*
X80500000Y-70300000D01*
X79850000Y-69800000D02*
X79850000Y-70200000D01*
X79850000Y-70000000D02*
X79700000Y-70000000D01*
X79850000Y-70000000D02*
X80150000Y-69800000D01*
X80150000Y-69800000D02*
X80150000Y-70200000D01*
X80150000Y-70000000D02*
X80300000Y-70000000D01*
X80150000Y-70200000D02*
X79850000Y-70000000D01*
X80500000Y-69700000D02*
X79500000Y-69700000D01*
X80500000Y-70300000D02*
X80500000Y-69700000D01*
%TO.C,R7*%
X33666700Y-14375000D02*
X35666700Y-14375000D01*
X35666700Y-15625000D01*
X33666700Y-15625000D01*
X33666700Y-14375000D01*
%TO.C,D8*%
X66166700Y-69700000D02*
X66166700Y-70300000D01*
X66166700Y-70300000D02*
X67166700Y-70300000D01*
X66516700Y-69800000D02*
X66516700Y-70200000D01*
X66516700Y-70000000D02*
X66366700Y-70000000D01*
X66516700Y-70000000D02*
X66816700Y-69800000D01*
X66816700Y-69800000D02*
X66816700Y-70200000D01*
X66816700Y-70000000D02*
X66966700Y-70000000D01*
X66816700Y-70200000D02*
X66516700Y-70000000D01*
X67166700Y-69700000D02*
X66166700Y-69700000D01*
X67166700Y-70300000D02*
X67166700Y-69700000D01*
%TO.C,C9*%
X60333300Y-54375000D02*
X62333300Y-54375000D01*
X62333300Y-55625000D01*
X60333300Y-55625000D01*
X60333300Y-54375000D01*
%TD*%
M02*
