%TF.GenerationSoftware,KiCad,Pcbnew,10.0.5*%
%TF.CreationDate,2026-08-07T15:17:58+02:00*%
%TF.ProjectId,wisp,77697370-2e6b-4696-9361-645f70636258,rev?*%
%TF.SameCoordinates,Original*%
%TF.FileFunction,Other,User*%
%FSLAX46Y46*%
G04 Gerber Fmt 4.6, Leading zero omitted, Abs format (unit mm)*
G04 Created by KiCad (PCBNEW 10.0.5) date 2026-08-07 15:17:58*
%MOMM*%
%LPD*%
G01*
G04 APERTURE LIST*
%ADD10C,0.050000*%
G04 APERTURE END LIST*
%TO.C,J3*%
D10*
X68230000Y-34230000D02*
X71770000Y-34230000D01*
X71770000Y-45390000D01*
X68230000Y-45390000D01*
X68230000Y-34230000D01*
%TO.C,TP9*%
X16750000Y-32750000D02*
X16750000Y-35250000D01*
X16750000Y-32750000D02*
X19250000Y-32750000D01*
X19250000Y-35250000D02*
X16750000Y-35250000D01*
X19250000Y-35250000D02*
X19250000Y-32750000D01*
%TO.C,BZ1*%
X8750000Y-67650000D02*
X9250000Y-67650000D01*
X8750000Y-72350000D02*
X8750000Y-67650000D01*
X9250000Y-65250000D02*
X18750000Y-65250000D01*
X9250000Y-67650000D02*
X9250000Y-65250000D01*
X9250000Y-72350000D02*
X8750000Y-72350000D01*
X9250000Y-74750000D02*
X9250000Y-72350000D01*
X18750000Y-65250000D02*
X18750000Y-67650000D01*
X18750000Y-67650000D02*
X19250000Y-67650000D01*
X18750000Y-72350000D02*
X18750000Y-74750000D01*
X18750000Y-74750000D02*
X9250000Y-74750000D01*
X19250000Y-67650000D02*
X19250000Y-72350000D01*
X19250000Y-72350000D02*
X18750000Y-72350000D01*
%TO.C,TP3*%
X28750000Y-32750000D02*
X28750000Y-35250000D01*
X28750000Y-32750000D02*
X31250000Y-32750000D01*
X31250000Y-35250000D02*
X28750000Y-35250000D01*
X31250000Y-35250000D02*
X31250000Y-32750000D01*
%TO.C,J5*%
X20230000Y-58230000D02*
X23770000Y-58230000D01*
X23770000Y-64320000D01*
X20230000Y-64320000D01*
X20230000Y-58230000D01*
%TO.C,SW1*%
X3150000Y-38150000D02*
X8850000Y-38150000D01*
X3150000Y-41850000D02*
X3150000Y-38150000D01*
X8850000Y-38150000D02*
X8850000Y-41850000D01*
X8850000Y-41850000D02*
X3150000Y-41850000D01*
%TO.C,MH4*%
X74450000Y-76000000D02*
G75*
G02*
X67550000Y-76000000I-3450000J0D01*
G01*
X67550000Y-76000000D02*
G75*
G02*
X74450000Y-76000000I3450000J0D01*
G01*
%TO.C,TP7*%
X28750000Y-35750000D02*
X28750000Y-38250000D01*
X28750000Y-35750000D02*
X31250000Y-35750000D01*
X31250000Y-38250000D02*
X28750000Y-38250000D01*
X31250000Y-38250000D02*
X31250000Y-35750000D01*
%TO.C,TP2*%
X25750000Y-32750000D02*
X25750000Y-35250000D01*
X25750000Y-32750000D02*
X28250000Y-32750000D01*
X28250000Y-35250000D02*
X25750000Y-35250000D01*
X28250000Y-35250000D02*
X28250000Y-32750000D01*
%TO.C,U5*%
X38250000Y-42250000D02*
X41750000Y-42250000D01*
X41750000Y-45750000D01*
X38250000Y-45750000D01*
X38250000Y-42250000D01*
%TO.C,U4*%
X18650000Y-42820000D02*
X18700000Y-42820000D01*
X18650000Y-49180000D02*
X18650000Y-42820000D01*
X18700000Y-40700000D02*
X20820000Y-40700000D01*
X18700000Y-42820000D02*
X18700000Y-40700000D01*
X18700000Y-49180000D02*
X18650000Y-49180000D01*
X18700000Y-51300000D02*
X18700000Y-49180000D01*
X20820000Y-40650000D02*
X27180000Y-40650000D01*
X20820000Y-40700000D02*
X20820000Y-40650000D01*
X20820000Y-51300000D02*
X18700000Y-51300000D01*
X20820000Y-51350000D02*
X20820000Y-51300000D01*
X27180000Y-40650000D02*
X27180000Y-40700000D01*
X27180000Y-40700000D02*
X29300000Y-40700000D01*
X27180000Y-51300000D02*
X27180000Y-51350000D01*
X27180000Y-51350000D02*
X20820000Y-51350000D01*
X29300000Y-40700000D02*
X29300000Y-42820000D01*
X29300000Y-42820000D02*
X29350000Y-42820000D01*
X29300000Y-49180000D02*
X29300000Y-51300000D01*
X29300000Y-51300000D02*
X27180000Y-51300000D01*
X29350000Y-42820000D02*
X29350000Y-49180000D01*
X29350000Y-49180000D02*
X29300000Y-49180000D01*
%TO.C,SW2*%
X9150000Y-38150000D02*
X14850000Y-38150000D01*
X9150000Y-41850000D02*
X9150000Y-38150000D01*
X14850000Y-38150000D02*
X14850000Y-41850000D01*
X14850000Y-41850000D02*
X9150000Y-41850000D01*
%TO.C,MH1*%
X7450000Y-4000000D02*
G75*
G02*
X550000Y-4000000I-3450000J0D01*
G01*
X550000Y-4000000D02*
G75*
G02*
X7450000Y-4000000I3450000J0D01*
G01*
%TO.C,TP10*%
X34750000Y-35750000D02*
X34750000Y-38250000D01*
X34750000Y-35750000D02*
X37250000Y-35750000D01*
X37250000Y-38250000D02*
X34750000Y-38250000D01*
X37250000Y-38250000D02*
X37250000Y-35750000D01*
%TO.C,J1*%
X11730000Y-3680000D02*
X21150000Y-3680000D01*
X11730000Y-14320000D02*
X11730000Y-3680000D01*
X11730000Y-14320000D02*
X21150000Y-14320000D01*
X21150000Y-14320000D02*
X21150000Y-3680000D01*
%TO.C,U2*%
X33950000Y-8500000D02*
X34950000Y-8500000D01*
X33950000Y-11500000D02*
X33950000Y-8500000D01*
X34950000Y-8300000D02*
X37050000Y-8300000D01*
X34950000Y-8500000D02*
X34950000Y-8300000D01*
X34950000Y-11500000D02*
X33950000Y-11500000D01*
X34950000Y-11700000D02*
X34950000Y-11500000D01*
X37050000Y-8300000D02*
X37050000Y-8500000D01*
X37050000Y-8500000D02*
X38050000Y-8500000D01*
X37050000Y-11500000D02*
X37050000Y-11700000D01*
X37050000Y-11700000D02*
X34950000Y-11700000D01*
X38050000Y-8500000D02*
X38050000Y-11500000D01*
X38050000Y-11500000D02*
X37050000Y-11500000D01*
%TO.C,U3*%
X-9500000Y13500000D02*
X9500000Y13500000D01*
X9500000Y-13500000D01*
X-9500000Y-13500000D01*
X-9500000Y13500000D01*
%TO.C,TP5*%
X22750000Y-35750000D02*
X22750000Y-38250000D01*
X22750000Y-35750000D02*
X25250000Y-35750000D01*
X25250000Y-38250000D02*
X22750000Y-38250000D01*
X25250000Y-38250000D02*
X25250000Y-35750000D01*
%TO.C,MH3*%
X7450000Y-76000000D02*
G75*
G02*
X550000Y-76000000I-3450000J0D01*
G01*
X550000Y-76000000D02*
G75*
G02*
X7450000Y-76000000I3450000J0D01*
G01*
%TO.C,J2*%
X68230000Y-18230000D02*
X71770000Y-18230000D01*
X71770000Y-29390000D01*
X68230000Y-29390000D01*
X68230000Y-18230000D01*
%TO.C,J7*%
X36230000Y-58230000D02*
X39770000Y-58230000D01*
X39770000Y-66850000D01*
X36230000Y-66850000D01*
X36230000Y-58230000D01*
%TO.C,TP1*%
X22750000Y-32750000D02*
X22750000Y-35250000D01*
X22750000Y-32750000D02*
X25250000Y-32750000D01*
X25250000Y-35250000D02*
X22750000Y-35250000D01*
X25250000Y-35250000D02*
X25250000Y-32750000D01*
%TO.C,D1*%
X22550000Y-3250000D02*
X22550000Y-8750000D01*
X22550000Y-8750000D02*
X29450000Y-8750000D01*
X29450000Y-3250000D02*
X22550000Y-3250000D01*
X29450000Y-8750000D02*
X29450000Y-3250000D01*
%TO.C,J9*%
X54230000Y-58230000D02*
X57770000Y-58230000D01*
X57770000Y-74470000D01*
X54230000Y-74470000D01*
X54230000Y-58230000D01*
%TO.C,MH2*%
X74450000Y-4000000D02*
G75*
G02*
X67550000Y-4000000I-3450000J0D01*
G01*
X67550000Y-4000000D02*
G75*
G02*
X74450000Y-4000000I3450000J0D01*
G01*
%TO.C,TP4*%
X31750000Y-32750000D02*
X31750000Y-35250000D01*
X31750000Y-32750000D02*
X34250000Y-32750000D01*
X34250000Y-35250000D02*
X31750000Y-35250000D01*
X34250000Y-35250000D02*
X34250000Y-32750000D01*
%TO.C,TP6*%
X25750000Y-35750000D02*
X25750000Y-38250000D01*
X25750000Y-35750000D02*
X28250000Y-35750000D01*
X28250000Y-38250000D02*
X25750000Y-38250000D01*
X28250000Y-38250000D02*
X28250000Y-35750000D01*
%TO.C,J4*%
X68230000Y-50230000D02*
X71770000Y-50230000D01*
X71770000Y-63930000D01*
X68230000Y-63930000D01*
X68230000Y-50230000D01*
%TO.C,TP8*%
X31750000Y-35750000D02*
X31750000Y-38250000D01*
X31750000Y-35750000D02*
X34250000Y-35750000D01*
X34250000Y-38250000D02*
X31750000Y-38250000D01*
X34250000Y-38250000D02*
X34250000Y-35750000D01*
%TO.C,J8*%
X44230000Y-58230000D02*
X47770000Y-58230000D01*
X47770000Y-66850000D01*
X44230000Y-66850000D01*
X44230000Y-58230000D01*
%TO.C,J6*%
X28230000Y-58230000D02*
X31770000Y-58230000D01*
X31770000Y-64320000D01*
X28230000Y-64320000D01*
X28230000Y-58230000D01*
%TO.C,L1*%
X33720000Y-15420000D02*
X38280000Y-15420000D01*
X38280000Y-18580000D01*
X33720000Y-18580000D01*
X33720000Y-15420000D01*
%TD*%
M02*
