%TF.GenerationSoftware,KiCad,Pcbnew,10.0.5*%
%TF.CreationDate,2026-08-07T15:17:58+02:00*%
%TF.ProjectId,wisp,77697370-2e6b-4696-9361-645f70636258,rev?*%
%TF.SameCoordinates,Original*%
%TF.FileFunction,AssemblyDrawing,Bot*%
%FSLAX46Y46*%
G04 Gerber Fmt 4.6, Leading zero omitted, Abs format (unit mm)*
G04 Created by KiCad (PCBNEW 10.0.5) date 2026-08-07 15:17:58*
%MOMM*%
%LPD*%
G01*
G04 APERTURE LIST*
%ADD10C,0.150000*%
%ADD11C,0.110000*%
%ADD12C,0.080000*%
%ADD13C,0.120000*%
%ADD14C,0.100000*%
G04 APERTURE END LIST*
D10*
X23690475Y-68054819D02*
X23690475Y-67054819D01*
X23690475Y-67054819D02*
X23357142Y-67769104D01*
X23357142Y-67769104D02*
X23023809Y-67054819D01*
X23023809Y-67054819D02*
X23023809Y-68054819D01*
X22547618Y-68054819D02*
X22547618Y-67054819D01*
X22547618Y-67054819D02*
X22214285Y-67769104D01*
X22214285Y-67769104D02*
X21880952Y-67054819D01*
X21880952Y-67054819D02*
X21880952Y-68054819D01*
X21071428Y-67531009D02*
X20928571Y-67578628D01*
X20928571Y-67578628D02*
X20880952Y-67626247D01*
X20880952Y-67626247D02*
X20833333Y-67721485D01*
X20833333Y-67721485D02*
X20833333Y-67864342D01*
X20833333Y-67864342D02*
X20880952Y-67959580D01*
X20880952Y-67959580D02*
X20928571Y-68007200D01*
X20928571Y-68007200D02*
X21023809Y-68054819D01*
X21023809Y-68054819D02*
X21404761Y-68054819D01*
X21404761Y-68054819D02*
X21404761Y-67054819D01*
X21404761Y-67054819D02*
X21071428Y-67054819D01*
X21071428Y-67054819D02*
X20976190Y-67102438D01*
X20976190Y-67102438D02*
X20928571Y-67150057D01*
X20928571Y-67150057D02*
X20880952Y-67245295D01*
X20880952Y-67245295D02*
X20880952Y-67340533D01*
X20880952Y-67340533D02*
X20928571Y-67435771D01*
X20928571Y-67435771D02*
X20976190Y-67483390D01*
X20976190Y-67483390D02*
X21071428Y-67531009D01*
X21071428Y-67531009D02*
X21404761Y-67531009D01*
X20547618Y-67054819D02*
X19976190Y-67054819D01*
X20261904Y-68054819D02*
X20261904Y-67054819D01*
X19738094Y-67054819D02*
X19119047Y-67054819D01*
X19119047Y-67054819D02*
X19452380Y-67435771D01*
X19452380Y-67435771D02*
X19309523Y-67435771D01*
X19309523Y-67435771D02*
X19214285Y-67483390D01*
X19214285Y-67483390D02*
X19166666Y-67531009D01*
X19166666Y-67531009D02*
X19119047Y-67626247D01*
X19119047Y-67626247D02*
X19119047Y-67864342D01*
X19119047Y-67864342D02*
X19166666Y-67959580D01*
X19166666Y-67959580D02*
X19214285Y-68007200D01*
X19214285Y-68007200D02*
X19309523Y-68054819D01*
X19309523Y-68054819D02*
X19595237Y-68054819D01*
X19595237Y-68054819D02*
X19690475Y-68007200D01*
X19690475Y-68007200D02*
X19738094Y-67959580D01*
X18642856Y-68054819D02*
X18452380Y-68054819D01*
X18452380Y-68054819D02*
X18357142Y-68007200D01*
X18357142Y-68007200D02*
X18309523Y-67959580D01*
X18309523Y-67959580D02*
X18214285Y-67816723D01*
X18214285Y-67816723D02*
X18166666Y-67626247D01*
X18166666Y-67626247D02*
X18166666Y-67245295D01*
X18166666Y-67245295D02*
X18214285Y-67150057D01*
X18214285Y-67150057D02*
X18261904Y-67102438D01*
X18261904Y-67102438D02*
X18357142Y-67054819D01*
X18357142Y-67054819D02*
X18547618Y-67054819D01*
X18547618Y-67054819D02*
X18642856Y-67102438D01*
X18642856Y-67102438D02*
X18690475Y-67150057D01*
X18690475Y-67150057D02*
X18738094Y-67245295D01*
X18738094Y-67245295D02*
X18738094Y-67483390D01*
X18738094Y-67483390D02*
X18690475Y-67578628D01*
X18690475Y-67578628D02*
X18642856Y-67626247D01*
X18642856Y-67626247D02*
X18547618Y-67673866D01*
X18547618Y-67673866D02*
X18357142Y-67673866D01*
X18357142Y-67673866D02*
X18261904Y-67626247D01*
X18261904Y-67626247D02*
X18214285Y-67578628D01*
X18214285Y-67578628D02*
X18166666Y-67483390D01*
X17547618Y-67054819D02*
X17452380Y-67054819D01*
X17452380Y-67054819D02*
X17357142Y-67102438D01*
X17357142Y-67102438D02*
X17309523Y-67150057D01*
X17309523Y-67150057D02*
X17261904Y-67245295D01*
X17261904Y-67245295D02*
X17214285Y-67435771D01*
X17214285Y-67435771D02*
X17214285Y-67673866D01*
X17214285Y-67673866D02*
X17261904Y-67864342D01*
X17261904Y-67864342D02*
X17309523Y-67959580D01*
X17309523Y-67959580D02*
X17357142Y-68007200D01*
X17357142Y-68007200D02*
X17452380Y-68054819D01*
X17452380Y-68054819D02*
X17547618Y-68054819D01*
X17547618Y-68054819D02*
X17642856Y-68007200D01*
X17642856Y-68007200D02*
X17690475Y-67959580D01*
X17690475Y-67959580D02*
X17738094Y-67864342D01*
X17738094Y-67864342D02*
X17785713Y-67673866D01*
X17785713Y-67673866D02*
X17785713Y-67435771D01*
X17785713Y-67435771D02*
X17738094Y-67245295D01*
X17738094Y-67245295D02*
X17690475Y-67150057D01*
X17690475Y-67150057D02*
X17642856Y-67102438D01*
X17642856Y-67102438D02*
X17547618Y-67054819D01*
X16357142Y-67388152D02*
X16357142Y-68054819D01*
X16595237Y-67007200D02*
X16833332Y-67721485D01*
X16833332Y-67721485D02*
X16214285Y-67721485D01*
D11*
X20395937Y-69931428D02*
X20361651Y-69862857D01*
X20361651Y-69862857D02*
X20293080Y-69794285D01*
X20293080Y-69794285D02*
X20190222Y-69691428D01*
X20190222Y-69691428D02*
X20155937Y-69622857D01*
X20155937Y-69622857D02*
X20155937Y-69554285D01*
X20327365Y-69588571D02*
X20293080Y-69520000D01*
X20293080Y-69520000D02*
X20224508Y-69451428D01*
X20224508Y-69451428D02*
X20087365Y-69417142D01*
X20087365Y-69417142D02*
X19847365Y-69417142D01*
X19847365Y-69417142D02*
X19710222Y-69451428D01*
X19710222Y-69451428D02*
X19641651Y-69520000D01*
X19641651Y-69520000D02*
X19607365Y-69588571D01*
X19607365Y-69588571D02*
X19607365Y-69725714D01*
X19607365Y-69725714D02*
X19641651Y-69794285D01*
X19641651Y-69794285D02*
X19710222Y-69862857D01*
X19710222Y-69862857D02*
X19847365Y-69897142D01*
X19847365Y-69897142D02*
X20087365Y-69897142D01*
X20087365Y-69897142D02*
X20224508Y-69862857D01*
X20224508Y-69862857D02*
X20293080Y-69794285D01*
X20293080Y-69794285D02*
X20327365Y-69725714D01*
X20327365Y-69725714D02*
X20327365Y-69588571D01*
X19847365Y-70514286D02*
X20327365Y-70514286D01*
X19573080Y-70342857D02*
X20087365Y-70171428D01*
X20087365Y-70171428D02*
X20087365Y-70617143D01*
D10*
X31547619Y-29774819D02*
X32119047Y-29774819D01*
X31833333Y-29774819D02*
X31833333Y-28774819D01*
X31833333Y-28774819D02*
X31928571Y-28917676D01*
X31928571Y-28917676D02*
X32023809Y-29012914D01*
X32023809Y-29012914D02*
X32119047Y-29060533D01*
X30928571Y-28774819D02*
X30833333Y-28774819D01*
X30833333Y-28774819D02*
X30738095Y-28822438D01*
X30738095Y-28822438D02*
X30690476Y-28870057D01*
X30690476Y-28870057D02*
X30642857Y-28965295D01*
X30642857Y-28965295D02*
X30595238Y-29155771D01*
X30595238Y-29155771D02*
X30595238Y-29393866D01*
X30595238Y-29393866D02*
X30642857Y-29584342D01*
X30642857Y-29584342D02*
X30690476Y-29679580D01*
X30690476Y-29679580D02*
X30738095Y-29727200D01*
X30738095Y-29727200D02*
X30833333Y-29774819D01*
X30833333Y-29774819D02*
X30928571Y-29774819D01*
X30928571Y-29774819D02*
X31023809Y-29727200D01*
X31023809Y-29727200D02*
X31071428Y-29679580D01*
X31071428Y-29679580D02*
X31119047Y-29584342D01*
X31119047Y-29584342D02*
X31166666Y-29393866D01*
X31166666Y-29393866D02*
X31166666Y-29155771D01*
X31166666Y-29155771D02*
X31119047Y-28965295D01*
X31119047Y-28965295D02*
X31071428Y-28870057D01*
X31071428Y-28870057D02*
X31023809Y-28822438D01*
X31023809Y-28822438D02*
X30928571Y-28774819D01*
X29976190Y-28774819D02*
X29880952Y-28774819D01*
X29880952Y-28774819D02*
X29785714Y-28822438D01*
X29785714Y-28822438D02*
X29738095Y-28870057D01*
X29738095Y-28870057D02*
X29690476Y-28965295D01*
X29690476Y-28965295D02*
X29642857Y-29155771D01*
X29642857Y-29155771D02*
X29642857Y-29393866D01*
X29642857Y-29393866D02*
X29690476Y-29584342D01*
X29690476Y-29584342D02*
X29738095Y-29679580D01*
X29738095Y-29679580D02*
X29785714Y-29727200D01*
X29785714Y-29727200D02*
X29880952Y-29774819D01*
X29880952Y-29774819D02*
X29976190Y-29774819D01*
X29976190Y-29774819D02*
X30071428Y-29727200D01*
X30071428Y-29727200D02*
X30119047Y-29679580D01*
X30119047Y-29679580D02*
X30166666Y-29584342D01*
X30166666Y-29584342D02*
X30214285Y-29393866D01*
X30214285Y-29393866D02*
X30214285Y-29155771D01*
X30214285Y-29155771D02*
X30166666Y-28965295D01*
X30166666Y-28965295D02*
X30119047Y-28870057D01*
X30119047Y-28870057D02*
X30071428Y-28822438D01*
X30071428Y-28822438D02*
X29976190Y-28774819D01*
X29214285Y-29108152D02*
X29214285Y-29774819D01*
X29214285Y-29203390D02*
X29166666Y-29155771D01*
X29166666Y-29155771D02*
X29071428Y-29108152D01*
X29071428Y-29108152D02*
X28928571Y-29108152D01*
X28928571Y-29108152D02*
X28833333Y-29155771D01*
X28833333Y-29155771D02*
X28785714Y-29251009D01*
X28785714Y-29251009D02*
X28785714Y-29774819D01*
X27976190Y-29251009D02*
X28309523Y-29251009D01*
X28309523Y-29774819D02*
X28309523Y-28774819D01*
X28309523Y-28774819D02*
X27833333Y-28774819D01*
D12*
X30083333Y-31179530D02*
X30107142Y-31203340D01*
X30107142Y-31203340D02*
X30178571Y-31227149D01*
X30178571Y-31227149D02*
X30226190Y-31227149D01*
X30226190Y-31227149D02*
X30297618Y-31203340D01*
X30297618Y-31203340D02*
X30345237Y-31155720D01*
X30345237Y-31155720D02*
X30369047Y-31108101D01*
X30369047Y-31108101D02*
X30392856Y-31012863D01*
X30392856Y-31012863D02*
X30392856Y-30941435D01*
X30392856Y-30941435D02*
X30369047Y-30846197D01*
X30369047Y-30846197D02*
X30345237Y-30798578D01*
X30345237Y-30798578D02*
X30297618Y-30750959D01*
X30297618Y-30750959D02*
X30226190Y-30727149D01*
X30226190Y-30727149D02*
X30178571Y-30727149D01*
X30178571Y-30727149D02*
X30107142Y-30750959D01*
X30107142Y-30750959D02*
X30083333Y-30774768D01*
X29892856Y-30774768D02*
X29869047Y-30750959D01*
X29869047Y-30750959D02*
X29821428Y-30727149D01*
X29821428Y-30727149D02*
X29702380Y-30727149D01*
X29702380Y-30727149D02*
X29654761Y-30750959D01*
X29654761Y-30750959D02*
X29630952Y-30774768D01*
X29630952Y-30774768D02*
X29607142Y-30822387D01*
X29607142Y-30822387D02*
X29607142Y-30870006D01*
X29607142Y-30870006D02*
X29630952Y-30941435D01*
X29630952Y-30941435D02*
X29916666Y-31227149D01*
X29916666Y-31227149D02*
X29607142Y-31227149D01*
D10*
X66928571Y-36138152D02*
X66928571Y-36804819D01*
X67166666Y-35757200D02*
X67404761Y-36471485D01*
X67404761Y-36471485D02*
X66785714Y-36471485D01*
X66404761Y-36709580D02*
X66357142Y-36757200D01*
X66357142Y-36757200D02*
X66404761Y-36804819D01*
X66404761Y-36804819D02*
X66452380Y-36757200D01*
X66452380Y-36757200D02*
X66404761Y-36709580D01*
X66404761Y-36709580D02*
X66404761Y-36804819D01*
X66023809Y-35804819D02*
X65357143Y-35804819D01*
X65357143Y-35804819D02*
X65785714Y-36804819D01*
X64976190Y-36804819D02*
X64976190Y-35804819D01*
X64880952Y-36423866D02*
X64595238Y-36804819D01*
X64595238Y-36138152D02*
X64976190Y-36519104D01*
D12*
X66321428Y-38227149D02*
X66488094Y-37989054D01*
X66607142Y-38227149D02*
X66607142Y-37727149D01*
X66607142Y-37727149D02*
X66416666Y-37727149D01*
X66416666Y-37727149D02*
X66369047Y-37750959D01*
X66369047Y-37750959D02*
X66345237Y-37774768D01*
X66345237Y-37774768D02*
X66321428Y-37822387D01*
X66321428Y-37822387D02*
X66321428Y-37893816D01*
X66321428Y-37893816D02*
X66345237Y-37941435D01*
X66345237Y-37941435D02*
X66369047Y-37965244D01*
X66369047Y-37965244D02*
X66416666Y-37989054D01*
X66416666Y-37989054D02*
X66607142Y-37989054D01*
X65845237Y-38227149D02*
X66130951Y-38227149D01*
X65988094Y-38227149D02*
X65988094Y-37727149D01*
X65988094Y-37727149D02*
X66035713Y-37798578D01*
X66035713Y-37798578D02*
X66083332Y-37846197D01*
X66083332Y-37846197D02*
X66130951Y-37870006D01*
X65369047Y-38227149D02*
X65654761Y-38227149D01*
X65511904Y-38227149D02*
X65511904Y-37727149D01*
X65511904Y-37727149D02*
X65559523Y-37798578D01*
X65559523Y-37798578D02*
X65607142Y-37846197D01*
X65607142Y-37846197D02*
X65654761Y-37870006D01*
D10*
X34928571Y-48138152D02*
X34928571Y-48804819D01*
X35166666Y-47757200D02*
X35404761Y-48471485D01*
X35404761Y-48471485D02*
X34785714Y-48471485D01*
X34404761Y-48709580D02*
X34357142Y-48757200D01*
X34357142Y-48757200D02*
X34404761Y-48804819D01*
X34404761Y-48804819D02*
X34452380Y-48757200D01*
X34452380Y-48757200D02*
X34404761Y-48709580D01*
X34404761Y-48709580D02*
X34404761Y-48804819D01*
X34023809Y-47804819D02*
X33357143Y-47804819D01*
X33357143Y-47804819D02*
X33785714Y-48804819D01*
X32976190Y-48804819D02*
X32976190Y-47804819D01*
X32880952Y-48423866D02*
X32595238Y-48804819D01*
X32595238Y-48138152D02*
X32976190Y-48519104D01*
D12*
X34083333Y-50227149D02*
X34249999Y-49989054D01*
X34369047Y-50227149D02*
X34369047Y-49727149D01*
X34369047Y-49727149D02*
X34178571Y-49727149D01*
X34178571Y-49727149D02*
X34130952Y-49750959D01*
X34130952Y-49750959D02*
X34107142Y-49774768D01*
X34107142Y-49774768D02*
X34083333Y-49822387D01*
X34083333Y-49822387D02*
X34083333Y-49893816D01*
X34083333Y-49893816D02*
X34107142Y-49941435D01*
X34107142Y-49941435D02*
X34130952Y-49965244D01*
X34130952Y-49965244D02*
X34178571Y-49989054D01*
X34178571Y-49989054D02*
X34369047Y-49989054D01*
X33797618Y-49941435D02*
X33845237Y-49917625D01*
X33845237Y-49917625D02*
X33869047Y-49893816D01*
X33869047Y-49893816D02*
X33892856Y-49846197D01*
X33892856Y-49846197D02*
X33892856Y-49822387D01*
X33892856Y-49822387D02*
X33869047Y-49774768D01*
X33869047Y-49774768D02*
X33845237Y-49750959D01*
X33845237Y-49750959D02*
X33797618Y-49727149D01*
X33797618Y-49727149D02*
X33702380Y-49727149D01*
X33702380Y-49727149D02*
X33654761Y-49750959D01*
X33654761Y-49750959D02*
X33630952Y-49774768D01*
X33630952Y-49774768D02*
X33607142Y-49822387D01*
X33607142Y-49822387D02*
X33607142Y-49846197D01*
X33607142Y-49846197D02*
X33630952Y-49893816D01*
X33630952Y-49893816D02*
X33654761Y-49917625D01*
X33654761Y-49917625D02*
X33702380Y-49941435D01*
X33702380Y-49941435D02*
X33797618Y-49941435D01*
X33797618Y-49941435D02*
X33845237Y-49965244D01*
X33845237Y-49965244D02*
X33869047Y-49989054D01*
X33869047Y-49989054D02*
X33892856Y-50036673D01*
X33892856Y-50036673D02*
X33892856Y-50131911D01*
X33892856Y-50131911D02*
X33869047Y-50179530D01*
X33869047Y-50179530D02*
X33845237Y-50203340D01*
X33845237Y-50203340D02*
X33797618Y-50227149D01*
X33797618Y-50227149D02*
X33702380Y-50227149D01*
X33702380Y-50227149D02*
X33654761Y-50203340D01*
X33654761Y-50203340D02*
X33630952Y-50179530D01*
X33630952Y-50179530D02*
X33607142Y-50131911D01*
X33607142Y-50131911D02*
X33607142Y-50036673D01*
X33607142Y-50036673D02*
X33630952Y-49989054D01*
X33630952Y-49989054D02*
X33654761Y-49965244D01*
X33654761Y-49965244D02*
X33702380Y-49941435D01*
D10*
X31547619Y-21774819D02*
X32119047Y-21774819D01*
X31833333Y-21774819D02*
X31833333Y-20774819D01*
X31833333Y-20774819D02*
X31928571Y-20917676D01*
X31928571Y-20917676D02*
X32023809Y-21012914D01*
X32023809Y-21012914D02*
X32119047Y-21060533D01*
X30928571Y-20774819D02*
X30833333Y-20774819D01*
X30833333Y-20774819D02*
X30738095Y-20822438D01*
X30738095Y-20822438D02*
X30690476Y-20870057D01*
X30690476Y-20870057D02*
X30642857Y-20965295D01*
X30642857Y-20965295D02*
X30595238Y-21155771D01*
X30595238Y-21155771D02*
X30595238Y-21393866D01*
X30595238Y-21393866D02*
X30642857Y-21584342D01*
X30642857Y-21584342D02*
X30690476Y-21679580D01*
X30690476Y-21679580D02*
X30738095Y-21727200D01*
X30738095Y-21727200D02*
X30833333Y-21774819D01*
X30833333Y-21774819D02*
X30928571Y-21774819D01*
X30928571Y-21774819D02*
X31023809Y-21727200D01*
X31023809Y-21727200D02*
X31071428Y-21679580D01*
X31071428Y-21679580D02*
X31119047Y-21584342D01*
X31119047Y-21584342D02*
X31166666Y-21393866D01*
X31166666Y-21393866D02*
X31166666Y-21155771D01*
X31166666Y-21155771D02*
X31119047Y-20965295D01*
X31119047Y-20965295D02*
X31071428Y-20870057D01*
X31071428Y-20870057D02*
X31023809Y-20822438D01*
X31023809Y-20822438D02*
X30928571Y-20774819D01*
X29976190Y-20774819D02*
X29880952Y-20774819D01*
X29880952Y-20774819D02*
X29785714Y-20822438D01*
X29785714Y-20822438D02*
X29738095Y-20870057D01*
X29738095Y-20870057D02*
X29690476Y-20965295D01*
X29690476Y-20965295D02*
X29642857Y-21155771D01*
X29642857Y-21155771D02*
X29642857Y-21393866D01*
X29642857Y-21393866D02*
X29690476Y-21584342D01*
X29690476Y-21584342D02*
X29738095Y-21679580D01*
X29738095Y-21679580D02*
X29785714Y-21727200D01*
X29785714Y-21727200D02*
X29880952Y-21774819D01*
X29880952Y-21774819D02*
X29976190Y-21774819D01*
X29976190Y-21774819D02*
X30071428Y-21727200D01*
X30071428Y-21727200D02*
X30119047Y-21679580D01*
X30119047Y-21679580D02*
X30166666Y-21584342D01*
X30166666Y-21584342D02*
X30214285Y-21393866D01*
X30214285Y-21393866D02*
X30214285Y-21155771D01*
X30214285Y-21155771D02*
X30166666Y-20965295D01*
X30166666Y-20965295D02*
X30119047Y-20870057D01*
X30119047Y-20870057D02*
X30071428Y-20822438D01*
X30071428Y-20822438D02*
X29976190Y-20774819D01*
X29214285Y-21108152D02*
X29214285Y-21774819D01*
X29214285Y-21203390D02*
X29166666Y-21155771D01*
X29166666Y-21155771D02*
X29071428Y-21108152D01*
X29071428Y-21108152D02*
X28928571Y-21108152D01*
X28928571Y-21108152D02*
X28833333Y-21155771D01*
X28833333Y-21155771D02*
X28785714Y-21251009D01*
X28785714Y-21251009D02*
X28785714Y-21774819D01*
X27976190Y-21251009D02*
X28309523Y-21251009D01*
X28309523Y-21774819D02*
X28309523Y-20774819D01*
X28309523Y-20774819D02*
X27833333Y-20774819D01*
D12*
X30083333Y-23179530D02*
X30107142Y-23203340D01*
X30107142Y-23203340D02*
X30178571Y-23227149D01*
X30178571Y-23227149D02*
X30226190Y-23227149D01*
X30226190Y-23227149D02*
X30297618Y-23203340D01*
X30297618Y-23203340D02*
X30345237Y-23155720D01*
X30345237Y-23155720D02*
X30369047Y-23108101D01*
X30369047Y-23108101D02*
X30392856Y-23012863D01*
X30392856Y-23012863D02*
X30392856Y-22941435D01*
X30392856Y-22941435D02*
X30369047Y-22846197D01*
X30369047Y-22846197D02*
X30345237Y-22798578D01*
X30345237Y-22798578D02*
X30297618Y-22750959D01*
X30297618Y-22750959D02*
X30226190Y-22727149D01*
X30226190Y-22727149D02*
X30178571Y-22727149D01*
X30178571Y-22727149D02*
X30107142Y-22750959D01*
X30107142Y-22750959D02*
X30083333Y-22774768D01*
X29607142Y-23227149D02*
X29892856Y-23227149D01*
X29749999Y-23227149D02*
X29749999Y-22727149D01*
X29749999Y-22727149D02*
X29797618Y-22798578D01*
X29797618Y-22798578D02*
X29845237Y-22846197D01*
X29845237Y-22846197D02*
X29892856Y-22870006D01*
D10*
X34880952Y-55104819D02*
X34880952Y-54104819D01*
X34880952Y-54104819D02*
X34500000Y-54104819D01*
X34500000Y-54104819D02*
X34404762Y-54152438D01*
X34404762Y-54152438D02*
X34357143Y-54200057D01*
X34357143Y-54200057D02*
X34309524Y-54295295D01*
X34309524Y-54295295D02*
X34309524Y-54438152D01*
X34309524Y-54438152D02*
X34357143Y-54533390D01*
X34357143Y-54533390D02*
X34404762Y-54581009D01*
X34404762Y-54581009D02*
X34500000Y-54628628D01*
X34500000Y-54628628D02*
X34880952Y-54628628D01*
X33880952Y-54581009D02*
X33547619Y-54581009D01*
X33404762Y-55104819D02*
X33880952Y-55104819D01*
X33880952Y-55104819D02*
X33880952Y-54104819D01*
X33880952Y-54104819D02*
X33404762Y-54104819D01*
X33023809Y-55057200D02*
X32880952Y-55104819D01*
X32880952Y-55104819D02*
X32642857Y-55104819D01*
X32642857Y-55104819D02*
X32547619Y-55057200D01*
X32547619Y-55057200D02*
X32500000Y-55009580D01*
X32500000Y-55009580D02*
X32452381Y-54914342D01*
X32452381Y-54914342D02*
X32452381Y-54819104D01*
X32452381Y-54819104D02*
X32500000Y-54723866D01*
X32500000Y-54723866D02*
X32547619Y-54676247D01*
X32547619Y-54676247D02*
X32642857Y-54628628D01*
X32642857Y-54628628D02*
X32833333Y-54581009D01*
X32833333Y-54581009D02*
X32928571Y-54533390D01*
X32928571Y-54533390D02*
X32976190Y-54485771D01*
X32976190Y-54485771D02*
X33023809Y-54390533D01*
X33023809Y-54390533D02*
X33023809Y-54295295D01*
X33023809Y-54295295D02*
X32976190Y-54200057D01*
X32976190Y-54200057D02*
X32928571Y-54152438D01*
X32928571Y-54152438D02*
X32833333Y-54104819D01*
X32833333Y-54104819D02*
X32595238Y-54104819D01*
X32595238Y-54104819D02*
X32452381Y-54152438D01*
X32023809Y-55104819D02*
X32023809Y-54104819D01*
X32023809Y-54104819D02*
X31785714Y-54104819D01*
X31785714Y-54104819D02*
X31642857Y-54152438D01*
X31642857Y-54152438D02*
X31547619Y-54247676D01*
X31547619Y-54247676D02*
X31500000Y-54342914D01*
X31500000Y-54342914D02*
X31452381Y-54533390D01*
X31452381Y-54533390D02*
X31452381Y-54676247D01*
X31452381Y-54676247D02*
X31500000Y-54866723D01*
X31500000Y-54866723D02*
X31547619Y-54961961D01*
X31547619Y-54961961D02*
X31642857Y-55057200D01*
X31642857Y-55057200D02*
X31785714Y-55104819D01*
X31785714Y-55104819D02*
X32023809Y-55104819D01*
X30547619Y-54104819D02*
X31023809Y-54104819D01*
X31023809Y-54104819D02*
X31071428Y-54581009D01*
X31071428Y-54581009D02*
X31023809Y-54533390D01*
X31023809Y-54533390D02*
X30928571Y-54485771D01*
X30928571Y-54485771D02*
X30690476Y-54485771D01*
X30690476Y-54485771D02*
X30595238Y-54533390D01*
X30595238Y-54533390D02*
X30547619Y-54581009D01*
X30547619Y-54581009D02*
X30500000Y-54676247D01*
X30500000Y-54676247D02*
X30500000Y-54914342D01*
X30500000Y-54914342D02*
X30547619Y-55009580D01*
X30547619Y-55009580D02*
X30595238Y-55057200D01*
X30595238Y-55057200D02*
X30690476Y-55104819D01*
X30690476Y-55104819D02*
X30928571Y-55104819D01*
X30928571Y-55104819D02*
X31023809Y-55057200D01*
X31023809Y-55057200D02*
X31071428Y-55009580D01*
X30214285Y-54104819D02*
X29880952Y-55104819D01*
X29880952Y-55104819D02*
X29547619Y-54104819D01*
X29023809Y-54104819D02*
X28928571Y-54104819D01*
X28928571Y-54104819D02*
X28833333Y-54152438D01*
X28833333Y-54152438D02*
X28785714Y-54200057D01*
X28785714Y-54200057D02*
X28738095Y-54295295D01*
X28738095Y-54295295D02*
X28690476Y-54485771D01*
X28690476Y-54485771D02*
X28690476Y-54723866D01*
X28690476Y-54723866D02*
X28738095Y-54914342D01*
X28738095Y-54914342D02*
X28785714Y-55009580D01*
X28785714Y-55009580D02*
X28833333Y-55057200D01*
X28833333Y-55057200D02*
X28928571Y-55104819D01*
X28928571Y-55104819D02*
X29023809Y-55104819D01*
X29023809Y-55104819D02*
X29119047Y-55057200D01*
X29119047Y-55057200D02*
X29166666Y-55009580D01*
X29166666Y-55009580D02*
X29214285Y-54914342D01*
X29214285Y-54914342D02*
X29261904Y-54723866D01*
X29261904Y-54723866D02*
X29261904Y-54485771D01*
X29261904Y-54485771D02*
X29214285Y-54295295D01*
X29214285Y-54295295D02*
X29166666Y-54200057D01*
X29166666Y-54200057D02*
X29119047Y-54152438D01*
X29119047Y-54152438D02*
X29023809Y-54104819D01*
X27785714Y-55104819D02*
X28261904Y-55104819D01*
X28261904Y-55104819D02*
X28261904Y-54104819D01*
X26928571Y-55104819D02*
X27499999Y-55104819D01*
X27214285Y-55104819D02*
X27214285Y-54104819D01*
X27214285Y-54104819D02*
X27309523Y-54247676D01*
X27309523Y-54247676D02*
X27404761Y-54342914D01*
X27404761Y-54342914D02*
X27499999Y-54390533D01*
X26499999Y-54104819D02*
X26499999Y-54914342D01*
X26499999Y-54914342D02*
X26452380Y-55009580D01*
X26452380Y-55009580D02*
X26404761Y-55057200D01*
X26404761Y-55057200D02*
X26309523Y-55104819D01*
X26309523Y-55104819D02*
X26119047Y-55104819D01*
X26119047Y-55104819D02*
X26023809Y-55057200D01*
X26023809Y-55057200D02*
X25976190Y-55009580D01*
X25976190Y-55009580D02*
X25928571Y-54914342D01*
X25928571Y-54914342D02*
X25928571Y-54104819D01*
X24976190Y-55104819D02*
X25452380Y-55104819D01*
X25452380Y-55104819D02*
X25452380Y-54104819D01*
X30611094Y-57804819D02*
X30611094Y-56804819D01*
X30611094Y-56804819D02*
X30372999Y-56804819D01*
X30372999Y-56804819D02*
X30230142Y-56852438D01*
X30230142Y-56852438D02*
X30134904Y-56947676D01*
X30134904Y-56947676D02*
X30087285Y-57042914D01*
X30087285Y-57042914D02*
X30039666Y-57233390D01*
X30039666Y-57233390D02*
X30039666Y-57376247D01*
X30039666Y-57376247D02*
X30087285Y-57566723D01*
X30087285Y-57566723D02*
X30134904Y-57661961D01*
X30134904Y-57661961D02*
X30230142Y-57757200D01*
X30230142Y-57757200D02*
X30372999Y-57804819D01*
X30372999Y-57804819D02*
X30611094Y-57804819D01*
X29134904Y-56804819D02*
X29611094Y-56804819D01*
X29611094Y-56804819D02*
X29658713Y-57281009D01*
X29658713Y-57281009D02*
X29611094Y-57233390D01*
X29611094Y-57233390D02*
X29515856Y-57185771D01*
X29515856Y-57185771D02*
X29277761Y-57185771D01*
X29277761Y-57185771D02*
X29182523Y-57233390D01*
X29182523Y-57233390D02*
X29134904Y-57281009D01*
X29134904Y-57281009D02*
X29087285Y-57376247D01*
X29087285Y-57376247D02*
X29087285Y-57614342D01*
X29087285Y-57614342D02*
X29134904Y-57709580D01*
X29134904Y-57709580D02*
X29182523Y-57757200D01*
X29182523Y-57757200D02*
X29277761Y-57804819D01*
X29277761Y-57804819D02*
X29515856Y-57804819D01*
X29515856Y-57804819D02*
X29611094Y-57757200D01*
X29611094Y-57757200D02*
X29658713Y-57709580D01*
X59547619Y-42774819D02*
X60119047Y-42774819D01*
X59833333Y-42774819D02*
X59833333Y-41774819D01*
X59833333Y-41774819D02*
X59928571Y-41917676D01*
X59928571Y-41917676D02*
X60023809Y-42012914D01*
X60023809Y-42012914D02*
X60119047Y-42060533D01*
X58928571Y-41774819D02*
X58833333Y-41774819D01*
X58833333Y-41774819D02*
X58738095Y-41822438D01*
X58738095Y-41822438D02*
X58690476Y-41870057D01*
X58690476Y-41870057D02*
X58642857Y-41965295D01*
X58642857Y-41965295D02*
X58595238Y-42155771D01*
X58595238Y-42155771D02*
X58595238Y-42393866D01*
X58595238Y-42393866D02*
X58642857Y-42584342D01*
X58642857Y-42584342D02*
X58690476Y-42679580D01*
X58690476Y-42679580D02*
X58738095Y-42727200D01*
X58738095Y-42727200D02*
X58833333Y-42774819D01*
X58833333Y-42774819D02*
X58928571Y-42774819D01*
X58928571Y-42774819D02*
X59023809Y-42727200D01*
X59023809Y-42727200D02*
X59071428Y-42679580D01*
X59071428Y-42679580D02*
X59119047Y-42584342D01*
X59119047Y-42584342D02*
X59166666Y-42393866D01*
X59166666Y-42393866D02*
X59166666Y-42155771D01*
X59166666Y-42155771D02*
X59119047Y-41965295D01*
X59119047Y-41965295D02*
X59071428Y-41870057D01*
X59071428Y-41870057D02*
X59023809Y-41822438D01*
X59023809Y-41822438D02*
X58928571Y-41774819D01*
X57976190Y-41774819D02*
X57880952Y-41774819D01*
X57880952Y-41774819D02*
X57785714Y-41822438D01*
X57785714Y-41822438D02*
X57738095Y-41870057D01*
X57738095Y-41870057D02*
X57690476Y-41965295D01*
X57690476Y-41965295D02*
X57642857Y-42155771D01*
X57642857Y-42155771D02*
X57642857Y-42393866D01*
X57642857Y-42393866D02*
X57690476Y-42584342D01*
X57690476Y-42584342D02*
X57738095Y-42679580D01*
X57738095Y-42679580D02*
X57785714Y-42727200D01*
X57785714Y-42727200D02*
X57880952Y-42774819D01*
X57880952Y-42774819D02*
X57976190Y-42774819D01*
X57976190Y-42774819D02*
X58071428Y-42727200D01*
X58071428Y-42727200D02*
X58119047Y-42679580D01*
X58119047Y-42679580D02*
X58166666Y-42584342D01*
X58166666Y-42584342D02*
X58214285Y-42393866D01*
X58214285Y-42393866D02*
X58214285Y-42155771D01*
X58214285Y-42155771D02*
X58166666Y-41965295D01*
X58166666Y-41965295D02*
X58119047Y-41870057D01*
X58119047Y-41870057D02*
X58071428Y-41822438D01*
X58071428Y-41822438D02*
X57976190Y-41774819D01*
X57214285Y-42108152D02*
X57214285Y-42774819D01*
X57214285Y-42203390D02*
X57166666Y-42155771D01*
X57166666Y-42155771D02*
X57071428Y-42108152D01*
X57071428Y-42108152D02*
X56928571Y-42108152D01*
X56928571Y-42108152D02*
X56833333Y-42155771D01*
X56833333Y-42155771D02*
X56785714Y-42251009D01*
X56785714Y-42251009D02*
X56785714Y-42774819D01*
X55976190Y-42251009D02*
X56309523Y-42251009D01*
X56309523Y-42774819D02*
X56309523Y-41774819D01*
X56309523Y-41774819D02*
X55833333Y-41774819D01*
D12*
X58321428Y-44179530D02*
X58345237Y-44203340D01*
X58345237Y-44203340D02*
X58416666Y-44227149D01*
X58416666Y-44227149D02*
X58464285Y-44227149D01*
X58464285Y-44227149D02*
X58535713Y-44203340D01*
X58535713Y-44203340D02*
X58583332Y-44155720D01*
X58583332Y-44155720D02*
X58607142Y-44108101D01*
X58607142Y-44108101D02*
X58630951Y-44012863D01*
X58630951Y-44012863D02*
X58630951Y-43941435D01*
X58630951Y-43941435D02*
X58607142Y-43846197D01*
X58607142Y-43846197D02*
X58583332Y-43798578D01*
X58583332Y-43798578D02*
X58535713Y-43750959D01*
X58535713Y-43750959D02*
X58464285Y-43727149D01*
X58464285Y-43727149D02*
X58416666Y-43727149D01*
X58416666Y-43727149D02*
X58345237Y-43750959D01*
X58345237Y-43750959D02*
X58321428Y-43774768D01*
X57845237Y-44227149D02*
X58130951Y-44227149D01*
X57988094Y-44227149D02*
X57988094Y-43727149D01*
X57988094Y-43727149D02*
X58035713Y-43798578D01*
X58035713Y-43798578D02*
X58083332Y-43846197D01*
X58083332Y-43846197D02*
X58130951Y-43870006D01*
X57535714Y-43727149D02*
X57488095Y-43727149D01*
X57488095Y-43727149D02*
X57440476Y-43750959D01*
X57440476Y-43750959D02*
X57416666Y-43774768D01*
X57416666Y-43774768D02*
X57392857Y-43822387D01*
X57392857Y-43822387D02*
X57369047Y-43917625D01*
X57369047Y-43917625D02*
X57369047Y-44036673D01*
X57369047Y-44036673D02*
X57392857Y-44131911D01*
X57392857Y-44131911D02*
X57416666Y-44179530D01*
X57416666Y-44179530D02*
X57440476Y-44203340D01*
X57440476Y-44203340D02*
X57488095Y-44227149D01*
X57488095Y-44227149D02*
X57535714Y-44227149D01*
X57535714Y-44227149D02*
X57583333Y-44203340D01*
X57583333Y-44203340D02*
X57607142Y-44179530D01*
X57607142Y-44179530D02*
X57630952Y-44131911D01*
X57630952Y-44131911D02*
X57654761Y-44036673D01*
X57654761Y-44036673D02*
X57654761Y-43917625D01*
X57654761Y-43917625D02*
X57630952Y-43822387D01*
X57630952Y-43822387D02*
X57607142Y-43774768D01*
X57607142Y-43774768D02*
X57583333Y-43750959D01*
X57583333Y-43750959D02*
X57535714Y-43727149D01*
D10*
X25690475Y-29054819D02*
X25690475Y-28054819D01*
X25690475Y-28054819D02*
X25357142Y-28769104D01*
X25357142Y-28769104D02*
X25023809Y-28054819D01*
X25023809Y-28054819D02*
X25023809Y-29054819D01*
X24547618Y-29054819D02*
X24547618Y-28054819D01*
X24547618Y-28054819D02*
X24214285Y-28769104D01*
X24214285Y-28769104D02*
X23880952Y-28054819D01*
X23880952Y-28054819D02*
X23880952Y-29054819D01*
X23071428Y-28531009D02*
X22928571Y-28578628D01*
X22928571Y-28578628D02*
X22880952Y-28626247D01*
X22880952Y-28626247D02*
X22833333Y-28721485D01*
X22833333Y-28721485D02*
X22833333Y-28864342D01*
X22833333Y-28864342D02*
X22880952Y-28959580D01*
X22880952Y-28959580D02*
X22928571Y-29007200D01*
X22928571Y-29007200D02*
X23023809Y-29054819D01*
X23023809Y-29054819D02*
X23404761Y-29054819D01*
X23404761Y-29054819D02*
X23404761Y-28054819D01*
X23404761Y-28054819D02*
X23071428Y-28054819D01*
X23071428Y-28054819D02*
X22976190Y-28102438D01*
X22976190Y-28102438D02*
X22928571Y-28150057D01*
X22928571Y-28150057D02*
X22880952Y-28245295D01*
X22880952Y-28245295D02*
X22880952Y-28340533D01*
X22880952Y-28340533D02*
X22928571Y-28435771D01*
X22928571Y-28435771D02*
X22976190Y-28483390D01*
X22976190Y-28483390D02*
X23071428Y-28531009D01*
X23071428Y-28531009D02*
X23404761Y-28531009D01*
X22547618Y-28054819D02*
X21976190Y-28054819D01*
X22261904Y-29054819D02*
X22261904Y-28054819D01*
X21738094Y-28054819D02*
X21119047Y-28054819D01*
X21119047Y-28054819D02*
X21452380Y-28435771D01*
X21452380Y-28435771D02*
X21309523Y-28435771D01*
X21309523Y-28435771D02*
X21214285Y-28483390D01*
X21214285Y-28483390D02*
X21166666Y-28531009D01*
X21166666Y-28531009D02*
X21119047Y-28626247D01*
X21119047Y-28626247D02*
X21119047Y-28864342D01*
X21119047Y-28864342D02*
X21166666Y-28959580D01*
X21166666Y-28959580D02*
X21214285Y-29007200D01*
X21214285Y-29007200D02*
X21309523Y-29054819D01*
X21309523Y-29054819D02*
X21595237Y-29054819D01*
X21595237Y-29054819D02*
X21690475Y-29007200D01*
X21690475Y-29007200D02*
X21738094Y-28959580D01*
X20642856Y-29054819D02*
X20452380Y-29054819D01*
X20452380Y-29054819D02*
X20357142Y-29007200D01*
X20357142Y-29007200D02*
X20309523Y-28959580D01*
X20309523Y-28959580D02*
X20214285Y-28816723D01*
X20214285Y-28816723D02*
X20166666Y-28626247D01*
X20166666Y-28626247D02*
X20166666Y-28245295D01*
X20166666Y-28245295D02*
X20214285Y-28150057D01*
X20214285Y-28150057D02*
X20261904Y-28102438D01*
X20261904Y-28102438D02*
X20357142Y-28054819D01*
X20357142Y-28054819D02*
X20547618Y-28054819D01*
X20547618Y-28054819D02*
X20642856Y-28102438D01*
X20642856Y-28102438D02*
X20690475Y-28150057D01*
X20690475Y-28150057D02*
X20738094Y-28245295D01*
X20738094Y-28245295D02*
X20738094Y-28483390D01*
X20738094Y-28483390D02*
X20690475Y-28578628D01*
X20690475Y-28578628D02*
X20642856Y-28626247D01*
X20642856Y-28626247D02*
X20547618Y-28673866D01*
X20547618Y-28673866D02*
X20357142Y-28673866D01*
X20357142Y-28673866D02*
X20261904Y-28626247D01*
X20261904Y-28626247D02*
X20214285Y-28578628D01*
X20214285Y-28578628D02*
X20166666Y-28483390D01*
X19547618Y-28054819D02*
X19452380Y-28054819D01*
X19452380Y-28054819D02*
X19357142Y-28102438D01*
X19357142Y-28102438D02*
X19309523Y-28150057D01*
X19309523Y-28150057D02*
X19261904Y-28245295D01*
X19261904Y-28245295D02*
X19214285Y-28435771D01*
X19214285Y-28435771D02*
X19214285Y-28673866D01*
X19214285Y-28673866D02*
X19261904Y-28864342D01*
X19261904Y-28864342D02*
X19309523Y-28959580D01*
X19309523Y-28959580D02*
X19357142Y-29007200D01*
X19357142Y-29007200D02*
X19452380Y-29054819D01*
X19452380Y-29054819D02*
X19547618Y-29054819D01*
X19547618Y-29054819D02*
X19642856Y-29007200D01*
X19642856Y-29007200D02*
X19690475Y-28959580D01*
X19690475Y-28959580D02*
X19738094Y-28864342D01*
X19738094Y-28864342D02*
X19785713Y-28673866D01*
X19785713Y-28673866D02*
X19785713Y-28435771D01*
X19785713Y-28435771D02*
X19738094Y-28245295D01*
X19738094Y-28245295D02*
X19690475Y-28150057D01*
X19690475Y-28150057D02*
X19642856Y-28102438D01*
X19642856Y-28102438D02*
X19547618Y-28054819D01*
X18357142Y-28388152D02*
X18357142Y-29054819D01*
X18595237Y-28007200D02*
X18833332Y-28721485D01*
X18833332Y-28721485D02*
X18214285Y-28721485D01*
D11*
X22395937Y-30931428D02*
X22361651Y-30862857D01*
X22361651Y-30862857D02*
X22293080Y-30794285D01*
X22293080Y-30794285D02*
X22190222Y-30691428D01*
X22190222Y-30691428D02*
X22155937Y-30622857D01*
X22155937Y-30622857D02*
X22155937Y-30554285D01*
X22327365Y-30588571D02*
X22293080Y-30520000D01*
X22293080Y-30520000D02*
X22224508Y-30451428D01*
X22224508Y-30451428D02*
X22087365Y-30417142D01*
X22087365Y-30417142D02*
X21847365Y-30417142D01*
X21847365Y-30417142D02*
X21710222Y-30451428D01*
X21710222Y-30451428D02*
X21641651Y-30520000D01*
X21641651Y-30520000D02*
X21607365Y-30588571D01*
X21607365Y-30588571D02*
X21607365Y-30725714D01*
X21607365Y-30725714D02*
X21641651Y-30794285D01*
X21641651Y-30794285D02*
X21710222Y-30862857D01*
X21710222Y-30862857D02*
X21847365Y-30897142D01*
X21847365Y-30897142D02*
X22087365Y-30897142D01*
X22087365Y-30897142D02*
X22224508Y-30862857D01*
X22224508Y-30862857D02*
X22293080Y-30794285D01*
X22293080Y-30794285D02*
X22327365Y-30725714D01*
X22327365Y-30725714D02*
X22327365Y-30588571D01*
X21675937Y-31171428D02*
X21641651Y-31205714D01*
X21641651Y-31205714D02*
X21607365Y-31274286D01*
X21607365Y-31274286D02*
X21607365Y-31445714D01*
X21607365Y-31445714D02*
X21641651Y-31514286D01*
X21641651Y-31514286D02*
X21675937Y-31548571D01*
X21675937Y-31548571D02*
X21744508Y-31582857D01*
X21744508Y-31582857D02*
X21813080Y-31582857D01*
X21813080Y-31582857D02*
X21915937Y-31548571D01*
X21915937Y-31548571D02*
X22327365Y-31137143D01*
X22327365Y-31137143D02*
X22327365Y-31582857D01*
D10*
X67547619Y-24774819D02*
X68119047Y-24774819D01*
X67833333Y-24774819D02*
X67833333Y-23774819D01*
X67833333Y-23774819D02*
X67928571Y-23917676D01*
X67928571Y-23917676D02*
X68023809Y-24012914D01*
X68023809Y-24012914D02*
X68119047Y-24060533D01*
X66928571Y-23774819D02*
X66833333Y-23774819D01*
X66833333Y-23774819D02*
X66738095Y-23822438D01*
X66738095Y-23822438D02*
X66690476Y-23870057D01*
X66690476Y-23870057D02*
X66642857Y-23965295D01*
X66642857Y-23965295D02*
X66595238Y-24155771D01*
X66595238Y-24155771D02*
X66595238Y-24393866D01*
X66595238Y-24393866D02*
X66642857Y-24584342D01*
X66642857Y-24584342D02*
X66690476Y-24679580D01*
X66690476Y-24679580D02*
X66738095Y-24727200D01*
X66738095Y-24727200D02*
X66833333Y-24774819D01*
X66833333Y-24774819D02*
X66928571Y-24774819D01*
X66928571Y-24774819D02*
X67023809Y-24727200D01*
X67023809Y-24727200D02*
X67071428Y-24679580D01*
X67071428Y-24679580D02*
X67119047Y-24584342D01*
X67119047Y-24584342D02*
X67166666Y-24393866D01*
X67166666Y-24393866D02*
X67166666Y-24155771D01*
X67166666Y-24155771D02*
X67119047Y-23965295D01*
X67119047Y-23965295D02*
X67071428Y-23870057D01*
X67071428Y-23870057D02*
X67023809Y-23822438D01*
X67023809Y-23822438D02*
X66928571Y-23774819D01*
X65976190Y-23774819D02*
X65880952Y-23774819D01*
X65880952Y-23774819D02*
X65785714Y-23822438D01*
X65785714Y-23822438D02*
X65738095Y-23870057D01*
X65738095Y-23870057D02*
X65690476Y-23965295D01*
X65690476Y-23965295D02*
X65642857Y-24155771D01*
X65642857Y-24155771D02*
X65642857Y-24393866D01*
X65642857Y-24393866D02*
X65690476Y-24584342D01*
X65690476Y-24584342D02*
X65738095Y-24679580D01*
X65738095Y-24679580D02*
X65785714Y-24727200D01*
X65785714Y-24727200D02*
X65880952Y-24774819D01*
X65880952Y-24774819D02*
X65976190Y-24774819D01*
X65976190Y-24774819D02*
X66071428Y-24727200D01*
X66071428Y-24727200D02*
X66119047Y-24679580D01*
X66119047Y-24679580D02*
X66166666Y-24584342D01*
X66166666Y-24584342D02*
X66214285Y-24393866D01*
X66214285Y-24393866D02*
X66214285Y-24155771D01*
X66214285Y-24155771D02*
X66166666Y-23965295D01*
X66166666Y-23965295D02*
X66119047Y-23870057D01*
X66119047Y-23870057D02*
X66071428Y-23822438D01*
X66071428Y-23822438D02*
X65976190Y-23774819D01*
X65214285Y-24108152D02*
X65214285Y-24774819D01*
X65214285Y-24203390D02*
X65166666Y-24155771D01*
X65166666Y-24155771D02*
X65071428Y-24108152D01*
X65071428Y-24108152D02*
X64928571Y-24108152D01*
X64928571Y-24108152D02*
X64833333Y-24155771D01*
X64833333Y-24155771D02*
X64785714Y-24251009D01*
X64785714Y-24251009D02*
X64785714Y-24774819D01*
X63976190Y-24251009D02*
X64309523Y-24251009D01*
X64309523Y-24774819D02*
X64309523Y-23774819D01*
X64309523Y-23774819D02*
X63833333Y-23774819D01*
D12*
X66321428Y-26179530D02*
X66345237Y-26203340D01*
X66345237Y-26203340D02*
X66416666Y-26227149D01*
X66416666Y-26227149D02*
X66464285Y-26227149D01*
X66464285Y-26227149D02*
X66535713Y-26203340D01*
X66535713Y-26203340D02*
X66583332Y-26155720D01*
X66583332Y-26155720D02*
X66607142Y-26108101D01*
X66607142Y-26108101D02*
X66630951Y-26012863D01*
X66630951Y-26012863D02*
X66630951Y-25941435D01*
X66630951Y-25941435D02*
X66607142Y-25846197D01*
X66607142Y-25846197D02*
X66583332Y-25798578D01*
X66583332Y-25798578D02*
X66535713Y-25750959D01*
X66535713Y-25750959D02*
X66464285Y-25727149D01*
X66464285Y-25727149D02*
X66416666Y-25727149D01*
X66416666Y-25727149D02*
X66345237Y-25750959D01*
X66345237Y-25750959D02*
X66321428Y-25774768D01*
X65845237Y-26227149D02*
X66130951Y-26227149D01*
X65988094Y-26227149D02*
X65988094Y-25727149D01*
X65988094Y-25727149D02*
X66035713Y-25798578D01*
X66035713Y-25798578D02*
X66083332Y-25846197D01*
X66083332Y-25846197D02*
X66130951Y-25870006D01*
X65369047Y-26227149D02*
X65654761Y-26227149D01*
X65511904Y-26227149D02*
X65511904Y-25727149D01*
X65511904Y-25727149D02*
X65559523Y-25798578D01*
X65559523Y-25798578D02*
X65607142Y-25846197D01*
X65607142Y-25846197D02*
X65654761Y-25870006D01*
D10*
X42928571Y-54138152D02*
X42928571Y-54804819D01*
X43166666Y-53757200D02*
X43404761Y-54471485D01*
X43404761Y-54471485D02*
X42785714Y-54471485D01*
X42404761Y-54709580D02*
X42357142Y-54757200D01*
X42357142Y-54757200D02*
X42404761Y-54804819D01*
X42404761Y-54804819D02*
X42452380Y-54757200D01*
X42452380Y-54757200D02*
X42404761Y-54709580D01*
X42404761Y-54709580D02*
X42404761Y-54804819D01*
X42023809Y-53804819D02*
X41357143Y-53804819D01*
X41357143Y-53804819D02*
X41785714Y-54804819D01*
X40976190Y-54804819D02*
X40976190Y-53804819D01*
X40880952Y-54423866D02*
X40595238Y-54804819D01*
X40595238Y-54138152D02*
X40976190Y-54519104D01*
D12*
X42321428Y-56227149D02*
X42488094Y-55989054D01*
X42607142Y-56227149D02*
X42607142Y-55727149D01*
X42607142Y-55727149D02*
X42416666Y-55727149D01*
X42416666Y-55727149D02*
X42369047Y-55750959D01*
X42369047Y-55750959D02*
X42345237Y-55774768D01*
X42345237Y-55774768D02*
X42321428Y-55822387D01*
X42321428Y-55822387D02*
X42321428Y-55893816D01*
X42321428Y-55893816D02*
X42345237Y-55941435D01*
X42345237Y-55941435D02*
X42369047Y-55965244D01*
X42369047Y-55965244D02*
X42416666Y-55989054D01*
X42416666Y-55989054D02*
X42607142Y-55989054D01*
X41845237Y-56227149D02*
X42130951Y-56227149D01*
X41988094Y-56227149D02*
X41988094Y-55727149D01*
X41988094Y-55727149D02*
X42035713Y-55798578D01*
X42035713Y-55798578D02*
X42083332Y-55846197D01*
X42083332Y-55846197D02*
X42130951Y-55870006D01*
X41416666Y-55893816D02*
X41416666Y-56227149D01*
X41535714Y-55703340D02*
X41654761Y-56060482D01*
X41654761Y-56060482D02*
X41345238Y-56060482D01*
D10*
X18119047Y-54804819D02*
X18690475Y-54804819D01*
X18404761Y-54804819D02*
X18404761Y-53804819D01*
X18404761Y-53804819D02*
X18499999Y-53947676D01*
X18499999Y-53947676D02*
X18595237Y-54042914D01*
X18595237Y-54042914D02*
X18690475Y-54090533D01*
X17690475Y-54804819D02*
X17690475Y-53804819D01*
X17595237Y-54423866D02*
X17309523Y-54804819D01*
X17309523Y-54138152D02*
X17690475Y-54519104D01*
D12*
X18321428Y-56227149D02*
X18488094Y-55989054D01*
X18607142Y-56227149D02*
X18607142Y-55727149D01*
X18607142Y-55727149D02*
X18416666Y-55727149D01*
X18416666Y-55727149D02*
X18369047Y-55750959D01*
X18369047Y-55750959D02*
X18345237Y-55774768D01*
X18345237Y-55774768D02*
X18321428Y-55822387D01*
X18321428Y-55822387D02*
X18321428Y-55893816D01*
X18321428Y-55893816D02*
X18345237Y-55941435D01*
X18345237Y-55941435D02*
X18369047Y-55965244D01*
X18369047Y-55965244D02*
X18416666Y-55989054D01*
X18416666Y-55989054D02*
X18607142Y-55989054D01*
X17845237Y-56227149D02*
X18130951Y-56227149D01*
X17988094Y-56227149D02*
X17988094Y-55727149D01*
X17988094Y-55727149D02*
X18035713Y-55798578D01*
X18035713Y-55798578D02*
X18083332Y-55846197D01*
X18083332Y-55846197D02*
X18130951Y-55870006D01*
X17678571Y-55727149D02*
X17369047Y-55727149D01*
X17369047Y-55727149D02*
X17535714Y-55917625D01*
X17535714Y-55917625D02*
X17464285Y-55917625D01*
X17464285Y-55917625D02*
X17416666Y-55941435D01*
X17416666Y-55941435D02*
X17392857Y-55965244D01*
X17392857Y-55965244D02*
X17369047Y-56012863D01*
X17369047Y-56012863D02*
X17369047Y-56131911D01*
X17369047Y-56131911D02*
X17392857Y-56179530D01*
X17392857Y-56179530D02*
X17416666Y-56203340D01*
X17416666Y-56203340D02*
X17464285Y-56227149D01*
X17464285Y-56227149D02*
X17607142Y-56227149D01*
X17607142Y-56227149D02*
X17654761Y-56203340D01*
X17654761Y-56203340D02*
X17678571Y-56179530D01*
D10*
X26880952Y-20804819D02*
X27357142Y-20804819D01*
X27357142Y-20804819D02*
X27404761Y-21281009D01*
X27404761Y-21281009D02*
X27357142Y-21233390D01*
X27357142Y-21233390D02*
X27261904Y-21185771D01*
X27261904Y-21185771D02*
X27023809Y-21185771D01*
X27023809Y-21185771D02*
X26928571Y-21233390D01*
X26928571Y-21233390D02*
X26880952Y-21281009D01*
X26880952Y-21281009D02*
X26833333Y-21376247D01*
X26833333Y-21376247D02*
X26833333Y-21614342D01*
X26833333Y-21614342D02*
X26880952Y-21709580D01*
X26880952Y-21709580D02*
X26928571Y-21757200D01*
X26928571Y-21757200D02*
X27023809Y-21804819D01*
X27023809Y-21804819D02*
X27261904Y-21804819D01*
X27261904Y-21804819D02*
X27357142Y-21757200D01*
X27357142Y-21757200D02*
X27404761Y-21709580D01*
X26404761Y-21709580D02*
X26357142Y-21757200D01*
X26357142Y-21757200D02*
X26404761Y-21804819D01*
X26404761Y-21804819D02*
X26452380Y-21757200D01*
X26452380Y-21757200D02*
X26404761Y-21709580D01*
X26404761Y-21709580D02*
X26404761Y-21804819D01*
X25404762Y-21804819D02*
X25976190Y-21804819D01*
X25690476Y-21804819D02*
X25690476Y-20804819D01*
X25690476Y-20804819D02*
X25785714Y-20947676D01*
X25785714Y-20947676D02*
X25880952Y-21042914D01*
X25880952Y-21042914D02*
X25976190Y-21090533D01*
X24976190Y-21804819D02*
X24976190Y-20804819D01*
X24880952Y-21423866D02*
X24595238Y-21804819D01*
X24595238Y-21138152D02*
X24976190Y-21519104D01*
D12*
X26083333Y-23227149D02*
X26249999Y-22989054D01*
X26369047Y-23227149D02*
X26369047Y-22727149D01*
X26369047Y-22727149D02*
X26178571Y-22727149D01*
X26178571Y-22727149D02*
X26130952Y-22750959D01*
X26130952Y-22750959D02*
X26107142Y-22774768D01*
X26107142Y-22774768D02*
X26083333Y-22822387D01*
X26083333Y-22822387D02*
X26083333Y-22893816D01*
X26083333Y-22893816D02*
X26107142Y-22941435D01*
X26107142Y-22941435D02*
X26130952Y-22965244D01*
X26130952Y-22965244D02*
X26178571Y-22989054D01*
X26178571Y-22989054D02*
X26369047Y-22989054D01*
X25607142Y-23227149D02*
X25892856Y-23227149D01*
X25749999Y-23227149D02*
X25749999Y-22727149D01*
X25749999Y-22727149D02*
X25797618Y-22798578D01*
X25797618Y-22798578D02*
X25845237Y-22846197D01*
X25845237Y-22846197D02*
X25892856Y-22870006D01*
D10*
X16142857Y-21459580D02*
X16190476Y-21507200D01*
X16190476Y-21507200D02*
X16333333Y-21554819D01*
X16333333Y-21554819D02*
X16428571Y-21554819D01*
X16428571Y-21554819D02*
X16571428Y-21507200D01*
X16571428Y-21507200D02*
X16666666Y-21411961D01*
X16666666Y-21411961D02*
X16714285Y-21316723D01*
X16714285Y-21316723D02*
X16761904Y-21126247D01*
X16761904Y-21126247D02*
X16761904Y-20983390D01*
X16761904Y-20983390D02*
X16714285Y-20792914D01*
X16714285Y-20792914D02*
X16666666Y-20697676D01*
X16666666Y-20697676D02*
X16571428Y-20602438D01*
X16571428Y-20602438D02*
X16428571Y-20554819D01*
X16428571Y-20554819D02*
X16333333Y-20554819D01*
X16333333Y-20554819D02*
X16190476Y-20602438D01*
X16190476Y-20602438D02*
X16142857Y-20650057D01*
X15714285Y-21554819D02*
X15714285Y-20554819D01*
X15714285Y-21031009D02*
X15142857Y-21031009D01*
X15142857Y-21554819D02*
X15142857Y-20554819D01*
X14761904Y-20554819D02*
X14142857Y-20554819D01*
X14142857Y-20554819D02*
X14476190Y-20935771D01*
X14476190Y-20935771D02*
X14333333Y-20935771D01*
X14333333Y-20935771D02*
X14238095Y-20983390D01*
X14238095Y-20983390D02*
X14190476Y-21031009D01*
X14190476Y-21031009D02*
X14142857Y-21126247D01*
X14142857Y-21126247D02*
X14142857Y-21364342D01*
X14142857Y-21364342D02*
X14190476Y-21459580D01*
X14190476Y-21459580D02*
X14238095Y-21507200D01*
X14238095Y-21507200D02*
X14333333Y-21554819D01*
X14333333Y-21554819D02*
X14619047Y-21554819D01*
X14619047Y-21554819D02*
X14714285Y-21507200D01*
X14714285Y-21507200D02*
X14761904Y-21459580D01*
X13285714Y-20888152D02*
X13285714Y-21554819D01*
X13523809Y-20507200D02*
X13761904Y-21221485D01*
X13761904Y-21221485D02*
X13142857Y-21221485D01*
X12571428Y-20554819D02*
X12476190Y-20554819D01*
X12476190Y-20554819D02*
X12380952Y-20602438D01*
X12380952Y-20602438D02*
X12333333Y-20650057D01*
X12333333Y-20650057D02*
X12285714Y-20745295D01*
X12285714Y-20745295D02*
X12238095Y-20935771D01*
X12238095Y-20935771D02*
X12238095Y-21173866D01*
X12238095Y-21173866D02*
X12285714Y-21364342D01*
X12285714Y-21364342D02*
X12333333Y-21459580D01*
X12333333Y-21459580D02*
X12380952Y-21507200D01*
X12380952Y-21507200D02*
X12476190Y-21554819D01*
X12476190Y-21554819D02*
X12571428Y-21554819D01*
X12571428Y-21554819D02*
X12666666Y-21507200D01*
X12666666Y-21507200D02*
X12714285Y-21459580D01*
X12714285Y-21459580D02*
X12761904Y-21364342D01*
X12761904Y-21364342D02*
X12809523Y-21173866D01*
X12809523Y-21173866D02*
X12809523Y-20935771D01*
X12809523Y-20935771D02*
X12761904Y-20745295D01*
X12761904Y-20745295D02*
X12714285Y-20650057D01*
X12714285Y-20650057D02*
X12666666Y-20602438D01*
X12666666Y-20602438D02*
X12571428Y-20554819D01*
X11238095Y-21459580D02*
X11285714Y-21507200D01*
X11285714Y-21507200D02*
X11428571Y-21554819D01*
X11428571Y-21554819D02*
X11523809Y-21554819D01*
X11523809Y-21554819D02*
X11666666Y-21507200D01*
X11666666Y-21507200D02*
X11761904Y-21411961D01*
X11761904Y-21411961D02*
X11809523Y-21316723D01*
X11809523Y-21316723D02*
X11857142Y-21126247D01*
X11857142Y-21126247D02*
X11857142Y-20983390D01*
X11857142Y-20983390D02*
X11809523Y-20792914D01*
X11809523Y-20792914D02*
X11761904Y-20697676D01*
X11761904Y-20697676D02*
X11666666Y-20602438D01*
X11666666Y-20602438D02*
X11523809Y-20554819D01*
X11523809Y-20554819D02*
X11428571Y-20554819D01*
X11428571Y-20554819D02*
X11285714Y-20602438D01*
X11285714Y-20602438D02*
X11238095Y-20650057D01*
X13454819Y-26238095D02*
X14264342Y-26238095D01*
X14264342Y-26238095D02*
X14359580Y-26285714D01*
X14359580Y-26285714D02*
X14407200Y-26333333D01*
X14407200Y-26333333D02*
X14454819Y-26428571D01*
X14454819Y-26428571D02*
X14454819Y-26619047D01*
X14454819Y-26619047D02*
X14407200Y-26714285D01*
X14407200Y-26714285D02*
X14359580Y-26761904D01*
X14359580Y-26761904D02*
X14264342Y-26809523D01*
X14264342Y-26809523D02*
X13454819Y-26809523D01*
X14454819Y-27809523D02*
X14454819Y-27238095D01*
X14454819Y-27523809D02*
X13454819Y-27523809D01*
X13454819Y-27523809D02*
X13597676Y-27428571D01*
X13597676Y-27428571D02*
X13692914Y-27333333D01*
X13692914Y-27333333D02*
X13740533Y-27238095D01*
X23166666Y-54804819D02*
X23738094Y-54804819D01*
X23452380Y-54804819D02*
X23452380Y-53804819D01*
X23452380Y-53804819D02*
X23547618Y-53947676D01*
X23547618Y-53947676D02*
X23642856Y-54042914D01*
X23642856Y-54042914D02*
X23738094Y-54090533D01*
X22547618Y-53804819D02*
X22452380Y-53804819D01*
X22452380Y-53804819D02*
X22357142Y-53852438D01*
X22357142Y-53852438D02*
X22309523Y-53900057D01*
X22309523Y-53900057D02*
X22261904Y-53995295D01*
X22261904Y-53995295D02*
X22214285Y-54185771D01*
X22214285Y-54185771D02*
X22214285Y-54423866D01*
X22214285Y-54423866D02*
X22261904Y-54614342D01*
X22261904Y-54614342D02*
X22309523Y-54709580D01*
X22309523Y-54709580D02*
X22357142Y-54757200D01*
X22357142Y-54757200D02*
X22452380Y-54804819D01*
X22452380Y-54804819D02*
X22547618Y-54804819D01*
X22547618Y-54804819D02*
X22642856Y-54757200D01*
X22642856Y-54757200D02*
X22690475Y-54709580D01*
X22690475Y-54709580D02*
X22738094Y-54614342D01*
X22738094Y-54614342D02*
X22785713Y-54423866D01*
X22785713Y-54423866D02*
X22785713Y-54185771D01*
X22785713Y-54185771D02*
X22738094Y-53995295D01*
X22738094Y-53995295D02*
X22690475Y-53900057D01*
X22690475Y-53900057D02*
X22642856Y-53852438D01*
X22642856Y-53852438D02*
X22547618Y-53804819D01*
X21595237Y-53804819D02*
X21499999Y-53804819D01*
X21499999Y-53804819D02*
X21404761Y-53852438D01*
X21404761Y-53852438D02*
X21357142Y-53900057D01*
X21357142Y-53900057D02*
X21309523Y-53995295D01*
X21309523Y-53995295D02*
X21261904Y-54185771D01*
X21261904Y-54185771D02*
X21261904Y-54423866D01*
X21261904Y-54423866D02*
X21309523Y-54614342D01*
X21309523Y-54614342D02*
X21357142Y-54709580D01*
X21357142Y-54709580D02*
X21404761Y-54757200D01*
X21404761Y-54757200D02*
X21499999Y-54804819D01*
X21499999Y-54804819D02*
X21595237Y-54804819D01*
X21595237Y-54804819D02*
X21690475Y-54757200D01*
X21690475Y-54757200D02*
X21738094Y-54709580D01*
X21738094Y-54709580D02*
X21785713Y-54614342D01*
X21785713Y-54614342D02*
X21833332Y-54423866D01*
X21833332Y-54423866D02*
X21833332Y-54185771D01*
X21833332Y-54185771D02*
X21785713Y-53995295D01*
X21785713Y-53995295D02*
X21738094Y-53900057D01*
X21738094Y-53900057D02*
X21690475Y-53852438D01*
X21690475Y-53852438D02*
X21595237Y-53804819D01*
X20261904Y-54804819D02*
X20595237Y-54328628D01*
X20833332Y-54804819D02*
X20833332Y-53804819D01*
X20833332Y-53804819D02*
X20452380Y-53804819D01*
X20452380Y-53804819D02*
X20357142Y-53852438D01*
X20357142Y-53852438D02*
X20309523Y-53900057D01*
X20309523Y-53900057D02*
X20261904Y-53995295D01*
X20261904Y-53995295D02*
X20261904Y-54138152D01*
X20261904Y-54138152D02*
X20309523Y-54233390D01*
X20309523Y-54233390D02*
X20357142Y-54281009D01*
X20357142Y-54281009D02*
X20452380Y-54328628D01*
X20452380Y-54328628D02*
X20833332Y-54328628D01*
D12*
X22321428Y-56227149D02*
X22488094Y-55989054D01*
X22607142Y-56227149D02*
X22607142Y-55727149D01*
X22607142Y-55727149D02*
X22416666Y-55727149D01*
X22416666Y-55727149D02*
X22369047Y-55750959D01*
X22369047Y-55750959D02*
X22345237Y-55774768D01*
X22345237Y-55774768D02*
X22321428Y-55822387D01*
X22321428Y-55822387D02*
X22321428Y-55893816D01*
X22321428Y-55893816D02*
X22345237Y-55941435D01*
X22345237Y-55941435D02*
X22369047Y-55965244D01*
X22369047Y-55965244D02*
X22416666Y-55989054D01*
X22416666Y-55989054D02*
X22607142Y-55989054D01*
X21845237Y-56227149D02*
X22130951Y-56227149D01*
X21988094Y-56227149D02*
X21988094Y-55727149D01*
X21988094Y-55727149D02*
X22035713Y-55798578D01*
X22035713Y-55798578D02*
X22083332Y-55846197D01*
X22083332Y-55846197D02*
X22130951Y-55870006D01*
X21654761Y-55774768D02*
X21630952Y-55750959D01*
X21630952Y-55750959D02*
X21583333Y-55727149D01*
X21583333Y-55727149D02*
X21464285Y-55727149D01*
X21464285Y-55727149D02*
X21416666Y-55750959D01*
X21416666Y-55750959D02*
X21392857Y-55774768D01*
X21392857Y-55774768D02*
X21369047Y-55822387D01*
X21369047Y-55822387D02*
X21369047Y-55870006D01*
X21369047Y-55870006D02*
X21392857Y-55941435D01*
X21392857Y-55941435D02*
X21678571Y-56227149D01*
X21678571Y-56227149D02*
X21369047Y-56227149D01*
D10*
X14595238Y-36804819D02*
X15166666Y-36804819D01*
X14880952Y-36804819D02*
X14880952Y-35804819D01*
X14880952Y-35804819D02*
X14976190Y-35947676D01*
X14976190Y-35947676D02*
X15071428Y-36042914D01*
X15071428Y-36042914D02*
X15166666Y-36090533D01*
X13976190Y-35804819D02*
X13880952Y-35804819D01*
X13880952Y-35804819D02*
X13785714Y-35852438D01*
X13785714Y-35852438D02*
X13738095Y-35900057D01*
X13738095Y-35900057D02*
X13690476Y-35995295D01*
X13690476Y-35995295D02*
X13642857Y-36185771D01*
X13642857Y-36185771D02*
X13642857Y-36423866D01*
X13642857Y-36423866D02*
X13690476Y-36614342D01*
X13690476Y-36614342D02*
X13738095Y-36709580D01*
X13738095Y-36709580D02*
X13785714Y-36757200D01*
X13785714Y-36757200D02*
X13880952Y-36804819D01*
X13880952Y-36804819D02*
X13976190Y-36804819D01*
X13976190Y-36804819D02*
X14071428Y-36757200D01*
X14071428Y-36757200D02*
X14119047Y-36709580D01*
X14119047Y-36709580D02*
X14166666Y-36614342D01*
X14166666Y-36614342D02*
X14214285Y-36423866D01*
X14214285Y-36423866D02*
X14214285Y-36185771D01*
X14214285Y-36185771D02*
X14166666Y-35995295D01*
X14166666Y-35995295D02*
X14119047Y-35900057D01*
X14119047Y-35900057D02*
X14071428Y-35852438D01*
X14071428Y-35852438D02*
X13976190Y-35804819D01*
X13214285Y-36804819D02*
X13214285Y-35804819D01*
X13119047Y-36423866D02*
X12833333Y-36804819D01*
X12833333Y-36138152D02*
X13214285Y-36519104D01*
D12*
X14083333Y-38227149D02*
X14249999Y-37989054D01*
X14369047Y-38227149D02*
X14369047Y-37727149D01*
X14369047Y-37727149D02*
X14178571Y-37727149D01*
X14178571Y-37727149D02*
X14130952Y-37750959D01*
X14130952Y-37750959D02*
X14107142Y-37774768D01*
X14107142Y-37774768D02*
X14083333Y-37822387D01*
X14083333Y-37822387D02*
X14083333Y-37893816D01*
X14083333Y-37893816D02*
X14107142Y-37941435D01*
X14107142Y-37941435D02*
X14130952Y-37965244D01*
X14130952Y-37965244D02*
X14178571Y-37989054D01*
X14178571Y-37989054D02*
X14369047Y-37989054D01*
X13630952Y-37727149D02*
X13869047Y-37727149D01*
X13869047Y-37727149D02*
X13892856Y-37965244D01*
X13892856Y-37965244D02*
X13869047Y-37941435D01*
X13869047Y-37941435D02*
X13821428Y-37917625D01*
X13821428Y-37917625D02*
X13702380Y-37917625D01*
X13702380Y-37917625D02*
X13654761Y-37941435D01*
X13654761Y-37941435D02*
X13630952Y-37965244D01*
X13630952Y-37965244D02*
X13607142Y-38012863D01*
X13607142Y-38012863D02*
X13607142Y-38131911D01*
X13607142Y-38131911D02*
X13630952Y-38179530D01*
X13630952Y-38179530D02*
X13654761Y-38203340D01*
X13654761Y-38203340D02*
X13702380Y-38227149D01*
X13702380Y-38227149D02*
X13821428Y-38227149D01*
X13821428Y-38227149D02*
X13869047Y-38203340D01*
X13869047Y-38203340D02*
X13892856Y-38179530D01*
D10*
X26880952Y-28804819D02*
X27357142Y-28804819D01*
X27357142Y-28804819D02*
X27404761Y-29281009D01*
X27404761Y-29281009D02*
X27357142Y-29233390D01*
X27357142Y-29233390D02*
X27261904Y-29185771D01*
X27261904Y-29185771D02*
X27023809Y-29185771D01*
X27023809Y-29185771D02*
X26928571Y-29233390D01*
X26928571Y-29233390D02*
X26880952Y-29281009D01*
X26880952Y-29281009D02*
X26833333Y-29376247D01*
X26833333Y-29376247D02*
X26833333Y-29614342D01*
X26833333Y-29614342D02*
X26880952Y-29709580D01*
X26880952Y-29709580D02*
X26928571Y-29757200D01*
X26928571Y-29757200D02*
X27023809Y-29804819D01*
X27023809Y-29804819D02*
X27261904Y-29804819D01*
X27261904Y-29804819D02*
X27357142Y-29757200D01*
X27357142Y-29757200D02*
X27404761Y-29709580D01*
X26404761Y-29709580D02*
X26357142Y-29757200D01*
X26357142Y-29757200D02*
X26404761Y-29804819D01*
X26404761Y-29804819D02*
X26452380Y-29757200D01*
X26452380Y-29757200D02*
X26404761Y-29709580D01*
X26404761Y-29709580D02*
X26404761Y-29804819D01*
X25404762Y-29804819D02*
X25976190Y-29804819D01*
X25690476Y-29804819D02*
X25690476Y-28804819D01*
X25690476Y-28804819D02*
X25785714Y-28947676D01*
X25785714Y-28947676D02*
X25880952Y-29042914D01*
X25880952Y-29042914D02*
X25976190Y-29090533D01*
X24976190Y-29804819D02*
X24976190Y-28804819D01*
X24880952Y-29423866D02*
X24595238Y-29804819D01*
X24595238Y-29138152D02*
X24976190Y-29519104D01*
D12*
X26083333Y-31227149D02*
X26249999Y-30989054D01*
X26369047Y-31227149D02*
X26369047Y-30727149D01*
X26369047Y-30727149D02*
X26178571Y-30727149D01*
X26178571Y-30727149D02*
X26130952Y-30750959D01*
X26130952Y-30750959D02*
X26107142Y-30774768D01*
X26107142Y-30774768D02*
X26083333Y-30822387D01*
X26083333Y-30822387D02*
X26083333Y-30893816D01*
X26083333Y-30893816D02*
X26107142Y-30941435D01*
X26107142Y-30941435D02*
X26130952Y-30965244D01*
X26130952Y-30965244D02*
X26178571Y-30989054D01*
X26178571Y-30989054D02*
X26369047Y-30989054D01*
X25892856Y-30774768D02*
X25869047Y-30750959D01*
X25869047Y-30750959D02*
X25821428Y-30727149D01*
X25821428Y-30727149D02*
X25702380Y-30727149D01*
X25702380Y-30727149D02*
X25654761Y-30750959D01*
X25654761Y-30750959D02*
X25630952Y-30774768D01*
X25630952Y-30774768D02*
X25607142Y-30822387D01*
X25607142Y-30822387D02*
X25607142Y-30870006D01*
X25607142Y-30870006D02*
X25630952Y-30941435D01*
X25630952Y-30941435D02*
X25916666Y-31227149D01*
X25916666Y-31227149D02*
X25607142Y-31227149D01*
D10*
X31071428Y-8774819D02*
X31642856Y-8774819D01*
X31357142Y-8774819D02*
X31357142Y-7774819D01*
X31357142Y-7774819D02*
X31452380Y-7917676D01*
X31452380Y-7917676D02*
X31547618Y-8012914D01*
X31547618Y-8012914D02*
X31642856Y-8060533D01*
X30452380Y-7774819D02*
X30357142Y-7774819D01*
X30357142Y-7774819D02*
X30261904Y-7822438D01*
X30261904Y-7822438D02*
X30214285Y-7870057D01*
X30214285Y-7870057D02*
X30166666Y-7965295D01*
X30166666Y-7965295D02*
X30119047Y-8155771D01*
X30119047Y-8155771D02*
X30119047Y-8393866D01*
X30119047Y-8393866D02*
X30166666Y-8584342D01*
X30166666Y-8584342D02*
X30214285Y-8679580D01*
X30214285Y-8679580D02*
X30261904Y-8727200D01*
X30261904Y-8727200D02*
X30357142Y-8774819D01*
X30357142Y-8774819D02*
X30452380Y-8774819D01*
X30452380Y-8774819D02*
X30547618Y-8727200D01*
X30547618Y-8727200D02*
X30595237Y-8679580D01*
X30595237Y-8679580D02*
X30642856Y-8584342D01*
X30642856Y-8584342D02*
X30690475Y-8393866D01*
X30690475Y-8393866D02*
X30690475Y-8155771D01*
X30690475Y-8155771D02*
X30642856Y-7965295D01*
X30642856Y-7965295D02*
X30595237Y-7870057D01*
X30595237Y-7870057D02*
X30547618Y-7822438D01*
X30547618Y-7822438D02*
X30452380Y-7774819D01*
X29261904Y-8108152D02*
X29261904Y-8774819D01*
X29690475Y-8108152D02*
X29690475Y-8631961D01*
X29690475Y-8631961D02*
X29642856Y-8727200D01*
X29642856Y-8727200D02*
X29547618Y-8774819D01*
X29547618Y-8774819D02*
X29404761Y-8774819D01*
X29404761Y-8774819D02*
X29309523Y-8727200D01*
X29309523Y-8727200D02*
X29261904Y-8679580D01*
X28452380Y-8251009D02*
X28785713Y-8251009D01*
X28785713Y-8774819D02*
X28785713Y-7774819D01*
X28785713Y-7774819D02*
X28309523Y-7774819D01*
D12*
X30083333Y-10179530D02*
X30107142Y-10203340D01*
X30107142Y-10203340D02*
X30178571Y-10227149D01*
X30178571Y-10227149D02*
X30226190Y-10227149D01*
X30226190Y-10227149D02*
X30297618Y-10203340D01*
X30297618Y-10203340D02*
X30345237Y-10155720D01*
X30345237Y-10155720D02*
X30369047Y-10108101D01*
X30369047Y-10108101D02*
X30392856Y-10012863D01*
X30392856Y-10012863D02*
X30392856Y-9941435D01*
X30392856Y-9941435D02*
X30369047Y-9846197D01*
X30369047Y-9846197D02*
X30345237Y-9798578D01*
X30345237Y-9798578D02*
X30297618Y-9750959D01*
X30297618Y-9750959D02*
X30226190Y-9727149D01*
X30226190Y-9727149D02*
X30178571Y-9727149D01*
X30178571Y-9727149D02*
X30107142Y-9750959D01*
X30107142Y-9750959D02*
X30083333Y-9774768D01*
X29916666Y-9727149D02*
X29607142Y-9727149D01*
X29607142Y-9727149D02*
X29773809Y-9917625D01*
X29773809Y-9917625D02*
X29702380Y-9917625D01*
X29702380Y-9917625D02*
X29654761Y-9941435D01*
X29654761Y-9941435D02*
X29630952Y-9965244D01*
X29630952Y-9965244D02*
X29607142Y-10012863D01*
X29607142Y-10012863D02*
X29607142Y-10131911D01*
X29607142Y-10131911D02*
X29630952Y-10179530D01*
X29630952Y-10179530D02*
X29654761Y-10203340D01*
X29654761Y-10203340D02*
X29702380Y-10227149D01*
X29702380Y-10227149D02*
X29845237Y-10227149D01*
X29845237Y-10227149D02*
X29892856Y-10203340D01*
X29892856Y-10203340D02*
X29916666Y-10179530D01*
D10*
X60880952Y-55104819D02*
X60880952Y-54104819D01*
X60880952Y-54104819D02*
X60500000Y-54104819D01*
X60500000Y-54104819D02*
X60404762Y-54152438D01*
X60404762Y-54152438D02*
X60357143Y-54200057D01*
X60357143Y-54200057D02*
X60309524Y-54295295D01*
X60309524Y-54295295D02*
X60309524Y-54438152D01*
X60309524Y-54438152D02*
X60357143Y-54533390D01*
X60357143Y-54533390D02*
X60404762Y-54581009D01*
X60404762Y-54581009D02*
X60500000Y-54628628D01*
X60500000Y-54628628D02*
X60880952Y-54628628D01*
X59880952Y-54581009D02*
X59547619Y-54581009D01*
X59404762Y-55104819D02*
X59880952Y-55104819D01*
X59880952Y-55104819D02*
X59880952Y-54104819D01*
X59880952Y-54104819D02*
X59404762Y-54104819D01*
X59023809Y-55057200D02*
X58880952Y-55104819D01*
X58880952Y-55104819D02*
X58642857Y-55104819D01*
X58642857Y-55104819D02*
X58547619Y-55057200D01*
X58547619Y-55057200D02*
X58500000Y-55009580D01*
X58500000Y-55009580D02*
X58452381Y-54914342D01*
X58452381Y-54914342D02*
X58452381Y-54819104D01*
X58452381Y-54819104D02*
X58500000Y-54723866D01*
X58500000Y-54723866D02*
X58547619Y-54676247D01*
X58547619Y-54676247D02*
X58642857Y-54628628D01*
X58642857Y-54628628D02*
X58833333Y-54581009D01*
X58833333Y-54581009D02*
X58928571Y-54533390D01*
X58928571Y-54533390D02*
X58976190Y-54485771D01*
X58976190Y-54485771D02*
X59023809Y-54390533D01*
X59023809Y-54390533D02*
X59023809Y-54295295D01*
X59023809Y-54295295D02*
X58976190Y-54200057D01*
X58976190Y-54200057D02*
X58928571Y-54152438D01*
X58928571Y-54152438D02*
X58833333Y-54104819D01*
X58833333Y-54104819D02*
X58595238Y-54104819D01*
X58595238Y-54104819D02*
X58452381Y-54152438D01*
X58023809Y-55104819D02*
X58023809Y-54104819D01*
X58023809Y-54104819D02*
X57785714Y-54104819D01*
X57785714Y-54104819D02*
X57642857Y-54152438D01*
X57642857Y-54152438D02*
X57547619Y-54247676D01*
X57547619Y-54247676D02*
X57500000Y-54342914D01*
X57500000Y-54342914D02*
X57452381Y-54533390D01*
X57452381Y-54533390D02*
X57452381Y-54676247D01*
X57452381Y-54676247D02*
X57500000Y-54866723D01*
X57500000Y-54866723D02*
X57547619Y-54961961D01*
X57547619Y-54961961D02*
X57642857Y-55057200D01*
X57642857Y-55057200D02*
X57785714Y-55104819D01*
X57785714Y-55104819D02*
X58023809Y-55104819D01*
X56547619Y-54104819D02*
X57023809Y-54104819D01*
X57023809Y-54104819D02*
X57071428Y-54581009D01*
X57071428Y-54581009D02*
X57023809Y-54533390D01*
X57023809Y-54533390D02*
X56928571Y-54485771D01*
X56928571Y-54485771D02*
X56690476Y-54485771D01*
X56690476Y-54485771D02*
X56595238Y-54533390D01*
X56595238Y-54533390D02*
X56547619Y-54581009D01*
X56547619Y-54581009D02*
X56500000Y-54676247D01*
X56500000Y-54676247D02*
X56500000Y-54914342D01*
X56500000Y-54914342D02*
X56547619Y-55009580D01*
X56547619Y-55009580D02*
X56595238Y-55057200D01*
X56595238Y-55057200D02*
X56690476Y-55104819D01*
X56690476Y-55104819D02*
X56928571Y-55104819D01*
X56928571Y-55104819D02*
X57023809Y-55057200D01*
X57023809Y-55057200D02*
X57071428Y-55009580D01*
X56214285Y-54104819D02*
X55880952Y-55104819D01*
X55880952Y-55104819D02*
X55547619Y-54104819D01*
X55023809Y-54104819D02*
X54928571Y-54104819D01*
X54928571Y-54104819D02*
X54833333Y-54152438D01*
X54833333Y-54152438D02*
X54785714Y-54200057D01*
X54785714Y-54200057D02*
X54738095Y-54295295D01*
X54738095Y-54295295D02*
X54690476Y-54485771D01*
X54690476Y-54485771D02*
X54690476Y-54723866D01*
X54690476Y-54723866D02*
X54738095Y-54914342D01*
X54738095Y-54914342D02*
X54785714Y-55009580D01*
X54785714Y-55009580D02*
X54833333Y-55057200D01*
X54833333Y-55057200D02*
X54928571Y-55104819D01*
X54928571Y-55104819D02*
X55023809Y-55104819D01*
X55023809Y-55104819D02*
X55119047Y-55057200D01*
X55119047Y-55057200D02*
X55166666Y-55009580D01*
X55166666Y-55009580D02*
X55214285Y-54914342D01*
X55214285Y-54914342D02*
X55261904Y-54723866D01*
X55261904Y-54723866D02*
X55261904Y-54485771D01*
X55261904Y-54485771D02*
X55214285Y-54295295D01*
X55214285Y-54295295D02*
X55166666Y-54200057D01*
X55166666Y-54200057D02*
X55119047Y-54152438D01*
X55119047Y-54152438D02*
X55023809Y-54104819D01*
X53785714Y-55104819D02*
X54261904Y-55104819D01*
X54261904Y-55104819D02*
X54261904Y-54104819D01*
X52928571Y-55104819D02*
X53499999Y-55104819D01*
X53214285Y-55104819D02*
X53214285Y-54104819D01*
X53214285Y-54104819D02*
X53309523Y-54247676D01*
X53309523Y-54247676D02*
X53404761Y-54342914D01*
X53404761Y-54342914D02*
X53499999Y-54390533D01*
X52499999Y-54104819D02*
X52499999Y-54914342D01*
X52499999Y-54914342D02*
X52452380Y-55009580D01*
X52452380Y-55009580D02*
X52404761Y-55057200D01*
X52404761Y-55057200D02*
X52309523Y-55104819D01*
X52309523Y-55104819D02*
X52119047Y-55104819D01*
X52119047Y-55104819D02*
X52023809Y-55057200D01*
X52023809Y-55057200D02*
X51976190Y-55009580D01*
X51976190Y-55009580D02*
X51928571Y-54914342D01*
X51928571Y-54914342D02*
X51928571Y-54104819D01*
X50976190Y-55104819D02*
X51452380Y-55104819D01*
X51452380Y-55104819D02*
X51452380Y-54104819D01*
X56611094Y-57804819D02*
X56611094Y-56804819D01*
X56611094Y-56804819D02*
X56372999Y-56804819D01*
X56372999Y-56804819D02*
X56230142Y-56852438D01*
X56230142Y-56852438D02*
X56134904Y-56947676D01*
X56134904Y-56947676D02*
X56087285Y-57042914D01*
X56087285Y-57042914D02*
X56039666Y-57233390D01*
X56039666Y-57233390D02*
X56039666Y-57376247D01*
X56039666Y-57376247D02*
X56087285Y-57566723D01*
X56087285Y-57566723D02*
X56134904Y-57661961D01*
X56134904Y-57661961D02*
X56230142Y-57757200D01*
X56230142Y-57757200D02*
X56372999Y-57804819D01*
X56372999Y-57804819D02*
X56611094Y-57804819D01*
X55563475Y-57804819D02*
X55372999Y-57804819D01*
X55372999Y-57804819D02*
X55277761Y-57757200D01*
X55277761Y-57757200D02*
X55230142Y-57709580D01*
X55230142Y-57709580D02*
X55134904Y-57566723D01*
X55134904Y-57566723D02*
X55087285Y-57376247D01*
X55087285Y-57376247D02*
X55087285Y-56995295D01*
X55087285Y-56995295D02*
X55134904Y-56900057D01*
X55134904Y-56900057D02*
X55182523Y-56852438D01*
X55182523Y-56852438D02*
X55277761Y-56804819D01*
X55277761Y-56804819D02*
X55468237Y-56804819D01*
X55468237Y-56804819D02*
X55563475Y-56852438D01*
X55563475Y-56852438D02*
X55611094Y-56900057D01*
X55611094Y-56900057D02*
X55658713Y-56995295D01*
X55658713Y-56995295D02*
X55658713Y-57233390D01*
X55658713Y-57233390D02*
X55611094Y-57328628D01*
X55611094Y-57328628D02*
X55563475Y-57376247D01*
X55563475Y-57376247D02*
X55468237Y-57423866D01*
X55468237Y-57423866D02*
X55277761Y-57423866D01*
X55277761Y-57423866D02*
X55182523Y-57376247D01*
X55182523Y-57376247D02*
X55134904Y-57328628D01*
X55134904Y-57328628D02*
X55087285Y-57233390D01*
X42880952Y-55104819D02*
X42880952Y-54104819D01*
X42880952Y-54104819D02*
X42500000Y-54104819D01*
X42500000Y-54104819D02*
X42404762Y-54152438D01*
X42404762Y-54152438D02*
X42357143Y-54200057D01*
X42357143Y-54200057D02*
X42309524Y-54295295D01*
X42309524Y-54295295D02*
X42309524Y-54438152D01*
X42309524Y-54438152D02*
X42357143Y-54533390D01*
X42357143Y-54533390D02*
X42404762Y-54581009D01*
X42404762Y-54581009D02*
X42500000Y-54628628D01*
X42500000Y-54628628D02*
X42880952Y-54628628D01*
X41880952Y-54581009D02*
X41547619Y-54581009D01*
X41404762Y-55104819D02*
X41880952Y-55104819D01*
X41880952Y-55104819D02*
X41880952Y-54104819D01*
X41880952Y-54104819D02*
X41404762Y-54104819D01*
X41023809Y-55057200D02*
X40880952Y-55104819D01*
X40880952Y-55104819D02*
X40642857Y-55104819D01*
X40642857Y-55104819D02*
X40547619Y-55057200D01*
X40547619Y-55057200D02*
X40500000Y-55009580D01*
X40500000Y-55009580D02*
X40452381Y-54914342D01*
X40452381Y-54914342D02*
X40452381Y-54819104D01*
X40452381Y-54819104D02*
X40500000Y-54723866D01*
X40500000Y-54723866D02*
X40547619Y-54676247D01*
X40547619Y-54676247D02*
X40642857Y-54628628D01*
X40642857Y-54628628D02*
X40833333Y-54581009D01*
X40833333Y-54581009D02*
X40928571Y-54533390D01*
X40928571Y-54533390D02*
X40976190Y-54485771D01*
X40976190Y-54485771D02*
X41023809Y-54390533D01*
X41023809Y-54390533D02*
X41023809Y-54295295D01*
X41023809Y-54295295D02*
X40976190Y-54200057D01*
X40976190Y-54200057D02*
X40928571Y-54152438D01*
X40928571Y-54152438D02*
X40833333Y-54104819D01*
X40833333Y-54104819D02*
X40595238Y-54104819D01*
X40595238Y-54104819D02*
X40452381Y-54152438D01*
X40023809Y-55104819D02*
X40023809Y-54104819D01*
X40023809Y-54104819D02*
X39785714Y-54104819D01*
X39785714Y-54104819D02*
X39642857Y-54152438D01*
X39642857Y-54152438D02*
X39547619Y-54247676D01*
X39547619Y-54247676D02*
X39500000Y-54342914D01*
X39500000Y-54342914D02*
X39452381Y-54533390D01*
X39452381Y-54533390D02*
X39452381Y-54676247D01*
X39452381Y-54676247D02*
X39500000Y-54866723D01*
X39500000Y-54866723D02*
X39547619Y-54961961D01*
X39547619Y-54961961D02*
X39642857Y-55057200D01*
X39642857Y-55057200D02*
X39785714Y-55104819D01*
X39785714Y-55104819D02*
X40023809Y-55104819D01*
X38547619Y-54104819D02*
X39023809Y-54104819D01*
X39023809Y-54104819D02*
X39071428Y-54581009D01*
X39071428Y-54581009D02*
X39023809Y-54533390D01*
X39023809Y-54533390D02*
X38928571Y-54485771D01*
X38928571Y-54485771D02*
X38690476Y-54485771D01*
X38690476Y-54485771D02*
X38595238Y-54533390D01*
X38595238Y-54533390D02*
X38547619Y-54581009D01*
X38547619Y-54581009D02*
X38500000Y-54676247D01*
X38500000Y-54676247D02*
X38500000Y-54914342D01*
X38500000Y-54914342D02*
X38547619Y-55009580D01*
X38547619Y-55009580D02*
X38595238Y-55057200D01*
X38595238Y-55057200D02*
X38690476Y-55104819D01*
X38690476Y-55104819D02*
X38928571Y-55104819D01*
X38928571Y-55104819D02*
X39023809Y-55057200D01*
X39023809Y-55057200D02*
X39071428Y-55009580D01*
X38214285Y-54104819D02*
X37880952Y-55104819D01*
X37880952Y-55104819D02*
X37547619Y-54104819D01*
X37023809Y-54104819D02*
X36928571Y-54104819D01*
X36928571Y-54104819D02*
X36833333Y-54152438D01*
X36833333Y-54152438D02*
X36785714Y-54200057D01*
X36785714Y-54200057D02*
X36738095Y-54295295D01*
X36738095Y-54295295D02*
X36690476Y-54485771D01*
X36690476Y-54485771D02*
X36690476Y-54723866D01*
X36690476Y-54723866D02*
X36738095Y-54914342D01*
X36738095Y-54914342D02*
X36785714Y-55009580D01*
X36785714Y-55009580D02*
X36833333Y-55057200D01*
X36833333Y-55057200D02*
X36928571Y-55104819D01*
X36928571Y-55104819D02*
X37023809Y-55104819D01*
X37023809Y-55104819D02*
X37119047Y-55057200D01*
X37119047Y-55057200D02*
X37166666Y-55009580D01*
X37166666Y-55009580D02*
X37214285Y-54914342D01*
X37214285Y-54914342D02*
X37261904Y-54723866D01*
X37261904Y-54723866D02*
X37261904Y-54485771D01*
X37261904Y-54485771D02*
X37214285Y-54295295D01*
X37214285Y-54295295D02*
X37166666Y-54200057D01*
X37166666Y-54200057D02*
X37119047Y-54152438D01*
X37119047Y-54152438D02*
X37023809Y-54104819D01*
X35785714Y-55104819D02*
X36261904Y-55104819D01*
X36261904Y-55104819D02*
X36261904Y-54104819D01*
X34928571Y-55104819D02*
X35499999Y-55104819D01*
X35214285Y-55104819D02*
X35214285Y-54104819D01*
X35214285Y-54104819D02*
X35309523Y-54247676D01*
X35309523Y-54247676D02*
X35404761Y-54342914D01*
X35404761Y-54342914D02*
X35499999Y-54390533D01*
X34499999Y-54104819D02*
X34499999Y-54914342D01*
X34499999Y-54914342D02*
X34452380Y-55009580D01*
X34452380Y-55009580D02*
X34404761Y-55057200D01*
X34404761Y-55057200D02*
X34309523Y-55104819D01*
X34309523Y-55104819D02*
X34119047Y-55104819D01*
X34119047Y-55104819D02*
X34023809Y-55057200D01*
X34023809Y-55057200D02*
X33976190Y-55009580D01*
X33976190Y-55009580D02*
X33928571Y-54914342D01*
X33928571Y-54914342D02*
X33928571Y-54104819D01*
X32976190Y-55104819D02*
X33452380Y-55104819D01*
X33452380Y-55104819D02*
X33452380Y-54104819D01*
X38611094Y-57804819D02*
X38611094Y-56804819D01*
X38611094Y-56804819D02*
X38372999Y-56804819D01*
X38372999Y-56804819D02*
X38230142Y-56852438D01*
X38230142Y-56852438D02*
X38134904Y-56947676D01*
X38134904Y-56947676D02*
X38087285Y-57042914D01*
X38087285Y-57042914D02*
X38039666Y-57233390D01*
X38039666Y-57233390D02*
X38039666Y-57376247D01*
X38039666Y-57376247D02*
X38087285Y-57566723D01*
X38087285Y-57566723D02*
X38134904Y-57661961D01*
X38134904Y-57661961D02*
X38230142Y-57757200D01*
X38230142Y-57757200D02*
X38372999Y-57804819D01*
X38372999Y-57804819D02*
X38611094Y-57804819D01*
X37182523Y-56804819D02*
X37372999Y-56804819D01*
X37372999Y-56804819D02*
X37468237Y-56852438D01*
X37468237Y-56852438D02*
X37515856Y-56900057D01*
X37515856Y-56900057D02*
X37611094Y-57042914D01*
X37611094Y-57042914D02*
X37658713Y-57233390D01*
X37658713Y-57233390D02*
X37658713Y-57614342D01*
X37658713Y-57614342D02*
X37611094Y-57709580D01*
X37611094Y-57709580D02*
X37563475Y-57757200D01*
X37563475Y-57757200D02*
X37468237Y-57804819D01*
X37468237Y-57804819D02*
X37277761Y-57804819D01*
X37277761Y-57804819D02*
X37182523Y-57757200D01*
X37182523Y-57757200D02*
X37134904Y-57709580D01*
X37134904Y-57709580D02*
X37087285Y-57614342D01*
X37087285Y-57614342D02*
X37087285Y-57376247D01*
X37087285Y-57376247D02*
X37134904Y-57281009D01*
X37134904Y-57281009D02*
X37182523Y-57233390D01*
X37182523Y-57233390D02*
X37277761Y-57185771D01*
X37277761Y-57185771D02*
X37468237Y-57185771D01*
X37468237Y-57185771D02*
X37563475Y-57233390D01*
X37563475Y-57233390D02*
X37611094Y-57281009D01*
X37611094Y-57281009D02*
X37658713Y-57376247D01*
X50880952Y-55104819D02*
X50880952Y-54104819D01*
X50880952Y-54104819D02*
X50500000Y-54104819D01*
X50500000Y-54104819D02*
X50404762Y-54152438D01*
X50404762Y-54152438D02*
X50357143Y-54200057D01*
X50357143Y-54200057D02*
X50309524Y-54295295D01*
X50309524Y-54295295D02*
X50309524Y-54438152D01*
X50309524Y-54438152D02*
X50357143Y-54533390D01*
X50357143Y-54533390D02*
X50404762Y-54581009D01*
X50404762Y-54581009D02*
X50500000Y-54628628D01*
X50500000Y-54628628D02*
X50880952Y-54628628D01*
X49880952Y-54581009D02*
X49547619Y-54581009D01*
X49404762Y-55104819D02*
X49880952Y-55104819D01*
X49880952Y-55104819D02*
X49880952Y-54104819D01*
X49880952Y-54104819D02*
X49404762Y-54104819D01*
X49023809Y-55057200D02*
X48880952Y-55104819D01*
X48880952Y-55104819D02*
X48642857Y-55104819D01*
X48642857Y-55104819D02*
X48547619Y-55057200D01*
X48547619Y-55057200D02*
X48500000Y-55009580D01*
X48500000Y-55009580D02*
X48452381Y-54914342D01*
X48452381Y-54914342D02*
X48452381Y-54819104D01*
X48452381Y-54819104D02*
X48500000Y-54723866D01*
X48500000Y-54723866D02*
X48547619Y-54676247D01*
X48547619Y-54676247D02*
X48642857Y-54628628D01*
X48642857Y-54628628D02*
X48833333Y-54581009D01*
X48833333Y-54581009D02*
X48928571Y-54533390D01*
X48928571Y-54533390D02*
X48976190Y-54485771D01*
X48976190Y-54485771D02*
X49023809Y-54390533D01*
X49023809Y-54390533D02*
X49023809Y-54295295D01*
X49023809Y-54295295D02*
X48976190Y-54200057D01*
X48976190Y-54200057D02*
X48928571Y-54152438D01*
X48928571Y-54152438D02*
X48833333Y-54104819D01*
X48833333Y-54104819D02*
X48595238Y-54104819D01*
X48595238Y-54104819D02*
X48452381Y-54152438D01*
X48023809Y-55104819D02*
X48023809Y-54104819D01*
X48023809Y-54104819D02*
X47785714Y-54104819D01*
X47785714Y-54104819D02*
X47642857Y-54152438D01*
X47642857Y-54152438D02*
X47547619Y-54247676D01*
X47547619Y-54247676D02*
X47500000Y-54342914D01*
X47500000Y-54342914D02*
X47452381Y-54533390D01*
X47452381Y-54533390D02*
X47452381Y-54676247D01*
X47452381Y-54676247D02*
X47500000Y-54866723D01*
X47500000Y-54866723D02*
X47547619Y-54961961D01*
X47547619Y-54961961D02*
X47642857Y-55057200D01*
X47642857Y-55057200D02*
X47785714Y-55104819D01*
X47785714Y-55104819D02*
X48023809Y-55104819D01*
X46547619Y-54104819D02*
X47023809Y-54104819D01*
X47023809Y-54104819D02*
X47071428Y-54581009D01*
X47071428Y-54581009D02*
X47023809Y-54533390D01*
X47023809Y-54533390D02*
X46928571Y-54485771D01*
X46928571Y-54485771D02*
X46690476Y-54485771D01*
X46690476Y-54485771D02*
X46595238Y-54533390D01*
X46595238Y-54533390D02*
X46547619Y-54581009D01*
X46547619Y-54581009D02*
X46500000Y-54676247D01*
X46500000Y-54676247D02*
X46500000Y-54914342D01*
X46500000Y-54914342D02*
X46547619Y-55009580D01*
X46547619Y-55009580D02*
X46595238Y-55057200D01*
X46595238Y-55057200D02*
X46690476Y-55104819D01*
X46690476Y-55104819D02*
X46928571Y-55104819D01*
X46928571Y-55104819D02*
X47023809Y-55057200D01*
X47023809Y-55057200D02*
X47071428Y-55009580D01*
X46214285Y-54104819D02*
X45880952Y-55104819D01*
X45880952Y-55104819D02*
X45547619Y-54104819D01*
X45023809Y-54104819D02*
X44928571Y-54104819D01*
X44928571Y-54104819D02*
X44833333Y-54152438D01*
X44833333Y-54152438D02*
X44785714Y-54200057D01*
X44785714Y-54200057D02*
X44738095Y-54295295D01*
X44738095Y-54295295D02*
X44690476Y-54485771D01*
X44690476Y-54485771D02*
X44690476Y-54723866D01*
X44690476Y-54723866D02*
X44738095Y-54914342D01*
X44738095Y-54914342D02*
X44785714Y-55009580D01*
X44785714Y-55009580D02*
X44833333Y-55057200D01*
X44833333Y-55057200D02*
X44928571Y-55104819D01*
X44928571Y-55104819D02*
X45023809Y-55104819D01*
X45023809Y-55104819D02*
X45119047Y-55057200D01*
X45119047Y-55057200D02*
X45166666Y-55009580D01*
X45166666Y-55009580D02*
X45214285Y-54914342D01*
X45214285Y-54914342D02*
X45261904Y-54723866D01*
X45261904Y-54723866D02*
X45261904Y-54485771D01*
X45261904Y-54485771D02*
X45214285Y-54295295D01*
X45214285Y-54295295D02*
X45166666Y-54200057D01*
X45166666Y-54200057D02*
X45119047Y-54152438D01*
X45119047Y-54152438D02*
X45023809Y-54104819D01*
X43785714Y-55104819D02*
X44261904Y-55104819D01*
X44261904Y-55104819D02*
X44261904Y-54104819D01*
X42928571Y-55104819D02*
X43499999Y-55104819D01*
X43214285Y-55104819D02*
X43214285Y-54104819D01*
X43214285Y-54104819D02*
X43309523Y-54247676D01*
X43309523Y-54247676D02*
X43404761Y-54342914D01*
X43404761Y-54342914D02*
X43499999Y-54390533D01*
X42499999Y-54104819D02*
X42499999Y-54914342D01*
X42499999Y-54914342D02*
X42452380Y-55009580D01*
X42452380Y-55009580D02*
X42404761Y-55057200D01*
X42404761Y-55057200D02*
X42309523Y-55104819D01*
X42309523Y-55104819D02*
X42119047Y-55104819D01*
X42119047Y-55104819D02*
X42023809Y-55057200D01*
X42023809Y-55057200D02*
X41976190Y-55009580D01*
X41976190Y-55009580D02*
X41928571Y-54914342D01*
X41928571Y-54914342D02*
X41928571Y-54104819D01*
X40976190Y-55104819D02*
X41452380Y-55104819D01*
X41452380Y-55104819D02*
X41452380Y-54104819D01*
X46611094Y-57804819D02*
X46611094Y-56804819D01*
X46611094Y-56804819D02*
X46372999Y-56804819D01*
X46372999Y-56804819D02*
X46230142Y-56852438D01*
X46230142Y-56852438D02*
X46134904Y-56947676D01*
X46134904Y-56947676D02*
X46087285Y-57042914D01*
X46087285Y-57042914D02*
X46039666Y-57233390D01*
X46039666Y-57233390D02*
X46039666Y-57376247D01*
X46039666Y-57376247D02*
X46087285Y-57566723D01*
X46087285Y-57566723D02*
X46134904Y-57661961D01*
X46134904Y-57661961D02*
X46230142Y-57757200D01*
X46230142Y-57757200D02*
X46372999Y-57804819D01*
X46372999Y-57804819D02*
X46611094Y-57804819D01*
X45706332Y-56804819D02*
X45039666Y-56804819D01*
X45039666Y-56804819D02*
X45468237Y-57804819D01*
X20714285Y-58354819D02*
X21285713Y-58354819D01*
X20999999Y-58354819D02*
X20999999Y-57354819D01*
X20999999Y-57354819D02*
X21095237Y-57497676D01*
X21095237Y-57497676D02*
X21190475Y-57592914D01*
X21190475Y-57592914D02*
X21285713Y-57640533D01*
X20285713Y-58354819D02*
X20285713Y-57354819D01*
X20285713Y-57354819D02*
X19714285Y-58354819D01*
X19714285Y-58354819D02*
X19714285Y-57354819D01*
X18809523Y-57688152D02*
X18809523Y-58354819D01*
X19047618Y-57307200D02*
X19285713Y-58021485D01*
X19285713Y-58021485D02*
X18666666Y-58021485D01*
X17761904Y-58354819D02*
X18333332Y-58354819D01*
X18047618Y-58354819D02*
X18047618Y-57354819D01*
X18047618Y-57354819D02*
X18142856Y-57497676D01*
X18142856Y-57497676D02*
X18238094Y-57592914D01*
X18238094Y-57592914D02*
X18333332Y-57640533D01*
X16904761Y-57688152D02*
X16904761Y-58354819D01*
X17142856Y-57307200D02*
X17380951Y-58021485D01*
X17380951Y-58021485D02*
X16761904Y-58021485D01*
X16238094Y-57783390D02*
X16333332Y-57735771D01*
X16333332Y-57735771D02*
X16380951Y-57688152D01*
X16380951Y-57688152D02*
X16428570Y-57592914D01*
X16428570Y-57592914D02*
X16428570Y-57545295D01*
X16428570Y-57545295D02*
X16380951Y-57450057D01*
X16380951Y-57450057D02*
X16333332Y-57402438D01*
X16333332Y-57402438D02*
X16238094Y-57354819D01*
X16238094Y-57354819D02*
X16047618Y-57354819D01*
X16047618Y-57354819D02*
X15952380Y-57402438D01*
X15952380Y-57402438D02*
X15904761Y-57450057D01*
X15904761Y-57450057D02*
X15857142Y-57545295D01*
X15857142Y-57545295D02*
X15857142Y-57592914D01*
X15857142Y-57592914D02*
X15904761Y-57688152D01*
X15904761Y-57688152D02*
X15952380Y-57735771D01*
X15952380Y-57735771D02*
X16047618Y-57783390D01*
X16047618Y-57783390D02*
X16238094Y-57783390D01*
X16238094Y-57783390D02*
X16333332Y-57831009D01*
X16333332Y-57831009D02*
X16380951Y-57878628D01*
X16380951Y-57878628D02*
X16428570Y-57973866D01*
X16428570Y-57973866D02*
X16428570Y-58164342D01*
X16428570Y-58164342D02*
X16380951Y-58259580D01*
X16380951Y-58259580D02*
X16333332Y-58307200D01*
X16333332Y-58307200D02*
X16238094Y-58354819D01*
X16238094Y-58354819D02*
X16047618Y-58354819D01*
X16047618Y-58354819D02*
X15952380Y-58307200D01*
X15952380Y-58307200D02*
X15904761Y-58259580D01*
X15904761Y-58259580D02*
X15857142Y-58164342D01*
X15857142Y-58164342D02*
X15857142Y-57973866D01*
X15857142Y-57973866D02*
X15904761Y-57878628D01*
X15904761Y-57878628D02*
X15952380Y-57831009D01*
X15952380Y-57831009D02*
X16047618Y-57783390D01*
X15523808Y-57354819D02*
X15285713Y-58354819D01*
X15285713Y-58354819D02*
X15095237Y-57640533D01*
X15095237Y-57640533D02*
X14904761Y-58354819D01*
X14904761Y-58354819D02*
X14666666Y-57354819D01*
X18738094Y-62454819D02*
X18738094Y-61454819D01*
X18738094Y-61454819D02*
X18499999Y-61454819D01*
X18499999Y-61454819D02*
X18357142Y-61502438D01*
X18357142Y-61502438D02*
X18261904Y-61597676D01*
X18261904Y-61597676D02*
X18214285Y-61692914D01*
X18214285Y-61692914D02*
X18166666Y-61883390D01*
X18166666Y-61883390D02*
X18166666Y-62026247D01*
X18166666Y-62026247D02*
X18214285Y-62216723D01*
X18214285Y-62216723D02*
X18261904Y-62311961D01*
X18261904Y-62311961D02*
X18357142Y-62407200D01*
X18357142Y-62407200D02*
X18499999Y-62454819D01*
X18499999Y-62454819D02*
X18738094Y-62454819D01*
X17309523Y-61788152D02*
X17309523Y-62454819D01*
X17547618Y-61407200D02*
X17785713Y-62121485D01*
X17785713Y-62121485D02*
X17166666Y-62121485D01*
X31642856Y-14870057D02*
X31595237Y-14822438D01*
X31595237Y-14822438D02*
X31499999Y-14774819D01*
X31499999Y-14774819D02*
X31261904Y-14774819D01*
X31261904Y-14774819D02*
X31166666Y-14822438D01*
X31166666Y-14822438D02*
X31119047Y-14870057D01*
X31119047Y-14870057D02*
X31071428Y-14965295D01*
X31071428Y-14965295D02*
X31071428Y-15060533D01*
X31071428Y-15060533D02*
X31119047Y-15203390D01*
X31119047Y-15203390D02*
X31690475Y-15774819D01*
X31690475Y-15774819D02*
X31071428Y-15774819D01*
X30690475Y-14870057D02*
X30642856Y-14822438D01*
X30642856Y-14822438D02*
X30547618Y-14774819D01*
X30547618Y-14774819D02*
X30309523Y-14774819D01*
X30309523Y-14774819D02*
X30214285Y-14822438D01*
X30214285Y-14822438D02*
X30166666Y-14870057D01*
X30166666Y-14870057D02*
X30119047Y-14965295D01*
X30119047Y-14965295D02*
X30119047Y-15060533D01*
X30119047Y-15060533D02*
X30166666Y-15203390D01*
X30166666Y-15203390D02*
X30738094Y-15774819D01*
X30738094Y-15774819D02*
X30119047Y-15774819D01*
X29261904Y-15108152D02*
X29261904Y-15774819D01*
X29690475Y-15108152D02*
X29690475Y-15631961D01*
X29690475Y-15631961D02*
X29642856Y-15727200D01*
X29642856Y-15727200D02*
X29547618Y-15774819D01*
X29547618Y-15774819D02*
X29404761Y-15774819D01*
X29404761Y-15774819D02*
X29309523Y-15727200D01*
X29309523Y-15727200D02*
X29261904Y-15679580D01*
X28452380Y-15251009D02*
X28785713Y-15251009D01*
X28785713Y-15774819D02*
X28785713Y-14774819D01*
X28785713Y-14774819D02*
X28309523Y-14774819D01*
D12*
X30083333Y-17179530D02*
X30107142Y-17203340D01*
X30107142Y-17203340D02*
X30178571Y-17227149D01*
X30178571Y-17227149D02*
X30226190Y-17227149D01*
X30226190Y-17227149D02*
X30297618Y-17203340D01*
X30297618Y-17203340D02*
X30345237Y-17155720D01*
X30345237Y-17155720D02*
X30369047Y-17108101D01*
X30369047Y-17108101D02*
X30392856Y-17012863D01*
X30392856Y-17012863D02*
X30392856Y-16941435D01*
X30392856Y-16941435D02*
X30369047Y-16846197D01*
X30369047Y-16846197D02*
X30345237Y-16798578D01*
X30345237Y-16798578D02*
X30297618Y-16750959D01*
X30297618Y-16750959D02*
X30226190Y-16727149D01*
X30226190Y-16727149D02*
X30178571Y-16727149D01*
X30178571Y-16727149D02*
X30107142Y-16750959D01*
X30107142Y-16750959D02*
X30083333Y-16774768D01*
X29654761Y-16727149D02*
X29749999Y-16727149D01*
X29749999Y-16727149D02*
X29797618Y-16750959D01*
X29797618Y-16750959D02*
X29821428Y-16774768D01*
X29821428Y-16774768D02*
X29869047Y-16846197D01*
X29869047Y-16846197D02*
X29892856Y-16941435D01*
X29892856Y-16941435D02*
X29892856Y-17131911D01*
X29892856Y-17131911D02*
X29869047Y-17179530D01*
X29869047Y-17179530D02*
X29845237Y-17203340D01*
X29845237Y-17203340D02*
X29797618Y-17227149D01*
X29797618Y-17227149D02*
X29702380Y-17227149D01*
X29702380Y-17227149D02*
X29654761Y-17203340D01*
X29654761Y-17203340D02*
X29630952Y-17179530D01*
X29630952Y-17179530D02*
X29607142Y-17131911D01*
X29607142Y-17131911D02*
X29607142Y-17012863D01*
X29607142Y-17012863D02*
X29630952Y-16965244D01*
X29630952Y-16965244D02*
X29654761Y-16941435D01*
X29654761Y-16941435D02*
X29702380Y-16917625D01*
X29702380Y-16917625D02*
X29797618Y-16917625D01*
X29797618Y-16917625D02*
X29845237Y-16941435D01*
X29845237Y-16941435D02*
X29869047Y-16965244D01*
X29869047Y-16965244D02*
X29892856Y-17012863D01*
D10*
X70880952Y-21104819D02*
X70880952Y-20104819D01*
X70880952Y-20104819D02*
X70500000Y-20104819D01*
X70500000Y-20104819D02*
X70404762Y-20152438D01*
X70404762Y-20152438D02*
X70357143Y-20200057D01*
X70357143Y-20200057D02*
X70309524Y-20295295D01*
X70309524Y-20295295D02*
X70309524Y-20438152D01*
X70309524Y-20438152D02*
X70357143Y-20533390D01*
X70357143Y-20533390D02*
X70404762Y-20581009D01*
X70404762Y-20581009D02*
X70500000Y-20628628D01*
X70500000Y-20628628D02*
X70880952Y-20628628D01*
X69880952Y-20581009D02*
X69547619Y-20581009D01*
X69404762Y-21104819D02*
X69880952Y-21104819D01*
X69880952Y-21104819D02*
X69880952Y-20104819D01*
X69880952Y-20104819D02*
X69404762Y-20104819D01*
X69023809Y-21057200D02*
X68880952Y-21104819D01*
X68880952Y-21104819D02*
X68642857Y-21104819D01*
X68642857Y-21104819D02*
X68547619Y-21057200D01*
X68547619Y-21057200D02*
X68500000Y-21009580D01*
X68500000Y-21009580D02*
X68452381Y-20914342D01*
X68452381Y-20914342D02*
X68452381Y-20819104D01*
X68452381Y-20819104D02*
X68500000Y-20723866D01*
X68500000Y-20723866D02*
X68547619Y-20676247D01*
X68547619Y-20676247D02*
X68642857Y-20628628D01*
X68642857Y-20628628D02*
X68833333Y-20581009D01*
X68833333Y-20581009D02*
X68928571Y-20533390D01*
X68928571Y-20533390D02*
X68976190Y-20485771D01*
X68976190Y-20485771D02*
X69023809Y-20390533D01*
X69023809Y-20390533D02*
X69023809Y-20295295D01*
X69023809Y-20295295D02*
X68976190Y-20200057D01*
X68976190Y-20200057D02*
X68928571Y-20152438D01*
X68928571Y-20152438D02*
X68833333Y-20104819D01*
X68833333Y-20104819D02*
X68595238Y-20104819D01*
X68595238Y-20104819D02*
X68452381Y-20152438D01*
X68023809Y-21104819D02*
X68023809Y-20104819D01*
X68023809Y-20104819D02*
X67785714Y-20104819D01*
X67785714Y-20104819D02*
X67642857Y-20152438D01*
X67642857Y-20152438D02*
X67547619Y-20247676D01*
X67547619Y-20247676D02*
X67500000Y-20342914D01*
X67500000Y-20342914D02*
X67452381Y-20533390D01*
X67452381Y-20533390D02*
X67452381Y-20676247D01*
X67452381Y-20676247D02*
X67500000Y-20866723D01*
X67500000Y-20866723D02*
X67547619Y-20961961D01*
X67547619Y-20961961D02*
X67642857Y-21057200D01*
X67642857Y-21057200D02*
X67785714Y-21104819D01*
X67785714Y-21104819D02*
X68023809Y-21104819D01*
X66547619Y-20104819D02*
X67023809Y-20104819D01*
X67023809Y-20104819D02*
X67071428Y-20581009D01*
X67071428Y-20581009D02*
X67023809Y-20533390D01*
X67023809Y-20533390D02*
X66928571Y-20485771D01*
X66928571Y-20485771D02*
X66690476Y-20485771D01*
X66690476Y-20485771D02*
X66595238Y-20533390D01*
X66595238Y-20533390D02*
X66547619Y-20581009D01*
X66547619Y-20581009D02*
X66500000Y-20676247D01*
X66500000Y-20676247D02*
X66500000Y-20914342D01*
X66500000Y-20914342D02*
X66547619Y-21009580D01*
X66547619Y-21009580D02*
X66595238Y-21057200D01*
X66595238Y-21057200D02*
X66690476Y-21104819D01*
X66690476Y-21104819D02*
X66928571Y-21104819D01*
X66928571Y-21104819D02*
X67023809Y-21057200D01*
X67023809Y-21057200D02*
X67071428Y-21009580D01*
X66214285Y-20104819D02*
X65880952Y-21104819D01*
X65880952Y-21104819D02*
X65547619Y-20104819D01*
X65023809Y-20104819D02*
X64928571Y-20104819D01*
X64928571Y-20104819D02*
X64833333Y-20152438D01*
X64833333Y-20152438D02*
X64785714Y-20200057D01*
X64785714Y-20200057D02*
X64738095Y-20295295D01*
X64738095Y-20295295D02*
X64690476Y-20485771D01*
X64690476Y-20485771D02*
X64690476Y-20723866D01*
X64690476Y-20723866D02*
X64738095Y-20914342D01*
X64738095Y-20914342D02*
X64785714Y-21009580D01*
X64785714Y-21009580D02*
X64833333Y-21057200D01*
X64833333Y-21057200D02*
X64928571Y-21104819D01*
X64928571Y-21104819D02*
X65023809Y-21104819D01*
X65023809Y-21104819D02*
X65119047Y-21057200D01*
X65119047Y-21057200D02*
X65166666Y-21009580D01*
X65166666Y-21009580D02*
X65214285Y-20914342D01*
X65214285Y-20914342D02*
X65261904Y-20723866D01*
X65261904Y-20723866D02*
X65261904Y-20485771D01*
X65261904Y-20485771D02*
X65214285Y-20295295D01*
X65214285Y-20295295D02*
X65166666Y-20200057D01*
X65166666Y-20200057D02*
X65119047Y-20152438D01*
X65119047Y-20152438D02*
X65023809Y-20104819D01*
X63785714Y-21104819D02*
X64261904Y-21104819D01*
X64261904Y-21104819D02*
X64261904Y-20104819D01*
X62928571Y-21104819D02*
X63499999Y-21104819D01*
X63214285Y-21104819D02*
X63214285Y-20104819D01*
X63214285Y-20104819D02*
X63309523Y-20247676D01*
X63309523Y-20247676D02*
X63404761Y-20342914D01*
X63404761Y-20342914D02*
X63499999Y-20390533D01*
X62499999Y-20104819D02*
X62499999Y-20914342D01*
X62499999Y-20914342D02*
X62452380Y-21009580D01*
X62452380Y-21009580D02*
X62404761Y-21057200D01*
X62404761Y-21057200D02*
X62309523Y-21104819D01*
X62309523Y-21104819D02*
X62119047Y-21104819D01*
X62119047Y-21104819D02*
X62023809Y-21057200D01*
X62023809Y-21057200D02*
X61976190Y-21009580D01*
X61976190Y-21009580D02*
X61928571Y-20914342D01*
X61928571Y-20914342D02*
X61928571Y-20104819D01*
X60976190Y-21104819D02*
X61452380Y-21104819D01*
X61452380Y-21104819D02*
X61452380Y-20104819D01*
X66611094Y-23804819D02*
X66611094Y-22804819D01*
X66611094Y-22804819D02*
X66372999Y-22804819D01*
X66372999Y-22804819D02*
X66230142Y-22852438D01*
X66230142Y-22852438D02*
X66134904Y-22947676D01*
X66134904Y-22947676D02*
X66087285Y-23042914D01*
X66087285Y-23042914D02*
X66039666Y-23233390D01*
X66039666Y-23233390D02*
X66039666Y-23376247D01*
X66039666Y-23376247D02*
X66087285Y-23566723D01*
X66087285Y-23566723D02*
X66134904Y-23661961D01*
X66134904Y-23661961D02*
X66230142Y-23757200D01*
X66230142Y-23757200D02*
X66372999Y-23804819D01*
X66372999Y-23804819D02*
X66611094Y-23804819D01*
X65706332Y-22804819D02*
X65087285Y-22804819D01*
X65087285Y-22804819D02*
X65420618Y-23185771D01*
X65420618Y-23185771D02*
X65277761Y-23185771D01*
X65277761Y-23185771D02*
X65182523Y-23233390D01*
X65182523Y-23233390D02*
X65134904Y-23281009D01*
X65134904Y-23281009D02*
X65087285Y-23376247D01*
X65087285Y-23376247D02*
X65087285Y-23614342D01*
X65087285Y-23614342D02*
X65134904Y-23709580D01*
X65134904Y-23709580D02*
X65182523Y-23757200D01*
X65182523Y-23757200D02*
X65277761Y-23804819D01*
X65277761Y-23804819D02*
X65563475Y-23804819D01*
X65563475Y-23804819D02*
X65658713Y-23757200D01*
X65658713Y-23757200D02*
X65706332Y-23709580D01*
X21880951Y-7870057D02*
X21833332Y-7822438D01*
X21833332Y-7822438D02*
X21738094Y-7774819D01*
X21738094Y-7774819D02*
X21499999Y-7774819D01*
X21499999Y-7774819D02*
X21404761Y-7822438D01*
X21404761Y-7822438D02*
X21357142Y-7870057D01*
X21357142Y-7870057D02*
X21309523Y-7965295D01*
X21309523Y-7965295D02*
X21309523Y-8060533D01*
X21309523Y-8060533D02*
X21357142Y-8203390D01*
X21357142Y-8203390D02*
X21928570Y-8774819D01*
X21928570Y-8774819D02*
X21309523Y-8774819D01*
X20880951Y-8679580D02*
X20833332Y-8727200D01*
X20833332Y-8727200D02*
X20880951Y-8774819D01*
X20880951Y-8774819D02*
X20928570Y-8727200D01*
X20928570Y-8727200D02*
X20880951Y-8679580D01*
X20880951Y-8679580D02*
X20880951Y-8774819D01*
X20452380Y-7870057D02*
X20404761Y-7822438D01*
X20404761Y-7822438D02*
X20309523Y-7774819D01*
X20309523Y-7774819D02*
X20071428Y-7774819D01*
X20071428Y-7774819D02*
X19976190Y-7822438D01*
X19976190Y-7822438D02*
X19928571Y-7870057D01*
X19928571Y-7870057D02*
X19880952Y-7965295D01*
X19880952Y-7965295D02*
X19880952Y-8060533D01*
X19880952Y-8060533D02*
X19928571Y-8203390D01*
X19928571Y-8203390D02*
X20499999Y-8774819D01*
X20499999Y-8774819D02*
X19880952Y-8774819D01*
X19452380Y-8108152D02*
X19452380Y-8774819D01*
X19452380Y-8203390D02*
X19404761Y-8155771D01*
X19404761Y-8155771D02*
X19309523Y-8108152D01*
X19309523Y-8108152D02*
X19166666Y-8108152D01*
X19166666Y-8108152D02*
X19071428Y-8155771D01*
X19071428Y-8155771D02*
X19023809Y-8251009D01*
X19023809Y-8251009D02*
X19023809Y-8774819D01*
X18214285Y-8251009D02*
X18547618Y-8251009D01*
X18547618Y-8774819D02*
X18547618Y-7774819D01*
X18547618Y-7774819D02*
X18071428Y-7774819D01*
D12*
X20083333Y-10179530D02*
X20107142Y-10203340D01*
X20107142Y-10203340D02*
X20178571Y-10227149D01*
X20178571Y-10227149D02*
X20226190Y-10227149D01*
X20226190Y-10227149D02*
X20297618Y-10203340D01*
X20297618Y-10203340D02*
X20345237Y-10155720D01*
X20345237Y-10155720D02*
X20369047Y-10108101D01*
X20369047Y-10108101D02*
X20392856Y-10012863D01*
X20392856Y-10012863D02*
X20392856Y-9941435D01*
X20392856Y-9941435D02*
X20369047Y-9846197D01*
X20369047Y-9846197D02*
X20345237Y-9798578D01*
X20345237Y-9798578D02*
X20297618Y-9750959D01*
X20297618Y-9750959D02*
X20226190Y-9727149D01*
X20226190Y-9727149D02*
X20178571Y-9727149D01*
X20178571Y-9727149D02*
X20107142Y-9750959D01*
X20107142Y-9750959D02*
X20083333Y-9774768D01*
X19916666Y-9727149D02*
X19583333Y-9727149D01*
X19583333Y-9727149D02*
X19797618Y-10227149D01*
D10*
X66928571Y-32138152D02*
X66928571Y-32804819D01*
X67166666Y-31757200D02*
X67404761Y-32471485D01*
X67404761Y-32471485D02*
X66785714Y-32471485D01*
X66404761Y-32709580D02*
X66357142Y-32757200D01*
X66357142Y-32757200D02*
X66404761Y-32804819D01*
X66404761Y-32804819D02*
X66452380Y-32757200D01*
X66452380Y-32757200D02*
X66404761Y-32709580D01*
X66404761Y-32709580D02*
X66404761Y-32804819D01*
X66023809Y-31804819D02*
X65357143Y-31804819D01*
X65357143Y-31804819D02*
X65785714Y-32804819D01*
X64976190Y-32804819D02*
X64976190Y-31804819D01*
X64880952Y-32423866D02*
X64595238Y-32804819D01*
X64595238Y-32138152D02*
X64976190Y-32519104D01*
D12*
X66321428Y-34227149D02*
X66488094Y-33989054D01*
X66607142Y-34227149D02*
X66607142Y-33727149D01*
X66607142Y-33727149D02*
X66416666Y-33727149D01*
X66416666Y-33727149D02*
X66369047Y-33750959D01*
X66369047Y-33750959D02*
X66345237Y-33774768D01*
X66345237Y-33774768D02*
X66321428Y-33822387D01*
X66321428Y-33822387D02*
X66321428Y-33893816D01*
X66321428Y-33893816D02*
X66345237Y-33941435D01*
X66345237Y-33941435D02*
X66369047Y-33965244D01*
X66369047Y-33965244D02*
X66416666Y-33989054D01*
X66416666Y-33989054D02*
X66607142Y-33989054D01*
X65845237Y-34227149D02*
X66130951Y-34227149D01*
X65988094Y-34227149D02*
X65988094Y-33727149D01*
X65988094Y-33727149D02*
X66035713Y-33798578D01*
X66035713Y-33798578D02*
X66083332Y-33846197D01*
X66083332Y-33846197D02*
X66130951Y-33870006D01*
X65535714Y-33727149D02*
X65488095Y-33727149D01*
X65488095Y-33727149D02*
X65440476Y-33750959D01*
X65440476Y-33750959D02*
X65416666Y-33774768D01*
X65416666Y-33774768D02*
X65392857Y-33822387D01*
X65392857Y-33822387D02*
X65369047Y-33917625D01*
X65369047Y-33917625D02*
X65369047Y-34036673D01*
X65369047Y-34036673D02*
X65392857Y-34131911D01*
X65392857Y-34131911D02*
X65416666Y-34179530D01*
X65416666Y-34179530D02*
X65440476Y-34203340D01*
X65440476Y-34203340D02*
X65488095Y-34227149D01*
X65488095Y-34227149D02*
X65535714Y-34227149D01*
X65535714Y-34227149D02*
X65583333Y-34203340D01*
X65583333Y-34203340D02*
X65607142Y-34179530D01*
X65607142Y-34179530D02*
X65630952Y-34131911D01*
X65630952Y-34131911D02*
X65654761Y-34036673D01*
X65654761Y-34036673D02*
X65654761Y-33917625D01*
X65654761Y-33917625D02*
X65630952Y-33822387D01*
X65630952Y-33822387D02*
X65607142Y-33774768D01*
X65607142Y-33774768D02*
X65583333Y-33750959D01*
X65583333Y-33750959D02*
X65535714Y-33727149D01*
D10*
X43071428Y-15774819D02*
X43642856Y-15774819D01*
X43357142Y-15774819D02*
X43357142Y-14774819D01*
X43357142Y-14774819D02*
X43452380Y-14917676D01*
X43452380Y-14917676D02*
X43547618Y-15012914D01*
X43547618Y-15012914D02*
X43642856Y-15060533D01*
X42452380Y-14774819D02*
X42357142Y-14774819D01*
X42357142Y-14774819D02*
X42261904Y-14822438D01*
X42261904Y-14822438D02*
X42214285Y-14870057D01*
X42214285Y-14870057D02*
X42166666Y-14965295D01*
X42166666Y-14965295D02*
X42119047Y-15155771D01*
X42119047Y-15155771D02*
X42119047Y-15393866D01*
X42119047Y-15393866D02*
X42166666Y-15584342D01*
X42166666Y-15584342D02*
X42214285Y-15679580D01*
X42214285Y-15679580D02*
X42261904Y-15727200D01*
X42261904Y-15727200D02*
X42357142Y-15774819D01*
X42357142Y-15774819D02*
X42452380Y-15774819D01*
X42452380Y-15774819D02*
X42547618Y-15727200D01*
X42547618Y-15727200D02*
X42595237Y-15679580D01*
X42595237Y-15679580D02*
X42642856Y-15584342D01*
X42642856Y-15584342D02*
X42690475Y-15393866D01*
X42690475Y-15393866D02*
X42690475Y-15155771D01*
X42690475Y-15155771D02*
X42642856Y-14965295D01*
X42642856Y-14965295D02*
X42595237Y-14870057D01*
X42595237Y-14870057D02*
X42547618Y-14822438D01*
X42547618Y-14822438D02*
X42452380Y-14774819D01*
X41261904Y-15108152D02*
X41261904Y-15774819D01*
X41690475Y-15108152D02*
X41690475Y-15631961D01*
X41690475Y-15631961D02*
X41642856Y-15727200D01*
X41642856Y-15727200D02*
X41547618Y-15774819D01*
X41547618Y-15774819D02*
X41404761Y-15774819D01*
X41404761Y-15774819D02*
X41309523Y-15727200D01*
X41309523Y-15727200D02*
X41261904Y-15679580D01*
X40452380Y-15251009D02*
X40785713Y-15251009D01*
X40785713Y-15774819D02*
X40785713Y-14774819D01*
X40785713Y-14774819D02*
X40309523Y-14774819D01*
D12*
X42083333Y-17179530D02*
X42107142Y-17203340D01*
X42107142Y-17203340D02*
X42178571Y-17227149D01*
X42178571Y-17227149D02*
X42226190Y-17227149D01*
X42226190Y-17227149D02*
X42297618Y-17203340D01*
X42297618Y-17203340D02*
X42345237Y-17155720D01*
X42345237Y-17155720D02*
X42369047Y-17108101D01*
X42369047Y-17108101D02*
X42392856Y-17012863D01*
X42392856Y-17012863D02*
X42392856Y-16941435D01*
X42392856Y-16941435D02*
X42369047Y-16846197D01*
X42369047Y-16846197D02*
X42345237Y-16798578D01*
X42345237Y-16798578D02*
X42297618Y-16750959D01*
X42297618Y-16750959D02*
X42226190Y-16727149D01*
X42226190Y-16727149D02*
X42178571Y-16727149D01*
X42178571Y-16727149D02*
X42107142Y-16750959D01*
X42107142Y-16750959D02*
X42083333Y-16774768D01*
X41630952Y-16727149D02*
X41869047Y-16727149D01*
X41869047Y-16727149D02*
X41892856Y-16965244D01*
X41892856Y-16965244D02*
X41869047Y-16941435D01*
X41869047Y-16941435D02*
X41821428Y-16917625D01*
X41821428Y-16917625D02*
X41702380Y-16917625D01*
X41702380Y-16917625D02*
X41654761Y-16941435D01*
X41654761Y-16941435D02*
X41630952Y-16965244D01*
X41630952Y-16965244D02*
X41607142Y-17012863D01*
X41607142Y-17012863D02*
X41607142Y-17131911D01*
X41607142Y-17131911D02*
X41630952Y-17179530D01*
X41630952Y-17179530D02*
X41654761Y-17203340D01*
X41654761Y-17203340D02*
X41702380Y-17227149D01*
X41702380Y-17227149D02*
X41821428Y-17227149D01*
X41821428Y-17227149D02*
X41869047Y-17203340D01*
X41869047Y-17203340D02*
X41892856Y-17179530D01*
D10*
X28714285Y-53150057D02*
X28666666Y-53102438D01*
X28666666Y-53102438D02*
X28571428Y-53054819D01*
X28571428Y-53054819D02*
X28333333Y-53054819D01*
X28333333Y-53054819D02*
X28238095Y-53102438D01*
X28238095Y-53102438D02*
X28190476Y-53150057D01*
X28190476Y-53150057D02*
X28142857Y-53245295D01*
X28142857Y-53245295D02*
X28142857Y-53340533D01*
X28142857Y-53340533D02*
X28190476Y-53483390D01*
X28190476Y-53483390D02*
X28761904Y-54054819D01*
X28761904Y-54054819D02*
X28142857Y-54054819D01*
X27714285Y-54054819D02*
X27714285Y-53054819D01*
X27714285Y-53054819D02*
X27142857Y-54054819D01*
X27142857Y-54054819D02*
X27142857Y-53054819D01*
X26761904Y-53054819D02*
X26095238Y-53054819D01*
X26095238Y-53054819D02*
X26523809Y-54054819D01*
X25523809Y-53054819D02*
X25428571Y-53054819D01*
X25428571Y-53054819D02*
X25333333Y-53102438D01*
X25333333Y-53102438D02*
X25285714Y-53150057D01*
X25285714Y-53150057D02*
X25238095Y-53245295D01*
X25238095Y-53245295D02*
X25190476Y-53435771D01*
X25190476Y-53435771D02*
X25190476Y-53673866D01*
X25190476Y-53673866D02*
X25238095Y-53864342D01*
X25238095Y-53864342D02*
X25285714Y-53959580D01*
X25285714Y-53959580D02*
X25333333Y-54007200D01*
X25333333Y-54007200D02*
X25428571Y-54054819D01*
X25428571Y-54054819D02*
X25523809Y-54054819D01*
X25523809Y-54054819D02*
X25619047Y-54007200D01*
X25619047Y-54007200D02*
X25666666Y-53959580D01*
X25666666Y-53959580D02*
X25714285Y-53864342D01*
X25714285Y-53864342D02*
X25761904Y-53673866D01*
X25761904Y-53673866D02*
X25761904Y-53435771D01*
X25761904Y-53435771D02*
X25714285Y-53245295D01*
X25714285Y-53245295D02*
X25666666Y-53150057D01*
X25666666Y-53150057D02*
X25619047Y-53102438D01*
X25619047Y-53102438D02*
X25523809Y-53054819D01*
X24571428Y-53054819D02*
X24476190Y-53054819D01*
X24476190Y-53054819D02*
X24380952Y-53102438D01*
X24380952Y-53102438D02*
X24333333Y-53150057D01*
X24333333Y-53150057D02*
X24285714Y-53245295D01*
X24285714Y-53245295D02*
X24238095Y-53435771D01*
X24238095Y-53435771D02*
X24238095Y-53673866D01*
X24238095Y-53673866D02*
X24285714Y-53864342D01*
X24285714Y-53864342D02*
X24333333Y-53959580D01*
X24333333Y-53959580D02*
X24380952Y-54007200D01*
X24380952Y-54007200D02*
X24476190Y-54054819D01*
X24476190Y-54054819D02*
X24571428Y-54054819D01*
X24571428Y-54054819D02*
X24666666Y-54007200D01*
X24666666Y-54007200D02*
X24714285Y-53959580D01*
X24714285Y-53959580D02*
X24761904Y-53864342D01*
X24761904Y-53864342D02*
X24809523Y-53673866D01*
X24809523Y-53673866D02*
X24809523Y-53435771D01*
X24809523Y-53435771D02*
X24761904Y-53245295D01*
X24761904Y-53245295D02*
X24714285Y-53150057D01*
X24714285Y-53150057D02*
X24666666Y-53102438D01*
X24666666Y-53102438D02*
X24571428Y-53054819D01*
X23857142Y-53150057D02*
X23809523Y-53102438D01*
X23809523Y-53102438D02*
X23714285Y-53054819D01*
X23714285Y-53054819D02*
X23476190Y-53054819D01*
X23476190Y-53054819D02*
X23380952Y-53102438D01*
X23380952Y-53102438D02*
X23333333Y-53150057D01*
X23333333Y-53150057D02*
X23285714Y-53245295D01*
X23285714Y-53245295D02*
X23285714Y-53340533D01*
X23285714Y-53340533D02*
X23333333Y-53483390D01*
X23333333Y-53483390D02*
X23904761Y-54054819D01*
X23904761Y-54054819D02*
X23285714Y-54054819D01*
D11*
X26395937Y-55931428D02*
X26361651Y-55862857D01*
X26361651Y-55862857D02*
X26293080Y-55794285D01*
X26293080Y-55794285D02*
X26190222Y-55691428D01*
X26190222Y-55691428D02*
X26155937Y-55622857D01*
X26155937Y-55622857D02*
X26155937Y-55554285D01*
X26327365Y-55588571D02*
X26293080Y-55520000D01*
X26293080Y-55520000D02*
X26224508Y-55451428D01*
X26224508Y-55451428D02*
X26087365Y-55417142D01*
X26087365Y-55417142D02*
X25847365Y-55417142D01*
X25847365Y-55417142D02*
X25710222Y-55451428D01*
X25710222Y-55451428D02*
X25641651Y-55520000D01*
X25641651Y-55520000D02*
X25607365Y-55588571D01*
X25607365Y-55588571D02*
X25607365Y-55725714D01*
X25607365Y-55725714D02*
X25641651Y-55794285D01*
X25641651Y-55794285D02*
X25710222Y-55862857D01*
X25710222Y-55862857D02*
X25847365Y-55897142D01*
X25847365Y-55897142D02*
X26087365Y-55897142D01*
X26087365Y-55897142D02*
X26224508Y-55862857D01*
X26224508Y-55862857D02*
X26293080Y-55794285D01*
X26293080Y-55794285D02*
X26327365Y-55725714D01*
X26327365Y-55725714D02*
X26327365Y-55588571D01*
X25607365Y-56137143D02*
X25607365Y-56582857D01*
X25607365Y-56582857D02*
X25881651Y-56342857D01*
X25881651Y-56342857D02*
X25881651Y-56445714D01*
X25881651Y-56445714D02*
X25915937Y-56514286D01*
X25915937Y-56514286D02*
X25950222Y-56548571D01*
X25950222Y-56548571D02*
X26018794Y-56582857D01*
X26018794Y-56582857D02*
X26190222Y-56582857D01*
X26190222Y-56582857D02*
X26258794Y-56548571D01*
X26258794Y-56548571D02*
X26293080Y-56514286D01*
X26293080Y-56514286D02*
X26327365Y-56445714D01*
X26327365Y-56445714D02*
X26327365Y-56240000D01*
X26327365Y-56240000D02*
X26293080Y-56171428D01*
X26293080Y-56171428D02*
X26258794Y-56137143D01*
D10*
X10595238Y-36804819D02*
X11166666Y-36804819D01*
X10880952Y-36804819D02*
X10880952Y-35804819D01*
X10880952Y-35804819D02*
X10976190Y-35947676D01*
X10976190Y-35947676D02*
X11071428Y-36042914D01*
X11071428Y-36042914D02*
X11166666Y-36090533D01*
X9976190Y-35804819D02*
X9880952Y-35804819D01*
X9880952Y-35804819D02*
X9785714Y-35852438D01*
X9785714Y-35852438D02*
X9738095Y-35900057D01*
X9738095Y-35900057D02*
X9690476Y-35995295D01*
X9690476Y-35995295D02*
X9642857Y-36185771D01*
X9642857Y-36185771D02*
X9642857Y-36423866D01*
X9642857Y-36423866D02*
X9690476Y-36614342D01*
X9690476Y-36614342D02*
X9738095Y-36709580D01*
X9738095Y-36709580D02*
X9785714Y-36757200D01*
X9785714Y-36757200D02*
X9880952Y-36804819D01*
X9880952Y-36804819D02*
X9976190Y-36804819D01*
X9976190Y-36804819D02*
X10071428Y-36757200D01*
X10071428Y-36757200D02*
X10119047Y-36709580D01*
X10119047Y-36709580D02*
X10166666Y-36614342D01*
X10166666Y-36614342D02*
X10214285Y-36423866D01*
X10214285Y-36423866D02*
X10214285Y-36185771D01*
X10214285Y-36185771D02*
X10166666Y-35995295D01*
X10166666Y-35995295D02*
X10119047Y-35900057D01*
X10119047Y-35900057D02*
X10071428Y-35852438D01*
X10071428Y-35852438D02*
X9976190Y-35804819D01*
X9214285Y-36804819D02*
X9214285Y-35804819D01*
X9119047Y-36423866D02*
X8833333Y-36804819D01*
X8833333Y-36138152D02*
X9214285Y-36519104D01*
D12*
X10083333Y-38227149D02*
X10249999Y-37989054D01*
X10369047Y-38227149D02*
X10369047Y-37727149D01*
X10369047Y-37727149D02*
X10178571Y-37727149D01*
X10178571Y-37727149D02*
X10130952Y-37750959D01*
X10130952Y-37750959D02*
X10107142Y-37774768D01*
X10107142Y-37774768D02*
X10083333Y-37822387D01*
X10083333Y-37822387D02*
X10083333Y-37893816D01*
X10083333Y-37893816D02*
X10107142Y-37941435D01*
X10107142Y-37941435D02*
X10130952Y-37965244D01*
X10130952Y-37965244D02*
X10178571Y-37989054D01*
X10178571Y-37989054D02*
X10369047Y-37989054D01*
X9654761Y-37893816D02*
X9654761Y-38227149D01*
X9773809Y-37703340D02*
X9892856Y-38060482D01*
X9892856Y-38060482D02*
X9583333Y-38060482D01*
D10*
X70880952Y-17104819D02*
X70880952Y-16104819D01*
X70880952Y-16104819D02*
X70500000Y-16104819D01*
X70500000Y-16104819D02*
X70404762Y-16152438D01*
X70404762Y-16152438D02*
X70357143Y-16200057D01*
X70357143Y-16200057D02*
X70309524Y-16295295D01*
X70309524Y-16295295D02*
X70309524Y-16438152D01*
X70309524Y-16438152D02*
X70357143Y-16533390D01*
X70357143Y-16533390D02*
X70404762Y-16581009D01*
X70404762Y-16581009D02*
X70500000Y-16628628D01*
X70500000Y-16628628D02*
X70880952Y-16628628D01*
X69880952Y-16581009D02*
X69547619Y-16581009D01*
X69404762Y-17104819D02*
X69880952Y-17104819D01*
X69880952Y-17104819D02*
X69880952Y-16104819D01*
X69880952Y-16104819D02*
X69404762Y-16104819D01*
X69023809Y-17057200D02*
X68880952Y-17104819D01*
X68880952Y-17104819D02*
X68642857Y-17104819D01*
X68642857Y-17104819D02*
X68547619Y-17057200D01*
X68547619Y-17057200D02*
X68500000Y-17009580D01*
X68500000Y-17009580D02*
X68452381Y-16914342D01*
X68452381Y-16914342D02*
X68452381Y-16819104D01*
X68452381Y-16819104D02*
X68500000Y-16723866D01*
X68500000Y-16723866D02*
X68547619Y-16676247D01*
X68547619Y-16676247D02*
X68642857Y-16628628D01*
X68642857Y-16628628D02*
X68833333Y-16581009D01*
X68833333Y-16581009D02*
X68928571Y-16533390D01*
X68928571Y-16533390D02*
X68976190Y-16485771D01*
X68976190Y-16485771D02*
X69023809Y-16390533D01*
X69023809Y-16390533D02*
X69023809Y-16295295D01*
X69023809Y-16295295D02*
X68976190Y-16200057D01*
X68976190Y-16200057D02*
X68928571Y-16152438D01*
X68928571Y-16152438D02*
X68833333Y-16104819D01*
X68833333Y-16104819D02*
X68595238Y-16104819D01*
X68595238Y-16104819D02*
X68452381Y-16152438D01*
X68023809Y-17104819D02*
X68023809Y-16104819D01*
X68023809Y-16104819D02*
X67785714Y-16104819D01*
X67785714Y-16104819D02*
X67642857Y-16152438D01*
X67642857Y-16152438D02*
X67547619Y-16247676D01*
X67547619Y-16247676D02*
X67500000Y-16342914D01*
X67500000Y-16342914D02*
X67452381Y-16533390D01*
X67452381Y-16533390D02*
X67452381Y-16676247D01*
X67452381Y-16676247D02*
X67500000Y-16866723D01*
X67500000Y-16866723D02*
X67547619Y-16961961D01*
X67547619Y-16961961D02*
X67642857Y-17057200D01*
X67642857Y-17057200D02*
X67785714Y-17104819D01*
X67785714Y-17104819D02*
X68023809Y-17104819D01*
X66547619Y-16104819D02*
X67023809Y-16104819D01*
X67023809Y-16104819D02*
X67071428Y-16581009D01*
X67071428Y-16581009D02*
X67023809Y-16533390D01*
X67023809Y-16533390D02*
X66928571Y-16485771D01*
X66928571Y-16485771D02*
X66690476Y-16485771D01*
X66690476Y-16485771D02*
X66595238Y-16533390D01*
X66595238Y-16533390D02*
X66547619Y-16581009D01*
X66547619Y-16581009D02*
X66500000Y-16676247D01*
X66500000Y-16676247D02*
X66500000Y-16914342D01*
X66500000Y-16914342D02*
X66547619Y-17009580D01*
X66547619Y-17009580D02*
X66595238Y-17057200D01*
X66595238Y-17057200D02*
X66690476Y-17104819D01*
X66690476Y-17104819D02*
X66928571Y-17104819D01*
X66928571Y-17104819D02*
X67023809Y-17057200D01*
X67023809Y-17057200D02*
X67071428Y-17009580D01*
X66214285Y-16104819D02*
X65880952Y-17104819D01*
X65880952Y-17104819D02*
X65547619Y-16104819D01*
X65023809Y-16104819D02*
X64928571Y-16104819D01*
X64928571Y-16104819D02*
X64833333Y-16152438D01*
X64833333Y-16152438D02*
X64785714Y-16200057D01*
X64785714Y-16200057D02*
X64738095Y-16295295D01*
X64738095Y-16295295D02*
X64690476Y-16485771D01*
X64690476Y-16485771D02*
X64690476Y-16723866D01*
X64690476Y-16723866D02*
X64738095Y-16914342D01*
X64738095Y-16914342D02*
X64785714Y-17009580D01*
X64785714Y-17009580D02*
X64833333Y-17057200D01*
X64833333Y-17057200D02*
X64928571Y-17104819D01*
X64928571Y-17104819D02*
X65023809Y-17104819D01*
X65023809Y-17104819D02*
X65119047Y-17057200D01*
X65119047Y-17057200D02*
X65166666Y-17009580D01*
X65166666Y-17009580D02*
X65214285Y-16914342D01*
X65214285Y-16914342D02*
X65261904Y-16723866D01*
X65261904Y-16723866D02*
X65261904Y-16485771D01*
X65261904Y-16485771D02*
X65214285Y-16295295D01*
X65214285Y-16295295D02*
X65166666Y-16200057D01*
X65166666Y-16200057D02*
X65119047Y-16152438D01*
X65119047Y-16152438D02*
X65023809Y-16104819D01*
X63785714Y-17104819D02*
X64261904Y-17104819D01*
X64261904Y-17104819D02*
X64261904Y-16104819D01*
X62928571Y-17104819D02*
X63499999Y-17104819D01*
X63214285Y-17104819D02*
X63214285Y-16104819D01*
X63214285Y-16104819D02*
X63309523Y-16247676D01*
X63309523Y-16247676D02*
X63404761Y-16342914D01*
X63404761Y-16342914D02*
X63499999Y-16390533D01*
X62499999Y-16104819D02*
X62499999Y-16914342D01*
X62499999Y-16914342D02*
X62452380Y-17009580D01*
X62452380Y-17009580D02*
X62404761Y-17057200D01*
X62404761Y-17057200D02*
X62309523Y-17104819D01*
X62309523Y-17104819D02*
X62119047Y-17104819D01*
X62119047Y-17104819D02*
X62023809Y-17057200D01*
X62023809Y-17057200D02*
X61976190Y-17009580D01*
X61976190Y-17009580D02*
X61928571Y-16914342D01*
X61928571Y-16914342D02*
X61928571Y-16104819D01*
X60976190Y-17104819D02*
X61452380Y-17104819D01*
X61452380Y-17104819D02*
X61452380Y-16104819D01*
X66611094Y-19804819D02*
X66611094Y-18804819D01*
X66611094Y-18804819D02*
X66372999Y-18804819D01*
X66372999Y-18804819D02*
X66230142Y-18852438D01*
X66230142Y-18852438D02*
X66134904Y-18947676D01*
X66134904Y-18947676D02*
X66087285Y-19042914D01*
X66087285Y-19042914D02*
X66039666Y-19233390D01*
X66039666Y-19233390D02*
X66039666Y-19376247D01*
X66039666Y-19376247D02*
X66087285Y-19566723D01*
X66087285Y-19566723D02*
X66134904Y-19661961D01*
X66134904Y-19661961D02*
X66230142Y-19757200D01*
X66230142Y-19757200D02*
X66372999Y-19804819D01*
X66372999Y-19804819D02*
X66611094Y-19804819D01*
X65658713Y-18900057D02*
X65611094Y-18852438D01*
X65611094Y-18852438D02*
X65515856Y-18804819D01*
X65515856Y-18804819D02*
X65277761Y-18804819D01*
X65277761Y-18804819D02*
X65182523Y-18852438D01*
X65182523Y-18852438D02*
X65134904Y-18900057D01*
X65134904Y-18900057D02*
X65087285Y-18995295D01*
X65087285Y-18995295D02*
X65087285Y-19090533D01*
X65087285Y-19090533D02*
X65134904Y-19233390D01*
X65134904Y-19233390D02*
X65706332Y-19804819D01*
X65706332Y-19804819D02*
X65087285Y-19804819D01*
X46928571Y-48138152D02*
X46928571Y-48804819D01*
X47166666Y-47757200D02*
X47404761Y-48471485D01*
X47404761Y-48471485D02*
X46785714Y-48471485D01*
X46404761Y-48709580D02*
X46357142Y-48757200D01*
X46357142Y-48757200D02*
X46404761Y-48804819D01*
X46404761Y-48804819D02*
X46452380Y-48757200D01*
X46452380Y-48757200D02*
X46404761Y-48709580D01*
X46404761Y-48709580D02*
X46404761Y-48804819D01*
X46023809Y-47804819D02*
X45357143Y-47804819D01*
X45357143Y-47804819D02*
X45785714Y-48804819D01*
X44976190Y-48804819D02*
X44976190Y-47804819D01*
X44880952Y-48423866D02*
X44595238Y-48804819D01*
X44595238Y-48138152D02*
X44976190Y-48519104D01*
D12*
X46083333Y-50227149D02*
X46249999Y-49989054D01*
X46369047Y-50227149D02*
X46369047Y-49727149D01*
X46369047Y-49727149D02*
X46178571Y-49727149D01*
X46178571Y-49727149D02*
X46130952Y-49750959D01*
X46130952Y-49750959D02*
X46107142Y-49774768D01*
X46107142Y-49774768D02*
X46083333Y-49822387D01*
X46083333Y-49822387D02*
X46083333Y-49893816D01*
X46083333Y-49893816D02*
X46107142Y-49941435D01*
X46107142Y-49941435D02*
X46130952Y-49965244D01*
X46130952Y-49965244D02*
X46178571Y-49989054D01*
X46178571Y-49989054D02*
X46369047Y-49989054D01*
X45845237Y-50227149D02*
X45749999Y-50227149D01*
X45749999Y-50227149D02*
X45702380Y-50203340D01*
X45702380Y-50203340D02*
X45678571Y-50179530D01*
X45678571Y-50179530D02*
X45630952Y-50108101D01*
X45630952Y-50108101D02*
X45607142Y-50012863D01*
X45607142Y-50012863D02*
X45607142Y-49822387D01*
X45607142Y-49822387D02*
X45630952Y-49774768D01*
X45630952Y-49774768D02*
X45654761Y-49750959D01*
X45654761Y-49750959D02*
X45702380Y-49727149D01*
X45702380Y-49727149D02*
X45797618Y-49727149D01*
X45797618Y-49727149D02*
X45845237Y-49750959D01*
X45845237Y-49750959D02*
X45869047Y-49774768D01*
X45869047Y-49774768D02*
X45892856Y-49822387D01*
X45892856Y-49822387D02*
X45892856Y-49941435D01*
X45892856Y-49941435D02*
X45869047Y-49989054D01*
X45869047Y-49989054D02*
X45845237Y-50012863D01*
X45845237Y-50012863D02*
X45797618Y-50036673D01*
X45797618Y-50036673D02*
X45702380Y-50036673D01*
X45702380Y-50036673D02*
X45654761Y-50012863D01*
X45654761Y-50012863D02*
X45630952Y-49989054D01*
X45630952Y-49989054D02*
X45607142Y-49941435D01*
D10*
X6595238Y-36804819D02*
X7166666Y-36804819D01*
X6880952Y-36804819D02*
X6880952Y-35804819D01*
X6880952Y-35804819D02*
X6976190Y-35947676D01*
X6976190Y-35947676D02*
X7071428Y-36042914D01*
X7071428Y-36042914D02*
X7166666Y-36090533D01*
X5976190Y-35804819D02*
X5880952Y-35804819D01*
X5880952Y-35804819D02*
X5785714Y-35852438D01*
X5785714Y-35852438D02*
X5738095Y-35900057D01*
X5738095Y-35900057D02*
X5690476Y-35995295D01*
X5690476Y-35995295D02*
X5642857Y-36185771D01*
X5642857Y-36185771D02*
X5642857Y-36423866D01*
X5642857Y-36423866D02*
X5690476Y-36614342D01*
X5690476Y-36614342D02*
X5738095Y-36709580D01*
X5738095Y-36709580D02*
X5785714Y-36757200D01*
X5785714Y-36757200D02*
X5880952Y-36804819D01*
X5880952Y-36804819D02*
X5976190Y-36804819D01*
X5976190Y-36804819D02*
X6071428Y-36757200D01*
X6071428Y-36757200D02*
X6119047Y-36709580D01*
X6119047Y-36709580D02*
X6166666Y-36614342D01*
X6166666Y-36614342D02*
X6214285Y-36423866D01*
X6214285Y-36423866D02*
X6214285Y-36185771D01*
X6214285Y-36185771D02*
X6166666Y-35995295D01*
X6166666Y-35995295D02*
X6119047Y-35900057D01*
X6119047Y-35900057D02*
X6071428Y-35852438D01*
X6071428Y-35852438D02*
X5976190Y-35804819D01*
X5214285Y-36804819D02*
X5214285Y-35804819D01*
X5119047Y-36423866D02*
X4833333Y-36804819D01*
X4833333Y-36138152D02*
X5214285Y-36519104D01*
D12*
X6083333Y-38227149D02*
X6249999Y-37989054D01*
X6369047Y-38227149D02*
X6369047Y-37727149D01*
X6369047Y-37727149D02*
X6178571Y-37727149D01*
X6178571Y-37727149D02*
X6130952Y-37750959D01*
X6130952Y-37750959D02*
X6107142Y-37774768D01*
X6107142Y-37774768D02*
X6083333Y-37822387D01*
X6083333Y-37822387D02*
X6083333Y-37893816D01*
X6083333Y-37893816D02*
X6107142Y-37941435D01*
X6107142Y-37941435D02*
X6130952Y-37965244D01*
X6130952Y-37965244D02*
X6178571Y-37989054D01*
X6178571Y-37989054D02*
X6369047Y-37989054D01*
X5916666Y-37727149D02*
X5607142Y-37727149D01*
X5607142Y-37727149D02*
X5773809Y-37917625D01*
X5773809Y-37917625D02*
X5702380Y-37917625D01*
X5702380Y-37917625D02*
X5654761Y-37941435D01*
X5654761Y-37941435D02*
X5630952Y-37965244D01*
X5630952Y-37965244D02*
X5607142Y-38012863D01*
X5607142Y-38012863D02*
X5607142Y-38131911D01*
X5607142Y-38131911D02*
X5630952Y-38179530D01*
X5630952Y-38179530D02*
X5654761Y-38203340D01*
X5654761Y-38203340D02*
X5702380Y-38227149D01*
X5702380Y-38227149D02*
X5845237Y-38227149D01*
X5845237Y-38227149D02*
X5892856Y-38203340D01*
X5892856Y-38203340D02*
X5916666Y-38179530D01*
D10*
X36595238Y-20774819D02*
X37166666Y-20774819D01*
X36880952Y-20774819D02*
X36880952Y-19774819D01*
X36880952Y-19774819D02*
X36976190Y-19917676D01*
X36976190Y-19917676D02*
X37071428Y-20012914D01*
X37071428Y-20012914D02*
X37166666Y-20060533D01*
X35738095Y-20108152D02*
X35738095Y-20774819D01*
X36166666Y-20108152D02*
X36166666Y-20631961D01*
X36166666Y-20631961D02*
X36119047Y-20727200D01*
X36119047Y-20727200D02*
X36023809Y-20774819D01*
X36023809Y-20774819D02*
X35880952Y-20774819D01*
X35880952Y-20774819D02*
X35785714Y-20727200D01*
X35785714Y-20727200D02*
X35738095Y-20679580D01*
X34928571Y-20251009D02*
X35261904Y-20251009D01*
X35261904Y-20774819D02*
X35261904Y-19774819D01*
X35261904Y-19774819D02*
X34785714Y-19774819D01*
D12*
X36083333Y-22179530D02*
X36107142Y-22203340D01*
X36107142Y-22203340D02*
X36178571Y-22227149D01*
X36178571Y-22227149D02*
X36226190Y-22227149D01*
X36226190Y-22227149D02*
X36297618Y-22203340D01*
X36297618Y-22203340D02*
X36345237Y-22155720D01*
X36345237Y-22155720D02*
X36369047Y-22108101D01*
X36369047Y-22108101D02*
X36392856Y-22012863D01*
X36392856Y-22012863D02*
X36392856Y-21941435D01*
X36392856Y-21941435D02*
X36369047Y-21846197D01*
X36369047Y-21846197D02*
X36345237Y-21798578D01*
X36345237Y-21798578D02*
X36297618Y-21750959D01*
X36297618Y-21750959D02*
X36226190Y-21727149D01*
X36226190Y-21727149D02*
X36178571Y-21727149D01*
X36178571Y-21727149D02*
X36107142Y-21750959D01*
X36107142Y-21750959D02*
X36083333Y-21774768D01*
X35654761Y-21893816D02*
X35654761Y-22227149D01*
X35773809Y-21703340D02*
X35892856Y-22060482D01*
X35892856Y-22060482D02*
X35583333Y-22060482D01*
D10*
X25690475Y-21054819D02*
X25690475Y-20054819D01*
X25690475Y-20054819D02*
X25357142Y-20769104D01*
X25357142Y-20769104D02*
X25023809Y-20054819D01*
X25023809Y-20054819D02*
X25023809Y-21054819D01*
X24547618Y-21054819D02*
X24547618Y-20054819D01*
X24547618Y-20054819D02*
X24214285Y-20769104D01*
X24214285Y-20769104D02*
X23880952Y-20054819D01*
X23880952Y-20054819D02*
X23880952Y-21054819D01*
X23071428Y-20531009D02*
X22928571Y-20578628D01*
X22928571Y-20578628D02*
X22880952Y-20626247D01*
X22880952Y-20626247D02*
X22833333Y-20721485D01*
X22833333Y-20721485D02*
X22833333Y-20864342D01*
X22833333Y-20864342D02*
X22880952Y-20959580D01*
X22880952Y-20959580D02*
X22928571Y-21007200D01*
X22928571Y-21007200D02*
X23023809Y-21054819D01*
X23023809Y-21054819D02*
X23404761Y-21054819D01*
X23404761Y-21054819D02*
X23404761Y-20054819D01*
X23404761Y-20054819D02*
X23071428Y-20054819D01*
X23071428Y-20054819D02*
X22976190Y-20102438D01*
X22976190Y-20102438D02*
X22928571Y-20150057D01*
X22928571Y-20150057D02*
X22880952Y-20245295D01*
X22880952Y-20245295D02*
X22880952Y-20340533D01*
X22880952Y-20340533D02*
X22928571Y-20435771D01*
X22928571Y-20435771D02*
X22976190Y-20483390D01*
X22976190Y-20483390D02*
X23071428Y-20531009D01*
X23071428Y-20531009D02*
X23404761Y-20531009D01*
X22547618Y-20054819D02*
X21976190Y-20054819D01*
X22261904Y-21054819D02*
X22261904Y-20054819D01*
X21738094Y-20054819D02*
X21119047Y-20054819D01*
X21119047Y-20054819D02*
X21452380Y-20435771D01*
X21452380Y-20435771D02*
X21309523Y-20435771D01*
X21309523Y-20435771D02*
X21214285Y-20483390D01*
X21214285Y-20483390D02*
X21166666Y-20531009D01*
X21166666Y-20531009D02*
X21119047Y-20626247D01*
X21119047Y-20626247D02*
X21119047Y-20864342D01*
X21119047Y-20864342D02*
X21166666Y-20959580D01*
X21166666Y-20959580D02*
X21214285Y-21007200D01*
X21214285Y-21007200D02*
X21309523Y-21054819D01*
X21309523Y-21054819D02*
X21595237Y-21054819D01*
X21595237Y-21054819D02*
X21690475Y-21007200D01*
X21690475Y-21007200D02*
X21738094Y-20959580D01*
X20642856Y-21054819D02*
X20452380Y-21054819D01*
X20452380Y-21054819D02*
X20357142Y-21007200D01*
X20357142Y-21007200D02*
X20309523Y-20959580D01*
X20309523Y-20959580D02*
X20214285Y-20816723D01*
X20214285Y-20816723D02*
X20166666Y-20626247D01*
X20166666Y-20626247D02*
X20166666Y-20245295D01*
X20166666Y-20245295D02*
X20214285Y-20150057D01*
X20214285Y-20150057D02*
X20261904Y-20102438D01*
X20261904Y-20102438D02*
X20357142Y-20054819D01*
X20357142Y-20054819D02*
X20547618Y-20054819D01*
X20547618Y-20054819D02*
X20642856Y-20102438D01*
X20642856Y-20102438D02*
X20690475Y-20150057D01*
X20690475Y-20150057D02*
X20738094Y-20245295D01*
X20738094Y-20245295D02*
X20738094Y-20483390D01*
X20738094Y-20483390D02*
X20690475Y-20578628D01*
X20690475Y-20578628D02*
X20642856Y-20626247D01*
X20642856Y-20626247D02*
X20547618Y-20673866D01*
X20547618Y-20673866D02*
X20357142Y-20673866D01*
X20357142Y-20673866D02*
X20261904Y-20626247D01*
X20261904Y-20626247D02*
X20214285Y-20578628D01*
X20214285Y-20578628D02*
X20166666Y-20483390D01*
X19547618Y-20054819D02*
X19452380Y-20054819D01*
X19452380Y-20054819D02*
X19357142Y-20102438D01*
X19357142Y-20102438D02*
X19309523Y-20150057D01*
X19309523Y-20150057D02*
X19261904Y-20245295D01*
X19261904Y-20245295D02*
X19214285Y-20435771D01*
X19214285Y-20435771D02*
X19214285Y-20673866D01*
X19214285Y-20673866D02*
X19261904Y-20864342D01*
X19261904Y-20864342D02*
X19309523Y-20959580D01*
X19309523Y-20959580D02*
X19357142Y-21007200D01*
X19357142Y-21007200D02*
X19452380Y-21054819D01*
X19452380Y-21054819D02*
X19547618Y-21054819D01*
X19547618Y-21054819D02*
X19642856Y-21007200D01*
X19642856Y-21007200D02*
X19690475Y-20959580D01*
X19690475Y-20959580D02*
X19738094Y-20864342D01*
X19738094Y-20864342D02*
X19785713Y-20673866D01*
X19785713Y-20673866D02*
X19785713Y-20435771D01*
X19785713Y-20435771D02*
X19738094Y-20245295D01*
X19738094Y-20245295D02*
X19690475Y-20150057D01*
X19690475Y-20150057D02*
X19642856Y-20102438D01*
X19642856Y-20102438D02*
X19547618Y-20054819D01*
X18357142Y-20388152D02*
X18357142Y-21054819D01*
X18595237Y-20007200D02*
X18833332Y-20721485D01*
X18833332Y-20721485D02*
X18214285Y-20721485D01*
D11*
X22395937Y-22931428D02*
X22361651Y-22862857D01*
X22361651Y-22862857D02*
X22293080Y-22794285D01*
X22293080Y-22794285D02*
X22190222Y-22691428D01*
X22190222Y-22691428D02*
X22155937Y-22622857D01*
X22155937Y-22622857D02*
X22155937Y-22554285D01*
X22327365Y-22588571D02*
X22293080Y-22520000D01*
X22293080Y-22520000D02*
X22224508Y-22451428D01*
X22224508Y-22451428D02*
X22087365Y-22417142D01*
X22087365Y-22417142D02*
X21847365Y-22417142D01*
X21847365Y-22417142D02*
X21710222Y-22451428D01*
X21710222Y-22451428D02*
X21641651Y-22520000D01*
X21641651Y-22520000D02*
X21607365Y-22588571D01*
X21607365Y-22588571D02*
X21607365Y-22725714D01*
X21607365Y-22725714D02*
X21641651Y-22794285D01*
X21641651Y-22794285D02*
X21710222Y-22862857D01*
X21710222Y-22862857D02*
X21847365Y-22897142D01*
X21847365Y-22897142D02*
X22087365Y-22897142D01*
X22087365Y-22897142D02*
X22224508Y-22862857D01*
X22224508Y-22862857D02*
X22293080Y-22794285D01*
X22293080Y-22794285D02*
X22327365Y-22725714D01*
X22327365Y-22725714D02*
X22327365Y-22588571D01*
X22327365Y-23582857D02*
X22327365Y-23171428D01*
X22327365Y-23377143D02*
X21607365Y-23377143D01*
X21607365Y-23377143D02*
X21710222Y-23308571D01*
X21710222Y-23308571D02*
X21778794Y-23240000D01*
X21778794Y-23240000D02*
X21813080Y-23171428D01*
D10*
X8809523Y-14624819D02*
X9285713Y-14624819D01*
X9285713Y-14624819D02*
X9333332Y-15101009D01*
X9333332Y-15101009D02*
X9285713Y-15053390D01*
X9285713Y-15053390D02*
X9190475Y-15005771D01*
X9190475Y-15005771D02*
X8952380Y-15005771D01*
X8952380Y-15005771D02*
X8857142Y-15053390D01*
X8857142Y-15053390D02*
X8809523Y-15101009D01*
X8809523Y-15101009D02*
X8761904Y-15196247D01*
X8761904Y-15196247D02*
X8761904Y-15434342D01*
X8761904Y-15434342D02*
X8809523Y-15529580D01*
X8809523Y-15529580D02*
X8857142Y-15577200D01*
X8857142Y-15577200D02*
X8952380Y-15624819D01*
X8952380Y-15624819D02*
X9190475Y-15624819D01*
X9190475Y-15624819D02*
X9285713Y-15577200D01*
X9285713Y-15577200D02*
X9333332Y-15529580D01*
X8142856Y-14624819D02*
X8047618Y-14624819D01*
X8047618Y-14624819D02*
X7952380Y-14672438D01*
X7952380Y-14672438D02*
X7904761Y-14720057D01*
X7904761Y-14720057D02*
X7857142Y-14815295D01*
X7857142Y-14815295D02*
X7809523Y-15005771D01*
X7809523Y-15005771D02*
X7809523Y-15243866D01*
X7809523Y-15243866D02*
X7857142Y-15434342D01*
X7857142Y-15434342D02*
X7904761Y-15529580D01*
X7904761Y-15529580D02*
X7952380Y-15577200D01*
X7952380Y-15577200D02*
X8047618Y-15624819D01*
X8047618Y-15624819D02*
X8142856Y-15624819D01*
X8142856Y-15624819D02*
X8238094Y-15577200D01*
X8238094Y-15577200D02*
X8285713Y-15529580D01*
X8285713Y-15529580D02*
X8333332Y-15434342D01*
X8333332Y-15434342D02*
X8380951Y-15243866D01*
X8380951Y-15243866D02*
X8380951Y-15005771D01*
X8380951Y-15005771D02*
X8333332Y-14815295D01*
X8333332Y-14815295D02*
X8285713Y-14720057D01*
X8285713Y-14720057D02*
X8238094Y-14672438D01*
X8238094Y-14672438D02*
X8142856Y-14624819D01*
X7190475Y-14624819D02*
X7095237Y-14624819D01*
X7095237Y-14624819D02*
X6999999Y-14672438D01*
X6999999Y-14672438D02*
X6952380Y-14720057D01*
X6952380Y-14720057D02*
X6904761Y-14815295D01*
X6904761Y-14815295D02*
X6857142Y-15005771D01*
X6857142Y-15005771D02*
X6857142Y-15243866D01*
X6857142Y-15243866D02*
X6904761Y-15434342D01*
X6904761Y-15434342D02*
X6952380Y-15529580D01*
X6952380Y-15529580D02*
X6999999Y-15577200D01*
X6999999Y-15577200D02*
X7095237Y-15624819D01*
X7095237Y-15624819D02*
X7190475Y-15624819D01*
X7190475Y-15624819D02*
X7285713Y-15577200D01*
X7285713Y-15577200D02*
X7333332Y-15529580D01*
X7333332Y-15529580D02*
X7380951Y-15434342D01*
X7380951Y-15434342D02*
X7428570Y-15243866D01*
X7428570Y-15243866D02*
X7428570Y-15005771D01*
X7428570Y-15005771D02*
X7380951Y-14815295D01*
X7380951Y-14815295D02*
X7333332Y-14720057D01*
X7333332Y-14720057D02*
X7285713Y-14672438D01*
X7285713Y-14672438D02*
X7190475Y-14624819D01*
X6428570Y-15624819D02*
X6428570Y-14958152D01*
X6428570Y-15053390D02*
X6380951Y-15005771D01*
X6380951Y-15005771D02*
X6285713Y-14958152D01*
X6285713Y-14958152D02*
X6142856Y-14958152D01*
X6142856Y-14958152D02*
X6047618Y-15005771D01*
X6047618Y-15005771D02*
X5999999Y-15101009D01*
X5999999Y-15101009D02*
X5999999Y-15624819D01*
X5999999Y-15101009D02*
X5952380Y-15005771D01*
X5952380Y-15005771D02*
X5857142Y-14958152D01*
X5857142Y-14958152D02*
X5714285Y-14958152D01*
X5714285Y-14958152D02*
X5619046Y-15005771D01*
X5619046Y-15005771D02*
X5571427Y-15101009D01*
X5571427Y-15101009D02*
X5571427Y-15624819D01*
X5142856Y-15339104D02*
X4666666Y-15339104D01*
X5238094Y-15624819D02*
X4904761Y-14624819D01*
X4904761Y-14624819D02*
X4571428Y-15624819D01*
D13*
X7266666Y-16944807D02*
X7533332Y-16944807D01*
X7533332Y-17363855D02*
X7533332Y-16563855D01*
X7533332Y-16563855D02*
X7152380Y-16563855D01*
X6428571Y-17363855D02*
X6885714Y-17363855D01*
X6657142Y-17363855D02*
X6657142Y-16563855D01*
X6657142Y-16563855D02*
X6733333Y-16678140D01*
X6733333Y-16678140D02*
X6809523Y-16754331D01*
X6809523Y-16754331D02*
X6885714Y-16792426D01*
D10*
X18595238Y-36804819D02*
X19166666Y-36804819D01*
X18880952Y-36804819D02*
X18880952Y-35804819D01*
X18880952Y-35804819D02*
X18976190Y-35947676D01*
X18976190Y-35947676D02*
X19071428Y-36042914D01*
X19071428Y-36042914D02*
X19166666Y-36090533D01*
X17976190Y-35804819D02*
X17880952Y-35804819D01*
X17880952Y-35804819D02*
X17785714Y-35852438D01*
X17785714Y-35852438D02*
X17738095Y-35900057D01*
X17738095Y-35900057D02*
X17690476Y-35995295D01*
X17690476Y-35995295D02*
X17642857Y-36185771D01*
X17642857Y-36185771D02*
X17642857Y-36423866D01*
X17642857Y-36423866D02*
X17690476Y-36614342D01*
X17690476Y-36614342D02*
X17738095Y-36709580D01*
X17738095Y-36709580D02*
X17785714Y-36757200D01*
X17785714Y-36757200D02*
X17880952Y-36804819D01*
X17880952Y-36804819D02*
X17976190Y-36804819D01*
X17976190Y-36804819D02*
X18071428Y-36757200D01*
X18071428Y-36757200D02*
X18119047Y-36709580D01*
X18119047Y-36709580D02*
X18166666Y-36614342D01*
X18166666Y-36614342D02*
X18214285Y-36423866D01*
X18214285Y-36423866D02*
X18214285Y-36185771D01*
X18214285Y-36185771D02*
X18166666Y-35995295D01*
X18166666Y-35995295D02*
X18119047Y-35900057D01*
X18119047Y-35900057D02*
X18071428Y-35852438D01*
X18071428Y-35852438D02*
X17976190Y-35804819D01*
X17214285Y-36804819D02*
X17214285Y-35804819D01*
X17119047Y-36423866D02*
X16833333Y-36804819D01*
X16833333Y-36138152D02*
X17214285Y-36519104D01*
D12*
X18083333Y-38227149D02*
X18249999Y-37989054D01*
X18369047Y-38227149D02*
X18369047Y-37727149D01*
X18369047Y-37727149D02*
X18178571Y-37727149D01*
X18178571Y-37727149D02*
X18130952Y-37750959D01*
X18130952Y-37750959D02*
X18107142Y-37774768D01*
X18107142Y-37774768D02*
X18083333Y-37822387D01*
X18083333Y-37822387D02*
X18083333Y-37893816D01*
X18083333Y-37893816D02*
X18107142Y-37941435D01*
X18107142Y-37941435D02*
X18130952Y-37965244D01*
X18130952Y-37965244D02*
X18178571Y-37989054D01*
X18178571Y-37989054D02*
X18369047Y-37989054D01*
X17654761Y-37727149D02*
X17749999Y-37727149D01*
X17749999Y-37727149D02*
X17797618Y-37750959D01*
X17797618Y-37750959D02*
X17821428Y-37774768D01*
X17821428Y-37774768D02*
X17869047Y-37846197D01*
X17869047Y-37846197D02*
X17892856Y-37941435D01*
X17892856Y-37941435D02*
X17892856Y-38131911D01*
X17892856Y-38131911D02*
X17869047Y-38179530D01*
X17869047Y-38179530D02*
X17845237Y-38203340D01*
X17845237Y-38203340D02*
X17797618Y-38227149D01*
X17797618Y-38227149D02*
X17702380Y-38227149D01*
X17702380Y-38227149D02*
X17654761Y-38203340D01*
X17654761Y-38203340D02*
X17630952Y-38179530D01*
X17630952Y-38179530D02*
X17607142Y-38131911D01*
X17607142Y-38131911D02*
X17607142Y-38012863D01*
X17607142Y-38012863D02*
X17630952Y-37965244D01*
X17630952Y-37965244D02*
X17654761Y-37941435D01*
X17654761Y-37941435D02*
X17702380Y-37917625D01*
X17702380Y-37917625D02*
X17797618Y-37917625D01*
X17797618Y-37917625D02*
X17845237Y-37941435D01*
X17845237Y-37941435D02*
X17869047Y-37965244D01*
X17869047Y-37965244D02*
X17892856Y-38012863D01*
D10*
X35547619Y-42774819D02*
X36119047Y-42774819D01*
X35833333Y-42774819D02*
X35833333Y-41774819D01*
X35833333Y-41774819D02*
X35928571Y-41917676D01*
X35928571Y-41917676D02*
X36023809Y-42012914D01*
X36023809Y-42012914D02*
X36119047Y-42060533D01*
X34928571Y-41774819D02*
X34833333Y-41774819D01*
X34833333Y-41774819D02*
X34738095Y-41822438D01*
X34738095Y-41822438D02*
X34690476Y-41870057D01*
X34690476Y-41870057D02*
X34642857Y-41965295D01*
X34642857Y-41965295D02*
X34595238Y-42155771D01*
X34595238Y-42155771D02*
X34595238Y-42393866D01*
X34595238Y-42393866D02*
X34642857Y-42584342D01*
X34642857Y-42584342D02*
X34690476Y-42679580D01*
X34690476Y-42679580D02*
X34738095Y-42727200D01*
X34738095Y-42727200D02*
X34833333Y-42774819D01*
X34833333Y-42774819D02*
X34928571Y-42774819D01*
X34928571Y-42774819D02*
X35023809Y-42727200D01*
X35023809Y-42727200D02*
X35071428Y-42679580D01*
X35071428Y-42679580D02*
X35119047Y-42584342D01*
X35119047Y-42584342D02*
X35166666Y-42393866D01*
X35166666Y-42393866D02*
X35166666Y-42155771D01*
X35166666Y-42155771D02*
X35119047Y-41965295D01*
X35119047Y-41965295D02*
X35071428Y-41870057D01*
X35071428Y-41870057D02*
X35023809Y-41822438D01*
X35023809Y-41822438D02*
X34928571Y-41774819D01*
X33976190Y-41774819D02*
X33880952Y-41774819D01*
X33880952Y-41774819D02*
X33785714Y-41822438D01*
X33785714Y-41822438D02*
X33738095Y-41870057D01*
X33738095Y-41870057D02*
X33690476Y-41965295D01*
X33690476Y-41965295D02*
X33642857Y-42155771D01*
X33642857Y-42155771D02*
X33642857Y-42393866D01*
X33642857Y-42393866D02*
X33690476Y-42584342D01*
X33690476Y-42584342D02*
X33738095Y-42679580D01*
X33738095Y-42679580D02*
X33785714Y-42727200D01*
X33785714Y-42727200D02*
X33880952Y-42774819D01*
X33880952Y-42774819D02*
X33976190Y-42774819D01*
X33976190Y-42774819D02*
X34071428Y-42727200D01*
X34071428Y-42727200D02*
X34119047Y-42679580D01*
X34119047Y-42679580D02*
X34166666Y-42584342D01*
X34166666Y-42584342D02*
X34214285Y-42393866D01*
X34214285Y-42393866D02*
X34214285Y-42155771D01*
X34214285Y-42155771D02*
X34166666Y-41965295D01*
X34166666Y-41965295D02*
X34119047Y-41870057D01*
X34119047Y-41870057D02*
X34071428Y-41822438D01*
X34071428Y-41822438D02*
X33976190Y-41774819D01*
X33214285Y-42108152D02*
X33214285Y-42774819D01*
X33214285Y-42203390D02*
X33166666Y-42155771D01*
X33166666Y-42155771D02*
X33071428Y-42108152D01*
X33071428Y-42108152D02*
X32928571Y-42108152D01*
X32928571Y-42108152D02*
X32833333Y-42155771D01*
X32833333Y-42155771D02*
X32785714Y-42251009D01*
X32785714Y-42251009D02*
X32785714Y-42774819D01*
X31976190Y-42251009D02*
X32309523Y-42251009D01*
X32309523Y-42774819D02*
X32309523Y-41774819D01*
X32309523Y-41774819D02*
X31833333Y-41774819D01*
D12*
X34083333Y-44179530D02*
X34107142Y-44203340D01*
X34107142Y-44203340D02*
X34178571Y-44227149D01*
X34178571Y-44227149D02*
X34226190Y-44227149D01*
X34226190Y-44227149D02*
X34297618Y-44203340D01*
X34297618Y-44203340D02*
X34345237Y-44155720D01*
X34345237Y-44155720D02*
X34369047Y-44108101D01*
X34369047Y-44108101D02*
X34392856Y-44012863D01*
X34392856Y-44012863D02*
X34392856Y-43941435D01*
X34392856Y-43941435D02*
X34369047Y-43846197D01*
X34369047Y-43846197D02*
X34345237Y-43798578D01*
X34345237Y-43798578D02*
X34297618Y-43750959D01*
X34297618Y-43750959D02*
X34226190Y-43727149D01*
X34226190Y-43727149D02*
X34178571Y-43727149D01*
X34178571Y-43727149D02*
X34107142Y-43750959D01*
X34107142Y-43750959D02*
X34083333Y-43774768D01*
X33797618Y-43941435D02*
X33845237Y-43917625D01*
X33845237Y-43917625D02*
X33869047Y-43893816D01*
X33869047Y-43893816D02*
X33892856Y-43846197D01*
X33892856Y-43846197D02*
X33892856Y-43822387D01*
X33892856Y-43822387D02*
X33869047Y-43774768D01*
X33869047Y-43774768D02*
X33845237Y-43750959D01*
X33845237Y-43750959D02*
X33797618Y-43727149D01*
X33797618Y-43727149D02*
X33702380Y-43727149D01*
X33702380Y-43727149D02*
X33654761Y-43750959D01*
X33654761Y-43750959D02*
X33630952Y-43774768D01*
X33630952Y-43774768D02*
X33607142Y-43822387D01*
X33607142Y-43822387D02*
X33607142Y-43846197D01*
X33607142Y-43846197D02*
X33630952Y-43893816D01*
X33630952Y-43893816D02*
X33654761Y-43917625D01*
X33654761Y-43917625D02*
X33702380Y-43941435D01*
X33702380Y-43941435D02*
X33797618Y-43941435D01*
X33797618Y-43941435D02*
X33845237Y-43965244D01*
X33845237Y-43965244D02*
X33869047Y-43989054D01*
X33869047Y-43989054D02*
X33892856Y-44036673D01*
X33892856Y-44036673D02*
X33892856Y-44131911D01*
X33892856Y-44131911D02*
X33869047Y-44179530D01*
X33869047Y-44179530D02*
X33845237Y-44203340D01*
X33845237Y-44203340D02*
X33797618Y-44227149D01*
X33797618Y-44227149D02*
X33702380Y-44227149D01*
X33702380Y-44227149D02*
X33654761Y-44203340D01*
X33654761Y-44203340D02*
X33630952Y-44179530D01*
X33630952Y-44179530D02*
X33607142Y-44131911D01*
X33607142Y-44131911D02*
X33607142Y-44036673D01*
X33607142Y-44036673D02*
X33630952Y-43989054D01*
X33630952Y-43989054D02*
X33654761Y-43965244D01*
X33654761Y-43965244D02*
X33702380Y-43941435D01*
D10*
X64880952Y-55104819D02*
X64880952Y-54104819D01*
X64880952Y-54104819D02*
X64500000Y-54104819D01*
X64500000Y-54104819D02*
X64404762Y-54152438D01*
X64404762Y-54152438D02*
X64357143Y-54200057D01*
X64357143Y-54200057D02*
X64309524Y-54295295D01*
X64309524Y-54295295D02*
X64309524Y-54438152D01*
X64309524Y-54438152D02*
X64357143Y-54533390D01*
X64357143Y-54533390D02*
X64404762Y-54581009D01*
X64404762Y-54581009D02*
X64500000Y-54628628D01*
X64500000Y-54628628D02*
X64880952Y-54628628D01*
X63880952Y-54581009D02*
X63547619Y-54581009D01*
X63404762Y-55104819D02*
X63880952Y-55104819D01*
X63880952Y-55104819D02*
X63880952Y-54104819D01*
X63880952Y-54104819D02*
X63404762Y-54104819D01*
X63023809Y-55057200D02*
X62880952Y-55104819D01*
X62880952Y-55104819D02*
X62642857Y-55104819D01*
X62642857Y-55104819D02*
X62547619Y-55057200D01*
X62547619Y-55057200D02*
X62500000Y-55009580D01*
X62500000Y-55009580D02*
X62452381Y-54914342D01*
X62452381Y-54914342D02*
X62452381Y-54819104D01*
X62452381Y-54819104D02*
X62500000Y-54723866D01*
X62500000Y-54723866D02*
X62547619Y-54676247D01*
X62547619Y-54676247D02*
X62642857Y-54628628D01*
X62642857Y-54628628D02*
X62833333Y-54581009D01*
X62833333Y-54581009D02*
X62928571Y-54533390D01*
X62928571Y-54533390D02*
X62976190Y-54485771D01*
X62976190Y-54485771D02*
X63023809Y-54390533D01*
X63023809Y-54390533D02*
X63023809Y-54295295D01*
X63023809Y-54295295D02*
X62976190Y-54200057D01*
X62976190Y-54200057D02*
X62928571Y-54152438D01*
X62928571Y-54152438D02*
X62833333Y-54104819D01*
X62833333Y-54104819D02*
X62595238Y-54104819D01*
X62595238Y-54104819D02*
X62452381Y-54152438D01*
X62023809Y-55104819D02*
X62023809Y-54104819D01*
X62023809Y-54104819D02*
X61785714Y-54104819D01*
X61785714Y-54104819D02*
X61642857Y-54152438D01*
X61642857Y-54152438D02*
X61547619Y-54247676D01*
X61547619Y-54247676D02*
X61500000Y-54342914D01*
X61500000Y-54342914D02*
X61452381Y-54533390D01*
X61452381Y-54533390D02*
X61452381Y-54676247D01*
X61452381Y-54676247D02*
X61500000Y-54866723D01*
X61500000Y-54866723D02*
X61547619Y-54961961D01*
X61547619Y-54961961D02*
X61642857Y-55057200D01*
X61642857Y-55057200D02*
X61785714Y-55104819D01*
X61785714Y-55104819D02*
X62023809Y-55104819D01*
X60547619Y-54104819D02*
X61023809Y-54104819D01*
X61023809Y-54104819D02*
X61071428Y-54581009D01*
X61071428Y-54581009D02*
X61023809Y-54533390D01*
X61023809Y-54533390D02*
X60928571Y-54485771D01*
X60928571Y-54485771D02*
X60690476Y-54485771D01*
X60690476Y-54485771D02*
X60595238Y-54533390D01*
X60595238Y-54533390D02*
X60547619Y-54581009D01*
X60547619Y-54581009D02*
X60500000Y-54676247D01*
X60500000Y-54676247D02*
X60500000Y-54914342D01*
X60500000Y-54914342D02*
X60547619Y-55009580D01*
X60547619Y-55009580D02*
X60595238Y-55057200D01*
X60595238Y-55057200D02*
X60690476Y-55104819D01*
X60690476Y-55104819D02*
X60928571Y-55104819D01*
X60928571Y-55104819D02*
X61023809Y-55057200D01*
X61023809Y-55057200D02*
X61071428Y-55009580D01*
X60214285Y-54104819D02*
X59880952Y-55104819D01*
X59880952Y-55104819D02*
X59547619Y-54104819D01*
X59023809Y-54104819D02*
X58928571Y-54104819D01*
X58928571Y-54104819D02*
X58833333Y-54152438D01*
X58833333Y-54152438D02*
X58785714Y-54200057D01*
X58785714Y-54200057D02*
X58738095Y-54295295D01*
X58738095Y-54295295D02*
X58690476Y-54485771D01*
X58690476Y-54485771D02*
X58690476Y-54723866D01*
X58690476Y-54723866D02*
X58738095Y-54914342D01*
X58738095Y-54914342D02*
X58785714Y-55009580D01*
X58785714Y-55009580D02*
X58833333Y-55057200D01*
X58833333Y-55057200D02*
X58928571Y-55104819D01*
X58928571Y-55104819D02*
X59023809Y-55104819D01*
X59023809Y-55104819D02*
X59119047Y-55057200D01*
X59119047Y-55057200D02*
X59166666Y-55009580D01*
X59166666Y-55009580D02*
X59214285Y-54914342D01*
X59214285Y-54914342D02*
X59261904Y-54723866D01*
X59261904Y-54723866D02*
X59261904Y-54485771D01*
X59261904Y-54485771D02*
X59214285Y-54295295D01*
X59214285Y-54295295D02*
X59166666Y-54200057D01*
X59166666Y-54200057D02*
X59119047Y-54152438D01*
X59119047Y-54152438D02*
X59023809Y-54104819D01*
X57785714Y-55104819D02*
X58261904Y-55104819D01*
X58261904Y-55104819D02*
X58261904Y-54104819D01*
X56928571Y-55104819D02*
X57499999Y-55104819D01*
X57214285Y-55104819D02*
X57214285Y-54104819D01*
X57214285Y-54104819D02*
X57309523Y-54247676D01*
X57309523Y-54247676D02*
X57404761Y-54342914D01*
X57404761Y-54342914D02*
X57499999Y-54390533D01*
X56499999Y-54104819D02*
X56499999Y-54914342D01*
X56499999Y-54914342D02*
X56452380Y-55009580D01*
X56452380Y-55009580D02*
X56404761Y-55057200D01*
X56404761Y-55057200D02*
X56309523Y-55104819D01*
X56309523Y-55104819D02*
X56119047Y-55104819D01*
X56119047Y-55104819D02*
X56023809Y-55057200D01*
X56023809Y-55057200D02*
X55976190Y-55009580D01*
X55976190Y-55009580D02*
X55928571Y-54914342D01*
X55928571Y-54914342D02*
X55928571Y-54104819D01*
X54976190Y-55104819D02*
X55452380Y-55104819D01*
X55452380Y-55104819D02*
X55452380Y-54104819D01*
X61087285Y-57804819D02*
X61087285Y-56804819D01*
X61087285Y-56804819D02*
X60849190Y-56804819D01*
X60849190Y-56804819D02*
X60706333Y-56852438D01*
X60706333Y-56852438D02*
X60611095Y-56947676D01*
X60611095Y-56947676D02*
X60563476Y-57042914D01*
X60563476Y-57042914D02*
X60515857Y-57233390D01*
X60515857Y-57233390D02*
X60515857Y-57376247D01*
X60515857Y-57376247D02*
X60563476Y-57566723D01*
X60563476Y-57566723D02*
X60611095Y-57661961D01*
X60611095Y-57661961D02*
X60706333Y-57757200D01*
X60706333Y-57757200D02*
X60849190Y-57804819D01*
X60849190Y-57804819D02*
X61087285Y-57804819D01*
X59563476Y-57804819D02*
X60134904Y-57804819D01*
X59849190Y-57804819D02*
X59849190Y-56804819D01*
X59849190Y-56804819D02*
X59944428Y-56947676D01*
X59944428Y-56947676D02*
X60039666Y-57042914D01*
X60039666Y-57042914D02*
X60134904Y-57090533D01*
X58944428Y-56804819D02*
X58849190Y-56804819D01*
X58849190Y-56804819D02*
X58753952Y-56852438D01*
X58753952Y-56852438D02*
X58706333Y-56900057D01*
X58706333Y-56900057D02*
X58658714Y-56995295D01*
X58658714Y-56995295D02*
X58611095Y-57185771D01*
X58611095Y-57185771D02*
X58611095Y-57423866D01*
X58611095Y-57423866D02*
X58658714Y-57614342D01*
X58658714Y-57614342D02*
X58706333Y-57709580D01*
X58706333Y-57709580D02*
X58753952Y-57757200D01*
X58753952Y-57757200D02*
X58849190Y-57804819D01*
X58849190Y-57804819D02*
X58944428Y-57804819D01*
X58944428Y-57804819D02*
X59039666Y-57757200D01*
X59039666Y-57757200D02*
X59087285Y-57709580D01*
X59087285Y-57709580D02*
X59134904Y-57614342D01*
X59134904Y-57614342D02*
X59182523Y-57423866D01*
X59182523Y-57423866D02*
X59182523Y-57185771D01*
X59182523Y-57185771D02*
X59134904Y-56995295D01*
X59134904Y-56995295D02*
X59087285Y-56900057D01*
X59087285Y-56900057D02*
X59039666Y-56852438D01*
X59039666Y-56852438D02*
X58944428Y-56804819D01*
X27785713Y-9804819D02*
X27166666Y-9804819D01*
X27166666Y-9804819D02*
X27499999Y-10185771D01*
X27499999Y-10185771D02*
X27357142Y-10185771D01*
X27357142Y-10185771D02*
X27261904Y-10233390D01*
X27261904Y-10233390D02*
X27214285Y-10281009D01*
X27214285Y-10281009D02*
X27166666Y-10376247D01*
X27166666Y-10376247D02*
X27166666Y-10614342D01*
X27166666Y-10614342D02*
X27214285Y-10709580D01*
X27214285Y-10709580D02*
X27261904Y-10757200D01*
X27261904Y-10757200D02*
X27357142Y-10804819D01*
X27357142Y-10804819D02*
X27642856Y-10804819D01*
X27642856Y-10804819D02*
X27738094Y-10757200D01*
X27738094Y-10757200D02*
X27785713Y-10709580D01*
X26833332Y-9804819D02*
X26214285Y-9804819D01*
X26214285Y-9804819D02*
X26547618Y-10185771D01*
X26547618Y-10185771D02*
X26404761Y-10185771D01*
X26404761Y-10185771D02*
X26309523Y-10233390D01*
X26309523Y-10233390D02*
X26261904Y-10281009D01*
X26261904Y-10281009D02*
X26214285Y-10376247D01*
X26214285Y-10376247D02*
X26214285Y-10614342D01*
X26214285Y-10614342D02*
X26261904Y-10709580D01*
X26261904Y-10709580D02*
X26309523Y-10757200D01*
X26309523Y-10757200D02*
X26404761Y-10804819D01*
X26404761Y-10804819D02*
X26690475Y-10804819D01*
X26690475Y-10804819D02*
X26785713Y-10757200D01*
X26785713Y-10757200D02*
X26833332Y-10709580D01*
X25595237Y-9804819D02*
X25499999Y-9804819D01*
X25499999Y-9804819D02*
X25404761Y-9852438D01*
X25404761Y-9852438D02*
X25357142Y-9900057D01*
X25357142Y-9900057D02*
X25309523Y-9995295D01*
X25309523Y-9995295D02*
X25261904Y-10185771D01*
X25261904Y-10185771D02*
X25261904Y-10423866D01*
X25261904Y-10423866D02*
X25309523Y-10614342D01*
X25309523Y-10614342D02*
X25357142Y-10709580D01*
X25357142Y-10709580D02*
X25404761Y-10757200D01*
X25404761Y-10757200D02*
X25499999Y-10804819D01*
X25499999Y-10804819D02*
X25595237Y-10804819D01*
X25595237Y-10804819D02*
X25690475Y-10757200D01*
X25690475Y-10757200D02*
X25738094Y-10709580D01*
X25738094Y-10709580D02*
X25785713Y-10614342D01*
X25785713Y-10614342D02*
X25833332Y-10423866D01*
X25833332Y-10423866D02*
X25833332Y-10185771D01*
X25833332Y-10185771D02*
X25785713Y-9995295D01*
X25785713Y-9995295D02*
X25738094Y-9900057D01*
X25738094Y-9900057D02*
X25690475Y-9852438D01*
X25690475Y-9852438D02*
X25595237Y-9804819D01*
X24261904Y-10804819D02*
X24595237Y-10328628D01*
X24833332Y-10804819D02*
X24833332Y-9804819D01*
X24833332Y-9804819D02*
X24452380Y-9804819D01*
X24452380Y-9804819D02*
X24357142Y-9852438D01*
X24357142Y-9852438D02*
X24309523Y-9900057D01*
X24309523Y-9900057D02*
X24261904Y-9995295D01*
X24261904Y-9995295D02*
X24261904Y-10138152D01*
X24261904Y-10138152D02*
X24309523Y-10233390D01*
X24309523Y-10233390D02*
X24357142Y-10281009D01*
X24357142Y-10281009D02*
X24452380Y-10328628D01*
X24452380Y-10328628D02*
X24833332Y-10328628D01*
D12*
X26083333Y-12227149D02*
X26249999Y-11989054D01*
X26369047Y-12227149D02*
X26369047Y-11727149D01*
X26369047Y-11727149D02*
X26178571Y-11727149D01*
X26178571Y-11727149D02*
X26130952Y-11750959D01*
X26130952Y-11750959D02*
X26107142Y-11774768D01*
X26107142Y-11774768D02*
X26083333Y-11822387D01*
X26083333Y-11822387D02*
X26083333Y-11893816D01*
X26083333Y-11893816D02*
X26107142Y-11941435D01*
X26107142Y-11941435D02*
X26130952Y-11965244D01*
X26130952Y-11965244D02*
X26178571Y-11989054D01*
X26178571Y-11989054D02*
X26369047Y-11989054D01*
X25916666Y-11727149D02*
X25583333Y-11727149D01*
X25583333Y-11727149D02*
X25797618Y-12227149D01*
D10*
X54880952Y-55104819D02*
X54880952Y-54104819D01*
X54880952Y-54104819D02*
X54500000Y-54104819D01*
X54500000Y-54104819D02*
X54404762Y-54152438D01*
X54404762Y-54152438D02*
X54357143Y-54200057D01*
X54357143Y-54200057D02*
X54309524Y-54295295D01*
X54309524Y-54295295D02*
X54309524Y-54438152D01*
X54309524Y-54438152D02*
X54357143Y-54533390D01*
X54357143Y-54533390D02*
X54404762Y-54581009D01*
X54404762Y-54581009D02*
X54500000Y-54628628D01*
X54500000Y-54628628D02*
X54880952Y-54628628D01*
X53880952Y-54581009D02*
X53547619Y-54581009D01*
X53404762Y-55104819D02*
X53880952Y-55104819D01*
X53880952Y-55104819D02*
X53880952Y-54104819D01*
X53880952Y-54104819D02*
X53404762Y-54104819D01*
X53023809Y-55057200D02*
X52880952Y-55104819D01*
X52880952Y-55104819D02*
X52642857Y-55104819D01*
X52642857Y-55104819D02*
X52547619Y-55057200D01*
X52547619Y-55057200D02*
X52500000Y-55009580D01*
X52500000Y-55009580D02*
X52452381Y-54914342D01*
X52452381Y-54914342D02*
X52452381Y-54819104D01*
X52452381Y-54819104D02*
X52500000Y-54723866D01*
X52500000Y-54723866D02*
X52547619Y-54676247D01*
X52547619Y-54676247D02*
X52642857Y-54628628D01*
X52642857Y-54628628D02*
X52833333Y-54581009D01*
X52833333Y-54581009D02*
X52928571Y-54533390D01*
X52928571Y-54533390D02*
X52976190Y-54485771D01*
X52976190Y-54485771D02*
X53023809Y-54390533D01*
X53023809Y-54390533D02*
X53023809Y-54295295D01*
X53023809Y-54295295D02*
X52976190Y-54200057D01*
X52976190Y-54200057D02*
X52928571Y-54152438D01*
X52928571Y-54152438D02*
X52833333Y-54104819D01*
X52833333Y-54104819D02*
X52595238Y-54104819D01*
X52595238Y-54104819D02*
X52452381Y-54152438D01*
X52023809Y-55104819D02*
X52023809Y-54104819D01*
X52023809Y-54104819D02*
X51785714Y-54104819D01*
X51785714Y-54104819D02*
X51642857Y-54152438D01*
X51642857Y-54152438D02*
X51547619Y-54247676D01*
X51547619Y-54247676D02*
X51500000Y-54342914D01*
X51500000Y-54342914D02*
X51452381Y-54533390D01*
X51452381Y-54533390D02*
X51452381Y-54676247D01*
X51452381Y-54676247D02*
X51500000Y-54866723D01*
X51500000Y-54866723D02*
X51547619Y-54961961D01*
X51547619Y-54961961D02*
X51642857Y-55057200D01*
X51642857Y-55057200D02*
X51785714Y-55104819D01*
X51785714Y-55104819D02*
X52023809Y-55104819D01*
X50547619Y-54104819D02*
X51023809Y-54104819D01*
X51023809Y-54104819D02*
X51071428Y-54581009D01*
X51071428Y-54581009D02*
X51023809Y-54533390D01*
X51023809Y-54533390D02*
X50928571Y-54485771D01*
X50928571Y-54485771D02*
X50690476Y-54485771D01*
X50690476Y-54485771D02*
X50595238Y-54533390D01*
X50595238Y-54533390D02*
X50547619Y-54581009D01*
X50547619Y-54581009D02*
X50500000Y-54676247D01*
X50500000Y-54676247D02*
X50500000Y-54914342D01*
X50500000Y-54914342D02*
X50547619Y-55009580D01*
X50547619Y-55009580D02*
X50595238Y-55057200D01*
X50595238Y-55057200D02*
X50690476Y-55104819D01*
X50690476Y-55104819D02*
X50928571Y-55104819D01*
X50928571Y-55104819D02*
X51023809Y-55057200D01*
X51023809Y-55057200D02*
X51071428Y-55009580D01*
X50214285Y-54104819D02*
X49880952Y-55104819D01*
X49880952Y-55104819D02*
X49547619Y-54104819D01*
X49023809Y-54104819D02*
X48928571Y-54104819D01*
X48928571Y-54104819D02*
X48833333Y-54152438D01*
X48833333Y-54152438D02*
X48785714Y-54200057D01*
X48785714Y-54200057D02*
X48738095Y-54295295D01*
X48738095Y-54295295D02*
X48690476Y-54485771D01*
X48690476Y-54485771D02*
X48690476Y-54723866D01*
X48690476Y-54723866D02*
X48738095Y-54914342D01*
X48738095Y-54914342D02*
X48785714Y-55009580D01*
X48785714Y-55009580D02*
X48833333Y-55057200D01*
X48833333Y-55057200D02*
X48928571Y-55104819D01*
X48928571Y-55104819D02*
X49023809Y-55104819D01*
X49023809Y-55104819D02*
X49119047Y-55057200D01*
X49119047Y-55057200D02*
X49166666Y-55009580D01*
X49166666Y-55009580D02*
X49214285Y-54914342D01*
X49214285Y-54914342D02*
X49261904Y-54723866D01*
X49261904Y-54723866D02*
X49261904Y-54485771D01*
X49261904Y-54485771D02*
X49214285Y-54295295D01*
X49214285Y-54295295D02*
X49166666Y-54200057D01*
X49166666Y-54200057D02*
X49119047Y-54152438D01*
X49119047Y-54152438D02*
X49023809Y-54104819D01*
X47785714Y-55104819D02*
X48261904Y-55104819D01*
X48261904Y-55104819D02*
X48261904Y-54104819D01*
X46928571Y-55104819D02*
X47499999Y-55104819D01*
X47214285Y-55104819D02*
X47214285Y-54104819D01*
X47214285Y-54104819D02*
X47309523Y-54247676D01*
X47309523Y-54247676D02*
X47404761Y-54342914D01*
X47404761Y-54342914D02*
X47499999Y-54390533D01*
X46499999Y-54104819D02*
X46499999Y-54914342D01*
X46499999Y-54914342D02*
X46452380Y-55009580D01*
X46452380Y-55009580D02*
X46404761Y-55057200D01*
X46404761Y-55057200D02*
X46309523Y-55104819D01*
X46309523Y-55104819D02*
X46119047Y-55104819D01*
X46119047Y-55104819D02*
X46023809Y-55057200D01*
X46023809Y-55057200D02*
X45976190Y-55009580D01*
X45976190Y-55009580D02*
X45928571Y-54914342D01*
X45928571Y-54914342D02*
X45928571Y-54104819D01*
X44976190Y-55104819D02*
X45452380Y-55104819D01*
X45452380Y-55104819D02*
X45452380Y-54104819D01*
X50611094Y-57804819D02*
X50611094Y-56804819D01*
X50611094Y-56804819D02*
X50372999Y-56804819D01*
X50372999Y-56804819D02*
X50230142Y-56852438D01*
X50230142Y-56852438D02*
X50134904Y-56947676D01*
X50134904Y-56947676D02*
X50087285Y-57042914D01*
X50087285Y-57042914D02*
X50039666Y-57233390D01*
X50039666Y-57233390D02*
X50039666Y-57376247D01*
X50039666Y-57376247D02*
X50087285Y-57566723D01*
X50087285Y-57566723D02*
X50134904Y-57661961D01*
X50134904Y-57661961D02*
X50230142Y-57757200D01*
X50230142Y-57757200D02*
X50372999Y-57804819D01*
X50372999Y-57804819D02*
X50611094Y-57804819D01*
X49468237Y-57233390D02*
X49563475Y-57185771D01*
X49563475Y-57185771D02*
X49611094Y-57138152D01*
X49611094Y-57138152D02*
X49658713Y-57042914D01*
X49658713Y-57042914D02*
X49658713Y-56995295D01*
X49658713Y-56995295D02*
X49611094Y-56900057D01*
X49611094Y-56900057D02*
X49563475Y-56852438D01*
X49563475Y-56852438D02*
X49468237Y-56804819D01*
X49468237Y-56804819D02*
X49277761Y-56804819D01*
X49277761Y-56804819D02*
X49182523Y-56852438D01*
X49182523Y-56852438D02*
X49134904Y-56900057D01*
X49134904Y-56900057D02*
X49087285Y-56995295D01*
X49087285Y-56995295D02*
X49087285Y-57042914D01*
X49087285Y-57042914D02*
X49134904Y-57138152D01*
X49134904Y-57138152D02*
X49182523Y-57185771D01*
X49182523Y-57185771D02*
X49277761Y-57233390D01*
X49277761Y-57233390D02*
X49468237Y-57233390D01*
X49468237Y-57233390D02*
X49563475Y-57281009D01*
X49563475Y-57281009D02*
X49611094Y-57328628D01*
X49611094Y-57328628D02*
X49658713Y-57423866D01*
X49658713Y-57423866D02*
X49658713Y-57614342D01*
X49658713Y-57614342D02*
X49611094Y-57709580D01*
X49611094Y-57709580D02*
X49563475Y-57757200D01*
X49563475Y-57757200D02*
X49468237Y-57804819D01*
X49468237Y-57804819D02*
X49277761Y-57804819D01*
X49277761Y-57804819D02*
X49182523Y-57757200D01*
X49182523Y-57757200D02*
X49134904Y-57709580D01*
X49134904Y-57709580D02*
X49087285Y-57614342D01*
X49087285Y-57614342D02*
X49087285Y-57423866D01*
X49087285Y-57423866D02*
X49134904Y-57328628D01*
X49134904Y-57328628D02*
X49182523Y-57281009D01*
X49182523Y-57281009D02*
X49277761Y-57233390D01*
X47547619Y-42774819D02*
X48119047Y-42774819D01*
X47833333Y-42774819D02*
X47833333Y-41774819D01*
X47833333Y-41774819D02*
X47928571Y-41917676D01*
X47928571Y-41917676D02*
X48023809Y-42012914D01*
X48023809Y-42012914D02*
X48119047Y-42060533D01*
X46928571Y-41774819D02*
X46833333Y-41774819D01*
X46833333Y-41774819D02*
X46738095Y-41822438D01*
X46738095Y-41822438D02*
X46690476Y-41870057D01*
X46690476Y-41870057D02*
X46642857Y-41965295D01*
X46642857Y-41965295D02*
X46595238Y-42155771D01*
X46595238Y-42155771D02*
X46595238Y-42393866D01*
X46595238Y-42393866D02*
X46642857Y-42584342D01*
X46642857Y-42584342D02*
X46690476Y-42679580D01*
X46690476Y-42679580D02*
X46738095Y-42727200D01*
X46738095Y-42727200D02*
X46833333Y-42774819D01*
X46833333Y-42774819D02*
X46928571Y-42774819D01*
X46928571Y-42774819D02*
X47023809Y-42727200D01*
X47023809Y-42727200D02*
X47071428Y-42679580D01*
X47071428Y-42679580D02*
X47119047Y-42584342D01*
X47119047Y-42584342D02*
X47166666Y-42393866D01*
X47166666Y-42393866D02*
X47166666Y-42155771D01*
X47166666Y-42155771D02*
X47119047Y-41965295D01*
X47119047Y-41965295D02*
X47071428Y-41870057D01*
X47071428Y-41870057D02*
X47023809Y-41822438D01*
X47023809Y-41822438D02*
X46928571Y-41774819D01*
X45976190Y-41774819D02*
X45880952Y-41774819D01*
X45880952Y-41774819D02*
X45785714Y-41822438D01*
X45785714Y-41822438D02*
X45738095Y-41870057D01*
X45738095Y-41870057D02*
X45690476Y-41965295D01*
X45690476Y-41965295D02*
X45642857Y-42155771D01*
X45642857Y-42155771D02*
X45642857Y-42393866D01*
X45642857Y-42393866D02*
X45690476Y-42584342D01*
X45690476Y-42584342D02*
X45738095Y-42679580D01*
X45738095Y-42679580D02*
X45785714Y-42727200D01*
X45785714Y-42727200D02*
X45880952Y-42774819D01*
X45880952Y-42774819D02*
X45976190Y-42774819D01*
X45976190Y-42774819D02*
X46071428Y-42727200D01*
X46071428Y-42727200D02*
X46119047Y-42679580D01*
X46119047Y-42679580D02*
X46166666Y-42584342D01*
X46166666Y-42584342D02*
X46214285Y-42393866D01*
X46214285Y-42393866D02*
X46214285Y-42155771D01*
X46214285Y-42155771D02*
X46166666Y-41965295D01*
X46166666Y-41965295D02*
X46119047Y-41870057D01*
X46119047Y-41870057D02*
X46071428Y-41822438D01*
X46071428Y-41822438D02*
X45976190Y-41774819D01*
X45214285Y-42108152D02*
X45214285Y-42774819D01*
X45214285Y-42203390D02*
X45166666Y-42155771D01*
X45166666Y-42155771D02*
X45071428Y-42108152D01*
X45071428Y-42108152D02*
X44928571Y-42108152D01*
X44928571Y-42108152D02*
X44833333Y-42155771D01*
X44833333Y-42155771D02*
X44785714Y-42251009D01*
X44785714Y-42251009D02*
X44785714Y-42774819D01*
X43976190Y-42251009D02*
X44309523Y-42251009D01*
X44309523Y-42774819D02*
X44309523Y-41774819D01*
X44309523Y-41774819D02*
X43833333Y-41774819D01*
D12*
X46083333Y-44179530D02*
X46107142Y-44203340D01*
X46107142Y-44203340D02*
X46178571Y-44227149D01*
X46178571Y-44227149D02*
X46226190Y-44227149D01*
X46226190Y-44227149D02*
X46297618Y-44203340D01*
X46297618Y-44203340D02*
X46345237Y-44155720D01*
X46345237Y-44155720D02*
X46369047Y-44108101D01*
X46369047Y-44108101D02*
X46392856Y-44012863D01*
X46392856Y-44012863D02*
X46392856Y-43941435D01*
X46392856Y-43941435D02*
X46369047Y-43846197D01*
X46369047Y-43846197D02*
X46345237Y-43798578D01*
X46345237Y-43798578D02*
X46297618Y-43750959D01*
X46297618Y-43750959D02*
X46226190Y-43727149D01*
X46226190Y-43727149D02*
X46178571Y-43727149D01*
X46178571Y-43727149D02*
X46107142Y-43750959D01*
X46107142Y-43750959D02*
X46083333Y-43774768D01*
X45845237Y-44227149D02*
X45749999Y-44227149D01*
X45749999Y-44227149D02*
X45702380Y-44203340D01*
X45702380Y-44203340D02*
X45678571Y-44179530D01*
X45678571Y-44179530D02*
X45630952Y-44108101D01*
X45630952Y-44108101D02*
X45607142Y-44012863D01*
X45607142Y-44012863D02*
X45607142Y-43822387D01*
X45607142Y-43822387D02*
X45630952Y-43774768D01*
X45630952Y-43774768D02*
X45654761Y-43750959D01*
X45654761Y-43750959D02*
X45702380Y-43727149D01*
X45702380Y-43727149D02*
X45797618Y-43727149D01*
X45797618Y-43727149D02*
X45845237Y-43750959D01*
X45845237Y-43750959D02*
X45869047Y-43774768D01*
X45869047Y-43774768D02*
X45892856Y-43822387D01*
X45892856Y-43822387D02*
X45892856Y-43941435D01*
X45892856Y-43941435D02*
X45869047Y-43989054D01*
X45869047Y-43989054D02*
X45845237Y-44012863D01*
X45845237Y-44012863D02*
X45797618Y-44036673D01*
X45797618Y-44036673D02*
X45702380Y-44036673D01*
X45702380Y-44036673D02*
X45654761Y-44012863D01*
X45654761Y-44012863D02*
X45630952Y-43989054D01*
X45630952Y-43989054D02*
X45607142Y-43941435D01*
D14*
%TO.C,Q4*%
X19675000Y-71450000D02*
X20650000Y-71450000D01*
X20650000Y-68550000D01*
X19350000Y-68550000D01*
X19350000Y-71125000D01*
X19675000Y-71450000D01*
%TO.C,C2*%
X29000000Y-30375000D02*
X31000000Y-30375000D01*
X31000000Y-31625000D01*
X29000000Y-31625000D01*
X29000000Y-30375000D01*
%TO.C,R11*%
X65000000Y-37375000D02*
X67000000Y-37375000D01*
X67000000Y-38625000D01*
X65000000Y-38625000D01*
X65000000Y-37375000D01*
%TO.C,R8*%
X33000000Y-49375000D02*
X35000000Y-49375000D01*
X35000000Y-50625000D01*
X33000000Y-50625000D01*
X33000000Y-49375000D01*
%TO.C,C1*%
X29000000Y-22375000D02*
X31000000Y-22375000D01*
X31000000Y-23625000D01*
X29000000Y-23625000D01*
X29000000Y-22375000D01*
%TO.C,D5*%
X29500000Y-55700000D02*
X29500000Y-56300000D01*
X29500000Y-56300000D02*
X30500000Y-56300000D01*
X29850000Y-55800000D02*
X29850000Y-56200000D01*
X29850000Y-56000000D02*
X29700000Y-56000000D01*
X29850000Y-56000000D02*
X30150000Y-55800000D01*
X30150000Y-55800000D02*
X30150000Y-56200000D01*
X30150000Y-56000000D02*
X30300000Y-56000000D01*
X30150000Y-56200000D02*
X29850000Y-56000000D01*
X30500000Y-55700000D02*
X29500000Y-55700000D01*
X30500000Y-56300000D02*
X30500000Y-55700000D01*
%TO.C,C10*%
X57000000Y-43375000D02*
X59000000Y-43375000D01*
X59000000Y-44625000D01*
X57000000Y-44625000D01*
X57000000Y-43375000D01*
%TO.C,Q2*%
X21675000Y-32450000D02*
X22650000Y-32450000D01*
X22650000Y-29550000D01*
X21350000Y-29550000D01*
X21350000Y-32125000D01*
X21675000Y-32450000D01*
%TO.C,C11*%
X65000000Y-25375000D02*
X67000000Y-25375000D01*
X67000000Y-26625000D01*
X65000000Y-26625000D01*
X65000000Y-25375000D01*
%TO.C,R14*%
X41000000Y-55375000D02*
X43000000Y-55375000D01*
X43000000Y-56625000D01*
X41000000Y-56625000D01*
X41000000Y-55375000D01*
%TO.C,R13*%
X17000000Y-55375000D02*
X19000000Y-55375000D01*
X19000000Y-56625000D01*
X17000000Y-56625000D01*
X17000000Y-55375000D01*
%TO.C,R1*%
X25000000Y-22375000D02*
X27000000Y-22375000D01*
X27000000Y-23625000D01*
X25000000Y-23625000D01*
X25000000Y-22375000D01*
%TO.C,U1*%
X13025000Y-31950000D02*
X15950000Y-31950000D01*
X15950000Y-22050000D01*
X12050000Y-22050000D01*
X12050000Y-30975000D01*
X13025000Y-31950000D01*
%TO.C,R12*%
X21000000Y-55375000D02*
X23000000Y-55375000D01*
X23000000Y-56625000D01*
X21000000Y-56625000D01*
X21000000Y-55375000D01*
%TO.C,R5*%
X13000000Y-37375000D02*
X15000000Y-37375000D01*
X15000000Y-38625000D01*
X13000000Y-38625000D01*
X13000000Y-37375000D01*
%TO.C,R2*%
X25000000Y-30375000D02*
X27000000Y-30375000D01*
X27000000Y-31625000D01*
X25000000Y-31625000D01*
X25000000Y-30375000D01*
%TO.C,C3*%
X29000000Y-9375000D02*
X31000000Y-9375000D01*
X31000000Y-10625000D01*
X29000000Y-10625000D01*
X29000000Y-9375000D01*
%TO.C,D9*%
X55500000Y-55700000D02*
X55500000Y-56300000D01*
X55500000Y-56300000D02*
X56500000Y-56300000D01*
X55850000Y-55800000D02*
X55850000Y-56200000D01*
X55850000Y-56000000D02*
X55700000Y-56000000D01*
X55850000Y-56000000D02*
X56150000Y-55800000D01*
X56150000Y-55800000D02*
X56150000Y-56200000D01*
X56150000Y-56000000D02*
X56300000Y-56000000D01*
X56150000Y-56200000D02*
X55850000Y-56000000D01*
X56500000Y-55700000D02*
X55500000Y-55700000D01*
X56500000Y-56300000D02*
X56500000Y-55700000D01*
%TO.C,D6*%
X37500000Y-55700000D02*
X37500000Y-56300000D01*
X37500000Y-56300000D02*
X38500000Y-56300000D01*
X37850000Y-55800000D02*
X37850000Y-56200000D01*
X37850000Y-56000000D02*
X37700000Y-56000000D01*
X37850000Y-56000000D02*
X38150000Y-55800000D01*
X38150000Y-55800000D02*
X38150000Y-56200000D01*
X38150000Y-56000000D02*
X38300000Y-56000000D01*
X38150000Y-56200000D02*
X37850000Y-56000000D01*
X38500000Y-55700000D02*
X37500000Y-55700000D01*
X38500000Y-56300000D02*
X38500000Y-55700000D01*
%TO.C,D7*%
X45500000Y-55700000D02*
X45500000Y-56300000D01*
X45500000Y-56300000D02*
X46500000Y-56300000D01*
X45850000Y-55800000D02*
X45850000Y-56200000D01*
X45850000Y-56000000D02*
X45700000Y-56000000D01*
X45850000Y-56000000D02*
X46150000Y-55800000D01*
X46150000Y-55800000D02*
X46150000Y-56200000D01*
X46150000Y-56000000D02*
X46300000Y-56000000D01*
X46150000Y-56200000D02*
X45850000Y-56000000D01*
X46500000Y-55700000D02*
X45500000Y-55700000D01*
X46500000Y-56300000D02*
X46500000Y-55700000D01*
%TO.C,D4*%
X16600000Y-59100000D02*
X16600000Y-60900000D01*
X16600000Y-60900000D02*
X19400000Y-60900000D01*
X17250000Y-60000000D02*
X17650000Y-60000000D01*
X17650000Y-60000000D02*
X17650000Y-59450000D01*
X17650000Y-60000000D02*
X17650000Y-60550000D01*
X17650000Y-60000000D02*
X18250000Y-60400000D01*
X18250000Y-59600000D02*
X17650000Y-60000000D01*
X18250000Y-60000000D02*
X18750000Y-60000000D01*
X18250000Y-60400000D02*
X18250000Y-59600000D01*
X19400000Y-59100000D02*
X16600000Y-59100000D01*
X19400000Y-60900000D02*
X19400000Y-59100000D01*
%TO.C,C6*%
X29000000Y-16375000D02*
X31000000Y-16375000D01*
X31000000Y-17625000D01*
X29000000Y-17625000D01*
X29000000Y-16375000D01*
%TO.C,D3*%
X65500000Y-21700000D02*
X65500000Y-22300000D01*
X65500000Y-22300000D02*
X66500000Y-22300000D01*
X65850000Y-21800000D02*
X65850000Y-22200000D01*
X65850000Y-22000000D02*
X65700000Y-22000000D01*
X65850000Y-22000000D02*
X66150000Y-21800000D01*
X66150000Y-21800000D02*
X66150000Y-22200000D01*
X66150000Y-22000000D02*
X66300000Y-22000000D01*
X66150000Y-22200000D02*
X65850000Y-22000000D01*
X66500000Y-21700000D02*
X65500000Y-21700000D01*
X66500000Y-22300000D02*
X66500000Y-21700000D01*
%TO.C,C7*%
X19000000Y-9375000D02*
X21000000Y-9375000D01*
X21000000Y-10625000D01*
X19000000Y-10625000D01*
X19000000Y-9375000D01*
%TO.C,R10*%
X65000000Y-33375000D02*
X67000000Y-33375000D01*
X67000000Y-34625000D01*
X65000000Y-34625000D01*
X65000000Y-33375000D01*
%TO.C,C5*%
X41000000Y-16375000D02*
X43000000Y-16375000D01*
X43000000Y-17625000D01*
X41000000Y-17625000D01*
X41000000Y-16375000D01*
%TO.C,Q3*%
X25675000Y-57450000D02*
X26650000Y-57450000D01*
X26650000Y-54550000D01*
X25350000Y-54550000D01*
X25350000Y-57125000D01*
X25675000Y-57450000D01*
%TO.C,R4*%
X9000000Y-37375000D02*
X11000000Y-37375000D01*
X11000000Y-38625000D01*
X9000000Y-38625000D01*
X9000000Y-37375000D01*
%TO.C,D2*%
X65500000Y-17700000D02*
X65500000Y-18300000D01*
X65500000Y-18300000D02*
X66500000Y-18300000D01*
X65850000Y-17800000D02*
X65850000Y-18200000D01*
X65850000Y-18000000D02*
X65700000Y-18000000D01*
X65850000Y-18000000D02*
X66150000Y-17800000D01*
X66150000Y-17800000D02*
X66150000Y-18200000D01*
X66150000Y-18000000D02*
X66300000Y-18000000D01*
X66150000Y-18200000D02*
X65850000Y-18000000D01*
X66500000Y-17700000D02*
X65500000Y-17700000D01*
X66500000Y-18300000D02*
X66500000Y-17700000D01*
%TO.C,R9*%
X45000000Y-49375000D02*
X47000000Y-49375000D01*
X47000000Y-50625000D01*
X45000000Y-50625000D01*
X45000000Y-49375000D01*
%TO.C,R3*%
X5000000Y-37375000D02*
X7000000Y-37375000D01*
X7000000Y-38625000D01*
X5000000Y-38625000D01*
X5000000Y-37375000D01*
%TO.C,C4*%
X35000000Y-21375000D02*
X37000000Y-21375000D01*
X37000000Y-22625000D01*
X35000000Y-22625000D01*
X35000000Y-21375000D01*
%TO.C,Q1*%
X21675000Y-24450000D02*
X22650000Y-24450000D01*
X22650000Y-21550000D01*
X21350000Y-21550000D01*
X21350000Y-24125000D01*
X21675000Y-24450000D01*
%TO.C,F1*%
X5400000Y-16200000D02*
X8600000Y-16200000D01*
X8600000Y-17800000D01*
X5400000Y-17800000D01*
X5400000Y-16200000D01*
%TO.C,R6*%
X17000000Y-37375000D02*
X19000000Y-37375000D01*
X19000000Y-38625000D01*
X17000000Y-38625000D01*
X17000000Y-37375000D01*
%TO.C,C8*%
X33000000Y-43375000D02*
X35000000Y-43375000D01*
X35000000Y-44625000D01*
X33000000Y-44625000D01*
X33000000Y-43375000D01*
%TO.C,D10*%
X59500000Y-55700000D02*
X59500000Y-56300000D01*
X59500000Y-56300000D02*
X60500000Y-56300000D01*
X59850000Y-55800000D02*
X59850000Y-56200000D01*
X59850000Y-56000000D02*
X59700000Y-56000000D01*
X59850000Y-56000000D02*
X60150000Y-55800000D01*
X60150000Y-55800000D02*
X60150000Y-56200000D01*
X60150000Y-56000000D02*
X60300000Y-56000000D01*
X60150000Y-56200000D02*
X59850000Y-56000000D01*
X60500000Y-55700000D02*
X59500000Y-55700000D01*
X60500000Y-56300000D02*
X60500000Y-55700000D01*
%TO.C,R7*%
X25000000Y-11375000D02*
X27000000Y-11375000D01*
X27000000Y-12625000D01*
X25000000Y-12625000D01*
X25000000Y-11375000D01*
%TO.C,D8*%
X49500000Y-55700000D02*
X49500000Y-56300000D01*
X49500000Y-56300000D02*
X50500000Y-56300000D01*
X49850000Y-55800000D02*
X49850000Y-56200000D01*
X49850000Y-56000000D02*
X49700000Y-56000000D01*
X49850000Y-56000000D02*
X50150000Y-55800000D01*
X50150000Y-55800000D02*
X50150000Y-56200000D01*
X50150000Y-56000000D02*
X50300000Y-56000000D01*
X50150000Y-56200000D02*
X49850000Y-56000000D01*
X50500000Y-55700000D02*
X49500000Y-55700000D01*
X50500000Y-56300000D02*
X50500000Y-55700000D01*
%TO.C,C9*%
X45000000Y-43375000D02*
X47000000Y-43375000D01*
X47000000Y-44625000D01*
X45000000Y-44625000D01*
X45000000Y-43375000D01*
%TD*%
M02*
