%TF.GenerationSoftware,KiCad,Pcbnew,10.0.5*%
%TF.CreationDate,2026-08-08T13:23:32+02:00*%
%TF.ProjectId,wisp,77697370-2e6b-4696-9361-645f70636258,rev?*%
%TF.SameCoordinates,Original*%
%TF.FileFunction,Copper,L4,Bot*%
%TF.FilePolarity,Positive*%
%FSLAX46Y46*%
G04 Gerber Fmt 4.6, Leading zero omitted, Abs format (unit mm)*
G04 Created by KiCad (PCBNEW 10.0.5) date 2026-08-08 13:23:32*
%MOMM*%
%LPD*%
G01*
G04 APERTURE LIST*
%TA.AperFunction,ComponentPad*%
%ADD10R,1.700000X1.700000*%
%TD*%
%TA.AperFunction,ComponentPad*%
%ADD11C,1.700000*%
%TD*%
%TA.AperFunction,ComponentPad*%
%ADD12O,1.000000X2.100000*%
%TD*%
%TA.AperFunction,ComponentPad*%
%ADD13O,1.000000X1.600000*%
%TD*%
%TA.AperFunction,HeatsinkPad*%
%ADD14C,0.600000*%
%TD*%
%TA.AperFunction,ViaPad*%
%ADD15C,0.600000*%
%TD*%
%TA.AperFunction,Conductor*%
%ADD16C,0.200000*%
%TD*%
G04 APERTURE END LIST*
D10*
%TO.P,J8,1*%
%TO.N,+3V3*%
X12000000Y-57000000D03*
D11*
%TO.P,J8,2*%
%TO.N,GND*%
X12000000Y-59540000D03*
%TO.P,J8,3*%
%TO.N,/ADC_PAD_EXT*%
X12000000Y-62080000D03*
%TD*%
D10*
%TO.P,J5,1*%
%TO.N,/+5V_EXT*%
X4500000Y-48000000D03*
D11*
%TO.P,J5,2*%
%TO.N,/SW_GND*%
X4500000Y-50540000D03*
%TO.P,J5,3*%
%TO.N,GND*%
X4500000Y-53080000D03*
%TD*%
D10*
%TO.P,J3,1*%
%TO.N,/+5V_EXT*%
X56500000Y-26000000D03*
D11*
%TO.P,J3,2*%
%TO.N,GND*%
X56500000Y-28540000D03*
%TO.P,J3,3*%
%TO.N,/MMWAVE_TX*%
X56500000Y-31080000D03*
%TO.P,J3,4*%
%TO.N,/MMWAVE_RX*%
X56500000Y-33620000D03*
%TD*%
D10*
%TO.P,J2,1*%
%TO.N,+3V3*%
X56500000Y-14000000D03*
D11*
%TO.P,J2,2*%
%TO.N,/SDA2*%
X56500000Y-16540000D03*
%TO.P,J2,3*%
%TO.N,/SCL2*%
X56500000Y-19080000D03*
%TO.P,J2,4*%
%TO.N,GND*%
X56500000Y-21620000D03*
%TD*%
D10*
%TO.P,J9,1*%
%TO.N,GND*%
X56500000Y-52000000D03*
D11*
%TO.P,J9,2*%
%TO.N,+3V3*%
X56500000Y-54540000D03*
%TO.P,J9,3*%
%TO.N,/EXP_IO1*%
X56500000Y-57080000D03*
%TO.P,J9,4*%
%TO.N,/EXP_IO2*%
X56500000Y-59620000D03*
%TO.P,J9,5*%
%TO.N,/EXP_IO21*%
X56500000Y-62160000D03*
%TO.P,J9,6*%
%TO.N,/EXP_IO38*%
X56500000Y-64700000D03*
%TO.P,J9,7*%
%TO.N,/EXP_IO47*%
X56500000Y-67240000D03*
%TO.P,J9,8*%
%TO.N,/EXP_IO48*%
X56500000Y-69780000D03*
%TD*%
D10*
%TO.P,J7,1*%
%TO.N,+3V3*%
X4500000Y-57000000D03*
D11*
%TO.P,J7,2*%
%TO.N,GND*%
X4500000Y-59540000D03*
%TO.P,J7,3*%
%TO.N,/ONEWIRE_EXT*%
X4500000Y-62080000D03*
%TD*%
D10*
%TO.P,J6,1*%
%TO.N,/REED_EXT*%
X12000000Y-48000000D03*
D11*
%TO.P,J6,2*%
%TO.N,GND*%
X12000000Y-50540000D03*
%TD*%
D12*
%TO.P,J1,SH*%
%TO.N,GND*%
X1180000Y-36870000D03*
D13*
X1180000Y-41050000D03*
D12*
X9820000Y-36870000D03*
D13*
X9820000Y-41050000D03*
%TD*%
D14*
%TO.P,U3,41*%
%TO.N,GND*%
X27100000Y-15260000D03*
X27100000Y-16660000D03*
X27800000Y-14560000D03*
X27800000Y-15960000D03*
X27800000Y-17360000D03*
X28500000Y-15260000D03*
X28500000Y-16660000D03*
X29200000Y-14560000D03*
X29200000Y-15960000D03*
X29200000Y-17360000D03*
X29900000Y-15260000D03*
X29900000Y-16660000D03*
%TD*%
D10*
%TO.P,J4,1*%
%TO.N,+3V3*%
X56500000Y-38000000D03*
D11*
%TO.P,J4,2*%
%TO.N,GND*%
X56500000Y-40540000D03*
%TO.P,J4,3*%
%TO.N,/MIC_WS*%
X56500000Y-43080000D03*
%TO.P,J4,4*%
%TO.N,/MIC_SCK*%
X56500000Y-45620000D03*
%TO.P,J4,5*%
%TO.N,/MIC_SD*%
X56500000Y-48160000D03*
%TD*%
D15*
%TO.N,/JTAG_MTDI*%
X35299300Y-17230300D03*
X21436400Y-36537400D03*
%TO.N,/JTAG_MTDO*%
X45402400Y-18818100D03*
X45311200Y-41019500D03*
X34696100Y-39710100D03*
X40873300Y-16908400D03*
%TO.N,+3V3*%
X46043900Y-76430500D03*
X39655300Y-71055300D03*
X44825000Y-66475000D03*
X43863200Y-69475900D03*
X17588700Y-12621300D03*
X26056400Y-66607100D03*
X52087500Y-16540000D03*
X21381600Y-78468400D03*
X41337500Y-24750000D03*
X17600000Y-9510000D03*
X36800000Y-33000000D03*
X42837500Y-73400000D03*
X40409400Y-66059400D03*
X28262500Y-32050000D03*
X44175000Y-63525000D03*
X40570800Y-68429200D03*
X17637500Y-22210000D03*
X26500000Y-54450000D03*
X38400000Y-43000000D03*
X25500000Y-54450000D03*
X14925000Y-27700000D03*
X25200000Y-77250000D03*
X35850000Y-36000000D03*
X35850000Y-30000000D03*
X25042500Y-28300000D03*
X16565600Y-14951900D03*
X26500000Y-56550000D03*
X21650000Y-9510000D03*
X36575000Y-66025000D03*
X25500000Y-56550000D03*
X7805900Y-65898400D03*
X52087500Y-19080000D03*
X38850000Y-33000000D03*
X26056400Y-74907100D03*
%TO.N,GND*%
X29475000Y-14985000D03*
X58000000Y-34000000D03*
X34000000Y-74000000D03*
X22000000Y-74000000D03*
X41555300Y-71055300D03*
X39150000Y-8240000D03*
X58000000Y-10000000D03*
X10762500Y-16150000D03*
X26000000Y-14000000D03*
X26000000Y-78000000D03*
X42400000Y-43000000D03*
X26000000Y-38000000D03*
X42000000Y-54000000D03*
X18000000Y-38000000D03*
X50000000Y-50000000D03*
X30000000Y-22000000D03*
X58000000Y-38000000D03*
X6000000Y-78000000D03*
X2000000Y-14000000D03*
X58000000Y-78000000D03*
X54000000Y-26000000D03*
X10000000Y-46000000D03*
X24806400Y-74907100D03*
X25800000Y-71700000D03*
X6000000Y-54000000D03*
X6000000Y-74000000D03*
X50000000Y-58000000D03*
X26000000Y-22000000D03*
X50000000Y-30000000D03*
X34000000Y-30000000D03*
X42000000Y-34000000D03*
X30000000Y-46000000D03*
X2000000Y-34000000D03*
X42000000Y-46000000D03*
X46000000Y-50000000D03*
X28200000Y-69300000D03*
X2000000Y-70000000D03*
X54000000Y-2000000D03*
X10000000Y-62000000D03*
X50000000Y-22000000D03*
X50000000Y-34000000D03*
X10000000Y-22000000D03*
X58000000Y-18000000D03*
X58000000Y-42000000D03*
X50000000Y-10000000D03*
X54000000Y-42000000D03*
X46000000Y-26000000D03*
X26000000Y-34000000D03*
X54000000Y-66000000D03*
X2000000Y-10000000D03*
X27525000Y-16935000D03*
X22000000Y-34000000D03*
X42000000Y-50000000D03*
X2000000Y-74000000D03*
X5900000Y-16150000D03*
X46000000Y-30000000D03*
X10000000Y-38000000D03*
X58000000Y-30000000D03*
X54000000Y-78000000D03*
X5562500Y-33355000D03*
X46000000Y-42000000D03*
X26000000Y-50000000D03*
X38000000Y-50000000D03*
X10000000Y-34000000D03*
X26000000Y-46000000D03*
X54000000Y-38000000D03*
X30000000Y-78000000D03*
X11325000Y-25075000D03*
X42000000Y-18000000D03*
X45400000Y-69100000D03*
X58000000Y-22000000D03*
X46000000Y-54000000D03*
X18000000Y-54000000D03*
X23281600Y-78468400D03*
X26000000Y-18000000D03*
X58000000Y-62000000D03*
X38475000Y-66025000D03*
X34000000Y-14000000D03*
X38000000Y-46000000D03*
X30000000Y-10000000D03*
X54000000Y-58000000D03*
X3825000Y-25075000D03*
X58000000Y-46000000D03*
X42000000Y-10000000D03*
X22000000Y-46000000D03*
X10000000Y-58000000D03*
X18000000Y-58000000D03*
X18000000Y-46000000D03*
X6000000Y-34000000D03*
X14000000Y-70000000D03*
X42000000Y-22000000D03*
X58000000Y-66000000D03*
X38000000Y-54000000D03*
X37062500Y-56450000D03*
X43455500Y-64368900D03*
X58000000Y-58000000D03*
X26000000Y-30000000D03*
X38000000Y-74000000D03*
X2000000Y-50000000D03*
X2000000Y-62000000D03*
X42000000Y-70000000D03*
X34000000Y-10000000D03*
X34000000Y-50000000D03*
X2000000Y-46000000D03*
X30000000Y-50000000D03*
X50000000Y-46000000D03*
X42000000Y-30000000D03*
X30000000Y-54000000D03*
X34000000Y-38000000D03*
X14000000Y-38000000D03*
X50000000Y-54000000D03*
X30537500Y-33950000D03*
X18000000Y-30000000D03*
X54000000Y-6000000D03*
X15562500Y-51490000D03*
X46000000Y-14000000D03*
X10000000Y-70000000D03*
X46050000Y-77300000D03*
X6000000Y-10000000D03*
X22000000Y-58000000D03*
X54000000Y-74000000D03*
X46000000Y-70000000D03*
X17239100Y-58190900D03*
X22000000Y-30000000D03*
X30000000Y-58000000D03*
X46000000Y-46000000D03*
X58000000Y-26000000D03*
X38000000Y-58000000D03*
X50000000Y-26000000D03*
X10000000Y-18000000D03*
X34000000Y-78000000D03*
X24806400Y-66607100D03*
X54000000Y-46000000D03*
X6000000Y-58000000D03*
X58000000Y-14000000D03*
X54000000Y-50000000D03*
X38000000Y-26000000D03*
X10000000Y-50000000D03*
X19500000Y-9510000D03*
X22000000Y-38000000D03*
X9850000Y-13650000D03*
X25800000Y-69300000D03*
X22000000Y-26000000D03*
X14000000Y-34000000D03*
X46000000Y-18000000D03*
X18000000Y-42000000D03*
X46000000Y-74000000D03*
X14000000Y-54000000D03*
X6000000Y-70000000D03*
X13262500Y-36500000D03*
X37750000Y-36000000D03*
X10000000Y-78000000D03*
X14000000Y-74000000D03*
X2000000Y-42000000D03*
X10000000Y-26000000D03*
X13962500Y-30000000D03*
X34000000Y-18000000D03*
X27525000Y-14985000D03*
X42000000Y-42000000D03*
X43750000Y-76500000D03*
X14000000Y-26000000D03*
X7975000Y-25075000D03*
X29475000Y-16935000D03*
X50000000Y-38000000D03*
X9150000Y-35955000D03*
X14000000Y-78000000D03*
X6000000Y-46000000D03*
X34000000Y-22000000D03*
X10000000Y-30000000D03*
X34000000Y-46000000D03*
X42309400Y-66059400D03*
X46000000Y-10000000D03*
X22000000Y-50000000D03*
X40750000Y-33000000D03*
X30000000Y-38000000D03*
X29212500Y-36150000D03*
X46000000Y-78000000D03*
X34000000Y-66000000D03*
X2000000Y-58000000D03*
X40900000Y-75700000D03*
X42000000Y-26000000D03*
X46000000Y-58000000D03*
X50000000Y-14000000D03*
X42000000Y-62000000D03*
X42000000Y-14000000D03*
X46000000Y-38000000D03*
X38000000Y-38000000D03*
X2250000Y-36355000D03*
X58000000Y-50000000D03*
X38000000Y-78000000D03*
X15600000Y-10780000D03*
X6000000Y-14000000D03*
X18000000Y-34000000D03*
X26000000Y-10000000D03*
X6000000Y-62000000D03*
X42000000Y-78000000D03*
X14000000Y-62000000D03*
X10000000Y-42000000D03*
X2000000Y-26000000D03*
X19488700Y-12621300D03*
X54000000Y-54000000D03*
X46000000Y-62000000D03*
X21650000Y-8240000D03*
X14000000Y-18000000D03*
X46000000Y-22000000D03*
X18000000Y-26000000D03*
X10000000Y-74000000D03*
X6000000Y-22000000D03*
X58000000Y-54000000D03*
X34000000Y-70000000D03*
X50000000Y-18000000D03*
X6000000Y-26000000D03*
X6000000Y-2000000D03*
X22000000Y-66000000D03*
X37750000Y-30000000D03*
X22000000Y-54000000D03*
X15475000Y-25075000D03*
X54000000Y-34000000D03*
X5812500Y-65240000D03*
X45875000Y-66025000D03*
X18000000Y-18000000D03*
X2000000Y-66000000D03*
X6000000Y-38000000D03*
X42000000Y-58000000D03*
X2000000Y-78000000D03*
X2000000Y-22000000D03*
X42000000Y-38000000D03*
X27100000Y-77250000D03*
X42470800Y-68429200D03*
X46000000Y-34000000D03*
X38000000Y-70000000D03*
X50000000Y-42000000D03*
X54000000Y-30000000D03*
X6000000Y-50000000D03*
X10000000Y-54000000D03*
X28200000Y-71700000D03*
X14000000Y-22000000D03*
X11178800Y-33338700D03*
X58000000Y-74000000D03*
X54000000Y-10000000D03*
X58000000Y-70000000D03*
X6000000Y-66000000D03*
X2000000Y-54000000D03*
X6000000Y-42000000D03*
X6000000Y-6000000D03*
%TO.N,/SDA2*%
X24353000Y-19303600D03*
%TO.N,/ONEWIRE_DATA*%
X19202600Y-14686300D03*
X3792500Y-37334700D03*
%TO.N,/SCL2*%
X23906800Y-22177200D03*
%TO.N,/+5V_EXT*%
X6046400Y-32080300D03*
X23884900Y-27251700D03*
%TO.N,/SW_GND*%
X6625800Y-33012300D03*
X13591800Y-50664700D03*
%TO.N,/EN*%
X7558500Y-32170400D03*
X27708500Y-48629900D03*
%TO.N,/IO0*%
X16403100Y-16824000D03*
X33520900Y-16374300D03*
%TO.N,/UART0_RX*%
X37170900Y-22433100D03*
X40428600Y-16099200D03*
X37157100Y-19230700D03*
X43230400Y-22765100D03*
%TO.N,/EXP_IO47*%
X32186800Y-43075000D03*
%TO.N,/SDA*%
X20672400Y-48041700D03*
X15594700Y-34562300D03*
%TO.N,/SW_OUT_CTRL*%
X12634400Y-40377500D03*
X17346200Y-30816100D03*
%TO.N,/JTAG_MTCK*%
X36774700Y-21598000D03*
X24595600Y-29783900D03*
%TO.N,/MMWAVE_TX*%
X29961000Y-27938600D03*
%TO.N,/MMWAVE_RX*%
X32999100Y-23935500D03*
%TO.N,+5V*%
X20346200Y-34463000D03*
X3449400Y-31810800D03*
X25825800Y-36094700D03*
X11607800Y-31567700D03*
X16373600Y-35954900D03*
X14161000Y-33118600D03*
X8080100Y-34691400D03*
%TO.N,/EXP_IO21*%
X32939700Y-27671200D03*
%TO.N,/EXP_IO48*%
X35799900Y-28221700D03*
%TO.N,/BUZZER_BASE*%
X37470400Y-53063100D03*
X42982500Y-53284400D03*
%TO.N,/ADC_PAD*%
X23776400Y-29881900D03*
X23919300Y-24406200D03*
%TO.N,/JTAG_MTMS*%
X32034300Y-23143900D03*
X36789000Y-15704700D03*
X32816700Y-15131200D03*
X32075700Y-32303300D03*
%TO.N,/UART0_TX*%
X34932400Y-24703400D03*
X39491900Y-25791400D03*
%TO.N,/LED_DOUT*%
X41994800Y-15704800D03*
X4732800Y-11565700D03*
%TO.N,/REED_IN*%
X19914200Y-15274000D03*
X16325300Y-41053200D03*
%TO.N,/BUZZER_CTRL*%
X39332700Y-45927700D03*
X23325600Y-19762200D03*
%TO.N,/MIC_SCK*%
X31392300Y-24407300D03*
%TO.N,/MIC_WS*%
X30975800Y-27786200D03*
%TO.N,/MIC_SD*%
X33534300Y-28489000D03*
%TD*%
%TO.N,/JTAG_MTDI*%
D16*
X24802200Y-17356600D02*
X20986500Y-21172300D01*
X26976400Y-17990800D02*
X26342200Y-17356600D01*
X29420200Y-17990800D02*
X26976400Y-17990800D01*
X26342200Y-17356600D02*
X24802200Y-17356600D01*
X20986500Y-21172300D02*
X20986500Y-36087500D01*
X30180700Y-17230300D02*
X29420200Y-17990800D01*
X35299300Y-17230300D02*
X30180700Y-17230300D01*
X20986500Y-36087500D02*
X21436400Y-36537400D01*
%TO.N,/JTAG_MTDO*%
X45311200Y-41019500D02*
X44001800Y-39710100D01*
X44001800Y-39710100D02*
X34696100Y-39710100D01*
X43492700Y-16908400D02*
X45402400Y-18818100D01*
X40873300Y-16908400D02*
X43492700Y-16908400D01*
%TO.N,/SDA2*%
X53207600Y-19832400D02*
X56500000Y-16540000D01*
X24353000Y-19303600D02*
X24881800Y-19832400D01*
X24881800Y-19832400D02*
X53207600Y-19832400D01*
%TO.N,/ONEWIRE_DATA*%
X3792500Y-35724400D02*
X2787700Y-34719600D01*
X3792500Y-37334700D02*
X3792500Y-35724400D01*
X2787700Y-31290300D02*
X19202600Y-14875400D01*
X19202600Y-14875400D02*
X19202600Y-14686300D01*
X2787700Y-34719600D02*
X2787700Y-31290300D01*
%TO.N,/SCL2*%
X55156200Y-20423800D02*
X56500000Y-19080000D01*
X23906800Y-22177200D02*
X25660200Y-20423800D01*
X25660200Y-20423800D02*
X55156200Y-20423800D01*
%TO.N,/+5V_EXT*%
X4500000Y-48000000D02*
X4500000Y-33525100D01*
X6046400Y-32080400D02*
X6046400Y-32080300D01*
X5944700Y-32080400D02*
X6046400Y-32080400D01*
X56500000Y-26000000D02*
X55348300Y-26000000D01*
X55348300Y-26000000D02*
X50344600Y-20996300D01*
X4500000Y-33525100D02*
X5944700Y-32080400D01*
X30140300Y-20996300D02*
X23884900Y-27251700D01*
X50344600Y-20996300D02*
X30140300Y-20996300D01*
%TO.N,/SW_GND*%
X12583600Y-49388300D02*
X13591800Y-50396500D01*
X13591800Y-50396500D02*
X13591800Y-50664700D01*
X5651700Y-49388300D02*
X4500000Y-50540000D01*
X5651700Y-49388300D02*
X12583600Y-49388300D01*
X5334800Y-45665000D02*
X5334800Y-46361500D01*
X6625800Y-44374000D02*
X5334800Y-45665000D01*
X5651700Y-46678400D02*
X5651700Y-49388300D01*
X5334800Y-46361500D02*
X5651700Y-46678400D01*
X6625800Y-33012300D02*
X6625800Y-44374000D01*
%TO.N,/EN*%
X7412600Y-32316300D02*
X7412600Y-37716600D01*
X18921900Y-48643400D02*
X27695000Y-48643400D01*
X27695000Y-48643400D02*
X27708500Y-48629900D01*
X7412600Y-37716600D02*
X9504000Y-39808000D01*
X7558500Y-32170400D02*
X7412600Y-32316300D01*
X9504000Y-39808000D02*
X10086500Y-39808000D01*
X10086500Y-39808000D02*
X18921900Y-48643400D01*
%TO.N,/IO0*%
X30189800Y-13356700D02*
X33207400Y-16374300D01*
X16403100Y-16824000D02*
X16403100Y-16634900D01*
X19681300Y-13356700D02*
X30189800Y-13356700D01*
X33207400Y-16374300D02*
X33520900Y-16374300D01*
X16403100Y-16634900D02*
X19681300Y-13356700D01*
%TO.N,/UART0_RX*%
X37170900Y-22433100D02*
X37502900Y-22765100D01*
X37502900Y-22765100D02*
X43230400Y-22765100D01*
X40288600Y-16099200D02*
X37157100Y-19230700D01*
X40428600Y-16099200D02*
X40288600Y-16099200D01*
%TO.N,/EXP_IO47*%
X56500000Y-67240000D02*
X56500000Y-66464500D01*
X43231700Y-52682700D02*
X41794500Y-52682700D01*
X43584200Y-53035200D02*
X43231700Y-52682700D01*
X56500000Y-66464500D02*
X43584200Y-53548700D01*
X43584200Y-53548700D02*
X43584200Y-53035200D01*
X41794500Y-52682700D02*
X32186800Y-43075000D01*
%TO.N,/SDA*%
X17018500Y-40895300D02*
X17018500Y-42418300D01*
X20672400Y-46072200D02*
X20672400Y-48041700D01*
X15594700Y-39471500D02*
X17018500Y-40895300D01*
X15594700Y-34562300D02*
X15594700Y-39471500D01*
X17018500Y-42418300D02*
X20672400Y-46072200D01*
%TO.N,/SW_OUT_CTRL*%
X17346200Y-30816100D02*
X15565000Y-30816100D01*
X15565000Y-30816100D02*
X12634400Y-33746700D01*
X12634400Y-33746700D02*
X12634400Y-40377500D01*
%TO.N,/JTAG_MTCK*%
X32901100Y-21398300D02*
X36575000Y-21398300D01*
X24595600Y-29783900D02*
X24595600Y-29703800D01*
X24595600Y-29703800D02*
X32901100Y-21398300D01*
X36575000Y-21398300D02*
X36774700Y-21598000D01*
%TO.N,/MMWAVE_TX*%
X33797900Y-24101700D02*
X42580200Y-24101700D01*
X42580200Y-24101700D02*
X49558500Y-31080000D01*
X49558500Y-31080000D02*
X56500000Y-31080000D01*
X29961000Y-27938600D02*
X33797900Y-24101700D01*
%TO.N,/MMWAVE_RX*%
X57673000Y-30623000D02*
X57673000Y-32447000D01*
X42746500Y-23700000D02*
X42815000Y-23768500D01*
X33234600Y-23700000D02*
X42746500Y-23700000D01*
X32999100Y-23935500D02*
X33234600Y-23700000D01*
X49841300Y-23768500D02*
X55882800Y-29810000D01*
X55882800Y-29810000D02*
X56860000Y-29810000D01*
X42815000Y-23768500D02*
X49841300Y-23768500D01*
X56860000Y-29810000D02*
X57673000Y-30623000D01*
X57673000Y-32447000D02*
X56500000Y-33620000D01*
%TO.N,+5V*%
X16588700Y-34705400D02*
X15001900Y-33118600D01*
X16588700Y-35739800D02*
X16588700Y-35416300D01*
X8080100Y-34691400D02*
X8160200Y-34611300D01*
X16373600Y-35954900D02*
X16588700Y-35739800D01*
X19392900Y-35416300D02*
X20346200Y-34463000D01*
X24768900Y-37151600D02*
X25825800Y-36094700D01*
X11607800Y-31567700D02*
X11254300Y-31921200D01*
X7701000Y-31462000D02*
X3798200Y-31462000D01*
X8160200Y-34611300D02*
X8160200Y-31921200D01*
X3798200Y-31462000D02*
X3449400Y-31810800D01*
X16588700Y-35416300D02*
X19392900Y-35416300D01*
X19392900Y-35416300D02*
X21128200Y-37151600D01*
X15001900Y-33118600D02*
X14161000Y-33118600D01*
X11254300Y-31921200D02*
X8160200Y-31921200D01*
X21128200Y-37151600D02*
X24768900Y-37151600D01*
X8160200Y-31921200D02*
X7701000Y-31462000D01*
X16588700Y-35416300D02*
X16588700Y-34705400D01*
%TO.N,/EXP_IO21*%
X34651800Y-40311800D02*
X56500000Y-62160000D01*
X32932600Y-38797400D02*
X34447000Y-40311800D01*
X32932600Y-27678300D02*
X32932600Y-38797400D01*
X34447000Y-40311800D02*
X34651800Y-40311800D01*
X32939700Y-27671200D02*
X32932600Y-27678300D01*
%TO.N,/EXP_IO48*%
X37221900Y-28221700D02*
X35799900Y-28221700D01*
X56500000Y-69780000D02*
X58606500Y-67673500D01*
X56956400Y-46890000D02*
X55890200Y-46890000D01*
X55890200Y-46890000D02*
X37221900Y-28221700D01*
X58606500Y-67673500D02*
X58606500Y-48540100D01*
X58606500Y-48540100D02*
X56956400Y-46890000D01*
%TO.N,/BUZZER_BASE*%
X37691700Y-53284400D02*
X42982500Y-53284400D01*
X37470400Y-53063100D02*
X37691700Y-53284400D01*
%TO.N,/ADC_PAD*%
X23776400Y-29881900D02*
X23283100Y-29388600D01*
X23283100Y-25042400D02*
X23919300Y-24406200D01*
X23283100Y-29388600D02*
X23283100Y-25042400D01*
%TO.N,/JTAG_MTMS*%
X36215500Y-15131200D02*
X32816700Y-15131200D01*
X32034300Y-23143900D02*
X31776100Y-23143900D01*
X31776100Y-23143900D02*
X29310600Y-25609400D01*
X36789000Y-15704700D02*
X36215500Y-15131200D01*
X29310600Y-25609400D02*
X29310600Y-29538200D01*
X29310600Y-29538200D02*
X32075700Y-32303300D01*
%TO.N,/UART0_TX*%
X38403900Y-24703400D02*
X39491900Y-25791400D01*
X34932400Y-24703400D02*
X38403900Y-24703400D01*
%TO.N,/LED_DOUT*%
X37855700Y-11565700D02*
X41994800Y-15704800D01*
X4732800Y-11565700D02*
X37855700Y-11565700D01*
%TO.N,/REED_IN*%
X12032700Y-32575600D02*
X12032700Y-40654600D01*
X19914200Y-17509200D02*
X12611200Y-24812200D01*
X12611200Y-24812200D02*
X12611200Y-31997100D01*
X19914200Y-15274000D02*
X19914200Y-17509200D01*
X16325300Y-41053100D02*
X16325300Y-41053200D01*
X12611200Y-31997100D02*
X12032700Y-32575600D01*
X12032700Y-40654600D02*
X12431200Y-41053100D01*
X12431200Y-41053100D02*
X16325300Y-41053100D01*
%TO.N,/BUZZER_CTRL*%
X21750900Y-21336900D02*
X23325600Y-19762200D01*
X39332700Y-45927700D02*
X38403100Y-44998100D01*
X36105700Y-44998100D02*
X21398300Y-30290700D01*
X21750800Y-25398300D02*
X21750900Y-25398300D01*
X21398300Y-25750800D02*
X21750800Y-25398300D01*
X21750900Y-25398300D02*
X21750900Y-21336900D01*
X38403100Y-44998100D02*
X36105700Y-44998100D01*
X21398300Y-30290700D02*
X21398300Y-25750800D01*
%TO.N,/MIC_SCK*%
X58602600Y-43517400D02*
X56500000Y-45620000D01*
X56940400Y-27340300D02*
X58602600Y-29002500D01*
X54068100Y-27340300D02*
X56940400Y-27340300D01*
X31621800Y-24407300D02*
X32734100Y-23295000D01*
X42909500Y-23295000D02*
X42981300Y-23366800D01*
X32734100Y-23295000D02*
X42909500Y-23295000D01*
X58602600Y-29002500D02*
X58602600Y-43517400D01*
X31392300Y-24407300D02*
X31621800Y-24407300D01*
X50094600Y-23366800D02*
X54068100Y-27340300D01*
X42981300Y-23366800D02*
X50094600Y-23366800D01*
%TO.N,/MIC_WS*%
X30975800Y-27786200D02*
X31692500Y-27069500D01*
X40489500Y-27069500D02*
X56500000Y-43080000D01*
X31692500Y-27069500D02*
X40489500Y-27069500D01*
%TO.N,/MIC_SD*%
X45366400Y-40417800D02*
X33534300Y-28585700D01*
X53302600Y-48160000D02*
X45560400Y-40417800D01*
X56500000Y-48160000D02*
X53302600Y-48160000D01*
X45560400Y-40417800D02*
X45366400Y-40417800D01*
X33534300Y-28585700D02*
X33534300Y-28489000D01*
%TD*%
%TA.AperFunction,Conductor*%
%TO.N,GND*%
G36*
X7959191Y-519407D02*
G01*
X7995155Y-568907D01*
X8000000Y-599499D01*
X8000000Y-7500000D01*
X8000001Y-7500000D01*
X51999999Y-7500000D01*
X52000000Y-7500000D01*
X52000000Y-3878710D01*
X54649500Y-3878710D01*
X54649500Y-4121289D01*
X54681161Y-4361781D01*
X54681161Y-4361786D01*
X54743944Y-4596092D01*
X54743948Y-4596105D01*
X54836772Y-4820204D01*
X54836774Y-4820208D01*
X54836776Y-4820212D01*
X54958064Y-5030289D01*
X54958066Y-5030292D01*
X55105729Y-5222731D01*
X55105731Y-5222733D01*
X55105735Y-5222738D01*
X55277262Y-5394265D01*
X55277266Y-5394268D01*
X55277268Y-5394270D01*
X55469707Y-5541933D01*
X55469711Y-5541936D01*
X55679788Y-5663224D01*
X55903900Y-5756054D01*
X56138211Y-5818838D01*
X56378712Y-5850500D01*
X56378713Y-5850500D01*
X56621287Y-5850500D01*
X56621288Y-5850500D01*
X56861789Y-5818838D01*
X57096100Y-5756054D01*
X57320212Y-5663224D01*
X57530289Y-5541936D01*
X57722738Y-5394265D01*
X57894265Y-5222738D01*
X58041936Y-5030289D01*
X58163224Y-4820212D01*
X58256054Y-4596100D01*
X58318838Y-4361789D01*
X58350500Y-4121288D01*
X58350500Y-3878712D01*
X58318838Y-3638211D01*
X58256054Y-3403900D01*
X58163224Y-3179788D01*
X58041936Y-2969711D01*
X57894265Y-2777262D01*
X57722738Y-2605735D01*
X57722733Y-2605731D01*
X57722731Y-2605729D01*
X57530292Y-2458066D01*
X57530289Y-2458064D01*
X57320212Y-2336776D01*
X57320208Y-2336774D01*
X57320204Y-2336772D01*
X57096105Y-2243948D01*
X57096104Y-2243947D01*
X57096100Y-2243946D01*
X56861789Y-2181162D01*
X56861786Y-2181161D01*
X56861784Y-2181161D01*
X56621289Y-2149500D01*
X56621288Y-2149500D01*
X56378712Y-2149500D01*
X56378710Y-2149500D01*
X56138218Y-2181161D01*
X56138213Y-2181161D01*
X55903907Y-2243944D01*
X55903894Y-2243948D01*
X55679795Y-2336772D01*
X55469707Y-2458066D01*
X55277268Y-2605729D01*
X55105729Y-2777268D01*
X54958066Y-2969707D01*
X54836772Y-3179795D01*
X54743948Y-3403894D01*
X54743944Y-3403907D01*
X54681161Y-3638213D01*
X54681161Y-3638218D01*
X54649500Y-3878710D01*
X52000000Y-3878710D01*
X52000000Y-599500D01*
X52018907Y-541309D01*
X52068407Y-505345D01*
X52099000Y-500500D01*
X59400500Y-500500D01*
X59458691Y-519407D01*
X59494655Y-568907D01*
X59499500Y-599500D01*
X59499500Y-79400500D01*
X59480593Y-79458691D01*
X59431093Y-79494655D01*
X59400500Y-79499500D01*
X51099500Y-79499500D01*
X51041309Y-79480593D01*
X51005345Y-79431093D01*
X51000500Y-79400500D01*
X51000500Y-75878712D01*
X54149500Y-75878712D01*
X54149500Y-76121288D01*
X54180666Y-76358025D01*
X54181161Y-76361781D01*
X54181161Y-76361786D01*
X54243944Y-76596092D01*
X54243948Y-76596105D01*
X54336772Y-76820204D01*
X54336774Y-76820208D01*
X54336776Y-76820212D01*
X54429607Y-76981000D01*
X54458066Y-77030292D01*
X54605729Y-77222731D01*
X54605731Y-77222733D01*
X54605735Y-77222738D01*
X54777262Y-77394265D01*
X54777266Y-77394268D01*
X54777268Y-77394270D01*
X54866168Y-77462485D01*
X54969711Y-77541936D01*
X55179788Y-77663224D01*
X55403900Y-77756054D01*
X55638211Y-77818838D01*
X55878712Y-77850500D01*
X55878713Y-77850500D01*
X56121287Y-77850500D01*
X56121288Y-77850500D01*
X56361789Y-77818838D01*
X56596100Y-77756054D01*
X56820212Y-77663224D01*
X57030289Y-77541936D01*
X57222738Y-77394265D01*
X57394265Y-77222738D01*
X57541936Y-77030289D01*
X57663224Y-76820212D01*
X57756054Y-76596100D01*
X57818838Y-76361789D01*
X57850500Y-76121288D01*
X57850500Y-75878712D01*
X57818838Y-75638211D01*
X57756054Y-75403900D01*
X57663224Y-75179788D01*
X57541936Y-74969711D01*
X57394265Y-74777262D01*
X57222738Y-74605735D01*
X57222733Y-74605731D01*
X57222731Y-74605729D01*
X57030292Y-74458066D01*
X57030289Y-74458064D01*
X56820212Y-74336776D01*
X56820208Y-74336774D01*
X56820204Y-74336772D01*
X56596105Y-74243948D01*
X56596104Y-74243947D01*
X56596100Y-74243946D01*
X56361789Y-74181162D01*
X56361786Y-74181161D01*
X56361784Y-74181161D01*
X56121289Y-74149500D01*
X56121288Y-74149500D01*
X55878712Y-74149500D01*
X55878710Y-74149500D01*
X55638218Y-74181161D01*
X55638213Y-74181161D01*
X55403907Y-74243944D01*
X55403894Y-74243948D01*
X55179795Y-74336772D01*
X54969707Y-74458066D01*
X54777268Y-74605729D01*
X54605729Y-74777268D01*
X54458066Y-74969707D01*
X54336772Y-75179795D01*
X54243948Y-75403894D01*
X54243944Y-75403907D01*
X54181161Y-75638213D01*
X54181161Y-75638218D01*
X54149500Y-75878712D01*
X51000500Y-75878712D01*
X51000500Y-61934109D01*
X50970541Y-61822299D01*
X50966392Y-61806814D01*
X50966390Y-61806811D01*
X50966390Y-61806809D01*
X50900503Y-61692690D01*
X50900501Y-61692688D01*
X50900500Y-61692686D01*
X50807314Y-61599500D01*
X50807311Y-61599498D01*
X50807309Y-61599496D01*
X50693189Y-61533609D01*
X50693191Y-61533609D01*
X50643799Y-61520375D01*
X50565892Y-61499500D01*
X49065892Y-61499500D01*
X48934108Y-61499500D01*
X48856200Y-61520375D01*
X48806809Y-61533609D01*
X48692690Y-61599496D01*
X48599496Y-61692690D01*
X48533609Y-61806809D01*
X48499500Y-61934109D01*
X48499500Y-79400500D01*
X48480593Y-79458691D01*
X48431093Y-79494655D01*
X48400500Y-79499500D01*
X20099500Y-79499500D01*
X20041309Y-79480593D01*
X20005345Y-79431093D01*
X20000500Y-79400500D01*
X20000500Y-78395925D01*
X20831100Y-78395925D01*
X20831100Y-78540874D01*
X20868617Y-78680889D01*
X20941087Y-78806410D01*
X20941089Y-78806412D01*
X20941091Y-78806415D01*
X21043585Y-78908909D01*
X21043587Y-78908910D01*
X21043589Y-78908912D01*
X21169111Y-78981382D01*
X21169112Y-78981382D01*
X21169115Y-78981384D01*
X21309125Y-79018900D01*
X21309126Y-79018900D01*
X21454074Y-79018900D01*
X21454075Y-79018900D01*
X21594085Y-78981384D01*
X21594087Y-78981382D01*
X21594089Y-78981382D01*
X21719610Y-78908912D01*
X21719610Y-78908911D01*
X21719615Y-78908909D01*
X21822109Y-78806415D01*
X21894584Y-78680885D01*
X21932100Y-78540875D01*
X21932100Y-78395925D01*
X21894584Y-78255915D01*
X21894582Y-78255912D01*
X21894582Y-78255910D01*
X21822112Y-78130389D01*
X21822110Y-78130387D01*
X21822109Y-78130385D01*
X21719615Y-78027891D01*
X21719612Y-78027889D01*
X21719610Y-78027887D01*
X21594088Y-77955417D01*
X21594089Y-77955417D01*
X21564496Y-77947487D01*
X21454075Y-77917900D01*
X21309125Y-77917900D01*
X21247390Y-77934441D01*
X21169110Y-77955417D01*
X21043589Y-78027887D01*
X20941087Y-78130389D01*
X20868617Y-78255910D01*
X20831100Y-78395925D01*
X20000500Y-78395925D01*
X20000500Y-77177525D01*
X24649500Y-77177525D01*
X24649500Y-77322474D01*
X24687017Y-77462489D01*
X24759487Y-77588010D01*
X24759489Y-77588012D01*
X24759491Y-77588015D01*
X24861985Y-77690509D01*
X24861987Y-77690510D01*
X24861989Y-77690512D01*
X24987511Y-77762982D01*
X24987512Y-77762982D01*
X24987515Y-77762984D01*
X25127525Y-77800500D01*
X25127526Y-77800500D01*
X25272474Y-77800500D01*
X25272475Y-77800500D01*
X25412485Y-77762984D01*
X25412487Y-77762982D01*
X25412489Y-77762982D01*
X25538010Y-77690512D01*
X25538010Y-77690511D01*
X25538015Y-77690509D01*
X25640509Y-77588015D01*
X25712984Y-77462485D01*
X25750500Y-77322475D01*
X25750500Y-77177525D01*
X25712984Y-77037515D01*
X25712982Y-77037512D01*
X25712982Y-77037510D01*
X25640512Y-76911989D01*
X25640510Y-76911987D01*
X25640509Y-76911985D01*
X25538015Y-76809491D01*
X25538012Y-76809489D01*
X25538010Y-76809487D01*
X25412488Y-76737017D01*
X25412489Y-76737017D01*
X25382896Y-76729087D01*
X25272475Y-76699500D01*
X25127525Y-76699500D01*
X25065790Y-76716041D01*
X24987510Y-76737017D01*
X24861989Y-76809487D01*
X24759487Y-76911989D01*
X24687017Y-77037510D01*
X24649500Y-77177525D01*
X20000500Y-77177525D01*
X20000500Y-76358025D01*
X45493400Y-76358025D01*
X45493400Y-76502974D01*
X45530917Y-76642989D01*
X45603387Y-76768510D01*
X45603389Y-76768512D01*
X45603391Y-76768515D01*
X45705885Y-76871009D01*
X45705887Y-76871010D01*
X45705889Y-76871012D01*
X45831411Y-76943482D01*
X45831412Y-76943482D01*
X45831415Y-76943484D01*
X45971425Y-76981000D01*
X45971426Y-76981000D01*
X46116374Y-76981000D01*
X46116375Y-76981000D01*
X46256385Y-76943484D01*
X46256387Y-76943482D01*
X46256389Y-76943482D01*
X46381910Y-76871012D01*
X46381910Y-76871011D01*
X46381915Y-76871009D01*
X46484409Y-76768515D01*
X46484412Y-76768510D01*
X46556882Y-76642989D01*
X46556882Y-76642987D01*
X46556884Y-76642985D01*
X46594400Y-76502975D01*
X46594400Y-76358025D01*
X46556884Y-76218015D01*
X46556882Y-76218012D01*
X46556882Y-76218010D01*
X46484412Y-76092489D01*
X46484410Y-76092487D01*
X46484409Y-76092485D01*
X46381915Y-75989991D01*
X46381912Y-75989989D01*
X46381910Y-75989987D01*
X46256388Y-75917517D01*
X46256389Y-75917517D01*
X46226796Y-75909587D01*
X46116375Y-75880000D01*
X45971425Y-75880000D01*
X45909690Y-75896541D01*
X45831410Y-75917517D01*
X45705889Y-75989987D01*
X45603387Y-76092489D01*
X45530917Y-76218010D01*
X45493400Y-76358025D01*
X20000500Y-76358025D01*
X20000500Y-74834625D01*
X25505900Y-74834625D01*
X25505900Y-74979574D01*
X25543417Y-75119589D01*
X25615887Y-75245110D01*
X25615889Y-75245112D01*
X25615891Y-75245115D01*
X25718385Y-75347609D01*
X25718387Y-75347610D01*
X25718389Y-75347612D01*
X25843911Y-75420082D01*
X25843912Y-75420082D01*
X25843915Y-75420084D01*
X25983925Y-75457600D01*
X25983926Y-75457600D01*
X26128874Y-75457600D01*
X26128875Y-75457600D01*
X26268885Y-75420084D01*
X26268887Y-75420082D01*
X26268889Y-75420082D01*
X26394410Y-75347612D01*
X26394410Y-75347611D01*
X26394415Y-75347609D01*
X26496909Y-75245115D01*
X26569384Y-75119585D01*
X26606900Y-74979575D01*
X26606900Y-74834625D01*
X26569384Y-74694615D01*
X26569382Y-74694612D01*
X26569382Y-74694610D01*
X26496912Y-74569089D01*
X26496910Y-74569087D01*
X26496909Y-74569085D01*
X26394415Y-74466591D01*
X26394412Y-74466589D01*
X26394410Y-74466587D01*
X26268888Y-74394117D01*
X26268889Y-74394117D01*
X26239296Y-74386187D01*
X26128875Y-74356600D01*
X25983925Y-74356600D01*
X25922190Y-74373141D01*
X25843910Y-74394117D01*
X25718389Y-74466587D01*
X25615887Y-74569089D01*
X25543417Y-74694610D01*
X25505900Y-74834625D01*
X20000500Y-74834625D01*
X20000500Y-73327525D01*
X42287000Y-73327525D01*
X42287000Y-73472474D01*
X42324517Y-73612489D01*
X42396987Y-73738010D01*
X42396989Y-73738012D01*
X42396991Y-73738015D01*
X42499485Y-73840509D01*
X42499487Y-73840510D01*
X42499489Y-73840512D01*
X42625011Y-73912982D01*
X42625012Y-73912982D01*
X42625015Y-73912984D01*
X42765025Y-73950500D01*
X42765026Y-73950500D01*
X42909974Y-73950500D01*
X42909975Y-73950500D01*
X43049985Y-73912984D01*
X43049987Y-73912982D01*
X43049989Y-73912982D01*
X43175510Y-73840512D01*
X43175510Y-73840511D01*
X43175515Y-73840509D01*
X43278009Y-73738015D01*
X43350484Y-73612485D01*
X43388000Y-73472475D01*
X43388000Y-73327525D01*
X43350484Y-73187515D01*
X43350482Y-73187512D01*
X43350482Y-73187510D01*
X43278012Y-73061989D01*
X43278010Y-73061987D01*
X43278009Y-73061985D01*
X43175515Y-72959491D01*
X43175512Y-72959489D01*
X43175510Y-72959487D01*
X43049988Y-72887017D01*
X43049989Y-72887017D01*
X43020396Y-72879087D01*
X42909975Y-72849500D01*
X42765025Y-72849500D01*
X42703290Y-72866041D01*
X42625010Y-72887017D01*
X42499489Y-72959487D01*
X42396987Y-73061989D01*
X42324517Y-73187510D01*
X42287000Y-73327525D01*
X20000500Y-73327525D01*
X20000500Y-70982825D01*
X39104800Y-70982825D01*
X39104800Y-71127774D01*
X39142317Y-71267789D01*
X39214787Y-71393310D01*
X39214789Y-71393312D01*
X39214791Y-71393315D01*
X39317285Y-71495809D01*
X39317287Y-71495810D01*
X39317289Y-71495812D01*
X39442811Y-71568282D01*
X39442812Y-71568282D01*
X39442815Y-71568284D01*
X39582825Y-71605800D01*
X39582826Y-71605800D01*
X39727774Y-71605800D01*
X39727775Y-71605800D01*
X39867785Y-71568284D01*
X39867787Y-71568282D01*
X39867789Y-71568282D01*
X39993310Y-71495812D01*
X39993310Y-71495811D01*
X39993315Y-71495809D01*
X40095809Y-71393315D01*
X40168284Y-71267785D01*
X40205800Y-71127775D01*
X40205800Y-70982825D01*
X40168284Y-70842815D01*
X40168282Y-70842812D01*
X40168282Y-70842810D01*
X40095812Y-70717289D01*
X40095810Y-70717287D01*
X40095809Y-70717285D01*
X39993315Y-70614791D01*
X39993312Y-70614789D01*
X39993310Y-70614787D01*
X39867788Y-70542317D01*
X39867789Y-70542317D01*
X39838196Y-70534387D01*
X39727775Y-70504800D01*
X39582825Y-70504800D01*
X39521090Y-70521341D01*
X39442810Y-70542317D01*
X39317289Y-70614787D01*
X39214787Y-70717289D01*
X39142317Y-70842810D01*
X39104800Y-70982825D01*
X20000500Y-70982825D01*
X20000500Y-69403425D01*
X43312700Y-69403425D01*
X43312700Y-69548374D01*
X43350217Y-69688389D01*
X43422687Y-69813910D01*
X43422689Y-69813912D01*
X43422691Y-69813915D01*
X43525185Y-69916409D01*
X43525187Y-69916410D01*
X43525189Y-69916412D01*
X43650711Y-69988882D01*
X43650712Y-69988882D01*
X43650715Y-69988884D01*
X43790725Y-70026400D01*
X43790726Y-70026400D01*
X43935674Y-70026400D01*
X43935675Y-70026400D01*
X44075685Y-69988884D01*
X44075687Y-69988882D01*
X44075689Y-69988882D01*
X44201210Y-69916412D01*
X44201210Y-69916411D01*
X44201215Y-69916409D01*
X44303709Y-69813915D01*
X44373295Y-69693389D01*
X44376182Y-69688389D01*
X44376182Y-69688387D01*
X44376184Y-69688385D01*
X44413700Y-69548375D01*
X44413700Y-69403425D01*
X44376184Y-69263415D01*
X44376182Y-69263412D01*
X44376182Y-69263410D01*
X44303712Y-69137889D01*
X44303710Y-69137887D01*
X44303709Y-69137885D01*
X44201215Y-69035391D01*
X44201212Y-69035389D01*
X44201210Y-69035387D01*
X44075688Y-68962917D01*
X44075689Y-68962917D01*
X43998313Y-68942184D01*
X43935675Y-68925400D01*
X43790725Y-68925400D01*
X43734051Y-68940586D01*
X43650710Y-68962917D01*
X43525189Y-69035387D01*
X43422687Y-69137889D01*
X43350217Y-69263410D01*
X43312700Y-69403425D01*
X20000500Y-69403425D01*
X20000500Y-68356725D01*
X40020300Y-68356725D01*
X40020300Y-68501674D01*
X40057817Y-68641689D01*
X40130287Y-68767210D01*
X40130289Y-68767212D01*
X40130291Y-68767215D01*
X40232785Y-68869709D01*
X40232787Y-68869710D01*
X40232789Y-68869712D01*
X40358311Y-68942182D01*
X40358312Y-68942182D01*
X40358315Y-68942184D01*
X40498325Y-68979700D01*
X40498326Y-68979700D01*
X40643274Y-68979700D01*
X40643275Y-68979700D01*
X40783285Y-68942184D01*
X40783287Y-68942182D01*
X40783289Y-68942182D01*
X40908810Y-68869712D01*
X40908810Y-68869711D01*
X40908815Y-68869709D01*
X41011309Y-68767215D01*
X41015401Y-68760127D01*
X41083782Y-68641689D01*
X41083782Y-68641687D01*
X41083784Y-68641685D01*
X41121300Y-68501675D01*
X41121300Y-68356725D01*
X41083784Y-68216715D01*
X41083782Y-68216712D01*
X41083782Y-68216710D01*
X41011312Y-68091189D01*
X41011310Y-68091187D01*
X41011309Y-68091185D01*
X40908815Y-67988691D01*
X40908812Y-67988689D01*
X40908810Y-67988687D01*
X40783288Y-67916217D01*
X40783289Y-67916217D01*
X40753696Y-67908287D01*
X40643275Y-67878700D01*
X40498325Y-67878700D01*
X40436590Y-67895241D01*
X40358310Y-67916217D01*
X40232789Y-67988687D01*
X40130287Y-68091189D01*
X40057817Y-68216710D01*
X40020300Y-68356725D01*
X20000500Y-68356725D01*
X20000500Y-66534625D01*
X25505900Y-66534625D01*
X25505900Y-66679574D01*
X25543417Y-66819589D01*
X25615887Y-66945110D01*
X25615889Y-66945112D01*
X25615891Y-66945115D01*
X25718385Y-67047609D01*
X25718387Y-67047610D01*
X25718389Y-67047612D01*
X25843911Y-67120082D01*
X25843912Y-67120082D01*
X25843915Y-67120084D01*
X25983925Y-67157600D01*
X25983926Y-67157600D01*
X26128874Y-67157600D01*
X26128875Y-67157600D01*
X26268885Y-67120084D01*
X26268887Y-67120082D01*
X26268889Y-67120082D01*
X26394410Y-67047612D01*
X26394410Y-67047611D01*
X26394415Y-67047609D01*
X26496909Y-66945115D01*
X26496912Y-66945110D01*
X26569382Y-66819589D01*
X26569382Y-66819587D01*
X26569384Y-66819585D01*
X26606900Y-66679575D01*
X26606900Y-66534625D01*
X26569384Y-66394615D01*
X26569382Y-66394612D01*
X26569382Y-66394610D01*
X26496912Y-66269089D01*
X26496910Y-66269087D01*
X26496909Y-66269085D01*
X26394415Y-66166591D01*
X26394412Y-66166589D01*
X26394410Y-66166587D01*
X26268888Y-66094117D01*
X26268889Y-66094117D01*
X26239296Y-66086187D01*
X26128875Y-66056600D01*
X25983925Y-66056600D01*
X25922190Y-66073141D01*
X25843910Y-66094117D01*
X25718389Y-66166587D01*
X25615887Y-66269089D01*
X25543417Y-66394610D01*
X25505900Y-66534625D01*
X20000500Y-66534625D01*
X20000500Y-65952525D01*
X36024500Y-65952525D01*
X36024500Y-66097475D01*
X36035087Y-66136985D01*
X36062017Y-66237489D01*
X36134487Y-66363010D01*
X36134489Y-66363012D01*
X36134491Y-66363015D01*
X36236985Y-66465509D01*
X36236987Y-66465510D01*
X36236989Y-66465512D01*
X36362511Y-66537982D01*
X36362512Y-66537982D01*
X36362515Y-66537984D01*
X36502525Y-66575500D01*
X36502526Y-66575500D01*
X36647474Y-66575500D01*
X36647475Y-66575500D01*
X36787485Y-66537984D01*
X36787487Y-66537982D01*
X36787489Y-66537982D01*
X36913010Y-66465512D01*
X36913010Y-66465511D01*
X36913015Y-66465509D01*
X37015509Y-66363015D01*
X37052602Y-66298768D01*
X37087982Y-66237489D01*
X37087982Y-66237487D01*
X37087984Y-66237485D01*
X37125500Y-66097475D01*
X37125500Y-65986925D01*
X39858900Y-65986925D01*
X39858900Y-66131875D01*
X39866531Y-66160353D01*
X39896417Y-66271889D01*
X39968887Y-66397410D01*
X39968889Y-66397412D01*
X39968891Y-66397415D01*
X40071385Y-66499909D01*
X40071387Y-66499910D01*
X40071389Y-66499912D01*
X40196911Y-66572382D01*
X40196912Y-66572382D01*
X40196915Y-66572384D01*
X40336925Y-66609900D01*
X40336926Y-66609900D01*
X40481874Y-66609900D01*
X40481875Y-66609900D01*
X40621885Y-66572384D01*
X40621887Y-66572382D01*
X40621889Y-66572382D01*
X40747410Y-66499912D01*
X40747410Y-66499911D01*
X40747415Y-66499909D01*
X40844799Y-66402525D01*
X44274500Y-66402525D01*
X44274500Y-66547475D01*
X44291227Y-66609900D01*
X44312017Y-66687489D01*
X44384487Y-66813010D01*
X44384489Y-66813012D01*
X44384491Y-66813015D01*
X44486985Y-66915509D01*
X44486987Y-66915510D01*
X44486989Y-66915512D01*
X44612511Y-66987982D01*
X44612512Y-66987982D01*
X44612515Y-66987984D01*
X44752525Y-67025500D01*
X44752526Y-67025500D01*
X44897474Y-67025500D01*
X44897475Y-67025500D01*
X45037485Y-66987984D01*
X45037487Y-66987982D01*
X45037489Y-66987982D01*
X45163010Y-66915512D01*
X45163010Y-66915511D01*
X45163015Y-66915509D01*
X45265509Y-66813015D01*
X45337984Y-66687485D01*
X45375500Y-66547475D01*
X45375500Y-66402525D01*
X45337984Y-66262515D01*
X45337982Y-66262512D01*
X45337982Y-66262510D01*
X45265512Y-66136989D01*
X45265510Y-66136987D01*
X45265509Y-66136985D01*
X45163015Y-66034491D01*
X45163012Y-66034489D01*
X45163010Y-66034487D01*
X45037488Y-65962017D01*
X45037489Y-65962017D01*
X45007896Y-65954087D01*
X44897475Y-65924500D01*
X44752525Y-65924500D01*
X44690790Y-65941041D01*
X44612510Y-65962017D01*
X44486989Y-66034487D01*
X44384487Y-66136989D01*
X44312017Y-66262510D01*
X44275973Y-66397028D01*
X44274500Y-66402525D01*
X40844799Y-66402525D01*
X40849909Y-66397415D01*
X40849912Y-66397410D01*
X40879285Y-66346536D01*
X40922382Y-66271889D01*
X40922382Y-66271887D01*
X40922384Y-66271885D01*
X40959900Y-66131875D01*
X40959900Y-65986925D01*
X40922384Y-65846915D01*
X40922382Y-65846912D01*
X40922382Y-65846910D01*
X40849912Y-65721389D01*
X40849910Y-65721387D01*
X40849909Y-65721385D01*
X40747415Y-65618891D01*
X40747412Y-65618889D01*
X40747410Y-65618887D01*
X40621888Y-65546417D01*
X40621889Y-65546417D01*
X40592296Y-65538487D01*
X40481875Y-65508900D01*
X40336925Y-65508900D01*
X40275190Y-65525441D01*
X40196910Y-65546417D01*
X40071389Y-65618887D01*
X39968887Y-65721389D01*
X39896417Y-65846910D01*
X39865574Y-65962016D01*
X39858900Y-65986925D01*
X37125500Y-65986925D01*
X37125500Y-65952525D01*
X37087984Y-65812515D01*
X37087982Y-65812512D01*
X37087982Y-65812510D01*
X37015512Y-65686989D01*
X37015510Y-65686987D01*
X37015509Y-65686985D01*
X36913015Y-65584491D01*
X36913012Y-65584489D01*
X36913010Y-65584487D01*
X36787488Y-65512017D01*
X36787489Y-65512017D01*
X36757896Y-65504087D01*
X36647475Y-65474500D01*
X36502525Y-65474500D01*
X36440790Y-65491041D01*
X36362510Y-65512017D01*
X36236989Y-65584487D01*
X36134487Y-65686989D01*
X36062017Y-65812510D01*
X36052800Y-65846910D01*
X36024500Y-65952525D01*
X20000500Y-65952525D01*
X20000500Y-63452525D01*
X43624500Y-63452525D01*
X43624500Y-63597475D01*
X43632304Y-63626598D01*
X43662017Y-63737489D01*
X43734487Y-63863010D01*
X43734489Y-63863012D01*
X43734491Y-63863015D01*
X43836985Y-63965509D01*
X43836987Y-63965510D01*
X43836989Y-63965512D01*
X43962511Y-64037982D01*
X43962512Y-64037982D01*
X43962515Y-64037984D01*
X44102525Y-64075500D01*
X44102526Y-64075500D01*
X44247474Y-64075500D01*
X44247475Y-64075500D01*
X44387485Y-64037984D01*
X44387487Y-64037982D01*
X44387489Y-64037982D01*
X44513010Y-63965512D01*
X44513010Y-63965511D01*
X44513015Y-63965509D01*
X44615509Y-63863015D01*
X44615512Y-63863010D01*
X44687982Y-63737489D01*
X44687982Y-63737487D01*
X44687984Y-63737485D01*
X44725500Y-63597475D01*
X44725500Y-63452525D01*
X44687984Y-63312515D01*
X44687982Y-63312512D01*
X44687982Y-63312510D01*
X44615512Y-63186989D01*
X44615510Y-63186987D01*
X44615509Y-63186985D01*
X44513015Y-63084491D01*
X44513012Y-63084489D01*
X44513010Y-63084487D01*
X44387488Y-63012017D01*
X44387489Y-63012017D01*
X44340454Y-62999414D01*
X44247475Y-62974500D01*
X44102525Y-62974500D01*
X44040790Y-62991041D01*
X43962510Y-63012017D01*
X43836989Y-63084487D01*
X43734487Y-63186989D01*
X43662017Y-63312510D01*
X43662016Y-63312515D01*
X43624500Y-63452525D01*
X20000500Y-63452525D01*
X20000500Y-62599500D01*
X20019407Y-62541309D01*
X20068907Y-62505345D01*
X20099500Y-62500500D01*
X40065890Y-62500500D01*
X40065892Y-62500500D01*
X40193186Y-62466392D01*
X40193188Y-62466390D01*
X40193190Y-62466390D01*
X40307309Y-62400503D01*
X40307309Y-62400502D01*
X40307314Y-62400500D01*
X40400500Y-62307314D01*
X40466392Y-62193186D01*
X40500500Y-62065892D01*
X40500500Y-60434108D01*
X40466392Y-60306814D01*
X40466390Y-60306811D01*
X40466390Y-60306809D01*
X40400503Y-60192690D01*
X40400501Y-60192688D01*
X40400500Y-60192686D01*
X40307314Y-60099500D01*
X40307311Y-60099498D01*
X40307309Y-60099496D01*
X40193189Y-60033609D01*
X40193191Y-60033609D01*
X40143799Y-60020375D01*
X40065892Y-59999500D01*
X18065892Y-59999500D01*
X17934108Y-59999500D01*
X17856200Y-60020375D01*
X17806809Y-60033609D01*
X17692690Y-60099496D01*
X17599496Y-60192690D01*
X17533609Y-60306809D01*
X17499500Y-60434109D01*
X17499500Y-79400500D01*
X17480593Y-79458691D01*
X17431093Y-79494655D01*
X17400500Y-79499500D01*
X599500Y-79499500D01*
X541309Y-79480593D01*
X505345Y-79431093D01*
X500500Y-79400500D01*
X500500Y-75878712D01*
X2149500Y-75878712D01*
X2149500Y-76121288D01*
X2180666Y-76358025D01*
X2181161Y-76361781D01*
X2181161Y-76361786D01*
X2243944Y-76596092D01*
X2243948Y-76596105D01*
X2336772Y-76820204D01*
X2336774Y-76820208D01*
X2336776Y-76820212D01*
X2429607Y-76981000D01*
X2458066Y-77030292D01*
X2605729Y-77222731D01*
X2605731Y-77222733D01*
X2605735Y-77222738D01*
X2777262Y-77394265D01*
X2777266Y-77394268D01*
X2777268Y-77394270D01*
X2866168Y-77462485D01*
X2969711Y-77541936D01*
X3179788Y-77663224D01*
X3403900Y-77756054D01*
X3638211Y-77818838D01*
X3878712Y-77850500D01*
X3878713Y-77850500D01*
X4121287Y-77850500D01*
X4121288Y-77850500D01*
X4361789Y-77818838D01*
X4596100Y-77756054D01*
X4820212Y-77663224D01*
X5030289Y-77541936D01*
X5222738Y-77394265D01*
X5394265Y-77222738D01*
X5541936Y-77030289D01*
X5663224Y-76820212D01*
X5756054Y-76596100D01*
X5818838Y-76361789D01*
X5850500Y-76121288D01*
X5850500Y-75878712D01*
X5818838Y-75638211D01*
X5756054Y-75403900D01*
X5663224Y-75179788D01*
X5541936Y-74969711D01*
X5394265Y-74777262D01*
X5222738Y-74605735D01*
X5222733Y-74605731D01*
X5222731Y-74605729D01*
X5030292Y-74458066D01*
X5030289Y-74458064D01*
X4820212Y-74336776D01*
X4820208Y-74336774D01*
X4820204Y-74336772D01*
X4596105Y-74243948D01*
X4596104Y-74243947D01*
X4596100Y-74243946D01*
X4361789Y-74181162D01*
X4361786Y-74181161D01*
X4361784Y-74181161D01*
X4121289Y-74149500D01*
X4121288Y-74149500D01*
X3878712Y-74149500D01*
X3878710Y-74149500D01*
X3638218Y-74181161D01*
X3638213Y-74181161D01*
X3403907Y-74243944D01*
X3403894Y-74243948D01*
X3179795Y-74336772D01*
X2969707Y-74458066D01*
X2777268Y-74605729D01*
X2605729Y-74777268D01*
X2458066Y-74969707D01*
X2336772Y-75179795D01*
X2243948Y-75403894D01*
X2243944Y-75403907D01*
X2181161Y-75638213D01*
X2181161Y-75638218D01*
X2149500Y-75878712D01*
X500500Y-75878712D01*
X500500Y-65825925D01*
X7255400Y-65825925D01*
X7255400Y-65970874D01*
X7292917Y-66110889D01*
X7365387Y-66236410D01*
X7365389Y-66236412D01*
X7365391Y-66236415D01*
X7467885Y-66338909D01*
X7467887Y-66338910D01*
X7467889Y-66338912D01*
X7593411Y-66411382D01*
X7593412Y-66411382D01*
X7593415Y-66411384D01*
X7733425Y-66448900D01*
X7733426Y-66448900D01*
X7878374Y-66448900D01*
X7878375Y-66448900D01*
X8018385Y-66411384D01*
X8018387Y-66411382D01*
X8018389Y-66411382D01*
X8143910Y-66338912D01*
X8143910Y-66338911D01*
X8143915Y-66338909D01*
X8246409Y-66236415D01*
X8286722Y-66166591D01*
X8318882Y-66110889D01*
X8318882Y-66110887D01*
X8318884Y-66110885D01*
X8356400Y-65970875D01*
X8356400Y-65825925D01*
X8318884Y-65685915D01*
X8318882Y-65685912D01*
X8318882Y-65685910D01*
X8246412Y-65560389D01*
X8246410Y-65560387D01*
X8246409Y-65560385D01*
X8143915Y-65457891D01*
X8143912Y-65457889D01*
X8143910Y-65457887D01*
X8018388Y-65385417D01*
X8018389Y-65385417D01*
X7988796Y-65377487D01*
X7878375Y-65347900D01*
X7733425Y-65347900D01*
X7671690Y-65364441D01*
X7593410Y-65385417D01*
X7467889Y-65457887D01*
X7365387Y-65560389D01*
X7292917Y-65685910D01*
X7255400Y-65825925D01*
X500500Y-65825925D01*
X500500Y-61993385D01*
X3399500Y-61993385D01*
X3399500Y-62166614D01*
X3426597Y-62337702D01*
X3426598Y-62337706D01*
X3480123Y-62502438D01*
X3480125Y-62502441D01*
X3529578Y-62599500D01*
X3558768Y-62656788D01*
X3660586Y-62796928D01*
X3783072Y-62919414D01*
X3923212Y-63021232D01*
X4077555Y-63099873D01*
X4077557Y-63099873D01*
X4077558Y-63099874D01*
X4077561Y-63099876D01*
X4242293Y-63153401D01*
X4242297Y-63153402D01*
X4413386Y-63180500D01*
X4413389Y-63180500D01*
X4586614Y-63180500D01*
X4757702Y-63153402D01*
X4757706Y-63153401D01*
X4922438Y-63099876D01*
X4922440Y-63099874D01*
X4922445Y-63099873D01*
X5076788Y-63021232D01*
X5216928Y-62919414D01*
X5339414Y-62796928D01*
X5441232Y-62656788D01*
X5519873Y-62502445D01*
X5519874Y-62502440D01*
X5519876Y-62502438D01*
X5573401Y-62337706D01*
X5573402Y-62337702D01*
X5600500Y-62166614D01*
X5600500Y-61993385D01*
X10899500Y-61993385D01*
X10899500Y-62166614D01*
X10926597Y-62337702D01*
X10926598Y-62337706D01*
X10980123Y-62502438D01*
X10980125Y-62502441D01*
X11029578Y-62599500D01*
X11058768Y-62656788D01*
X11160586Y-62796928D01*
X11283072Y-62919414D01*
X11423212Y-63021232D01*
X11577555Y-63099873D01*
X11577557Y-63099873D01*
X11577558Y-63099874D01*
X11577561Y-63099876D01*
X11742293Y-63153401D01*
X11742297Y-63153402D01*
X11913386Y-63180500D01*
X11913389Y-63180500D01*
X12086614Y-63180500D01*
X12257702Y-63153402D01*
X12257706Y-63153401D01*
X12422438Y-63099876D01*
X12422440Y-63099874D01*
X12422445Y-63099873D01*
X12576788Y-63021232D01*
X12716928Y-62919414D01*
X12839414Y-62796928D01*
X12941232Y-62656788D01*
X13019873Y-62502445D01*
X13019874Y-62502440D01*
X13019876Y-62502438D01*
X13073401Y-62337706D01*
X13073402Y-62337702D01*
X13100500Y-62166614D01*
X13100500Y-61993385D01*
X13073402Y-61822297D01*
X13073401Y-61822293D01*
X13019876Y-61657561D01*
X13019874Y-61657558D01*
X13019873Y-61657557D01*
X13019873Y-61657555D01*
X12941232Y-61503212D01*
X12839414Y-61363072D01*
X12716928Y-61240586D01*
X12576788Y-61138768D01*
X12576787Y-61138767D01*
X12576785Y-61138766D01*
X12422441Y-61060125D01*
X12422438Y-61060123D01*
X12257706Y-61006598D01*
X12257702Y-61006597D01*
X12086614Y-60979500D01*
X12086611Y-60979500D01*
X11913389Y-60979500D01*
X11913386Y-60979500D01*
X11742297Y-61006597D01*
X11742293Y-61006598D01*
X11577561Y-61060123D01*
X11577558Y-61060125D01*
X11423214Y-61138766D01*
X11283073Y-61240585D01*
X11160585Y-61363073D01*
X11058766Y-61503214D01*
X10980125Y-61657558D01*
X10980123Y-61657561D01*
X10926598Y-61822293D01*
X10926597Y-61822297D01*
X10899500Y-61993385D01*
X5600500Y-61993385D01*
X5573402Y-61822297D01*
X5573401Y-61822293D01*
X5519876Y-61657561D01*
X5519874Y-61657558D01*
X5519873Y-61657557D01*
X5519873Y-61657555D01*
X5441232Y-61503212D01*
X5339414Y-61363072D01*
X5216928Y-61240586D01*
X5076788Y-61138768D01*
X5076787Y-61138767D01*
X5076785Y-61138766D01*
X4922441Y-61060125D01*
X4922438Y-61060123D01*
X4757706Y-61006598D01*
X4757702Y-61006597D01*
X4586614Y-60979500D01*
X4586611Y-60979500D01*
X4413389Y-60979500D01*
X4413386Y-60979500D01*
X4242297Y-61006597D01*
X4242293Y-61006598D01*
X4077561Y-61060123D01*
X4077558Y-61060125D01*
X3923214Y-61138766D01*
X3783073Y-61240585D01*
X3660585Y-61363073D01*
X3558766Y-61503214D01*
X3480125Y-61657558D01*
X3480123Y-61657561D01*
X3426598Y-61822293D01*
X3426597Y-61822297D01*
X3399500Y-61993385D01*
X500500Y-61993385D01*
X500500Y-59449489D01*
X3350000Y-59449489D01*
X3350000Y-59630510D01*
X3378316Y-59809289D01*
X3434250Y-59981440D01*
X3516430Y-60142728D01*
X3557667Y-60199488D01*
X4031980Y-59725174D01*
X4034075Y-59732993D01*
X4099901Y-59847007D01*
X4192993Y-59940099D01*
X4307007Y-60005925D01*
X4314821Y-60008019D01*
X3840511Y-60482330D01*
X3897275Y-60523571D01*
X4058559Y-60605749D01*
X4230710Y-60661683D01*
X4409490Y-60690000D01*
X4590510Y-60690000D01*
X4769289Y-60661683D01*
X4941440Y-60605749D01*
X5102728Y-60523569D01*
X5159487Y-60482330D01*
X4685176Y-60008019D01*
X4692993Y-60005925D01*
X4807007Y-59940099D01*
X4900099Y-59847007D01*
X4965925Y-59732993D01*
X4968019Y-59725176D01*
X5442330Y-60199487D01*
X5483569Y-60142728D01*
X5565749Y-59981440D01*
X5621683Y-59809289D01*
X5650000Y-59630510D01*
X5650000Y-59449489D01*
X10850000Y-59449489D01*
X10850000Y-59630510D01*
X10878316Y-59809289D01*
X10934250Y-59981440D01*
X11016430Y-60142728D01*
X11057667Y-60199488D01*
X11531980Y-59725174D01*
X11534075Y-59732993D01*
X11599901Y-59847007D01*
X11692993Y-59940099D01*
X11807007Y-60005925D01*
X11814821Y-60008019D01*
X11340511Y-60482330D01*
X11397275Y-60523571D01*
X11558559Y-60605749D01*
X11730710Y-60661683D01*
X11909490Y-60690000D01*
X12090510Y-60690000D01*
X12269289Y-60661683D01*
X12441440Y-60605749D01*
X12602728Y-60523569D01*
X12659487Y-60482330D01*
X12185176Y-60008019D01*
X12192993Y-60005925D01*
X12307007Y-59940099D01*
X12400099Y-59847007D01*
X12465925Y-59732993D01*
X12468019Y-59725176D01*
X12942330Y-60199487D01*
X12983569Y-60142728D01*
X13065749Y-59981440D01*
X13121683Y-59809289D01*
X13150000Y-59630510D01*
X13150000Y-59449489D01*
X13121683Y-59270710D01*
X13065749Y-59098559D01*
X12983571Y-58937275D01*
X12942330Y-58880511D01*
X12468019Y-59354821D01*
X12465925Y-59347007D01*
X12400099Y-59232993D01*
X12307007Y-59139901D01*
X12192993Y-59074075D01*
X12185174Y-59071980D01*
X12659488Y-58597667D01*
X12602728Y-58556430D01*
X12441440Y-58474250D01*
X12269289Y-58418316D01*
X12090510Y-58390000D01*
X11909490Y-58390000D01*
X11730710Y-58418316D01*
X11558559Y-58474250D01*
X11397267Y-58556432D01*
X11340510Y-58597667D01*
X11814823Y-59071980D01*
X11807007Y-59074075D01*
X11692993Y-59139901D01*
X11599901Y-59232993D01*
X11534075Y-59347007D01*
X11531980Y-59354823D01*
X11057667Y-58880510D01*
X11016432Y-58937267D01*
X10934250Y-59098559D01*
X10878316Y-59270710D01*
X10850000Y-59449489D01*
X5650000Y-59449489D01*
X5621683Y-59270710D01*
X5565749Y-59098559D01*
X5483571Y-58937275D01*
X5442330Y-58880511D01*
X4968019Y-59354821D01*
X4965925Y-59347007D01*
X4900099Y-59232993D01*
X4807007Y-59139901D01*
X4692993Y-59074075D01*
X4685174Y-59071980D01*
X5159488Y-58597667D01*
X5102728Y-58556430D01*
X4941440Y-58474250D01*
X4769289Y-58418316D01*
X4590510Y-58390000D01*
X4409490Y-58390000D01*
X4230710Y-58418316D01*
X4058559Y-58474250D01*
X3897267Y-58556432D01*
X3840510Y-58597667D01*
X4314823Y-59071980D01*
X4307007Y-59074075D01*
X4192993Y-59139901D01*
X4099901Y-59232993D01*
X4034075Y-59347007D01*
X4031980Y-59354823D01*
X3557667Y-58880510D01*
X3516432Y-58937267D01*
X3434250Y-59098559D01*
X3378316Y-59270710D01*
X3350000Y-59449489D01*
X500500Y-59449489D01*
X500500Y-56125327D01*
X3399500Y-56125327D01*
X3399500Y-57874672D01*
X3399501Y-57874684D01*
X3414033Y-57947736D01*
X3414035Y-57947742D01*
X3469397Y-58030599D01*
X3469399Y-58030601D01*
X3552260Y-58085966D01*
X3607808Y-58097015D01*
X3625315Y-58100498D01*
X3625320Y-58100498D01*
X3625326Y-58100500D01*
X3625327Y-58100500D01*
X5374673Y-58100500D01*
X5374674Y-58100500D01*
X5447740Y-58085966D01*
X5530601Y-58030601D01*
X5585966Y-57947740D01*
X5600500Y-57874674D01*
X5600500Y-56125327D01*
X10899500Y-56125327D01*
X10899500Y-57874672D01*
X10899501Y-57874684D01*
X10914033Y-57947736D01*
X10914035Y-57947742D01*
X10969397Y-58030599D01*
X10969399Y-58030601D01*
X11052260Y-58085966D01*
X11107808Y-58097015D01*
X11125315Y-58100498D01*
X11125320Y-58100498D01*
X11125326Y-58100500D01*
X11125327Y-58100500D01*
X12874673Y-58100500D01*
X12874674Y-58100500D01*
X12947740Y-58085966D01*
X13030601Y-58030601D01*
X13085966Y-57947740D01*
X13100500Y-57874674D01*
X13100500Y-56477525D01*
X24949500Y-56477525D01*
X24949500Y-56622475D01*
X24979087Y-56732896D01*
X24987017Y-56762489D01*
X25059487Y-56888010D01*
X25059489Y-56888012D01*
X25059491Y-56888015D01*
X25161985Y-56990509D01*
X25161987Y-56990510D01*
X25161989Y-56990512D01*
X25287511Y-57062982D01*
X25287512Y-57062982D01*
X25287515Y-57062984D01*
X25427525Y-57100500D01*
X25427526Y-57100500D01*
X25572474Y-57100500D01*
X25572475Y-57100500D01*
X25712485Y-57062984D01*
X25712487Y-57062982D01*
X25712489Y-57062982D01*
X25838010Y-56990512D01*
X25838010Y-56990511D01*
X25838015Y-56990509D01*
X25929998Y-56898525D01*
X25984513Y-56870750D01*
X26044945Y-56880321D01*
X26070000Y-56898524D01*
X26161985Y-56990509D01*
X26161987Y-56990510D01*
X26161989Y-56990512D01*
X26287511Y-57062982D01*
X26287512Y-57062982D01*
X26287515Y-57062984D01*
X26427525Y-57100500D01*
X26427526Y-57100500D01*
X26572474Y-57100500D01*
X26572475Y-57100500D01*
X26712485Y-57062984D01*
X26712487Y-57062982D01*
X26712489Y-57062982D01*
X26838010Y-56990512D01*
X26838010Y-56990511D01*
X26838015Y-56990509D01*
X26940509Y-56888015D01*
X26978450Y-56822299D01*
X27012982Y-56762489D01*
X27012982Y-56762487D01*
X27012984Y-56762485D01*
X27050500Y-56622475D01*
X27050500Y-56477525D01*
X27012984Y-56337515D01*
X27012982Y-56337512D01*
X27012982Y-56337510D01*
X26940512Y-56211989D01*
X26940510Y-56211987D01*
X26940509Y-56211985D01*
X26838015Y-56109491D01*
X26838012Y-56109489D01*
X26838010Y-56109487D01*
X26712488Y-56037017D01*
X26712489Y-56037017D01*
X26682896Y-56029087D01*
X26572475Y-55999500D01*
X26427525Y-55999500D01*
X26365790Y-56016041D01*
X26287510Y-56037017D01*
X26161989Y-56109487D01*
X26161988Y-56109488D01*
X26161985Y-56109490D01*
X26161985Y-56109491D01*
X26070001Y-56201474D01*
X26015487Y-56229250D01*
X25955055Y-56219679D01*
X25929999Y-56201475D01*
X25838015Y-56109491D01*
X25838012Y-56109489D01*
X25838010Y-56109487D01*
X25712488Y-56037017D01*
X25712489Y-56037017D01*
X25682896Y-56029087D01*
X25572475Y-55999500D01*
X25427525Y-55999500D01*
X25365790Y-56016041D01*
X25287510Y-56037017D01*
X25161989Y-56109487D01*
X25059487Y-56211989D01*
X24987017Y-56337510D01*
X24949500Y-56477525D01*
X13100500Y-56477525D01*
X13100500Y-56125326D01*
X13085966Y-56052260D01*
X13075781Y-56037017D01*
X13030602Y-55969400D01*
X13030599Y-55969397D01*
X12947742Y-55914035D01*
X12947740Y-55914034D01*
X12947737Y-55914033D01*
X12947736Y-55914033D01*
X12874684Y-55899501D01*
X12874674Y-55899500D01*
X11125326Y-55899500D01*
X11125325Y-55899500D01*
X11125315Y-55899501D01*
X11052263Y-55914033D01*
X11052257Y-55914035D01*
X10969400Y-55969397D01*
X10969397Y-55969400D01*
X10914035Y-56052257D01*
X10914033Y-56052263D01*
X10899501Y-56125315D01*
X10899500Y-56125327D01*
X5600500Y-56125327D01*
X5600500Y-56125326D01*
X5585966Y-56052260D01*
X5575781Y-56037017D01*
X5530602Y-55969400D01*
X5530599Y-55969397D01*
X5447742Y-55914035D01*
X5447740Y-55914034D01*
X5447737Y-55914033D01*
X5447736Y-55914033D01*
X5374684Y-55899501D01*
X5374674Y-55899500D01*
X3625326Y-55899500D01*
X3625325Y-55899500D01*
X3625315Y-55899501D01*
X3552263Y-55914033D01*
X3552257Y-55914035D01*
X3469400Y-55969397D01*
X3469397Y-55969400D01*
X3414035Y-56052257D01*
X3414033Y-56052263D01*
X3399501Y-56125315D01*
X3399500Y-56125327D01*
X500500Y-56125327D01*
X500500Y-54377525D01*
X24949500Y-54377525D01*
X24949500Y-54522474D01*
X24987017Y-54662489D01*
X25059487Y-54788010D01*
X25059489Y-54788012D01*
X25059491Y-54788015D01*
X25161985Y-54890509D01*
X25161987Y-54890510D01*
X25161989Y-54890512D01*
X25287511Y-54962982D01*
X25287512Y-54962982D01*
X25287515Y-54962984D01*
X25427525Y-55000500D01*
X25427526Y-55000500D01*
X25572474Y-55000500D01*
X25572475Y-55000500D01*
X25712485Y-54962984D01*
X25712487Y-54962982D01*
X25712489Y-54962982D01*
X25838010Y-54890512D01*
X25838010Y-54890511D01*
X25838015Y-54890509D01*
X25929998Y-54798525D01*
X25984513Y-54770750D01*
X26044945Y-54780321D01*
X26070000Y-54798524D01*
X26161985Y-54890509D01*
X26161987Y-54890510D01*
X26161989Y-54890512D01*
X26287511Y-54962982D01*
X26287512Y-54962982D01*
X26287515Y-54962984D01*
X26427525Y-55000500D01*
X26427526Y-55000500D01*
X26572474Y-55000500D01*
X26572475Y-55000500D01*
X26712485Y-54962984D01*
X26712487Y-54962982D01*
X26712489Y-54962982D01*
X26838010Y-54890512D01*
X26838010Y-54890511D01*
X26838015Y-54890509D01*
X26940509Y-54788015D01*
X27012984Y-54662485D01*
X27050500Y-54522475D01*
X27050500Y-54377525D01*
X27012984Y-54237515D01*
X27012982Y-54237512D01*
X27012982Y-54237510D01*
X26940512Y-54111989D01*
X26940510Y-54111987D01*
X26940509Y-54111985D01*
X26838015Y-54009491D01*
X26838012Y-54009489D01*
X26838010Y-54009487D01*
X26712488Y-53937017D01*
X26712489Y-53937017D01*
X26682896Y-53929087D01*
X26572475Y-53899500D01*
X26427525Y-53899500D01*
X26365790Y-53916041D01*
X26287510Y-53937017D01*
X26161989Y-54009487D01*
X26161988Y-54009488D01*
X26161985Y-54009490D01*
X26161985Y-54009491D01*
X26070001Y-54101474D01*
X26015487Y-54129250D01*
X25955055Y-54119679D01*
X25929999Y-54101475D01*
X25838015Y-54009491D01*
X25838012Y-54009489D01*
X25838010Y-54009487D01*
X25712488Y-53937017D01*
X25712489Y-53937017D01*
X25682896Y-53929087D01*
X25572475Y-53899500D01*
X25427525Y-53899500D01*
X25365790Y-53916041D01*
X25287510Y-53937017D01*
X25161989Y-54009487D01*
X25059487Y-54111989D01*
X24987017Y-54237510D01*
X24949500Y-54377525D01*
X500500Y-54377525D01*
X500500Y-52989489D01*
X3350000Y-52989489D01*
X3350000Y-53170510D01*
X3378316Y-53349289D01*
X3434250Y-53521440D01*
X3516430Y-53682728D01*
X3557667Y-53739488D01*
X4031980Y-53265174D01*
X4034075Y-53272993D01*
X4099901Y-53387007D01*
X4192993Y-53480099D01*
X4307007Y-53545925D01*
X4314821Y-53548019D01*
X3840511Y-54022330D01*
X3897275Y-54063571D01*
X4058559Y-54145749D01*
X4230710Y-54201683D01*
X4409490Y-54230000D01*
X4590510Y-54230000D01*
X4769289Y-54201683D01*
X4941440Y-54145749D01*
X5102728Y-54063569D01*
X5159487Y-54022330D01*
X4685176Y-53548019D01*
X4692993Y-53545925D01*
X4807007Y-53480099D01*
X4900099Y-53387007D01*
X4965925Y-53272993D01*
X4968019Y-53265176D01*
X5442330Y-53739487D01*
X5483569Y-53682728D01*
X5565749Y-53521440D01*
X5621683Y-53349289D01*
X5650000Y-53170510D01*
X5650000Y-52989489D01*
X5621683Y-52810710D01*
X5565749Y-52638559D01*
X5483571Y-52477275D01*
X5442330Y-52420511D01*
X4968019Y-52894821D01*
X4965925Y-52887007D01*
X4900099Y-52772993D01*
X4807007Y-52679901D01*
X4692993Y-52614075D01*
X4685174Y-52611980D01*
X5159488Y-52137667D01*
X5102728Y-52096430D01*
X4941440Y-52014250D01*
X4769289Y-51958316D01*
X4590510Y-51930000D01*
X4409490Y-51930000D01*
X4230710Y-51958316D01*
X4058559Y-52014250D01*
X3897267Y-52096432D01*
X3840510Y-52137667D01*
X4314823Y-52611980D01*
X4307007Y-52614075D01*
X4192993Y-52679901D01*
X4099901Y-52772993D01*
X4034075Y-52887007D01*
X4031980Y-52894823D01*
X3557667Y-52420510D01*
X3516432Y-52477267D01*
X3434250Y-52638559D01*
X3378316Y-52810710D01*
X3350000Y-52989489D01*
X500500Y-52989489D01*
X500500Y-42040878D01*
X519407Y-41982687D01*
X568907Y-41946723D01*
X630093Y-41946723D01*
X665943Y-41968695D01*
X666261Y-41968308D01*
X669066Y-41970610D01*
X669512Y-41970883D01*
X670025Y-41971396D01*
X670030Y-41971400D01*
X801050Y-42058947D01*
X801059Y-42058951D01*
X946644Y-42119254D01*
X946655Y-42119258D01*
X980000Y-42125890D01*
X980000Y-41574265D01*
X995795Y-41590060D01*
X1064204Y-41629556D01*
X1140504Y-41650000D01*
X1219496Y-41650000D01*
X1295796Y-41629556D01*
X1364205Y-41590060D01*
X1380000Y-41574265D01*
X1380000Y-42125889D01*
X1413344Y-42119258D01*
X1413355Y-42119254D01*
X1558940Y-42058951D01*
X1558949Y-42058947D01*
X1689969Y-41971400D01*
X1689973Y-41971397D01*
X1801397Y-41859973D01*
X1801400Y-41859969D01*
X1888947Y-41728949D01*
X1888951Y-41728940D01*
X1949257Y-41583349D01*
X1979999Y-41428795D01*
X1980000Y-41428792D01*
X1980000Y-41250001D01*
X1979999Y-41250000D01*
X1480000Y-41250000D01*
X1480000Y-40850000D01*
X1979999Y-40850000D01*
X1980000Y-40849999D01*
X1980000Y-40671207D01*
X1979999Y-40671204D01*
X1949257Y-40516650D01*
X1888951Y-40371059D01*
X1888947Y-40371050D01*
X1801400Y-40240030D01*
X1801397Y-40240026D01*
X1689973Y-40128602D01*
X1689969Y-40128599D01*
X1558949Y-40041052D01*
X1558940Y-40041048D01*
X1413349Y-39980742D01*
X1380000Y-39974109D01*
X1380000Y-40525735D01*
X1364205Y-40509940D01*
X1295796Y-40470444D01*
X1219496Y-40450000D01*
X1140504Y-40450000D01*
X1064204Y-40470444D01*
X995795Y-40509940D01*
X980000Y-40525735D01*
X980000Y-39974109D01*
X946650Y-39980742D01*
X801059Y-40041048D01*
X801050Y-40041052D01*
X670030Y-40128599D01*
X670026Y-40128602D01*
X669504Y-40129125D01*
X669202Y-40129278D01*
X666261Y-40131692D01*
X665731Y-40131046D01*
X614987Y-40156902D01*
X554555Y-40147331D01*
X511290Y-40104066D01*
X500500Y-40059121D01*
X500500Y-38110878D01*
X519407Y-38052687D01*
X568907Y-38016723D01*
X630093Y-38016723D01*
X665943Y-38038695D01*
X666261Y-38038308D01*
X669066Y-38040610D01*
X669512Y-38040883D01*
X670025Y-38041396D01*
X670030Y-38041400D01*
X801050Y-38128947D01*
X801059Y-38128951D01*
X946644Y-38189254D01*
X946655Y-38189258D01*
X980000Y-38195890D01*
X980000Y-37644265D01*
X995795Y-37660060D01*
X1064204Y-37699556D01*
X1140504Y-37720000D01*
X1219496Y-37720000D01*
X1295796Y-37699556D01*
X1364205Y-37660060D01*
X1380000Y-37644265D01*
X1380000Y-38195889D01*
X1413344Y-38189258D01*
X1413355Y-38189254D01*
X1558940Y-38128951D01*
X1558949Y-38128947D01*
X1689969Y-38041400D01*
X1689973Y-38041397D01*
X1801397Y-37929973D01*
X1801400Y-37929969D01*
X1888947Y-37798949D01*
X1888953Y-37798937D01*
X1931953Y-37695125D01*
X1971689Y-37648599D01*
X2031184Y-37634315D01*
X2087712Y-37657729D01*
X2109153Y-37683510D01*
X2149481Y-37753360D01*
X2149483Y-37753362D01*
X2149485Y-37753365D01*
X2256635Y-37860515D01*
X2256637Y-37860516D01*
X2256639Y-37860518D01*
X2387861Y-37936279D01*
X2387859Y-37936279D01*
X2387863Y-37936280D01*
X2387865Y-37936281D01*
X2534234Y-37975500D01*
X2534236Y-37975500D01*
X2685764Y-37975500D01*
X2685766Y-37975500D01*
X2832135Y-37936281D01*
X2832137Y-37936279D01*
X2832139Y-37936279D01*
X2963360Y-37860518D01*
X2963360Y-37860517D01*
X2963365Y-37860515D01*
X3070515Y-37753365D01*
X3146281Y-37622135D01*
X3146282Y-37622130D01*
X3148797Y-37617775D01*
X3194267Y-37576834D01*
X3255117Y-37570438D01*
X3308105Y-37601031D01*
X3320270Y-37617774D01*
X3348556Y-37666766D01*
X3351991Y-37672715D01*
X3454485Y-37775209D01*
X3454487Y-37775210D01*
X3454489Y-37775212D01*
X3580011Y-37847682D01*
X3580012Y-37847682D01*
X3580015Y-37847684D01*
X3720025Y-37885200D01*
X3720026Y-37885200D01*
X3864974Y-37885200D01*
X3864975Y-37885200D01*
X4004985Y-37847684D01*
X4004987Y-37847682D01*
X4004989Y-37847682D01*
X4010983Y-37845200D01*
X4011998Y-37847651D01*
X4060821Y-37837260D01*
X4116723Y-37862131D01*
X4147331Y-37915111D01*
X4149500Y-37935721D01*
X4149500Y-46800500D01*
X4130593Y-46858691D01*
X4081093Y-46894655D01*
X4050500Y-46899500D01*
X3625326Y-46899500D01*
X3625325Y-46899500D01*
X3625315Y-46899501D01*
X3552263Y-46914033D01*
X3552257Y-46914035D01*
X3469400Y-46969397D01*
X3469397Y-46969400D01*
X3414035Y-47052257D01*
X3414033Y-47052263D01*
X3399501Y-47125315D01*
X3399500Y-47125327D01*
X3399500Y-48874672D01*
X3399501Y-48874684D01*
X3414033Y-48947736D01*
X3414035Y-48947742D01*
X3469397Y-49030599D01*
X3469398Y-49030600D01*
X3469399Y-49030601D01*
X3552260Y-49085966D01*
X3607808Y-49097015D01*
X3625315Y-49100498D01*
X3625320Y-49100498D01*
X3625326Y-49100500D01*
X5202200Y-49100500D01*
X5260391Y-49119407D01*
X5296355Y-49168907D01*
X5301200Y-49199500D01*
X5301200Y-49202110D01*
X5282293Y-49260301D01*
X5272203Y-49272114D01*
X5040707Y-49503609D01*
X4986191Y-49531386D01*
X4925765Y-49521818D01*
X4922445Y-49520126D01*
X4922438Y-49520123D01*
X4757706Y-49466598D01*
X4757702Y-49466597D01*
X4586614Y-49439500D01*
X4586611Y-49439500D01*
X4413389Y-49439500D01*
X4413386Y-49439500D01*
X4242297Y-49466597D01*
X4242293Y-49466598D01*
X4077561Y-49520123D01*
X4077558Y-49520125D01*
X3923214Y-49598766D01*
X3783073Y-49700585D01*
X3660585Y-49823073D01*
X3558766Y-49963214D01*
X3480125Y-50117558D01*
X3480123Y-50117561D01*
X3426598Y-50282293D01*
X3426597Y-50282297D01*
X3399500Y-50453385D01*
X3399500Y-50626614D01*
X3426597Y-50797702D01*
X3426598Y-50797706D01*
X3480123Y-50962438D01*
X3480125Y-50962441D01*
X3552869Y-51105212D01*
X3558768Y-51116788D01*
X3660586Y-51256928D01*
X3783072Y-51379414D01*
X3923212Y-51481232D01*
X4077555Y-51559873D01*
X4077557Y-51559873D01*
X4077558Y-51559874D01*
X4077561Y-51559876D01*
X4242293Y-51613401D01*
X4242297Y-51613402D01*
X4413386Y-51640500D01*
X4413389Y-51640500D01*
X4586614Y-51640500D01*
X4757702Y-51613402D01*
X4757706Y-51613401D01*
X4922438Y-51559876D01*
X4922440Y-51559874D01*
X4922445Y-51559873D01*
X5076788Y-51481232D01*
X5216928Y-51379414D01*
X5339414Y-51256928D01*
X5441232Y-51116788D01*
X5519873Y-50962445D01*
X5519874Y-50962440D01*
X5519876Y-50962438D01*
X5573401Y-50797706D01*
X5573402Y-50797702D01*
X5600500Y-50626614D01*
X5600500Y-50453385D01*
X5573402Y-50282297D01*
X5573401Y-50282293D01*
X5519876Y-50117563D01*
X5519873Y-50117555D01*
X5518183Y-50114238D01*
X5508612Y-50053806D01*
X5536388Y-49999292D01*
X5767886Y-49767796D01*
X5822402Y-49740019D01*
X5837889Y-49738800D01*
X10966329Y-49738800D01*
X11024520Y-49757707D01*
X11060484Y-49807207D01*
X11060484Y-49868393D01*
X11046422Y-49895990D01*
X11016434Y-49937265D01*
X11016431Y-49937269D01*
X10934250Y-50098559D01*
X10878316Y-50270710D01*
X10850000Y-50449489D01*
X10850000Y-50630510D01*
X10878316Y-50809289D01*
X10934250Y-50981440D01*
X11016430Y-51142728D01*
X11057667Y-51199488D01*
X11531980Y-50725175D01*
X11534075Y-50732993D01*
X11599901Y-50847007D01*
X11692993Y-50940099D01*
X11807007Y-51005925D01*
X11814821Y-51008019D01*
X11340511Y-51482330D01*
X11397275Y-51523571D01*
X11558559Y-51605749D01*
X11730710Y-51661683D01*
X11909490Y-51690000D01*
X12090510Y-51690000D01*
X12269289Y-51661683D01*
X12441440Y-51605749D01*
X12602728Y-51523569D01*
X12659487Y-51482330D01*
X12185176Y-51008019D01*
X12192993Y-51005925D01*
X12307007Y-50940099D01*
X12400099Y-50847007D01*
X12465925Y-50732993D01*
X12468019Y-50725177D01*
X12942330Y-51199488D01*
X12983570Y-51142727D01*
X12983571Y-51142725D01*
X13025580Y-51060277D01*
X13068844Y-51017012D01*
X13129276Y-51007440D01*
X13183793Y-51035217D01*
X13253785Y-51105209D01*
X13253787Y-51105210D01*
X13253789Y-51105212D01*
X13379311Y-51177682D01*
X13379312Y-51177682D01*
X13379315Y-51177684D01*
X13519325Y-51215200D01*
X13519326Y-51215200D01*
X13664274Y-51215200D01*
X13664275Y-51215200D01*
X13804285Y-51177684D01*
X13804287Y-51177682D01*
X13804289Y-51177682D01*
X13929810Y-51105212D01*
X13929810Y-51105211D01*
X13929815Y-51105209D01*
X14032309Y-51002715D01*
X14055563Y-50962438D01*
X14104782Y-50877189D01*
X14104782Y-50877187D01*
X14104784Y-50877185D01*
X14142300Y-50737175D01*
X14142300Y-50592225D01*
X14104784Y-50452215D01*
X14104782Y-50452212D01*
X14104782Y-50452210D01*
X14032312Y-50326689D01*
X14032310Y-50326687D01*
X14032309Y-50326685D01*
X13929815Y-50224191D01*
X13929812Y-50224189D01*
X13929810Y-50224187D01*
X13902658Y-50208511D01*
X13873616Y-50183042D01*
X13872273Y-50181292D01*
X13872271Y-50181290D01*
X13872270Y-50181288D01*
X12930654Y-49239672D01*
X12902879Y-49185158D01*
X12912450Y-49124726D01*
X12945660Y-49087354D01*
X12947736Y-49085966D01*
X12947740Y-49085966D01*
X13030601Y-49030601D01*
X13085966Y-48947740D01*
X13100500Y-48874674D01*
X13100500Y-47125326D01*
X13085966Y-47052260D01*
X13030601Y-46969399D01*
X13030599Y-46969397D01*
X12947742Y-46914035D01*
X12947740Y-46914034D01*
X12947737Y-46914033D01*
X12947736Y-46914033D01*
X12874684Y-46899501D01*
X12874674Y-46899500D01*
X11125326Y-46899500D01*
X11125325Y-46899500D01*
X11125315Y-46899501D01*
X11052263Y-46914033D01*
X11052257Y-46914035D01*
X10969400Y-46969397D01*
X10969397Y-46969400D01*
X10914035Y-47052257D01*
X10914033Y-47052263D01*
X10899501Y-47125315D01*
X10899500Y-47125327D01*
X10899500Y-48874674D01*
X10908414Y-48919485D01*
X10901223Y-48980246D01*
X10859690Y-49025177D01*
X10811316Y-49037800D01*
X6101200Y-49037800D01*
X6043009Y-49018893D01*
X6007045Y-48969393D01*
X6002200Y-48938800D01*
X6002200Y-46632257D01*
X5999885Y-46623617D01*
X5978314Y-46543112D01*
X5951568Y-46496788D01*
X5932170Y-46463189D01*
X5932168Y-46463187D01*
X5866917Y-46397935D01*
X5866911Y-46397930D01*
X5714296Y-46245314D01*
X5686519Y-46190798D01*
X5685300Y-46175311D01*
X5685300Y-45851189D01*
X5704207Y-45792998D01*
X5714290Y-45781191D01*
X6906270Y-44589212D01*
X6952414Y-44509288D01*
X6976300Y-44420143D01*
X6976300Y-44327856D01*
X6976300Y-38014989D01*
X6995207Y-37956798D01*
X7044707Y-37920834D01*
X7105893Y-37920834D01*
X7145301Y-37944983D01*
X8212930Y-39012611D01*
X9249470Y-40049151D01*
X9277247Y-40103668D01*
X9267676Y-40164100D01*
X9249470Y-40189159D01*
X9198602Y-40240026D01*
X9198599Y-40240030D01*
X9111052Y-40371050D01*
X9111048Y-40371059D01*
X9050742Y-40516650D01*
X9020000Y-40671204D01*
X9020000Y-40849999D01*
X9020001Y-40850000D01*
X9520000Y-40850000D01*
X9520000Y-41250000D01*
X9020001Y-41250000D01*
X9020000Y-41250001D01*
X9020000Y-41428795D01*
X9050742Y-41583349D01*
X9111048Y-41728940D01*
X9111052Y-41728949D01*
X9198599Y-41859969D01*
X9198602Y-41859973D01*
X9310026Y-41971397D01*
X9310030Y-41971400D01*
X9441050Y-42058947D01*
X9441059Y-42058951D01*
X9586644Y-42119254D01*
X9586655Y-42119258D01*
X9620000Y-42125890D01*
X9620000Y-41574265D01*
X9635795Y-41590060D01*
X9704204Y-41629556D01*
X9780504Y-41650000D01*
X9859496Y-41650000D01*
X9935796Y-41629556D01*
X10004205Y-41590060D01*
X10020000Y-41574265D01*
X10020000Y-42125889D01*
X10053344Y-42119258D01*
X10053355Y-42119254D01*
X10198940Y-42058951D01*
X10198949Y-42058947D01*
X10329969Y-41971400D01*
X10329973Y-41971397D01*
X10441397Y-41859973D01*
X10441400Y-41859969D01*
X10528947Y-41728949D01*
X10528951Y-41728940D01*
X10589257Y-41583349D01*
X10619999Y-41428795D01*
X10620000Y-41428792D01*
X10620000Y-41250001D01*
X10619999Y-41250000D01*
X10120000Y-41250000D01*
X10120000Y-40850000D01*
X10591810Y-40850000D01*
X10650001Y-40868907D01*
X10661814Y-40878996D01*
X18706688Y-48923870D01*
X18706690Y-48923871D01*
X18706691Y-48923872D01*
X18706692Y-48923873D01*
X18782973Y-48967914D01*
X18782974Y-48967914D01*
X18782976Y-48967915D01*
X18786612Y-48970014D01*
X18786613Y-48970014D01*
X18786615Y-48970015D01*
X18801233Y-48973931D01*
X18875756Y-48993900D01*
X18875757Y-48993900D01*
X18968044Y-48993900D01*
X27252968Y-48993900D01*
X27311159Y-49012807D01*
X27322971Y-49022896D01*
X27370483Y-49070408D01*
X27370489Y-49070412D01*
X27496011Y-49142882D01*
X27496012Y-49142882D01*
X27496015Y-49142884D01*
X27636025Y-49180400D01*
X27636026Y-49180400D01*
X27780974Y-49180400D01*
X27780975Y-49180400D01*
X27920985Y-49142884D01*
X27920987Y-49142882D01*
X27920989Y-49142882D01*
X28046510Y-49070412D01*
X28046510Y-49070411D01*
X28046515Y-49070409D01*
X28149009Y-48967915D01*
X28160657Y-48947740D01*
X28221482Y-48842389D01*
X28221482Y-48842387D01*
X28221484Y-48842385D01*
X28259000Y-48702375D01*
X28259000Y-48557425D01*
X28221484Y-48417415D01*
X28221482Y-48417412D01*
X28221482Y-48417410D01*
X28149012Y-48291889D01*
X28149010Y-48291887D01*
X28149009Y-48291885D01*
X28046515Y-48189391D01*
X28046512Y-48189389D01*
X28046510Y-48189387D01*
X27920988Y-48116917D01*
X27920989Y-48116917D01*
X27891396Y-48108987D01*
X27780975Y-48079400D01*
X27636025Y-48079400D01*
X27574290Y-48095941D01*
X27496010Y-48116917D01*
X27370489Y-48189387D01*
X27370488Y-48189388D01*
X27370485Y-48189390D01*
X27370485Y-48189391D01*
X27295970Y-48263905D01*
X27241456Y-48291681D01*
X27225969Y-48292900D01*
X21304030Y-48292900D01*
X21245839Y-48273993D01*
X21209875Y-48224493D01*
X21208403Y-48168277D01*
X21222165Y-48116917D01*
X21222900Y-48114175D01*
X21222900Y-47969225D01*
X21185384Y-47829215D01*
X21185382Y-47829212D01*
X21185382Y-47829210D01*
X21112912Y-47703689D01*
X21112908Y-47703684D01*
X21051896Y-47642671D01*
X21024119Y-47588154D01*
X21022900Y-47572668D01*
X21022900Y-46026057D01*
X21015965Y-46000175D01*
X20999014Y-45936912D01*
X20966278Y-45880212D01*
X20952870Y-45856988D01*
X18098407Y-43002525D01*
X31636300Y-43002525D01*
X31636300Y-43147475D01*
X31653720Y-43212485D01*
X31673817Y-43287489D01*
X31746287Y-43413010D01*
X31746289Y-43413012D01*
X31746291Y-43413015D01*
X31848785Y-43515509D01*
X31848787Y-43515510D01*
X31848789Y-43515512D01*
X31974311Y-43587982D01*
X31974312Y-43587982D01*
X31974315Y-43587984D01*
X32114325Y-43625500D01*
X32200610Y-43625500D01*
X32258801Y-43644407D01*
X32270614Y-43654496D01*
X41381014Y-52764896D01*
X41408791Y-52819413D01*
X41399220Y-52879845D01*
X41355955Y-52923110D01*
X41311010Y-52933900D01*
X38081665Y-52933900D01*
X38023474Y-52914993D01*
X37987510Y-52865493D01*
X37986038Y-52860521D01*
X37983383Y-52850612D01*
X37983382Y-52850611D01*
X37910912Y-52725089D01*
X37910910Y-52725087D01*
X37910909Y-52725085D01*
X37808415Y-52622591D01*
X37808412Y-52622589D01*
X37808410Y-52622587D01*
X37682888Y-52550117D01*
X37682889Y-52550117D01*
X37653296Y-52542187D01*
X37542875Y-52512600D01*
X37397925Y-52512600D01*
X37336190Y-52529141D01*
X37257910Y-52550117D01*
X37132389Y-52622587D01*
X37029887Y-52725089D01*
X36957417Y-52850610D01*
X36920320Y-52989056D01*
X36919900Y-52990625D01*
X36919900Y-53135575D01*
X36923765Y-53149998D01*
X36957417Y-53275589D01*
X37029887Y-53401110D01*
X37029889Y-53401112D01*
X37029891Y-53401115D01*
X37132385Y-53503609D01*
X37132387Y-53503610D01*
X37132389Y-53503612D01*
X37257911Y-53576082D01*
X37257912Y-53576082D01*
X37257915Y-53576084D01*
X37397925Y-53613600D01*
X37397926Y-53613600D01*
X37549365Y-53613600D01*
X37549365Y-53614811D01*
X37577441Y-53616648D01*
X37645556Y-53634900D01*
X42513468Y-53634900D01*
X42571659Y-53653807D01*
X42583471Y-53663896D01*
X42644484Y-53724908D01*
X42644489Y-53724912D01*
X42770011Y-53797382D01*
X42770012Y-53797382D01*
X42770015Y-53797384D01*
X42910025Y-53834900D01*
X42910026Y-53834900D01*
X43054974Y-53834900D01*
X43054975Y-53834900D01*
X43194985Y-53797384D01*
X43219358Y-53783312D01*
X43279206Y-53770590D01*
X43335102Y-53795476D01*
X43338843Y-53799025D01*
X49573426Y-60033608D01*
X55792233Y-66252415D01*
X55820010Y-66306932D01*
X55810439Y-66367364D01*
X55785149Y-66397028D01*
X55786030Y-66398059D01*
X55783082Y-66400576D01*
X55660585Y-66523073D01*
X55558766Y-66663214D01*
X55480125Y-66817558D01*
X55480123Y-66817561D01*
X55426598Y-66982293D01*
X55426597Y-66982297D01*
X55399500Y-67153385D01*
X55399500Y-67326614D01*
X55426597Y-67497702D01*
X55426598Y-67497706D01*
X55480123Y-67662438D01*
X55480125Y-67662441D01*
X55554691Y-67808788D01*
X55558768Y-67816788D01*
X55660586Y-67956928D01*
X55783072Y-68079414D01*
X55923212Y-68181232D01*
X56077555Y-68259873D01*
X56077557Y-68259873D01*
X56077558Y-68259874D01*
X56077561Y-68259876D01*
X56242293Y-68313401D01*
X56242297Y-68313402D01*
X56413386Y-68340500D01*
X56413389Y-68340500D01*
X56586614Y-68340500D01*
X56757702Y-68313402D01*
X56757706Y-68313401D01*
X56922438Y-68259876D01*
X56922440Y-68259874D01*
X56922445Y-68259873D01*
X57076788Y-68181232D01*
X57216928Y-68079414D01*
X57339414Y-67956928D01*
X57441232Y-67816788D01*
X57519873Y-67662445D01*
X57519874Y-67662440D01*
X57519876Y-67662438D01*
X57573401Y-67497706D01*
X57573402Y-67497702D01*
X57600500Y-67326614D01*
X57600500Y-67153385D01*
X57573402Y-66982297D01*
X57573401Y-66982293D01*
X57519876Y-66817561D01*
X57519874Y-66817558D01*
X57519873Y-66817557D01*
X57519873Y-66817555D01*
X57441232Y-66663212D01*
X57339414Y-66523072D01*
X57216928Y-66400586D01*
X57076788Y-66298768D01*
X57076787Y-66298767D01*
X57076785Y-66298766D01*
X56922441Y-66220125D01*
X56922438Y-66220123D01*
X56757706Y-66166598D01*
X56757702Y-66166597D01*
X56718275Y-66160353D01*
X56663758Y-66132576D01*
X56500686Y-65969504D01*
X56472909Y-65914987D01*
X56482480Y-65854555D01*
X56525745Y-65811290D01*
X56570690Y-65800500D01*
X56586614Y-65800500D01*
X56757702Y-65773402D01*
X56757706Y-65773401D01*
X56922438Y-65719876D01*
X56922440Y-65719874D01*
X56922445Y-65719873D01*
X57076788Y-65641232D01*
X57216928Y-65539414D01*
X57339414Y-65416928D01*
X57441232Y-65276788D01*
X57519873Y-65122445D01*
X57519874Y-65122440D01*
X57519876Y-65122438D01*
X57573401Y-64957706D01*
X57573402Y-64957702D01*
X57600500Y-64786614D01*
X57600500Y-64613385D01*
X57573402Y-64442297D01*
X57573401Y-64442293D01*
X57519876Y-64277561D01*
X57519874Y-64277558D01*
X57519873Y-64277557D01*
X57519873Y-64277555D01*
X57441232Y-64123212D01*
X57339414Y-63983072D01*
X57216928Y-63860586D01*
X57076788Y-63758768D01*
X57076787Y-63758767D01*
X57076785Y-63758766D01*
X56922441Y-63680125D01*
X56922438Y-63680123D01*
X56757706Y-63626598D01*
X56757702Y-63626597D01*
X56586614Y-63599500D01*
X56586611Y-63599500D01*
X56413389Y-63599500D01*
X56413386Y-63599500D01*
X56242297Y-63626597D01*
X56242293Y-63626598D01*
X56077561Y-63680123D01*
X56077558Y-63680125D01*
X55923214Y-63758766D01*
X55783073Y-63860585D01*
X55660585Y-63983073D01*
X55558766Y-64123214D01*
X55480125Y-64277558D01*
X55480123Y-64277561D01*
X55426598Y-64442293D01*
X55426597Y-64442297D01*
X55399500Y-64613385D01*
X55399500Y-64629310D01*
X55380593Y-64687501D01*
X55331093Y-64723465D01*
X55269907Y-64723465D01*
X55230496Y-64699314D01*
X43963696Y-53432514D01*
X43935919Y-53377997D01*
X43934700Y-53362510D01*
X43934700Y-52989057D01*
X43934700Y-52989056D01*
X43910814Y-52899912D01*
X43864669Y-52819988D01*
X43841837Y-52797156D01*
X43799417Y-52754735D01*
X43799411Y-52754730D01*
X43446914Y-52402232D01*
X43446913Y-52402231D01*
X43446912Y-52402230D01*
X43366988Y-52356086D01*
X43277844Y-52332200D01*
X43277842Y-52332200D01*
X41980690Y-52332200D01*
X41922499Y-52313293D01*
X41910686Y-52303204D01*
X32766296Y-43158814D01*
X32738519Y-43104297D01*
X32737300Y-43088810D01*
X32737300Y-43002525D01*
X32734851Y-42993385D01*
X32699784Y-42862515D01*
X32699782Y-42862512D01*
X32699782Y-42862510D01*
X32627312Y-42736989D01*
X32627310Y-42736987D01*
X32627309Y-42736985D01*
X32524815Y-42634491D01*
X32524812Y-42634489D01*
X32524810Y-42634487D01*
X32399288Y-42562017D01*
X32399289Y-42562017D01*
X32314475Y-42539291D01*
X32259275Y-42524500D01*
X32114325Y-42524500D01*
X32059125Y-42539291D01*
X31974310Y-42562017D01*
X31848789Y-42634487D01*
X31746287Y-42736989D01*
X31673817Y-42862510D01*
X31656396Y-42927525D01*
X31636300Y-43002525D01*
X18098407Y-43002525D01*
X17397996Y-42302114D01*
X17370219Y-42247597D01*
X17369000Y-42232110D01*
X17369000Y-40849157D01*
X17361949Y-40822842D01*
X17345114Y-40760012D01*
X17305440Y-40691296D01*
X17298970Y-40680089D01*
X17298968Y-40680087D01*
X17233712Y-40614830D01*
X17233712Y-40614831D01*
X15974196Y-39355314D01*
X15946419Y-39300797D01*
X15945200Y-39285310D01*
X15945200Y-36514698D01*
X15964107Y-36456507D01*
X16013607Y-36420543D01*
X16074793Y-36420543D01*
X16093698Y-36428960D01*
X16161115Y-36467884D01*
X16301125Y-36505400D01*
X16301126Y-36505400D01*
X16446074Y-36505400D01*
X16446075Y-36505400D01*
X16586085Y-36467884D01*
X16586087Y-36467882D01*
X16586089Y-36467882D01*
X16711610Y-36395412D01*
X16711610Y-36395411D01*
X16711615Y-36395409D01*
X16814109Y-36292915D01*
X16843963Y-36241207D01*
X16886582Y-36167389D01*
X16886582Y-36167387D01*
X16886584Y-36167385D01*
X16924100Y-36027375D01*
X16924100Y-35882425D01*
X16924100Y-35882418D01*
X16923613Y-35878719D01*
X16924100Y-35876091D01*
X16924100Y-35875935D01*
X16924129Y-35875935D01*
X16934764Y-35818559D01*
X16979148Y-35776443D01*
X17021766Y-35766800D01*
X19206710Y-35766800D01*
X19264901Y-35785707D01*
X19276714Y-35795796D01*
X20912988Y-37432070D01*
X20950907Y-37453962D01*
X20978665Y-37469989D01*
X20978664Y-37469989D01*
X20988672Y-37475766D01*
X20992912Y-37478214D01*
X21082056Y-37502100D01*
X21082058Y-37502100D01*
X24815042Y-37502100D01*
X24815044Y-37502100D01*
X24904188Y-37478214D01*
X24913686Y-37472730D01*
X24918435Y-37469989D01*
X24936609Y-37459496D01*
X24984112Y-37432070D01*
X25741985Y-36674195D01*
X25796502Y-36646419D01*
X25811989Y-36645200D01*
X25898274Y-36645200D01*
X25898275Y-36645200D01*
X26038285Y-36607684D01*
X26038287Y-36607682D01*
X26038289Y-36607682D01*
X26163810Y-36535212D01*
X26163810Y-36535211D01*
X26163815Y-36535209D01*
X26266309Y-36432715D01*
X26328548Y-36324915D01*
X26338782Y-36307189D01*
X26338782Y-36307187D01*
X26338784Y-36307185D01*
X26376300Y-36167175D01*
X26376300Y-36022225D01*
X26376300Y-36022224D01*
X26375453Y-36015791D01*
X26378154Y-36015435D01*
X26380742Y-35965813D01*
X26419234Y-35918253D01*
X26478330Y-35902400D01*
X26535457Y-35924311D01*
X26543180Y-35931262D01*
X35890488Y-45278570D01*
X35924985Y-45298487D01*
X35952715Y-45314497D01*
X35952718Y-45314498D01*
X35952721Y-45314500D01*
X35970412Y-45324714D01*
X36059556Y-45348600D01*
X36059557Y-45348600D01*
X36151844Y-45348600D01*
X38216910Y-45348600D01*
X38275101Y-45367507D01*
X38286914Y-45377596D01*
X38753204Y-45843886D01*
X38780981Y-45898403D01*
X38782200Y-45913890D01*
X38782200Y-46000175D01*
X38811787Y-46110596D01*
X38819717Y-46140189D01*
X38892187Y-46265710D01*
X38892189Y-46265712D01*
X38892191Y-46265715D01*
X38994685Y-46368209D01*
X38994687Y-46368210D01*
X38994689Y-46368212D01*
X39120211Y-46440682D01*
X39120212Y-46440682D01*
X39120215Y-46440684D01*
X39260225Y-46478200D01*
X39260226Y-46478200D01*
X39405174Y-46478200D01*
X39405175Y-46478200D01*
X39545185Y-46440684D01*
X39545187Y-46440682D01*
X39545189Y-46440682D01*
X39670710Y-46368212D01*
X39670710Y-46368211D01*
X39670715Y-46368209D01*
X39773209Y-46265715D01*
X39831986Y-46163909D01*
X39877453Y-46122970D01*
X39938303Y-46116574D01*
X39987725Y-46143407D01*
X55463609Y-61619291D01*
X55491386Y-61673808D01*
X55481820Y-61734229D01*
X55480130Y-61737546D01*
X55480123Y-61737561D01*
X55426598Y-61902293D01*
X55426597Y-61902297D01*
X55399500Y-62073385D01*
X55399500Y-62246614D01*
X55426597Y-62417702D01*
X55426598Y-62417706D01*
X55480123Y-62582438D01*
X55480125Y-62582441D01*
X55480126Y-62582444D01*
X55480127Y-62582445D01*
X55558768Y-62736788D01*
X55660586Y-62876928D01*
X55783072Y-62999414D01*
X55923212Y-63101232D01*
X56077555Y-63179873D01*
X56077557Y-63179873D01*
X56077558Y-63179874D01*
X56077561Y-63179876D01*
X56242293Y-63233401D01*
X56242297Y-63233402D01*
X56413386Y-63260500D01*
X56413389Y-63260500D01*
X56586614Y-63260500D01*
X56757702Y-63233402D01*
X56757706Y-63233401D01*
X56922438Y-63179876D01*
X56922440Y-63179874D01*
X56922445Y-63179873D01*
X57076788Y-63101232D01*
X57216928Y-62999414D01*
X57339414Y-62876928D01*
X57441232Y-62736788D01*
X57519873Y-62582445D01*
X57519874Y-62582440D01*
X57519876Y-62582438D01*
X57573401Y-62417706D01*
X57573402Y-62417702D01*
X57600500Y-62246614D01*
X57600500Y-62073385D01*
X57573402Y-61902297D01*
X57573401Y-61902293D01*
X57519876Y-61737561D01*
X57519874Y-61737558D01*
X57519873Y-61737557D01*
X57519873Y-61737555D01*
X57441232Y-61583212D01*
X57339414Y-61443072D01*
X57216928Y-61320586D01*
X57076788Y-61218768D01*
X57076787Y-61218767D01*
X57076785Y-61218766D01*
X56922441Y-61140125D01*
X56922438Y-61140123D01*
X56757706Y-61086598D01*
X56757702Y-61086597D01*
X56586614Y-61059500D01*
X56586611Y-61059500D01*
X56413389Y-61059500D01*
X56413386Y-61059500D01*
X56242297Y-61086597D01*
X56242293Y-61086598D01*
X56077561Y-61140123D01*
X56077546Y-61140130D01*
X56074229Y-61141820D01*
X56013795Y-61151384D01*
X55959291Y-61123609D01*
X54369067Y-59533385D01*
X55399500Y-59533385D01*
X55399500Y-59706614D01*
X55426597Y-59877702D01*
X55426598Y-59877706D01*
X55480123Y-60042438D01*
X55480125Y-60042441D01*
X55556677Y-60192686D01*
X55558768Y-60196788D01*
X55660586Y-60336928D01*
X55783072Y-60459414D01*
X55923212Y-60561232D01*
X56077555Y-60639873D01*
X56077557Y-60639873D01*
X56077558Y-60639874D01*
X56077561Y-60639876D01*
X56242293Y-60693401D01*
X56242297Y-60693402D01*
X56413386Y-60720500D01*
X56413389Y-60720500D01*
X56586614Y-60720500D01*
X56757702Y-60693402D01*
X56757706Y-60693401D01*
X56922438Y-60639876D01*
X56922440Y-60639874D01*
X56922445Y-60639873D01*
X57076788Y-60561232D01*
X57216928Y-60459414D01*
X57339414Y-60336928D01*
X57441232Y-60196788D01*
X57519873Y-60042445D01*
X57519874Y-60042440D01*
X57519876Y-60042438D01*
X57573401Y-59877706D01*
X57573402Y-59877702D01*
X57600500Y-59706614D01*
X57600500Y-59533385D01*
X57573402Y-59362297D01*
X57573401Y-59362293D01*
X57519876Y-59197561D01*
X57519874Y-59197558D01*
X57519873Y-59197557D01*
X57519873Y-59197555D01*
X57441232Y-59043212D01*
X57339414Y-58903072D01*
X57216928Y-58780586D01*
X57076788Y-58678768D01*
X57076787Y-58678767D01*
X57076785Y-58678766D01*
X56922441Y-58600125D01*
X56922438Y-58600123D01*
X56757706Y-58546598D01*
X56757702Y-58546597D01*
X56586614Y-58519500D01*
X56586611Y-58519500D01*
X56413389Y-58519500D01*
X56413386Y-58519500D01*
X56242297Y-58546597D01*
X56242293Y-58546598D01*
X56077561Y-58600123D01*
X56077558Y-58600125D01*
X55923214Y-58678766D01*
X55783073Y-58780585D01*
X55660585Y-58903073D01*
X55558766Y-59043214D01*
X55480125Y-59197558D01*
X55480123Y-59197561D01*
X55426598Y-59362293D01*
X55426597Y-59362297D01*
X55399500Y-59533385D01*
X54369067Y-59533385D01*
X51829067Y-56993385D01*
X55399500Y-56993385D01*
X55399500Y-57166614D01*
X55426597Y-57337702D01*
X55426598Y-57337706D01*
X55480123Y-57502438D01*
X55480125Y-57502441D01*
X55480126Y-57502444D01*
X55480127Y-57502445D01*
X55558768Y-57656788D01*
X55660586Y-57796928D01*
X55783072Y-57919414D01*
X55923212Y-58021232D01*
X56077555Y-58099873D01*
X56077557Y-58099873D01*
X56077558Y-58099874D01*
X56077561Y-58099876D01*
X56242293Y-58153401D01*
X56242297Y-58153402D01*
X56413386Y-58180500D01*
X56413389Y-58180500D01*
X56586614Y-58180500D01*
X56757702Y-58153402D01*
X56757706Y-58153401D01*
X56922438Y-58099876D01*
X56922440Y-58099874D01*
X56922445Y-58099873D01*
X57076788Y-58021232D01*
X57216928Y-57919414D01*
X57339414Y-57796928D01*
X57441232Y-57656788D01*
X57519873Y-57502445D01*
X57519874Y-57502440D01*
X57519876Y-57502438D01*
X57573401Y-57337706D01*
X57573402Y-57337702D01*
X57600500Y-57166614D01*
X57600500Y-56993385D01*
X57573402Y-56822297D01*
X57573401Y-56822293D01*
X57519876Y-56657561D01*
X57519874Y-56657558D01*
X57519873Y-56657557D01*
X57519873Y-56657555D01*
X57441232Y-56503212D01*
X57339414Y-56363072D01*
X57216928Y-56240586D01*
X57076788Y-56138768D01*
X57076787Y-56138767D01*
X57076785Y-56138766D01*
X56922441Y-56060125D01*
X56922438Y-56060123D01*
X56757706Y-56006598D01*
X56757702Y-56006597D01*
X56586614Y-55979500D01*
X56586611Y-55979500D01*
X56413389Y-55979500D01*
X56413386Y-55979500D01*
X56242297Y-56006597D01*
X56242293Y-56006598D01*
X56077561Y-56060123D01*
X56077558Y-56060125D01*
X55923214Y-56138766D01*
X55783073Y-56240585D01*
X55660585Y-56363073D01*
X55558766Y-56503214D01*
X55480125Y-56657558D01*
X55480123Y-56657561D01*
X55426598Y-56822293D01*
X55426597Y-56822297D01*
X55399500Y-56993385D01*
X51829067Y-56993385D01*
X49289067Y-54453385D01*
X55399500Y-54453385D01*
X55399500Y-54626614D01*
X55426597Y-54797702D01*
X55426598Y-54797706D01*
X55480123Y-54962438D01*
X55480125Y-54962441D01*
X55480126Y-54962444D01*
X55480127Y-54962445D01*
X55558768Y-55116788D01*
X55660586Y-55256928D01*
X55783072Y-55379414D01*
X55923212Y-55481232D01*
X56077555Y-55559873D01*
X56077557Y-55559873D01*
X56077558Y-55559874D01*
X56077561Y-55559876D01*
X56242293Y-55613401D01*
X56242297Y-55613402D01*
X56413386Y-55640500D01*
X56413389Y-55640500D01*
X56586614Y-55640500D01*
X56757702Y-55613402D01*
X56757706Y-55613401D01*
X56922438Y-55559876D01*
X56922440Y-55559874D01*
X56922445Y-55559873D01*
X57076788Y-55481232D01*
X57216928Y-55379414D01*
X57339414Y-55256928D01*
X57441232Y-55116788D01*
X57519873Y-54962445D01*
X57519874Y-54962440D01*
X57519876Y-54962438D01*
X57573401Y-54797706D01*
X57573402Y-54797702D01*
X57600500Y-54626614D01*
X57600500Y-54453385D01*
X57573402Y-54282297D01*
X57573401Y-54282293D01*
X57519876Y-54117561D01*
X57519874Y-54117558D01*
X57519873Y-54117557D01*
X57519873Y-54117555D01*
X57441232Y-53963212D01*
X57339414Y-53823072D01*
X57216928Y-53700586D01*
X57076788Y-53598768D01*
X57076787Y-53598767D01*
X57076785Y-53598766D01*
X56922441Y-53520125D01*
X56922438Y-53520123D01*
X56757706Y-53466598D01*
X56757702Y-53466597D01*
X56586614Y-53439500D01*
X56586611Y-53439500D01*
X56413389Y-53439500D01*
X56413386Y-53439500D01*
X56242297Y-53466597D01*
X56242293Y-53466598D01*
X56077561Y-53520123D01*
X56077558Y-53520125D01*
X55923214Y-53598766D01*
X55783073Y-53700585D01*
X55660585Y-53823073D01*
X55558766Y-53963214D01*
X55480125Y-54117558D01*
X55480123Y-54117561D01*
X55426598Y-54282293D01*
X55426597Y-54282297D01*
X55399500Y-54453385D01*
X49289067Y-54453385D01*
X45940884Y-51105202D01*
X55350000Y-51105202D01*
X55350000Y-51799999D01*
X55350001Y-51800000D01*
X56038120Y-51800000D01*
X56034075Y-51807007D01*
X56000000Y-51934174D01*
X56000000Y-52065826D01*
X56034075Y-52192993D01*
X56038120Y-52200000D01*
X55350002Y-52200000D01*
X55350001Y-52200001D01*
X55350001Y-52894791D01*
X55352909Y-52919874D01*
X55398213Y-53022477D01*
X55477522Y-53101786D01*
X55580127Y-53147090D01*
X55605203Y-53149999D01*
X56299998Y-53149999D01*
X56300000Y-53149998D01*
X56300000Y-52461879D01*
X56307007Y-52465925D01*
X56434174Y-52500000D01*
X56565826Y-52500000D01*
X56692993Y-52465925D01*
X56700000Y-52461879D01*
X56700000Y-53149998D01*
X56700001Y-53149999D01*
X57394790Y-53149999D01*
X57394791Y-53149998D01*
X57419874Y-53147090D01*
X57522477Y-53101786D01*
X57601786Y-53022477D01*
X57647090Y-52919872D01*
X57649999Y-52894797D01*
X57650000Y-52894795D01*
X57650000Y-52200001D01*
X57649999Y-52200000D01*
X56961880Y-52200000D01*
X56965925Y-52192993D01*
X57000000Y-52065826D01*
X57000000Y-51934174D01*
X56965925Y-51807007D01*
X56961880Y-51800000D01*
X57649998Y-51800000D01*
X57649999Y-51799999D01*
X57649999Y-51105210D01*
X57649998Y-51105208D01*
X57647090Y-51080125D01*
X57601786Y-50977522D01*
X57522477Y-50898213D01*
X57419872Y-50852909D01*
X57394797Y-50850000D01*
X56700001Y-50850000D01*
X56700000Y-50850001D01*
X56700000Y-51538120D01*
X56692993Y-51534075D01*
X56565826Y-51500000D01*
X56434174Y-51500000D01*
X56307007Y-51534075D01*
X56300000Y-51538120D01*
X56300000Y-50850001D01*
X56299999Y-50850000D01*
X55605210Y-50850000D01*
X55605207Y-50850001D01*
X55580125Y-50852909D01*
X55477522Y-50898213D01*
X55398213Y-50977522D01*
X55352909Y-51080127D01*
X55350000Y-51105202D01*
X45940884Y-51105202D01*
X38525667Y-43689985D01*
X38497890Y-43635468D01*
X38507461Y-43575036D01*
X38550726Y-43531771D01*
X38570041Y-43524356D01*
X38612485Y-43512984D01*
X38738015Y-43440509D01*
X38840509Y-43338015D01*
X38840512Y-43338010D01*
X38912982Y-43212489D01*
X38912982Y-43212487D01*
X38912984Y-43212485D01*
X38950500Y-43072475D01*
X38950500Y-42927525D01*
X38912984Y-42787515D01*
X38912982Y-42787511D01*
X38912982Y-42787510D01*
X38840512Y-42661989D01*
X38840510Y-42661987D01*
X38840509Y-42661985D01*
X38738015Y-42559491D01*
X38738012Y-42559489D01*
X38738010Y-42559487D01*
X38612488Y-42487017D01*
X38612489Y-42487017D01*
X38528242Y-42464443D01*
X38472475Y-42449500D01*
X38327525Y-42449500D01*
X38271758Y-42464443D01*
X38187510Y-42487017D01*
X38061989Y-42559487D01*
X37959487Y-42661989D01*
X37887017Y-42787511D01*
X37887016Y-42787513D01*
X37875644Y-42829953D01*
X37842320Y-42881266D01*
X37785198Y-42903192D01*
X37726097Y-42887356D01*
X37710014Y-42874332D01*
X35080206Y-40244524D01*
X35052429Y-40190007D01*
X35062000Y-40129575D01*
X35080208Y-40104515D01*
X35087672Y-40097052D01*
X35095133Y-40089592D01*
X35149652Y-40061818D01*
X35165132Y-40060600D01*
X43815610Y-40060600D01*
X43873801Y-40079507D01*
X43885614Y-40089596D01*
X44731704Y-40935685D01*
X44759481Y-40990202D01*
X44760700Y-41005689D01*
X44760700Y-41091975D01*
X44786652Y-41188829D01*
X44798217Y-41231989D01*
X44870687Y-41357510D01*
X44870689Y-41357512D01*
X44870691Y-41357515D01*
X44973185Y-41460009D01*
X44973187Y-41460010D01*
X44973189Y-41460012D01*
X45098711Y-41532482D01*
X45098712Y-41532482D01*
X45098715Y-41532484D01*
X45238725Y-41570000D01*
X45238726Y-41570000D01*
X45383674Y-41570000D01*
X45383675Y-41570000D01*
X45523685Y-41532484D01*
X45523687Y-41532482D01*
X45523689Y-41532482D01*
X45649210Y-41460012D01*
X45649210Y-41460011D01*
X45649215Y-41460009D01*
X45751709Y-41357515D01*
X45779703Y-41309028D01*
X45825172Y-41268088D01*
X45886022Y-41261692D01*
X45935443Y-41288525D01*
X53022131Y-48375212D01*
X53022130Y-48375212D01*
X53087387Y-48440468D01*
X53087389Y-48440470D01*
X53136302Y-48468710D01*
X53167312Y-48486614D01*
X53256456Y-48510500D01*
X55384823Y-48510500D01*
X55443014Y-48529407D01*
X55478977Y-48578905D01*
X55480127Y-48582446D01*
X55545528Y-48710803D01*
X55558768Y-48736788D01*
X55660586Y-48876928D01*
X55783072Y-48999414D01*
X55923212Y-49101232D01*
X56077555Y-49179873D01*
X56077557Y-49179873D01*
X56077558Y-49179874D01*
X56077561Y-49179876D01*
X56242293Y-49233401D01*
X56242297Y-49233402D01*
X56413386Y-49260500D01*
X56413389Y-49260500D01*
X56586614Y-49260500D01*
X56757702Y-49233402D01*
X56757706Y-49233401D01*
X56922438Y-49179876D01*
X56922440Y-49179874D01*
X56922445Y-49179873D01*
X57076788Y-49101232D01*
X57216928Y-48999414D01*
X57339414Y-48876928D01*
X57441232Y-48736788D01*
X57519873Y-48582445D01*
X57519874Y-48582440D01*
X57519876Y-48582438D01*
X57573401Y-48417706D01*
X57573402Y-48417702D01*
X57599752Y-48251336D01*
X57627529Y-48196819D01*
X57682046Y-48169042D01*
X57742478Y-48178613D01*
X57767537Y-48196819D01*
X58227004Y-48656286D01*
X58254781Y-48710803D01*
X58256000Y-48726290D01*
X58256000Y-67487309D01*
X58237093Y-67545500D01*
X58227004Y-67557313D01*
X57040707Y-68743609D01*
X56986190Y-68771386D01*
X56925759Y-68761815D01*
X56922447Y-68760127D01*
X56922438Y-68760123D01*
X56757706Y-68706598D01*
X56757702Y-68706597D01*
X56586614Y-68679500D01*
X56586611Y-68679500D01*
X56413389Y-68679500D01*
X56413386Y-68679500D01*
X56242297Y-68706597D01*
X56242293Y-68706598D01*
X56077561Y-68760123D01*
X56077558Y-68760125D01*
X55923214Y-68838766D01*
X55783073Y-68940585D01*
X55660585Y-69063073D01*
X55558766Y-69203214D01*
X55480125Y-69357558D01*
X55480123Y-69357561D01*
X55426598Y-69522293D01*
X55426597Y-69522297D01*
X55399500Y-69693385D01*
X55399500Y-69866614D01*
X55426597Y-70037702D01*
X55426598Y-70037706D01*
X55480123Y-70202438D01*
X55480125Y-70202441D01*
X55480126Y-70202444D01*
X55480127Y-70202445D01*
X55558768Y-70356788D01*
X55660586Y-70496928D01*
X55783072Y-70619414D01*
X55923212Y-70721232D01*
X56077555Y-70799873D01*
X56077557Y-70799873D01*
X56077558Y-70799874D01*
X56077561Y-70799876D01*
X56242293Y-70853401D01*
X56242297Y-70853402D01*
X56413386Y-70880500D01*
X56413389Y-70880500D01*
X56586614Y-70880500D01*
X56757702Y-70853402D01*
X56757706Y-70853401D01*
X56922438Y-70799876D01*
X56922440Y-70799874D01*
X56922445Y-70799873D01*
X57076788Y-70721232D01*
X57216928Y-70619414D01*
X57339414Y-70496928D01*
X57441232Y-70356788D01*
X57519873Y-70202445D01*
X57519874Y-70202440D01*
X57519876Y-70202438D01*
X57573401Y-70037706D01*
X57573402Y-70037702D01*
X57600500Y-69866614D01*
X57600500Y-69693385D01*
X57573402Y-69522297D01*
X57573401Y-69522293D01*
X57519876Y-69357563D01*
X57519872Y-69357553D01*
X57518186Y-69354244D01*
X57508611Y-69293813D01*
X57536386Y-69239295D01*
X57536385Y-69239295D01*
X58886970Y-67888712D01*
X58933114Y-67808788D01*
X58957000Y-67719644D01*
X58957000Y-48493956D01*
X58933114Y-48404812D01*
X58925832Y-48392200D01*
X58886970Y-48324888D01*
X57185696Y-46623614D01*
X57157921Y-46569100D01*
X57167492Y-46508668D01*
X57197514Y-46473519D01*
X57216920Y-46459420D01*
X57216920Y-46459419D01*
X57216928Y-46459414D01*
X57339414Y-46336928D01*
X57441232Y-46196788D01*
X57519873Y-46042445D01*
X57519874Y-46042440D01*
X57519876Y-46042438D01*
X57573401Y-45877706D01*
X57573402Y-45877702D01*
X57600500Y-45706614D01*
X57600500Y-45533385D01*
X57573402Y-45362297D01*
X57573401Y-45362293D01*
X57519876Y-45197561D01*
X57519875Y-45197560D01*
X57519873Y-45197557D01*
X57519873Y-45197555D01*
X57518184Y-45194241D01*
X57508611Y-45133812D01*
X57536386Y-45079294D01*
X57536385Y-45079294D01*
X58883069Y-43732612D01*
X58929214Y-43652688D01*
X58946551Y-43587984D01*
X58953100Y-43563544D01*
X58953100Y-28956356D01*
X58929214Y-28867212D01*
X58906006Y-28827015D01*
X58883070Y-28787288D01*
X57356846Y-27261064D01*
X57329069Y-27206547D01*
X57338640Y-27146115D01*
X57381905Y-27102850D01*
X57407530Y-27093964D01*
X57447740Y-27085966D01*
X57530601Y-27030601D01*
X57585966Y-26947740D01*
X57600500Y-26874674D01*
X57600500Y-25125326D01*
X57585966Y-25052260D01*
X57530601Y-24969399D01*
X57530599Y-24969397D01*
X57447742Y-24914035D01*
X57447740Y-24914034D01*
X57447737Y-24914033D01*
X57447736Y-24914033D01*
X57374684Y-24899501D01*
X57374674Y-24899500D01*
X55625326Y-24899500D01*
X55625325Y-24899500D01*
X55625315Y-24899501D01*
X55552263Y-24914033D01*
X55552257Y-24914035D01*
X55469400Y-24969397D01*
X55469397Y-24969400D01*
X55414035Y-25052257D01*
X55414033Y-25052263D01*
X55399501Y-25125315D01*
X55399500Y-25125327D01*
X55399500Y-25316510D01*
X55380593Y-25374701D01*
X55331093Y-25410665D01*
X55269907Y-25410665D01*
X55230496Y-25386514D01*
X51373471Y-21529489D01*
X55350000Y-21529489D01*
X55350000Y-21710510D01*
X55378316Y-21889289D01*
X55434250Y-22061440D01*
X55516430Y-22222728D01*
X55557667Y-22279488D01*
X56031980Y-21805174D01*
X56034075Y-21812993D01*
X56099901Y-21927007D01*
X56192993Y-22020099D01*
X56307007Y-22085925D01*
X56314821Y-22088019D01*
X55840511Y-22562330D01*
X55897275Y-22603571D01*
X56058559Y-22685749D01*
X56230710Y-22741683D01*
X56409490Y-22770000D01*
X56590510Y-22770000D01*
X56769289Y-22741683D01*
X56941440Y-22685749D01*
X57102728Y-22603569D01*
X57159487Y-22562330D01*
X56685176Y-22088019D01*
X56692993Y-22085925D01*
X56807007Y-22020099D01*
X56900099Y-21927007D01*
X56965925Y-21812993D01*
X56968019Y-21805176D01*
X57442330Y-22279487D01*
X57483569Y-22222728D01*
X57565749Y-22061440D01*
X57621683Y-21889289D01*
X57650000Y-21710510D01*
X57650000Y-21529489D01*
X57621683Y-21350710D01*
X57565749Y-21178559D01*
X57483571Y-21017275D01*
X57442330Y-20960511D01*
X56968019Y-21434821D01*
X56965925Y-21427007D01*
X56900099Y-21312993D01*
X56807007Y-21219901D01*
X56692993Y-21154075D01*
X56685174Y-21151980D01*
X57159488Y-20677667D01*
X57102728Y-20636430D01*
X56941440Y-20554250D01*
X56769289Y-20498316D01*
X56590510Y-20470000D01*
X56409490Y-20470000D01*
X56230710Y-20498316D01*
X56058559Y-20554250D01*
X55897267Y-20636432D01*
X55840510Y-20677667D01*
X56314823Y-21151980D01*
X56307007Y-21154075D01*
X56192993Y-21219901D01*
X56099901Y-21312993D01*
X56034075Y-21427007D01*
X56031980Y-21434823D01*
X55557667Y-20960510D01*
X55516432Y-21017267D01*
X55434250Y-21178559D01*
X55378316Y-21350710D01*
X55350000Y-21529489D01*
X51373471Y-21529489D01*
X50787286Y-20943304D01*
X50759509Y-20888787D01*
X50769080Y-20828355D01*
X50812345Y-20785090D01*
X50857290Y-20774300D01*
X55202342Y-20774300D01*
X55202344Y-20774300D01*
X55291488Y-20750414D01*
X55371412Y-20704270D01*
X55959293Y-20116387D01*
X56013808Y-20088612D01*
X56074237Y-20098182D01*
X56074243Y-20098185D01*
X56074244Y-20098186D01*
X56077553Y-20099872D01*
X56077563Y-20099876D01*
X56242293Y-20153401D01*
X56242297Y-20153402D01*
X56413386Y-20180500D01*
X56413389Y-20180500D01*
X56586614Y-20180500D01*
X56757702Y-20153402D01*
X56757706Y-20153401D01*
X56922438Y-20099876D01*
X56922440Y-20099874D01*
X56922445Y-20099873D01*
X57076788Y-20021232D01*
X57216928Y-19919414D01*
X57339414Y-19796928D01*
X57441232Y-19656788D01*
X57519873Y-19502445D01*
X57519874Y-19502440D01*
X57519876Y-19502438D01*
X57573401Y-19337706D01*
X57573402Y-19337702D01*
X57600500Y-19166614D01*
X57600500Y-18993385D01*
X57573402Y-18822297D01*
X57573401Y-18822293D01*
X57519876Y-18657561D01*
X57519874Y-18657558D01*
X57519873Y-18657557D01*
X57519873Y-18657555D01*
X57441232Y-18503212D01*
X57339414Y-18363072D01*
X57216928Y-18240586D01*
X57076788Y-18138768D01*
X57076787Y-18138767D01*
X57076785Y-18138766D01*
X56922441Y-18060125D01*
X56922438Y-18060123D01*
X56757706Y-18006598D01*
X56757702Y-18006597D01*
X56586614Y-17979500D01*
X56586611Y-17979500D01*
X56413389Y-17979500D01*
X56413386Y-17979500D01*
X56242297Y-18006597D01*
X56242293Y-18006598D01*
X56077561Y-18060123D01*
X56077558Y-18060125D01*
X55923214Y-18138766D01*
X55783073Y-18240585D01*
X55660585Y-18363073D01*
X55558766Y-18503214D01*
X55480125Y-18657558D01*
X55480123Y-18657561D01*
X55426598Y-18822293D01*
X55426597Y-18822297D01*
X55399500Y-18993385D01*
X55399500Y-19166614D01*
X55426597Y-19337702D01*
X55426598Y-19337706D01*
X55480123Y-19502438D01*
X55480127Y-19502447D01*
X55481815Y-19505759D01*
X55491386Y-19566191D01*
X55463609Y-19620706D01*
X55040014Y-20044303D01*
X54985497Y-20072081D01*
X54970010Y-20073300D01*
X53701390Y-20073300D01*
X53643199Y-20054393D01*
X53607235Y-20004893D01*
X53607235Y-19943707D01*
X53631386Y-19904296D01*
X54204598Y-19331084D01*
X55959293Y-17576387D01*
X56013808Y-17548612D01*
X56074237Y-17558182D01*
X56074243Y-17558185D01*
X56074244Y-17558186D01*
X56077553Y-17559872D01*
X56077563Y-17559876D01*
X56242293Y-17613401D01*
X56242297Y-17613402D01*
X56413386Y-17640500D01*
X56413389Y-17640500D01*
X56586614Y-17640500D01*
X56757702Y-17613402D01*
X56757706Y-17613401D01*
X56922438Y-17559876D01*
X56922440Y-17559874D01*
X56922445Y-17559873D01*
X57076788Y-17481232D01*
X57216928Y-17379414D01*
X57339414Y-17256928D01*
X57441232Y-17116788D01*
X57519873Y-16962445D01*
X57519874Y-16962440D01*
X57519876Y-16962438D01*
X57573401Y-16797706D01*
X57573402Y-16797702D01*
X57600500Y-16626614D01*
X57600500Y-16453385D01*
X57573402Y-16282297D01*
X57573401Y-16282293D01*
X57519876Y-16117561D01*
X57519874Y-16117558D01*
X57519873Y-16117557D01*
X57519873Y-16117555D01*
X57441232Y-15963212D01*
X57339414Y-15823072D01*
X57216928Y-15700586D01*
X57076788Y-15598768D01*
X57076787Y-15598767D01*
X57076785Y-15598766D01*
X56922441Y-15520125D01*
X56922438Y-15520123D01*
X56757706Y-15466598D01*
X56757702Y-15466597D01*
X56586614Y-15439500D01*
X56586611Y-15439500D01*
X56413389Y-15439500D01*
X56413386Y-15439500D01*
X56242297Y-15466597D01*
X56242293Y-15466598D01*
X56077561Y-15520123D01*
X56077558Y-15520125D01*
X55923214Y-15598766D01*
X55783073Y-15700585D01*
X55660585Y-15823073D01*
X55558766Y-15963214D01*
X55480125Y-16117558D01*
X55480123Y-16117561D01*
X55426598Y-16282293D01*
X55426597Y-16282297D01*
X55399500Y-16453385D01*
X55399500Y-16626614D01*
X55426597Y-16797702D01*
X55426598Y-16797706D01*
X55480123Y-16962438D01*
X55480127Y-16962447D01*
X55481815Y-16965759D01*
X55491386Y-17026191D01*
X55463609Y-17080707D01*
X53091414Y-19452904D01*
X53036897Y-19480681D01*
X53021410Y-19481900D01*
X52662598Y-19481900D01*
X52604407Y-19462993D01*
X52568443Y-19413493D01*
X52568443Y-19352307D01*
X52576862Y-19333399D01*
X52578199Y-19331084D01*
X52600484Y-19292485D01*
X52638000Y-19152475D01*
X52638000Y-19007525D01*
X52600484Y-18867515D01*
X52600482Y-18867512D01*
X52600482Y-18867510D01*
X52528012Y-18741989D01*
X52528010Y-18741987D01*
X52528009Y-18741985D01*
X52425515Y-18639491D01*
X52425512Y-18639489D01*
X52425510Y-18639487D01*
X52299988Y-18567017D01*
X52299989Y-18567017D01*
X52270396Y-18559087D01*
X52159975Y-18529500D01*
X52015025Y-18529500D01*
X51953290Y-18546041D01*
X51875010Y-18567017D01*
X51749489Y-18639487D01*
X51646987Y-18741989D01*
X51574517Y-18867510D01*
X51548238Y-18965585D01*
X51537000Y-19007525D01*
X51537000Y-19152475D01*
X51574516Y-19292485D01*
X51588906Y-19317410D01*
X51598138Y-19333399D01*
X51610860Y-19393247D01*
X51585974Y-19449143D01*
X51532986Y-19479736D01*
X51512402Y-19481900D01*
X45723137Y-19481900D01*
X45664946Y-19462993D01*
X45628982Y-19413493D01*
X45628982Y-19352307D01*
X45664946Y-19302807D01*
X45673631Y-19297166D01*
X45740415Y-19258609D01*
X45842909Y-19156115D01*
X45915384Y-19030585D01*
X45952900Y-18890575D01*
X45952900Y-18745625D01*
X45915384Y-18605615D01*
X45915382Y-18605612D01*
X45915382Y-18605610D01*
X45842912Y-18480089D01*
X45842910Y-18480087D01*
X45842909Y-18480085D01*
X45740415Y-18377591D01*
X45740412Y-18377589D01*
X45740410Y-18377587D01*
X45614888Y-18305117D01*
X45614889Y-18305117D01*
X45488571Y-18271270D01*
X45474875Y-18267600D01*
X45474874Y-18267600D01*
X45388590Y-18267600D01*
X45330399Y-18248693D01*
X45318586Y-18238604D01*
X44522767Y-17442785D01*
X43707912Y-16627930D01*
X43627988Y-16581786D01*
X43627985Y-16581785D01*
X43614183Y-16578086D01*
X43614183Y-16578087D01*
X43538844Y-16557900D01*
X43538843Y-16557900D01*
X41342332Y-16557900D01*
X41284141Y-16538993D01*
X41272329Y-16528904D01*
X41211315Y-16467891D01*
X41211310Y-16467887D01*
X41210683Y-16467525D01*
X51537000Y-16467525D01*
X51537000Y-16612474D01*
X51574517Y-16752489D01*
X51646987Y-16878010D01*
X51646989Y-16878012D01*
X51646991Y-16878015D01*
X51749485Y-16980509D01*
X51749487Y-16980510D01*
X51749489Y-16980512D01*
X51875011Y-17052982D01*
X51875012Y-17052982D01*
X51875015Y-17052984D01*
X52015025Y-17090500D01*
X52015026Y-17090500D01*
X52159974Y-17090500D01*
X52159975Y-17090500D01*
X52299985Y-17052984D01*
X52299987Y-17052982D01*
X52299989Y-17052982D01*
X52425510Y-16980512D01*
X52425510Y-16980511D01*
X52425515Y-16980509D01*
X52528009Y-16878015D01*
X52533208Y-16869010D01*
X52600482Y-16752489D01*
X52600482Y-16752487D01*
X52600484Y-16752485D01*
X52638000Y-16612475D01*
X52638000Y-16467525D01*
X52600484Y-16327515D01*
X52600482Y-16327512D01*
X52600482Y-16327510D01*
X52528012Y-16201989D01*
X52528010Y-16201987D01*
X52528009Y-16201985D01*
X52425515Y-16099491D01*
X52425512Y-16099489D01*
X52425510Y-16099487D01*
X52299988Y-16027017D01*
X52299989Y-16027017D01*
X52234115Y-16009366D01*
X52159975Y-15989500D01*
X52015025Y-15989500D01*
X51953290Y-16006041D01*
X51875010Y-16027017D01*
X51749489Y-16099487D01*
X51646987Y-16201989D01*
X51574517Y-16327510D01*
X51537000Y-16467525D01*
X41210683Y-16467525D01*
X41085788Y-16395417D01*
X41085789Y-16395417D01*
X41076842Y-16393019D01*
X41025935Y-16379379D01*
X40974622Y-16346055D01*
X40952696Y-16288934D01*
X40955934Y-16258129D01*
X40966745Y-16217784D01*
X40979100Y-16171675D01*
X40979100Y-16026725D01*
X40941584Y-15886715D01*
X40941582Y-15886711D01*
X40941582Y-15886710D01*
X40869112Y-15761189D01*
X40869110Y-15761187D01*
X40869109Y-15761185D01*
X40766615Y-15658691D01*
X40766612Y-15658689D01*
X40766610Y-15658687D01*
X40641088Y-15586217D01*
X40641089Y-15586217D01*
X40535633Y-15557960D01*
X40501075Y-15548700D01*
X40356125Y-15548700D01*
X40321567Y-15557960D01*
X40216110Y-15586217D01*
X40090589Y-15658687D01*
X39988087Y-15761189D01*
X39915617Y-15886711D01*
X39915616Y-15886714D01*
X39889615Y-15983744D01*
X39863993Y-16028123D01*
X37240914Y-18651204D01*
X37186397Y-18678981D01*
X37170910Y-18680200D01*
X37084625Y-18680200D01*
X37022890Y-18696741D01*
X36944610Y-18717717D01*
X36819089Y-18790187D01*
X36716587Y-18892689D01*
X36644117Y-19018210D01*
X36624582Y-19091115D01*
X36606600Y-19158225D01*
X36606600Y-19303175D01*
X36615852Y-19337702D01*
X36621097Y-19357277D01*
X36617895Y-19418378D01*
X36579389Y-19465928D01*
X36525470Y-19481900D01*
X25067990Y-19481900D01*
X25009799Y-19462993D01*
X24997986Y-19452904D01*
X24932496Y-19387414D01*
X24904719Y-19332897D01*
X24903500Y-19317410D01*
X24903500Y-19231125D01*
X24899685Y-19216889D01*
X24865984Y-19091115D01*
X24865982Y-19091112D01*
X24865982Y-19091110D01*
X24793512Y-18965589D01*
X24793510Y-18965587D01*
X24793509Y-18965585D01*
X24691015Y-18863091D01*
X24691012Y-18863089D01*
X24691010Y-18863087D01*
X24565488Y-18790617D01*
X24565489Y-18790617D01*
X24463474Y-18763282D01*
X24425475Y-18753100D01*
X24280525Y-18753100D01*
X24140515Y-18790616D01*
X24140514Y-18790616D01*
X24140512Y-18790617D01*
X24137189Y-18792536D01*
X24077341Y-18805255D01*
X24021446Y-18780368D01*
X23990854Y-18727379D01*
X23997251Y-18666529D01*
X24017687Y-18636794D01*
X24276891Y-18377591D01*
X24918386Y-17736096D01*
X24972903Y-17708319D01*
X24988390Y-17707100D01*
X26156010Y-17707100D01*
X26214201Y-17726007D01*
X26226013Y-17736096D01*
X26695930Y-18206012D01*
X26761187Y-18271268D01*
X26761189Y-18271270D01*
X26810102Y-18299510D01*
X26841112Y-18317414D01*
X26930256Y-18341300D01*
X26930258Y-18341300D01*
X29466342Y-18341300D01*
X29466344Y-18341300D01*
X29555488Y-18317414D01*
X29635412Y-18271270D01*
X30296885Y-17609795D01*
X30351402Y-17582019D01*
X30366889Y-17580800D01*
X34830268Y-17580800D01*
X34888459Y-17599707D01*
X34900271Y-17609796D01*
X34961284Y-17670808D01*
X34961289Y-17670812D01*
X35086811Y-17743282D01*
X35086812Y-17743282D01*
X35086815Y-17743284D01*
X35226825Y-17780800D01*
X35226826Y-17780800D01*
X35371774Y-17780800D01*
X35371775Y-17780800D01*
X35511785Y-17743284D01*
X35511787Y-17743282D01*
X35511789Y-17743282D01*
X35637310Y-17670812D01*
X35637310Y-17670811D01*
X35637315Y-17670809D01*
X35739809Y-17568315D01*
X35744681Y-17559876D01*
X35812282Y-17442789D01*
X35812282Y-17442787D01*
X35812284Y-17442785D01*
X35849800Y-17302775D01*
X35849800Y-17157825D01*
X35812284Y-17017815D01*
X35812282Y-17017812D01*
X35812282Y-17017810D01*
X35739812Y-16892289D01*
X35739810Y-16892287D01*
X35739809Y-16892285D01*
X35637315Y-16789791D01*
X35637312Y-16789789D01*
X35637310Y-16789787D01*
X35511788Y-16717317D01*
X35511789Y-16717317D01*
X35458305Y-16702986D01*
X35371775Y-16679800D01*
X35226825Y-16679800D01*
X35186594Y-16690580D01*
X35086810Y-16717317D01*
X34961289Y-16789787D01*
X34961284Y-16789791D01*
X34900271Y-16850804D01*
X34845754Y-16878581D01*
X34830268Y-16879800D01*
X34032931Y-16879800D01*
X33974740Y-16860893D01*
X33938776Y-16811393D01*
X33938776Y-16750207D01*
X33958400Y-16718182D01*
X33957460Y-16717461D01*
X33961405Y-16712318D01*
X33961409Y-16712315D01*
X33963509Y-16708678D01*
X34033882Y-16586789D01*
X34033882Y-16586787D01*
X34033884Y-16586785D01*
X34071400Y-16446775D01*
X34071400Y-16301825D01*
X34033884Y-16161815D01*
X34033882Y-16161812D01*
X34033882Y-16161810D01*
X33961412Y-16036289D01*
X33961410Y-16036287D01*
X33961409Y-16036285D01*
X33858915Y-15933791D01*
X33858912Y-15933789D01*
X33858910Y-15933787D01*
X33733388Y-15861317D01*
X33733389Y-15861317D01*
X33703796Y-15853387D01*
X33593375Y-15823800D01*
X33448425Y-15823800D01*
X33308415Y-15861316D01*
X33308414Y-15861316D01*
X33308412Y-15861317D01*
X33299191Y-15866641D01*
X33239342Y-15879360D01*
X33183447Y-15854473D01*
X33179689Y-15850907D01*
X33084774Y-15755992D01*
X33056997Y-15701475D01*
X33066568Y-15641043D01*
X33105276Y-15600252D01*
X33154715Y-15571709D01*
X33185222Y-15541202D01*
X33215729Y-15510696D01*
X33270246Y-15482919D01*
X33285732Y-15481700D01*
X36029310Y-15481700D01*
X36087501Y-15500607D01*
X36099314Y-15510696D01*
X36209504Y-15620886D01*
X36237281Y-15675403D01*
X36238500Y-15690890D01*
X36238500Y-15777175D01*
X36250993Y-15823800D01*
X36276017Y-15917189D01*
X36348487Y-16042710D01*
X36348489Y-16042712D01*
X36348491Y-16042715D01*
X36450985Y-16145209D01*
X36450987Y-16145210D01*
X36450989Y-16145212D01*
X36576511Y-16217682D01*
X36576512Y-16217682D01*
X36576515Y-16217684D01*
X36716525Y-16255200D01*
X36716526Y-16255200D01*
X36861474Y-16255200D01*
X36861475Y-16255200D01*
X37001485Y-16217684D01*
X37001487Y-16217682D01*
X37001489Y-16217682D01*
X37127010Y-16145212D01*
X37127010Y-16145211D01*
X37127015Y-16145209D01*
X37229509Y-16042715D01*
X37275410Y-15963212D01*
X37301982Y-15917189D01*
X37301982Y-15917187D01*
X37301984Y-15917185D01*
X37339500Y-15777175D01*
X37339500Y-15632225D01*
X37301984Y-15492215D01*
X37301982Y-15492212D01*
X37301982Y-15492210D01*
X37229512Y-15366689D01*
X37229510Y-15366687D01*
X37229509Y-15366685D01*
X37127015Y-15264191D01*
X37127012Y-15264189D01*
X37127010Y-15264187D01*
X37001488Y-15191717D01*
X37001489Y-15191717D01*
X36899500Y-15164389D01*
X36861475Y-15154200D01*
X36861474Y-15154200D01*
X36775190Y-15154200D01*
X36716999Y-15135293D01*
X36705187Y-15125204D01*
X36430714Y-14850732D01*
X36430712Y-14850730D01*
X36350788Y-14804586D01*
X36261644Y-14780700D01*
X36261642Y-14780700D01*
X33285732Y-14780700D01*
X33227541Y-14761793D01*
X33215729Y-14751704D01*
X33154715Y-14690691D01*
X33154710Y-14690687D01*
X33029188Y-14618217D01*
X33029189Y-14618217D01*
X32999596Y-14610287D01*
X32889175Y-14580700D01*
X32744225Y-14580700D01*
X32682490Y-14597241D01*
X32604210Y-14618217D01*
X32478689Y-14690687D01*
X32376190Y-14793186D01*
X32347647Y-14842623D01*
X32302176Y-14883563D01*
X32241326Y-14889957D01*
X32191907Y-14863125D01*
X31390838Y-14062056D01*
X30405012Y-13076230D01*
X30325088Y-13030086D01*
X30235944Y-13006200D01*
X19635156Y-13006200D01*
X19546012Y-13030086D01*
X19466088Y-13076230D01*
X17201398Y-15340919D01*
X17146881Y-15368696D01*
X17086449Y-15359125D01*
X17043184Y-15315860D01*
X17033613Y-15255428D01*
X17045658Y-15221414D01*
X17062746Y-15191817D01*
X17078584Y-15164385D01*
X17116100Y-15024375D01*
X17116100Y-14879425D01*
X17078584Y-14739415D01*
X17078582Y-14739412D01*
X17078582Y-14739410D01*
X17006112Y-14613889D01*
X17006110Y-14613887D01*
X17006109Y-14613885D01*
X16903615Y-14511391D01*
X16903612Y-14511389D01*
X16903610Y-14511387D01*
X16778088Y-14438917D01*
X16778089Y-14438917D01*
X16748496Y-14430987D01*
X16638075Y-14401400D01*
X16493125Y-14401400D01*
X16431390Y-14417941D01*
X16353110Y-14438917D01*
X16227589Y-14511387D01*
X16125087Y-14613889D01*
X16052617Y-14739410D01*
X16038208Y-14793185D01*
X16015100Y-14879425D01*
X16015100Y-15024375D01*
X16035497Y-15100498D01*
X16052617Y-15164389D01*
X16125087Y-15289910D01*
X16125089Y-15289912D01*
X16125091Y-15289915D01*
X16227585Y-15392409D01*
X16227587Y-15392410D01*
X16227589Y-15392412D01*
X16353111Y-15464882D01*
X16353112Y-15464882D01*
X16353115Y-15464884D01*
X16493125Y-15502400D01*
X16493126Y-15502400D01*
X16638074Y-15502400D01*
X16638075Y-15502400D01*
X16778085Y-15464884D01*
X16835114Y-15431957D01*
X16894963Y-15419236D01*
X16950858Y-15444122D01*
X16981451Y-15497110D01*
X16975056Y-15557960D01*
X16954619Y-15587698D01*
X16264950Y-16277366D01*
X16220572Y-16302988D01*
X16190614Y-16311015D01*
X16190611Y-16311017D01*
X16065089Y-16383487D01*
X15962587Y-16485989D01*
X15890117Y-16611510D01*
X15860728Y-16721192D01*
X15852600Y-16751525D01*
X15852600Y-16896475D01*
X15866896Y-16949829D01*
X15890117Y-17036489D01*
X15962587Y-17162010D01*
X15962589Y-17162012D01*
X15962591Y-17162015D01*
X16065085Y-17264509D01*
X16113569Y-17292501D01*
X16154511Y-17337970D01*
X16160907Y-17398821D01*
X16134074Y-17448242D01*
X2507229Y-31075089D01*
X2472417Y-31135383D01*
X2472418Y-31135384D01*
X2461086Y-31155011D01*
X2453980Y-31181532D01*
X2441077Y-31229689D01*
X2437200Y-31244157D01*
X2437200Y-34765743D01*
X2457280Y-34840685D01*
X2461086Y-34854890D01*
X2461087Y-34854891D01*
X2491662Y-34907848D01*
X2507230Y-34934812D01*
X3413005Y-35840587D01*
X3440781Y-35895102D01*
X3442000Y-35910589D01*
X3442000Y-36865668D01*
X3423093Y-36923859D01*
X3413004Y-36935671D01*
X3351989Y-36996686D01*
X3282569Y-37116925D01*
X3237099Y-37157865D01*
X3176249Y-37164260D01*
X3123261Y-37133667D01*
X3111097Y-37116925D01*
X3070515Y-37046635D01*
X2963365Y-36939485D01*
X2963362Y-36939483D01*
X2963360Y-36939481D01*
X2832138Y-36863720D01*
X2832140Y-36863720D01*
X2775347Y-36848503D01*
X2685766Y-36824500D01*
X2534234Y-36824500D01*
X2444652Y-36848503D01*
X2387860Y-36863720D01*
X2256639Y-36939481D01*
X2149481Y-37046639D01*
X2143402Y-37057168D01*
X2097930Y-37098106D01*
X2037079Y-37104497D01*
X1987665Y-37077666D01*
X1979999Y-37070000D01*
X1480000Y-37070000D01*
X1480000Y-36670000D01*
X1979999Y-36670000D01*
X1980000Y-36669999D01*
X1980000Y-36241207D01*
X1979999Y-36241204D01*
X1949257Y-36086650D01*
X1888951Y-35941059D01*
X1888947Y-35941050D01*
X1801400Y-35810030D01*
X1801397Y-35810026D01*
X1689973Y-35698602D01*
X1689969Y-35698599D01*
X1558949Y-35611052D01*
X1558940Y-35611048D01*
X1413349Y-35550742D01*
X1380000Y-35544109D01*
X1380000Y-36095735D01*
X1364205Y-36079940D01*
X1295796Y-36040444D01*
X1219496Y-36020000D01*
X1140504Y-36020000D01*
X1064204Y-36040444D01*
X995795Y-36079940D01*
X980000Y-36095735D01*
X980000Y-35544109D01*
X946650Y-35550742D01*
X801059Y-35611048D01*
X801050Y-35611052D01*
X670030Y-35698599D01*
X670026Y-35698602D01*
X669504Y-35699125D01*
X669202Y-35699278D01*
X666261Y-35701692D01*
X665731Y-35701046D01*
X614987Y-35726902D01*
X554555Y-35717331D01*
X511290Y-35674066D01*
X500500Y-35629121D01*
X500500Y-11493225D01*
X4182300Y-11493225D01*
X4182300Y-11638174D01*
X4219817Y-11778189D01*
X4292287Y-11903710D01*
X4292289Y-11903712D01*
X4292291Y-11903715D01*
X4394785Y-12006209D01*
X4394787Y-12006210D01*
X4394789Y-12006212D01*
X4520311Y-12078682D01*
X4520312Y-12078682D01*
X4520315Y-12078684D01*
X4660325Y-12116200D01*
X4660326Y-12116200D01*
X4805274Y-12116200D01*
X4805275Y-12116200D01*
X4945285Y-12078684D01*
X4945287Y-12078682D01*
X4945289Y-12078682D01*
X5070810Y-12006212D01*
X5070810Y-12006211D01*
X5070815Y-12006209D01*
X5101322Y-11975702D01*
X5131829Y-11945196D01*
X5186346Y-11917419D01*
X5201832Y-11916200D01*
X17342318Y-11916200D01*
X17400509Y-11935107D01*
X17436473Y-11984607D01*
X17436473Y-12045793D01*
X17400509Y-12095293D01*
X17380200Y-12106666D01*
X17376207Y-12108319D01*
X17250689Y-12180787D01*
X17148187Y-12283289D01*
X17075717Y-12408810D01*
X17038200Y-12548825D01*
X17038200Y-12693774D01*
X17075717Y-12833789D01*
X17148187Y-12959310D01*
X17148189Y-12959312D01*
X17148191Y-12959315D01*
X17250685Y-13061809D01*
X17250687Y-13061810D01*
X17250689Y-13061812D01*
X17376211Y-13134282D01*
X17376212Y-13134282D01*
X17376215Y-13134284D01*
X17516225Y-13171800D01*
X17516226Y-13171800D01*
X17661174Y-13171800D01*
X17661175Y-13171800D01*
X17801185Y-13134284D01*
X17801187Y-13134282D01*
X17801189Y-13134282D01*
X17926710Y-13061812D01*
X17926710Y-13061811D01*
X17926715Y-13061809D01*
X18029209Y-12959315D01*
X18029212Y-12959310D01*
X18101682Y-12833789D01*
X18101682Y-12833787D01*
X18101684Y-12833785D01*
X18139200Y-12693775D01*
X18139200Y-12548825D01*
X18101684Y-12408815D01*
X18101682Y-12408812D01*
X18101682Y-12408810D01*
X18029212Y-12283289D01*
X18029210Y-12283287D01*
X18029209Y-12283285D01*
X17926715Y-12180791D01*
X17926712Y-12180789D01*
X17926710Y-12180787D01*
X17801192Y-12108319D01*
X17797200Y-12106666D01*
X17750673Y-12066931D01*
X17736387Y-12007437D01*
X17759799Y-11950908D01*
X17811967Y-11918936D01*
X17835082Y-11916200D01*
X37669510Y-11916200D01*
X37727701Y-11935107D01*
X37739514Y-11945196D01*
X41415304Y-15620985D01*
X41443081Y-15675502D01*
X41444300Y-15690989D01*
X41444300Y-15777275D01*
X41464030Y-15850907D01*
X41481817Y-15917289D01*
X41554287Y-16042810D01*
X41554289Y-16042812D01*
X41554291Y-16042815D01*
X41656785Y-16145309D01*
X41656787Y-16145310D01*
X41656789Y-16145312D01*
X41782311Y-16217782D01*
X41782312Y-16217782D01*
X41782315Y-16217784D01*
X41922325Y-16255300D01*
X41922326Y-16255300D01*
X42067274Y-16255300D01*
X42067275Y-16255300D01*
X42207285Y-16217784D01*
X42207287Y-16217782D01*
X42207289Y-16217782D01*
X42332810Y-16145312D01*
X42332810Y-16145311D01*
X42332815Y-16145309D01*
X42435309Y-16042815D01*
X42439079Y-16036285D01*
X42507782Y-15917289D01*
X42507782Y-15917287D01*
X42507784Y-15917285D01*
X42545300Y-15777275D01*
X42545300Y-15632325D01*
X42507784Y-15492315D01*
X42507782Y-15492312D01*
X42507782Y-15492310D01*
X42435312Y-15366789D01*
X42435310Y-15366787D01*
X42435309Y-15366785D01*
X42332815Y-15264291D01*
X42332812Y-15264289D01*
X42332810Y-15264287D01*
X42207288Y-15191817D01*
X42207289Y-15191817D01*
X42104927Y-15164389D01*
X42067275Y-15154300D01*
X42067274Y-15154300D01*
X41980989Y-15154300D01*
X41922798Y-15135393D01*
X41910985Y-15125304D01*
X40492881Y-13707200D01*
X39911008Y-13125327D01*
X55399500Y-13125327D01*
X55399500Y-14874672D01*
X55399501Y-14874684D01*
X55414033Y-14947736D01*
X55414035Y-14947742D01*
X55469397Y-15030599D01*
X55469399Y-15030601D01*
X55552260Y-15085966D01*
X55607808Y-15097015D01*
X55625315Y-15100498D01*
X55625320Y-15100498D01*
X55625326Y-15100500D01*
X55625327Y-15100500D01*
X57374673Y-15100500D01*
X57374674Y-15100500D01*
X57447740Y-15085966D01*
X57530601Y-15030601D01*
X57585966Y-14947740D01*
X57600500Y-14874674D01*
X57600500Y-13125326D01*
X57585966Y-13052260D01*
X57530601Y-12969399D01*
X57530599Y-12969397D01*
X57447742Y-12914035D01*
X57447740Y-12914034D01*
X57447737Y-12914033D01*
X57447736Y-12914033D01*
X57374684Y-12899501D01*
X57374674Y-12899500D01*
X55625326Y-12899500D01*
X55625325Y-12899500D01*
X55625315Y-12899501D01*
X55552263Y-12914033D01*
X55552257Y-12914035D01*
X55469400Y-12969397D01*
X55469397Y-12969400D01*
X55414035Y-13052257D01*
X55414033Y-13052263D01*
X55399501Y-13125315D01*
X55399500Y-13125327D01*
X39911008Y-13125327D01*
X38070912Y-11285230D01*
X37990988Y-11239086D01*
X37901844Y-11215200D01*
X37901842Y-11215200D01*
X5201832Y-11215200D01*
X5143641Y-11196293D01*
X5131829Y-11186204D01*
X5070815Y-11125191D01*
X5070810Y-11125187D01*
X4945288Y-11052717D01*
X4945289Y-11052717D01*
X4915696Y-11044787D01*
X4805275Y-11015200D01*
X4660325Y-11015200D01*
X4598590Y-11031741D01*
X4520310Y-11052717D01*
X4394789Y-11125187D01*
X4292287Y-11227689D01*
X4219817Y-11353210D01*
X4182300Y-11493225D01*
X500500Y-11493225D01*
X500500Y-9437525D01*
X17049500Y-9437525D01*
X17049500Y-9582474D01*
X17087017Y-9722489D01*
X17159487Y-9848010D01*
X17159489Y-9848012D01*
X17159491Y-9848015D01*
X17261985Y-9950509D01*
X17261987Y-9950510D01*
X17261989Y-9950512D01*
X17387511Y-10022982D01*
X17387512Y-10022982D01*
X17387515Y-10022984D01*
X17527525Y-10060500D01*
X17527526Y-10060500D01*
X17672474Y-10060500D01*
X17672475Y-10060500D01*
X17812485Y-10022984D01*
X17812487Y-10022982D01*
X17812489Y-10022982D01*
X17938010Y-9950512D01*
X17938010Y-9950511D01*
X17938015Y-9950509D01*
X18040509Y-9848015D01*
X18112984Y-9722485D01*
X18150500Y-9582475D01*
X18150500Y-9437525D01*
X21099500Y-9437525D01*
X21099500Y-9582474D01*
X21137017Y-9722489D01*
X21209487Y-9848010D01*
X21209489Y-9848012D01*
X21209491Y-9848015D01*
X21311985Y-9950509D01*
X21311987Y-9950510D01*
X21311989Y-9950512D01*
X21437511Y-10022982D01*
X21437512Y-10022982D01*
X21437515Y-10022984D01*
X21577525Y-10060500D01*
X21577526Y-10060500D01*
X21722474Y-10060500D01*
X21722475Y-10060500D01*
X21862485Y-10022984D01*
X21862487Y-10022982D01*
X21862489Y-10022982D01*
X21988010Y-9950512D01*
X21988010Y-9950511D01*
X21988015Y-9950509D01*
X22090509Y-9848015D01*
X22162984Y-9722485D01*
X22200500Y-9582475D01*
X22200500Y-9437525D01*
X22162984Y-9297515D01*
X22162982Y-9297512D01*
X22162982Y-9297510D01*
X22090512Y-9171989D01*
X22090510Y-9171987D01*
X22090509Y-9171985D01*
X21988015Y-9069491D01*
X21988012Y-9069489D01*
X21988010Y-9069487D01*
X21862488Y-8997017D01*
X21862489Y-8997017D01*
X21832896Y-8989087D01*
X21722475Y-8959500D01*
X21577525Y-8959500D01*
X21515790Y-8976041D01*
X21437510Y-8997017D01*
X21311989Y-9069487D01*
X21209487Y-9171989D01*
X21137017Y-9297510D01*
X21099500Y-9437525D01*
X18150500Y-9437525D01*
X18112984Y-9297515D01*
X18112982Y-9297512D01*
X18112982Y-9297510D01*
X18040512Y-9171989D01*
X18040510Y-9171987D01*
X18040509Y-9171985D01*
X17938015Y-9069491D01*
X17938012Y-9069489D01*
X17938010Y-9069487D01*
X17812488Y-8997017D01*
X17812489Y-8997017D01*
X17782896Y-8989087D01*
X17672475Y-8959500D01*
X17527525Y-8959500D01*
X17465790Y-8976041D01*
X17387510Y-8997017D01*
X17261989Y-9069487D01*
X17159487Y-9171989D01*
X17087017Y-9297510D01*
X17049500Y-9437525D01*
X500500Y-9437525D01*
X500500Y-3878710D01*
X1649500Y-3878710D01*
X1649500Y-4121289D01*
X1681161Y-4361781D01*
X1681161Y-4361786D01*
X1743944Y-4596092D01*
X1743948Y-4596105D01*
X1836772Y-4820204D01*
X1836774Y-4820208D01*
X1836776Y-4820212D01*
X1958064Y-5030289D01*
X1958066Y-5030292D01*
X2105729Y-5222731D01*
X2105731Y-5222733D01*
X2105735Y-5222738D01*
X2277262Y-5394265D01*
X2277266Y-5394268D01*
X2277268Y-5394270D01*
X2469707Y-5541933D01*
X2469711Y-5541936D01*
X2679788Y-5663224D01*
X2903900Y-5756054D01*
X3138211Y-5818838D01*
X3378712Y-5850500D01*
X3378713Y-5850500D01*
X3621287Y-5850500D01*
X3621288Y-5850500D01*
X3861789Y-5818838D01*
X4096100Y-5756054D01*
X4320212Y-5663224D01*
X4530289Y-5541936D01*
X4722738Y-5394265D01*
X4894265Y-5222738D01*
X5041936Y-5030289D01*
X5163224Y-4820212D01*
X5256054Y-4596100D01*
X5318838Y-4361789D01*
X5350500Y-4121288D01*
X5350500Y-3878712D01*
X5318838Y-3638211D01*
X5256054Y-3403900D01*
X5163224Y-3179788D01*
X5041936Y-2969711D01*
X4894265Y-2777262D01*
X4722738Y-2605735D01*
X4722733Y-2605731D01*
X4722731Y-2605729D01*
X4530292Y-2458066D01*
X4530289Y-2458064D01*
X4320212Y-2336776D01*
X4320208Y-2336774D01*
X4320204Y-2336772D01*
X4096105Y-2243948D01*
X4096104Y-2243947D01*
X4096100Y-2243946D01*
X3861789Y-2181162D01*
X3861786Y-2181161D01*
X3861784Y-2181161D01*
X3621289Y-2149500D01*
X3621288Y-2149500D01*
X3378712Y-2149500D01*
X3378710Y-2149500D01*
X3138218Y-2181161D01*
X3138213Y-2181161D01*
X2903907Y-2243944D01*
X2903894Y-2243948D01*
X2679795Y-2336772D01*
X2469707Y-2458066D01*
X2277268Y-2605729D01*
X2105729Y-2777268D01*
X1958066Y-2969707D01*
X1836772Y-3179795D01*
X1743948Y-3403894D01*
X1743944Y-3403907D01*
X1681161Y-3638213D01*
X1681161Y-3638218D01*
X1649500Y-3878710D01*
X500500Y-3878710D01*
X500500Y-599500D01*
X519407Y-541309D01*
X568907Y-505345D01*
X599500Y-500500D01*
X7901000Y-500500D01*
X7959191Y-519407D01*
G37*
%TD.AperFunction*%
%TA.AperFunction,Conductor*%
G36*
X15914359Y-41422507D02*
G01*
X15926171Y-41432596D01*
X15987284Y-41493708D01*
X15987289Y-41493712D01*
X16112811Y-41566182D01*
X16112812Y-41566182D01*
X16112815Y-41566184D01*
X16252825Y-41603700D01*
X16252826Y-41603700D01*
X16397773Y-41603700D01*
X16397775Y-41603700D01*
X16537785Y-41566184D01*
X16537787Y-41566182D01*
X16543376Y-41564685D01*
X16604478Y-41567887D01*
X16652028Y-41606392D01*
X16668000Y-41660312D01*
X16668000Y-42464443D01*
X16678388Y-42503212D01*
X16678387Y-42503212D01*
X16688055Y-42539291D01*
X16691886Y-42553588D01*
X16738030Y-42633512D01*
X20292905Y-46188387D01*
X20320681Y-46242902D01*
X20321900Y-46258389D01*
X20321900Y-47572668D01*
X20302993Y-47630859D01*
X20292904Y-47642671D01*
X20231891Y-47703684D01*
X20231887Y-47703689D01*
X20159417Y-47829210D01*
X20159416Y-47829215D01*
X20121900Y-47969225D01*
X20121900Y-48114175D01*
X20122635Y-48116917D01*
X20136397Y-48168277D01*
X20133195Y-48229378D01*
X20094689Y-48276928D01*
X20040770Y-48292900D01*
X19108090Y-48292900D01*
X19049899Y-48273993D01*
X19038086Y-48263904D01*
X15817394Y-45043212D01*
X12346783Y-41572601D01*
X12319008Y-41518087D01*
X12328579Y-41457655D01*
X12371844Y-41414390D01*
X12416789Y-41403600D01*
X15856168Y-41403600D01*
X15914359Y-41422507D01*
G37*
%TD.AperFunction*%
%TA.AperFunction,Conductor*%
G36*
X34358961Y-24471107D02*
G01*
X34394925Y-24520607D01*
X34396396Y-24576822D01*
X34381900Y-24630925D01*
X34381900Y-24775875D01*
X34400880Y-24846709D01*
X34419417Y-24915889D01*
X34491887Y-25041410D01*
X34491889Y-25041412D01*
X34491891Y-25041415D01*
X34594385Y-25143909D01*
X34594387Y-25143910D01*
X34594389Y-25143912D01*
X34719911Y-25216382D01*
X34719912Y-25216382D01*
X34719915Y-25216384D01*
X34859925Y-25253900D01*
X34859926Y-25253900D01*
X35004874Y-25253900D01*
X35004875Y-25253900D01*
X35144885Y-25216384D01*
X35144887Y-25216382D01*
X35144889Y-25216382D01*
X35270410Y-25143912D01*
X35270410Y-25143911D01*
X35270415Y-25143909D01*
X35300922Y-25113402D01*
X35331429Y-25082896D01*
X35385946Y-25055119D01*
X35401432Y-25053900D01*
X38217710Y-25053900D01*
X38275901Y-25072807D01*
X38287714Y-25082896D01*
X38912404Y-25707585D01*
X38940181Y-25762102D01*
X38941400Y-25777589D01*
X38941400Y-25863874D01*
X38978917Y-26003889D01*
X39051387Y-26129410D01*
X39051389Y-26129412D01*
X39051391Y-26129415D01*
X39153885Y-26231909D01*
X39153887Y-26231910D01*
X39153889Y-26231912D01*
X39279411Y-26304382D01*
X39279412Y-26304382D01*
X39279415Y-26304384D01*
X39419425Y-26341900D01*
X39419426Y-26341900D01*
X39564374Y-26341900D01*
X39564375Y-26341900D01*
X39704385Y-26304384D01*
X39704387Y-26304382D01*
X39704389Y-26304382D01*
X39829910Y-26231912D01*
X39829910Y-26231911D01*
X39829915Y-26231909D01*
X39932409Y-26129415D01*
X39932412Y-26129410D01*
X40004882Y-26003889D01*
X40004882Y-26003887D01*
X40004884Y-26003885D01*
X40042400Y-25863875D01*
X40042400Y-25718925D01*
X40004884Y-25578915D01*
X40004882Y-25578912D01*
X40004882Y-25578910D01*
X39932412Y-25453389D01*
X39932410Y-25453387D01*
X39932409Y-25453385D01*
X39829915Y-25350891D01*
X39829912Y-25350889D01*
X39829910Y-25350887D01*
X39704388Y-25278417D01*
X39704389Y-25278417D01*
X39674796Y-25270487D01*
X39564375Y-25240900D01*
X39564374Y-25240900D01*
X39478089Y-25240900D01*
X39419898Y-25221993D01*
X39408085Y-25211904D01*
X38817386Y-24621204D01*
X38789609Y-24566687D01*
X38799180Y-24506255D01*
X38842445Y-24462990D01*
X38887390Y-24452200D01*
X40718357Y-24452200D01*
X40776548Y-24471107D01*
X40812512Y-24520607D01*
X40813983Y-24576824D01*
X40787000Y-24677522D01*
X40787000Y-24677524D01*
X40787000Y-24677525D01*
X40787000Y-24822475D01*
X40812913Y-24919182D01*
X40824517Y-24962489D01*
X40896987Y-25088010D01*
X40896989Y-25088012D01*
X40896991Y-25088015D01*
X40999485Y-25190509D01*
X40999487Y-25190510D01*
X40999489Y-25190512D01*
X41125011Y-25262982D01*
X41125012Y-25262982D01*
X41125015Y-25262984D01*
X41265025Y-25300500D01*
X41265026Y-25300500D01*
X41409974Y-25300500D01*
X41409975Y-25300500D01*
X41549985Y-25262984D01*
X41549987Y-25262982D01*
X41549989Y-25262982D01*
X41675510Y-25190512D01*
X41675510Y-25190511D01*
X41675515Y-25190509D01*
X41778009Y-25088015D01*
X41778012Y-25088010D01*
X41850482Y-24962489D01*
X41850482Y-24962487D01*
X41850484Y-24962485D01*
X41888000Y-24822475D01*
X41888000Y-24677525D01*
X41861017Y-24576823D01*
X41864218Y-24515722D01*
X41902723Y-24468172D01*
X41956643Y-24452200D01*
X42394010Y-24452200D01*
X42452201Y-24471107D01*
X42464014Y-24481196D01*
X49343288Y-31360470D01*
X49423212Y-31406614D01*
X49512356Y-31430500D01*
X49512357Y-31430500D01*
X49604644Y-31430500D01*
X55384823Y-31430500D01*
X55443014Y-31449407D01*
X55478977Y-31498905D01*
X55480127Y-31502446D01*
X55514835Y-31570564D01*
X55558768Y-31656788D01*
X55660586Y-31796928D01*
X55783072Y-31919414D01*
X55923212Y-32021232D01*
X56077555Y-32099873D01*
X56077557Y-32099873D01*
X56077558Y-32099874D01*
X56077561Y-32099876D01*
X56242293Y-32153401D01*
X56242297Y-32153402D01*
X56413386Y-32180500D01*
X56413389Y-32180500D01*
X56586614Y-32180500D01*
X56757702Y-32153402D01*
X56757706Y-32153401D01*
X56922438Y-32099876D01*
X56922440Y-32099874D01*
X56922445Y-32099873D01*
X57076788Y-32021232D01*
X57165310Y-31956916D01*
X57223500Y-31938010D01*
X57281691Y-31956917D01*
X57317655Y-32006417D01*
X57322500Y-32037010D01*
X57322500Y-32260810D01*
X57303593Y-32319001D01*
X57293503Y-32330814D01*
X57040707Y-32583609D01*
X56986191Y-32611386D01*
X56925765Y-32601818D01*
X56922445Y-32600126D01*
X56922438Y-32600123D01*
X56757706Y-32546598D01*
X56757702Y-32546597D01*
X56586614Y-32519500D01*
X56586611Y-32519500D01*
X56413389Y-32519500D01*
X56413386Y-32519500D01*
X56242297Y-32546597D01*
X56242293Y-32546598D01*
X56077561Y-32600123D01*
X56077558Y-32600125D01*
X55923214Y-32678766D01*
X55783073Y-32780585D01*
X55660585Y-32903073D01*
X55558766Y-33043214D01*
X55480125Y-33197558D01*
X55480123Y-33197561D01*
X55426598Y-33362293D01*
X55426597Y-33362297D01*
X55399500Y-33533385D01*
X55399500Y-33706614D01*
X55426597Y-33877702D01*
X55426598Y-33877706D01*
X55480123Y-34042438D01*
X55480125Y-34042441D01*
X55480126Y-34042444D01*
X55480127Y-34042445D01*
X55558768Y-34196788D01*
X55660586Y-34336928D01*
X55783072Y-34459414D01*
X55923212Y-34561232D01*
X56077555Y-34639873D01*
X56077557Y-34639873D01*
X56077558Y-34639874D01*
X56077561Y-34639876D01*
X56242293Y-34693401D01*
X56242297Y-34693402D01*
X56413386Y-34720500D01*
X56413389Y-34720500D01*
X56586614Y-34720500D01*
X56757702Y-34693402D01*
X56757706Y-34693401D01*
X56922438Y-34639876D01*
X56922440Y-34639874D01*
X56922445Y-34639873D01*
X57076788Y-34561232D01*
X57216928Y-34459414D01*
X57339414Y-34336928D01*
X57441232Y-34196788D01*
X57519873Y-34042445D01*
X57519874Y-34042440D01*
X57519876Y-34042438D01*
X57573401Y-33877706D01*
X57573402Y-33877702D01*
X57600500Y-33706614D01*
X57600500Y-33533385D01*
X57573402Y-33362297D01*
X57573401Y-33362293D01*
X57519876Y-33197563D01*
X57519873Y-33197555D01*
X57518183Y-33194238D01*
X57508612Y-33133806D01*
X57536388Y-33079292D01*
X57953470Y-32662212D01*
X57999614Y-32582288D01*
X58002427Y-32571791D01*
X58009178Y-32546597D01*
X58017433Y-32515785D01*
X58023500Y-32493144D01*
X58023500Y-30576856D01*
X57999614Y-30487712D01*
X57986848Y-30465601D01*
X57986848Y-30465600D01*
X57953471Y-30407790D01*
X57953470Y-30407788D01*
X57165302Y-29619620D01*
X57137525Y-29565103D01*
X57147096Y-29504671D01*
X57158810Y-29490956D01*
X57159488Y-29482331D01*
X56685176Y-29008019D01*
X56692993Y-29005925D01*
X56807007Y-28940099D01*
X56900099Y-28847007D01*
X56965925Y-28732993D01*
X56968019Y-28725176D01*
X57442330Y-29199487D01*
X57483569Y-29142728D01*
X57565749Y-28981440D01*
X57621684Y-28809289D01*
X57631216Y-28749101D01*
X57658992Y-28694584D01*
X57713509Y-28666806D01*
X57773941Y-28676377D01*
X57799001Y-28694583D01*
X58223104Y-29118686D01*
X58250881Y-29173203D01*
X58252100Y-29188690D01*
X58252100Y-43331210D01*
X58233193Y-43389401D01*
X58223104Y-43401214D01*
X57040708Y-44583609D01*
X56986191Y-44611386D01*
X56925765Y-44601818D01*
X56922445Y-44600126D01*
X56922438Y-44600123D01*
X56757706Y-44546598D01*
X56757702Y-44546597D01*
X56586614Y-44519500D01*
X56586611Y-44519500D01*
X56413389Y-44519500D01*
X56413386Y-44519500D01*
X56242297Y-44546597D01*
X56242293Y-44546598D01*
X56077561Y-44600123D01*
X56077558Y-44600125D01*
X55923214Y-44678766D01*
X55783073Y-44780585D01*
X55660585Y-44903073D01*
X55558766Y-45043214D01*
X55480125Y-45197558D01*
X55480123Y-45197561D01*
X55426598Y-45362293D01*
X55426597Y-45362297D01*
X55399500Y-45533385D01*
X55399500Y-45664610D01*
X55380593Y-45722801D01*
X55331093Y-45758765D01*
X55269907Y-45758765D01*
X55230496Y-45734614D01*
X46359601Y-36863719D01*
X37437112Y-27941230D01*
X37357188Y-27895086D01*
X37268044Y-27871200D01*
X37268042Y-27871200D01*
X36268932Y-27871200D01*
X36210741Y-27852293D01*
X36198929Y-27842204D01*
X36137915Y-27781191D01*
X36137910Y-27781187D01*
X36012388Y-27708717D01*
X36012389Y-27708717D01*
X35950792Y-27692212D01*
X35872375Y-27671200D01*
X35727425Y-27671200D01*
X35665690Y-27687741D01*
X35587410Y-27708717D01*
X35461889Y-27781187D01*
X35359387Y-27883689D01*
X35286917Y-28009210D01*
X35268573Y-28077671D01*
X35249400Y-28149225D01*
X35249400Y-28294175D01*
X35270380Y-28372474D01*
X35286917Y-28434189D01*
X35359387Y-28559710D01*
X35359389Y-28559712D01*
X35359391Y-28559715D01*
X35461885Y-28662209D01*
X35461887Y-28662210D01*
X35461889Y-28662212D01*
X35587411Y-28734682D01*
X35587412Y-28734682D01*
X35587415Y-28734684D01*
X35727425Y-28772200D01*
X35727426Y-28772200D01*
X35872374Y-28772200D01*
X35872375Y-28772200D01*
X36012385Y-28734684D01*
X36012387Y-28734682D01*
X36012389Y-28734682D01*
X36137910Y-28662212D01*
X36137910Y-28662211D01*
X36137915Y-28662209D01*
X36176310Y-28623814D01*
X36198929Y-28601196D01*
X36253446Y-28573419D01*
X36268932Y-28572200D01*
X37035710Y-28572200D01*
X37093901Y-28591107D01*
X37105714Y-28601196D01*
X55674988Y-47170470D01*
X55726947Y-47200468D01*
X55767887Y-47245937D01*
X55774283Y-47306787D01*
X55747450Y-47356207D01*
X55660588Y-47443069D01*
X55558766Y-47583214D01*
X55480127Y-47737553D01*
X55478977Y-47741095D01*
X55443011Y-47790594D01*
X55384823Y-47809500D01*
X53488789Y-47809500D01*
X53430598Y-47790593D01*
X53418785Y-47780504D01*
X49659513Y-44021232D01*
X45775612Y-40137330D01*
X45695688Y-40091186D01*
X45695687Y-40091185D01*
X45695686Y-40091185D01*
X45685545Y-40088468D01*
X45685545Y-40088467D01*
X45621001Y-40071173D01*
X45606544Y-40067300D01*
X45606543Y-40067300D01*
X45552589Y-40067300D01*
X45494398Y-40048393D01*
X45482585Y-40038304D01*
X39087009Y-33642727D01*
X39059232Y-33588210D01*
X39068803Y-33527778D01*
X39107510Y-33486988D01*
X39188015Y-33440509D01*
X39290509Y-33338015D01*
X39341101Y-33250388D01*
X39362982Y-33212489D01*
X39362982Y-33212487D01*
X39362984Y-33212485D01*
X39400500Y-33072475D01*
X39400500Y-32927525D01*
X39362984Y-32787515D01*
X39362982Y-32787512D01*
X39362982Y-32787510D01*
X39290512Y-32661989D01*
X39290510Y-32661987D01*
X39290509Y-32661985D01*
X39188015Y-32559491D01*
X39188012Y-32559489D01*
X39188010Y-32559487D01*
X39062488Y-32487017D01*
X39062489Y-32487017D01*
X39024855Y-32476933D01*
X38922475Y-32449500D01*
X38777525Y-32449500D01*
X38715790Y-32466041D01*
X38637510Y-32487017D01*
X38511989Y-32559487D01*
X38409489Y-32661987D01*
X38363012Y-32742487D01*
X38317542Y-32783427D01*
X38256692Y-32789822D01*
X38207272Y-32762990D01*
X36087009Y-30642727D01*
X36059232Y-30588210D01*
X36068803Y-30527778D01*
X36107510Y-30486988D01*
X36188015Y-30440509D01*
X36290509Y-30338015D01*
X36292596Y-30334400D01*
X36362982Y-30212489D01*
X36362982Y-30212487D01*
X36362984Y-30212485D01*
X36400500Y-30072475D01*
X36400500Y-29927525D01*
X36362984Y-29787515D01*
X36362982Y-29787512D01*
X36362982Y-29787510D01*
X36290512Y-29661989D01*
X36290510Y-29661987D01*
X36290509Y-29661985D01*
X36188015Y-29559491D01*
X36188012Y-29559489D01*
X36188010Y-29559487D01*
X36062488Y-29487017D01*
X36062489Y-29487017D01*
X36032896Y-29479087D01*
X35922475Y-29449500D01*
X35777525Y-29449500D01*
X35740205Y-29459500D01*
X35637510Y-29487017D01*
X35511989Y-29559487D01*
X35409489Y-29661987D01*
X35363012Y-29742487D01*
X35317542Y-29783427D01*
X35256692Y-29789822D01*
X35207272Y-29762990D01*
X34108512Y-28664230D01*
X34080735Y-28609713D01*
X34082890Y-28568599D01*
X34084800Y-28561475D01*
X34084800Y-28416525D01*
X34047284Y-28276515D01*
X34047282Y-28276512D01*
X34047282Y-28276510D01*
X33974812Y-28150989D01*
X33974810Y-28150987D01*
X33974809Y-28150985D01*
X33872315Y-28048491D01*
X33872312Y-28048489D01*
X33872310Y-28048487D01*
X33746788Y-27976017D01*
X33746789Y-27976017D01*
X33655026Y-27951429D01*
X33606775Y-27938500D01*
X33567016Y-27938500D01*
X33508825Y-27919593D01*
X33472861Y-27870093D01*
X33471389Y-27813877D01*
X33478586Y-27787017D01*
X33490200Y-27743675D01*
X33490200Y-27598725D01*
X33475703Y-27544622D01*
X33478905Y-27483522D01*
X33517411Y-27435972D01*
X33571330Y-27420000D01*
X40303310Y-27420000D01*
X40361501Y-27438907D01*
X40373314Y-27448996D01*
X47921711Y-34997393D01*
X55463610Y-42539291D01*
X55491387Y-42593808D01*
X55481816Y-42654239D01*
X55480127Y-42657552D01*
X55480123Y-42657561D01*
X55426598Y-42822293D01*
X55426597Y-42822297D01*
X55399500Y-42993385D01*
X55399500Y-43166614D01*
X55426597Y-43337702D01*
X55426598Y-43337706D01*
X55480123Y-43502438D01*
X55480125Y-43502441D01*
X55552459Y-43644407D01*
X55558768Y-43656788D01*
X55660586Y-43796928D01*
X55783072Y-43919414D01*
X55923212Y-44021232D01*
X56077555Y-44099873D01*
X56077557Y-44099873D01*
X56077558Y-44099874D01*
X56077561Y-44099876D01*
X56242293Y-44153401D01*
X56242297Y-44153402D01*
X56413386Y-44180500D01*
X56413389Y-44180500D01*
X56586614Y-44180500D01*
X56757702Y-44153402D01*
X56757706Y-44153401D01*
X56922438Y-44099876D01*
X56922440Y-44099874D01*
X56922445Y-44099873D01*
X57076788Y-44021232D01*
X57216928Y-43919414D01*
X57339414Y-43796928D01*
X57441232Y-43656788D01*
X57519873Y-43502445D01*
X57519874Y-43502440D01*
X57519876Y-43502438D01*
X57573401Y-43337706D01*
X57573402Y-43337702D01*
X57600500Y-43166614D01*
X57600500Y-42993385D01*
X57573402Y-42822297D01*
X57573401Y-42822293D01*
X57519876Y-42657561D01*
X57519874Y-42657558D01*
X57519873Y-42657557D01*
X57519873Y-42657555D01*
X57441232Y-42503212D01*
X57339414Y-42363072D01*
X57216928Y-42240586D01*
X57076788Y-42138768D01*
X57076787Y-42138767D01*
X57076785Y-42138766D01*
X56922441Y-42060125D01*
X56922438Y-42060123D01*
X56757706Y-42006598D01*
X56757702Y-42006597D01*
X56586614Y-41979500D01*
X56586611Y-41979500D01*
X56413389Y-41979500D01*
X56413386Y-41979500D01*
X56242297Y-42006597D01*
X56242293Y-42006598D01*
X56077561Y-42060123D01*
X56077552Y-42060127D01*
X56074239Y-42061816D01*
X56013807Y-42071387D01*
X55959291Y-42043610D01*
X54365170Y-40449489D01*
X55350000Y-40449489D01*
X55350000Y-40630510D01*
X55378316Y-40809289D01*
X55434250Y-40981440D01*
X55516430Y-41142728D01*
X55557667Y-41199488D01*
X56031980Y-40725174D01*
X56034075Y-40732993D01*
X56099901Y-40847007D01*
X56192993Y-40940099D01*
X56307007Y-41005925D01*
X56314821Y-41008019D01*
X55840511Y-41482330D01*
X55897275Y-41523571D01*
X56058559Y-41605749D01*
X56230710Y-41661683D01*
X56409490Y-41690000D01*
X56590510Y-41690000D01*
X56769289Y-41661683D01*
X56941440Y-41605749D01*
X57102728Y-41523569D01*
X57159487Y-41482330D01*
X56685176Y-41008019D01*
X56692993Y-41005925D01*
X56807007Y-40940099D01*
X56900099Y-40847007D01*
X56965925Y-40732993D01*
X56968019Y-40725176D01*
X57442330Y-41199487D01*
X57483569Y-41142728D01*
X57565749Y-40981440D01*
X57621683Y-40809289D01*
X57650000Y-40630510D01*
X57650000Y-40449489D01*
X57621683Y-40270710D01*
X57565749Y-40098559D01*
X57483571Y-39937275D01*
X57442330Y-39880511D01*
X56968019Y-40354821D01*
X56965925Y-40347007D01*
X56900099Y-40232993D01*
X56807007Y-40139901D01*
X56692993Y-40074075D01*
X56685174Y-40071980D01*
X57159488Y-39597667D01*
X57102728Y-39556430D01*
X56941440Y-39474250D01*
X56769289Y-39418316D01*
X56590510Y-39390000D01*
X56409490Y-39390000D01*
X56230710Y-39418316D01*
X56058559Y-39474250D01*
X55897267Y-39556432D01*
X55840510Y-39597667D01*
X56314823Y-40071980D01*
X56307007Y-40074075D01*
X56192993Y-40139901D01*
X56099901Y-40232993D01*
X56034075Y-40347007D01*
X56031980Y-40354823D01*
X55557667Y-39880510D01*
X55516432Y-39937267D01*
X55434250Y-40098559D01*
X55378316Y-40270710D01*
X55350000Y-40449489D01*
X54365170Y-40449489D01*
X51041008Y-37125327D01*
X55399500Y-37125327D01*
X55399500Y-38874672D01*
X55399501Y-38874684D01*
X55414033Y-38947736D01*
X55414035Y-38947742D01*
X55469397Y-39030599D01*
X55469399Y-39030601D01*
X55552260Y-39085966D01*
X55607808Y-39097015D01*
X55625315Y-39100498D01*
X55625320Y-39100498D01*
X55625326Y-39100500D01*
X55625327Y-39100500D01*
X57374673Y-39100500D01*
X57374674Y-39100500D01*
X57447740Y-39085966D01*
X57530601Y-39030601D01*
X57585966Y-38947740D01*
X57600500Y-38874674D01*
X57600500Y-37125326D01*
X57585966Y-37052260D01*
X57563715Y-37018958D01*
X57530602Y-36969400D01*
X57530599Y-36969397D01*
X57447742Y-36914035D01*
X57447740Y-36914034D01*
X57447737Y-36914033D01*
X57447736Y-36914033D01*
X57374684Y-36899501D01*
X57374674Y-36899500D01*
X55625326Y-36899500D01*
X55625325Y-36899500D01*
X55625315Y-36899501D01*
X55552263Y-36914033D01*
X55552257Y-36914035D01*
X55469400Y-36969397D01*
X55469397Y-36969400D01*
X55414035Y-37052257D01*
X55414033Y-37052263D01*
X55399501Y-37125315D01*
X55399500Y-37125327D01*
X51041008Y-37125327D01*
X48375095Y-34459414D01*
X40704712Y-26789030D01*
X40624788Y-26742886D01*
X40619356Y-26741430D01*
X40609225Y-26738715D01*
X40609225Y-26738716D01*
X40535644Y-26719000D01*
X40535642Y-26719000D01*
X31915290Y-26719000D01*
X31857099Y-26700093D01*
X31821135Y-26650593D01*
X31821135Y-26589407D01*
X31845286Y-26549996D01*
X33914086Y-24481196D01*
X33968603Y-24453419D01*
X33984090Y-24452200D01*
X34300770Y-24452200D01*
X34358961Y-24471107D01*
G37*
%TD.AperFunction*%
%TA.AperFunction,Conductor*%
G36*
X5962929Y-32627853D02*
G01*
X5973925Y-32630800D01*
X5973927Y-32630800D01*
X6038924Y-32630800D01*
X6097115Y-32649707D01*
X6133079Y-32699207D01*
X6133079Y-32760393D01*
X6124660Y-32779299D01*
X6123918Y-32780586D01*
X6112817Y-32799812D01*
X6112816Y-32799814D01*
X6112816Y-32799815D01*
X6098351Y-32853800D01*
X6075300Y-32939825D01*
X6075300Y-33084774D01*
X6112817Y-33224789D01*
X6185287Y-33350310D01*
X6185289Y-33350312D01*
X6185291Y-33350315D01*
X6246305Y-33411329D01*
X6274081Y-33465844D01*
X6275300Y-33481331D01*
X6275300Y-44187810D01*
X6256393Y-44246001D01*
X6246304Y-44257814D01*
X5054328Y-45449790D01*
X5035236Y-45482859D01*
X4989766Y-45523799D01*
X4928916Y-45530194D01*
X4875928Y-45499601D01*
X4851042Y-45443706D01*
X4850500Y-45433358D01*
X4850500Y-33711288D01*
X4869407Y-33653097D01*
X4879490Y-33641290D01*
X5867305Y-32653474D01*
X5921820Y-32625699D01*
X5962929Y-32627853D01*
G37*
%TD.AperFunction*%
%TA.AperFunction,Conductor*%
G36*
X24024594Y-19749657D02*
G01*
X24140515Y-19816584D01*
X24280525Y-19854100D01*
X24366810Y-19854100D01*
X24425001Y-19873007D01*
X24436813Y-19883096D01*
X24666588Y-20112870D01*
X24736786Y-20153399D01*
X24736790Y-20153401D01*
X24736792Y-20153402D01*
X24746512Y-20159014D01*
X24835656Y-20182900D01*
X25166410Y-20182900D01*
X25224601Y-20201807D01*
X25260565Y-20251307D01*
X25260565Y-20312493D01*
X25236414Y-20351904D01*
X23990614Y-21597704D01*
X23936097Y-21625481D01*
X23920610Y-21626700D01*
X23834325Y-21626700D01*
X23772590Y-21643241D01*
X23694310Y-21664217D01*
X23568789Y-21736687D01*
X23466287Y-21839189D01*
X23393817Y-21964710D01*
X23359338Y-22093386D01*
X23356300Y-22104725D01*
X23356300Y-22249675D01*
X23365089Y-22282474D01*
X23393817Y-22389689D01*
X23466287Y-22515210D01*
X23466289Y-22515212D01*
X23466291Y-22515215D01*
X23568785Y-22617709D01*
X23568787Y-22617710D01*
X23568789Y-22617712D01*
X23694311Y-22690182D01*
X23694312Y-22690182D01*
X23694315Y-22690184D01*
X23834325Y-22727700D01*
X23834326Y-22727700D01*
X23979274Y-22727700D01*
X23979275Y-22727700D01*
X24119285Y-22690184D01*
X24119287Y-22690182D01*
X24119289Y-22690182D01*
X24244810Y-22617712D01*
X24244810Y-22617711D01*
X24244815Y-22617709D01*
X24347309Y-22515215D01*
X24400847Y-22422485D01*
X24419782Y-22389689D01*
X24419782Y-22389687D01*
X24419784Y-22389685D01*
X24457300Y-22249675D01*
X24457300Y-22163390D01*
X24476207Y-22105199D01*
X24486296Y-22093386D01*
X25776386Y-20803296D01*
X25830903Y-20775519D01*
X25846390Y-20774300D01*
X29627610Y-20774300D01*
X29685801Y-20793207D01*
X29721765Y-20842707D01*
X29721765Y-20903893D01*
X29697614Y-20943304D01*
X23968714Y-26672204D01*
X23914197Y-26699981D01*
X23898710Y-26701200D01*
X23812425Y-26701200D01*
X23758222Y-26715723D01*
X23697121Y-26712520D01*
X23649571Y-26674014D01*
X23633600Y-26620096D01*
X23633600Y-25228590D01*
X23652507Y-25170399D01*
X23662596Y-25158586D01*
X23835486Y-24985696D01*
X23890003Y-24957919D01*
X23905490Y-24956700D01*
X23991774Y-24956700D01*
X23991775Y-24956700D01*
X24131785Y-24919184D01*
X24131787Y-24919182D01*
X24131789Y-24919182D01*
X24257310Y-24846712D01*
X24257310Y-24846711D01*
X24257315Y-24846709D01*
X24359809Y-24744215D01*
X24398313Y-24677524D01*
X24432282Y-24618689D01*
X24432282Y-24618687D01*
X24432284Y-24618685D01*
X24469800Y-24478675D01*
X24469800Y-24333725D01*
X24432284Y-24193715D01*
X24432282Y-24193712D01*
X24432282Y-24193710D01*
X24359812Y-24068189D01*
X24359810Y-24068187D01*
X24359809Y-24068185D01*
X24257315Y-23965691D01*
X24257312Y-23965689D01*
X24257310Y-23965687D01*
X24131788Y-23893217D01*
X24131789Y-23893217D01*
X24102196Y-23885287D01*
X23991775Y-23855700D01*
X23846825Y-23855700D01*
X23785090Y-23872241D01*
X23706810Y-23893217D01*
X23581289Y-23965687D01*
X23478787Y-24068189D01*
X23406317Y-24193710D01*
X23368800Y-24333725D01*
X23368800Y-24420010D01*
X23349893Y-24478201D01*
X23339804Y-24490013D01*
X23002629Y-24827188D01*
X22960880Y-24899500D01*
X22956490Y-24907103D01*
X22956487Y-24907109D01*
X22956486Y-24907112D01*
X22932600Y-24996256D01*
X22932600Y-29434744D01*
X22940278Y-29463400D01*
X22947957Y-29492057D01*
X22956484Y-29523884D01*
X22956485Y-29523887D01*
X22956486Y-29523888D01*
X23002630Y-29603812D01*
X23196905Y-29798087D01*
X23224681Y-29852602D01*
X23225900Y-29868089D01*
X23225900Y-29954374D01*
X23263417Y-30094389D01*
X23335887Y-30219910D01*
X23335889Y-30219912D01*
X23335891Y-30219915D01*
X23438385Y-30322409D01*
X23438387Y-30322410D01*
X23438389Y-30322412D01*
X23563911Y-30394882D01*
X23563912Y-30394882D01*
X23563915Y-30394884D01*
X23703925Y-30432400D01*
X23703926Y-30432400D01*
X23848874Y-30432400D01*
X23848875Y-30432400D01*
X23988885Y-30394884D01*
X23988887Y-30394882D01*
X23988889Y-30394882D01*
X24114410Y-30322412D01*
X24114410Y-30322411D01*
X24114415Y-30322409D01*
X24175234Y-30261589D01*
X24229748Y-30233813D01*
X24290180Y-30243384D01*
X24294714Y-30245845D01*
X24383115Y-30296884D01*
X24523125Y-30334400D01*
X24523126Y-30334400D01*
X24668074Y-30334400D01*
X24668075Y-30334400D01*
X24808085Y-30296884D01*
X24808087Y-30296882D01*
X24808089Y-30296882D01*
X24933610Y-30224412D01*
X24933610Y-30224411D01*
X24933615Y-30224409D01*
X25036109Y-30121915D01*
X25054264Y-30090470D01*
X25108582Y-29996389D01*
X25108582Y-29996387D01*
X25108584Y-29996385D01*
X25146100Y-29856375D01*
X25146100Y-29711425D01*
X25146099Y-29711424D01*
X25145253Y-29704993D01*
X25148368Y-29704582D01*
X25150899Y-29656288D01*
X25173318Y-29621762D01*
X28791097Y-26003984D01*
X28845613Y-25976208D01*
X28906045Y-25985779D01*
X28949310Y-26029044D01*
X28960100Y-26073989D01*
X28960100Y-29584343D01*
X28973937Y-29635986D01*
X28979377Y-29656288D01*
X28983986Y-29673488D01*
X29030130Y-29753412D01*
X31496205Y-32219487D01*
X31523981Y-32274002D01*
X31525200Y-32289489D01*
X31525200Y-32375775D01*
X31544955Y-32449500D01*
X31562717Y-32515789D01*
X31635187Y-32641310D01*
X31635189Y-32641312D01*
X31635191Y-32641315D01*
X31737685Y-32743809D01*
X31737687Y-32743810D01*
X31737689Y-32743812D01*
X31863211Y-32816282D01*
X31863212Y-32816282D01*
X31863215Y-32816284D01*
X32003225Y-32853800D01*
X32003226Y-32853800D01*
X32148174Y-32853800D01*
X32148175Y-32853800D01*
X32288185Y-32816284D01*
X32288187Y-32816282D01*
X32288189Y-32816282D01*
X32413710Y-32743812D01*
X32413710Y-32743811D01*
X32413715Y-32743809D01*
X32413718Y-32743805D01*
X32418861Y-32739860D01*
X32419760Y-32741031D01*
X32467613Y-32716650D01*
X32528045Y-32726221D01*
X32571310Y-32769486D01*
X32582100Y-32814431D01*
X32582100Y-38843544D01*
X32605986Y-38932688D01*
X32652130Y-39012612D01*
X34231788Y-40592270D01*
X34311712Y-40638414D01*
X34400856Y-40662300D01*
X34465610Y-40662300D01*
X34523801Y-40681207D01*
X34535614Y-40691296D01*
X38322914Y-44478596D01*
X38350691Y-44533113D01*
X38341120Y-44593545D01*
X38297855Y-44636810D01*
X38252910Y-44647600D01*
X36291890Y-44647600D01*
X36233699Y-44628693D01*
X36221886Y-44618604D01*
X23580807Y-31977525D01*
X27712000Y-31977525D01*
X27712000Y-32122475D01*
X27736072Y-32212311D01*
X27749517Y-32262489D01*
X27821987Y-32388010D01*
X27821989Y-32388012D01*
X27821991Y-32388015D01*
X27924485Y-32490509D01*
X27924487Y-32490510D01*
X27924489Y-32490512D01*
X28050011Y-32562982D01*
X28050012Y-32562982D01*
X28050015Y-32562984D01*
X28190025Y-32600500D01*
X28190026Y-32600500D01*
X28334974Y-32600500D01*
X28334975Y-32600500D01*
X28474985Y-32562984D01*
X28474987Y-32562982D01*
X28474989Y-32562982D01*
X28600510Y-32490512D01*
X28600510Y-32490511D01*
X28600515Y-32490509D01*
X28703009Y-32388015D01*
X28718434Y-32361299D01*
X28775482Y-32262489D01*
X28775482Y-32262487D01*
X28775484Y-32262485D01*
X28813000Y-32122475D01*
X28813000Y-31977525D01*
X28775484Y-31837515D01*
X28775482Y-31837512D01*
X28775482Y-31837510D01*
X28703012Y-31711989D01*
X28703010Y-31711987D01*
X28703009Y-31711985D01*
X28600515Y-31609491D01*
X28600512Y-31609489D01*
X28600510Y-31609487D01*
X28474988Y-31537017D01*
X28474989Y-31537017D01*
X28345969Y-31502446D01*
X28334975Y-31499500D01*
X28190025Y-31499500D01*
X28179031Y-31502446D01*
X28050010Y-31537017D01*
X27924489Y-31609487D01*
X27821987Y-31711989D01*
X27749517Y-31837510D01*
X27715280Y-31965285D01*
X27712000Y-31977525D01*
X23580807Y-31977525D01*
X21777796Y-30174514D01*
X21750019Y-30119997D01*
X21748800Y-30104510D01*
X21748800Y-25936987D01*
X21767707Y-25878796D01*
X21777790Y-25866989D01*
X21961054Y-25683725D01*
X21961852Y-25683027D01*
X21966107Y-25678771D01*
X21966112Y-25678769D01*
X22031369Y-25613512D01*
X22077514Y-25533588D01*
X22101400Y-25444444D01*
X22101400Y-21523090D01*
X22120307Y-21464899D01*
X22130396Y-21453086D01*
X23241786Y-20341696D01*
X23296303Y-20313919D01*
X23311790Y-20312700D01*
X23398074Y-20312700D01*
X23398075Y-20312700D01*
X23538085Y-20275184D01*
X23538087Y-20275182D01*
X23538089Y-20275182D01*
X23663610Y-20202712D01*
X23663610Y-20202711D01*
X23663615Y-20202709D01*
X23766109Y-20100215D01*
X23766306Y-20099874D01*
X23838582Y-19974689D01*
X23838582Y-19974687D01*
X23838584Y-19974685D01*
X23876100Y-19834675D01*
X23876100Y-19834672D01*
X23876947Y-19828242D01*
X23878363Y-19828428D01*
X23895007Y-19777205D01*
X23944507Y-19741241D01*
X24005693Y-19741241D01*
X24024594Y-19749657D01*
G37*
%TD.AperFunction*%
%TA.AperFunction,Conductor*%
G36*
X11813619Y-32102043D02*
G01*
X11861170Y-32140548D01*
X11877006Y-32199648D01*
X11855080Y-32256770D01*
X11848146Y-32264471D01*
X11752229Y-32360388D01*
X11752228Y-32360390D01*
X11736282Y-32388012D01*
X11736281Y-32388012D01*
X11736280Y-32388014D01*
X11736280Y-32388015D01*
X11733175Y-32393393D01*
X11706087Y-32440309D01*
X11706086Y-32440311D01*
X11706086Y-32440312D01*
X11683032Y-32526353D01*
X11682200Y-32529457D01*
X11682200Y-40669010D01*
X11663293Y-40727201D01*
X11613793Y-40763165D01*
X11552607Y-40763165D01*
X11513196Y-40739014D01*
X10908796Y-40134614D01*
X10301712Y-39527530D01*
X10221788Y-39481386D01*
X10132644Y-39457500D01*
X10132642Y-39457500D01*
X9690189Y-39457500D01*
X9631998Y-39438593D01*
X9620185Y-39428504D01*
X8336185Y-38144504D01*
X8308408Y-38089987D01*
X8317979Y-38029555D01*
X8361244Y-37986290D01*
X8406189Y-37975500D01*
X8465764Y-37975500D01*
X8465766Y-37975500D01*
X8612135Y-37936281D01*
X8612137Y-37936279D01*
X8612139Y-37936279D01*
X8743360Y-37860518D01*
X8743360Y-37860517D01*
X8743365Y-37860515D01*
X8850515Y-37753365D01*
X8890847Y-37683508D01*
X8936315Y-37642569D01*
X8997165Y-37636173D01*
X9050153Y-37666766D01*
X9068046Y-37695124D01*
X9111048Y-37798940D01*
X9111052Y-37798949D01*
X9198599Y-37929969D01*
X9198602Y-37929973D01*
X9310026Y-38041397D01*
X9310030Y-38041400D01*
X9441050Y-38128947D01*
X9441059Y-38128951D01*
X9586644Y-38189254D01*
X9586655Y-38189258D01*
X9620000Y-38195890D01*
X9620000Y-37644265D01*
X9635795Y-37660060D01*
X9704204Y-37699556D01*
X9780504Y-37720000D01*
X9859496Y-37720000D01*
X9935796Y-37699556D01*
X10004205Y-37660060D01*
X10020000Y-37644265D01*
X10020000Y-38195889D01*
X10053344Y-38189258D01*
X10053355Y-38189254D01*
X10198940Y-38128951D01*
X10198949Y-38128947D01*
X10329969Y-38041400D01*
X10329973Y-38041397D01*
X10441397Y-37929973D01*
X10441400Y-37929969D01*
X10528947Y-37798949D01*
X10528951Y-37798940D01*
X10589257Y-37653349D01*
X10619999Y-37498795D01*
X10620000Y-37498792D01*
X10620000Y-37070001D01*
X10619999Y-37070000D01*
X10120000Y-37070000D01*
X10120000Y-36670000D01*
X10619999Y-36670000D01*
X10620000Y-36669999D01*
X10620000Y-36241207D01*
X10619999Y-36241204D01*
X10589257Y-36086650D01*
X10528951Y-35941059D01*
X10528947Y-35941050D01*
X10441400Y-35810030D01*
X10441397Y-35810026D01*
X10329973Y-35698602D01*
X10329969Y-35698599D01*
X10198949Y-35611052D01*
X10198940Y-35611048D01*
X10053349Y-35550742D01*
X10020000Y-35544109D01*
X10020000Y-36095735D01*
X10004205Y-36079940D01*
X9935796Y-36040444D01*
X9859496Y-36020000D01*
X9780504Y-36020000D01*
X9704204Y-36040444D01*
X9635795Y-36079940D01*
X9620000Y-36095735D01*
X9620000Y-35544109D01*
X9586650Y-35550742D01*
X9441059Y-35611048D01*
X9441050Y-35611052D01*
X9310030Y-35698599D01*
X9310026Y-35698602D01*
X9198602Y-35810026D01*
X9198599Y-35810030D01*
X9111052Y-35941050D01*
X9111048Y-35941059D01*
X9050742Y-36086650D01*
X9020000Y-36241204D01*
X9020000Y-36669999D01*
X9020001Y-36670000D01*
X9520000Y-36670000D01*
X9520000Y-37070000D01*
X9020000Y-37070000D01*
X9012333Y-37077667D01*
X8957816Y-37105443D01*
X8897384Y-37095871D01*
X8856595Y-37057164D01*
X8850518Y-37046639D01*
X8850516Y-37046637D01*
X8850515Y-37046635D01*
X8743365Y-36939485D01*
X8743362Y-36939483D01*
X8743360Y-36939481D01*
X8612138Y-36863720D01*
X8612140Y-36863720D01*
X8555347Y-36848503D01*
X8465766Y-36824500D01*
X8314234Y-36824500D01*
X8224652Y-36848503D01*
X8167860Y-36863720D01*
X8036639Y-36939481D01*
X8036638Y-36939482D01*
X8036635Y-36939484D01*
X8036635Y-36939485D01*
X7932101Y-37044018D01*
X7877587Y-37071794D01*
X7817155Y-37062223D01*
X7773890Y-37018958D01*
X7763100Y-36974013D01*
X7763100Y-35305398D01*
X7782007Y-35247207D01*
X7831507Y-35211243D01*
X7887723Y-35209772D01*
X8007622Y-35241899D01*
X8007624Y-35241900D01*
X8007625Y-35241900D01*
X8152574Y-35241900D01*
X8152575Y-35241900D01*
X8292585Y-35204384D01*
X8292587Y-35204382D01*
X8292589Y-35204382D01*
X8418110Y-35131912D01*
X8418110Y-35131911D01*
X8418115Y-35131909D01*
X8520609Y-35029415D01*
X8544139Y-34988660D01*
X8593082Y-34903889D01*
X8593082Y-34903887D01*
X8593084Y-34903885D01*
X8630600Y-34763875D01*
X8630600Y-34618925D01*
X8593084Y-34478915D01*
X8523963Y-34359194D01*
X8510700Y-34309694D01*
X8510700Y-32370700D01*
X8529607Y-32312509D01*
X8579107Y-32276545D01*
X8609700Y-32271700D01*
X11300442Y-32271700D01*
X11300444Y-32271700D01*
X11389588Y-32247814D01*
X11469512Y-32201670D01*
X11496750Y-32174431D01*
X11523987Y-32147196D01*
X11525601Y-32146373D01*
X11526480Y-32144789D01*
X11552709Y-32132561D01*
X11578504Y-32119419D01*
X11581389Y-32119191D01*
X11581936Y-32118937D01*
X11582711Y-32119087D01*
X11593990Y-32118200D01*
X11680276Y-32118200D01*
X11680276Y-32118199D01*
X11752519Y-32098842D01*
X11813619Y-32102043D01*
G37*
%TD.AperFunction*%
%TA.AperFunction,Conductor*%
G36*
X13634282Y-33339241D02*
G01*
X13675073Y-33377951D01*
X13720487Y-33456610D01*
X13720489Y-33456612D01*
X13720491Y-33456615D01*
X13822985Y-33559109D01*
X13822987Y-33559110D01*
X13822989Y-33559112D01*
X13948511Y-33631582D01*
X13948512Y-33631582D01*
X13948515Y-33631584D01*
X14088525Y-33669100D01*
X14088526Y-33669100D01*
X14233474Y-33669100D01*
X14233475Y-33669100D01*
X14373485Y-33631584D01*
X14373487Y-33631582D01*
X14373489Y-33631582D01*
X14499010Y-33559112D01*
X14499010Y-33559111D01*
X14499015Y-33559109D01*
X14530346Y-33527778D01*
X14560029Y-33498096D01*
X14614546Y-33470319D01*
X14630032Y-33469100D01*
X14815710Y-33469100D01*
X14873901Y-33488007D01*
X14885714Y-33498096D01*
X15325674Y-33938056D01*
X15353451Y-33992573D01*
X15343880Y-34053005D01*
X15305172Y-34093796D01*
X15256686Y-34121790D01*
X15154187Y-34224289D01*
X15081717Y-34349810D01*
X15052349Y-34459414D01*
X15044200Y-34489825D01*
X15044200Y-34634775D01*
X15045567Y-34639876D01*
X15081717Y-34774789D01*
X15154187Y-34900310D01*
X15154189Y-34900312D01*
X15154191Y-34900315D01*
X15215205Y-34961329D01*
X15242981Y-35015844D01*
X15244200Y-35031331D01*
X15244200Y-39517643D01*
X15259517Y-39574811D01*
X15268084Y-39606784D01*
X15268085Y-39606786D01*
X15268086Y-39606788D01*
X15314230Y-39686712D01*
X15686639Y-40059121D01*
X16056401Y-40428883D01*
X16084178Y-40483400D01*
X16074607Y-40543832D01*
X16035898Y-40584623D01*
X15987287Y-40612689D01*
X15987284Y-40612691D01*
X15926371Y-40673604D01*
X15871854Y-40701381D01*
X15856368Y-40702600D01*
X13246228Y-40702600D01*
X13188037Y-40683693D01*
X13152073Y-40634193D01*
X13150601Y-40577978D01*
X13184900Y-40449975D01*
X13184900Y-40305025D01*
X13147384Y-40165015D01*
X13147382Y-40165012D01*
X13147382Y-40165010D01*
X13074912Y-40039489D01*
X13074908Y-40039484D01*
X13013896Y-39978471D01*
X12986119Y-39923954D01*
X12984900Y-39908468D01*
X12984900Y-33932889D01*
X13003807Y-33874698D01*
X13013896Y-33862885D01*
X13245199Y-33631582D01*
X13519335Y-33357445D01*
X13573850Y-33329670D01*
X13634282Y-33339241D01*
G37*
%TD.AperFunction*%
%TA.AperFunction,Conductor*%
G36*
X33461825Y-29039500D02*
G01*
X33461835Y-29039500D01*
X33463729Y-29039750D01*
X33464975Y-29040344D01*
X33468094Y-29041180D01*
X33467939Y-29041757D01*
X33518956Y-29066087D01*
X33520818Y-29067900D01*
X36744208Y-32291290D01*
X36771985Y-32345807D01*
X36762414Y-32406239D01*
X36719149Y-32449504D01*
X36699828Y-32456920D01*
X36587515Y-32487015D01*
X36587511Y-32487017D01*
X36461989Y-32559487D01*
X36359487Y-32661989D01*
X36287017Y-32787510D01*
X36260460Y-32886621D01*
X36249500Y-32927525D01*
X36249500Y-33072475D01*
X36264955Y-33130152D01*
X36287017Y-33212489D01*
X36359487Y-33338010D01*
X36359489Y-33338012D01*
X36359491Y-33338015D01*
X36461985Y-33440509D01*
X36461987Y-33440510D01*
X36461989Y-33440512D01*
X36587511Y-33512982D01*
X36587512Y-33512982D01*
X36587515Y-33512984D01*
X36727525Y-33550500D01*
X36727526Y-33550500D01*
X36872474Y-33550500D01*
X36872475Y-33550500D01*
X37012485Y-33512984D01*
X37012487Y-33512982D01*
X37012489Y-33512982D01*
X37138010Y-33440512D01*
X37138010Y-33440511D01*
X37138015Y-33440509D01*
X37240509Y-33338015D01*
X37291101Y-33250388D01*
X37312982Y-33212489D01*
X37312982Y-33212487D01*
X37312984Y-33212485D01*
X37343078Y-33100170D01*
X37376402Y-33048857D01*
X37433524Y-33026931D01*
X37492624Y-33042767D01*
X37508709Y-33055791D01*
X43643515Y-39190596D01*
X43671292Y-39245113D01*
X43661721Y-39305545D01*
X43618456Y-39348810D01*
X43573511Y-39359600D01*
X35165132Y-39359600D01*
X35106941Y-39340693D01*
X35095129Y-39330604D01*
X35034115Y-39269591D01*
X35034110Y-39269587D01*
X34908588Y-39197117D01*
X34908589Y-39197117D01*
X34878996Y-39189187D01*
X34768575Y-39159600D01*
X34623625Y-39159600D01*
X34561890Y-39176141D01*
X34483610Y-39197117D01*
X34358089Y-39269587D01*
X34255589Y-39372087D01*
X34227633Y-39420508D01*
X34182163Y-39461448D01*
X34121313Y-39467843D01*
X34071893Y-39441011D01*
X33312096Y-38681214D01*
X33284319Y-38626697D01*
X33283100Y-38611210D01*
X33283100Y-35927525D01*
X35299500Y-35927525D01*
X35299500Y-36072475D01*
X35309156Y-36108510D01*
X35337017Y-36212489D01*
X35409487Y-36338010D01*
X35409489Y-36338012D01*
X35409491Y-36338015D01*
X35511985Y-36440509D01*
X35511987Y-36440510D01*
X35511989Y-36440512D01*
X35637511Y-36512982D01*
X35637512Y-36512982D01*
X35637515Y-36512984D01*
X35777525Y-36550500D01*
X35777526Y-36550500D01*
X35922474Y-36550500D01*
X35922475Y-36550500D01*
X36062485Y-36512984D01*
X36062487Y-36512982D01*
X36062489Y-36512982D01*
X36188010Y-36440512D01*
X36188010Y-36440511D01*
X36188015Y-36440509D01*
X36290509Y-36338015D01*
X36298075Y-36324910D01*
X36362982Y-36212489D01*
X36362982Y-36212487D01*
X36362984Y-36212485D01*
X36400500Y-36072475D01*
X36400500Y-35927525D01*
X36362984Y-35787515D01*
X36362982Y-35787512D01*
X36362982Y-35787510D01*
X36290512Y-35661989D01*
X36290510Y-35661987D01*
X36290509Y-35661985D01*
X36188015Y-35559491D01*
X36188012Y-35559489D01*
X36188010Y-35559487D01*
X36062488Y-35487017D01*
X36062489Y-35487017D01*
X35994025Y-35468672D01*
X35922475Y-35449500D01*
X35777525Y-35449500D01*
X35715790Y-35466041D01*
X35637510Y-35487017D01*
X35511989Y-35559487D01*
X35409487Y-35661989D01*
X35337017Y-35787510D01*
X35311585Y-35882425D01*
X35299500Y-35927525D01*
X33283100Y-35927525D01*
X33283100Y-29120629D01*
X33302007Y-29062438D01*
X33351507Y-29026474D01*
X33407722Y-29025003D01*
X33461825Y-29039500D01*
G37*
%TD.AperFunction*%
%TA.AperFunction,Conductor*%
G36*
X21506001Y-30894083D02*
G01*
X23806156Y-33194238D01*
X25989237Y-35377319D01*
X26017014Y-35431836D01*
X26007443Y-35492268D01*
X25964178Y-35535533D01*
X25904721Y-35544949D01*
X25904709Y-35545047D01*
X25904379Y-35545003D01*
X25903746Y-35545104D01*
X25901472Y-35544620D01*
X25898275Y-35544200D01*
X25753325Y-35544200D01*
X25715259Y-35554400D01*
X25613310Y-35581717D01*
X25487789Y-35654187D01*
X25385287Y-35756689D01*
X25312817Y-35882210D01*
X25275300Y-36022225D01*
X25275300Y-36108510D01*
X25256393Y-36166701D01*
X25246304Y-36178514D01*
X24652714Y-36772104D01*
X24598197Y-36799881D01*
X24582710Y-36801100D01*
X22064680Y-36801100D01*
X22006489Y-36782193D01*
X21970525Y-36732693D01*
X21969054Y-36676476D01*
X21970789Y-36670000D01*
X21986900Y-36609875D01*
X21986900Y-36464925D01*
X21949384Y-36324915D01*
X21949382Y-36324912D01*
X21949382Y-36324910D01*
X21876912Y-36199389D01*
X21876910Y-36199387D01*
X21876909Y-36199385D01*
X21774415Y-36096891D01*
X21774412Y-36096889D01*
X21774410Y-36096887D01*
X21648888Y-36024417D01*
X21648889Y-36024417D01*
X21615368Y-36015435D01*
X21508875Y-35986900D01*
X21508874Y-35986900D01*
X21436000Y-35986900D01*
X21377809Y-35967993D01*
X21341845Y-35918493D01*
X21337000Y-35887900D01*
X21337000Y-30964089D01*
X21355907Y-30905898D01*
X21405407Y-30869934D01*
X21466593Y-30869934D01*
X21506001Y-30894083D01*
G37*
%TD.AperFunction*%
%TA.AperFunction,Conductor*%
G36*
X30061801Y-13726107D02*
G01*
X30073614Y-13736196D01*
X32992188Y-16654770D01*
X33054218Y-16690583D01*
X33074850Y-16708678D01*
X33075803Y-16707726D01*
X33078873Y-16710796D01*
X33080173Y-16713347D01*
X33083263Y-16716058D01*
X33084347Y-16717471D01*
X33082856Y-16718614D01*
X33106650Y-16765313D01*
X33097079Y-16825745D01*
X33053814Y-16869010D01*
X33008869Y-16879800D01*
X30134556Y-16879800D01*
X30045412Y-16903686D01*
X30045411Y-16903686D01*
X30045409Y-16903687D01*
X29965489Y-16949829D01*
X29965487Y-16949831D01*
X29304013Y-17611304D01*
X29249497Y-17639081D01*
X29234010Y-17640300D01*
X27162589Y-17640300D01*
X27104398Y-17621393D01*
X27092585Y-17611304D01*
X26845299Y-17364018D01*
X26557412Y-17076130D01*
X26477488Y-17029986D01*
X26388344Y-17006100D01*
X24756056Y-17006100D01*
X24734195Y-17011957D01*
X24712334Y-17017815D01*
X24712333Y-17017814D01*
X24666915Y-17029984D01*
X24627078Y-17052984D01*
X24586988Y-17076130D01*
X20706030Y-20957088D01*
X20659886Y-21037012D01*
X20637650Y-21120000D01*
X20636000Y-21126157D01*
X20636000Y-33841713D01*
X20617093Y-33899904D01*
X20567593Y-33935868D01*
X20511377Y-33937339D01*
X20418675Y-33912500D01*
X20273725Y-33912500D01*
X20211990Y-33929041D01*
X20133710Y-33950017D01*
X20008189Y-34022487D01*
X19905687Y-34124989D01*
X19833217Y-34250510D01*
X19795700Y-34390525D01*
X19795700Y-34476810D01*
X19776793Y-34535001D01*
X19766704Y-34546814D01*
X19276714Y-35036804D01*
X19222197Y-35064581D01*
X19206710Y-35065800D01*
X17038200Y-35065800D01*
X16980009Y-35046893D01*
X16944045Y-34997393D01*
X16939200Y-34966800D01*
X16939200Y-34659257D01*
X16934007Y-34639876D01*
X16915314Y-34570112D01*
X16907231Y-34556112D01*
X16903065Y-34548897D01*
X16885122Y-34517818D01*
X16869170Y-34490188D01*
X15217112Y-32838130D01*
X15137188Y-32791986D01*
X15048044Y-32768100D01*
X15048042Y-32768100D01*
X14630032Y-32768100D01*
X14571841Y-32749193D01*
X14560029Y-32739104D01*
X14499015Y-32678091D01*
X14499010Y-32678087D01*
X14420351Y-32632673D01*
X14379410Y-32587203D01*
X14373014Y-32526353D01*
X14399845Y-32476935D01*
X15681185Y-31195596D01*
X15735702Y-31167819D01*
X15751189Y-31166600D01*
X16877168Y-31166600D01*
X16935359Y-31185507D01*
X16947171Y-31195596D01*
X17008184Y-31256608D01*
X17008189Y-31256612D01*
X17133711Y-31329082D01*
X17133712Y-31329082D01*
X17133715Y-31329084D01*
X17273725Y-31366600D01*
X17273726Y-31366600D01*
X17418674Y-31366600D01*
X17418675Y-31366600D01*
X17558685Y-31329084D01*
X17558687Y-31329082D01*
X17558689Y-31329082D01*
X17684210Y-31256612D01*
X17684210Y-31256611D01*
X17684215Y-31256609D01*
X17786709Y-31154115D01*
X17797522Y-31135386D01*
X17859182Y-31028589D01*
X17859182Y-31028587D01*
X17859184Y-31028585D01*
X17896700Y-30888575D01*
X17896700Y-30743625D01*
X17859184Y-30603615D01*
X17859182Y-30603612D01*
X17859182Y-30603610D01*
X17786712Y-30478089D01*
X17786710Y-30478087D01*
X17786709Y-30478085D01*
X17684215Y-30375591D01*
X17684212Y-30375589D01*
X17684210Y-30375587D01*
X17558688Y-30303117D01*
X17558689Y-30303117D01*
X17468370Y-30278916D01*
X17418675Y-30265600D01*
X17273725Y-30265600D01*
X17224030Y-30278916D01*
X17133710Y-30303117D01*
X17008189Y-30375587D01*
X17008184Y-30375591D01*
X16947171Y-30436604D01*
X16892654Y-30464381D01*
X16877168Y-30465600D01*
X15518856Y-30465600D01*
X15436333Y-30487712D01*
X15436331Y-30487712D01*
X15429717Y-30489484D01*
X15429709Y-30489487D01*
X15349790Y-30535629D01*
X12552204Y-33333214D01*
X12497687Y-33360991D01*
X12437255Y-33351420D01*
X12393990Y-33308155D01*
X12383200Y-33263210D01*
X12383200Y-32761789D01*
X12402107Y-32703598D01*
X12412190Y-32691791D01*
X12891670Y-32212312D01*
X12937814Y-32132388D01*
X12947430Y-32096500D01*
X12961700Y-32043244D01*
X12961700Y-27627525D01*
X14374500Y-27627525D01*
X14374500Y-27772475D01*
X14397815Y-27859487D01*
X14412017Y-27912489D01*
X14484487Y-28038010D01*
X14484489Y-28038012D01*
X14484491Y-28038015D01*
X14586985Y-28140509D01*
X14586987Y-28140510D01*
X14586989Y-28140512D01*
X14712511Y-28212982D01*
X14712512Y-28212982D01*
X14712515Y-28212984D01*
X14852525Y-28250500D01*
X14852526Y-28250500D01*
X14997474Y-28250500D01*
X14997475Y-28250500D01*
X15137485Y-28212984D01*
X15137487Y-28212982D01*
X15137489Y-28212982D01*
X15263010Y-28140512D01*
X15263010Y-28140511D01*
X15263015Y-28140509D01*
X15365509Y-28038015D01*
X15409403Y-27961989D01*
X15437982Y-27912489D01*
X15437982Y-27912487D01*
X15437984Y-27912485D01*
X15475500Y-27772475D01*
X15475500Y-27627525D01*
X15437984Y-27487515D01*
X15437982Y-27487512D01*
X15437982Y-27487510D01*
X15365512Y-27361989D01*
X15365510Y-27361987D01*
X15365509Y-27361985D01*
X15263015Y-27259491D01*
X15263012Y-27259489D01*
X15263010Y-27259487D01*
X15137488Y-27187017D01*
X15137489Y-27187017D01*
X15107896Y-27179087D01*
X14997475Y-27149500D01*
X14852525Y-27149500D01*
X14790790Y-27166041D01*
X14712510Y-27187017D01*
X14586989Y-27259487D01*
X14484487Y-27361989D01*
X14412017Y-27487510D01*
X14412016Y-27487515D01*
X14374500Y-27627525D01*
X12961700Y-27627525D01*
X12961700Y-24998389D01*
X12980607Y-24940198D01*
X12990690Y-24928391D01*
X15781556Y-22137525D01*
X17087000Y-22137525D01*
X17087000Y-22282475D01*
X17114634Y-22385604D01*
X17124517Y-22422489D01*
X17196987Y-22548010D01*
X17196989Y-22548012D01*
X17196991Y-22548015D01*
X17299485Y-22650509D01*
X17299487Y-22650510D01*
X17299489Y-22650512D01*
X17425011Y-22722982D01*
X17425012Y-22722982D01*
X17425015Y-22722984D01*
X17565025Y-22760500D01*
X17565026Y-22760500D01*
X17709974Y-22760500D01*
X17709975Y-22760500D01*
X17849985Y-22722984D01*
X17849987Y-22722982D01*
X17849989Y-22722982D01*
X17975510Y-22650512D01*
X17975510Y-22650511D01*
X17975515Y-22650509D01*
X18078009Y-22548015D01*
X18102512Y-22505575D01*
X18150482Y-22422489D01*
X18150482Y-22422487D01*
X18150484Y-22422485D01*
X18188000Y-22282475D01*
X18188000Y-22137525D01*
X18150484Y-21997515D01*
X18150482Y-21997512D01*
X18150482Y-21997510D01*
X18078012Y-21871989D01*
X18078010Y-21871987D01*
X18078009Y-21871985D01*
X17975515Y-21769491D01*
X17975512Y-21769489D01*
X17975510Y-21769487D01*
X17849988Y-21697017D01*
X17849989Y-21697017D01*
X17750941Y-21670477D01*
X17709975Y-21659500D01*
X17565025Y-21659500D01*
X17524059Y-21670477D01*
X17425010Y-21697017D01*
X17299489Y-21769487D01*
X17196987Y-21871989D01*
X17124517Y-21997510D01*
X17113531Y-22038512D01*
X17087000Y-22137525D01*
X15781556Y-22137525D01*
X20194670Y-17724412D01*
X20240814Y-17644488D01*
X20264700Y-17555343D01*
X20264700Y-17463056D01*
X20264700Y-15743031D01*
X20283607Y-15684840D01*
X20293690Y-15673033D01*
X20354709Y-15612015D01*
X20362358Y-15598766D01*
X20427182Y-15486489D01*
X20427182Y-15486487D01*
X20427184Y-15486485D01*
X20464700Y-15346475D01*
X20464700Y-15201525D01*
X20427184Y-15061515D01*
X20427182Y-15061512D01*
X20427182Y-15061510D01*
X20354712Y-14935989D01*
X20354710Y-14935987D01*
X20354709Y-14935985D01*
X20252215Y-14833491D01*
X20252212Y-14833489D01*
X20252210Y-14833487D01*
X20126688Y-14761017D01*
X20126689Y-14761017D01*
X20097096Y-14753087D01*
X19986675Y-14723500D01*
X19852100Y-14723500D01*
X19793909Y-14704593D01*
X19757945Y-14655093D01*
X19753100Y-14624500D01*
X19753100Y-14613825D01*
X19744224Y-14580700D01*
X19715584Y-14473815D01*
X19715582Y-14473812D01*
X19715582Y-14473810D01*
X19643112Y-14348289D01*
X19643110Y-14348287D01*
X19643109Y-14348285D01*
X19540615Y-14245791D01*
X19540612Y-14245789D01*
X19540610Y-14245787D01*
X19492128Y-14217796D01*
X19451187Y-14172327D01*
X19444791Y-14111476D01*
X19471625Y-14062056D01*
X19797486Y-13736196D01*
X19852002Y-13708419D01*
X19867489Y-13707200D01*
X30003610Y-13707200D01*
X30061801Y-13726107D01*
G37*
%TD.AperFunction*%
%TA.AperFunction,Conductor*%
G36*
X19328554Y-15341869D02*
G01*
X19371819Y-15385134D01*
X19379235Y-15404455D01*
X19401215Y-15486484D01*
X19401217Y-15486488D01*
X19473687Y-15612010D01*
X19473689Y-15612012D01*
X19473691Y-15612015D01*
X19534705Y-15673029D01*
X19562481Y-15727544D01*
X19563700Y-15743031D01*
X19563700Y-17323010D01*
X19544793Y-17381201D01*
X19534704Y-17393014D01*
X12330730Y-24596988D01*
X12284586Y-24676912D01*
X12260700Y-24766057D01*
X12260700Y-31228083D01*
X12241793Y-31286274D01*
X12192293Y-31322238D01*
X12131107Y-31322238D01*
X12081607Y-31286274D01*
X12075964Y-31277583D01*
X12048312Y-31229689D01*
X12048310Y-31229687D01*
X12048309Y-31229685D01*
X11945815Y-31127191D01*
X11945812Y-31127189D01*
X11945810Y-31127187D01*
X11820288Y-31054717D01*
X11820289Y-31054717D01*
X11790696Y-31046787D01*
X11680275Y-31017200D01*
X11535325Y-31017200D01*
X11492836Y-31028585D01*
X11395310Y-31054717D01*
X11269789Y-31127187D01*
X11167287Y-31229689D01*
X11094818Y-31355209D01*
X11094816Y-31355213D01*
X11094816Y-31355215D01*
X11074644Y-31430500D01*
X11056738Y-31497324D01*
X11023413Y-31548638D01*
X10966292Y-31570564D01*
X10961111Y-31570700D01*
X8346390Y-31570700D01*
X8288199Y-31551793D01*
X8276387Y-31541704D01*
X7916214Y-31181532D01*
X7916212Y-31181530D01*
X7836288Y-31135386D01*
X7747144Y-31111500D01*
X3752056Y-31111500D01*
X3728576Y-31117791D01*
X3712962Y-31121975D01*
X3651861Y-31118772D01*
X3604311Y-31080267D01*
X3588476Y-31021166D01*
X3610403Y-30964045D01*
X3617326Y-30956354D01*
X19213607Y-15360073D01*
X19268122Y-15332298D01*
X19328554Y-15341869D01*
G37*
%TD.AperFunction*%
%TA.AperFunction,Conductor*%
G36*
X49713301Y-24137907D02*
G01*
X49725114Y-24147996D01*
X55602331Y-30025212D01*
X55602330Y-30025212D01*
X55667587Y-30090468D01*
X55667589Y-30090470D01*
X55724238Y-30123177D01*
X55765178Y-30168647D01*
X55771573Y-30229497D01*
X55744741Y-30278916D01*
X55660588Y-30363069D01*
X55558766Y-30503214D01*
X55480127Y-30657553D01*
X55478977Y-30661095D01*
X55443011Y-30710594D01*
X55384823Y-30729500D01*
X49744690Y-30729500D01*
X49686499Y-30710593D01*
X49674686Y-30700504D01*
X43262186Y-24288004D01*
X43234409Y-24233487D01*
X43243980Y-24173055D01*
X43287245Y-24129790D01*
X43332190Y-24119000D01*
X49655110Y-24119000D01*
X49713301Y-24137907D01*
G37*
%TD.AperFunction*%
%TA.AperFunction,Conductor*%
G36*
X32276101Y-21365707D02*
G01*
X32312065Y-21415207D01*
X32312065Y-21476393D01*
X32287914Y-21515804D01*
X25705541Y-28098175D01*
X25651024Y-28125952D01*
X25590592Y-28116381D01*
X25549801Y-28077672D01*
X25483009Y-27961985D01*
X25380515Y-27859491D01*
X25380512Y-27859489D01*
X25380510Y-27859487D01*
X25254988Y-27787017D01*
X25254989Y-27787017D01*
X25200714Y-27772474D01*
X25114975Y-27749500D01*
X24970025Y-27749500D01*
X24913366Y-27764682D01*
X24830010Y-27787017D01*
X24704489Y-27859487D01*
X24601987Y-27961989D01*
X24529517Y-28087510D01*
X24512509Y-28150985D01*
X24492000Y-28227525D01*
X24492000Y-28372475D01*
X24521587Y-28482896D01*
X24529517Y-28512489D01*
X24601987Y-28638010D01*
X24601989Y-28638012D01*
X24601991Y-28638015D01*
X24704485Y-28740509D01*
X24704487Y-28740510D01*
X24704489Y-28740512D01*
X24820172Y-28807302D01*
X24861113Y-28852771D01*
X24867509Y-28913621D01*
X24840676Y-28963041D01*
X24599315Y-29204403D01*
X24544798Y-29232181D01*
X24529311Y-29233400D01*
X24523125Y-29233400D01*
X24485738Y-29243418D01*
X24383110Y-29270917D01*
X24257589Y-29343387D01*
X24257584Y-29343391D01*
X24196766Y-29404209D01*
X24142249Y-29431986D01*
X24081817Y-29422414D01*
X24077272Y-29419946D01*
X23988885Y-29368916D01*
X23848875Y-29331400D01*
X23848874Y-29331400D01*
X23762590Y-29331400D01*
X23704399Y-29312493D01*
X23692586Y-29302404D01*
X23662596Y-29272414D01*
X23634819Y-29217897D01*
X23633600Y-29202410D01*
X23633600Y-27883303D01*
X23652507Y-27825112D01*
X23702007Y-27789148D01*
X23758221Y-27787676D01*
X23812425Y-27802200D01*
X23812427Y-27802200D01*
X23957374Y-27802200D01*
X23957375Y-27802200D01*
X24097385Y-27764684D01*
X24097387Y-27764682D01*
X24097389Y-27764682D01*
X24222910Y-27692212D01*
X24222910Y-27692211D01*
X24222915Y-27692209D01*
X24325409Y-27589715D01*
X24351443Y-27544623D01*
X24397882Y-27464189D01*
X24397882Y-27464187D01*
X24397884Y-27464185D01*
X24435400Y-27324175D01*
X24435400Y-27237890D01*
X24454307Y-27179699D01*
X24464396Y-27167886D01*
X30256486Y-21375796D01*
X30311003Y-21348019D01*
X30326490Y-21346800D01*
X32217910Y-21346800D01*
X32276101Y-21365707D01*
G37*
%TD.AperFunction*%
%TA.AperFunction,Conductor*%
G36*
X50216601Y-21365707D02*
G01*
X50228414Y-21375796D01*
X55067831Y-26215212D01*
X55067830Y-26215212D01*
X55133087Y-26280468D01*
X55133089Y-26280470D01*
X55174506Y-26304382D01*
X55213012Y-26326614D01*
X55302156Y-26350500D01*
X55302158Y-26350500D01*
X55308590Y-26351347D01*
X55308365Y-26353055D01*
X55358691Y-26369407D01*
X55394655Y-26418907D01*
X55399500Y-26449500D01*
X55399500Y-26874672D01*
X55399977Y-26879518D01*
X55397886Y-26879723D01*
X55391682Y-26932230D01*
X55350158Y-26977168D01*
X55301768Y-26989800D01*
X54254290Y-26989800D01*
X54196099Y-26970893D01*
X54184286Y-26960804D01*
X52264892Y-25041410D01*
X50309812Y-23086330D01*
X50229888Y-23040186D01*
X50140744Y-23016300D01*
X50140742Y-23016300D01*
X43862030Y-23016300D01*
X43803839Y-22997393D01*
X43767875Y-22947893D01*
X43766403Y-22891677D01*
X43766733Y-22890445D01*
X43780900Y-22837575D01*
X43780900Y-22692625D01*
X43743384Y-22552615D01*
X43743382Y-22552612D01*
X43743382Y-22552610D01*
X43670912Y-22427089D01*
X43670910Y-22427087D01*
X43670909Y-22427085D01*
X43568415Y-22324591D01*
X43568412Y-22324589D01*
X43568410Y-22324587D01*
X43442888Y-22252117D01*
X43442889Y-22252117D01*
X43389752Y-22237879D01*
X43302875Y-22214600D01*
X43157925Y-22214600D01*
X43096190Y-22231141D01*
X43017910Y-22252117D01*
X42892389Y-22324587D01*
X42892384Y-22324591D01*
X42831371Y-22385604D01*
X42776854Y-22413381D01*
X42761368Y-22414600D01*
X37811828Y-22414600D01*
X37753637Y-22395693D01*
X37717673Y-22346193D01*
X37716201Y-22341224D01*
X37683884Y-22220615D01*
X37683881Y-22220609D01*
X37611412Y-22095089D01*
X37611410Y-22095087D01*
X37611409Y-22095085D01*
X37508915Y-21992591D01*
X37508912Y-21992589D01*
X37508910Y-21992587D01*
X37383388Y-21920117D01*
X37383384Y-21920115D01*
X37362312Y-21914469D01*
X37310998Y-21881145D01*
X37289072Y-21824023D01*
X37292310Y-21793219D01*
X37298670Y-21769487D01*
X37325200Y-21670475D01*
X37325200Y-21525525D01*
X37310703Y-21471422D01*
X37313905Y-21410322D01*
X37352411Y-21362772D01*
X37406330Y-21346800D01*
X50158410Y-21346800D01*
X50216601Y-21365707D01*
G37*
%TD.AperFunction*%
%TA.AperFunction,Conductor*%
G36*
X36228207Y-21767707D02*
G01*
X36257802Y-21805252D01*
X36258471Y-21804866D01*
X36261135Y-21809480D01*
X36261484Y-21809923D01*
X36261720Y-21810494D01*
X36334187Y-21936010D01*
X36334189Y-21936012D01*
X36334191Y-21936015D01*
X36436685Y-22038509D01*
X36436687Y-22038510D01*
X36436689Y-22038512D01*
X36562211Y-22110982D01*
X36562212Y-22110982D01*
X36562215Y-22110984D01*
X36583286Y-22116630D01*
X36634599Y-22149952D01*
X36656527Y-22207073D01*
X36653289Y-22237879D01*
X36620400Y-22360625D01*
X36620400Y-22505575D01*
X36634679Y-22558865D01*
X36657917Y-22645589D01*
X36730387Y-22771110D01*
X36730389Y-22771112D01*
X36730391Y-22771115D01*
X36734774Y-22775498D01*
X36762550Y-22830013D01*
X36752979Y-22890445D01*
X36709714Y-22933710D01*
X36664769Y-22944500D01*
X32687956Y-22944500D01*
X32663177Y-22951139D01*
X32646048Y-22955729D01*
X32584947Y-22952526D01*
X32537397Y-22914021D01*
X32534710Y-22909636D01*
X32474809Y-22805885D01*
X32372315Y-22703391D01*
X32372312Y-22703389D01*
X32372310Y-22703387D01*
X32306140Y-22665184D01*
X32265199Y-22619715D01*
X32258803Y-22558865D01*
X32285637Y-22509444D01*
X33017287Y-21777796D01*
X33071803Y-21750019D01*
X33087290Y-21748800D01*
X36170016Y-21748800D01*
X36228207Y-21767707D01*
G37*
%TD.AperFunction*%
%TA.AperFunction,Conductor*%
G36*
X40277237Y-16702986D02*
G01*
X40320502Y-16746251D01*
X40330073Y-16806683D01*
X40327919Y-16816817D01*
X40322800Y-16835922D01*
X40322800Y-16835925D01*
X40322800Y-16980875D01*
X40337701Y-17036485D01*
X40360317Y-17120889D01*
X40432787Y-17246410D01*
X40432789Y-17246412D01*
X40432791Y-17246415D01*
X40535285Y-17348909D01*
X40535287Y-17348910D01*
X40535289Y-17348912D01*
X40660811Y-17421382D01*
X40660812Y-17421382D01*
X40660815Y-17421384D01*
X40800825Y-17458900D01*
X40800826Y-17458900D01*
X40945774Y-17458900D01*
X40945775Y-17458900D01*
X41085785Y-17421384D01*
X41085787Y-17421382D01*
X41085789Y-17421382D01*
X41211310Y-17348912D01*
X41211310Y-17348911D01*
X41211315Y-17348909D01*
X41241822Y-17318402D01*
X41272329Y-17287896D01*
X41326846Y-17260119D01*
X41342332Y-17258900D01*
X43306510Y-17258900D01*
X43364701Y-17277807D01*
X43376514Y-17287896D01*
X44822904Y-18734286D01*
X44850681Y-18788803D01*
X44851900Y-18804290D01*
X44851900Y-18890575D01*
X44871999Y-18965585D01*
X44889417Y-19030589D01*
X44961887Y-19156110D01*
X44961889Y-19156112D01*
X44961891Y-19156115D01*
X45064385Y-19258609D01*
X45131163Y-19297163D01*
X45172104Y-19342633D01*
X45178500Y-19403483D01*
X45147907Y-19456471D01*
X45092011Y-19481358D01*
X45081663Y-19481900D01*
X37788730Y-19481900D01*
X37730539Y-19462993D01*
X37694575Y-19413493D01*
X37693103Y-19357277D01*
X37698348Y-19337702D01*
X37707600Y-19303175D01*
X37707600Y-19216889D01*
X37726507Y-19158698D01*
X37736590Y-19146891D01*
X40162290Y-16721190D01*
X40216805Y-16693415D01*
X40277237Y-16702986D01*
G37*
%TD.AperFunction*%
%TD*%
M02*
