M48
; DRILL file KiCad 10.0.5 date 2026-08-07T10:43:16
; FORMAT={-:-/ absolute / metric / decimal}
; #@! TF.CreationDate,2026-08-07T10:43:16+02:00
; #@! TF.GenerationSoftware,Kicad,Pcbnew,10.0.5
; #@! TF.FileFunction,MixedPlating,1,2
FMAT,2
METRIC
; #@! TA.AperFunction,Plated,PTH,ViaDrill
T1C0.300
; #@! TA.AperFunction,Plated,PTH,ComponentDrill
T2C0.300
; #@! TA.AperFunction,Plated,PTH,ComponentDrill
T3C0.600
; #@! TA.AperFunction,Plated,PTH,ComponentDrill
T4C1.000
; #@! TA.AperFunction,NonPlated,NPTH,ComponentDrill
T5C0.650
; #@! TA.AperFunction,NonPlated,NPTH,ComponentDrill
T6C3.200
%
G90
G05
T1
X5.95Y-36.0
X5.95Y-48.0
X9.0Y-60.0
X9.759Y-4.047
X13.323Y-36.259
X13.756Y-9.016
X14.018Y-8.122
X15.35Y-35.65
X15.946Y-36.377
X16.157Y-42.631
X16.912Y-18.538
X16.912Y-26.805
X17.75Y-37.25
X19.337Y-24.956
X20.116Y-38.624
X20.265Y-59.926
X24.95Y-22.0
X27.709Y-37.155
X28.238Y-73.367
X28.285Y-54.525
X31.027Y-93.153
X37.47Y-16.841
X43.05Y-23.95
X43.05Y-34.35
X43.05Y-47.15
X43.05Y-57.65
X43.5Y-69.85
X43.5Y-78.15
X44.95Y-24.0
X44.95Y-30.0
X45.569Y-87.724
X45.75Y-64.25
X46.0Y-74.0
X46.95Y-65.0
X47.15Y-62.85
X48.456Y-83.683
X48.55Y-60.85
X49.45Y-62.85
X52.95Y-24.0
X53.022Y-37.48
X53.022Y-59.119
X54.572Y-36.739
X55.05Y-67.95
X55.05Y-75.45
X55.085Y-39.431
X57.48Y-59.05
X58.35Y-59.25
X59.15Y-72.05
X59.35Y-65.05
X60.265Y-69.539
X61.05Y-64.95
X62.95Y-65.0
X63.136Y-72.204
X63.883Y-66.754
X64.038Y-86.838
X65.303Y-74.9
X65.55Y-6.35
X67.017Y-19.055
X69.75Y-35.65
X69.754Y-30.843
X70.45Y-9.65
X72.983Y-54.42
X77.05Y-66.05
X77.1Y-74.4
X77.649Y-72.055
X78.435Y-76.072
X78.95Y-71.764
X78.95Y-86.838
X78.95Y-65.0
X79.099Y-73.555
X79.685Y-74.822
X80.05Y-72.45
X80.85Y-74.75
X81.05Y-85.95
X84.325Y-39.694
X84.462Y-46.949
X86.25Y-35.865
X86.779Y-74.441
X87.251Y-76.012
X87.547Y-46.21
X87.571Y-40.595
X88.195Y-39.689
X88.841Y-46.039
X88.843Y-42.796
X88.843Y-63.261
X88.843Y-83.891
X88.877Y-40.378
X89.07Y-50.445
X89.32Y-53.195
X89.47Y-51.945
X89.95Y-89.95
X90.27Y-46.645
X90.918Y-42.519
X91.983Y-37.708
X92.795Y-41.68
X92.795Y-43.205
X92.795Y-44.73
X93.866Y-46.593
X94.32Y-41.68
X94.32Y-43.205
X94.32Y-44.73
X95.134Y-78.565
X95.845Y-41.68
X95.845Y-43.205
X95.845Y-44.73
X98.32Y-38.345
X100.111Y-78.261
X101.45Y-76.15
X101.45Y-73.833
X101.467Y-45.878
X101.691Y-48.526
X102.75Y-74.183
X102.75Y-78.383
X104.525Y-36.148
X104.6Y-76.0
X105.274Y-38.71
X107.633Y-51.419
X108.426Y-60.667
X108.613Y-45.411
X108.779Y-77.997
X125.65Y-67.35
X125.979Y-30.097
X126.95Y-68.0
X127.36Y-26.191
X132.75Y-62.95
X132.975Y-42.747
T2
X92.795Y-42.442
X92.795Y-43.968
X93.557Y-41.68
X93.557Y-43.205
X93.557Y-44.73
X94.32Y-42.442
X94.32Y-43.968
X95.082Y-41.68
X95.082Y-43.205
X95.082Y-44.73
X95.845Y-42.442
X95.845Y-43.968
T4
X48.0Y-92.725
X48.0Y-95.265
X62.0Y-92.725
X62.0Y-95.265
X76.0Y-91.125
X76.0Y-93.665
X76.0Y-96.205
X90.0Y-91.125
X90.0Y-93.665
X90.0Y-96.205
X114.0Y-83.505
X114.0Y-86.045
X114.0Y-88.585
X114.0Y-91.125
X114.0Y-93.665
X114.0Y-96.205
X134.0Y-18.19
X134.0Y-20.73
X134.0Y-23.27
X134.0Y-25.81
X134.0Y-40.19
X134.0Y-42.73
X134.0Y-45.27
X134.0Y-47.81
X134.0Y-62.92
X134.0Y-65.46
X134.0Y-68.0
X134.0Y-70.54
X134.0Y-73.08
T5
X12.84Y-5.11
X12.84Y-10.89
T6
X6.0Y-6.0
X6.0Y-94.0
X134.0Y-6.0
X134.0Y-94.0
T3
X11.76Y-3.68G85X12.86Y-3.68
G05
X11.76Y-12.32G85X12.86Y-12.32
G05
X16.19Y-3.68G85X16.79Y-3.68
G05
X16.19Y-12.32G85X16.79Y-12.32
G05
M30
