%TF.GenerationSoftware,KiCad,Pcbnew,10.0.5*%
%TF.CreationDate,2026-08-07T15:17:58+02:00*%
%TF.ProjectId,wisp,77697370-2e6b-4696-9361-645f70636258,rev?*%
%TF.SameCoordinates,Original*%
%TF.FileFunction,Other,User*%
%FSLAX46Y46*%
G04 Gerber Fmt 4.6, Leading zero omitted, Abs format (unit mm)*
G04 Created by KiCad (PCBNEW 10.0.5) date 2026-08-07 15:17:58*
%MOMM*%
%LPD*%
G01*
G04 APERTURE LIST*
%ADD10C,0.050000*%
G04 APERTURE END LIST*
%TO.C,Q4*%
D10*
X18070000Y-68500000D02*
X18070000Y-69610000D01*
X18070000Y-69610000D02*
X19100000Y-69610000D01*
X18070000Y-70390000D02*
X18070000Y-71500000D01*
X18070000Y-71500000D02*
X19100000Y-71500000D01*
X19100000Y-68300000D02*
X19100000Y-68500000D01*
X19100000Y-68500000D02*
X18070000Y-68500000D01*
X19100000Y-69610000D02*
X19100000Y-70390000D01*
X19100000Y-70390000D02*
X18070000Y-70390000D01*
X19100000Y-71500000D02*
X19100000Y-71700000D01*
X19100000Y-71700000D02*
X20900000Y-71700000D01*
X20900000Y-68300000D02*
X19100000Y-68300000D01*
X20900000Y-69450000D02*
X20900000Y-68300000D01*
X20900000Y-70550000D02*
X21930000Y-70550000D01*
X20900000Y-71700000D02*
X20900000Y-70550000D01*
X21930000Y-69450000D02*
X20900000Y-69450000D01*
X21930000Y-70550000D02*
X21930000Y-69450000D01*
%TO.C,C2*%
X28300000Y-30020000D02*
X31700000Y-30020000D01*
X31700000Y-31980000D01*
X28300000Y-31980000D01*
X28300000Y-30020000D01*
%TO.C,R11*%
X64320000Y-37050000D02*
X67680000Y-37050000D01*
X67680000Y-38950000D01*
X64320000Y-38950000D01*
X64320000Y-37050000D01*
%TO.C,R8*%
X32320000Y-49050000D02*
X35680000Y-49050000D01*
X35680000Y-50950000D01*
X32320000Y-50950000D01*
X32320000Y-49050000D01*
%TO.C,C1*%
X28300000Y-22020000D02*
X31700000Y-22020000D01*
X31700000Y-23980000D01*
X28300000Y-23980000D01*
X28300000Y-22020000D01*
%TO.C,D5*%
X29200000Y-56600000D02*
X29200000Y-55400000D01*
X29200000Y-56600000D02*
X30800000Y-56600000D01*
X30800000Y-55400000D02*
X29200000Y-55400000D01*
X30800000Y-56600000D02*
X30800000Y-55400000D01*
%TO.C,C10*%
X56300000Y-43020000D02*
X59700000Y-43020000D01*
X59700000Y-44980000D01*
X56300000Y-44980000D01*
X56300000Y-43020000D01*
%TO.C,Q2*%
X20070000Y-29500000D02*
X20070000Y-30610000D01*
X20070000Y-30610000D02*
X21100000Y-30610000D01*
X20070000Y-31390000D02*
X20070000Y-32500000D01*
X20070000Y-32500000D02*
X21100000Y-32500000D01*
X21100000Y-29300000D02*
X21100000Y-29500000D01*
X21100000Y-29500000D02*
X20070000Y-29500000D01*
X21100000Y-30610000D02*
X21100000Y-31390000D01*
X21100000Y-31390000D02*
X20070000Y-31390000D01*
X21100000Y-32500000D02*
X21100000Y-32700000D01*
X21100000Y-32700000D02*
X22900000Y-32700000D01*
X22900000Y-29300000D02*
X21100000Y-29300000D01*
X22900000Y-30450000D02*
X22900000Y-29300000D01*
X22900000Y-31550000D02*
X23930000Y-31550000D01*
X22900000Y-32700000D02*
X22900000Y-31550000D01*
X23930000Y-30450000D02*
X22900000Y-30450000D01*
X23930000Y-31550000D02*
X23930000Y-30450000D01*
%TO.C,C11*%
X64300000Y-25020000D02*
X67700000Y-25020000D01*
X67700000Y-26980000D01*
X64300000Y-26980000D01*
X64300000Y-25020000D01*
%TO.C,R14*%
X40320000Y-55050000D02*
X43680000Y-55050000D01*
X43680000Y-56950000D01*
X40320000Y-56950000D01*
X40320000Y-55050000D01*
%TO.C,R13*%
X16320000Y-55050000D02*
X19680000Y-55050000D01*
X19680000Y-56950000D01*
X16320000Y-56950000D01*
X16320000Y-55050000D01*
%TO.C,R1*%
X24320000Y-22050000D02*
X27680000Y-22050000D01*
X27680000Y-23950000D01*
X24320000Y-23950000D01*
X24320000Y-22050000D01*
%TO.C,U1*%
X10300000Y-22000000D02*
X10300000Y-32000000D01*
X10300000Y-32000000D02*
X11800000Y-32000000D01*
X11800000Y-21800000D02*
X11800000Y-22000000D01*
X11800000Y-22000000D02*
X10300000Y-22000000D01*
X11800000Y-32000000D02*
X11800000Y-32200000D01*
X11800000Y-32200000D02*
X16200000Y-32200000D01*
X16200000Y-21800000D02*
X11800000Y-21800000D01*
X16200000Y-22000000D02*
X16200000Y-21800000D01*
X16200000Y-32000000D02*
X17700000Y-32000000D01*
X16200000Y-32200000D02*
X16200000Y-32000000D01*
X17700000Y-22000000D02*
X16200000Y-22000000D01*
X17700000Y-32000000D02*
X17700000Y-22000000D01*
%TO.C,R12*%
X20320000Y-55050000D02*
X23680000Y-55050000D01*
X23680000Y-56950000D01*
X20320000Y-56950000D01*
X20320000Y-55050000D01*
%TO.C,R5*%
X12320000Y-37050000D02*
X15680000Y-37050000D01*
X15680000Y-38950000D01*
X12320000Y-38950000D01*
X12320000Y-37050000D01*
%TO.C,R2*%
X24320000Y-30050000D02*
X27680000Y-30050000D01*
X27680000Y-31950000D01*
X24320000Y-31950000D01*
X24320000Y-30050000D01*
%TO.C,C3*%
X28300000Y-9020000D02*
X31700000Y-9020000D01*
X31700000Y-10980000D01*
X28300000Y-10980000D01*
X28300000Y-9020000D01*
%TO.C,D9*%
X55200000Y-56600000D02*
X55200000Y-55400000D01*
X55200000Y-56600000D02*
X56800000Y-56600000D01*
X56800000Y-55400000D02*
X55200000Y-55400000D01*
X56800000Y-56600000D02*
X56800000Y-55400000D01*
%TO.C,D6*%
X37200000Y-56600000D02*
X37200000Y-55400000D01*
X37200000Y-56600000D02*
X38800000Y-56600000D01*
X38800000Y-55400000D02*
X37200000Y-55400000D01*
X38800000Y-56600000D02*
X38800000Y-55400000D01*
%TO.C,D7*%
X45200000Y-56600000D02*
X45200000Y-55400000D01*
X45200000Y-56600000D02*
X46800000Y-56600000D01*
X46800000Y-55400000D02*
X45200000Y-55400000D01*
X46800000Y-56600000D02*
X46800000Y-55400000D01*
%TO.C,D4*%
X15650000Y-61150000D02*
X15650000Y-58850000D01*
X15650000Y-61150000D02*
X20350000Y-61150000D01*
X20350000Y-58850000D02*
X15650000Y-58850000D01*
X20350000Y-61150000D02*
X20350000Y-58850000D01*
%TO.C,C6*%
X28300000Y-16020000D02*
X31700000Y-16020000D01*
X31700000Y-17980000D01*
X28300000Y-17980000D01*
X28300000Y-16020000D01*
%TO.C,D3*%
X65200000Y-22600000D02*
X65200000Y-21400000D01*
X65200000Y-22600000D02*
X66800000Y-22600000D01*
X66800000Y-21400000D02*
X65200000Y-21400000D01*
X66800000Y-22600000D02*
X66800000Y-21400000D01*
%TO.C,C7*%
X18300000Y-9020000D02*
X21700000Y-9020000D01*
X21700000Y-10980000D01*
X18300000Y-10980000D01*
X18300000Y-9020000D01*
%TO.C,R10*%
X64320000Y-33050000D02*
X67680000Y-33050000D01*
X67680000Y-34950000D01*
X64320000Y-34950000D01*
X64320000Y-33050000D01*
%TO.C,C5*%
X40300000Y-16020000D02*
X43700000Y-16020000D01*
X43700000Y-17980000D01*
X40300000Y-17980000D01*
X40300000Y-16020000D01*
%TO.C,Q3*%
X24070000Y-54500000D02*
X24070000Y-55610000D01*
X24070000Y-55610000D02*
X25100000Y-55610000D01*
X24070000Y-56390000D02*
X24070000Y-57500000D01*
X24070000Y-57500000D02*
X25100000Y-57500000D01*
X25100000Y-54300000D02*
X25100000Y-54500000D01*
X25100000Y-54500000D02*
X24070000Y-54500000D01*
X25100000Y-55610000D02*
X25100000Y-56390000D01*
X25100000Y-56390000D02*
X24070000Y-56390000D01*
X25100000Y-57500000D02*
X25100000Y-57700000D01*
X25100000Y-57700000D02*
X26900000Y-57700000D01*
X26900000Y-54300000D02*
X25100000Y-54300000D01*
X26900000Y-55450000D02*
X26900000Y-54300000D01*
X26900000Y-56550000D02*
X27930000Y-56550000D01*
X26900000Y-57700000D02*
X26900000Y-56550000D01*
X27930000Y-55450000D02*
X26900000Y-55450000D01*
X27930000Y-56550000D02*
X27930000Y-55450000D01*
%TO.C,R4*%
X8320000Y-37050000D02*
X11680000Y-37050000D01*
X11680000Y-38950000D01*
X8320000Y-38950000D01*
X8320000Y-37050000D01*
%TO.C,D2*%
X65200000Y-18600000D02*
X65200000Y-17400000D01*
X65200000Y-18600000D02*
X66800000Y-18600000D01*
X66800000Y-17400000D02*
X65200000Y-17400000D01*
X66800000Y-18600000D02*
X66800000Y-17400000D01*
%TO.C,R9*%
X44320000Y-49050000D02*
X47680000Y-49050000D01*
X47680000Y-50950000D01*
X44320000Y-50950000D01*
X44320000Y-49050000D01*
%TO.C,R3*%
X4320000Y-37050000D02*
X7680000Y-37050000D01*
X7680000Y-38950000D01*
X4320000Y-38950000D01*
X4320000Y-37050000D01*
%TO.C,C4*%
X34300000Y-21020000D02*
X37700000Y-21020000D01*
X37700000Y-22980000D01*
X34300000Y-22980000D01*
X34300000Y-21020000D01*
%TO.C,Q1*%
X20070000Y-21500000D02*
X20070000Y-22610000D01*
X20070000Y-22610000D02*
X21100000Y-22610000D01*
X20070000Y-23390000D02*
X20070000Y-24500000D01*
X20070000Y-24500000D02*
X21100000Y-24500000D01*
X21100000Y-21300000D02*
X21100000Y-21500000D01*
X21100000Y-21500000D02*
X20070000Y-21500000D01*
X21100000Y-22610000D02*
X21100000Y-23390000D01*
X21100000Y-23390000D02*
X20070000Y-23390000D01*
X21100000Y-24500000D02*
X21100000Y-24700000D01*
X21100000Y-24700000D02*
X22900000Y-24700000D01*
X22900000Y-21300000D02*
X21100000Y-21300000D01*
X22900000Y-22450000D02*
X22900000Y-21300000D01*
X22900000Y-23550000D02*
X23930000Y-23550000D01*
X22900000Y-24700000D02*
X22900000Y-23550000D01*
X23930000Y-22450000D02*
X22900000Y-22450000D01*
X23930000Y-23550000D02*
X23930000Y-22450000D01*
%TO.C,F1*%
X4720000Y-15870000D02*
X9280000Y-15870000D01*
X9280000Y-18130000D01*
X4720000Y-18130000D01*
X4720000Y-15870000D01*
%TO.C,R6*%
X16320000Y-37050000D02*
X19680000Y-37050000D01*
X19680000Y-38950000D01*
X16320000Y-38950000D01*
X16320000Y-37050000D01*
%TO.C,C8*%
X32300000Y-43020000D02*
X35700000Y-43020000D01*
X35700000Y-44980000D01*
X32300000Y-44980000D01*
X32300000Y-43020000D01*
%TO.C,D10*%
X59200000Y-56600000D02*
X59200000Y-55400000D01*
X59200000Y-56600000D02*
X60800000Y-56600000D01*
X60800000Y-55400000D02*
X59200000Y-55400000D01*
X60800000Y-56600000D02*
X60800000Y-55400000D01*
%TO.C,R7*%
X24320000Y-11050000D02*
X27680000Y-11050000D01*
X27680000Y-12950000D01*
X24320000Y-12950000D01*
X24320000Y-11050000D01*
%TO.C,D8*%
X49200000Y-56600000D02*
X49200000Y-55400000D01*
X49200000Y-56600000D02*
X50800000Y-56600000D01*
X50800000Y-55400000D02*
X49200000Y-55400000D01*
X50800000Y-56600000D02*
X50800000Y-55400000D01*
%TO.C,C9*%
X44300000Y-43020000D02*
X47700000Y-43020000D01*
X47700000Y-44980000D01*
X44300000Y-44980000D01*
X44300000Y-43020000D01*
%TD*%
M02*
