%TF.GenerationSoftware,KiCad,Pcbnew,10.0.5*%
%TF.CreationDate,2026-08-08T18:07:34+02:00*%
%TF.ProjectId,wisp,77697370-2e6b-4696-9361-645f70636258,rev?*%
%TF.SameCoordinates,Original*%
%TF.FileFunction,Drillmap*%
%TF.FilePolarity,Positive*%
%FSLAX45Y45*%
G04 Gerber Fmt 4.5, Leading zero omitted, Abs format (unit mm)*
G04 Created by KiCad (PCBNEW 10.0.5) date 2026-08-08 18:07:34*
%MOMM*%
%LPD*%
G01*
G04 APERTURE LIST*
%ADD10C,0.050000*%
%ADD11C,0.200000*%
%ADD12C,0.100000*%
G04 APERTURE END LIST*
D10*
X0Y0D02*
X6000000Y0D01*
X0Y-8000000D02*
X0Y0D01*
X1800000Y-6050000D02*
X1800000Y-8000000D01*
X1800000Y-8000000D02*
X0Y-8000000D01*
X1950000Y-6200000D02*
X4000000Y-6200000D01*
X1950000Y-8000000D02*
X1950000Y-6200000D01*
X4000000Y-6050000D02*
X1800000Y-6050000D01*
X4000000Y-6200000D02*
X4000000Y-6050000D01*
X4900000Y-6200000D02*
X4900000Y-8000000D01*
X4900000Y-8000000D02*
X1950000Y-8000000D01*
X5050000Y-6200000D02*
X4900000Y-6200000D01*
X5050000Y-8000000D02*
X5050000Y-6200000D01*
X6000000Y0D02*
X6000000Y-8000000D01*
X6000000Y-8000000D02*
X5050000Y-8000000D01*
D11*
D12*
X2700000Y-1516000D02*
X2720000Y-1536000D01*
X2720000Y-1516000D02*
X2700000Y-1536000D01*
X2700000Y-1656000D02*
X2720000Y-1676000D01*
X2720000Y-1656000D02*
X2700000Y-1676000D01*
X2770000Y-1446000D02*
X2790000Y-1466000D01*
X2790000Y-1446000D02*
X2770000Y-1466000D01*
X2770000Y-1586000D02*
X2790000Y-1606000D01*
X2790000Y-1586000D02*
X2770000Y-1606000D01*
X2770000Y-1726000D02*
X2790000Y-1746000D01*
X2790000Y-1726000D02*
X2770000Y-1746000D01*
X2840000Y-1516000D02*
X2860000Y-1536000D01*
X2860000Y-1516000D02*
X2840000Y-1536000D01*
X2840000Y-1656000D02*
X2860000Y-1676000D01*
X2860000Y-1656000D02*
X2840000Y-1676000D01*
X2910000Y-1446000D02*
X2930000Y-1466000D01*
X2930000Y-1446000D02*
X2910000Y-1466000D01*
X2910000Y-1586000D02*
X2930000Y-1606000D01*
X2930000Y-1586000D02*
X2910000Y-1606000D01*
X2910000Y-1726000D02*
X2930000Y-1746000D01*
X2930000Y-1726000D02*
X2910000Y-1746000D01*
X2980000Y-1516000D02*
X3000000Y-1536000D01*
X3000000Y-1516000D02*
X2980000Y-1536000D01*
X2980000Y-1656000D02*
X3000000Y-1676000D01*
X3000000Y-1656000D02*
X2980000Y-1676000D01*
X157570Y-2791590D02*
G75*
G02*
X127570Y-2791590I-15000J0D01*
G01*
X127570Y-2791590D02*
G75*
G02*
X157570Y-2791590I15000J0D01*
G01*
X215000Y-1000000D02*
G75*
G02*
X185000Y-1000000I-15000J0D01*
G01*
X185000Y-1000000D02*
G75*
G02*
X215000Y-1000000I15000J0D01*
G01*
X215000Y-1400000D02*
G75*
G02*
X185000Y-1400000I-15000J0D01*
G01*
X185000Y-1400000D02*
G75*
G02*
X215000Y-1400000I15000J0D01*
G01*
X215000Y-2200000D02*
G75*
G02*
X185000Y-2200000I-15000J0D01*
G01*
X185000Y-2200000D02*
G75*
G02*
X215000Y-2200000I15000J0D01*
G01*
X215000Y-2600000D02*
G75*
G02*
X185000Y-2600000I-15000J0D01*
G01*
X185000Y-2600000D02*
G75*
G02*
X215000Y-2600000I15000J0D01*
G01*
X215000Y-3400000D02*
G75*
G02*
X185000Y-3400000I-15000J0D01*
G01*
X185000Y-3400000D02*
G75*
G02*
X215000Y-3400000I15000J0D01*
G01*
X215000Y-4200000D02*
G75*
G02*
X185000Y-4200000I-15000J0D01*
G01*
X185000Y-4200000D02*
G75*
G02*
X215000Y-4200000I15000J0D01*
G01*
X215000Y-4600000D02*
G75*
G02*
X185000Y-4600000I-15000J0D01*
G01*
X185000Y-4600000D02*
G75*
G02*
X215000Y-4600000I15000J0D01*
G01*
X215000Y-5000000D02*
G75*
G02*
X185000Y-5000000I-15000J0D01*
G01*
X185000Y-5000000D02*
G75*
G02*
X215000Y-5000000I15000J0D01*
G01*
X215000Y-5400000D02*
G75*
G02*
X185000Y-5400000I-15000J0D01*
G01*
X185000Y-5400000D02*
G75*
G02*
X215000Y-5400000I15000J0D01*
G01*
X215000Y-5800000D02*
G75*
G02*
X185000Y-5800000I-15000J0D01*
G01*
X185000Y-5800000D02*
G75*
G02*
X215000Y-5800000I15000J0D01*
G01*
X215000Y-6200000D02*
G75*
G02*
X185000Y-6200000I-15000J0D01*
G01*
X185000Y-6200000D02*
G75*
G02*
X215000Y-6200000I15000J0D01*
G01*
X215000Y-6600000D02*
G75*
G02*
X185000Y-6600000I-15000J0D01*
G01*
X185000Y-6600000D02*
G75*
G02*
X215000Y-6600000I15000J0D01*
G01*
X215000Y-7000000D02*
G75*
G02*
X185000Y-7000000I-15000J0D01*
G01*
X185000Y-7000000D02*
G75*
G02*
X215000Y-7000000I15000J0D01*
G01*
X215000Y-7400000D02*
G75*
G02*
X185000Y-7400000I-15000J0D01*
G01*
X185000Y-7400000D02*
G75*
G02*
X215000Y-7400000I15000J0D01*
G01*
X215000Y-7800000D02*
G75*
G02*
X185000Y-7800000I-15000J0D01*
G01*
X185000Y-7800000D02*
G75*
G02*
X215000Y-7800000I15000J0D01*
G01*
X240000Y-3635500D02*
G75*
G02*
X210000Y-3635500I-15000J0D01*
G01*
X210000Y-3635500D02*
G75*
G02*
X240000Y-3635500I15000J0D01*
G01*
X397500Y-2507500D02*
G75*
G02*
X367500Y-2507500I-15000J0D01*
G01*
X367500Y-2507500D02*
G75*
G02*
X397500Y-2507500I15000J0D01*
G01*
X415130Y-3187870D02*
G75*
G02*
X385130Y-3187870I-15000J0D01*
G01*
X385130Y-3187870D02*
G75*
G02*
X415130Y-3187870I15000J0D01*
G01*
X472360Y-3733470D02*
G75*
G02*
X442360Y-3733470I-15000J0D01*
G01*
X442360Y-3733470D02*
G75*
G02*
X472360Y-3733470I15000J0D01*
G01*
X571250Y-3335500D02*
G75*
G02*
X541250Y-3335500I-15000J0D01*
G01*
X541250Y-3335500D02*
G75*
G02*
X571250Y-3335500I15000J0D01*
G01*
X596250Y-6524000D02*
G75*
G02*
X566250Y-6524000I-15000J0D01*
G01*
X566250Y-6524000D02*
G75*
G02*
X596250Y-6524000I15000J0D01*
G01*
X605000Y-1615000D02*
G75*
G02*
X575000Y-1615000I-15000J0D01*
G01*
X575000Y-1615000D02*
G75*
G02*
X605000Y-1615000I15000J0D01*
G01*
X615000Y-200000D02*
G75*
G02*
X585000Y-200000I-15000J0D01*
G01*
X585000Y-200000D02*
G75*
G02*
X615000Y-200000I15000J0D01*
G01*
X615000Y-600000D02*
G75*
G02*
X585000Y-600000I-15000J0D01*
G01*
X585000Y-600000D02*
G75*
G02*
X615000Y-600000I15000J0D01*
G01*
X615000Y-1000000D02*
G75*
G02*
X585000Y-1000000I-15000J0D01*
G01*
X585000Y-1000000D02*
G75*
G02*
X615000Y-1000000I15000J0D01*
G01*
X615000Y-1400000D02*
G75*
G02*
X585000Y-1400000I-15000J0D01*
G01*
X585000Y-1400000D02*
G75*
G02*
X615000Y-1400000I15000J0D01*
G01*
X615000Y-2200000D02*
G75*
G02*
X585000Y-2200000I-15000J0D01*
G01*
X585000Y-2200000D02*
G75*
G02*
X615000Y-2200000I15000J0D01*
G01*
X615000Y-2600000D02*
G75*
G02*
X585000Y-2600000I-15000J0D01*
G01*
X585000Y-2600000D02*
G75*
G02*
X615000Y-2600000I15000J0D01*
G01*
X615000Y-3400000D02*
G75*
G02*
X585000Y-3400000I-15000J0D01*
G01*
X585000Y-3400000D02*
G75*
G02*
X615000Y-3400000I15000J0D01*
G01*
X615000Y-3800000D02*
G75*
G02*
X585000Y-3800000I-15000J0D01*
G01*
X585000Y-3800000D02*
G75*
G02*
X615000Y-3800000I15000J0D01*
G01*
X615000Y-4200000D02*
G75*
G02*
X585000Y-4200000I-15000J0D01*
G01*
X585000Y-4200000D02*
G75*
G02*
X615000Y-4200000I15000J0D01*
G01*
X615000Y-4600000D02*
G75*
G02*
X585000Y-4600000I-15000J0D01*
G01*
X585000Y-4600000D02*
G75*
G02*
X615000Y-4600000I15000J0D01*
G01*
X615000Y-5000000D02*
G75*
G02*
X585000Y-5000000I-15000J0D01*
G01*
X585000Y-5000000D02*
G75*
G02*
X615000Y-5000000I15000J0D01*
G01*
X615000Y-5400000D02*
G75*
G02*
X585000Y-5400000I-15000J0D01*
G01*
X585000Y-5400000D02*
G75*
G02*
X615000Y-5400000I15000J0D01*
G01*
X615000Y-5800000D02*
G75*
G02*
X585000Y-5800000I-15000J0D01*
G01*
X585000Y-5800000D02*
G75*
G02*
X615000Y-5800000I15000J0D01*
G01*
X615000Y-6200000D02*
G75*
G02*
X585000Y-6200000I-15000J0D01*
G01*
X585000Y-6200000D02*
G75*
G02*
X615000Y-6200000I15000J0D01*
G01*
X615000Y-6600000D02*
G75*
G02*
X585000Y-6600000I-15000J0D01*
G01*
X585000Y-6600000D02*
G75*
G02*
X615000Y-6600000I15000J0D01*
G01*
X615000Y-7000000D02*
G75*
G02*
X585000Y-7000000I-15000J0D01*
G01*
X585000Y-7000000D02*
G75*
G02*
X615000Y-7000000I15000J0D01*
G01*
X615000Y-7400000D02*
G75*
G02*
X585000Y-7400000I-15000J0D01*
G01*
X585000Y-7400000D02*
G75*
G02*
X615000Y-7400000I15000J0D01*
G01*
X615000Y-7800000D02*
G75*
G02*
X585000Y-7800000I-15000J0D01*
G01*
X585000Y-7800000D02*
G75*
G02*
X615000Y-7800000I15000J0D01*
G01*
X656100Y-1277830D02*
G75*
G02*
X626100Y-1277830I-15000J0D01*
G01*
X626100Y-1277830D02*
G75*
G02*
X656100Y-1277830I15000J0D01*
G01*
X721680Y-4014520D02*
G75*
G02*
X691680Y-4014520I-15000J0D01*
G01*
X691680Y-4014520D02*
G75*
G02*
X721680Y-4014520I15000J0D01*
G01*
X735480Y-3175090D02*
G75*
G02*
X705480Y-3175090I-15000J0D01*
G01*
X705480Y-3175090D02*
G75*
G02*
X735480Y-3175090I15000J0D01*
G01*
X795590Y-6589840D02*
G75*
G02*
X765590Y-6589840I-15000J0D01*
G01*
X765590Y-6589840D02*
G75*
G02*
X795590Y-6589840I15000J0D01*
G01*
X812500Y-2507500D02*
G75*
G02*
X782500Y-2507500I-15000J0D01*
G01*
X782500Y-2507500D02*
G75*
G02*
X812500Y-2507500I15000J0D01*
G01*
X930000Y-3595500D02*
G75*
G02*
X900000Y-3595500I-15000J0D01*
G01*
X900000Y-3595500D02*
G75*
G02*
X930000Y-3595500I15000J0D01*
G01*
X941720Y-2444150D02*
G75*
G02*
X911720Y-2444150I-15000J0D01*
G01*
X911720Y-2444150D02*
G75*
G02*
X941720Y-2444150I15000J0D01*
G01*
X1000000Y-1365000D02*
G75*
G02*
X970000Y-1365000I-15000J0D01*
G01*
X970000Y-1365000D02*
G75*
G02*
X1000000Y-1365000I15000J0D01*
G01*
X1015000Y-1800000D02*
G75*
G02*
X985000Y-1800000I-15000J0D01*
G01*
X985000Y-1800000D02*
G75*
G02*
X1015000Y-1800000I15000J0D01*
G01*
X1015000Y-2200000D02*
G75*
G02*
X985000Y-2200000I-15000J0D01*
G01*
X985000Y-2200000D02*
G75*
G02*
X1015000Y-2200000I15000J0D01*
G01*
X1015000Y-2600000D02*
G75*
G02*
X985000Y-2600000I-15000J0D01*
G01*
X985000Y-2600000D02*
G75*
G02*
X1015000Y-2600000I15000J0D01*
G01*
X1015000Y-3000000D02*
G75*
G02*
X985000Y-3000000I-15000J0D01*
G01*
X985000Y-3000000D02*
G75*
G02*
X1015000Y-3000000I15000J0D01*
G01*
X1015000Y-3400000D02*
G75*
G02*
X985000Y-3400000I-15000J0D01*
G01*
X985000Y-3400000D02*
G75*
G02*
X1015000Y-3400000I15000J0D01*
G01*
X1015000Y-3800000D02*
G75*
G02*
X985000Y-3800000I-15000J0D01*
G01*
X985000Y-3800000D02*
G75*
G02*
X1015000Y-3800000I15000J0D01*
G01*
X1015000Y-4200000D02*
G75*
G02*
X985000Y-4200000I-15000J0D01*
G01*
X985000Y-4200000D02*
G75*
G02*
X1015000Y-4200000I15000J0D01*
G01*
X1015000Y-4600000D02*
G75*
G02*
X985000Y-4600000I-15000J0D01*
G01*
X985000Y-4600000D02*
G75*
G02*
X1015000Y-4600000I15000J0D01*
G01*
X1015000Y-5000000D02*
G75*
G02*
X985000Y-5000000I-15000J0D01*
G01*
X985000Y-5000000D02*
G75*
G02*
X1015000Y-5000000I15000J0D01*
G01*
X1015000Y-5400000D02*
G75*
G02*
X985000Y-5400000I-15000J0D01*
G01*
X985000Y-5400000D02*
G75*
G02*
X1015000Y-5400000I15000J0D01*
G01*
X1015000Y-5800000D02*
G75*
G02*
X985000Y-5800000I-15000J0D01*
G01*
X985000Y-5800000D02*
G75*
G02*
X1015000Y-5800000I15000J0D01*
G01*
X1015000Y-6200000D02*
G75*
G02*
X985000Y-6200000I-15000J0D01*
G01*
X985000Y-6200000D02*
G75*
G02*
X1015000Y-6200000I15000J0D01*
G01*
X1015000Y-7000000D02*
G75*
G02*
X985000Y-7000000I-15000J0D01*
G01*
X985000Y-7000000D02*
G75*
G02*
X1015000Y-7000000I15000J0D01*
G01*
X1015000Y-7400000D02*
G75*
G02*
X985000Y-7400000I-15000J0D01*
G01*
X985000Y-7400000D02*
G75*
G02*
X1015000Y-7400000I15000J0D01*
G01*
X1015000Y-7800000D02*
G75*
G02*
X985000Y-7800000I-15000J0D01*
G01*
X985000Y-7800000D02*
G75*
G02*
X1015000Y-7800000I15000J0D01*
G01*
X1091250Y-1615000D02*
G75*
G02*
X1061250Y-1615000I-15000J0D01*
G01*
X1061250Y-1615000D02*
G75*
G02*
X1091250Y-1615000I15000J0D01*
G01*
X1106850Y-3105670D02*
G75*
G02*
X1076850Y-3105670I-15000J0D01*
G01*
X1076850Y-3105670D02*
G75*
G02*
X1106850Y-3105670I15000J0D01*
G01*
X1132880Y-3333870D02*
G75*
G02*
X1102880Y-3333870I-15000J0D01*
G01*
X1102880Y-3333870D02*
G75*
G02*
X1132880Y-3333870I15000J0D01*
G01*
X1147500Y-2507500D02*
G75*
G02*
X1117500Y-2507500I-15000J0D01*
G01*
X1117500Y-2507500D02*
G75*
G02*
X1147500Y-2507500I15000J0D01*
G01*
X1259740Y-3338390D02*
G75*
G02*
X1229740Y-3338390I-15000J0D01*
G01*
X1229740Y-3338390D02*
G75*
G02*
X1259740Y-3338390I15000J0D01*
G01*
X1303670Y-3233520D02*
G75*
G02*
X1273670Y-3233520I-15000J0D01*
G01*
X1273670Y-3233520D02*
G75*
G02*
X1303670Y-3233520I15000J0D01*
G01*
X1341250Y-3650000D02*
G75*
G02*
X1311250Y-3650000I-15000J0D01*
G01*
X1311250Y-3650000D02*
G75*
G02*
X1341250Y-3650000I15000J0D01*
G01*
X1346740Y-932300D02*
G75*
G02*
X1316740Y-932300I-15000J0D01*
G01*
X1316740Y-932300D02*
G75*
G02*
X1346740Y-932300I15000J0D01*
G01*
X1411250Y-3000000D02*
G75*
G02*
X1381250Y-3000000I-15000J0D01*
G01*
X1381250Y-3000000D02*
G75*
G02*
X1411250Y-3000000I15000J0D01*
G01*
X1415000Y-1800000D02*
G75*
G02*
X1385000Y-1800000I-15000J0D01*
G01*
X1385000Y-1800000D02*
G75*
G02*
X1415000Y-1800000I15000J0D01*
G01*
X1415000Y-2200000D02*
G75*
G02*
X1385000Y-2200000I-15000J0D01*
G01*
X1385000Y-2200000D02*
G75*
G02*
X1415000Y-2200000I15000J0D01*
G01*
X1415000Y-2600000D02*
G75*
G02*
X1385000Y-2600000I-15000J0D01*
G01*
X1385000Y-2600000D02*
G75*
G02*
X1415000Y-2600000I15000J0D01*
G01*
X1415000Y-3400000D02*
G75*
G02*
X1385000Y-3400000I-15000J0D01*
G01*
X1385000Y-3400000D02*
G75*
G02*
X1415000Y-3400000I15000J0D01*
G01*
X1415000Y-3800000D02*
G75*
G02*
X1385000Y-3800000I-15000J0D01*
G01*
X1385000Y-3800000D02*
G75*
G02*
X1415000Y-3800000I15000J0D01*
G01*
X1415000Y-5400000D02*
G75*
G02*
X1385000Y-5400000I-15000J0D01*
G01*
X1385000Y-5400000D02*
G75*
G02*
X1415000Y-5400000I15000J0D01*
G01*
X1415000Y-6200000D02*
G75*
G02*
X1385000Y-6200000I-15000J0D01*
G01*
X1385000Y-6200000D02*
G75*
G02*
X1415000Y-6200000I15000J0D01*
G01*
X1415000Y-7000000D02*
G75*
G02*
X1385000Y-7000000I-15000J0D01*
G01*
X1385000Y-7000000D02*
G75*
G02*
X1415000Y-7000000I15000J0D01*
G01*
X1415000Y-7400000D02*
G75*
G02*
X1385000Y-7400000I-15000J0D01*
G01*
X1385000Y-7400000D02*
G75*
G02*
X1415000Y-7400000I15000J0D01*
G01*
X1415000Y-7800000D02*
G75*
G02*
X1385000Y-7800000I-15000J0D01*
G01*
X1385000Y-7800000D02*
G75*
G02*
X1415000Y-7800000I15000J0D01*
G01*
X1494190Y-3152550D02*
G75*
G02*
X1464190Y-3152550I-15000J0D01*
G01*
X1464190Y-3152550D02*
G75*
G02*
X1494190Y-3152550I15000J0D01*
G01*
X1507500Y-2770000D02*
G75*
G02*
X1477500Y-2770000I-15000J0D01*
G01*
X1477500Y-2770000D02*
G75*
G02*
X1507500Y-2770000I15000J0D01*
G01*
X1562500Y-2507500D02*
G75*
G02*
X1532500Y-2507500I-15000J0D01*
G01*
X1532500Y-2507500D02*
G75*
G02*
X1562500Y-2507500I15000J0D01*
G01*
X1571250Y-5149000D02*
G75*
G02*
X1541250Y-5149000I-15000J0D01*
G01*
X1541250Y-5149000D02*
G75*
G02*
X1571250Y-5149000I15000J0D01*
G01*
X1575000Y-1078000D02*
G75*
G02*
X1545000Y-1078000I-15000J0D01*
G01*
X1545000Y-1078000D02*
G75*
G02*
X1575000Y-1078000I15000J0D01*
G01*
X1594780Y-4067210D02*
G75*
G02*
X1564780Y-4067210I-15000J0D01*
G01*
X1564780Y-4067210D02*
G75*
G02*
X1594780Y-4067210I15000J0D01*
G01*
X1633910Y-2266570D02*
G75*
G02*
X1603910Y-2266570I-15000J0D01*
G01*
X1603910Y-2266570D02*
G75*
G02*
X1633910Y-2266570I15000J0D01*
G01*
X1671560Y-1495190D02*
G75*
G02*
X1641560Y-1495190I-15000J0D01*
G01*
X1641560Y-1495190D02*
G75*
G02*
X1671560Y-1495190I15000J0D01*
G01*
X1676870Y-3666740D02*
G75*
G02*
X1646870Y-3666740I-15000J0D01*
G01*
X1646870Y-3666740D02*
G75*
G02*
X1676870Y-3666740I15000J0D01*
G01*
X1686940Y-3437530D02*
G75*
G02*
X1656940Y-3437530I-15000J0D01*
G01*
X1656940Y-3437530D02*
G75*
G02*
X1686940Y-3437530I15000J0D01*
G01*
X1738910Y-5819090D02*
G75*
G02*
X1708910Y-5819090I-15000J0D01*
G01*
X1708910Y-5819090D02*
G75*
G02*
X1738910Y-5819090I15000J0D01*
G01*
X1773870Y-1262130D02*
G75*
G02*
X1743870Y-1262130I-15000J0D01*
G01*
X1743870Y-1262130D02*
G75*
G02*
X1773870Y-1262130I15000J0D01*
G01*
X1775000Y-951000D02*
G75*
G02*
X1745000Y-951000I-15000J0D01*
G01*
X1745000Y-951000D02*
G75*
G02*
X1775000Y-951000I15000J0D01*
G01*
X1778750Y-2221000D02*
G75*
G02*
X1748750Y-2221000I-15000J0D01*
G01*
X1748750Y-2221000D02*
G75*
G02*
X1778750Y-2221000I15000J0D01*
G01*
X1813260Y-3539110D02*
G75*
G02*
X1783260Y-3539110I-15000J0D01*
G01*
X1783260Y-3539110D02*
G75*
G02*
X1813260Y-3539110I15000J0D01*
G01*
X1815000Y-1800000D02*
G75*
G02*
X1785000Y-1800000I-15000J0D01*
G01*
X1785000Y-1800000D02*
G75*
G02*
X1815000Y-1800000I15000J0D01*
G01*
X1815000Y-2600000D02*
G75*
G02*
X1785000Y-2600000I-15000J0D01*
G01*
X1785000Y-2600000D02*
G75*
G02*
X1815000Y-2600000I15000J0D01*
G01*
X1815000Y-3000000D02*
G75*
G02*
X1785000Y-3000000I-15000J0D01*
G01*
X1785000Y-3000000D02*
G75*
G02*
X1815000Y-3000000I15000J0D01*
G01*
X1815000Y-3400000D02*
G75*
G02*
X1785000Y-3400000I-15000J0D01*
G01*
X1785000Y-3400000D02*
G75*
G02*
X1815000Y-3400000I15000J0D01*
G01*
X1815000Y-3800000D02*
G75*
G02*
X1785000Y-3800000I-15000J0D01*
G01*
X1785000Y-3800000D02*
G75*
G02*
X1815000Y-3800000I15000J0D01*
G01*
X1815000Y-4200000D02*
G75*
G02*
X1785000Y-4200000I-15000J0D01*
G01*
X1785000Y-4200000D02*
G75*
G02*
X1815000Y-4200000I15000J0D01*
G01*
X1815000Y-4600000D02*
G75*
G02*
X1785000Y-4600000I-15000J0D01*
G01*
X1785000Y-4600000D02*
G75*
G02*
X1815000Y-4600000I15000J0D01*
G01*
X1815000Y-5400000D02*
G75*
G02*
X1785000Y-5400000I-15000J0D01*
G01*
X1785000Y-5400000D02*
G75*
G02*
X1815000Y-5400000I15000J0D01*
G01*
X1815000Y-5800000D02*
G75*
G02*
X1785000Y-5800000I-15000J0D01*
G01*
X1785000Y-5800000D02*
G75*
G02*
X1815000Y-5800000I15000J0D01*
G01*
X1915350Y-3525740D02*
G75*
G02*
X1885350Y-3525740I-15000J0D01*
G01*
X1885350Y-3525740D02*
G75*
G02*
X1915350Y-3525740I15000J0D01*
G01*
X1916230Y-1489290D02*
G75*
G02*
X1886230Y-1489290I-15000J0D01*
G01*
X1886230Y-1489290D02*
G75*
G02*
X1916230Y-1489290I15000J0D01*
G01*
X1963870Y-1262130D02*
G75*
G02*
X1933870Y-1262130I-15000J0D01*
G01*
X1933870Y-1262130D02*
G75*
G02*
X1963870Y-1262130I15000J0D01*
G01*
X1965000Y-951000D02*
G75*
G02*
X1935000Y-951000I-15000J0D01*
G01*
X1935000Y-951000D02*
G75*
G02*
X1965000Y-951000I15000J0D01*
G01*
X2001500Y-1439260D02*
G75*
G02*
X1971500Y-1439260I-15000J0D01*
G01*
X1971500Y-1439260D02*
G75*
G02*
X2001500Y-1439260I15000J0D01*
G01*
X2153160Y-7846840D02*
G75*
G02*
X2123160Y-7846840I-15000J0D01*
G01*
X2123160Y-7846840D02*
G75*
G02*
X2153160Y-7846840I15000J0D01*
G01*
X2180000Y-824000D02*
G75*
G02*
X2150000Y-824000I-15000J0D01*
G01*
X2150000Y-824000D02*
G75*
G02*
X2180000Y-824000I15000J0D01*
G01*
X2180000Y-951000D02*
G75*
G02*
X2150000Y-951000I-15000J0D01*
G01*
X2150000Y-951000D02*
G75*
G02*
X2180000Y-951000I15000J0D01*
G01*
X2206080Y-3657200D02*
G75*
G02*
X2176080Y-3657200I-15000J0D01*
G01*
X2176080Y-3657200D02*
G75*
G02*
X2206080Y-3657200I15000J0D01*
G01*
X2215000Y-2600000D02*
G75*
G02*
X2185000Y-2600000I-15000J0D01*
G01*
X2185000Y-2600000D02*
G75*
G02*
X2215000Y-2600000I15000J0D01*
G01*
X2215000Y-3000000D02*
G75*
G02*
X2185000Y-3000000I-15000J0D01*
G01*
X2185000Y-3000000D02*
G75*
G02*
X2215000Y-3000000I15000J0D01*
G01*
X2215000Y-3400000D02*
G75*
G02*
X2185000Y-3400000I-15000J0D01*
G01*
X2185000Y-3400000D02*
G75*
G02*
X2215000Y-3400000I15000J0D01*
G01*
X2215000Y-3800000D02*
G75*
G02*
X2185000Y-3800000I-15000J0D01*
G01*
X2185000Y-3800000D02*
G75*
G02*
X2215000Y-3800000I15000J0D01*
G01*
X2215000Y-4600000D02*
G75*
G02*
X2185000Y-4600000I-15000J0D01*
G01*
X2185000Y-4600000D02*
G75*
G02*
X2215000Y-4600000I15000J0D01*
G01*
X2215000Y-5000000D02*
G75*
G02*
X2185000Y-5000000I-15000J0D01*
G01*
X2185000Y-5000000D02*
G75*
G02*
X2215000Y-5000000I15000J0D01*
G01*
X2215000Y-5400000D02*
G75*
G02*
X2185000Y-5400000I-15000J0D01*
G01*
X2185000Y-5400000D02*
G75*
G02*
X2215000Y-5400000I15000J0D01*
G01*
X2215000Y-5800000D02*
G75*
G02*
X2185000Y-5800000I-15000J0D01*
G01*
X2185000Y-5800000D02*
G75*
G02*
X2215000Y-5800000I15000J0D01*
G01*
X2215000Y-6600000D02*
G75*
G02*
X2185000Y-6600000I-15000J0D01*
G01*
X2185000Y-6600000D02*
G75*
G02*
X2215000Y-6600000I15000J0D01*
G01*
X2215000Y-7400000D02*
G75*
G02*
X2185000Y-7400000I-15000J0D01*
G01*
X2185000Y-7400000D02*
G75*
G02*
X2215000Y-7400000I15000J0D01*
G01*
X2283580Y-1941720D02*
G75*
G02*
X2253580Y-1941720I-15000J0D01*
G01*
X2253580Y-1941720D02*
G75*
G02*
X2283580Y-1941720I15000J0D01*
G01*
X2303440Y-2025460D02*
G75*
G02*
X2273440Y-2025460I-15000J0D01*
G01*
X2273440Y-2025460D02*
G75*
G02*
X2303440Y-2025460I15000J0D01*
G01*
X2328540Y-2339490D02*
G75*
G02*
X2298540Y-2339490I-15000J0D01*
G01*
X2298540Y-2339490D02*
G75*
G02*
X2328540Y-2339490I15000J0D01*
G01*
X2333910Y-1851710D02*
G75*
G02*
X2303910Y-1851710I-15000J0D01*
G01*
X2303910Y-1851710D02*
G75*
G02*
X2333910Y-1851710I15000J0D01*
G01*
X2335110Y-2449090D02*
G75*
G02*
X2305110Y-2449090I-15000J0D01*
G01*
X2305110Y-2449090D02*
G75*
G02*
X2335110Y-2449090I15000J0D01*
G01*
X2343160Y-7846840D02*
G75*
G02*
X2313160Y-7846840I-15000J0D01*
G01*
X2313160Y-7846840D02*
G75*
G02*
X2343160Y-7846840I15000J0D01*
G01*
X2480530Y-3052660D02*
G75*
G02*
X2450530Y-3052660I-15000J0D01*
G01*
X2450530Y-3052660D02*
G75*
G02*
X2480530Y-3052660I15000J0D01*
G01*
X2494800Y-4953210D02*
G75*
G02*
X2464800Y-4953210I-15000J0D01*
G01*
X2464800Y-4953210D02*
G75*
G02*
X2494800Y-4953210I15000J0D01*
G01*
X2495640Y-6660710D02*
G75*
G02*
X2465640Y-6660710I-15000J0D01*
G01*
X2465640Y-6660710D02*
G75*
G02*
X2495640Y-6660710I15000J0D01*
G01*
X2495640Y-7490710D02*
G75*
G02*
X2465640Y-7490710I-15000J0D01*
G01*
X2465640Y-7490710D02*
G75*
G02*
X2495640Y-7490710I15000J0D01*
G01*
X2502180Y-1623640D02*
G75*
G02*
X2472180Y-1623640I-15000J0D01*
G01*
X2472180Y-1623640D02*
G75*
G02*
X2502180Y-1623640I15000J0D01*
G01*
X2519250Y-2830000D02*
G75*
G02*
X2489250Y-2830000I-15000J0D01*
G01*
X2489250Y-2830000D02*
G75*
G02*
X2519250Y-2830000I15000J0D01*
G01*
X2535000Y-7725000D02*
G75*
G02*
X2505000Y-7725000I-15000J0D01*
G01*
X2505000Y-7725000D02*
G75*
G02*
X2535000Y-7725000I15000J0D01*
G01*
X2565000Y-5445000D02*
G75*
G02*
X2535000Y-5445000I-15000J0D01*
G01*
X2535000Y-5445000D02*
G75*
G02*
X2565000Y-5445000I15000J0D01*
G01*
X2565000Y-5655000D02*
G75*
G02*
X2535000Y-5655000I-15000J0D01*
G01*
X2535000Y-5655000D02*
G75*
G02*
X2565000Y-5655000I15000J0D01*
G01*
X2572360Y-3663900D02*
G75*
G02*
X2542360Y-3663900I-15000J0D01*
G01*
X2542360Y-3663900D02*
G75*
G02*
X2572360Y-3663900I15000J0D01*
G01*
X2595000Y-6930000D02*
G75*
G02*
X2565000Y-6930000I-15000J0D01*
G01*
X2565000Y-6930000D02*
G75*
G02*
X2595000Y-6930000I15000J0D01*
G01*
X2595000Y-7170000D02*
G75*
G02*
X2565000Y-7170000I-15000J0D01*
G01*
X2565000Y-7170000D02*
G75*
G02*
X2595000Y-7170000I15000J0D01*
G01*
X2615000Y-1000000D02*
G75*
G02*
X2585000Y-1000000I-15000J0D01*
G01*
X2585000Y-1000000D02*
G75*
G02*
X2615000Y-1000000I15000J0D01*
G01*
X2615000Y-1400000D02*
G75*
G02*
X2585000Y-1400000I-15000J0D01*
G01*
X2585000Y-1400000D02*
G75*
G02*
X2615000Y-1400000I15000J0D01*
G01*
X2615000Y-1800000D02*
G75*
G02*
X2585000Y-1800000I-15000J0D01*
G01*
X2585000Y-1800000D02*
G75*
G02*
X2615000Y-1800000I15000J0D01*
G01*
X2615000Y-2200000D02*
G75*
G02*
X2585000Y-2200000I-15000J0D01*
G01*
X2585000Y-2200000D02*
G75*
G02*
X2615000Y-2200000I15000J0D01*
G01*
X2615000Y-3000000D02*
G75*
G02*
X2585000Y-3000000I-15000J0D01*
G01*
X2585000Y-3000000D02*
G75*
G02*
X2615000Y-3000000I15000J0D01*
G01*
X2615000Y-3400000D02*
G75*
G02*
X2585000Y-3400000I-15000J0D01*
G01*
X2585000Y-3400000D02*
G75*
G02*
X2615000Y-3400000I15000J0D01*
G01*
X2615000Y-3800000D02*
G75*
G02*
X2585000Y-3800000I-15000J0D01*
G01*
X2585000Y-3800000D02*
G75*
G02*
X2615000Y-3800000I15000J0D01*
G01*
X2615000Y-4600000D02*
G75*
G02*
X2585000Y-4600000I-15000J0D01*
G01*
X2585000Y-4600000D02*
G75*
G02*
X2615000Y-4600000I15000J0D01*
G01*
X2615000Y-5000000D02*
G75*
G02*
X2585000Y-5000000I-15000J0D01*
G01*
X2585000Y-5000000D02*
G75*
G02*
X2615000Y-5000000I15000J0D01*
G01*
X2615000Y-7800000D02*
G75*
G02*
X2585000Y-7800000I-15000J0D01*
G01*
X2585000Y-7800000D02*
G75*
G02*
X2615000Y-7800000I15000J0D01*
G01*
X2620640Y-6660710D02*
G75*
G02*
X2590640Y-6660710I-15000J0D01*
G01*
X2590640Y-6660710D02*
G75*
G02*
X2620640Y-6660710I15000J0D01*
G01*
X2620640Y-7490710D02*
G75*
G02*
X2590640Y-7490710I-15000J0D01*
G01*
X2590640Y-7490710D02*
G75*
G02*
X2620640Y-7490710I15000J0D01*
G01*
X2665000Y-5445000D02*
G75*
G02*
X2635000Y-5445000I-15000J0D01*
G01*
X2635000Y-5445000D02*
G75*
G02*
X2665000Y-5445000I15000J0D01*
G01*
X2665000Y-5655000D02*
G75*
G02*
X2635000Y-5655000I-15000J0D01*
G01*
X2635000Y-5655000D02*
G75*
G02*
X2665000Y-5655000I15000J0D01*
G01*
X2725000Y-7725000D02*
G75*
G02*
X2695000Y-7725000I-15000J0D01*
G01*
X2695000Y-7725000D02*
G75*
G02*
X2725000Y-7725000I15000J0D01*
G01*
X2767500Y-1498500D02*
G75*
G02*
X2737500Y-1498500I-15000J0D01*
G01*
X2737500Y-1498500D02*
G75*
G02*
X2767500Y-1498500I15000J0D01*
G01*
X2767500Y-1693500D02*
G75*
G02*
X2737500Y-1693500I-15000J0D01*
G01*
X2737500Y-1693500D02*
G75*
G02*
X2767500Y-1693500I15000J0D01*
G01*
X2795560Y-4881370D02*
G75*
G02*
X2765560Y-4881370I-15000J0D01*
G01*
X2765560Y-4881370D02*
G75*
G02*
X2795560Y-4881370I15000J0D01*
G01*
X2811010Y-3490710D02*
G75*
G02*
X2781010Y-3490710I-15000J0D01*
G01*
X2781010Y-3490710D02*
G75*
G02*
X2811010Y-3490710I15000J0D01*
G01*
X2835000Y-6930000D02*
G75*
G02*
X2805000Y-6930000I-15000J0D01*
G01*
X2805000Y-6930000D02*
G75*
G02*
X2835000Y-6930000I15000J0D01*
G01*
X2835000Y-7170000D02*
G75*
G02*
X2805000Y-7170000I-15000J0D01*
G01*
X2805000Y-7170000D02*
G75*
G02*
X2835000Y-7170000I15000J0D01*
G01*
X2841250Y-3205000D02*
G75*
G02*
X2811250Y-3205000I-15000J0D01*
G01*
X2811250Y-3205000D02*
G75*
G02*
X2841250Y-3205000I15000J0D01*
G01*
X2936250Y-3615000D02*
G75*
G02*
X2906250Y-3615000I-15000J0D01*
G01*
X2906250Y-3615000D02*
G75*
G02*
X2936250Y-3615000I15000J0D01*
G01*
X2962500Y-1498500D02*
G75*
G02*
X2932500Y-1498500I-15000J0D01*
G01*
X2932500Y-1498500D02*
G75*
G02*
X2962500Y-1498500I15000J0D01*
G01*
X2962500Y-1693500D02*
G75*
G02*
X2932500Y-1693500I-15000J0D01*
G01*
X2932500Y-1693500D02*
G75*
G02*
X2962500Y-1693500I15000J0D01*
G01*
X3015000Y-1000000D02*
G75*
G02*
X2985000Y-1000000I-15000J0D01*
G01*
X2985000Y-1000000D02*
G75*
G02*
X3015000Y-1000000I15000J0D01*
G01*
X3015000Y-2200000D02*
G75*
G02*
X2985000Y-2200000I-15000J0D01*
G01*
X2985000Y-2200000D02*
G75*
G02*
X3015000Y-2200000I15000J0D01*
G01*
X3015000Y-3800000D02*
G75*
G02*
X2985000Y-3800000I-15000J0D01*
G01*
X2985000Y-3800000D02*
G75*
G02*
X3015000Y-3800000I15000J0D01*
G01*
X3015000Y-4600000D02*
G75*
G02*
X2985000Y-4600000I-15000J0D01*
G01*
X2985000Y-4600000D02*
G75*
G02*
X3015000Y-4600000I15000J0D01*
G01*
X3015000Y-5000000D02*
G75*
G02*
X2985000Y-5000000I-15000J0D01*
G01*
X2985000Y-5000000D02*
G75*
G02*
X3015000Y-5000000I15000J0D01*
G01*
X3015000Y-5400000D02*
G75*
G02*
X2985000Y-5400000I-15000J0D01*
G01*
X2985000Y-5400000D02*
G75*
G02*
X3015000Y-5400000I15000J0D01*
G01*
X3015000Y-5800000D02*
G75*
G02*
X2985000Y-5800000I-15000J0D01*
G01*
X2985000Y-5800000D02*
G75*
G02*
X3015000Y-5800000I15000J0D01*
G01*
X3015000Y-7800000D02*
G75*
G02*
X2985000Y-7800000I-15000J0D01*
G01*
X2985000Y-7800000D02*
G75*
G02*
X3015000Y-7800000I15000J0D01*
G01*
X3030020Y-2792730D02*
G75*
G02*
X3000020Y-2792730I-15000J0D01*
G01*
X3000020Y-2792730D02*
G75*
G02*
X3030020Y-2792730I15000J0D01*
G01*
X3030560Y-2409080D02*
G75*
G02*
X3000560Y-2409080I-15000J0D01*
G01*
X3000560Y-2409080D02*
G75*
G02*
X3030560Y-2409080I15000J0D01*
G01*
X3068750Y-3395000D02*
G75*
G02*
X3038750Y-3395000I-15000J0D01*
G01*
X3038750Y-3395000D02*
G75*
G02*
X3068750Y-3395000I15000J0D01*
G01*
X3087980Y-7493090D02*
G75*
G02*
X3057980Y-7493090I-15000J0D01*
G01*
X3057980Y-7493090D02*
G75*
G02*
X3087980Y-7493090I15000J0D01*
G01*
X3122580Y-2455500D02*
G75*
G02*
X3092580Y-2455500I-15000J0D01*
G01*
X3092580Y-2455500D02*
G75*
G02*
X3122580Y-2455500I15000J0D01*
G01*
X3129460Y-2740690D02*
G75*
G02*
X3099460Y-2740690I-15000J0D01*
G01*
X3099460Y-2740690D02*
G75*
G02*
X3129460Y-2740690I15000J0D01*
G01*
X3231230Y-3288680D02*
G75*
G02*
X3201230Y-3288680I-15000J0D01*
G01*
X3201230Y-3288680D02*
G75*
G02*
X3231230Y-3288680I15000J0D01*
G01*
X3238100Y-3165110D02*
G75*
G02*
X3208100Y-3165110I-15000J0D01*
G01*
X3208100Y-3165110D02*
G75*
G02*
X3238100Y-3165110I15000J0D01*
G01*
X3393590Y-2440170D02*
G75*
G02*
X3363590Y-2440170I-15000J0D01*
G01*
X3363590Y-2440170D02*
G75*
G02*
X3393590Y-2440170I15000J0D01*
G01*
X3415000Y-1000000D02*
G75*
G02*
X3385000Y-1000000I-15000J0D01*
G01*
X3385000Y-1000000D02*
G75*
G02*
X3415000Y-1000000I15000J0D01*
G01*
X3415000Y-1400000D02*
G75*
G02*
X3385000Y-1400000I-15000J0D01*
G01*
X3385000Y-1400000D02*
G75*
G02*
X3415000Y-1400000I15000J0D01*
G01*
X3415000Y-1800000D02*
G75*
G02*
X3385000Y-1800000I-15000J0D01*
G01*
X3385000Y-1800000D02*
G75*
G02*
X3415000Y-1800000I15000J0D01*
G01*
X3415000Y-2200000D02*
G75*
G02*
X3385000Y-2200000I-15000J0D01*
G01*
X3385000Y-2200000D02*
G75*
G02*
X3415000Y-2200000I15000J0D01*
G01*
X3415000Y-3000000D02*
G75*
G02*
X3385000Y-3000000I-15000J0D01*
G01*
X3385000Y-3000000D02*
G75*
G02*
X3415000Y-3000000I15000J0D01*
G01*
X3415000Y-3800000D02*
G75*
G02*
X3385000Y-3800000I-15000J0D01*
G01*
X3385000Y-3800000D02*
G75*
G02*
X3415000Y-3800000I15000J0D01*
G01*
X3415000Y-4600000D02*
G75*
G02*
X3385000Y-4600000I-15000J0D01*
G01*
X3385000Y-4600000D02*
G75*
G02*
X3415000Y-4600000I15000J0D01*
G01*
X3415000Y-5000000D02*
G75*
G02*
X3385000Y-5000000I-15000J0D01*
G01*
X3385000Y-5000000D02*
G75*
G02*
X3415000Y-5000000I15000J0D01*
G01*
X3415000Y-6600000D02*
G75*
G02*
X3385000Y-6600000I-15000J0D01*
G01*
X3385000Y-6600000D02*
G75*
G02*
X3415000Y-6600000I15000J0D01*
G01*
X3415000Y-7000000D02*
G75*
G02*
X3385000Y-7000000I-15000J0D01*
G01*
X3385000Y-7000000D02*
G75*
G02*
X3415000Y-7000000I15000J0D01*
G01*
X3415000Y-7400000D02*
G75*
G02*
X3385000Y-7400000I-15000J0D01*
G01*
X3385000Y-7400000D02*
G75*
G02*
X3415000Y-7400000I15000J0D01*
G01*
X3415000Y-7800000D02*
G75*
G02*
X3385000Y-7800000I-15000J0D01*
G01*
X3385000Y-7800000D02*
G75*
G02*
X3415000Y-7800000I15000J0D01*
G01*
X3505770Y-2792130D02*
G75*
G02*
X3475770Y-2792130I-15000J0D01*
G01*
X3475770Y-2792130D02*
G75*
G02*
X3505770Y-2792130I15000J0D01*
G01*
X3595000Y-2257180D02*
G75*
G02*
X3565000Y-2257180I-15000J0D01*
G01*
X3565000Y-2257180D02*
G75*
G02*
X3595000Y-2257180I15000J0D01*
G01*
X3600000Y-3000000D02*
G75*
G02*
X3570000Y-3000000I-15000J0D01*
G01*
X3570000Y-3000000D02*
G75*
G02*
X3600000Y-3000000I15000J0D01*
G01*
X3600000Y-3600000D02*
G75*
G02*
X3570000Y-3600000I-15000J0D01*
G01*
X3570000Y-3600000D02*
G75*
G02*
X3600000Y-3600000I15000J0D01*
G01*
X3672500Y-6602500D02*
G75*
G02*
X3642500Y-6602500I-15000J0D01*
G01*
X3642500Y-6602500D02*
G75*
G02*
X3672500Y-6602500I15000J0D01*
G01*
X3673440Y-2023160D02*
G75*
G02*
X3643440Y-2023160I-15000J0D01*
G01*
X3643440Y-2023160D02*
G75*
G02*
X3673440Y-2023160I15000J0D01*
G01*
X3695000Y-3300000D02*
G75*
G02*
X3665000Y-3300000I-15000J0D01*
G01*
X3665000Y-3300000D02*
G75*
G02*
X3695000Y-3300000I15000J0D01*
G01*
X3704690Y-3878460D02*
G75*
G02*
X3674690Y-3878460I-15000J0D01*
G01*
X3674690Y-3878460D02*
G75*
G02*
X3704690Y-3878460I15000J0D01*
G01*
X3721250Y-5645000D02*
G75*
G02*
X3691250Y-5645000I-15000J0D01*
G01*
X3691250Y-5645000D02*
G75*
G02*
X3721250Y-5645000I15000J0D01*
G01*
X3790000Y-3000000D02*
G75*
G02*
X3760000Y-3000000I-15000J0D01*
G01*
X3760000Y-3000000D02*
G75*
G02*
X3790000Y-3000000I15000J0D01*
G01*
X3790000Y-3600000D02*
G75*
G02*
X3760000Y-3600000I-15000J0D01*
G01*
X3760000Y-3600000D02*
G75*
G02*
X3790000Y-3600000I15000J0D01*
G01*
X3815000Y-2600000D02*
G75*
G02*
X3785000Y-2600000I-15000J0D01*
G01*
X3785000Y-2600000D02*
G75*
G02*
X3815000Y-2600000I15000J0D01*
G01*
X3815000Y-3800000D02*
G75*
G02*
X3785000Y-3800000I-15000J0D01*
G01*
X3785000Y-3800000D02*
G75*
G02*
X3815000Y-3800000I15000J0D01*
G01*
X3815000Y-4600000D02*
G75*
G02*
X3785000Y-4600000I-15000J0D01*
G01*
X3785000Y-4600000D02*
G75*
G02*
X3815000Y-4600000I15000J0D01*
G01*
X3815000Y-5000000D02*
G75*
G02*
X3785000Y-5000000I-15000J0D01*
G01*
X3785000Y-5000000D02*
G75*
G02*
X3815000Y-5000000I15000J0D01*
G01*
X3815000Y-5400000D02*
G75*
G02*
X3785000Y-5400000I-15000J0D01*
G01*
X3785000Y-5400000D02*
G75*
G02*
X3815000Y-5400000I15000J0D01*
G01*
X3815000Y-5800000D02*
G75*
G02*
X3785000Y-5800000I-15000J0D01*
G01*
X3785000Y-5800000D02*
G75*
G02*
X3815000Y-5800000I15000J0D01*
G01*
X3815000Y-7000000D02*
G75*
G02*
X3785000Y-7000000I-15000J0D01*
G01*
X3785000Y-7000000D02*
G75*
G02*
X3815000Y-7000000I15000J0D01*
G01*
X3815000Y-7400000D02*
G75*
G02*
X3785000Y-7400000I-15000J0D01*
G01*
X3785000Y-7400000D02*
G75*
G02*
X3815000Y-7400000I15000J0D01*
G01*
X3815000Y-7800000D02*
G75*
G02*
X3785000Y-7800000I-15000J0D01*
G01*
X3785000Y-7800000D02*
G75*
G02*
X3815000Y-7800000I15000J0D01*
G01*
X3855000Y-4300000D02*
G75*
G02*
X3825000Y-4300000I-15000J0D01*
G01*
X3825000Y-4300000D02*
G75*
G02*
X3855000Y-4300000I15000J0D01*
G01*
X3862500Y-6602500D02*
G75*
G02*
X3832500Y-6602500I-15000J0D01*
G01*
X3832500Y-6602500D02*
G75*
G02*
X3862500Y-6602500I15000J0D01*
G01*
X3900000Y-3300000D02*
G75*
G02*
X3870000Y-3300000I-15000J0D01*
G01*
X3870000Y-3300000D02*
G75*
G02*
X3900000Y-3300000I15000J0D01*
G01*
X3930000Y-824000D02*
G75*
G02*
X3900000Y-824000I-15000J0D01*
G01*
X3900000Y-824000D02*
G75*
G02*
X3930000Y-824000I15000J0D01*
G01*
X3959400Y-3775740D02*
G75*
G02*
X3929400Y-3775740I-15000J0D01*
G01*
X3929400Y-3775740D02*
G75*
G02*
X3959400Y-3775740I15000J0D01*
G01*
X3980530Y-7105530D02*
G75*
G02*
X3950530Y-7105530I-15000J0D01*
G01*
X3950530Y-7105530D02*
G75*
G02*
X3980530Y-7105530I15000J0D01*
G01*
X4052500Y-6602500D02*
G75*
G02*
X4022500Y-6602500I-15000J0D01*
G01*
X4022500Y-6602500D02*
G75*
G02*
X4052500Y-6602500I15000J0D01*
G01*
X4061620Y-5423720D02*
G75*
G02*
X4031620Y-5423720I-15000J0D01*
G01*
X4031620Y-5423720D02*
G75*
G02*
X4061620Y-5423720I15000J0D01*
G01*
X4090000Y-3300000D02*
G75*
G02*
X4060000Y-3300000I-15000J0D01*
G01*
X4060000Y-3300000D02*
G75*
G02*
X4090000Y-3300000I15000J0D01*
G01*
X4100000Y-6844920D02*
G75*
G02*
X4070000Y-6844920I-15000J0D01*
G01*
X4070000Y-6844920D02*
G75*
G02*
X4100000Y-6844920I15000J0D01*
G01*
X4105000Y-7570000D02*
G75*
G02*
X4075000Y-7570000I-15000J0D01*
G01*
X4075000Y-7570000D02*
G75*
G02*
X4105000Y-7570000I15000J0D01*
G01*
X4122110Y-2286500D02*
G75*
G02*
X4092110Y-2286500I-15000J0D01*
G01*
X4092110Y-2286500D02*
G75*
G02*
X4122110Y-2286500I15000J0D01*
G01*
X4148750Y-2475000D02*
G75*
G02*
X4118750Y-2475000I-15000J0D01*
G01*
X4118750Y-2475000D02*
G75*
G02*
X4148750Y-2475000I15000J0D01*
G01*
X4153080Y-2032550D02*
G75*
G02*
X4123080Y-2032550I-15000J0D01*
G01*
X4123080Y-2032550D02*
G75*
G02*
X4153080Y-2032550I15000J0D01*
G01*
X4170530Y-7105530D02*
G75*
G02*
X4140530Y-7105530I-15000J0D01*
G01*
X4140530Y-7105530D02*
G75*
G02*
X4170530Y-7105530I15000J0D01*
G01*
X4215000Y-1000000D02*
G75*
G02*
X4185000Y-1000000I-15000J0D01*
G01*
X4185000Y-1000000D02*
G75*
G02*
X4215000Y-1000000I15000J0D01*
G01*
X4215000Y-1400000D02*
G75*
G02*
X4185000Y-1400000I-15000J0D01*
G01*
X4185000Y-1400000D02*
G75*
G02*
X4215000Y-1400000I15000J0D01*
G01*
X4215000Y-1800000D02*
G75*
G02*
X4185000Y-1800000I-15000J0D01*
G01*
X4185000Y-1800000D02*
G75*
G02*
X4215000Y-1800000I15000J0D01*
G01*
X4215000Y-2200000D02*
G75*
G02*
X4185000Y-2200000I-15000J0D01*
G01*
X4185000Y-2200000D02*
G75*
G02*
X4215000Y-2200000I15000J0D01*
G01*
X4215000Y-2600000D02*
G75*
G02*
X4185000Y-2600000I-15000J0D01*
G01*
X4185000Y-2600000D02*
G75*
G02*
X4215000Y-2600000I15000J0D01*
G01*
X4215000Y-3000000D02*
G75*
G02*
X4185000Y-3000000I-15000J0D01*
G01*
X4185000Y-3000000D02*
G75*
G02*
X4215000Y-3000000I15000J0D01*
G01*
X4215000Y-3400000D02*
G75*
G02*
X4185000Y-3400000I-15000J0D01*
G01*
X4185000Y-3400000D02*
G75*
G02*
X4215000Y-3400000I15000J0D01*
G01*
X4215000Y-3800000D02*
G75*
G02*
X4185000Y-3800000I-15000J0D01*
G01*
X4185000Y-3800000D02*
G75*
G02*
X4215000Y-3800000I15000J0D01*
G01*
X4215000Y-4200000D02*
G75*
G02*
X4185000Y-4200000I-15000J0D01*
G01*
X4185000Y-4200000D02*
G75*
G02*
X4215000Y-4200000I15000J0D01*
G01*
X4215000Y-4600000D02*
G75*
G02*
X4185000Y-4600000I-15000J0D01*
G01*
X4185000Y-4600000D02*
G75*
G02*
X4215000Y-4600000I15000J0D01*
G01*
X4215000Y-5000000D02*
G75*
G02*
X4185000Y-5000000I-15000J0D01*
G01*
X4185000Y-5000000D02*
G75*
G02*
X4215000Y-5000000I15000J0D01*
G01*
X4215000Y-5400000D02*
G75*
G02*
X4185000Y-5400000I-15000J0D01*
G01*
X4185000Y-5400000D02*
G75*
G02*
X4215000Y-5400000I15000J0D01*
G01*
X4215000Y-5800000D02*
G75*
G02*
X4185000Y-5800000I-15000J0D01*
G01*
X4185000Y-5800000D02*
G75*
G02*
X4215000Y-5800000I15000J0D01*
G01*
X4215000Y-6200000D02*
G75*
G02*
X4185000Y-6200000I-15000J0D01*
G01*
X4185000Y-6200000D02*
G75*
G02*
X4215000Y-6200000I15000J0D01*
G01*
X4215000Y-7000000D02*
G75*
G02*
X4185000Y-7000000I-15000J0D01*
G01*
X4185000Y-7000000D02*
G75*
G02*
X4215000Y-7000000I15000J0D01*
G01*
X4215000Y-7800000D02*
G75*
G02*
X4185000Y-7800000I-15000J0D01*
G01*
X4185000Y-7800000D02*
G75*
G02*
X4215000Y-7800000I15000J0D01*
G01*
X4242500Y-6602500D02*
G75*
G02*
X4212500Y-6602500I-15000J0D01*
G01*
X4212500Y-6602500D02*
G75*
G02*
X4242500Y-6602500I15000J0D01*
G01*
X4255000Y-4300000D02*
G75*
G02*
X4225000Y-4300000I-15000J0D01*
G01*
X4225000Y-4300000D02*
G75*
G02*
X4255000Y-4300000I15000J0D01*
G01*
X4257610Y-7554240D02*
G75*
G02*
X4227610Y-7554240I-15000J0D01*
G01*
X4227610Y-7554240D02*
G75*
G02*
X4257610Y-7554240I15000J0D01*
G01*
X4269710Y-1700690D02*
G75*
G02*
X4239710Y-1700690I-15000J0D01*
G01*
X4239710Y-1700690D02*
G75*
G02*
X4269710Y-1700690I15000J0D01*
G01*
X4290000Y-6844920D02*
G75*
G02*
X4260000Y-6844920I-15000J0D01*
G01*
X4260000Y-6844920D02*
G75*
G02*
X4290000Y-6844920I15000J0D01*
G01*
X4298750Y-7340000D02*
G75*
G02*
X4268750Y-7340000I-15000J0D01*
G01*
X4268750Y-7340000D02*
G75*
G02*
X4298750Y-7340000I15000J0D01*
G01*
X4360550Y-6436890D02*
G75*
G02*
X4330550Y-6436890I-15000J0D01*
G01*
X4330550Y-6436890D02*
G75*
G02*
X4360550Y-6436890I15000J0D01*
G01*
X4371490Y-1536710D02*
G75*
G02*
X4341490Y-1536710I-15000J0D01*
G01*
X4341490Y-1536710D02*
G75*
G02*
X4371490Y-1536710I15000J0D01*
G01*
X4389290Y-6875560D02*
G75*
G02*
X4359290Y-6875560I-15000J0D01*
G01*
X4359290Y-6875560D02*
G75*
G02*
X4389290Y-6875560I15000J0D01*
G01*
X4390000Y-7650000D02*
G75*
G02*
X4360000Y-7650000I-15000J0D01*
G01*
X4360000Y-7650000D02*
G75*
G02*
X4390000Y-7650000I15000J0D01*
G01*
X4432500Y-6352500D02*
G75*
G02*
X4402500Y-6352500I-15000J0D01*
G01*
X4402500Y-6352500D02*
G75*
G02*
X4432500Y-6352500I15000J0D01*
G01*
X4443760Y-3517850D02*
G75*
G02*
X4413760Y-3517850I-15000J0D01*
G01*
X4413760Y-3517850D02*
G75*
G02*
X4443760Y-3517850I15000J0D01*
G01*
X4465000Y-7210080D02*
G75*
G02*
X4435000Y-7210080I-15000J0D01*
G01*
X4435000Y-7210080D02*
G75*
G02*
X4465000Y-7210080I15000J0D01*
G01*
X4497500Y-6647500D02*
G75*
G02*
X4467500Y-6647500I-15000J0D01*
G01*
X4467500Y-6647500D02*
G75*
G02*
X4497500Y-6647500I15000J0D01*
G01*
X4548360Y-7236300D02*
G75*
G02*
X4518360Y-7236300I-15000J0D01*
G01*
X4518360Y-7236300D02*
G75*
G02*
X4548360Y-7236300I15000J0D01*
G01*
X4555000Y-6844920D02*
G75*
G02*
X4525000Y-6844920I-15000J0D01*
G01*
X4525000Y-6844920D02*
G75*
G02*
X4555000Y-6844920I15000J0D01*
G01*
X4561120Y-3311880D02*
G75*
G02*
X4531120Y-3311880I-15000J0D01*
G01*
X4531120Y-3311880D02*
G75*
G02*
X4561120Y-3311880I15000J0D01*
G01*
X4602500Y-6602500D02*
G75*
G02*
X4572500Y-6602500I-15000J0D01*
G01*
X4572500Y-6602500D02*
G75*
G02*
X4602500Y-6602500I15000J0D01*
G01*
X4606660Y-2860370D02*
G75*
G02*
X4576660Y-2860370I-15000J0D01*
G01*
X4576660Y-2860370D02*
G75*
G02*
X4606660Y-2860370I15000J0D01*
G01*
X4615000Y-1000000D02*
G75*
G02*
X4585000Y-1000000I-15000J0D01*
G01*
X4585000Y-1000000D02*
G75*
G02*
X4615000Y-1000000I15000J0D01*
G01*
X4615000Y-1400000D02*
G75*
G02*
X4585000Y-1400000I-15000J0D01*
G01*
X4585000Y-1400000D02*
G75*
G02*
X4615000Y-1400000I15000J0D01*
G01*
X4615000Y-1800000D02*
G75*
G02*
X4585000Y-1800000I-15000J0D01*
G01*
X4585000Y-1800000D02*
G75*
G02*
X4615000Y-1800000I15000J0D01*
G01*
X4615000Y-2200000D02*
G75*
G02*
X4585000Y-2200000I-15000J0D01*
G01*
X4585000Y-2200000D02*
G75*
G02*
X4615000Y-2200000I15000J0D01*
G01*
X4615000Y-2600000D02*
G75*
G02*
X4585000Y-2600000I-15000J0D01*
G01*
X4585000Y-2600000D02*
G75*
G02*
X4615000Y-2600000I15000J0D01*
G01*
X4615000Y-3000000D02*
G75*
G02*
X4585000Y-3000000I-15000J0D01*
G01*
X4585000Y-3000000D02*
G75*
G02*
X4615000Y-3000000I15000J0D01*
G01*
X4615000Y-3400000D02*
G75*
G02*
X4585000Y-3400000I-15000J0D01*
G01*
X4585000Y-3400000D02*
G75*
G02*
X4615000Y-3400000I15000J0D01*
G01*
X4615000Y-3800000D02*
G75*
G02*
X4585000Y-3800000I-15000J0D01*
G01*
X4585000Y-3800000D02*
G75*
G02*
X4615000Y-3800000I15000J0D01*
G01*
X4615000Y-4200000D02*
G75*
G02*
X4585000Y-4200000I-15000J0D01*
G01*
X4585000Y-4200000D02*
G75*
G02*
X4615000Y-4200000I15000J0D01*
G01*
X4615000Y-4600000D02*
G75*
G02*
X4585000Y-4600000I-15000J0D01*
G01*
X4585000Y-4600000D02*
G75*
G02*
X4615000Y-4600000I15000J0D01*
G01*
X4615000Y-5000000D02*
G75*
G02*
X4585000Y-5000000I-15000J0D01*
G01*
X4585000Y-5000000D02*
G75*
G02*
X4615000Y-5000000I15000J0D01*
G01*
X4615000Y-5400000D02*
G75*
G02*
X4585000Y-5400000I-15000J0D01*
G01*
X4585000Y-5400000D02*
G75*
G02*
X4615000Y-5400000I15000J0D01*
G01*
X4615000Y-5800000D02*
G75*
G02*
X4585000Y-5800000I-15000J0D01*
G01*
X4585000Y-5800000D02*
G75*
G02*
X4615000Y-5800000I15000J0D01*
G01*
X4615000Y-6200000D02*
G75*
G02*
X4585000Y-6200000I-15000J0D01*
G01*
X4585000Y-6200000D02*
G75*
G02*
X4615000Y-6200000I15000J0D01*
G01*
X4615000Y-7000000D02*
G75*
G02*
X4585000Y-7000000I-15000J0D01*
G01*
X4585000Y-7000000D02*
G75*
G02*
X4615000Y-7000000I15000J0D01*
G01*
X4615000Y-7400000D02*
G75*
G02*
X4585000Y-7400000I-15000J0D01*
G01*
X4585000Y-7400000D02*
G75*
G02*
X4615000Y-7400000I15000J0D01*
G01*
X4615000Y-7800000D02*
G75*
G02*
X4585000Y-7800000I-15000J0D01*
G01*
X4585000Y-7800000D02*
G75*
G02*
X4615000Y-7800000I15000J0D01*
G01*
X4619390Y-7643050D02*
G75*
G02*
X4589390Y-7643050I-15000J0D01*
G01*
X4589390Y-7643050D02*
G75*
G02*
X4619390Y-7643050I15000J0D01*
G01*
X4620000Y-7730000D02*
G75*
G02*
X4590000Y-7730000I-15000J0D01*
G01*
X4590000Y-7730000D02*
G75*
G02*
X4620000Y-7730000I15000J0D01*
G01*
X4623360Y-1890140D02*
G75*
G02*
X4593360Y-1890140I-15000J0D01*
G01*
X4593360Y-1890140D02*
G75*
G02*
X4623360Y-1890140I15000J0D01*
G01*
X4776400Y-2609260D02*
G75*
G02*
X4746400Y-2609260I-15000J0D01*
G01*
X4746400Y-2609260D02*
G75*
G02*
X4776400Y-2609260I15000J0D01*
G01*
X5015000Y-1000000D02*
G75*
G02*
X4985000Y-1000000I-15000J0D01*
G01*
X4985000Y-1000000D02*
G75*
G02*
X5015000Y-1000000I15000J0D01*
G01*
X5015000Y-1400000D02*
G75*
G02*
X4985000Y-1400000I-15000J0D01*
G01*
X4985000Y-1400000D02*
G75*
G02*
X5015000Y-1400000I15000J0D01*
G01*
X5015000Y-1800000D02*
G75*
G02*
X4985000Y-1800000I-15000J0D01*
G01*
X4985000Y-1800000D02*
G75*
G02*
X5015000Y-1800000I15000J0D01*
G01*
X5015000Y-2200000D02*
G75*
G02*
X4985000Y-2200000I-15000J0D01*
G01*
X4985000Y-2200000D02*
G75*
G02*
X5015000Y-2200000I15000J0D01*
G01*
X5015000Y-2600000D02*
G75*
G02*
X4985000Y-2600000I-15000J0D01*
G01*
X4985000Y-2600000D02*
G75*
G02*
X5015000Y-2600000I15000J0D01*
G01*
X5015000Y-3000000D02*
G75*
G02*
X4985000Y-3000000I-15000J0D01*
G01*
X4985000Y-3000000D02*
G75*
G02*
X5015000Y-3000000I15000J0D01*
G01*
X5015000Y-3400000D02*
G75*
G02*
X4985000Y-3400000I-15000J0D01*
G01*
X4985000Y-3400000D02*
G75*
G02*
X5015000Y-3400000I15000J0D01*
G01*
X5015000Y-3800000D02*
G75*
G02*
X4985000Y-3800000I-15000J0D01*
G01*
X4985000Y-3800000D02*
G75*
G02*
X5015000Y-3800000I15000J0D01*
G01*
X5015000Y-4200000D02*
G75*
G02*
X4985000Y-4200000I-15000J0D01*
G01*
X4985000Y-4200000D02*
G75*
G02*
X5015000Y-4200000I15000J0D01*
G01*
X5015000Y-4600000D02*
G75*
G02*
X4985000Y-4600000I-15000J0D01*
G01*
X4985000Y-4600000D02*
G75*
G02*
X5015000Y-4600000I15000J0D01*
G01*
X5015000Y-5000000D02*
G75*
G02*
X4985000Y-5000000I-15000J0D01*
G01*
X4985000Y-5000000D02*
G75*
G02*
X5015000Y-5000000I15000J0D01*
G01*
X5015000Y-5400000D02*
G75*
G02*
X4985000Y-5400000I-15000J0D01*
G01*
X4985000Y-5400000D02*
G75*
G02*
X5015000Y-5400000I15000J0D01*
G01*
X5015000Y-5800000D02*
G75*
G02*
X4985000Y-5800000I-15000J0D01*
G01*
X4985000Y-5800000D02*
G75*
G02*
X5015000Y-5800000I15000J0D01*
G01*
X5223750Y-1654000D02*
G75*
G02*
X5193750Y-1654000I-15000J0D01*
G01*
X5193750Y-1654000D02*
G75*
G02*
X5223750Y-1654000I15000J0D01*
G01*
X5223750Y-1908000D02*
G75*
G02*
X5193750Y-1908000I-15000J0D01*
G01*
X5193750Y-1908000D02*
G75*
G02*
X5223750Y-1908000I15000J0D01*
G01*
X5415000Y-200000D02*
G75*
G02*
X5385000Y-200000I-15000J0D01*
G01*
X5385000Y-200000D02*
G75*
G02*
X5415000Y-200000I15000J0D01*
G01*
X5415000Y-600000D02*
G75*
G02*
X5385000Y-600000I-15000J0D01*
G01*
X5385000Y-600000D02*
G75*
G02*
X5415000Y-600000I15000J0D01*
G01*
X5415000Y-1000000D02*
G75*
G02*
X5385000Y-1000000I-15000J0D01*
G01*
X5385000Y-1000000D02*
G75*
G02*
X5415000Y-1000000I15000J0D01*
G01*
X5415000Y-2600000D02*
G75*
G02*
X5385000Y-2600000I-15000J0D01*
G01*
X5385000Y-2600000D02*
G75*
G02*
X5415000Y-2600000I15000J0D01*
G01*
X5415000Y-3000000D02*
G75*
G02*
X5385000Y-3000000I-15000J0D01*
G01*
X5385000Y-3000000D02*
G75*
G02*
X5415000Y-3000000I15000J0D01*
G01*
X5415000Y-3400000D02*
G75*
G02*
X5385000Y-3400000I-15000J0D01*
G01*
X5385000Y-3400000D02*
G75*
G02*
X5415000Y-3400000I15000J0D01*
G01*
X5415000Y-3800000D02*
G75*
G02*
X5385000Y-3800000I-15000J0D01*
G01*
X5385000Y-3800000D02*
G75*
G02*
X5415000Y-3800000I15000J0D01*
G01*
X5415000Y-4200000D02*
G75*
G02*
X5385000Y-4200000I-15000J0D01*
G01*
X5385000Y-4200000D02*
G75*
G02*
X5415000Y-4200000I15000J0D01*
G01*
X5415000Y-4600000D02*
G75*
G02*
X5385000Y-4600000I-15000J0D01*
G01*
X5385000Y-4600000D02*
G75*
G02*
X5415000Y-4600000I15000J0D01*
G01*
X5415000Y-5000000D02*
G75*
G02*
X5385000Y-5000000I-15000J0D01*
G01*
X5385000Y-5000000D02*
G75*
G02*
X5415000Y-5000000I15000J0D01*
G01*
X5415000Y-5400000D02*
G75*
G02*
X5385000Y-5400000I-15000J0D01*
G01*
X5385000Y-5400000D02*
G75*
G02*
X5415000Y-5400000I15000J0D01*
G01*
X5415000Y-5800000D02*
G75*
G02*
X5385000Y-5800000I-15000J0D01*
G01*
X5385000Y-5800000D02*
G75*
G02*
X5415000Y-5800000I15000J0D01*
G01*
X5415000Y-6600000D02*
G75*
G02*
X5385000Y-6600000I-15000J0D01*
G01*
X5385000Y-6600000D02*
G75*
G02*
X5415000Y-6600000I15000J0D01*
G01*
X5415000Y-7400000D02*
G75*
G02*
X5385000Y-7400000I-15000J0D01*
G01*
X5385000Y-7400000D02*
G75*
G02*
X5415000Y-7400000I15000J0D01*
G01*
X5415000Y-7800000D02*
G75*
G02*
X5385000Y-7800000I-15000J0D01*
G01*
X5385000Y-7800000D02*
G75*
G02*
X5415000Y-7800000I15000J0D01*
G01*
X5532340Y-2747270D02*
G75*
G02*
X5502340Y-2747270I-15000J0D01*
G01*
X5502340Y-2747270D02*
G75*
G02*
X5532340Y-2747270I15000J0D01*
G01*
X5809930Y-4502760D02*
G75*
G02*
X5779930Y-4502760I-15000J0D01*
G01*
X5779930Y-4502760D02*
G75*
G02*
X5809930Y-4502760I15000J0D01*
G01*
X5815000Y-1000000D02*
G75*
G02*
X5785000Y-1000000I-15000J0D01*
G01*
X5785000Y-1000000D02*
G75*
G02*
X5815000Y-1000000I15000J0D01*
G01*
X5815000Y-1400000D02*
G75*
G02*
X5785000Y-1400000I-15000J0D01*
G01*
X5785000Y-1400000D02*
G75*
G02*
X5815000Y-1400000I15000J0D01*
G01*
X5815000Y-1800000D02*
G75*
G02*
X5785000Y-1800000I-15000J0D01*
G01*
X5785000Y-1800000D02*
G75*
G02*
X5815000Y-1800000I15000J0D01*
G01*
X5815000Y-2200000D02*
G75*
G02*
X5785000Y-2200000I-15000J0D01*
G01*
X5785000Y-2200000D02*
G75*
G02*
X5815000Y-2200000I15000J0D01*
G01*
X5815000Y-2600000D02*
G75*
G02*
X5785000Y-2600000I-15000J0D01*
G01*
X5785000Y-2600000D02*
G75*
G02*
X5815000Y-2600000I15000J0D01*
G01*
X5815000Y-3000000D02*
G75*
G02*
X5785000Y-3000000I-15000J0D01*
G01*
X5785000Y-3000000D02*
G75*
G02*
X5815000Y-3000000I15000J0D01*
G01*
X5815000Y-3400000D02*
G75*
G02*
X5785000Y-3400000I-15000J0D01*
G01*
X5785000Y-3400000D02*
G75*
G02*
X5815000Y-3400000I15000J0D01*
G01*
X5815000Y-3800000D02*
G75*
G02*
X5785000Y-3800000I-15000J0D01*
G01*
X5785000Y-3800000D02*
G75*
G02*
X5815000Y-3800000I15000J0D01*
G01*
X5815000Y-4200000D02*
G75*
G02*
X5785000Y-4200000I-15000J0D01*
G01*
X5785000Y-4200000D02*
G75*
G02*
X5815000Y-4200000I15000J0D01*
G01*
X5815000Y-4600000D02*
G75*
G02*
X5785000Y-4600000I-15000J0D01*
G01*
X5785000Y-4600000D02*
G75*
G02*
X5815000Y-4600000I15000J0D01*
G01*
X5815000Y-5000000D02*
G75*
G02*
X5785000Y-5000000I-15000J0D01*
G01*
X5785000Y-5000000D02*
G75*
G02*
X5815000Y-5000000I15000J0D01*
G01*
X5815000Y-5400000D02*
G75*
G02*
X5785000Y-5400000I-15000J0D01*
G01*
X5785000Y-5400000D02*
G75*
G02*
X5815000Y-5400000I15000J0D01*
G01*
X5815000Y-5800000D02*
G75*
G02*
X5785000Y-5800000I-15000J0D01*
G01*
X5785000Y-5800000D02*
G75*
G02*
X5815000Y-5800000I15000J0D01*
G01*
X5815000Y-6200000D02*
G75*
G02*
X5785000Y-6200000I-15000J0D01*
G01*
X5785000Y-6200000D02*
G75*
G02*
X5815000Y-6200000I15000J0D01*
G01*
X5815000Y-6600000D02*
G75*
G02*
X5785000Y-6600000I-15000J0D01*
G01*
X5785000Y-6600000D02*
G75*
G02*
X5815000Y-6600000I15000J0D01*
G01*
X5815000Y-7000000D02*
G75*
G02*
X5785000Y-7000000I-15000J0D01*
G01*
X5785000Y-7000000D02*
G75*
G02*
X5815000Y-7000000I15000J0D01*
G01*
X5815000Y-7400000D02*
G75*
G02*
X5785000Y-7400000I-15000J0D01*
G01*
X5785000Y-7400000D02*
G75*
G02*
X5815000Y-7400000I15000J0D01*
G01*
X5815000Y-7800000D02*
G75*
G02*
X5785000Y-7800000I-15000J0D01*
G01*
X5785000Y-7800000D02*
G75*
G02*
X5815000Y-7800000I15000J0D01*
G01*
X118000Y-3657000D02*
X118000Y-3717000D01*
X88000Y-3687000D02*
X148000Y-3687000D01*
X88000Y-3632000D02*
X88000Y-3742000D01*
X148000Y-3742000D02*
G75*
G02*
X88000Y-3742000I-30000J0D01*
G01*
X148000Y-3742000D02*
X148000Y-3632000D01*
X148000Y-3632000D02*
G75*
G03*
X88000Y-3632000I-30000J0D01*
G01*
X118000Y-4075000D02*
X118000Y-4135000D01*
X88000Y-4105000D02*
X148000Y-4105000D01*
X88000Y-4075000D02*
X88000Y-4135000D01*
X148000Y-4135000D02*
G75*
G02*
X88000Y-4135000I-30000J0D01*
G01*
X148000Y-4135000D02*
X148000Y-4075000D01*
X148000Y-4075000D02*
G75*
G03*
X88000Y-4075000I-30000J0D01*
G01*
X982000Y-3657000D02*
X982000Y-3717000D01*
X952000Y-3687000D02*
X1012000Y-3687000D01*
X952000Y-3632000D02*
X952000Y-3742000D01*
X1012000Y-3742000D02*
G75*
G02*
X952000Y-3742000I-30000J0D01*
G01*
X1012000Y-3742000D02*
X1012000Y-3632000D01*
X1012000Y-3632000D02*
G75*
G03*
X952000Y-3632000I-30000J0D01*
G01*
X982000Y-4075000D02*
X982000Y-4135000D01*
X952000Y-4105000D02*
X1012000Y-4105000D01*
X952000Y-4075000D02*
X952000Y-4135000D01*
X1012000Y-4135000D02*
G75*
G02*
X952000Y-4135000I-30000J0D01*
G01*
X1012000Y-4135000D02*
X1012000Y-4075000D01*
X1012000Y-4075000D02*
G75*
G03*
X952000Y-4075000I-30000J0D01*
G01*
X485356Y-4835356D02*
X485356Y-4764644D01*
X414644Y-4764644D01*
X414644Y-4835356D01*
X485356Y-4835356D01*
X485356Y-5089356D02*
X485356Y-5018644D01*
X414644Y-5018644D01*
X414644Y-5089356D01*
X485356Y-5089356D01*
X485356Y-5343356D02*
X485356Y-5272644D01*
X414644Y-5272644D01*
X414644Y-5343356D01*
X485356Y-5343356D01*
X485356Y-5735356D02*
X485356Y-5664644D01*
X414644Y-5664644D01*
X414644Y-5735356D01*
X485356Y-5735356D01*
X485356Y-5989356D02*
X485356Y-5918644D01*
X414644Y-5918644D01*
X414644Y-5989356D01*
X485356Y-5989356D01*
X485356Y-6243356D02*
X485356Y-6172644D01*
X414644Y-6172644D01*
X414644Y-6243356D01*
X485356Y-6243356D01*
X1235356Y-4835356D02*
X1235356Y-4764644D01*
X1164644Y-4764644D01*
X1164644Y-4835356D01*
X1235356Y-4835356D01*
X1235356Y-5089356D02*
X1235356Y-5018644D01*
X1164644Y-5018644D01*
X1164644Y-5089356D01*
X1235356Y-5089356D01*
X1235356Y-5735356D02*
X1235356Y-5664644D01*
X1164644Y-5664644D01*
X1164644Y-5735356D01*
X1235356Y-5735356D01*
X1235356Y-5989356D02*
X1235356Y-5918644D01*
X1164644Y-5918644D01*
X1164644Y-5989356D01*
X1235356Y-5989356D01*
X1235356Y-6243356D02*
X1235356Y-6172644D01*
X1164644Y-6172644D01*
X1164644Y-6243356D01*
X1235356Y-6243356D01*
X5685356Y-1435356D02*
X5685356Y-1364644D01*
X5614644Y-1364644D01*
X5614644Y-1435356D01*
X5685356Y-1435356D01*
X5685356Y-1689356D02*
X5685356Y-1618644D01*
X5614644Y-1618644D01*
X5614644Y-1689356D01*
X5685356Y-1689356D01*
X5685356Y-1943356D02*
X5685356Y-1872644D01*
X5614644Y-1872644D01*
X5614644Y-1943356D01*
X5685356Y-1943356D01*
X5685356Y-2197356D02*
X5685356Y-2126644D01*
X5614644Y-2126644D01*
X5614644Y-2197356D01*
X5685356Y-2197356D01*
X5685356Y-2635356D02*
X5685356Y-2564644D01*
X5614644Y-2564644D01*
X5614644Y-2635356D01*
X5685356Y-2635356D01*
X5685356Y-2889356D02*
X5685356Y-2818644D01*
X5614644Y-2818644D01*
X5614644Y-2889356D01*
X5685356Y-2889356D01*
X5685356Y-3143356D02*
X5685356Y-3072644D01*
X5614644Y-3072644D01*
X5614644Y-3143356D01*
X5685356Y-3143356D01*
X5685356Y-3397356D02*
X5685356Y-3326644D01*
X5614644Y-3326644D01*
X5614644Y-3397356D01*
X5685356Y-3397356D01*
X5685356Y-3835356D02*
X5685356Y-3764644D01*
X5614644Y-3764644D01*
X5614644Y-3835356D01*
X5685356Y-3835356D01*
X5685356Y-4089356D02*
X5685356Y-4018644D01*
X5614644Y-4018644D01*
X5614644Y-4089356D01*
X5685356Y-4089356D01*
X5685356Y-4343356D02*
X5685356Y-4272644D01*
X5614644Y-4272644D01*
X5614644Y-4343356D01*
X5685356Y-4343356D01*
X5685356Y-4597356D02*
X5685356Y-4526644D01*
X5614644Y-4526644D01*
X5614644Y-4597356D01*
X5685356Y-4597356D01*
X5685356Y-4851356D02*
X5685356Y-4780644D01*
X5614644Y-4780644D01*
X5614644Y-4851356D01*
X5685356Y-4851356D01*
X5685356Y-5235356D02*
X5685356Y-5164644D01*
X5614644Y-5164644D01*
X5614644Y-5235356D01*
X5685356Y-5235356D01*
X5685356Y-5489356D02*
X5685356Y-5418644D01*
X5614644Y-5418644D01*
X5614644Y-5489356D01*
X5685356Y-5489356D01*
X5685356Y-5743356D02*
X5685356Y-5672644D01*
X5614644Y-5672644D01*
X5614644Y-5743356D01*
X5685356Y-5743356D01*
X5685356Y-5997356D02*
X5685356Y-5926644D01*
X5614644Y-5926644D01*
X5614644Y-5997356D01*
X5685356Y-5997356D01*
X5685356Y-6251356D02*
X5685356Y-6180644D01*
X5614644Y-6180644D01*
X5614644Y-6251356D01*
X5685356Y-6251356D01*
X5685356Y-6505356D02*
X5685356Y-6434644D01*
X5614644Y-6434644D01*
X5614644Y-6505356D01*
X5685356Y-6505356D01*
X5685356Y-6759356D02*
X5685356Y-6688644D01*
X5614644Y-6688644D01*
X5614644Y-6759356D01*
X5685356Y-6759356D01*
X5685356Y-7013356D02*
X5685356Y-6942644D01*
X5614644Y-6942644D01*
X5614644Y-7013356D01*
X5685356Y-7013356D01*
D11*
X258277Y-8313984D02*
X258277Y-8113984D01*
X258277Y-8113984D02*
X305896Y-8113984D01*
X305896Y-8113984D02*
X334467Y-8123508D01*
X334467Y-8123508D02*
X353515Y-8142555D01*
X353515Y-8142555D02*
X363039Y-8161603D01*
X363039Y-8161603D02*
X372562Y-8199698D01*
X372562Y-8199698D02*
X372562Y-8228269D01*
X372562Y-8228269D02*
X363039Y-8266365D01*
X363039Y-8266365D02*
X353515Y-8285412D01*
X353515Y-8285412D02*
X334467Y-8304460D01*
X334467Y-8304460D02*
X305896Y-8313984D01*
X305896Y-8313984D02*
X258277Y-8313984D01*
X458277Y-8313984D02*
X458277Y-8180650D01*
X458277Y-8218746D02*
X467801Y-8199698D01*
X467801Y-8199698D02*
X477324Y-8190174D01*
X477324Y-8190174D02*
X496372Y-8180650D01*
X496372Y-8180650D02*
X515420Y-8180650D01*
X582086Y-8313984D02*
X582086Y-8180650D01*
X582086Y-8113984D02*
X572563Y-8123508D01*
X572563Y-8123508D02*
X582086Y-8133031D01*
X582086Y-8133031D02*
X591610Y-8123508D01*
X591610Y-8123508D02*
X582086Y-8113984D01*
X582086Y-8113984D02*
X582086Y-8133031D01*
X705896Y-8313984D02*
X686848Y-8304460D01*
X686848Y-8304460D02*
X677324Y-8285412D01*
X677324Y-8285412D02*
X677324Y-8113984D01*
X810658Y-8313984D02*
X791610Y-8304460D01*
X791610Y-8304460D02*
X782086Y-8285412D01*
X782086Y-8285412D02*
X782086Y-8113984D01*
X1039229Y-8313984D02*
X1039229Y-8113984D01*
X1039229Y-8113984D02*
X1105896Y-8256841D01*
X1105896Y-8256841D02*
X1172563Y-8113984D01*
X1172563Y-8113984D02*
X1172563Y-8313984D01*
X1353515Y-8313984D02*
X1353515Y-8209222D01*
X1353515Y-8209222D02*
X1343991Y-8190174D01*
X1343991Y-8190174D02*
X1324944Y-8180650D01*
X1324944Y-8180650D02*
X1286848Y-8180650D01*
X1286848Y-8180650D02*
X1267801Y-8190174D01*
X1353515Y-8304460D02*
X1334467Y-8313984D01*
X1334467Y-8313984D02*
X1286848Y-8313984D01*
X1286848Y-8313984D02*
X1267801Y-8304460D01*
X1267801Y-8304460D02*
X1258277Y-8285412D01*
X1258277Y-8285412D02*
X1258277Y-8266365D01*
X1258277Y-8266365D02*
X1267801Y-8247317D01*
X1267801Y-8247317D02*
X1286848Y-8237793D01*
X1286848Y-8237793D02*
X1334467Y-8237793D01*
X1334467Y-8237793D02*
X1353515Y-8228269D01*
X1448753Y-8180650D02*
X1448753Y-8380650D01*
X1448753Y-8190174D02*
X1467801Y-8180650D01*
X1467801Y-8180650D02*
X1505896Y-8180650D01*
X1505896Y-8180650D02*
X1524943Y-8190174D01*
X1524943Y-8190174D02*
X1534467Y-8199698D01*
X1534467Y-8199698D02*
X1543991Y-8218746D01*
X1543991Y-8218746D02*
X1543991Y-8275888D01*
X1543991Y-8275888D02*
X1534467Y-8294936D01*
X1534467Y-8294936D02*
X1524943Y-8304460D01*
X1524943Y-8304460D02*
X1505896Y-8313984D01*
X1505896Y-8313984D02*
X1467801Y-8313984D01*
X1467801Y-8313984D02*
X1448753Y-8304460D01*
X1629705Y-8294936D02*
X1639229Y-8304460D01*
X1639229Y-8304460D02*
X1629705Y-8313984D01*
X1629705Y-8313984D02*
X1620182Y-8304460D01*
X1620182Y-8304460D02*
X1629705Y-8294936D01*
X1629705Y-8294936D02*
X1629705Y-8313984D01*
X1629705Y-8190174D02*
X1639229Y-8199698D01*
X1639229Y-8199698D02*
X1629705Y-8209222D01*
X1629705Y-8209222D02*
X1620182Y-8199698D01*
X1620182Y-8199698D02*
X1629705Y-8190174D01*
X1629705Y-8190174D02*
X1629705Y-8209222D01*
D12*
X-22500Y-8632500D02*
X-2500Y-8652500D01*
X-2500Y-8632500D02*
X-22500Y-8652500D01*
D11*
X296372Y-8533984D02*
X315420Y-8533984D01*
X315420Y-8533984D02*
X334467Y-8543508D01*
X334467Y-8543508D02*
X343991Y-8553031D01*
X343991Y-8553031D02*
X353515Y-8572079D01*
X353515Y-8572079D02*
X363039Y-8610174D01*
X363039Y-8610174D02*
X363039Y-8657793D01*
X363039Y-8657793D02*
X353515Y-8695889D01*
X353515Y-8695889D02*
X343991Y-8714936D01*
X343991Y-8714936D02*
X334467Y-8724460D01*
X334467Y-8724460D02*
X315420Y-8733984D01*
X315420Y-8733984D02*
X296372Y-8733984D01*
X296372Y-8733984D02*
X277324Y-8724460D01*
X277324Y-8724460D02*
X267801Y-8714936D01*
X267801Y-8714936D02*
X258277Y-8695889D01*
X258277Y-8695889D02*
X248753Y-8657793D01*
X248753Y-8657793D02*
X248753Y-8610174D01*
X248753Y-8610174D02*
X258277Y-8572079D01*
X258277Y-8572079D02*
X267801Y-8553031D01*
X267801Y-8553031D02*
X277324Y-8543508D01*
X277324Y-8543508D02*
X296372Y-8533984D01*
X448753Y-8714936D02*
X458277Y-8724460D01*
X458277Y-8724460D02*
X448753Y-8733984D01*
X448753Y-8733984D02*
X439229Y-8724460D01*
X439229Y-8724460D02*
X448753Y-8714936D01*
X448753Y-8714936D02*
X448753Y-8733984D01*
X534467Y-8553031D02*
X543991Y-8543508D01*
X543991Y-8543508D02*
X563039Y-8533984D01*
X563039Y-8533984D02*
X610658Y-8533984D01*
X610658Y-8533984D02*
X629705Y-8543508D01*
X629705Y-8543508D02*
X639229Y-8553031D01*
X639229Y-8553031D02*
X648753Y-8572079D01*
X648753Y-8572079D02*
X648753Y-8591127D01*
X648753Y-8591127D02*
X639229Y-8619698D01*
X639229Y-8619698D02*
X524944Y-8733984D01*
X524944Y-8733984D02*
X648753Y-8733984D01*
X772562Y-8533984D02*
X791610Y-8533984D01*
X791610Y-8533984D02*
X810658Y-8543508D01*
X810658Y-8543508D02*
X820182Y-8553031D01*
X820182Y-8553031D02*
X829705Y-8572079D01*
X829705Y-8572079D02*
X839229Y-8610174D01*
X839229Y-8610174D02*
X839229Y-8657793D01*
X839229Y-8657793D02*
X829705Y-8695889D01*
X829705Y-8695889D02*
X820182Y-8714936D01*
X820182Y-8714936D02*
X810658Y-8724460D01*
X810658Y-8724460D02*
X791610Y-8733984D01*
X791610Y-8733984D02*
X772562Y-8733984D01*
X772562Y-8733984D02*
X753515Y-8724460D01*
X753515Y-8724460D02*
X743991Y-8714936D01*
X743991Y-8714936D02*
X734467Y-8695889D01*
X734467Y-8695889D02*
X724943Y-8657793D01*
X724943Y-8657793D02*
X724943Y-8610174D01*
X724943Y-8610174D02*
X734467Y-8572079D01*
X734467Y-8572079D02*
X743991Y-8553031D01*
X743991Y-8553031D02*
X753515Y-8543508D01*
X753515Y-8543508D02*
X772562Y-8533984D01*
X963039Y-8533984D02*
X982086Y-8533984D01*
X982086Y-8533984D02*
X1001134Y-8543508D01*
X1001134Y-8543508D02*
X1010658Y-8553031D01*
X1010658Y-8553031D02*
X1020182Y-8572079D01*
X1020182Y-8572079D02*
X1029705Y-8610174D01*
X1029705Y-8610174D02*
X1029705Y-8657793D01*
X1029705Y-8657793D02*
X1020182Y-8695889D01*
X1020182Y-8695889D02*
X1010658Y-8714936D01*
X1010658Y-8714936D02*
X1001134Y-8724460D01*
X1001134Y-8724460D02*
X982086Y-8733984D01*
X982086Y-8733984D02*
X963039Y-8733984D01*
X963039Y-8733984D02*
X943991Y-8724460D01*
X943991Y-8724460D02*
X934467Y-8714936D01*
X934467Y-8714936D02*
X924943Y-8695889D01*
X924943Y-8695889D02*
X915420Y-8657793D01*
X915420Y-8657793D02*
X915420Y-8610174D01*
X915420Y-8610174D02*
X924943Y-8572079D01*
X924943Y-8572079D02*
X934467Y-8553031D01*
X934467Y-8553031D02*
X943991Y-8543508D01*
X943991Y-8543508D02*
X963039Y-8533984D01*
X1115420Y-8733984D02*
X1115420Y-8600650D01*
X1115420Y-8619698D02*
X1124944Y-8610174D01*
X1124944Y-8610174D02*
X1143991Y-8600650D01*
X1143991Y-8600650D02*
X1172563Y-8600650D01*
X1172563Y-8600650D02*
X1191610Y-8610174D01*
X1191610Y-8610174D02*
X1201134Y-8629222D01*
X1201134Y-8629222D02*
X1201134Y-8733984D01*
X1201134Y-8629222D02*
X1210658Y-8610174D01*
X1210658Y-8610174D02*
X1229705Y-8600650D01*
X1229705Y-8600650D02*
X1258277Y-8600650D01*
X1258277Y-8600650D02*
X1277325Y-8610174D01*
X1277325Y-8610174D02*
X1286848Y-8629222D01*
X1286848Y-8629222D02*
X1286848Y-8733984D01*
X1382086Y-8733984D02*
X1382086Y-8600650D01*
X1382086Y-8619698D02*
X1391610Y-8610174D01*
X1391610Y-8610174D02*
X1410658Y-8600650D01*
X1410658Y-8600650D02*
X1439229Y-8600650D01*
X1439229Y-8600650D02*
X1458277Y-8610174D01*
X1458277Y-8610174D02*
X1467801Y-8629222D01*
X1467801Y-8629222D02*
X1467801Y-8733984D01*
X1467801Y-8629222D02*
X1477324Y-8610174D01*
X1477324Y-8610174D02*
X1496372Y-8600650D01*
X1496372Y-8600650D02*
X1524943Y-8600650D01*
X1524943Y-8600650D02*
X1543991Y-8610174D01*
X1543991Y-8610174D02*
X1553515Y-8629222D01*
X1553515Y-8629222D02*
X1553515Y-8733984D01*
X1943991Y-8524460D02*
X1772563Y-8781603D01*
X2201134Y-8533984D02*
X2220182Y-8533984D01*
X2220182Y-8533984D02*
X2239229Y-8543508D01*
X2239229Y-8543508D02*
X2248753Y-8553031D01*
X2248753Y-8553031D02*
X2258277Y-8572079D01*
X2258277Y-8572079D02*
X2267801Y-8610174D01*
X2267801Y-8610174D02*
X2267801Y-8657793D01*
X2267801Y-8657793D02*
X2258277Y-8695889D01*
X2258277Y-8695889D02*
X2248753Y-8714936D01*
X2248753Y-8714936D02*
X2239229Y-8724460D01*
X2239229Y-8724460D02*
X2220182Y-8733984D01*
X2220182Y-8733984D02*
X2201134Y-8733984D01*
X2201134Y-8733984D02*
X2182087Y-8724460D01*
X2182087Y-8724460D02*
X2172563Y-8714936D01*
X2172563Y-8714936D02*
X2163039Y-8695889D01*
X2163039Y-8695889D02*
X2153515Y-8657793D01*
X2153515Y-8657793D02*
X2153515Y-8610174D01*
X2153515Y-8610174D02*
X2163039Y-8572079D01*
X2163039Y-8572079D02*
X2172563Y-8553031D01*
X2172563Y-8553031D02*
X2182087Y-8543508D01*
X2182087Y-8543508D02*
X2201134Y-8533984D01*
X2353515Y-8714936D02*
X2363039Y-8724460D01*
X2363039Y-8724460D02*
X2353515Y-8733984D01*
X2353515Y-8733984D02*
X2343991Y-8724460D01*
X2343991Y-8724460D02*
X2353515Y-8714936D01*
X2353515Y-8714936D02*
X2353515Y-8733984D01*
X2486848Y-8533984D02*
X2505896Y-8533984D01*
X2505896Y-8533984D02*
X2524944Y-8543508D01*
X2524944Y-8543508D02*
X2534468Y-8553031D01*
X2534468Y-8553031D02*
X2543991Y-8572079D01*
X2543991Y-8572079D02*
X2553515Y-8610174D01*
X2553515Y-8610174D02*
X2553515Y-8657793D01*
X2553515Y-8657793D02*
X2543991Y-8695889D01*
X2543991Y-8695889D02*
X2534468Y-8714936D01*
X2534468Y-8714936D02*
X2524944Y-8724460D01*
X2524944Y-8724460D02*
X2505896Y-8733984D01*
X2505896Y-8733984D02*
X2486848Y-8733984D01*
X2486848Y-8733984D02*
X2467801Y-8724460D01*
X2467801Y-8724460D02*
X2458277Y-8714936D01*
X2458277Y-8714936D02*
X2448753Y-8695889D01*
X2448753Y-8695889D02*
X2439229Y-8657793D01*
X2439229Y-8657793D02*
X2439229Y-8610174D01*
X2439229Y-8610174D02*
X2448753Y-8572079D01*
X2448753Y-8572079D02*
X2458277Y-8553031D01*
X2458277Y-8553031D02*
X2467801Y-8543508D01*
X2467801Y-8543508D02*
X2486848Y-8533984D01*
X2677325Y-8533984D02*
X2696372Y-8533984D01*
X2696372Y-8533984D02*
X2715420Y-8543508D01*
X2715420Y-8543508D02*
X2724944Y-8553031D01*
X2724944Y-8553031D02*
X2734468Y-8572079D01*
X2734468Y-8572079D02*
X2743991Y-8610174D01*
X2743991Y-8610174D02*
X2743991Y-8657793D01*
X2743991Y-8657793D02*
X2734468Y-8695889D01*
X2734468Y-8695889D02*
X2724944Y-8714936D01*
X2724944Y-8714936D02*
X2715420Y-8724460D01*
X2715420Y-8724460D02*
X2696372Y-8733984D01*
X2696372Y-8733984D02*
X2677325Y-8733984D01*
X2677325Y-8733984D02*
X2658277Y-8724460D01*
X2658277Y-8724460D02*
X2648753Y-8714936D01*
X2648753Y-8714936D02*
X2639229Y-8695889D01*
X2639229Y-8695889D02*
X2629706Y-8657793D01*
X2629706Y-8657793D02*
X2629706Y-8610174D01*
X2629706Y-8610174D02*
X2639229Y-8572079D01*
X2639229Y-8572079D02*
X2648753Y-8553031D01*
X2648753Y-8553031D02*
X2658277Y-8543508D01*
X2658277Y-8543508D02*
X2677325Y-8533984D01*
X2810658Y-8533984D02*
X2943991Y-8533984D01*
X2943991Y-8533984D02*
X2858277Y-8733984D01*
X3029706Y-8733984D02*
X3067801Y-8733984D01*
X3067801Y-8733984D02*
X3086848Y-8724460D01*
X3086848Y-8724460D02*
X3096372Y-8714936D01*
X3096372Y-8714936D02*
X3115420Y-8686365D01*
X3115420Y-8686365D02*
X3124944Y-8648270D01*
X3124944Y-8648270D02*
X3124944Y-8572079D01*
X3124944Y-8572079D02*
X3115420Y-8553031D01*
X3115420Y-8553031D02*
X3105896Y-8543508D01*
X3105896Y-8543508D02*
X3086848Y-8533984D01*
X3086848Y-8533984D02*
X3048753Y-8533984D01*
X3048753Y-8533984D02*
X3029706Y-8543508D01*
X3029706Y-8543508D02*
X3020182Y-8553031D01*
X3020182Y-8553031D02*
X3010658Y-8572079D01*
X3010658Y-8572079D02*
X3010658Y-8619698D01*
X3010658Y-8619698D02*
X3020182Y-8638746D01*
X3020182Y-8638746D02*
X3029706Y-8648270D01*
X3029706Y-8648270D02*
X3048753Y-8657793D01*
X3048753Y-8657793D02*
X3086848Y-8657793D01*
X3086848Y-8657793D02*
X3105896Y-8648270D01*
X3105896Y-8648270D02*
X3115420Y-8638746D01*
X3115420Y-8638746D02*
X3124944Y-8619698D01*
X3201134Y-8533984D02*
X3201134Y-8572079D01*
X3277325Y-8533984D02*
X3277325Y-8572079D01*
X3572563Y-8810174D02*
X3563039Y-8800650D01*
X3563039Y-8800650D02*
X3543991Y-8772079D01*
X3543991Y-8772079D02*
X3534468Y-8753031D01*
X3534468Y-8753031D02*
X3524944Y-8724460D01*
X3524944Y-8724460D02*
X3515420Y-8676841D01*
X3515420Y-8676841D02*
X3515420Y-8638746D01*
X3515420Y-8638746D02*
X3524944Y-8591127D01*
X3524944Y-8591127D02*
X3534468Y-8562555D01*
X3534468Y-8562555D02*
X3543991Y-8543508D01*
X3543991Y-8543508D02*
X3563039Y-8514936D01*
X3563039Y-8514936D02*
X3572563Y-8505412D01*
X3753515Y-8733984D02*
X3639229Y-8733984D01*
X3696372Y-8733984D02*
X3696372Y-8533984D01*
X3696372Y-8533984D02*
X3677325Y-8562555D01*
X3677325Y-8562555D02*
X3658277Y-8581603D01*
X3658277Y-8581603D02*
X3639229Y-8591127D01*
X3829706Y-8553031D02*
X3839229Y-8543508D01*
X3839229Y-8543508D02*
X3858277Y-8533984D01*
X3858277Y-8533984D02*
X3905896Y-8533984D01*
X3905896Y-8533984D02*
X3924944Y-8543508D01*
X3924944Y-8543508D02*
X3934468Y-8553031D01*
X3934468Y-8553031D02*
X3943991Y-8572079D01*
X3943991Y-8572079D02*
X3943991Y-8591127D01*
X3943991Y-8591127D02*
X3934468Y-8619698D01*
X3934468Y-8619698D02*
X3820182Y-8733984D01*
X3820182Y-8733984D02*
X3943991Y-8733984D01*
X4182087Y-8733984D02*
X4182087Y-8533984D01*
X4267801Y-8733984D02*
X4267801Y-8629222D01*
X4267801Y-8629222D02*
X4258277Y-8610174D01*
X4258277Y-8610174D02*
X4239230Y-8600650D01*
X4239230Y-8600650D02*
X4210658Y-8600650D01*
X4210658Y-8600650D02*
X4191610Y-8610174D01*
X4191610Y-8610174D02*
X4182087Y-8619698D01*
X4391611Y-8733984D02*
X4372563Y-8724460D01*
X4372563Y-8724460D02*
X4363039Y-8714936D01*
X4363039Y-8714936D02*
X4353515Y-8695889D01*
X4353515Y-8695889D02*
X4353515Y-8638746D01*
X4353515Y-8638746D02*
X4363039Y-8619698D01*
X4363039Y-8619698D02*
X4372563Y-8610174D01*
X4372563Y-8610174D02*
X4391611Y-8600650D01*
X4391611Y-8600650D02*
X4420182Y-8600650D01*
X4420182Y-8600650D02*
X4439230Y-8610174D01*
X4439230Y-8610174D02*
X4448753Y-8619698D01*
X4448753Y-8619698D02*
X4458277Y-8638746D01*
X4458277Y-8638746D02*
X4458277Y-8695889D01*
X4458277Y-8695889D02*
X4448753Y-8714936D01*
X4448753Y-8714936D02*
X4439230Y-8724460D01*
X4439230Y-8724460D02*
X4420182Y-8733984D01*
X4420182Y-8733984D02*
X4391611Y-8733984D01*
X4572563Y-8733984D02*
X4553515Y-8724460D01*
X4553515Y-8724460D02*
X4543992Y-8705412D01*
X4543992Y-8705412D02*
X4543992Y-8533984D01*
X4724944Y-8724460D02*
X4705896Y-8733984D01*
X4705896Y-8733984D02*
X4667801Y-8733984D01*
X4667801Y-8733984D02*
X4648753Y-8724460D01*
X4648753Y-8724460D02*
X4639230Y-8705412D01*
X4639230Y-8705412D02*
X4639230Y-8629222D01*
X4639230Y-8629222D02*
X4648753Y-8610174D01*
X4648753Y-8610174D02*
X4667801Y-8600650D01*
X4667801Y-8600650D02*
X4705896Y-8600650D01*
X4705896Y-8600650D02*
X4724944Y-8610174D01*
X4724944Y-8610174D02*
X4734468Y-8629222D01*
X4734468Y-8629222D02*
X4734468Y-8648270D01*
X4734468Y-8648270D02*
X4639230Y-8667317D01*
X4810658Y-8724460D02*
X4829706Y-8733984D01*
X4829706Y-8733984D02*
X4867801Y-8733984D01*
X4867801Y-8733984D02*
X4886849Y-8724460D01*
X4886849Y-8724460D02*
X4896373Y-8705412D01*
X4896373Y-8705412D02*
X4896373Y-8695889D01*
X4896373Y-8695889D02*
X4886849Y-8676841D01*
X4886849Y-8676841D02*
X4867801Y-8667317D01*
X4867801Y-8667317D02*
X4839230Y-8667317D01*
X4839230Y-8667317D02*
X4820182Y-8657793D01*
X4820182Y-8657793D02*
X4810658Y-8638746D01*
X4810658Y-8638746D02*
X4810658Y-8629222D01*
X4810658Y-8629222D02*
X4820182Y-8610174D01*
X4820182Y-8610174D02*
X4839230Y-8600650D01*
X4839230Y-8600650D02*
X4867801Y-8600650D01*
X4867801Y-8600650D02*
X4886849Y-8610174D01*
X4963039Y-8810174D02*
X4972563Y-8800650D01*
X4972563Y-8800650D02*
X4991611Y-8772079D01*
X4991611Y-8772079D02*
X5001134Y-8753031D01*
X5001134Y-8753031D02*
X5010658Y-8724460D01*
X5010658Y-8724460D02*
X5020182Y-8676841D01*
X5020182Y-8676841D02*
X5020182Y-8638746D01*
X5020182Y-8638746D02*
X5010658Y-8591127D01*
X5010658Y-8591127D02*
X5001134Y-8562555D01*
X5001134Y-8562555D02*
X4991611Y-8543508D01*
X4991611Y-8543508D02*
X4972563Y-8514936D01*
X4972563Y-8514936D02*
X4963039Y-8505412D01*
D12*
X-2500Y-8906500D02*
G75*
G02*
X-32500Y-8906500I-15000J0D01*
G01*
X-32500Y-8906500D02*
G75*
G02*
X-2500Y-8906500I15000J0D01*
G01*
D11*
X296372Y-8797984D02*
X315420Y-8797984D01*
X315420Y-8797984D02*
X334467Y-8807508D01*
X334467Y-8807508D02*
X343991Y-8817031D01*
X343991Y-8817031D02*
X353515Y-8836079D01*
X353515Y-8836079D02*
X363039Y-8874174D01*
X363039Y-8874174D02*
X363039Y-8921793D01*
X363039Y-8921793D02*
X353515Y-8959889D01*
X353515Y-8959889D02*
X343991Y-8978936D01*
X343991Y-8978936D02*
X334467Y-8988460D01*
X334467Y-8988460D02*
X315420Y-8997984D01*
X315420Y-8997984D02*
X296372Y-8997984D01*
X296372Y-8997984D02*
X277324Y-8988460D01*
X277324Y-8988460D02*
X267801Y-8978936D01*
X267801Y-8978936D02*
X258277Y-8959889D01*
X258277Y-8959889D02*
X248753Y-8921793D01*
X248753Y-8921793D02*
X248753Y-8874174D01*
X248753Y-8874174D02*
X258277Y-8836079D01*
X258277Y-8836079D02*
X267801Y-8817031D01*
X267801Y-8817031D02*
X277324Y-8807508D01*
X277324Y-8807508D02*
X296372Y-8797984D01*
X448753Y-8978936D02*
X458277Y-8988460D01*
X458277Y-8988460D02*
X448753Y-8997984D01*
X448753Y-8997984D02*
X439229Y-8988460D01*
X439229Y-8988460D02*
X448753Y-8978936D01*
X448753Y-8978936D02*
X448753Y-8997984D01*
X524944Y-8797984D02*
X648753Y-8797984D01*
X648753Y-8797984D02*
X582086Y-8874174D01*
X582086Y-8874174D02*
X610658Y-8874174D01*
X610658Y-8874174D02*
X629705Y-8883698D01*
X629705Y-8883698D02*
X639229Y-8893222D01*
X639229Y-8893222D02*
X648753Y-8912270D01*
X648753Y-8912270D02*
X648753Y-8959889D01*
X648753Y-8959889D02*
X639229Y-8978936D01*
X639229Y-8978936D02*
X629705Y-8988460D01*
X629705Y-8988460D02*
X610658Y-8997984D01*
X610658Y-8997984D02*
X553515Y-8997984D01*
X553515Y-8997984D02*
X534467Y-8988460D01*
X534467Y-8988460D02*
X524944Y-8978936D01*
X772562Y-8797984D02*
X791610Y-8797984D01*
X791610Y-8797984D02*
X810658Y-8807508D01*
X810658Y-8807508D02*
X820182Y-8817031D01*
X820182Y-8817031D02*
X829705Y-8836079D01*
X829705Y-8836079D02*
X839229Y-8874174D01*
X839229Y-8874174D02*
X839229Y-8921793D01*
X839229Y-8921793D02*
X829705Y-8959889D01*
X829705Y-8959889D02*
X820182Y-8978936D01*
X820182Y-8978936D02*
X810658Y-8988460D01*
X810658Y-8988460D02*
X791610Y-8997984D01*
X791610Y-8997984D02*
X772562Y-8997984D01*
X772562Y-8997984D02*
X753515Y-8988460D01*
X753515Y-8988460D02*
X743991Y-8978936D01*
X743991Y-8978936D02*
X734467Y-8959889D01*
X734467Y-8959889D02*
X724943Y-8921793D01*
X724943Y-8921793D02*
X724943Y-8874174D01*
X724943Y-8874174D02*
X734467Y-8836079D01*
X734467Y-8836079D02*
X743991Y-8817031D01*
X743991Y-8817031D02*
X753515Y-8807508D01*
X753515Y-8807508D02*
X772562Y-8797984D01*
X963039Y-8797984D02*
X982086Y-8797984D01*
X982086Y-8797984D02*
X1001134Y-8807508D01*
X1001134Y-8807508D02*
X1010658Y-8817031D01*
X1010658Y-8817031D02*
X1020182Y-8836079D01*
X1020182Y-8836079D02*
X1029705Y-8874174D01*
X1029705Y-8874174D02*
X1029705Y-8921793D01*
X1029705Y-8921793D02*
X1020182Y-8959889D01*
X1020182Y-8959889D02*
X1010658Y-8978936D01*
X1010658Y-8978936D02*
X1001134Y-8988460D01*
X1001134Y-8988460D02*
X982086Y-8997984D01*
X982086Y-8997984D02*
X963039Y-8997984D01*
X963039Y-8997984D02*
X943991Y-8988460D01*
X943991Y-8988460D02*
X934467Y-8978936D01*
X934467Y-8978936D02*
X924943Y-8959889D01*
X924943Y-8959889D02*
X915420Y-8921793D01*
X915420Y-8921793D02*
X915420Y-8874174D01*
X915420Y-8874174D02*
X924943Y-8836079D01*
X924943Y-8836079D02*
X934467Y-8817031D01*
X934467Y-8817031D02*
X943991Y-8807508D01*
X943991Y-8807508D02*
X963039Y-8797984D01*
X1115420Y-8997984D02*
X1115420Y-8864650D01*
X1115420Y-8883698D02*
X1124944Y-8874174D01*
X1124944Y-8874174D02*
X1143991Y-8864650D01*
X1143991Y-8864650D02*
X1172563Y-8864650D01*
X1172563Y-8864650D02*
X1191610Y-8874174D01*
X1191610Y-8874174D02*
X1201134Y-8893222D01*
X1201134Y-8893222D02*
X1201134Y-8997984D01*
X1201134Y-8893222D02*
X1210658Y-8874174D01*
X1210658Y-8874174D02*
X1229705Y-8864650D01*
X1229705Y-8864650D02*
X1258277Y-8864650D01*
X1258277Y-8864650D02*
X1277325Y-8874174D01*
X1277325Y-8874174D02*
X1286848Y-8893222D01*
X1286848Y-8893222D02*
X1286848Y-8997984D01*
X1382086Y-8997984D02*
X1382086Y-8864650D01*
X1382086Y-8883698D02*
X1391610Y-8874174D01*
X1391610Y-8874174D02*
X1410658Y-8864650D01*
X1410658Y-8864650D02*
X1439229Y-8864650D01*
X1439229Y-8864650D02*
X1458277Y-8874174D01*
X1458277Y-8874174D02*
X1467801Y-8893222D01*
X1467801Y-8893222D02*
X1467801Y-8997984D01*
X1467801Y-8893222D02*
X1477324Y-8874174D01*
X1477324Y-8874174D02*
X1496372Y-8864650D01*
X1496372Y-8864650D02*
X1524943Y-8864650D01*
X1524943Y-8864650D02*
X1543991Y-8874174D01*
X1543991Y-8874174D02*
X1553515Y-8893222D01*
X1553515Y-8893222D02*
X1553515Y-8997984D01*
X1943991Y-8788460D02*
X1772563Y-9045603D01*
X2201134Y-8797984D02*
X2220182Y-8797984D01*
X2220182Y-8797984D02*
X2239229Y-8807508D01*
X2239229Y-8807508D02*
X2248753Y-8817031D01*
X2248753Y-8817031D02*
X2258277Y-8836079D01*
X2258277Y-8836079D02*
X2267801Y-8874174D01*
X2267801Y-8874174D02*
X2267801Y-8921793D01*
X2267801Y-8921793D02*
X2258277Y-8959889D01*
X2258277Y-8959889D02*
X2248753Y-8978936D01*
X2248753Y-8978936D02*
X2239229Y-8988460D01*
X2239229Y-8988460D02*
X2220182Y-8997984D01*
X2220182Y-8997984D02*
X2201134Y-8997984D01*
X2201134Y-8997984D02*
X2182087Y-8988460D01*
X2182087Y-8988460D02*
X2172563Y-8978936D01*
X2172563Y-8978936D02*
X2163039Y-8959889D01*
X2163039Y-8959889D02*
X2153515Y-8921793D01*
X2153515Y-8921793D02*
X2153515Y-8874174D01*
X2153515Y-8874174D02*
X2163039Y-8836079D01*
X2163039Y-8836079D02*
X2172563Y-8817031D01*
X2172563Y-8817031D02*
X2182087Y-8807508D01*
X2182087Y-8807508D02*
X2201134Y-8797984D01*
X2353515Y-8978936D02*
X2363039Y-8988460D01*
X2363039Y-8988460D02*
X2353515Y-8997984D01*
X2353515Y-8997984D02*
X2343991Y-8988460D01*
X2343991Y-8988460D02*
X2353515Y-8978936D01*
X2353515Y-8978936D02*
X2353515Y-8997984D01*
X2486848Y-8797984D02*
X2505896Y-8797984D01*
X2505896Y-8797984D02*
X2524944Y-8807508D01*
X2524944Y-8807508D02*
X2534468Y-8817031D01*
X2534468Y-8817031D02*
X2543991Y-8836079D01*
X2543991Y-8836079D02*
X2553515Y-8874174D01*
X2553515Y-8874174D02*
X2553515Y-8921793D01*
X2553515Y-8921793D02*
X2543991Y-8959889D01*
X2543991Y-8959889D02*
X2534468Y-8978936D01*
X2534468Y-8978936D02*
X2524944Y-8988460D01*
X2524944Y-8988460D02*
X2505896Y-8997984D01*
X2505896Y-8997984D02*
X2486848Y-8997984D01*
X2486848Y-8997984D02*
X2467801Y-8988460D01*
X2467801Y-8988460D02*
X2458277Y-8978936D01*
X2458277Y-8978936D02*
X2448753Y-8959889D01*
X2448753Y-8959889D02*
X2439229Y-8921793D01*
X2439229Y-8921793D02*
X2439229Y-8874174D01*
X2439229Y-8874174D02*
X2448753Y-8836079D01*
X2448753Y-8836079D02*
X2458277Y-8817031D01*
X2458277Y-8817031D02*
X2467801Y-8807508D01*
X2467801Y-8807508D02*
X2486848Y-8797984D01*
X2743991Y-8997984D02*
X2629706Y-8997984D01*
X2686848Y-8997984D02*
X2686848Y-8797984D01*
X2686848Y-8797984D02*
X2667801Y-8826555D01*
X2667801Y-8826555D02*
X2648753Y-8845603D01*
X2648753Y-8845603D02*
X2629706Y-8855127D01*
X2934467Y-8997984D02*
X2820182Y-8997984D01*
X2877325Y-8997984D02*
X2877325Y-8797984D01*
X2877325Y-8797984D02*
X2858277Y-8826555D01*
X2858277Y-8826555D02*
X2839229Y-8845603D01*
X2839229Y-8845603D02*
X2820182Y-8855127D01*
X3048753Y-8883698D02*
X3029706Y-8874174D01*
X3029706Y-8874174D02*
X3020182Y-8864650D01*
X3020182Y-8864650D02*
X3010658Y-8845603D01*
X3010658Y-8845603D02*
X3010658Y-8836079D01*
X3010658Y-8836079D02*
X3020182Y-8817031D01*
X3020182Y-8817031D02*
X3029706Y-8807508D01*
X3029706Y-8807508D02*
X3048753Y-8797984D01*
X3048753Y-8797984D02*
X3086848Y-8797984D01*
X3086848Y-8797984D02*
X3105896Y-8807508D01*
X3105896Y-8807508D02*
X3115420Y-8817031D01*
X3115420Y-8817031D02*
X3124944Y-8836079D01*
X3124944Y-8836079D02*
X3124944Y-8845603D01*
X3124944Y-8845603D02*
X3115420Y-8864650D01*
X3115420Y-8864650D02*
X3105896Y-8874174D01*
X3105896Y-8874174D02*
X3086848Y-8883698D01*
X3086848Y-8883698D02*
X3048753Y-8883698D01*
X3048753Y-8883698D02*
X3029706Y-8893222D01*
X3029706Y-8893222D02*
X3020182Y-8902746D01*
X3020182Y-8902746D02*
X3010658Y-8921793D01*
X3010658Y-8921793D02*
X3010658Y-8959889D01*
X3010658Y-8959889D02*
X3020182Y-8978936D01*
X3020182Y-8978936D02*
X3029706Y-8988460D01*
X3029706Y-8988460D02*
X3048753Y-8997984D01*
X3048753Y-8997984D02*
X3086848Y-8997984D01*
X3086848Y-8997984D02*
X3105896Y-8988460D01*
X3105896Y-8988460D02*
X3115420Y-8978936D01*
X3115420Y-8978936D02*
X3124944Y-8959889D01*
X3124944Y-8959889D02*
X3124944Y-8921793D01*
X3124944Y-8921793D02*
X3115420Y-8902746D01*
X3115420Y-8902746D02*
X3105896Y-8893222D01*
X3105896Y-8893222D02*
X3086848Y-8883698D01*
X3201134Y-8797984D02*
X3201134Y-8836079D01*
X3277325Y-8797984D02*
X3277325Y-8836079D01*
X3572563Y-9074174D02*
X3563039Y-9064650D01*
X3563039Y-9064650D02*
X3543991Y-9036079D01*
X3543991Y-9036079D02*
X3534468Y-9017031D01*
X3534468Y-9017031D02*
X3524944Y-8988460D01*
X3524944Y-8988460D02*
X3515420Y-8940841D01*
X3515420Y-8940841D02*
X3515420Y-8902746D01*
X3515420Y-8902746D02*
X3524944Y-8855127D01*
X3524944Y-8855127D02*
X3534468Y-8826555D01*
X3534468Y-8826555D02*
X3543991Y-8807508D01*
X3543991Y-8807508D02*
X3563039Y-8778936D01*
X3563039Y-8778936D02*
X3572563Y-8769412D01*
X3629706Y-8797984D02*
X3753515Y-8797984D01*
X3753515Y-8797984D02*
X3686848Y-8874174D01*
X3686848Y-8874174D02*
X3715420Y-8874174D01*
X3715420Y-8874174D02*
X3734468Y-8883698D01*
X3734468Y-8883698D02*
X3743991Y-8893222D01*
X3743991Y-8893222D02*
X3753515Y-8912270D01*
X3753515Y-8912270D02*
X3753515Y-8959889D01*
X3753515Y-8959889D02*
X3743991Y-8978936D01*
X3743991Y-8978936D02*
X3734468Y-8988460D01*
X3734468Y-8988460D02*
X3715420Y-8997984D01*
X3715420Y-8997984D02*
X3658277Y-8997984D01*
X3658277Y-8997984D02*
X3639229Y-8988460D01*
X3639229Y-8988460D02*
X3629706Y-8978936D01*
X3820182Y-8797984D02*
X3943991Y-8797984D01*
X3943991Y-8797984D02*
X3877325Y-8874174D01*
X3877325Y-8874174D02*
X3905896Y-8874174D01*
X3905896Y-8874174D02*
X3924944Y-8883698D01*
X3924944Y-8883698D02*
X3934468Y-8893222D01*
X3934468Y-8893222D02*
X3943991Y-8912270D01*
X3943991Y-8912270D02*
X3943991Y-8959889D01*
X3943991Y-8959889D02*
X3934468Y-8978936D01*
X3934468Y-8978936D02*
X3924944Y-8988460D01*
X3924944Y-8988460D02*
X3905896Y-8997984D01*
X3905896Y-8997984D02*
X3848753Y-8997984D01*
X3848753Y-8997984D02*
X3829706Y-8988460D01*
X3829706Y-8988460D02*
X3820182Y-8978936D01*
X4039229Y-8997984D02*
X4077325Y-8997984D01*
X4077325Y-8997984D02*
X4096372Y-8988460D01*
X4096372Y-8988460D02*
X4105896Y-8978936D01*
X4105896Y-8978936D02*
X4124944Y-8950365D01*
X4124944Y-8950365D02*
X4134468Y-8912270D01*
X4134468Y-8912270D02*
X4134468Y-8836079D01*
X4134468Y-8836079D02*
X4124944Y-8817031D01*
X4124944Y-8817031D02*
X4115420Y-8807508D01*
X4115420Y-8807508D02*
X4096372Y-8797984D01*
X4096372Y-8797984D02*
X4058277Y-8797984D01*
X4058277Y-8797984D02*
X4039229Y-8807508D01*
X4039229Y-8807508D02*
X4029706Y-8817031D01*
X4029706Y-8817031D02*
X4020182Y-8836079D01*
X4020182Y-8836079D02*
X4020182Y-8883698D01*
X4020182Y-8883698D02*
X4029706Y-8902746D01*
X4029706Y-8902746D02*
X4039229Y-8912270D01*
X4039229Y-8912270D02*
X4058277Y-8921793D01*
X4058277Y-8921793D02*
X4096372Y-8921793D01*
X4096372Y-8921793D02*
X4115420Y-8912270D01*
X4115420Y-8912270D02*
X4124944Y-8902746D01*
X4124944Y-8902746D02*
X4134468Y-8883698D01*
X4372563Y-8997984D02*
X4372563Y-8797984D01*
X4458277Y-8997984D02*
X4458277Y-8893222D01*
X4458277Y-8893222D02*
X4448753Y-8874174D01*
X4448753Y-8874174D02*
X4429706Y-8864650D01*
X4429706Y-8864650D02*
X4401134Y-8864650D01*
X4401134Y-8864650D02*
X4382087Y-8874174D01*
X4382087Y-8874174D02*
X4372563Y-8883698D01*
X4582087Y-8997984D02*
X4563039Y-8988460D01*
X4563039Y-8988460D02*
X4553515Y-8978936D01*
X4553515Y-8978936D02*
X4543992Y-8959889D01*
X4543992Y-8959889D02*
X4543992Y-8902746D01*
X4543992Y-8902746D02*
X4553515Y-8883698D01*
X4553515Y-8883698D02*
X4563039Y-8874174D01*
X4563039Y-8874174D02*
X4582087Y-8864650D01*
X4582087Y-8864650D02*
X4610658Y-8864650D01*
X4610658Y-8864650D02*
X4629706Y-8874174D01*
X4629706Y-8874174D02*
X4639230Y-8883698D01*
X4639230Y-8883698D02*
X4648753Y-8902746D01*
X4648753Y-8902746D02*
X4648753Y-8959889D01*
X4648753Y-8959889D02*
X4639230Y-8978936D01*
X4639230Y-8978936D02*
X4629706Y-8988460D01*
X4629706Y-8988460D02*
X4610658Y-8997984D01*
X4610658Y-8997984D02*
X4582087Y-8997984D01*
X4763039Y-8997984D02*
X4743992Y-8988460D01*
X4743992Y-8988460D02*
X4734468Y-8969412D01*
X4734468Y-8969412D02*
X4734468Y-8797984D01*
X4915420Y-8988460D02*
X4896373Y-8997984D01*
X4896373Y-8997984D02*
X4858277Y-8997984D01*
X4858277Y-8997984D02*
X4839230Y-8988460D01*
X4839230Y-8988460D02*
X4829706Y-8969412D01*
X4829706Y-8969412D02*
X4829706Y-8893222D01*
X4829706Y-8893222D02*
X4839230Y-8874174D01*
X4839230Y-8874174D02*
X4858277Y-8864650D01*
X4858277Y-8864650D02*
X4896373Y-8864650D01*
X4896373Y-8864650D02*
X4915420Y-8874174D01*
X4915420Y-8874174D02*
X4924944Y-8893222D01*
X4924944Y-8893222D02*
X4924944Y-8912270D01*
X4924944Y-8912270D02*
X4829706Y-8931317D01*
X5001134Y-8988460D02*
X5020182Y-8997984D01*
X5020182Y-8997984D02*
X5058277Y-8997984D01*
X5058277Y-8997984D02*
X5077325Y-8988460D01*
X5077325Y-8988460D02*
X5086849Y-8969412D01*
X5086849Y-8969412D02*
X5086849Y-8959889D01*
X5086849Y-8959889D02*
X5077325Y-8940841D01*
X5077325Y-8940841D02*
X5058277Y-8931317D01*
X5058277Y-8931317D02*
X5029706Y-8931317D01*
X5029706Y-8931317D02*
X5010658Y-8921793D01*
X5010658Y-8921793D02*
X5001134Y-8902746D01*
X5001134Y-8902746D02*
X5001134Y-8893222D01*
X5001134Y-8893222D02*
X5010658Y-8874174D01*
X5010658Y-8874174D02*
X5029706Y-8864650D01*
X5029706Y-8864650D02*
X5058277Y-8864650D01*
X5058277Y-8864650D02*
X5077325Y-8874174D01*
X5153515Y-9074174D02*
X5163039Y-9064650D01*
X5163039Y-9064650D02*
X5182087Y-9036079D01*
X5182087Y-9036079D02*
X5191611Y-9017031D01*
X5191611Y-9017031D02*
X5201134Y-8988460D01*
X5201134Y-8988460D02*
X5210658Y-8940841D01*
X5210658Y-8940841D02*
X5210658Y-8902746D01*
X5210658Y-8902746D02*
X5201134Y-8855127D01*
X5201134Y-8855127D02*
X5191611Y-8826555D01*
X5191611Y-8826555D02*
X5182087Y-8807508D01*
X5182087Y-8807508D02*
X5163039Y-8778936D01*
X5163039Y-8778936D02*
X5153515Y-8769412D01*
D12*
X-32500Y-9140500D02*
X-32500Y-9200500D01*
X-62500Y-9170500D02*
X-2500Y-9170500D01*
D11*
X296372Y-9061984D02*
X315420Y-9061984D01*
X315420Y-9061984D02*
X334467Y-9071508D01*
X334467Y-9071508D02*
X343991Y-9081031D01*
X343991Y-9081031D02*
X353515Y-9100079D01*
X353515Y-9100079D02*
X363039Y-9138174D01*
X363039Y-9138174D02*
X363039Y-9185793D01*
X363039Y-9185793D02*
X353515Y-9223889D01*
X353515Y-9223889D02*
X343991Y-9242936D01*
X343991Y-9242936D02*
X334467Y-9252460D01*
X334467Y-9252460D02*
X315420Y-9261984D01*
X315420Y-9261984D02*
X296372Y-9261984D01*
X296372Y-9261984D02*
X277324Y-9252460D01*
X277324Y-9252460D02*
X267801Y-9242936D01*
X267801Y-9242936D02*
X258277Y-9223889D01*
X258277Y-9223889D02*
X248753Y-9185793D01*
X248753Y-9185793D02*
X248753Y-9138174D01*
X248753Y-9138174D02*
X258277Y-9100079D01*
X258277Y-9100079D02*
X267801Y-9081031D01*
X267801Y-9081031D02*
X277324Y-9071508D01*
X277324Y-9071508D02*
X296372Y-9061984D01*
X448753Y-9242936D02*
X458277Y-9252460D01*
X458277Y-9252460D02*
X448753Y-9261984D01*
X448753Y-9261984D02*
X439229Y-9252460D01*
X439229Y-9252460D02*
X448753Y-9242936D01*
X448753Y-9242936D02*
X448753Y-9261984D01*
X629705Y-9061984D02*
X591610Y-9061984D01*
X591610Y-9061984D02*
X572563Y-9071508D01*
X572563Y-9071508D02*
X563039Y-9081031D01*
X563039Y-9081031D02*
X543991Y-9109603D01*
X543991Y-9109603D02*
X534467Y-9147698D01*
X534467Y-9147698D02*
X534467Y-9223889D01*
X534467Y-9223889D02*
X543991Y-9242936D01*
X543991Y-9242936D02*
X553515Y-9252460D01*
X553515Y-9252460D02*
X572563Y-9261984D01*
X572563Y-9261984D02*
X610658Y-9261984D01*
X610658Y-9261984D02*
X629705Y-9252460D01*
X629705Y-9252460D02*
X639229Y-9242936D01*
X639229Y-9242936D02*
X648753Y-9223889D01*
X648753Y-9223889D02*
X648753Y-9176270D01*
X648753Y-9176270D02*
X639229Y-9157222D01*
X639229Y-9157222D02*
X629705Y-9147698D01*
X629705Y-9147698D02*
X610658Y-9138174D01*
X610658Y-9138174D02*
X572563Y-9138174D01*
X572563Y-9138174D02*
X553515Y-9147698D01*
X553515Y-9147698D02*
X543991Y-9157222D01*
X543991Y-9157222D02*
X534467Y-9176270D01*
X772562Y-9061984D02*
X791610Y-9061984D01*
X791610Y-9061984D02*
X810658Y-9071508D01*
X810658Y-9071508D02*
X820182Y-9081031D01*
X820182Y-9081031D02*
X829705Y-9100079D01*
X829705Y-9100079D02*
X839229Y-9138174D01*
X839229Y-9138174D02*
X839229Y-9185793D01*
X839229Y-9185793D02*
X829705Y-9223889D01*
X829705Y-9223889D02*
X820182Y-9242936D01*
X820182Y-9242936D02*
X810658Y-9252460D01*
X810658Y-9252460D02*
X791610Y-9261984D01*
X791610Y-9261984D02*
X772562Y-9261984D01*
X772562Y-9261984D02*
X753515Y-9252460D01*
X753515Y-9252460D02*
X743991Y-9242936D01*
X743991Y-9242936D02*
X734467Y-9223889D01*
X734467Y-9223889D02*
X724943Y-9185793D01*
X724943Y-9185793D02*
X724943Y-9138174D01*
X724943Y-9138174D02*
X734467Y-9100079D01*
X734467Y-9100079D02*
X743991Y-9081031D01*
X743991Y-9081031D02*
X753515Y-9071508D01*
X753515Y-9071508D02*
X772562Y-9061984D01*
X963039Y-9061984D02*
X982086Y-9061984D01*
X982086Y-9061984D02*
X1001134Y-9071508D01*
X1001134Y-9071508D02*
X1010658Y-9081031D01*
X1010658Y-9081031D02*
X1020182Y-9100079D01*
X1020182Y-9100079D02*
X1029705Y-9138174D01*
X1029705Y-9138174D02*
X1029705Y-9185793D01*
X1029705Y-9185793D02*
X1020182Y-9223889D01*
X1020182Y-9223889D02*
X1010658Y-9242936D01*
X1010658Y-9242936D02*
X1001134Y-9252460D01*
X1001134Y-9252460D02*
X982086Y-9261984D01*
X982086Y-9261984D02*
X963039Y-9261984D01*
X963039Y-9261984D02*
X943991Y-9252460D01*
X943991Y-9252460D02*
X934467Y-9242936D01*
X934467Y-9242936D02*
X924943Y-9223889D01*
X924943Y-9223889D02*
X915420Y-9185793D01*
X915420Y-9185793D02*
X915420Y-9138174D01*
X915420Y-9138174D02*
X924943Y-9100079D01*
X924943Y-9100079D02*
X934467Y-9081031D01*
X934467Y-9081031D02*
X943991Y-9071508D01*
X943991Y-9071508D02*
X963039Y-9061984D01*
X1115420Y-9261984D02*
X1115420Y-9128650D01*
X1115420Y-9147698D02*
X1124944Y-9138174D01*
X1124944Y-9138174D02*
X1143991Y-9128650D01*
X1143991Y-9128650D02*
X1172563Y-9128650D01*
X1172563Y-9128650D02*
X1191610Y-9138174D01*
X1191610Y-9138174D02*
X1201134Y-9157222D01*
X1201134Y-9157222D02*
X1201134Y-9261984D01*
X1201134Y-9157222D02*
X1210658Y-9138174D01*
X1210658Y-9138174D02*
X1229705Y-9128650D01*
X1229705Y-9128650D02*
X1258277Y-9128650D01*
X1258277Y-9128650D02*
X1277325Y-9138174D01*
X1277325Y-9138174D02*
X1286848Y-9157222D01*
X1286848Y-9157222D02*
X1286848Y-9261984D01*
X1382086Y-9261984D02*
X1382086Y-9128650D01*
X1382086Y-9147698D02*
X1391610Y-9138174D01*
X1391610Y-9138174D02*
X1410658Y-9128650D01*
X1410658Y-9128650D02*
X1439229Y-9128650D01*
X1439229Y-9128650D02*
X1458277Y-9138174D01*
X1458277Y-9138174D02*
X1467801Y-9157222D01*
X1467801Y-9157222D02*
X1467801Y-9261984D01*
X1467801Y-9157222D02*
X1477324Y-9138174D01*
X1477324Y-9138174D02*
X1496372Y-9128650D01*
X1496372Y-9128650D02*
X1524943Y-9128650D01*
X1524943Y-9128650D02*
X1543991Y-9138174D01*
X1543991Y-9138174D02*
X1553515Y-9157222D01*
X1553515Y-9157222D02*
X1553515Y-9261984D01*
X1943991Y-9052460D02*
X1772563Y-9309603D01*
X2201134Y-9061984D02*
X2220182Y-9061984D01*
X2220182Y-9061984D02*
X2239229Y-9071508D01*
X2239229Y-9071508D02*
X2248753Y-9081031D01*
X2248753Y-9081031D02*
X2258277Y-9100079D01*
X2258277Y-9100079D02*
X2267801Y-9138174D01*
X2267801Y-9138174D02*
X2267801Y-9185793D01*
X2267801Y-9185793D02*
X2258277Y-9223889D01*
X2258277Y-9223889D02*
X2248753Y-9242936D01*
X2248753Y-9242936D02*
X2239229Y-9252460D01*
X2239229Y-9252460D02*
X2220182Y-9261984D01*
X2220182Y-9261984D02*
X2201134Y-9261984D01*
X2201134Y-9261984D02*
X2182087Y-9252460D01*
X2182087Y-9252460D02*
X2172563Y-9242936D01*
X2172563Y-9242936D02*
X2163039Y-9223889D01*
X2163039Y-9223889D02*
X2153515Y-9185793D01*
X2153515Y-9185793D02*
X2153515Y-9138174D01*
X2153515Y-9138174D02*
X2163039Y-9100079D01*
X2163039Y-9100079D02*
X2172563Y-9081031D01*
X2172563Y-9081031D02*
X2182087Y-9071508D01*
X2182087Y-9071508D02*
X2201134Y-9061984D01*
X2353515Y-9242936D02*
X2363039Y-9252460D01*
X2363039Y-9252460D02*
X2353515Y-9261984D01*
X2353515Y-9261984D02*
X2343991Y-9252460D01*
X2343991Y-9252460D02*
X2353515Y-9242936D01*
X2353515Y-9242936D02*
X2353515Y-9261984D01*
X2486848Y-9061984D02*
X2505896Y-9061984D01*
X2505896Y-9061984D02*
X2524944Y-9071508D01*
X2524944Y-9071508D02*
X2534468Y-9081031D01*
X2534468Y-9081031D02*
X2543991Y-9100079D01*
X2543991Y-9100079D02*
X2553515Y-9138174D01*
X2553515Y-9138174D02*
X2553515Y-9185793D01*
X2553515Y-9185793D02*
X2543991Y-9223889D01*
X2543991Y-9223889D02*
X2534468Y-9242936D01*
X2534468Y-9242936D02*
X2524944Y-9252460D01*
X2524944Y-9252460D02*
X2505896Y-9261984D01*
X2505896Y-9261984D02*
X2486848Y-9261984D01*
X2486848Y-9261984D02*
X2467801Y-9252460D01*
X2467801Y-9252460D02*
X2458277Y-9242936D01*
X2458277Y-9242936D02*
X2448753Y-9223889D01*
X2448753Y-9223889D02*
X2439229Y-9185793D01*
X2439229Y-9185793D02*
X2439229Y-9138174D01*
X2439229Y-9138174D02*
X2448753Y-9100079D01*
X2448753Y-9100079D02*
X2458277Y-9081031D01*
X2458277Y-9081031D02*
X2467801Y-9071508D01*
X2467801Y-9071508D02*
X2486848Y-9061984D01*
X2629706Y-9081031D02*
X2639229Y-9071508D01*
X2639229Y-9071508D02*
X2658277Y-9061984D01*
X2658277Y-9061984D02*
X2705896Y-9061984D01*
X2705896Y-9061984D02*
X2724944Y-9071508D01*
X2724944Y-9071508D02*
X2734468Y-9081031D01*
X2734468Y-9081031D02*
X2743991Y-9100079D01*
X2743991Y-9100079D02*
X2743991Y-9119127D01*
X2743991Y-9119127D02*
X2734468Y-9147698D01*
X2734468Y-9147698D02*
X2620182Y-9261984D01*
X2620182Y-9261984D02*
X2743991Y-9261984D01*
X2810658Y-9061984D02*
X2934467Y-9061984D01*
X2934467Y-9061984D02*
X2867801Y-9138174D01*
X2867801Y-9138174D02*
X2896372Y-9138174D01*
X2896372Y-9138174D02*
X2915420Y-9147698D01*
X2915420Y-9147698D02*
X2924944Y-9157222D01*
X2924944Y-9157222D02*
X2934467Y-9176270D01*
X2934467Y-9176270D02*
X2934467Y-9223889D01*
X2934467Y-9223889D02*
X2924944Y-9242936D01*
X2924944Y-9242936D02*
X2915420Y-9252460D01*
X2915420Y-9252460D02*
X2896372Y-9261984D01*
X2896372Y-9261984D02*
X2839229Y-9261984D01*
X2839229Y-9261984D02*
X2820182Y-9252460D01*
X2820182Y-9252460D02*
X2810658Y-9242936D01*
X3105896Y-9061984D02*
X3067801Y-9061984D01*
X3067801Y-9061984D02*
X3048753Y-9071508D01*
X3048753Y-9071508D02*
X3039229Y-9081031D01*
X3039229Y-9081031D02*
X3020182Y-9109603D01*
X3020182Y-9109603D02*
X3010658Y-9147698D01*
X3010658Y-9147698D02*
X3010658Y-9223889D01*
X3010658Y-9223889D02*
X3020182Y-9242936D01*
X3020182Y-9242936D02*
X3029706Y-9252460D01*
X3029706Y-9252460D02*
X3048753Y-9261984D01*
X3048753Y-9261984D02*
X3086848Y-9261984D01*
X3086848Y-9261984D02*
X3105896Y-9252460D01*
X3105896Y-9252460D02*
X3115420Y-9242936D01*
X3115420Y-9242936D02*
X3124944Y-9223889D01*
X3124944Y-9223889D02*
X3124944Y-9176270D01*
X3124944Y-9176270D02*
X3115420Y-9157222D01*
X3115420Y-9157222D02*
X3105896Y-9147698D01*
X3105896Y-9147698D02*
X3086848Y-9138174D01*
X3086848Y-9138174D02*
X3048753Y-9138174D01*
X3048753Y-9138174D02*
X3029706Y-9147698D01*
X3029706Y-9147698D02*
X3020182Y-9157222D01*
X3020182Y-9157222D02*
X3010658Y-9176270D01*
X3201134Y-9061984D02*
X3201134Y-9100079D01*
X3277325Y-9061984D02*
X3277325Y-9100079D01*
X3572563Y-9338174D02*
X3563039Y-9328650D01*
X3563039Y-9328650D02*
X3543991Y-9300079D01*
X3543991Y-9300079D02*
X3534468Y-9281031D01*
X3534468Y-9281031D02*
X3524944Y-9252460D01*
X3524944Y-9252460D02*
X3515420Y-9204841D01*
X3515420Y-9204841D02*
X3515420Y-9166746D01*
X3515420Y-9166746D02*
X3524944Y-9119127D01*
X3524944Y-9119127D02*
X3534468Y-9090555D01*
X3534468Y-9090555D02*
X3543991Y-9071508D01*
X3543991Y-9071508D02*
X3563039Y-9042936D01*
X3563039Y-9042936D02*
X3572563Y-9033412D01*
X3686848Y-9061984D02*
X3705896Y-9061984D01*
X3705896Y-9061984D02*
X3724944Y-9071508D01*
X3724944Y-9071508D02*
X3734468Y-9081031D01*
X3734468Y-9081031D02*
X3743991Y-9100079D01*
X3743991Y-9100079D02*
X3753515Y-9138174D01*
X3753515Y-9138174D02*
X3753515Y-9185793D01*
X3753515Y-9185793D02*
X3743991Y-9223889D01*
X3743991Y-9223889D02*
X3734468Y-9242936D01*
X3734468Y-9242936D02*
X3724944Y-9252460D01*
X3724944Y-9252460D02*
X3705896Y-9261984D01*
X3705896Y-9261984D02*
X3686848Y-9261984D01*
X3686848Y-9261984D02*
X3667801Y-9252460D01*
X3667801Y-9252460D02*
X3658277Y-9242936D01*
X3658277Y-9242936D02*
X3648753Y-9223889D01*
X3648753Y-9223889D02*
X3639229Y-9185793D01*
X3639229Y-9185793D02*
X3639229Y-9138174D01*
X3639229Y-9138174D02*
X3648753Y-9100079D01*
X3648753Y-9100079D02*
X3658277Y-9081031D01*
X3658277Y-9081031D02*
X3667801Y-9071508D01*
X3667801Y-9071508D02*
X3686848Y-9061984D01*
X3991610Y-9261984D02*
X3991610Y-9061984D01*
X4077325Y-9261984D02*
X4077325Y-9157222D01*
X4077325Y-9157222D02*
X4067801Y-9138174D01*
X4067801Y-9138174D02*
X4048753Y-9128650D01*
X4048753Y-9128650D02*
X4020182Y-9128650D01*
X4020182Y-9128650D02*
X4001134Y-9138174D01*
X4001134Y-9138174D02*
X3991610Y-9147698D01*
X4201134Y-9261984D02*
X4182087Y-9252460D01*
X4182087Y-9252460D02*
X4172563Y-9242936D01*
X4172563Y-9242936D02*
X4163039Y-9223889D01*
X4163039Y-9223889D02*
X4163039Y-9166746D01*
X4163039Y-9166746D02*
X4172563Y-9147698D01*
X4172563Y-9147698D02*
X4182087Y-9138174D01*
X4182087Y-9138174D02*
X4201134Y-9128650D01*
X4201134Y-9128650D02*
X4229706Y-9128650D01*
X4229706Y-9128650D02*
X4248753Y-9138174D01*
X4248753Y-9138174D02*
X4258277Y-9147698D01*
X4258277Y-9147698D02*
X4267801Y-9166746D01*
X4267801Y-9166746D02*
X4267801Y-9223889D01*
X4267801Y-9223889D02*
X4258277Y-9242936D01*
X4258277Y-9242936D02*
X4248753Y-9252460D01*
X4248753Y-9252460D02*
X4229706Y-9261984D01*
X4229706Y-9261984D02*
X4201134Y-9261984D01*
X4382087Y-9261984D02*
X4363039Y-9252460D01*
X4363039Y-9252460D02*
X4353515Y-9233412D01*
X4353515Y-9233412D02*
X4353515Y-9061984D01*
X4534468Y-9252460D02*
X4515420Y-9261984D01*
X4515420Y-9261984D02*
X4477325Y-9261984D01*
X4477325Y-9261984D02*
X4458277Y-9252460D01*
X4458277Y-9252460D02*
X4448753Y-9233412D01*
X4448753Y-9233412D02*
X4448753Y-9157222D01*
X4448753Y-9157222D02*
X4458277Y-9138174D01*
X4458277Y-9138174D02*
X4477325Y-9128650D01*
X4477325Y-9128650D02*
X4515420Y-9128650D01*
X4515420Y-9128650D02*
X4534468Y-9138174D01*
X4534468Y-9138174D02*
X4543992Y-9157222D01*
X4543992Y-9157222D02*
X4543992Y-9176270D01*
X4543992Y-9176270D02*
X4448753Y-9195317D01*
X4620182Y-9252460D02*
X4639230Y-9261984D01*
X4639230Y-9261984D02*
X4677325Y-9261984D01*
X4677325Y-9261984D02*
X4696373Y-9252460D01*
X4696373Y-9252460D02*
X4705896Y-9233412D01*
X4705896Y-9233412D02*
X4705896Y-9223889D01*
X4705896Y-9223889D02*
X4696373Y-9204841D01*
X4696373Y-9204841D02*
X4677325Y-9195317D01*
X4677325Y-9195317D02*
X4648753Y-9195317D01*
X4648753Y-9195317D02*
X4629706Y-9185793D01*
X4629706Y-9185793D02*
X4620182Y-9166746D01*
X4620182Y-9166746D02*
X4620182Y-9157222D01*
X4620182Y-9157222D02*
X4629706Y-9138174D01*
X4629706Y-9138174D02*
X4648753Y-9128650D01*
X4648753Y-9128650D02*
X4677325Y-9128650D01*
X4677325Y-9128650D02*
X4696373Y-9138174D01*
X4943992Y-9185793D02*
X5096373Y-9185793D01*
X5020182Y-9261984D02*
X5020182Y-9109603D01*
X5429706Y-9128650D02*
X5429706Y-9261984D01*
X5382087Y-9052460D02*
X5334468Y-9195317D01*
X5334468Y-9195317D02*
X5458277Y-9195317D01*
X5677325Y-9252460D02*
X5696373Y-9261984D01*
X5696373Y-9261984D02*
X5734468Y-9261984D01*
X5734468Y-9261984D02*
X5753515Y-9252460D01*
X5753515Y-9252460D02*
X5763039Y-9233412D01*
X5763039Y-9233412D02*
X5763039Y-9223889D01*
X5763039Y-9223889D02*
X5753515Y-9204841D01*
X5753515Y-9204841D02*
X5734468Y-9195317D01*
X5734468Y-9195317D02*
X5705896Y-9195317D01*
X5705896Y-9195317D02*
X5686849Y-9185793D01*
X5686849Y-9185793D02*
X5677325Y-9166746D01*
X5677325Y-9166746D02*
X5677325Y-9157222D01*
X5677325Y-9157222D02*
X5686849Y-9138174D01*
X5686849Y-9138174D02*
X5705896Y-9128650D01*
X5705896Y-9128650D02*
X5734468Y-9128650D01*
X5734468Y-9128650D02*
X5753515Y-9138174D01*
X5877325Y-9261984D02*
X5858277Y-9252460D01*
X5858277Y-9252460D02*
X5848754Y-9233412D01*
X5848754Y-9233412D02*
X5848754Y-9061984D01*
X5982087Y-9261984D02*
X5963039Y-9252460D01*
X5963039Y-9252460D02*
X5953515Y-9242936D01*
X5953515Y-9242936D02*
X5943992Y-9223889D01*
X5943992Y-9223889D02*
X5943992Y-9166746D01*
X5943992Y-9166746D02*
X5953515Y-9147698D01*
X5953515Y-9147698D02*
X5963039Y-9138174D01*
X5963039Y-9138174D02*
X5982087Y-9128650D01*
X5982087Y-9128650D02*
X6010658Y-9128650D01*
X6010658Y-9128650D02*
X6029706Y-9138174D01*
X6029706Y-9138174D02*
X6039230Y-9147698D01*
X6039230Y-9147698D02*
X6048754Y-9166746D01*
X6048754Y-9166746D02*
X6048754Y-9223889D01*
X6048754Y-9223889D02*
X6039230Y-9242936D01*
X6039230Y-9242936D02*
X6029706Y-9252460D01*
X6029706Y-9252460D02*
X6010658Y-9261984D01*
X6010658Y-9261984D02*
X5982087Y-9261984D01*
X6105896Y-9128650D02*
X6182087Y-9128650D01*
X6134468Y-9061984D02*
X6134468Y-9233412D01*
X6134468Y-9233412D02*
X6143992Y-9252460D01*
X6143992Y-9252460D02*
X6163039Y-9261984D01*
X6163039Y-9261984D02*
X6182087Y-9261984D01*
X6239230Y-9252460D02*
X6258277Y-9261984D01*
X6258277Y-9261984D02*
X6296373Y-9261984D01*
X6296373Y-9261984D02*
X6315420Y-9252460D01*
X6315420Y-9252460D02*
X6324944Y-9233412D01*
X6324944Y-9233412D02*
X6324944Y-9223889D01*
X6324944Y-9223889D02*
X6315420Y-9204841D01*
X6315420Y-9204841D02*
X6296373Y-9195317D01*
X6296373Y-9195317D02*
X6267801Y-9195317D01*
X6267801Y-9195317D02*
X6248754Y-9185793D01*
X6248754Y-9185793D02*
X6239230Y-9166746D01*
X6239230Y-9166746D02*
X6239230Y-9157222D01*
X6239230Y-9157222D02*
X6248754Y-9138174D01*
X6248754Y-9138174D02*
X6267801Y-9128650D01*
X6267801Y-9128650D02*
X6296373Y-9128650D01*
X6296373Y-9128650D02*
X6315420Y-9138174D01*
X6391611Y-9338174D02*
X6401135Y-9328650D01*
X6401135Y-9328650D02*
X6420182Y-9300079D01*
X6420182Y-9300079D02*
X6429706Y-9281031D01*
X6429706Y-9281031D02*
X6439230Y-9252460D01*
X6439230Y-9252460D02*
X6448754Y-9204841D01*
X6448754Y-9204841D02*
X6448754Y-9166746D01*
X6448754Y-9166746D02*
X6439230Y-9119127D01*
X6439230Y-9119127D02*
X6429706Y-9090555D01*
X6429706Y-9090555D02*
X6420182Y-9071508D01*
X6420182Y-9071508D02*
X6401135Y-9042936D01*
X6401135Y-9042936D02*
X6391611Y-9033412D01*
D12*
X-17144Y-9469856D02*
X-17144Y-9399144D01*
X-87856Y-9399144D01*
X-87856Y-9469856D01*
X-17144Y-9469856D01*
D11*
X363039Y-9525984D02*
X248753Y-9525984D01*
X305896Y-9525984D02*
X305896Y-9325984D01*
X305896Y-9325984D02*
X286848Y-9354555D01*
X286848Y-9354555D02*
X267801Y-9373603D01*
X267801Y-9373603D02*
X248753Y-9383127D01*
X448753Y-9506936D02*
X458277Y-9516460D01*
X458277Y-9516460D02*
X448753Y-9525984D01*
X448753Y-9525984D02*
X439229Y-9516460D01*
X439229Y-9516460D02*
X448753Y-9506936D01*
X448753Y-9506936D02*
X448753Y-9525984D01*
X582086Y-9325984D02*
X601134Y-9325984D01*
X601134Y-9325984D02*
X620182Y-9335508D01*
X620182Y-9335508D02*
X629705Y-9345031D01*
X629705Y-9345031D02*
X639229Y-9364079D01*
X639229Y-9364079D02*
X648753Y-9402174D01*
X648753Y-9402174D02*
X648753Y-9449793D01*
X648753Y-9449793D02*
X639229Y-9487889D01*
X639229Y-9487889D02*
X629705Y-9506936D01*
X629705Y-9506936D02*
X620182Y-9516460D01*
X620182Y-9516460D02*
X601134Y-9525984D01*
X601134Y-9525984D02*
X582086Y-9525984D01*
X582086Y-9525984D02*
X563039Y-9516460D01*
X563039Y-9516460D02*
X553515Y-9506936D01*
X553515Y-9506936D02*
X543991Y-9487889D01*
X543991Y-9487889D02*
X534467Y-9449793D01*
X534467Y-9449793D02*
X534467Y-9402174D01*
X534467Y-9402174D02*
X543991Y-9364079D01*
X543991Y-9364079D02*
X553515Y-9345031D01*
X553515Y-9345031D02*
X563039Y-9335508D01*
X563039Y-9335508D02*
X582086Y-9325984D01*
X772562Y-9325984D02*
X791610Y-9325984D01*
X791610Y-9325984D02*
X810658Y-9335508D01*
X810658Y-9335508D02*
X820182Y-9345031D01*
X820182Y-9345031D02*
X829705Y-9364079D01*
X829705Y-9364079D02*
X839229Y-9402174D01*
X839229Y-9402174D02*
X839229Y-9449793D01*
X839229Y-9449793D02*
X829705Y-9487889D01*
X829705Y-9487889D02*
X820182Y-9506936D01*
X820182Y-9506936D02*
X810658Y-9516460D01*
X810658Y-9516460D02*
X791610Y-9525984D01*
X791610Y-9525984D02*
X772562Y-9525984D01*
X772562Y-9525984D02*
X753515Y-9516460D01*
X753515Y-9516460D02*
X743991Y-9506936D01*
X743991Y-9506936D02*
X734467Y-9487889D01*
X734467Y-9487889D02*
X724943Y-9449793D01*
X724943Y-9449793D02*
X724943Y-9402174D01*
X724943Y-9402174D02*
X734467Y-9364079D01*
X734467Y-9364079D02*
X743991Y-9345031D01*
X743991Y-9345031D02*
X753515Y-9335508D01*
X753515Y-9335508D02*
X772562Y-9325984D01*
X963039Y-9325984D02*
X982086Y-9325984D01*
X982086Y-9325984D02*
X1001134Y-9335508D01*
X1001134Y-9335508D02*
X1010658Y-9345031D01*
X1010658Y-9345031D02*
X1020182Y-9364079D01*
X1020182Y-9364079D02*
X1029705Y-9402174D01*
X1029705Y-9402174D02*
X1029705Y-9449793D01*
X1029705Y-9449793D02*
X1020182Y-9487889D01*
X1020182Y-9487889D02*
X1010658Y-9506936D01*
X1010658Y-9506936D02*
X1001134Y-9516460D01*
X1001134Y-9516460D02*
X982086Y-9525984D01*
X982086Y-9525984D02*
X963039Y-9525984D01*
X963039Y-9525984D02*
X943991Y-9516460D01*
X943991Y-9516460D02*
X934467Y-9506936D01*
X934467Y-9506936D02*
X924943Y-9487889D01*
X924943Y-9487889D02*
X915420Y-9449793D01*
X915420Y-9449793D02*
X915420Y-9402174D01*
X915420Y-9402174D02*
X924943Y-9364079D01*
X924943Y-9364079D02*
X934467Y-9345031D01*
X934467Y-9345031D02*
X943991Y-9335508D01*
X943991Y-9335508D02*
X963039Y-9325984D01*
X1115420Y-9525984D02*
X1115420Y-9392650D01*
X1115420Y-9411698D02*
X1124944Y-9402174D01*
X1124944Y-9402174D02*
X1143991Y-9392650D01*
X1143991Y-9392650D02*
X1172563Y-9392650D01*
X1172563Y-9392650D02*
X1191610Y-9402174D01*
X1191610Y-9402174D02*
X1201134Y-9421222D01*
X1201134Y-9421222D02*
X1201134Y-9525984D01*
X1201134Y-9421222D02*
X1210658Y-9402174D01*
X1210658Y-9402174D02*
X1229705Y-9392650D01*
X1229705Y-9392650D02*
X1258277Y-9392650D01*
X1258277Y-9392650D02*
X1277325Y-9402174D01*
X1277325Y-9402174D02*
X1286848Y-9421222D01*
X1286848Y-9421222D02*
X1286848Y-9525984D01*
X1382086Y-9525984D02*
X1382086Y-9392650D01*
X1382086Y-9411698D02*
X1391610Y-9402174D01*
X1391610Y-9402174D02*
X1410658Y-9392650D01*
X1410658Y-9392650D02*
X1439229Y-9392650D01*
X1439229Y-9392650D02*
X1458277Y-9402174D01*
X1458277Y-9402174D02*
X1467801Y-9421222D01*
X1467801Y-9421222D02*
X1467801Y-9525984D01*
X1467801Y-9421222D02*
X1477324Y-9402174D01*
X1477324Y-9402174D02*
X1496372Y-9392650D01*
X1496372Y-9392650D02*
X1524943Y-9392650D01*
X1524943Y-9392650D02*
X1543991Y-9402174D01*
X1543991Y-9402174D02*
X1553515Y-9421222D01*
X1553515Y-9421222D02*
X1553515Y-9525984D01*
X1943991Y-9316460D02*
X1772563Y-9573603D01*
X2201134Y-9325984D02*
X2220182Y-9325984D01*
X2220182Y-9325984D02*
X2239229Y-9335508D01*
X2239229Y-9335508D02*
X2248753Y-9345031D01*
X2248753Y-9345031D02*
X2258277Y-9364079D01*
X2258277Y-9364079D02*
X2267801Y-9402174D01*
X2267801Y-9402174D02*
X2267801Y-9449793D01*
X2267801Y-9449793D02*
X2258277Y-9487889D01*
X2258277Y-9487889D02*
X2248753Y-9506936D01*
X2248753Y-9506936D02*
X2239229Y-9516460D01*
X2239229Y-9516460D02*
X2220182Y-9525984D01*
X2220182Y-9525984D02*
X2201134Y-9525984D01*
X2201134Y-9525984D02*
X2182087Y-9516460D01*
X2182087Y-9516460D02*
X2172563Y-9506936D01*
X2172563Y-9506936D02*
X2163039Y-9487889D01*
X2163039Y-9487889D02*
X2153515Y-9449793D01*
X2153515Y-9449793D02*
X2153515Y-9402174D01*
X2153515Y-9402174D02*
X2163039Y-9364079D01*
X2163039Y-9364079D02*
X2172563Y-9345031D01*
X2172563Y-9345031D02*
X2182087Y-9335508D01*
X2182087Y-9335508D02*
X2201134Y-9325984D01*
X2353515Y-9506936D02*
X2363039Y-9516460D01*
X2363039Y-9516460D02*
X2353515Y-9525984D01*
X2353515Y-9525984D02*
X2343991Y-9516460D01*
X2343991Y-9516460D02*
X2353515Y-9506936D01*
X2353515Y-9506936D02*
X2353515Y-9525984D01*
X2486848Y-9325984D02*
X2505896Y-9325984D01*
X2505896Y-9325984D02*
X2524944Y-9335508D01*
X2524944Y-9335508D02*
X2534468Y-9345031D01*
X2534468Y-9345031D02*
X2543991Y-9364079D01*
X2543991Y-9364079D02*
X2553515Y-9402174D01*
X2553515Y-9402174D02*
X2553515Y-9449793D01*
X2553515Y-9449793D02*
X2543991Y-9487889D01*
X2543991Y-9487889D02*
X2534468Y-9506936D01*
X2534468Y-9506936D02*
X2524944Y-9516460D01*
X2524944Y-9516460D02*
X2505896Y-9525984D01*
X2505896Y-9525984D02*
X2486848Y-9525984D01*
X2486848Y-9525984D02*
X2467801Y-9516460D01*
X2467801Y-9516460D02*
X2458277Y-9506936D01*
X2458277Y-9506936D02*
X2448753Y-9487889D01*
X2448753Y-9487889D02*
X2439229Y-9449793D01*
X2439229Y-9449793D02*
X2439229Y-9402174D01*
X2439229Y-9402174D02*
X2448753Y-9364079D01*
X2448753Y-9364079D02*
X2458277Y-9345031D01*
X2458277Y-9345031D02*
X2467801Y-9335508D01*
X2467801Y-9335508D02*
X2486848Y-9325984D01*
X2620182Y-9325984D02*
X2743991Y-9325984D01*
X2743991Y-9325984D02*
X2677325Y-9402174D01*
X2677325Y-9402174D02*
X2705896Y-9402174D01*
X2705896Y-9402174D02*
X2724944Y-9411698D01*
X2724944Y-9411698D02*
X2734468Y-9421222D01*
X2734468Y-9421222D02*
X2743991Y-9440270D01*
X2743991Y-9440270D02*
X2743991Y-9487889D01*
X2743991Y-9487889D02*
X2734468Y-9506936D01*
X2734468Y-9506936D02*
X2724944Y-9516460D01*
X2724944Y-9516460D02*
X2705896Y-9525984D01*
X2705896Y-9525984D02*
X2648753Y-9525984D01*
X2648753Y-9525984D02*
X2629706Y-9516460D01*
X2629706Y-9516460D02*
X2620182Y-9506936D01*
X2839229Y-9525984D02*
X2877325Y-9525984D01*
X2877325Y-9525984D02*
X2896372Y-9516460D01*
X2896372Y-9516460D02*
X2905896Y-9506936D01*
X2905896Y-9506936D02*
X2924944Y-9478365D01*
X2924944Y-9478365D02*
X2934467Y-9440270D01*
X2934467Y-9440270D02*
X2934467Y-9364079D01*
X2934467Y-9364079D02*
X2924944Y-9345031D01*
X2924944Y-9345031D02*
X2915420Y-9335508D01*
X2915420Y-9335508D02*
X2896372Y-9325984D01*
X2896372Y-9325984D02*
X2858277Y-9325984D01*
X2858277Y-9325984D02*
X2839229Y-9335508D01*
X2839229Y-9335508D02*
X2829706Y-9345031D01*
X2829706Y-9345031D02*
X2820182Y-9364079D01*
X2820182Y-9364079D02*
X2820182Y-9411698D01*
X2820182Y-9411698D02*
X2829706Y-9430746D01*
X2829706Y-9430746D02*
X2839229Y-9440270D01*
X2839229Y-9440270D02*
X2858277Y-9449793D01*
X2858277Y-9449793D02*
X2896372Y-9449793D01*
X2896372Y-9449793D02*
X2915420Y-9440270D01*
X2915420Y-9440270D02*
X2924944Y-9430746D01*
X2924944Y-9430746D02*
X2934467Y-9411698D01*
X3105896Y-9392650D02*
X3105896Y-9525984D01*
X3058277Y-9316460D02*
X3010658Y-9459317D01*
X3010658Y-9459317D02*
X3134467Y-9459317D01*
X3201134Y-9325984D02*
X3201134Y-9364079D01*
X3277325Y-9325984D02*
X3277325Y-9364079D01*
X3572563Y-9602174D02*
X3563039Y-9592650D01*
X3563039Y-9592650D02*
X3543991Y-9564079D01*
X3543991Y-9564079D02*
X3534468Y-9545031D01*
X3534468Y-9545031D02*
X3524944Y-9516460D01*
X3524944Y-9516460D02*
X3515420Y-9468841D01*
X3515420Y-9468841D02*
X3515420Y-9430746D01*
X3515420Y-9430746D02*
X3524944Y-9383127D01*
X3524944Y-9383127D02*
X3534468Y-9354555D01*
X3534468Y-9354555D02*
X3543991Y-9335508D01*
X3543991Y-9335508D02*
X3563039Y-9306936D01*
X3563039Y-9306936D02*
X3572563Y-9297412D01*
X3629706Y-9325984D02*
X3753515Y-9325984D01*
X3753515Y-9325984D02*
X3686848Y-9402174D01*
X3686848Y-9402174D02*
X3715420Y-9402174D01*
X3715420Y-9402174D02*
X3734468Y-9411698D01*
X3734468Y-9411698D02*
X3743991Y-9421222D01*
X3743991Y-9421222D02*
X3753515Y-9440270D01*
X3753515Y-9440270D02*
X3753515Y-9487889D01*
X3753515Y-9487889D02*
X3743991Y-9506936D01*
X3743991Y-9506936D02*
X3734468Y-9516460D01*
X3734468Y-9516460D02*
X3715420Y-9525984D01*
X3715420Y-9525984D02*
X3658277Y-9525984D01*
X3658277Y-9525984D02*
X3639229Y-9516460D01*
X3639229Y-9516460D02*
X3629706Y-9506936D01*
X3829706Y-9345031D02*
X3839229Y-9335508D01*
X3839229Y-9335508D02*
X3858277Y-9325984D01*
X3858277Y-9325984D02*
X3905896Y-9325984D01*
X3905896Y-9325984D02*
X3924944Y-9335508D01*
X3924944Y-9335508D02*
X3934468Y-9345031D01*
X3934468Y-9345031D02*
X3943991Y-9364079D01*
X3943991Y-9364079D02*
X3943991Y-9383127D01*
X3943991Y-9383127D02*
X3934468Y-9411698D01*
X3934468Y-9411698D02*
X3820182Y-9525984D01*
X3820182Y-9525984D02*
X3943991Y-9525984D01*
X4182087Y-9525984D02*
X4182087Y-9325984D01*
X4267801Y-9525984D02*
X4267801Y-9421222D01*
X4267801Y-9421222D02*
X4258277Y-9402174D01*
X4258277Y-9402174D02*
X4239230Y-9392650D01*
X4239230Y-9392650D02*
X4210658Y-9392650D01*
X4210658Y-9392650D02*
X4191610Y-9402174D01*
X4191610Y-9402174D02*
X4182087Y-9411698D01*
X4391611Y-9525984D02*
X4372563Y-9516460D01*
X4372563Y-9516460D02*
X4363039Y-9506936D01*
X4363039Y-9506936D02*
X4353515Y-9487889D01*
X4353515Y-9487889D02*
X4353515Y-9430746D01*
X4353515Y-9430746D02*
X4363039Y-9411698D01*
X4363039Y-9411698D02*
X4372563Y-9402174D01*
X4372563Y-9402174D02*
X4391611Y-9392650D01*
X4391611Y-9392650D02*
X4420182Y-9392650D01*
X4420182Y-9392650D02*
X4439230Y-9402174D01*
X4439230Y-9402174D02*
X4448753Y-9411698D01*
X4448753Y-9411698D02*
X4458277Y-9430746D01*
X4458277Y-9430746D02*
X4458277Y-9487889D01*
X4458277Y-9487889D02*
X4448753Y-9506936D01*
X4448753Y-9506936D02*
X4439230Y-9516460D01*
X4439230Y-9516460D02*
X4420182Y-9525984D01*
X4420182Y-9525984D02*
X4391611Y-9525984D01*
X4572563Y-9525984D02*
X4553515Y-9516460D01*
X4553515Y-9516460D02*
X4543992Y-9497412D01*
X4543992Y-9497412D02*
X4543992Y-9325984D01*
X4724944Y-9516460D02*
X4705896Y-9525984D01*
X4705896Y-9525984D02*
X4667801Y-9525984D01*
X4667801Y-9525984D02*
X4648753Y-9516460D01*
X4648753Y-9516460D02*
X4639230Y-9497412D01*
X4639230Y-9497412D02*
X4639230Y-9421222D01*
X4639230Y-9421222D02*
X4648753Y-9402174D01*
X4648753Y-9402174D02*
X4667801Y-9392650D01*
X4667801Y-9392650D02*
X4705896Y-9392650D01*
X4705896Y-9392650D02*
X4724944Y-9402174D01*
X4724944Y-9402174D02*
X4734468Y-9421222D01*
X4734468Y-9421222D02*
X4734468Y-9440270D01*
X4734468Y-9440270D02*
X4639230Y-9459317D01*
X4810658Y-9516460D02*
X4829706Y-9525984D01*
X4829706Y-9525984D02*
X4867801Y-9525984D01*
X4867801Y-9525984D02*
X4886849Y-9516460D01*
X4886849Y-9516460D02*
X4896373Y-9497412D01*
X4896373Y-9497412D02*
X4896373Y-9487889D01*
X4896373Y-9487889D02*
X4886849Y-9468841D01*
X4886849Y-9468841D02*
X4867801Y-9459317D01*
X4867801Y-9459317D02*
X4839230Y-9459317D01*
X4839230Y-9459317D02*
X4820182Y-9449793D01*
X4820182Y-9449793D02*
X4810658Y-9430746D01*
X4810658Y-9430746D02*
X4810658Y-9421222D01*
X4810658Y-9421222D02*
X4820182Y-9402174D01*
X4820182Y-9402174D02*
X4839230Y-9392650D01*
X4839230Y-9392650D02*
X4867801Y-9392650D01*
X4867801Y-9392650D02*
X4886849Y-9402174D01*
X4963039Y-9602174D02*
X4972563Y-9592650D01*
X4972563Y-9592650D02*
X4991611Y-9564079D01*
X4991611Y-9564079D02*
X5001134Y-9545031D01*
X5001134Y-9545031D02*
X5010658Y-9516460D01*
X5010658Y-9516460D02*
X5020182Y-9468841D01*
X5020182Y-9468841D02*
X5020182Y-9430746D01*
X5020182Y-9430746D02*
X5010658Y-9383127D01*
X5010658Y-9383127D02*
X5001134Y-9354555D01*
X5001134Y-9354555D02*
X4991611Y-9335508D01*
X4991611Y-9335508D02*
X4972563Y-9306936D01*
X4972563Y-9306936D02*
X4963039Y-9297412D01*
M02*
