%TF.GenerationSoftware,KiCad,Pcbnew,10.0.5*%
%TF.CreationDate,2026-08-08T09:44:41+02:00*%
%TF.ProjectId,wisp,77697370-2e6b-4696-9361-645f70636258,rev?*%
%TF.SameCoordinates,Original*%
%TF.FileFunction,Soldermask,Top*%
%TF.FilePolarity,Negative*%
%FSLAX46Y46*%
G04 Gerber Fmt 4.6, Leading zero omitted, Abs format (unit mm)*
G04 Created by KiCad (PCBNEW 10.0.5) date 2026-08-08 09:44:41*
%MOMM*%
%LPD*%
G01*
G04 APERTURE LIST*
G04 Aperture macros list*
%AMRoundRect*
0 Rectangle with rounded corners*
0 $1 Rounding radius*
0 $2 $3 $4 $5 $6 $7 $8 $9 X,Y pos of 4 corners*
0 Add a 4 corners polygon primitive as box body*
4,1,4,$2,$3,$4,$5,$6,$7,$8,$9,$2,$3,0*
0 Add four circle primitives for the rounded corners*
1,1,$1+$1,$2,$3*
1,1,$1+$1,$4,$5*
1,1,$1+$1,$6,$7*
1,1,$1+$1,$8,$9*
0 Add four rect primitives between the rounded corners*
20,1,$1+$1,$2,$3,$4,$5,0*
20,1,$1+$1,$4,$5,$6,$7,0*
20,1,$1+$1,$6,$7,$8,$9,0*
20,1,$1+$1,$8,$9,$2,$3,0*%
G04 Aperture macros list end*
%ADD10RoundRect,0.150000X0.150000X-0.587500X0.150000X0.587500X-0.150000X0.587500X-0.150000X-0.587500X0*%
%ADD11RoundRect,0.250000X0.475000X-0.250000X0.475000X0.250000X-0.475000X0.250000X-0.475000X-0.250000X0*%
%ADD12R,1.700000X1.700000*%
%ADD13C,1.700000*%
%ADD14RoundRect,0.250000X0.450000X-0.262500X0.450000X0.262500X-0.450000X0.262500X-0.450000X-0.262500X0*%
%ADD15R,1.500000X1.500000*%
%ADD16R,2.000000X4.200000*%
%ADD17RoundRect,0.250000X-0.262500X-0.450000X0.262500X-0.450000X0.262500X0.450000X-0.262500X0.450000X0*%
%ADD18RoundRect,0.250000X-0.250000X-0.475000X0.250000X-0.475000X0.250000X0.475000X-0.250000X0.475000X0*%
%ADD19R,1.050000X0.650000*%
%ADD20RoundRect,0.050000X-0.150000X-0.300000X0.150000X-0.300000X0.150000X0.300000X-0.150000X0.300000X0*%
%ADD21C,3.200000*%
%ADD22RoundRect,0.125000X-0.125000X-0.137500X0.125000X-0.137500X0.125000X0.137500X-0.125000X0.137500X0*%
%ADD23RoundRect,0.212500X-0.737500X-0.212500X0.737500X-0.212500X0.737500X0.212500X-0.737500X0.212500X0*%
%ADD24RoundRect,0.212500X-0.212500X-0.737500X0.212500X-0.737500X0.212500X0.737500X-0.212500X0.737500X0*%
%ADD25R,4.800000X4.800000*%
%ADD26RoundRect,0.150000X-0.825000X-0.150000X0.825000X-0.150000X0.825000X0.150000X-0.825000X0.150000X0*%
%ADD27C,0.650000*%
%ADD28RoundRect,0.150000X0.575000X-0.150000X0.575000X0.150000X-0.575000X0.150000X-0.575000X-0.150000X0*%
%ADD29RoundRect,0.075000X0.650000X-0.075000X0.650000X0.075000X-0.650000X0.075000X-0.650000X-0.075000X0*%
%ADD30O,2.100000X1.000000*%
%ADD31O,1.600000X1.000000*%
%ADD32RoundRect,0.050000X0.300000X-0.150000X0.300000X0.150000X-0.300000X0.150000X-0.300000X-0.150000X0*%
%ADD33RoundRect,0.150000X-0.512500X-0.150000X0.512500X-0.150000X0.512500X0.150000X-0.512500X0.150000X0*%
%ADD34R,1.500000X0.900000*%
%ADD35R,0.900000X1.500000*%
%ADD36C,0.600000*%
%ADD37R,4.200000X4.200000*%
%ADD38RoundRect,0.225000X-0.225000X-0.375000X0.225000X-0.375000X0.225000X0.375000X-0.225000X0.375000X0*%
%ADD39R,0.300000X0.400000*%
%ADD40RoundRect,0.150000X-0.587500X-0.150000X0.587500X-0.150000X0.587500X0.150000X-0.587500X0.150000X0*%
%ADD41RoundRect,0.090000X-0.660000X-0.360000X0.660000X-0.360000X0.660000X0.360000X-0.660000X0.360000X0*%
%ADD42RoundRect,0.250000X-0.375000X-0.625000X0.375000X-0.625000X0.375000X0.625000X-0.375000X0.625000X0*%
%ADD43RoundRect,0.250000X-0.375000X-1.075000X0.375000X-1.075000X0.375000X1.075000X-0.375000X1.075000X0*%
G04 APERTURE END LIST*
D10*
%TO.C,Q4*%
X38550000Y-56025000D03*
X40450000Y-56025000D03*
X39500000Y-54150000D03*
%TD*%
D11*
%TO.C,C2*%
X19500000Y-11970000D03*
X19500000Y-10070000D03*
%TD*%
D12*
%TO.C,J3*%
X57000000Y-24000000D03*
D13*
X57000000Y-26540000D03*
X57000000Y-29080000D03*
X57000000Y-31620000D03*
%TD*%
D14*
%TO.C,R11*%
X53968900Y-19742500D03*
X53968900Y-17917500D03*
%TD*%
D15*
%TO.C,TP9*%
X24000000Y-47200000D03*
%TD*%
D16*
%TO.C,BZ1*%
X26000000Y-56000000D03*
X34000000Y-56000000D03*
%TD*%
D17*
%TO.C,R8*%
X32687500Y-49700000D03*
X34512500Y-49700000D03*
%TD*%
D15*
%TO.C,TP3*%
X30400000Y-44000000D03*
%TD*%
D18*
%TO.C,C1*%
X16025000Y-33555000D03*
X17925000Y-33555000D03*
%TD*%
D12*
%TO.C,J5*%
X4000000Y-51000000D03*
D13*
X4000000Y-53540000D03*
%TD*%
D19*
%TO.C,SW1*%
X2925000Y-24925000D03*
X7075000Y-24925000D03*
X2925000Y-27075000D03*
X7075000Y-27075000D03*
%TD*%
D20*
%TO.C,D5*%
X10650000Y-48250000D03*
X11350000Y-48250000D03*
%TD*%
D21*
%TO.C,MH4*%
X56000000Y-76000000D03*
%TD*%
D15*
%TO.C,TP7*%
X33600000Y-47200000D03*
%TD*%
%TO.C,TP2*%
X27200000Y-44000000D03*
%TD*%
D22*
%TO.C,U5*%
X41300000Y-66812500D03*
X42100000Y-66812500D03*
X42900000Y-66812500D03*
X43700000Y-66812500D03*
X43700000Y-69187500D03*
X42900000Y-69187500D03*
X42100000Y-69187500D03*
X41300000Y-69187500D03*
%TD*%
D18*
%TO.C,C10*%
X40597100Y-71909600D03*
X42497100Y-71909600D03*
%TD*%
D23*
%TO.C,U4*%
X26850000Y-69500000D03*
X26850000Y-70750000D03*
X26850000Y-72000000D03*
X26850000Y-73250000D03*
X26850000Y-74500000D03*
D24*
X28500000Y-76150000D03*
X29750000Y-76150000D03*
X31000000Y-76150000D03*
X32250000Y-76150000D03*
X33500000Y-76150000D03*
D23*
X35150000Y-74500000D03*
X35150000Y-73250000D03*
X35150000Y-72000000D03*
X35150000Y-70750000D03*
X35150000Y-69500000D03*
D24*
X33500000Y-67850000D03*
X32250000Y-67850000D03*
X31000000Y-67850000D03*
X29750000Y-67850000D03*
X28500000Y-67850000D03*
D25*
X31000000Y-72000000D03*
%TD*%
D10*
%TO.C,Q2*%
X19831500Y-42531100D03*
X21731500Y-42531100D03*
X20781500Y-40656100D03*
%TD*%
D11*
%TO.C,C11*%
X24250000Y-77100000D03*
X24250000Y-75200000D03*
%TD*%
D14*
%TO.C,R14*%
X7000000Y-69992500D03*
X7000000Y-68167500D03*
%TD*%
D19*
%TO.C,SW2*%
X10925000Y-24925000D03*
X15075000Y-24925000D03*
X10925000Y-27075000D03*
X15075000Y-27075000D03*
%TD*%
D21*
%TO.C,MH1*%
X4000000Y-4000000D03*
%TD*%
D15*
%TO.C,TP10*%
X27200000Y-47200000D03*
%TD*%
D14*
%TO.C,R13*%
X36500000Y-56912500D03*
X36500000Y-55087500D03*
%TD*%
D17*
%TO.C,R1*%
X1966000Y-46562600D03*
X3791000Y-46562600D03*
%TD*%
D26*
%TO.C,U1*%
X12025000Y-35555000D03*
X12025000Y-36825000D03*
X12025000Y-38095000D03*
X12025000Y-39365000D03*
X12025000Y-40635000D03*
X12025000Y-41905000D03*
X12025000Y-43175000D03*
X12025000Y-44445000D03*
X16975000Y-44445000D03*
X16975000Y-43175000D03*
X16975000Y-41905000D03*
X16975000Y-40635000D03*
X16975000Y-39365000D03*
X16975000Y-38095000D03*
X16975000Y-36825000D03*
X16975000Y-35555000D03*
%TD*%
D14*
%TO.C,R12*%
X7000000Y-51912500D03*
X7000000Y-50087500D03*
%TD*%
D27*
%TO.C,J1*%
X2900000Y-42890000D03*
X2900000Y-37110000D03*
D28*
X1455000Y-43250000D03*
X1455000Y-42450000D03*
D29*
X1455000Y-41250000D03*
X1455000Y-40250000D03*
X1455000Y-39750000D03*
X1455000Y-38750000D03*
D28*
X1455000Y-37550000D03*
X1455000Y-36750000D03*
X1455000Y-36750000D03*
X1455000Y-37550000D03*
D29*
X1455000Y-38250000D03*
X1455000Y-39250000D03*
X1455000Y-40750000D03*
X1455000Y-41750000D03*
D28*
X1455000Y-42450000D03*
X1455000Y-43250000D03*
D30*
X2370000Y-44320000D03*
D31*
X6550000Y-44320000D03*
D30*
X2370000Y-35680000D03*
D31*
X6550000Y-35680000D03*
%TD*%
D14*
%TO.C,R5*%
X13850000Y-33594800D03*
X13850000Y-31769800D03*
%TD*%
D17*
%TO.C,R2*%
X1836600Y-33420400D03*
X3661600Y-33420400D03*
%TD*%
D18*
%TO.C,C3*%
X35950000Y-36000000D03*
X37850000Y-36000000D03*
%TD*%
D32*
%TO.C,D9*%
X54343700Y-61221800D03*
X54343700Y-60521800D03*
%TD*%
%TO.C,D6*%
X1343700Y-70141800D03*
X1343700Y-69441800D03*
%TD*%
D33*
%TO.C,U2*%
X28362500Y-32050000D03*
X28362500Y-33000000D03*
X28362500Y-33950000D03*
X30637500Y-33950000D03*
X30637500Y-33000000D03*
X30637500Y-32050000D03*
%TD*%
D32*
%TO.C,D7*%
X54343700Y-56141800D03*
X54343700Y-55441800D03*
%TD*%
D34*
%TO.C,U3*%
X21250000Y-9750000D03*
X21250000Y-11020000D03*
X21250000Y-12290000D03*
X21250000Y-13560000D03*
X21250000Y-14830000D03*
X21250000Y-16100000D03*
X21250000Y-17370000D03*
X21250000Y-18640000D03*
X21250000Y-19910000D03*
X21250000Y-21180000D03*
X21250000Y-22450000D03*
X21250000Y-23720000D03*
X21250000Y-24990000D03*
X21250000Y-26260000D03*
D35*
X24290000Y-27510000D03*
X25560000Y-27510000D03*
X26830000Y-27510000D03*
X28100000Y-27510000D03*
X29370000Y-27510000D03*
X30640000Y-27510000D03*
X31910000Y-27510000D03*
X33180000Y-27510000D03*
X34450000Y-27510000D03*
X35720000Y-27510000D03*
D34*
X38750000Y-26260000D03*
X38750000Y-24990000D03*
X38750000Y-23720000D03*
X38750000Y-22450000D03*
X38750000Y-21180000D03*
X38750000Y-19910000D03*
X38750000Y-18640000D03*
X38750000Y-17370000D03*
X38750000Y-16100000D03*
X38750000Y-14830000D03*
X38750000Y-13560000D03*
X38750000Y-12290000D03*
X38750000Y-11020000D03*
X38750000Y-9750000D03*
D36*
X27795000Y-16327500D03*
X27795000Y-17852500D03*
X28557500Y-15565000D03*
X28557500Y-17090000D03*
X28557500Y-18615000D03*
X29320000Y-16327500D03*
D37*
X29320000Y-17090000D03*
D36*
X29320000Y-17852500D03*
X30082500Y-15565000D03*
X30082500Y-17090000D03*
X30082500Y-18615000D03*
X30845000Y-16327500D03*
X30845000Y-17852500D03*
%TD*%
D38*
%TO.C,D4*%
X5532000Y-47818000D03*
X8832000Y-47818000D03*
%TD*%
D11*
%TO.C,C6*%
X39150000Y-33950000D03*
X39150000Y-32050000D03*
%TD*%
D32*
%TO.C,D3*%
X52170400Y-18724100D03*
X52170400Y-18024100D03*
%TD*%
D18*
%TO.C,C7*%
X29687500Y-30050000D03*
X31587500Y-30050000D03*
%TD*%
D14*
%TO.C,R10*%
X54000000Y-15452500D03*
X54000000Y-13627500D03*
%TD*%
D39*
%TO.C,U6*%
X42000000Y-73600000D03*
X42500000Y-73600000D03*
X43000000Y-73600000D03*
X43000000Y-75400000D03*
X42500000Y-75400000D03*
X42000000Y-75400000D03*
%TD*%
D18*
%TO.C,C5*%
X27412500Y-36000000D03*
X29312500Y-36000000D03*
%TD*%
D15*
%TO.C,TP5*%
X36800000Y-44000000D03*
%TD*%
D21*
%TO.C,MH3*%
X4000000Y-76000000D03*
%TD*%
D12*
%TO.C,J2*%
X57000000Y-12000000D03*
D13*
X57000000Y-14540000D03*
X57000000Y-17080000D03*
X57000000Y-19620000D03*
%TD*%
D40*
%TO.C,Q3*%
X6062500Y-56387500D03*
X6062500Y-58287500D03*
X7937500Y-57337500D03*
%TD*%
D14*
%TO.C,R4*%
X40500000Y-27172500D03*
X40500000Y-25347500D03*
%TD*%
D12*
%TO.C,J7*%
X4000000Y-64000000D03*
D13*
X4000000Y-66540000D03*
X4000000Y-69080000D03*
%TD*%
D15*
%TO.C,TP1*%
X24000000Y-44000000D03*
%TD*%
D20*
%TO.C,D2*%
X53821600Y-11711600D03*
X54521600Y-11711600D03*
%TD*%
D14*
%TO.C,R9*%
X44476500Y-64827200D03*
X44476500Y-63002200D03*
%TD*%
%TO.C,R3*%
X17144800Y-12102500D03*
X17144800Y-10277500D03*
%TD*%
D18*
%TO.C,C4*%
X17825100Y-14764900D03*
X19725100Y-14764900D03*
%TD*%
D41*
%TO.C,D1*%
X5550000Y-10350000D03*
X5550000Y-13650000D03*
X10450000Y-13650000D03*
X10450000Y-10350000D03*
%TD*%
D12*
%TO.C,J9*%
X57000000Y-50000000D03*
D13*
X57000000Y-52540000D03*
X57000000Y-55080000D03*
X57000000Y-57620000D03*
X57000000Y-60160000D03*
X57000000Y-62700000D03*
%TD*%
D21*
%TO.C,MH2*%
X56000000Y-4000000D03*
%TD*%
D15*
%TO.C,TP4*%
X33600000Y-44000000D03*
%TD*%
%TO.C,TP6*%
X30400000Y-47200000D03*
%TD*%
D10*
%TO.C,Q1*%
X19275000Y-38120000D03*
X21175000Y-38120000D03*
X20225000Y-36245000D03*
%TD*%
D42*
%TO.C,F1*%
X21600000Y-33000000D03*
X24400000Y-33000000D03*
%TD*%
D17*
%TO.C,R6*%
X19312500Y-44994200D03*
X21137500Y-44994200D03*
%TD*%
D12*
%TO.C,J4*%
X57000000Y-36000000D03*
D13*
X57000000Y-38540000D03*
X57000000Y-41080000D03*
X57000000Y-43620000D03*
X57000000Y-46160000D03*
%TD*%
D15*
%TO.C,TP8*%
X36800000Y-47200000D03*
%TD*%
D18*
%TO.C,C8*%
X40632400Y-64880600D03*
X42532400Y-64880600D03*
%TD*%
D12*
%TO.C,J8*%
X11000000Y-64000000D03*
D13*
X11000000Y-66540000D03*
X11000000Y-69080000D03*
%TD*%
D20*
%TO.C,D10*%
X57361800Y-65356300D03*
X58061800Y-65356300D03*
%TD*%
D14*
%TO.C,R7*%
X12700000Y-11262500D03*
X12700000Y-9437500D03*
%TD*%
D12*
%TO.C,J6*%
X11000000Y-51000000D03*
D13*
X11000000Y-53540000D03*
%TD*%
D32*
%TO.C,D8*%
X54343700Y-58681800D03*
X54343700Y-57981800D03*
%TD*%
D18*
%TO.C,C9*%
X28800000Y-65350000D03*
X30700000Y-65350000D03*
%TD*%
D43*
%TO.C,L1*%
X34100000Y-33000000D03*
X36900000Y-33000000D03*
%TD*%
M02*
