M48
; DRILL file KiCad 10.0.5 date 2026-08-08T09:44:41
; FORMAT={-:-/ absolute / metric / decimal}
; #@! TF.CreationDate,2026-08-08T09:44:41+02:00
; #@! TF.GenerationSoftware,Kicad,Pcbnew,10.0.5
; #@! TF.FileFunction,Plated,1,4,PTH
FMAT,2
METRIC
; #@! TA.AperFunction,Plated,PTH,ViaDrill
T1C0.300
; #@! TA.AperFunction,Plated,PTH,ComponentDrill
T2C0.300
; #@! TA.AperFunction,Plated,PTH,ComponentDrill
T3C0.600
; #@! TA.AperFunction,Plated,PTH,ComponentDrill
T4C1.000
%
G90
G05
T1
X0.85Y-37.58
X0.967Y-35.572
X1.455Y-44.525
X1.647Y-35.288
X2.0Y-10.0
X2.0Y-14.0
X2.0Y-18.0
X2.0Y-22.0
X2.0Y-26.0
X2.0Y-30.0
X2.0Y-50.0
X2.0Y-54.0
X2.0Y-58.0
X2.0Y-62.0
X2.0Y-66.0
X2.75Y-41.95
X3.095Y-43.929
X3.97Y-35.68
X3.97Y-44.32
X4.0Y-27.075
X4.8Y-39.8
X4.8Y-41.6
X4.912Y-33.42
X5.041Y-46.563
X5.083Y-52.479
X5.313Y-55.576
X5.4Y-64.0
X5.4Y-66.54
X6.0Y-18.0
X6.0Y-22.0
X6.0Y-26.0
X6.0Y-30.0
X6.0Y-34.0
X6.0Y-38.0
X6.0Y-42.0
X6.0Y-46.0
X6.0Y-54.0
X6.0Y-58.0
X6.0Y-62.0
X6.0Y-66.0
X6.55Y-42.65
X6.85Y-10.35
X7.201Y-48.791
X7.35Y-58.287
X7.9Y-35.68
X7.9Y-44.32
X8.15Y-27.075
X8.25Y-69.992
X10.0Y-2.0
X10.0Y-6.0
X10.0Y-14.0
X10.0Y-18.0
X10.0Y-22.0
X10.0Y-26.0
X10.0Y-30.0
X10.0Y-34.0
X10.0Y-38.0
X10.0Y-42.0
X10.0Y-46.0
X10.0Y-54.0
X10.0Y-58.0
X10.0Y-62.0
X10.0Y-66.0
X10.0Y-74.0
X10.0Y-78.0
X10.45Y-44.35
X11.75Y-13.65
X12.0Y-27.075
X12.4Y-53.54
X12.4Y-64.0
X12.4Y-66.54
X12.787Y-12.603
X13.55Y-35.555
X13.55Y-39.365
X13.918Y-36.779
X14.0Y-2.0
X14.0Y-6.0
X14.0Y-10.0
X14.0Y-14.0
X14.0Y-18.0
X14.0Y-22.0
X14.0Y-26.0
X14.0Y-30.0
X14.0Y-38.0
X14.0Y-42.0
X14.0Y-46.0
X14.0Y-50.0
X14.0Y-54.0
X14.0Y-58.0
X14.0Y-62.0
X14.0Y-66.0
X14.0Y-70.0
X14.0Y-74.0
X14.0Y-78.0
X14.361Y-35.09
X14.967Y-38.053
X15.221Y-29.281
X16.15Y-27.075
X16.801Y-34.566
X18.0Y-18.0
X18.0Y-22.0
X18.0Y-26.0
X18.0Y-30.0
X18.0Y-34.0
X18.0Y-46.0
X18.0Y-50.0
X18.0Y-54.0
X18.0Y-58.0
X18.0Y-62.0
X18.0Y-66.0
X18.0Y-70.0
X18.0Y-74.0
X18.0Y-78.0
X18.323Y-13.147
X18.395Y-12.102
X18.488Y-10.846
X18.5Y-35.555
X18.5Y-36.825
X19.183Y-18.081
X19.183Y-26.233
X19.2Y-33.555
X19.7Y-24.84
X19.83Y-13.202
X19.892Y-16.029
X21.25Y-33.65
X21.616Y-31.487
X22.0Y-30.0
X22.0Y-42.0
X22.0Y-50.0
X22.0Y-54.0
X22.0Y-58.0
X22.462Y-38.12
X22.55Y-9.75
X22.55Y-11.02
X23.019Y-42.531
X23.024Y-16.297
X23.168Y-33.463
X23.277Y-19.451
X23.414Y-18.353
X23.431Y-30.207
X23.454Y-35.322
X24.217Y-13.115
X24.218Y-22.179
X24.636Y-30.651
X24.787Y-28.711
X25.017Y-31.52
X25.514Y-75.366
X25.525Y-77.1
X25.934Y-32.776
X26.0Y-10.0
X26.0Y-14.0
X26.0Y-18.0
X26.0Y-22.0
X26.0Y-26.0
X26.0Y-30.0
X26.0Y-34.0
X26.0Y-38.0
X26.0Y-42.0
X26.0Y-46.0
X26.0Y-50.0
X26.0Y-66.0
X26.0Y-78.0
X27.018Y-38.259
X27.191Y-32.364
X27.485Y-22.629
X27.898Y-66.252
X27.906Y-17.17
X27.906Y-18.695
X28.5Y-69.35
X28.648Y-16.219
X28.648Y-17.744
X28.648Y-19.269
X28.65Y-56.0
X28.888Y-77.599
X28.971Y-15.023
X29.18Y-19.681
X29.328Y-28.772
X29.362Y-66.401
X29.407Y-15.565
X29.407Y-17.09
X29.407Y-18.615
X29.695Y-19.253
X30.0Y-10.0
X30.0Y-14.0
X30.0Y-22.0
X30.0Y-26.0
X30.0Y-34.0
X30.0Y-38.0
X30.0Y-42.0
X30.0Y-46.0
X30.0Y-50.0
X30.0Y-54.0
X30.0Y-58.0
X30.138Y-77.599
X30.173Y-16.219
X30.173Y-17.744
X30.493Y-31.241
X30.587Y-36.0
X30.806Y-34.953
X30.932Y-15.565
X30.932Y-17.09
X30.932Y-18.615
X31.599Y-18.431
X31.695Y-16.328
X31.698Y-17.744
X31.7Y-47.2
X31.776Y-19.152
X31.85Y-33.95
X31.92Y-15.565
X31.97Y-17.09
X31.975Y-65.35
X32.517Y-78.36
X33.076Y-31.425
X33.332Y-15.301
X33.448Y-50.692
X34.0Y-10.0
X34.0Y-14.0
X34.0Y-18.0
X34.0Y-22.0
X34.0Y-26.0
X34.0Y-30.0
X34.0Y-38.0
X34.0Y-42.0
X34.0Y-66.0
X34.0Y-78.0
X34.05Y-51.25
X34.094Y-35.492
X34.725Y-52.057
X35.2Y-44.806
X35.2Y-46.278
X35.656Y-48.911
X36.726Y-37.011
X37.442Y-24.857
X38.0Y-10.0
X38.0Y-30.0
X38.0Y-38.0
X38.0Y-42.0
X38.0Y-46.0
X38.0Y-50.0
X38.0Y-54.0
X38.0Y-58.0
X38.0Y-66.0
X38.0Y-70.0
X38.0Y-74.0
X38.0Y-78.0
X38.1Y-44.0
X38.6Y-40.345
X38.6Y-51.883
X38.758Y-27.646
X38.759Y-33.245
X39.125Y-36.0
X40.043Y-14.574
X40.05Y-9.75
X40.111Y-20.769
X40.325Y-15.407
X40.425Y-32.05
X40.425Y-33.95
X41.049Y-19.064
X41.126Y-75.371
X41.223Y-24.276
X41.373Y-72.921
X41.406Y-67.618
X41.408Y-65.892
X41.51Y-69.972
X41.737Y-56.025
X41.75Y-27.172
X41.89Y-68.403
X41.897Y-23.246
X42.0Y-10.0
X42.0Y-14.0
X42.0Y-18.0
X42.0Y-22.0
X42.0Y-26.0
X42.0Y-30.0
X42.0Y-34.0
X42.0Y-38.0
X42.0Y-42.0
X42.0Y-46.0
X42.0Y-50.0
X42.0Y-54.0
X42.0Y-58.0
X42.0Y-62.0
X42.0Y-78.0
X42.098Y-74.344
X42.31Y-67.597
X42.598Y-76.144
X42.654Y-30.775
X42.75Y-19.932
X43.075Y-45.478
X43.11Y-69.972
X43.15Y-67.65
X43.25Y-73.6
X43.305Y-27.431
X43.375Y-74.249
X43.434Y-65.782
X43.772Y-71.91
X43.975Y-28.068
X44.334Y-20.587
X44.371Y-25.22
X44.512Y-69.188
X44.528Y-40.345
X44.763Y-75.612
X45.079Y-44.954
X45.468Y-65.588
X46.0Y-2.0
X46.0Y-6.0
X46.0Y-10.0
X46.0Y-14.0
X46.0Y-18.0
X46.0Y-22.0
X46.0Y-26.0
X46.0Y-30.0
X46.0Y-34.0
X46.0Y-38.0
X46.0Y-42.0
X46.0Y-46.0
X46.0Y-50.0
X46.0Y-54.0
X46.0Y-58.0
X46.0Y-62.0
X46.384Y-43.428
X47.202Y-23.232
X50.0Y-2.0
X50.0Y-6.0
X50.0Y-10.0
X50.0Y-14.0
X50.0Y-18.0
X50.0Y-22.0
X50.0Y-26.0
X50.0Y-30.0
X50.0Y-34.0
X50.0Y-38.0
X50.0Y-42.0
X50.0Y-46.0
X50.0Y-50.0
X50.0Y-54.0
X50.0Y-58.0
X50.0Y-62.0
X50.0Y-66.0
X50.0Y-70.0
X50.0Y-74.0
X50.0Y-78.0
X51.178Y-20.042
X54.0Y-10.0
X54.0Y-22.0
X54.0Y-26.0
X54.0Y-30.0
X54.0Y-34.0
X54.0Y-38.0
X54.0Y-42.0
X54.0Y-46.0
X54.0Y-50.0
X54.0Y-54.0
X54.0Y-62.0
X54.0Y-66.0
X54.0Y-70.0
X55.219Y-19.742
X55.25Y-15.452
X58.0Y-10.0
X58.0Y-22.0
X58.0Y-26.0
X58.0Y-34.0
X58.0Y-38.0
X58.0Y-70.0
X58.4Y-12.0
X58.4Y-19.62
X58.4Y-26.54
X58.4Y-36.0
X58.4Y-38.54
X58.4Y-50.0
X58.4Y-52.54
T2
X27.795Y-16.328
X27.795Y-17.852
X28.557Y-15.565
X28.557Y-17.09
X28.557Y-18.615
X29.32Y-16.328
X29.32Y-17.852
X30.082Y-15.565
X30.082Y-17.09
X30.082Y-18.615
X30.845Y-16.328
X30.845Y-17.852
T4
X4.0Y-51.0
X4.0Y-53.54
X4.0Y-64.0
X4.0Y-66.54
X4.0Y-69.08
X11.0Y-51.0
X11.0Y-53.54
X11.0Y-64.0
X11.0Y-66.54
X11.0Y-69.08
X57.0Y-12.0
X57.0Y-14.54
X57.0Y-17.08
X57.0Y-19.62
X57.0Y-24.0
X57.0Y-26.54
X57.0Y-29.08
X57.0Y-31.62
X57.0Y-36.0
X57.0Y-38.54
X57.0Y-41.08
X57.0Y-43.62
X57.0Y-46.16
X57.0Y-50.0
X57.0Y-52.54
X57.0Y-55.08
X57.0Y-57.62
X57.0Y-60.16
X57.0Y-62.7
T3
X1.82Y-35.68G85X2.92Y-35.68
G05
X1.82Y-44.32G85X2.92Y-44.32
G05
X6.25Y-35.68G85X6.85Y-35.68
G05
X6.25Y-44.32G85X6.85Y-44.32
G05
M30
