%TF.GenerationSoftware,KiCad,Pcbnew,10.0.5*%
%TF.CreationDate,2026-08-08T18:07:34+02:00*%
%TF.ProjectId,wisp,77697370-2e6b-4696-9361-645f70636258,rev?*%
%TF.SameCoordinates,Original*%
%TF.FileFunction,Legend,Top*%
%TF.FilePolarity,Positive*%
%FSLAX46Y46*%
G04 Gerber Fmt 4.6, Leading zero omitted, Abs format (unit mm)*
G04 Created by KiCad (PCBNEW 10.0.5) date 2026-08-08 18:07:34*
%MOMM*%
%LPD*%
G01*
G04 APERTURE LIST*
%ADD10C,0.150000*%
G04 APERTURE END LIST*
D10*
X11733333Y-54247295D02*
X11733333Y-54818723D01*
X11733333Y-54818723D02*
X11695238Y-54933009D01*
X11695238Y-54933009D02*
X11619047Y-55009200D01*
X11619047Y-55009200D02*
X11504762Y-55047295D01*
X11504762Y-55047295D02*
X11428571Y-55047295D01*
X12228571Y-54590152D02*
X12152381Y-54552057D01*
X12152381Y-54552057D02*
X12114286Y-54513961D01*
X12114286Y-54513961D02*
X12076190Y-54437771D01*
X12076190Y-54437771D02*
X12076190Y-54399676D01*
X12076190Y-54399676D02*
X12114286Y-54323485D01*
X12114286Y-54323485D02*
X12152381Y-54285390D01*
X12152381Y-54285390D02*
X12228571Y-54247295D01*
X12228571Y-54247295D02*
X12380952Y-54247295D01*
X12380952Y-54247295D02*
X12457143Y-54285390D01*
X12457143Y-54285390D02*
X12495238Y-54323485D01*
X12495238Y-54323485D02*
X12533333Y-54399676D01*
X12533333Y-54399676D02*
X12533333Y-54437771D01*
X12533333Y-54437771D02*
X12495238Y-54513961D01*
X12495238Y-54513961D02*
X12457143Y-54552057D01*
X12457143Y-54552057D02*
X12380952Y-54590152D01*
X12380952Y-54590152D02*
X12228571Y-54590152D01*
X12228571Y-54590152D02*
X12152381Y-54628247D01*
X12152381Y-54628247D02*
X12114286Y-54666342D01*
X12114286Y-54666342D02*
X12076190Y-54742533D01*
X12076190Y-54742533D02*
X12076190Y-54894914D01*
X12076190Y-54894914D02*
X12114286Y-54971104D01*
X12114286Y-54971104D02*
X12152381Y-55009200D01*
X12152381Y-55009200D02*
X12228571Y-55047295D01*
X12228571Y-55047295D02*
X12380952Y-55047295D01*
X12380952Y-55047295D02*
X12457143Y-55009200D01*
X12457143Y-55009200D02*
X12495238Y-54971104D01*
X12495238Y-54971104D02*
X12533333Y-54894914D01*
X12533333Y-54894914D02*
X12533333Y-54742533D01*
X12533333Y-54742533D02*
X12495238Y-54666342D01*
X12495238Y-54666342D02*
X12457143Y-54628247D01*
X12457143Y-54628247D02*
X12380952Y-54590152D01*
X21417314Y-76979504D02*
X21379218Y-77017600D01*
X21379218Y-77017600D02*
X21264933Y-77055695D01*
X21264933Y-77055695D02*
X21188742Y-77055695D01*
X21188742Y-77055695D02*
X21074456Y-77017600D01*
X21074456Y-77017600D02*
X20998266Y-76941409D01*
X20998266Y-76941409D02*
X20960171Y-76865219D01*
X20960171Y-76865219D02*
X20922075Y-76712838D01*
X20922075Y-76712838D02*
X20922075Y-76598552D01*
X20922075Y-76598552D02*
X20960171Y-76446171D01*
X20960171Y-76446171D02*
X20998266Y-76369980D01*
X20998266Y-76369980D02*
X21074456Y-76293790D01*
X21074456Y-76293790D02*
X21188742Y-76255695D01*
X21188742Y-76255695D02*
X21264933Y-76255695D01*
X21264933Y-76255695D02*
X21379218Y-76293790D01*
X21379218Y-76293790D02*
X21417314Y-76331885D01*
X22179218Y-77055695D02*
X21722075Y-77055695D01*
X21950647Y-77055695D02*
X21950647Y-76255695D01*
X21950647Y-76255695D02*
X21874456Y-76369980D01*
X21874456Y-76369980D02*
X21798266Y-76446171D01*
X21798266Y-76446171D02*
X21722075Y-76484266D01*
X22445885Y-76255695D02*
X22941123Y-76255695D01*
X22941123Y-76255695D02*
X22674457Y-76560457D01*
X22674457Y-76560457D02*
X22788742Y-76560457D01*
X22788742Y-76560457D02*
X22864933Y-76598552D01*
X22864933Y-76598552D02*
X22903028Y-76636647D01*
X22903028Y-76636647D02*
X22941123Y-76712838D01*
X22941123Y-76712838D02*
X22941123Y-76903314D01*
X22941123Y-76903314D02*
X22903028Y-76979504D01*
X22903028Y-76979504D02*
X22864933Y-77017600D01*
X22864933Y-77017600D02*
X22788742Y-77055695D01*
X22788742Y-77055695D02*
X22560171Y-77055695D01*
X22560171Y-77055695D02*
X22483980Y-77017600D01*
X22483980Y-77017600D02*
X22445885Y-76979504D01*
X27190889Y-45762708D02*
X27648032Y-45762708D01*
X27419460Y-46562708D02*
X27419460Y-45762708D01*
X27914699Y-46562708D02*
X27914699Y-45762708D01*
X27914699Y-45762708D02*
X28219461Y-45762708D01*
X28219461Y-45762708D02*
X28295651Y-45800803D01*
X28295651Y-45800803D02*
X28333746Y-45838898D01*
X28333746Y-45838898D02*
X28371842Y-45915089D01*
X28371842Y-45915089D02*
X28371842Y-46029374D01*
X28371842Y-46029374D02*
X28333746Y-46105565D01*
X28333746Y-46105565D02*
X28295651Y-46143660D01*
X28295651Y-46143660D02*
X28219461Y-46181755D01*
X28219461Y-46181755D02*
X27914699Y-46181755D01*
X28752794Y-46562708D02*
X28905175Y-46562708D01*
X28905175Y-46562708D02*
X28981365Y-46524613D01*
X28981365Y-46524613D02*
X29019461Y-46486517D01*
X29019461Y-46486517D02*
X29095651Y-46372232D01*
X29095651Y-46372232D02*
X29133746Y-46219851D01*
X29133746Y-46219851D02*
X29133746Y-45915089D01*
X29133746Y-45915089D02*
X29095651Y-45838898D01*
X29095651Y-45838898D02*
X29057556Y-45800803D01*
X29057556Y-45800803D02*
X28981365Y-45762708D01*
X28981365Y-45762708D02*
X28828984Y-45762708D01*
X28828984Y-45762708D02*
X28752794Y-45800803D01*
X28752794Y-45800803D02*
X28714699Y-45838898D01*
X28714699Y-45838898D02*
X28676603Y-45915089D01*
X28676603Y-45915089D02*
X28676603Y-46105565D01*
X28676603Y-46105565D02*
X28714699Y-46181755D01*
X28714699Y-46181755D02*
X28752794Y-46219851D01*
X28752794Y-46219851D02*
X28828984Y-46257946D01*
X28828984Y-46257946D02*
X28981365Y-46257946D01*
X28981365Y-46257946D02*
X29057556Y-46219851D01*
X29057556Y-46219851D02*
X29095651Y-46181755D01*
X29095651Y-46181755D02*
X29133746Y-46105565D01*
X52939724Y-23807095D02*
X52939724Y-23007095D01*
X52939724Y-23007095D02*
X53130200Y-23007095D01*
X53130200Y-23007095D02*
X53244486Y-23045190D01*
X53244486Y-23045190D02*
X53320676Y-23121380D01*
X53320676Y-23121380D02*
X53358771Y-23197571D01*
X53358771Y-23197571D02*
X53396867Y-23349952D01*
X53396867Y-23349952D02*
X53396867Y-23464238D01*
X53396867Y-23464238D02*
X53358771Y-23616619D01*
X53358771Y-23616619D02*
X53320676Y-23692809D01*
X53320676Y-23692809D02*
X53244486Y-23769000D01*
X53244486Y-23769000D02*
X53130200Y-23807095D01*
X53130200Y-23807095D02*
X52939724Y-23807095D01*
X53663533Y-23007095D02*
X54158771Y-23007095D01*
X54158771Y-23007095D02*
X53892105Y-23311857D01*
X53892105Y-23311857D02*
X54006390Y-23311857D01*
X54006390Y-23311857D02*
X54082581Y-23349952D01*
X54082581Y-23349952D02*
X54120676Y-23388047D01*
X54120676Y-23388047D02*
X54158771Y-23464238D01*
X54158771Y-23464238D02*
X54158771Y-23654714D01*
X54158771Y-23654714D02*
X54120676Y-23730904D01*
X54120676Y-23730904D02*
X54082581Y-23769000D01*
X54082581Y-23769000D02*
X54006390Y-23807095D01*
X54006390Y-23807095D02*
X53777819Y-23807095D01*
X53777819Y-23807095D02*
X53701628Y-23769000D01*
X53701628Y-23769000D02*
X53663533Y-23730904D01*
X39261667Y-36286104D02*
X39223571Y-36324200D01*
X39223571Y-36324200D02*
X39109286Y-36362295D01*
X39109286Y-36362295D02*
X39033095Y-36362295D01*
X39033095Y-36362295D02*
X38918809Y-36324200D01*
X38918809Y-36324200D02*
X38842619Y-36248009D01*
X38842619Y-36248009D02*
X38804524Y-36171819D01*
X38804524Y-36171819D02*
X38766428Y-36019438D01*
X38766428Y-36019438D02*
X38766428Y-35905152D01*
X38766428Y-35905152D02*
X38804524Y-35752771D01*
X38804524Y-35752771D02*
X38842619Y-35676580D01*
X38842619Y-35676580D02*
X38918809Y-35600390D01*
X38918809Y-35600390D02*
X39033095Y-35562295D01*
X39033095Y-35562295D02*
X39109286Y-35562295D01*
X39109286Y-35562295D02*
X39223571Y-35600390D01*
X39223571Y-35600390D02*
X39261667Y-35638485D01*
X39947381Y-35562295D02*
X39795000Y-35562295D01*
X39795000Y-35562295D02*
X39718809Y-35600390D01*
X39718809Y-35600390D02*
X39680714Y-35638485D01*
X39680714Y-35638485D02*
X39604524Y-35752771D01*
X39604524Y-35752771D02*
X39566428Y-35905152D01*
X39566428Y-35905152D02*
X39566428Y-36209914D01*
X39566428Y-36209914D02*
X39604524Y-36286104D01*
X39604524Y-36286104D02*
X39642619Y-36324200D01*
X39642619Y-36324200D02*
X39718809Y-36362295D01*
X39718809Y-36362295D02*
X39871190Y-36362295D01*
X39871190Y-36362295D02*
X39947381Y-36324200D01*
X39947381Y-36324200D02*
X39985476Y-36286104D01*
X39985476Y-36286104D02*
X40023571Y-36209914D01*
X40023571Y-36209914D02*
X40023571Y-36019438D01*
X40023571Y-36019438D02*
X39985476Y-35943247D01*
X39985476Y-35943247D02*
X39947381Y-35905152D01*
X39947381Y-35905152D02*
X39871190Y-35867057D01*
X39871190Y-35867057D02*
X39718809Y-35867057D01*
X39718809Y-35867057D02*
X39642619Y-35905152D01*
X39642619Y-35905152D02*
X39604524Y-35943247D01*
X39604524Y-35943247D02*
X39566428Y-36019438D01*
X15374814Y-56702004D02*
X15336718Y-56740100D01*
X15336718Y-56740100D02*
X15222433Y-56778195D01*
X15222433Y-56778195D02*
X15146242Y-56778195D01*
X15146242Y-56778195D02*
X15031956Y-56740100D01*
X15031956Y-56740100D02*
X14955766Y-56663909D01*
X14955766Y-56663909D02*
X14917671Y-56587719D01*
X14917671Y-56587719D02*
X14879575Y-56435338D01*
X14879575Y-56435338D02*
X14879575Y-56321052D01*
X14879575Y-56321052D02*
X14917671Y-56168671D01*
X14917671Y-56168671D02*
X14955766Y-56092480D01*
X14955766Y-56092480D02*
X15031956Y-56016290D01*
X15031956Y-56016290D02*
X15146242Y-55978195D01*
X15146242Y-55978195D02*
X15222433Y-55978195D01*
X15222433Y-55978195D02*
X15336718Y-56016290D01*
X15336718Y-56016290D02*
X15374814Y-56054385D01*
X16136718Y-56778195D02*
X15679575Y-56778195D01*
X15908147Y-56778195D02*
X15908147Y-55978195D01*
X15908147Y-55978195D02*
X15831956Y-56092480D01*
X15831956Y-56092480D02*
X15755766Y-56168671D01*
X15755766Y-56168671D02*
X15679575Y-56206766D01*
X16822433Y-55978195D02*
X16670052Y-55978195D01*
X16670052Y-55978195D02*
X16593861Y-56016290D01*
X16593861Y-56016290D02*
X16555766Y-56054385D01*
X16555766Y-56054385D02*
X16479576Y-56168671D01*
X16479576Y-56168671D02*
X16441480Y-56321052D01*
X16441480Y-56321052D02*
X16441480Y-56625814D01*
X16441480Y-56625814D02*
X16479576Y-56702004D01*
X16479576Y-56702004D02*
X16517671Y-56740100D01*
X16517671Y-56740100D02*
X16593861Y-56778195D01*
X16593861Y-56778195D02*
X16746242Y-56778195D01*
X16746242Y-56778195D02*
X16822433Y-56740100D01*
X16822433Y-56740100D02*
X16860528Y-56702004D01*
X16860528Y-56702004D02*
X16898623Y-56625814D01*
X16898623Y-56625814D02*
X16898623Y-56435338D01*
X16898623Y-56435338D02*
X16860528Y-56359147D01*
X16860528Y-56359147D02*
X16822433Y-56321052D01*
X16822433Y-56321052D02*
X16746242Y-56282957D01*
X16746242Y-56282957D02*
X16593861Y-56282957D01*
X16593861Y-56282957D02*
X16517671Y-56321052D01*
X16517671Y-56321052D02*
X16479576Y-56359147D01*
X16479576Y-56359147D02*
X16441480Y-56435338D01*
X25421667Y-24667295D02*
X25155000Y-24286342D01*
X24964524Y-24667295D02*
X24964524Y-23867295D01*
X24964524Y-23867295D02*
X25269286Y-23867295D01*
X25269286Y-23867295D02*
X25345476Y-23905390D01*
X25345476Y-23905390D02*
X25383571Y-23943485D01*
X25383571Y-23943485D02*
X25421667Y-24019676D01*
X25421667Y-24019676D02*
X25421667Y-24133961D01*
X25421667Y-24133961D02*
X25383571Y-24210152D01*
X25383571Y-24210152D02*
X25345476Y-24248247D01*
X25345476Y-24248247D02*
X25269286Y-24286342D01*
X25269286Y-24286342D02*
X24964524Y-24286342D01*
X25802619Y-24667295D02*
X25955000Y-24667295D01*
X25955000Y-24667295D02*
X26031190Y-24629200D01*
X26031190Y-24629200D02*
X26069286Y-24591104D01*
X26069286Y-24591104D02*
X26145476Y-24476819D01*
X26145476Y-24476819D02*
X26183571Y-24324438D01*
X26183571Y-24324438D02*
X26183571Y-24019676D01*
X26183571Y-24019676D02*
X26145476Y-23943485D01*
X26145476Y-23943485D02*
X26107381Y-23905390D01*
X26107381Y-23905390D02*
X26031190Y-23867295D01*
X26031190Y-23867295D02*
X25878809Y-23867295D01*
X25878809Y-23867295D02*
X25802619Y-23905390D01*
X25802619Y-23905390D02*
X25764524Y-23943485D01*
X25764524Y-23943485D02*
X25726428Y-24019676D01*
X25726428Y-24019676D02*
X25726428Y-24210152D01*
X25726428Y-24210152D02*
X25764524Y-24286342D01*
X25764524Y-24286342D02*
X25802619Y-24324438D01*
X25802619Y-24324438D02*
X25878809Y-24362533D01*
X25878809Y-24362533D02*
X26031190Y-24362533D01*
X26031190Y-24362533D02*
X26107381Y-24324438D01*
X26107381Y-24324438D02*
X26145476Y-24286342D01*
X26145476Y-24286342D02*
X26183571Y-24210152D01*
X44441667Y-25112295D02*
X44175000Y-24731342D01*
X43984524Y-25112295D02*
X43984524Y-24312295D01*
X43984524Y-24312295D02*
X44289286Y-24312295D01*
X44289286Y-24312295D02*
X44365476Y-24350390D01*
X44365476Y-24350390D02*
X44403571Y-24388485D01*
X44403571Y-24388485D02*
X44441667Y-24464676D01*
X44441667Y-24464676D02*
X44441667Y-24578961D01*
X44441667Y-24578961D02*
X44403571Y-24655152D01*
X44403571Y-24655152D02*
X44365476Y-24693247D01*
X44365476Y-24693247D02*
X44289286Y-24731342D01*
X44289286Y-24731342D02*
X43984524Y-24731342D01*
X45127381Y-24578961D02*
X45127381Y-25112295D01*
X44936905Y-24274200D02*
X44746428Y-24845628D01*
X44746428Y-24845628D02*
X45241667Y-24845628D01*
X11028571Y-66637295D02*
X11028571Y-65837295D01*
X11028571Y-65837295D02*
X11219047Y-65837295D01*
X11219047Y-65837295D02*
X11333333Y-65875390D01*
X11333333Y-65875390D02*
X11409523Y-65951580D01*
X11409523Y-65951580D02*
X11447618Y-66027771D01*
X11447618Y-66027771D02*
X11485714Y-66180152D01*
X11485714Y-66180152D02*
X11485714Y-66294438D01*
X11485714Y-66294438D02*
X11447618Y-66446819D01*
X11447618Y-66446819D02*
X11409523Y-66523009D01*
X11409523Y-66523009D02*
X11333333Y-66599200D01*
X11333333Y-66599200D02*
X11219047Y-66637295D01*
X11219047Y-66637295D02*
X11028571Y-66637295D01*
X12247618Y-66637295D02*
X11790475Y-66637295D01*
X12019047Y-66637295D02*
X12019047Y-65837295D01*
X12019047Y-65837295D02*
X11942856Y-65951580D01*
X11942856Y-65951580D02*
X11866666Y-66027771D01*
X11866666Y-66027771D02*
X11790475Y-66065866D01*
X12514285Y-65837295D02*
X13009523Y-65837295D01*
X13009523Y-65837295D02*
X12742857Y-66142057D01*
X12742857Y-66142057D02*
X12857142Y-66142057D01*
X12857142Y-66142057D02*
X12933333Y-66180152D01*
X12933333Y-66180152D02*
X12971428Y-66218247D01*
X12971428Y-66218247D02*
X13009523Y-66294438D01*
X13009523Y-66294438D02*
X13009523Y-66484914D01*
X13009523Y-66484914D02*
X12971428Y-66561104D01*
X12971428Y-66561104D02*
X12933333Y-66599200D01*
X12933333Y-66599200D02*
X12857142Y-66637295D01*
X12857142Y-66637295D02*
X12628571Y-66637295D01*
X12628571Y-66637295D02*
X12552380Y-66599200D01*
X12552380Y-66599200D02*
X12514285Y-66561104D01*
X18695476Y-47562295D02*
X19152619Y-47562295D01*
X18924047Y-48362295D02*
X18924047Y-47562295D01*
X19419286Y-48362295D02*
X19419286Y-47562295D01*
X19419286Y-47562295D02*
X19724048Y-47562295D01*
X19724048Y-47562295D02*
X19800238Y-47600390D01*
X19800238Y-47600390D02*
X19838333Y-47638485D01*
X19838333Y-47638485D02*
X19876429Y-47714676D01*
X19876429Y-47714676D02*
X19876429Y-47828961D01*
X19876429Y-47828961D02*
X19838333Y-47905152D01*
X19838333Y-47905152D02*
X19800238Y-47943247D01*
X19800238Y-47943247D02*
X19724048Y-47981342D01*
X19724048Y-47981342D02*
X19419286Y-47981342D01*
X20143095Y-47562295D02*
X20676429Y-47562295D01*
X20676429Y-47562295D02*
X20333571Y-48362295D01*
X6409524Y-9067295D02*
X6409524Y-8267295D01*
X6409524Y-8267295D02*
X6600000Y-8267295D01*
X6600000Y-8267295D02*
X6714286Y-8305390D01*
X6714286Y-8305390D02*
X6790476Y-8381580D01*
X6790476Y-8381580D02*
X6828571Y-8457771D01*
X6828571Y-8457771D02*
X6866667Y-8610152D01*
X6866667Y-8610152D02*
X6866667Y-8724438D01*
X6866667Y-8724438D02*
X6828571Y-8876819D01*
X6828571Y-8876819D02*
X6790476Y-8953009D01*
X6790476Y-8953009D02*
X6714286Y-9029200D01*
X6714286Y-9029200D02*
X6600000Y-9067295D01*
X6600000Y-9067295D02*
X6409524Y-9067295D01*
X7628571Y-9067295D02*
X7171428Y-9067295D01*
X7400000Y-9067295D02*
X7400000Y-8267295D01*
X7400000Y-8267295D02*
X7323809Y-8381580D01*
X7323809Y-8381580D02*
X7247619Y-8457771D01*
X7247619Y-8457771D02*
X7171428Y-8495866D01*
X11733333Y-52427295D02*
X11733333Y-52998723D01*
X11733333Y-52998723D02*
X11695238Y-53113009D01*
X11695238Y-53113009D02*
X11619047Y-53189200D01*
X11619047Y-53189200D02*
X11504762Y-53227295D01*
X11504762Y-53227295D02*
X11428571Y-53227295D01*
X12457143Y-52427295D02*
X12304762Y-52427295D01*
X12304762Y-52427295D02*
X12228571Y-52465390D01*
X12228571Y-52465390D02*
X12190476Y-52503485D01*
X12190476Y-52503485D02*
X12114286Y-52617771D01*
X12114286Y-52617771D02*
X12076190Y-52770152D01*
X12076190Y-52770152D02*
X12076190Y-53074914D01*
X12076190Y-53074914D02*
X12114286Y-53151104D01*
X12114286Y-53151104D02*
X12152381Y-53189200D01*
X12152381Y-53189200D02*
X12228571Y-53227295D01*
X12228571Y-53227295D02*
X12380952Y-53227295D01*
X12380952Y-53227295D02*
X12457143Y-53189200D01*
X12457143Y-53189200D02*
X12495238Y-53151104D01*
X12495238Y-53151104D02*
X12533333Y-53074914D01*
X12533333Y-53074914D02*
X12533333Y-52884438D01*
X12533333Y-52884438D02*
X12495238Y-52808247D01*
X12495238Y-52808247D02*
X12457143Y-52770152D01*
X12457143Y-52770152D02*
X12380952Y-52732057D01*
X12380952Y-52732057D02*
X12228571Y-52732057D01*
X12228571Y-52732057D02*
X12152381Y-52770152D01*
X12152381Y-52770152D02*
X12114286Y-52808247D01*
X12114286Y-52808247D02*
X12076190Y-52884438D01*
X23984167Y-36436104D02*
X23946071Y-36474200D01*
X23946071Y-36474200D02*
X23831786Y-36512295D01*
X23831786Y-36512295D02*
X23755595Y-36512295D01*
X23755595Y-36512295D02*
X23641309Y-36474200D01*
X23641309Y-36474200D02*
X23565119Y-36398009D01*
X23565119Y-36398009D02*
X23527024Y-36321819D01*
X23527024Y-36321819D02*
X23488928Y-36169438D01*
X23488928Y-36169438D02*
X23488928Y-36055152D01*
X23488928Y-36055152D02*
X23527024Y-35902771D01*
X23527024Y-35902771D02*
X23565119Y-35826580D01*
X23565119Y-35826580D02*
X23641309Y-35750390D01*
X23641309Y-35750390D02*
X23755595Y-35712295D01*
X23755595Y-35712295D02*
X23831786Y-35712295D01*
X23831786Y-35712295D02*
X23946071Y-35750390D01*
X23946071Y-35750390D02*
X23984167Y-35788485D01*
X24707976Y-35712295D02*
X24327024Y-35712295D01*
X24327024Y-35712295D02*
X24288928Y-36093247D01*
X24288928Y-36093247D02*
X24327024Y-36055152D01*
X24327024Y-36055152D02*
X24403214Y-36017057D01*
X24403214Y-36017057D02*
X24593690Y-36017057D01*
X24593690Y-36017057D02*
X24669881Y-36055152D01*
X24669881Y-36055152D02*
X24707976Y-36093247D01*
X24707976Y-36093247D02*
X24746071Y-36169438D01*
X24746071Y-36169438D02*
X24746071Y-36359914D01*
X24746071Y-36359914D02*
X24707976Y-36436104D01*
X24707976Y-36436104D02*
X24669881Y-36474200D01*
X24669881Y-36474200D02*
X24593690Y-36512295D01*
X24593690Y-36512295D02*
X24403214Y-36512295D01*
X24403214Y-36512295D02*
X24327024Y-36474200D01*
X24327024Y-36474200D02*
X24288928Y-36436104D01*
X37890714Y-68735304D02*
X37852618Y-68773400D01*
X37852618Y-68773400D02*
X37738333Y-68811495D01*
X37738333Y-68811495D02*
X37662142Y-68811495D01*
X37662142Y-68811495D02*
X37547856Y-68773400D01*
X37547856Y-68773400D02*
X37471666Y-68697209D01*
X37471666Y-68697209D02*
X37433571Y-68621019D01*
X37433571Y-68621019D02*
X37395475Y-68468638D01*
X37395475Y-68468638D02*
X37395475Y-68354352D01*
X37395475Y-68354352D02*
X37433571Y-68201971D01*
X37433571Y-68201971D02*
X37471666Y-68125780D01*
X37471666Y-68125780D02*
X37547856Y-68049590D01*
X37547856Y-68049590D02*
X37662142Y-68011495D01*
X37662142Y-68011495D02*
X37738333Y-68011495D01*
X37738333Y-68011495D02*
X37852618Y-68049590D01*
X37852618Y-68049590D02*
X37890714Y-68087685D01*
X38652618Y-68811495D02*
X38195475Y-68811495D01*
X38424047Y-68811495D02*
X38424047Y-68011495D01*
X38424047Y-68011495D02*
X38347856Y-68125780D01*
X38347856Y-68125780D02*
X38271666Y-68201971D01*
X38271666Y-68201971D02*
X38195475Y-68240066D01*
X39147857Y-68011495D02*
X39224047Y-68011495D01*
X39224047Y-68011495D02*
X39300238Y-68049590D01*
X39300238Y-68049590D02*
X39338333Y-68087685D01*
X39338333Y-68087685D02*
X39376428Y-68163876D01*
X39376428Y-68163876D02*
X39414523Y-68316257D01*
X39414523Y-68316257D02*
X39414523Y-68506733D01*
X39414523Y-68506733D02*
X39376428Y-68659114D01*
X39376428Y-68659114D02*
X39338333Y-68735304D01*
X39338333Y-68735304D02*
X39300238Y-68773400D01*
X39300238Y-68773400D02*
X39224047Y-68811495D01*
X39224047Y-68811495D02*
X39147857Y-68811495D01*
X39147857Y-68811495D02*
X39071666Y-68773400D01*
X39071666Y-68773400D02*
X39033571Y-68735304D01*
X39033571Y-68735304D02*
X38995476Y-68659114D01*
X38995476Y-68659114D02*
X38957380Y-68506733D01*
X38957380Y-68506733D02*
X38957380Y-68316257D01*
X38957380Y-68316257D02*
X38995476Y-68163876D01*
X38995476Y-68163876D02*
X39033571Y-68087685D01*
X39033571Y-68087685D02*
X39071666Y-68049590D01*
X39071666Y-68049590D02*
X39147857Y-68011495D01*
X31361667Y-77536104D02*
X31323571Y-77574200D01*
X31323571Y-77574200D02*
X31209286Y-77612295D01*
X31209286Y-77612295D02*
X31133095Y-77612295D01*
X31133095Y-77612295D02*
X31018809Y-77574200D01*
X31018809Y-77574200D02*
X30942619Y-77498009D01*
X30942619Y-77498009D02*
X30904524Y-77421819D01*
X30904524Y-77421819D02*
X30866428Y-77269438D01*
X30866428Y-77269438D02*
X30866428Y-77155152D01*
X30866428Y-77155152D02*
X30904524Y-77002771D01*
X30904524Y-77002771D02*
X30942619Y-76926580D01*
X30942619Y-76926580D02*
X31018809Y-76850390D01*
X31018809Y-76850390D02*
X31133095Y-76812295D01*
X31133095Y-76812295D02*
X31209286Y-76812295D01*
X31209286Y-76812295D02*
X31323571Y-76850390D01*
X31323571Y-76850390D02*
X31361667Y-76888485D01*
X31742619Y-77612295D02*
X31895000Y-77612295D01*
X31895000Y-77612295D02*
X31971190Y-77574200D01*
X31971190Y-77574200D02*
X32009286Y-77536104D01*
X32009286Y-77536104D02*
X32085476Y-77421819D01*
X32085476Y-77421819D02*
X32123571Y-77269438D01*
X32123571Y-77269438D02*
X32123571Y-76964676D01*
X32123571Y-76964676D02*
X32085476Y-76888485D01*
X32085476Y-76888485D02*
X32047381Y-76850390D01*
X32047381Y-76850390D02*
X31971190Y-76812295D01*
X31971190Y-76812295D02*
X31818809Y-76812295D01*
X31818809Y-76812295D02*
X31742619Y-76850390D01*
X31742619Y-76850390D02*
X31704524Y-76888485D01*
X31704524Y-76888485D02*
X31666428Y-76964676D01*
X31666428Y-76964676D02*
X31666428Y-77155152D01*
X31666428Y-77155152D02*
X31704524Y-77231342D01*
X31704524Y-77231342D02*
X31742619Y-77269438D01*
X31742619Y-77269438D02*
X31818809Y-77307533D01*
X31818809Y-77307533D02*
X31971190Y-77307533D01*
X31971190Y-77307533D02*
X32047381Y-77269438D01*
X32047381Y-77269438D02*
X32085476Y-77231342D01*
X32085476Y-77231342D02*
X32123571Y-77155152D01*
X46935476Y-69562295D02*
X46935476Y-70209914D01*
X46935476Y-70209914D02*
X46973571Y-70286104D01*
X46973571Y-70286104D02*
X47011666Y-70324200D01*
X47011666Y-70324200D02*
X47087857Y-70362295D01*
X47087857Y-70362295D02*
X47240238Y-70362295D01*
X47240238Y-70362295D02*
X47316428Y-70324200D01*
X47316428Y-70324200D02*
X47354523Y-70286104D01*
X47354523Y-70286104D02*
X47392619Y-70209914D01*
X47392619Y-70209914D02*
X47392619Y-69562295D01*
X48116428Y-69562295D02*
X47964047Y-69562295D01*
X47964047Y-69562295D02*
X47887856Y-69600390D01*
X47887856Y-69600390D02*
X47849761Y-69638485D01*
X47849761Y-69638485D02*
X47773571Y-69752771D01*
X47773571Y-69752771D02*
X47735475Y-69905152D01*
X47735475Y-69905152D02*
X47735475Y-70209914D01*
X47735475Y-70209914D02*
X47773571Y-70286104D01*
X47773571Y-70286104D02*
X47811666Y-70324200D01*
X47811666Y-70324200D02*
X47887856Y-70362295D01*
X47887856Y-70362295D02*
X48040237Y-70362295D01*
X48040237Y-70362295D02*
X48116428Y-70324200D01*
X48116428Y-70324200D02*
X48154523Y-70286104D01*
X48154523Y-70286104D02*
X48192618Y-70209914D01*
X48192618Y-70209914D02*
X48192618Y-70019438D01*
X48192618Y-70019438D02*
X48154523Y-69943247D01*
X48154523Y-69943247D02*
X48116428Y-69905152D01*
X48116428Y-69905152D02*
X48040237Y-69867057D01*
X48040237Y-69867057D02*
X47887856Y-69867057D01*
X47887856Y-69867057D02*
X47811666Y-69905152D01*
X47811666Y-69905152D02*
X47773571Y-69943247D01*
X47773571Y-69943247D02*
X47735475Y-70019438D01*
X12160714Y-16512295D02*
X11894047Y-16131342D01*
X11703571Y-16512295D02*
X11703571Y-15712295D01*
X11703571Y-15712295D02*
X12008333Y-15712295D01*
X12008333Y-15712295D02*
X12084523Y-15750390D01*
X12084523Y-15750390D02*
X12122618Y-15788485D01*
X12122618Y-15788485D02*
X12160714Y-15864676D01*
X12160714Y-15864676D02*
X12160714Y-15978961D01*
X12160714Y-15978961D02*
X12122618Y-16055152D01*
X12122618Y-16055152D02*
X12084523Y-16093247D01*
X12084523Y-16093247D02*
X12008333Y-16131342D01*
X12008333Y-16131342D02*
X11703571Y-16131342D01*
X12465475Y-15788485D02*
X12503571Y-15750390D01*
X12503571Y-15750390D02*
X12579761Y-15712295D01*
X12579761Y-15712295D02*
X12770237Y-15712295D01*
X12770237Y-15712295D02*
X12846428Y-15750390D01*
X12846428Y-15750390D02*
X12884523Y-15788485D01*
X12884523Y-15788485D02*
X12922618Y-15864676D01*
X12922618Y-15864676D02*
X12922618Y-15940866D01*
X12922618Y-15940866D02*
X12884523Y-16055152D01*
X12884523Y-16055152D02*
X12427380Y-16512295D01*
X12427380Y-16512295D02*
X12922618Y-16512295D01*
X13417857Y-15712295D02*
X13494047Y-15712295D01*
X13494047Y-15712295D02*
X13570238Y-15750390D01*
X13570238Y-15750390D02*
X13608333Y-15788485D01*
X13608333Y-15788485D02*
X13646428Y-15864676D01*
X13646428Y-15864676D02*
X13684523Y-16017057D01*
X13684523Y-16017057D02*
X13684523Y-16207533D01*
X13684523Y-16207533D02*
X13646428Y-16359914D01*
X13646428Y-16359914D02*
X13608333Y-16436104D01*
X13608333Y-16436104D02*
X13570238Y-16474200D01*
X13570238Y-16474200D02*
X13494047Y-16512295D01*
X13494047Y-16512295D02*
X13417857Y-16512295D01*
X13417857Y-16512295D02*
X13341666Y-16474200D01*
X13341666Y-16474200D02*
X13303571Y-16436104D01*
X13303571Y-16436104D02*
X13265476Y-16359914D01*
X13265476Y-16359914D02*
X13227380Y-16207533D01*
X13227380Y-16207533D02*
X13227380Y-16017057D01*
X13227380Y-16017057D02*
X13265476Y-15864676D01*
X13265476Y-15864676D02*
X13303571Y-15788485D01*
X13303571Y-15788485D02*
X13341666Y-15750390D01*
X13341666Y-15750390D02*
X13417857Y-15712295D01*
X7298333Y-50102295D02*
X7298333Y-50673723D01*
X7298333Y-50673723D02*
X7260238Y-50788009D01*
X7260238Y-50788009D02*
X7184047Y-50864200D01*
X7184047Y-50864200D02*
X7069762Y-50902295D01*
X7069762Y-50902295D02*
X6993571Y-50902295D01*
X8060238Y-50102295D02*
X7679286Y-50102295D01*
X7679286Y-50102295D02*
X7641190Y-50483247D01*
X7641190Y-50483247D02*
X7679286Y-50445152D01*
X7679286Y-50445152D02*
X7755476Y-50407057D01*
X7755476Y-50407057D02*
X7945952Y-50407057D01*
X7945952Y-50407057D02*
X8022143Y-50445152D01*
X8022143Y-50445152D02*
X8060238Y-50483247D01*
X8060238Y-50483247D02*
X8098333Y-50559438D01*
X8098333Y-50559438D02*
X8098333Y-50749914D01*
X8098333Y-50749914D02*
X8060238Y-50826104D01*
X8060238Y-50826104D02*
X8022143Y-50864200D01*
X8022143Y-50864200D02*
X7945952Y-50902295D01*
X7945952Y-50902295D02*
X7755476Y-50902295D01*
X7755476Y-50902295D02*
X7679286Y-50864200D01*
X7679286Y-50864200D02*
X7641190Y-50826104D01*
X40609523Y-44267295D02*
X41066666Y-44267295D01*
X40838094Y-45067295D02*
X40838094Y-44267295D01*
X41333333Y-45067295D02*
X41333333Y-44267295D01*
X41333333Y-44267295D02*
X41638095Y-44267295D01*
X41638095Y-44267295D02*
X41714285Y-44305390D01*
X41714285Y-44305390D02*
X41752380Y-44343485D01*
X41752380Y-44343485D02*
X41790476Y-44419676D01*
X41790476Y-44419676D02*
X41790476Y-44533961D01*
X41790476Y-44533961D02*
X41752380Y-44610152D01*
X41752380Y-44610152D02*
X41714285Y-44648247D01*
X41714285Y-44648247D02*
X41638095Y-44686342D01*
X41638095Y-44686342D02*
X41333333Y-44686342D01*
X42552380Y-45067295D02*
X42095237Y-45067295D01*
X42323809Y-45067295D02*
X42323809Y-44267295D01*
X42323809Y-44267295D02*
X42247618Y-44381580D01*
X42247618Y-44381580D02*
X42171428Y-44457771D01*
X42171428Y-44457771D02*
X42095237Y-44495866D01*
X42857142Y-44343485D02*
X42895238Y-44305390D01*
X42895238Y-44305390D02*
X42971428Y-44267295D01*
X42971428Y-44267295D02*
X43161904Y-44267295D01*
X43161904Y-44267295D02*
X43238095Y-44305390D01*
X43238095Y-44305390D02*
X43276190Y-44343485D01*
X43276190Y-44343485D02*
X43314285Y-44419676D01*
X43314285Y-44419676D02*
X43314285Y-44495866D01*
X43314285Y-44495866D02*
X43276190Y-44610152D01*
X43276190Y-44610152D02*
X42819047Y-45067295D01*
X42819047Y-45067295D02*
X43314285Y-45067295D01*
X4433332Y-20929200D02*
X4547618Y-20967295D01*
X4547618Y-20967295D02*
X4738094Y-20967295D01*
X4738094Y-20967295D02*
X4814285Y-20929200D01*
X4814285Y-20929200D02*
X4852380Y-20891104D01*
X4852380Y-20891104D02*
X4890475Y-20814914D01*
X4890475Y-20814914D02*
X4890475Y-20738723D01*
X4890475Y-20738723D02*
X4852380Y-20662533D01*
X4852380Y-20662533D02*
X4814285Y-20624438D01*
X4814285Y-20624438D02*
X4738094Y-20586342D01*
X4738094Y-20586342D02*
X4585713Y-20548247D01*
X4585713Y-20548247D02*
X4509523Y-20510152D01*
X4509523Y-20510152D02*
X4471428Y-20472057D01*
X4471428Y-20472057D02*
X4433332Y-20395866D01*
X4433332Y-20395866D02*
X4433332Y-20319676D01*
X4433332Y-20319676D02*
X4471428Y-20243485D01*
X4471428Y-20243485D02*
X4509523Y-20205390D01*
X4509523Y-20205390D02*
X4585713Y-20167295D01*
X4585713Y-20167295D02*
X4776190Y-20167295D01*
X4776190Y-20167295D02*
X4890475Y-20205390D01*
X5157142Y-20167295D02*
X5347618Y-20967295D01*
X5347618Y-20967295D02*
X5499999Y-20395866D01*
X5499999Y-20395866D02*
X5652380Y-20967295D01*
X5652380Y-20967295D02*
X5842857Y-20167295D01*
X6566666Y-20967295D02*
X6109523Y-20967295D01*
X6338095Y-20967295D02*
X6338095Y-20167295D01*
X6338095Y-20167295D02*
X6261904Y-20281580D01*
X6261904Y-20281580D02*
X6185714Y-20357771D01*
X6185714Y-20357771D02*
X6109523Y-20395866D01*
X11248152Y-28598064D02*
X11248152Y-27798064D01*
X11248152Y-27798064D02*
X11438628Y-27798064D01*
X11438628Y-27798064D02*
X11552914Y-27836159D01*
X11552914Y-27836159D02*
X11629104Y-27912349D01*
X11629104Y-27912349D02*
X11667199Y-27988540D01*
X11667199Y-27988540D02*
X11705295Y-28140921D01*
X11705295Y-28140921D02*
X11705295Y-28255207D01*
X11705295Y-28255207D02*
X11667199Y-28407588D01*
X11667199Y-28407588D02*
X11629104Y-28483778D01*
X11629104Y-28483778D02*
X11552914Y-28559969D01*
X11552914Y-28559969D02*
X11438628Y-28598064D01*
X11438628Y-28598064D02*
X11248152Y-28598064D01*
X12467199Y-28598064D02*
X12010056Y-28598064D01*
X12238628Y-28598064D02*
X12238628Y-27798064D01*
X12238628Y-27798064D02*
X12162437Y-27912349D01*
X12162437Y-27912349D02*
X12086247Y-27988540D01*
X12086247Y-27988540D02*
X12010056Y-28026635D01*
X12771961Y-27874254D02*
X12810057Y-27836159D01*
X12810057Y-27836159D02*
X12886247Y-27798064D01*
X12886247Y-27798064D02*
X13076723Y-27798064D01*
X13076723Y-27798064D02*
X13152914Y-27836159D01*
X13152914Y-27836159D02*
X13191009Y-27874254D01*
X13191009Y-27874254D02*
X13229104Y-27950445D01*
X13229104Y-27950445D02*
X13229104Y-28026635D01*
X13229104Y-28026635D02*
X13191009Y-28140921D01*
X13191009Y-28140921D02*
X12733866Y-28598064D01*
X12733866Y-28598064D02*
X13229104Y-28598064D01*
X41710606Y-35601879D02*
X41672510Y-35639975D01*
X41672510Y-35639975D02*
X41558225Y-35678070D01*
X41558225Y-35678070D02*
X41482034Y-35678070D01*
X41482034Y-35678070D02*
X41367748Y-35639975D01*
X41367748Y-35639975D02*
X41291558Y-35563784D01*
X41291558Y-35563784D02*
X41253463Y-35487594D01*
X41253463Y-35487594D02*
X41215367Y-35335213D01*
X41215367Y-35335213D02*
X41215367Y-35220927D01*
X41215367Y-35220927D02*
X41253463Y-35068546D01*
X41253463Y-35068546D02*
X41291558Y-34992355D01*
X41291558Y-34992355D02*
X41367748Y-34916165D01*
X41367748Y-34916165D02*
X41482034Y-34878070D01*
X41482034Y-34878070D02*
X41558225Y-34878070D01*
X41558225Y-34878070D02*
X41672510Y-34916165D01*
X41672510Y-34916165D02*
X41710606Y-34954260D01*
X42472510Y-35678070D02*
X42015367Y-35678070D01*
X42243939Y-35678070D02*
X42243939Y-34878070D01*
X42243939Y-34878070D02*
X42167748Y-34992355D01*
X42167748Y-34992355D02*
X42091558Y-35068546D01*
X42091558Y-35068546D02*
X42015367Y-35106641D01*
X43158225Y-35144736D02*
X43158225Y-35678070D01*
X42967749Y-34839975D02*
X42777272Y-35411403D01*
X42777272Y-35411403D02*
X43272511Y-35411403D01*
X12427967Y-18318595D02*
X12161300Y-17937642D01*
X11970824Y-18318595D02*
X11970824Y-17518595D01*
X11970824Y-17518595D02*
X12275586Y-17518595D01*
X12275586Y-17518595D02*
X12351776Y-17556690D01*
X12351776Y-17556690D02*
X12389871Y-17594785D01*
X12389871Y-17594785D02*
X12427967Y-17670976D01*
X12427967Y-17670976D02*
X12427967Y-17785261D01*
X12427967Y-17785261D02*
X12389871Y-17861452D01*
X12389871Y-17861452D02*
X12351776Y-17899547D01*
X12351776Y-17899547D02*
X12275586Y-17937642D01*
X12275586Y-17937642D02*
X11970824Y-17937642D01*
X12694633Y-17518595D02*
X13227967Y-17518595D01*
X13227967Y-17518595D02*
X12885109Y-18318595D01*
X9732967Y-28955995D02*
X9466300Y-28575042D01*
X9275824Y-28955995D02*
X9275824Y-28155995D01*
X9275824Y-28155995D02*
X9580586Y-28155995D01*
X9580586Y-28155995D02*
X9656776Y-28194090D01*
X9656776Y-28194090D02*
X9694871Y-28232185D01*
X9694871Y-28232185D02*
X9732967Y-28308376D01*
X9732967Y-28308376D02*
X9732967Y-28422661D01*
X9732967Y-28422661D02*
X9694871Y-28498852D01*
X9694871Y-28498852D02*
X9656776Y-28536947D01*
X9656776Y-28536947D02*
X9580586Y-28575042D01*
X9580586Y-28575042D02*
X9275824Y-28575042D01*
X10037728Y-28232185D02*
X10075824Y-28194090D01*
X10075824Y-28194090D02*
X10152014Y-28155995D01*
X10152014Y-28155995D02*
X10342490Y-28155995D01*
X10342490Y-28155995D02*
X10418681Y-28194090D01*
X10418681Y-28194090D02*
X10456776Y-28232185D01*
X10456776Y-28232185D02*
X10494871Y-28308376D01*
X10494871Y-28308376D02*
X10494871Y-28384566D01*
X10494871Y-28384566D02*
X10456776Y-28498852D01*
X10456776Y-28498852D02*
X9999633Y-28955995D01*
X9999633Y-28955995D02*
X10494871Y-28955995D01*
X14597014Y-46995995D02*
X14330347Y-46615042D01*
X14139871Y-46995995D02*
X14139871Y-46195995D01*
X14139871Y-46195995D02*
X14444633Y-46195995D01*
X14444633Y-46195995D02*
X14520823Y-46234090D01*
X14520823Y-46234090D02*
X14558918Y-46272185D01*
X14558918Y-46272185D02*
X14597014Y-46348376D01*
X14597014Y-46348376D02*
X14597014Y-46462661D01*
X14597014Y-46462661D02*
X14558918Y-46538852D01*
X14558918Y-46538852D02*
X14520823Y-46576947D01*
X14520823Y-46576947D02*
X14444633Y-46615042D01*
X14444633Y-46615042D02*
X14139871Y-46615042D01*
X15358918Y-46995995D02*
X14901775Y-46995995D01*
X15130347Y-46995995D02*
X15130347Y-46195995D01*
X15130347Y-46195995D02*
X15054156Y-46310280D01*
X15054156Y-46310280D02*
X14977966Y-46386471D01*
X14977966Y-46386471D02*
X14901775Y-46424566D01*
X16082728Y-46195995D02*
X15701776Y-46195995D01*
X15701776Y-46195995D02*
X15663680Y-46576947D01*
X15663680Y-46576947D02*
X15701776Y-46538852D01*
X15701776Y-46538852D02*
X15777966Y-46500757D01*
X15777966Y-46500757D02*
X15968442Y-46500757D01*
X15968442Y-46500757D02*
X16044633Y-46538852D01*
X16044633Y-46538852D02*
X16082728Y-46576947D01*
X16082728Y-46576947D02*
X16120823Y-46653138D01*
X16120823Y-46653138D02*
X16120823Y-46843614D01*
X16120823Y-46843614D02*
X16082728Y-46919804D01*
X16082728Y-46919804D02*
X16044633Y-46957900D01*
X16044633Y-46957900D02*
X15968442Y-46995995D01*
X15968442Y-46995995D02*
X15777966Y-46995995D01*
X15777966Y-46995995D02*
X15701776Y-46957900D01*
X15701776Y-46957900D02*
X15663680Y-46919804D01*
X52528571Y-71497295D02*
X52528571Y-70697295D01*
X52528571Y-70697295D02*
X52719047Y-70697295D01*
X52719047Y-70697295D02*
X52833333Y-70735390D01*
X52833333Y-70735390D02*
X52909523Y-70811580D01*
X52909523Y-70811580D02*
X52947618Y-70887771D01*
X52947618Y-70887771D02*
X52985714Y-71040152D01*
X52985714Y-71040152D02*
X52985714Y-71154438D01*
X52985714Y-71154438D02*
X52947618Y-71306819D01*
X52947618Y-71306819D02*
X52909523Y-71383009D01*
X52909523Y-71383009D02*
X52833333Y-71459200D01*
X52833333Y-71459200D02*
X52719047Y-71497295D01*
X52719047Y-71497295D02*
X52528571Y-71497295D01*
X53747618Y-71497295D02*
X53290475Y-71497295D01*
X53519047Y-71497295D02*
X53519047Y-70697295D01*
X53519047Y-70697295D02*
X53442856Y-70811580D01*
X53442856Y-70811580D02*
X53366666Y-70887771D01*
X53366666Y-70887771D02*
X53290475Y-70925866D01*
X54433333Y-70963961D02*
X54433333Y-71497295D01*
X54242857Y-70659200D02*
X54052380Y-71230628D01*
X54052380Y-71230628D02*
X54547619Y-71230628D01*
X44060714Y-55862295D02*
X43794047Y-55481342D01*
X43603571Y-55862295D02*
X43603571Y-55062295D01*
X43603571Y-55062295D02*
X43908333Y-55062295D01*
X43908333Y-55062295D02*
X43984523Y-55100390D01*
X43984523Y-55100390D02*
X44022618Y-55138485D01*
X44022618Y-55138485D02*
X44060714Y-55214676D01*
X44060714Y-55214676D02*
X44060714Y-55328961D01*
X44060714Y-55328961D02*
X44022618Y-55405152D01*
X44022618Y-55405152D02*
X43984523Y-55443247D01*
X43984523Y-55443247D02*
X43908333Y-55481342D01*
X43908333Y-55481342D02*
X43603571Y-55481342D01*
X44822618Y-55862295D02*
X44365475Y-55862295D01*
X44594047Y-55862295D02*
X44594047Y-55062295D01*
X44594047Y-55062295D02*
X44517856Y-55176580D01*
X44517856Y-55176580D02*
X44441666Y-55252771D01*
X44441666Y-55252771D02*
X44365475Y-55290866D01*
X45089285Y-55062295D02*
X45584523Y-55062295D01*
X45584523Y-55062295D02*
X45317857Y-55367057D01*
X45317857Y-55367057D02*
X45432142Y-55367057D01*
X45432142Y-55367057D02*
X45508333Y-55405152D01*
X45508333Y-55405152D02*
X45546428Y-55443247D01*
X45546428Y-55443247D02*
X45584523Y-55519438D01*
X45584523Y-55519438D02*
X45584523Y-55709914D01*
X45584523Y-55709914D02*
X45546428Y-55786104D01*
X45546428Y-55786104D02*
X45508333Y-55824200D01*
X45508333Y-55824200D02*
X45432142Y-55862295D01*
X45432142Y-55862295D02*
X45203571Y-55862295D01*
X45203571Y-55862295D02*
X45127380Y-55824200D01*
X45127380Y-55824200D02*
X45089285Y-55786104D01*
X32475505Y-28173883D02*
X32437409Y-28211979D01*
X32437409Y-28211979D02*
X32323124Y-28250074D01*
X32323124Y-28250074D02*
X32246933Y-28250074D01*
X32246933Y-28250074D02*
X32132647Y-28211979D01*
X32132647Y-28211979D02*
X32056457Y-28135788D01*
X32056457Y-28135788D02*
X32018362Y-28059598D01*
X32018362Y-28059598D02*
X31980266Y-27907217D01*
X31980266Y-27907217D02*
X31980266Y-27792931D01*
X31980266Y-27792931D02*
X32018362Y-27640550D01*
X32018362Y-27640550D02*
X32056457Y-27564359D01*
X32056457Y-27564359D02*
X32132647Y-27488169D01*
X32132647Y-27488169D02*
X32246933Y-27450074D01*
X32246933Y-27450074D02*
X32323124Y-27450074D01*
X32323124Y-27450074D02*
X32437409Y-27488169D01*
X32437409Y-27488169D02*
X32475505Y-27526264D01*
X32742171Y-27450074D02*
X33275505Y-27450074D01*
X33275505Y-27450074D02*
X32932647Y-28250074D01*
X30558870Y-65893901D02*
X30558870Y-66541520D01*
X30558870Y-66541520D02*
X30596965Y-66617710D01*
X30596965Y-66617710D02*
X30635060Y-66655806D01*
X30635060Y-66655806D02*
X30711251Y-66693901D01*
X30711251Y-66693901D02*
X30863632Y-66693901D01*
X30863632Y-66693901D02*
X30939822Y-66655806D01*
X30939822Y-66655806D02*
X30977917Y-66617710D01*
X30977917Y-66617710D02*
X31016013Y-66541520D01*
X31016013Y-66541520D02*
X31016013Y-65893901D01*
X31739822Y-66160567D02*
X31739822Y-66693901D01*
X31549346Y-65855806D02*
X31358869Y-66427234D01*
X31358869Y-66427234D02*
X31854108Y-66427234D01*
X36610714Y-64536104D02*
X36572618Y-64574200D01*
X36572618Y-64574200D02*
X36458333Y-64612295D01*
X36458333Y-64612295D02*
X36382142Y-64612295D01*
X36382142Y-64612295D02*
X36267856Y-64574200D01*
X36267856Y-64574200D02*
X36191666Y-64498009D01*
X36191666Y-64498009D02*
X36153571Y-64421819D01*
X36153571Y-64421819D02*
X36115475Y-64269438D01*
X36115475Y-64269438D02*
X36115475Y-64155152D01*
X36115475Y-64155152D02*
X36153571Y-64002771D01*
X36153571Y-64002771D02*
X36191666Y-63926580D01*
X36191666Y-63926580D02*
X36267856Y-63850390D01*
X36267856Y-63850390D02*
X36382142Y-63812295D01*
X36382142Y-63812295D02*
X36458333Y-63812295D01*
X36458333Y-63812295D02*
X36572618Y-63850390D01*
X36572618Y-63850390D02*
X36610714Y-63888485D01*
X37372618Y-64612295D02*
X36915475Y-64612295D01*
X37144047Y-64612295D02*
X37144047Y-63812295D01*
X37144047Y-63812295D02*
X37067856Y-63926580D01*
X37067856Y-63926580D02*
X36991666Y-64002771D01*
X36991666Y-64002771D02*
X36915475Y-64040866D01*
X37753571Y-64612295D02*
X37905952Y-64612295D01*
X37905952Y-64612295D02*
X37982142Y-64574200D01*
X37982142Y-64574200D02*
X38020238Y-64536104D01*
X38020238Y-64536104D02*
X38096428Y-64421819D01*
X38096428Y-64421819D02*
X38134523Y-64269438D01*
X38134523Y-64269438D02*
X38134523Y-63964676D01*
X38134523Y-63964676D02*
X38096428Y-63888485D01*
X38096428Y-63888485D02*
X38058333Y-63850390D01*
X38058333Y-63850390D02*
X37982142Y-63812295D01*
X37982142Y-63812295D02*
X37829761Y-63812295D01*
X37829761Y-63812295D02*
X37753571Y-63850390D01*
X37753571Y-63850390D02*
X37715476Y-63888485D01*
X37715476Y-63888485D02*
X37677380Y-63964676D01*
X37677380Y-63964676D02*
X37677380Y-64155152D01*
X37677380Y-64155152D02*
X37715476Y-64231342D01*
X37715476Y-64231342D02*
X37753571Y-64269438D01*
X37753571Y-64269438D02*
X37829761Y-64307533D01*
X37829761Y-64307533D02*
X37982142Y-64307533D01*
X37982142Y-64307533D02*
X38058333Y-64269438D01*
X38058333Y-64269438D02*
X38096428Y-64231342D01*
X38096428Y-64231342D02*
X38134523Y-64155152D01*
X4116667Y-38962295D02*
X3850000Y-38581342D01*
X3659524Y-38962295D02*
X3659524Y-38162295D01*
X3659524Y-38162295D02*
X3964286Y-38162295D01*
X3964286Y-38162295D02*
X4040476Y-38200390D01*
X4040476Y-38200390D02*
X4078571Y-38238485D01*
X4078571Y-38238485D02*
X4116667Y-38314676D01*
X4116667Y-38314676D02*
X4116667Y-38428961D01*
X4116667Y-38428961D02*
X4078571Y-38505152D01*
X4078571Y-38505152D02*
X4040476Y-38543247D01*
X4040476Y-38543247D02*
X3964286Y-38581342D01*
X3964286Y-38581342D02*
X3659524Y-38581342D01*
X4878571Y-38962295D02*
X4421428Y-38962295D01*
X4650000Y-38962295D02*
X4650000Y-38162295D01*
X4650000Y-38162295D02*
X4573809Y-38276580D01*
X4573809Y-38276580D02*
X4497619Y-38352771D01*
X4497619Y-38352771D02*
X4421428Y-38390866D01*
X17624414Y-16932404D02*
X17586318Y-16970500D01*
X17586318Y-16970500D02*
X17472033Y-17008595D01*
X17472033Y-17008595D02*
X17395842Y-17008595D01*
X17395842Y-17008595D02*
X17281556Y-16970500D01*
X17281556Y-16970500D02*
X17205366Y-16894309D01*
X17205366Y-16894309D02*
X17167271Y-16818119D01*
X17167271Y-16818119D02*
X17129175Y-16665738D01*
X17129175Y-16665738D02*
X17129175Y-16551452D01*
X17129175Y-16551452D02*
X17167271Y-16399071D01*
X17167271Y-16399071D02*
X17205366Y-16322880D01*
X17205366Y-16322880D02*
X17281556Y-16246690D01*
X17281556Y-16246690D02*
X17395842Y-16208595D01*
X17395842Y-16208595D02*
X17472033Y-16208595D01*
X17472033Y-16208595D02*
X17586318Y-16246690D01*
X17586318Y-16246690D02*
X17624414Y-16284785D01*
X18386318Y-17008595D02*
X17929175Y-17008595D01*
X18157747Y-17008595D02*
X18157747Y-16208595D01*
X18157747Y-16208595D02*
X18081556Y-16322880D01*
X18081556Y-16322880D02*
X18005366Y-16399071D01*
X18005366Y-16399071D02*
X17929175Y-16437166D01*
X18691080Y-16284785D02*
X18729176Y-16246690D01*
X18729176Y-16246690D02*
X18805366Y-16208595D01*
X18805366Y-16208595D02*
X18995842Y-16208595D01*
X18995842Y-16208595D02*
X19072033Y-16246690D01*
X19072033Y-16246690D02*
X19110128Y-16284785D01*
X19110128Y-16284785D02*
X19148223Y-16360976D01*
X19148223Y-16360976D02*
X19148223Y-16437166D01*
X19148223Y-16437166D02*
X19110128Y-16551452D01*
X19110128Y-16551452D02*
X18652985Y-17008595D01*
X18652985Y-17008595D02*
X19148223Y-17008595D01*
X1177943Y-20664394D02*
X1177943Y-19864394D01*
X1177943Y-19864394D02*
X1368419Y-19864394D01*
X1368419Y-19864394D02*
X1482705Y-19902489D01*
X1482705Y-19902489D02*
X1558895Y-19978679D01*
X1558895Y-19978679D02*
X1596990Y-20054870D01*
X1596990Y-20054870D02*
X1635086Y-20207251D01*
X1635086Y-20207251D02*
X1635086Y-20321537D01*
X1635086Y-20321537D02*
X1596990Y-20473918D01*
X1596990Y-20473918D02*
X1558895Y-20550108D01*
X1558895Y-20550108D02*
X1482705Y-20626299D01*
X1482705Y-20626299D02*
X1368419Y-20664394D01*
X1368419Y-20664394D02*
X1177943Y-20664394D01*
X2396990Y-20664394D02*
X1939847Y-20664394D01*
X2168419Y-20664394D02*
X2168419Y-19864394D01*
X2168419Y-19864394D02*
X2092228Y-19978679D01*
X2092228Y-19978679D02*
X2016038Y-20054870D01*
X2016038Y-20054870D02*
X1939847Y-20092965D01*
X3158895Y-20664394D02*
X2701752Y-20664394D01*
X2930324Y-20664394D02*
X2930324Y-19864394D01*
X2930324Y-19864394D02*
X2854133Y-19978679D01*
X2854133Y-19978679D02*
X2777943Y-20054870D01*
X2777943Y-20054870D02*
X2701752Y-20092965D01*
X3909524Y-28267295D02*
X3909524Y-27467295D01*
X3909524Y-27467295D02*
X4100000Y-27467295D01*
X4100000Y-27467295D02*
X4214286Y-27505390D01*
X4214286Y-27505390D02*
X4290476Y-27581580D01*
X4290476Y-27581580D02*
X4328571Y-27657771D01*
X4328571Y-27657771D02*
X4366667Y-27810152D01*
X4366667Y-27810152D02*
X4366667Y-27924438D01*
X4366667Y-27924438D02*
X4328571Y-28076819D01*
X4328571Y-28076819D02*
X4290476Y-28153009D01*
X4290476Y-28153009D02*
X4214286Y-28229200D01*
X4214286Y-28229200D02*
X4100000Y-28267295D01*
X4100000Y-28267295D02*
X3909524Y-28267295D01*
X5052381Y-27733961D02*
X5052381Y-28267295D01*
X4861905Y-27429200D02*
X4671428Y-28000628D01*
X4671428Y-28000628D02*
X5166667Y-28000628D01*
X4035714Y-12411104D02*
X3997618Y-12449200D01*
X3997618Y-12449200D02*
X3883333Y-12487295D01*
X3883333Y-12487295D02*
X3807142Y-12487295D01*
X3807142Y-12487295D02*
X3692856Y-12449200D01*
X3692856Y-12449200D02*
X3616666Y-12373009D01*
X3616666Y-12373009D02*
X3578571Y-12296819D01*
X3578571Y-12296819D02*
X3540475Y-12144438D01*
X3540475Y-12144438D02*
X3540475Y-12030152D01*
X3540475Y-12030152D02*
X3578571Y-11877771D01*
X3578571Y-11877771D02*
X3616666Y-11801580D01*
X3616666Y-11801580D02*
X3692856Y-11725390D01*
X3692856Y-11725390D02*
X3807142Y-11687295D01*
X3807142Y-11687295D02*
X3883333Y-11687295D01*
X3883333Y-11687295D02*
X3997618Y-11725390D01*
X3997618Y-11725390D02*
X4035714Y-11763485D01*
X4797618Y-12487295D02*
X4340475Y-12487295D01*
X4569047Y-12487295D02*
X4569047Y-11687295D01*
X4569047Y-11687295D02*
X4492856Y-11801580D01*
X4492856Y-11801580D02*
X4416666Y-11877771D01*
X4416666Y-11877771D02*
X4340475Y-11915866D01*
X5064285Y-11687295D02*
X5597619Y-11687295D01*
X5597619Y-11687295D02*
X5254761Y-12487295D01*
X31985206Y-35748780D02*
X31604254Y-35748780D01*
X31604254Y-35748780D02*
X31604254Y-34948780D01*
X32670920Y-35748780D02*
X32213777Y-35748780D01*
X32442349Y-35748780D02*
X32442349Y-34948780D01*
X32442349Y-34948780D02*
X32366158Y-35063065D01*
X32366158Y-35063065D02*
X32289968Y-35139256D01*
X32289968Y-35139256D02*
X32213777Y-35177351D01*
X28990476Y-40767295D02*
X29447619Y-40767295D01*
X29219047Y-41567295D02*
X29219047Y-40767295D01*
X29714286Y-41567295D02*
X29714286Y-40767295D01*
X29714286Y-40767295D02*
X30019048Y-40767295D01*
X30019048Y-40767295D02*
X30095238Y-40805390D01*
X30095238Y-40805390D02*
X30133333Y-40843485D01*
X30133333Y-40843485D02*
X30171429Y-40919676D01*
X30171429Y-40919676D02*
X30171429Y-41033961D01*
X30171429Y-41033961D02*
X30133333Y-41110152D01*
X30133333Y-41110152D02*
X30095238Y-41148247D01*
X30095238Y-41148247D02*
X30019048Y-41186342D01*
X30019048Y-41186342D02*
X29714286Y-41186342D01*
X30438095Y-40767295D02*
X30933333Y-40767295D01*
X30933333Y-40767295D02*
X30666667Y-41072057D01*
X30666667Y-41072057D02*
X30780952Y-41072057D01*
X30780952Y-41072057D02*
X30857143Y-41110152D01*
X30857143Y-41110152D02*
X30895238Y-41148247D01*
X30895238Y-41148247D02*
X30933333Y-41224438D01*
X30933333Y-41224438D02*
X30933333Y-41414914D01*
X30933333Y-41414914D02*
X30895238Y-41491104D01*
X30895238Y-41491104D02*
X30857143Y-41529200D01*
X30857143Y-41529200D02*
X30780952Y-41567295D01*
X30780952Y-41567295D02*
X30552381Y-41567295D01*
X30552381Y-41567295D02*
X30476190Y-41529200D01*
X30476190Y-41529200D02*
X30438095Y-41491104D01*
X7804114Y-64515695D02*
X7537447Y-64134742D01*
X7346971Y-64515695D02*
X7346971Y-63715695D01*
X7346971Y-63715695D02*
X7651733Y-63715695D01*
X7651733Y-63715695D02*
X7727923Y-63753790D01*
X7727923Y-63753790D02*
X7766018Y-63791885D01*
X7766018Y-63791885D02*
X7804114Y-63868076D01*
X7804114Y-63868076D02*
X7804114Y-63982361D01*
X7804114Y-63982361D02*
X7766018Y-64058552D01*
X7766018Y-64058552D02*
X7727923Y-64096647D01*
X7727923Y-64096647D02*
X7651733Y-64134742D01*
X7651733Y-64134742D02*
X7346971Y-64134742D01*
X8566018Y-64515695D02*
X8108875Y-64515695D01*
X8337447Y-64515695D02*
X8337447Y-63715695D01*
X8337447Y-63715695D02*
X8261256Y-63829980D01*
X8261256Y-63829980D02*
X8185066Y-63906171D01*
X8185066Y-63906171D02*
X8108875Y-63944266D01*
X9251733Y-63982361D02*
X9251733Y-64515695D01*
X9061257Y-63677600D02*
X8870780Y-64249028D01*
X8870780Y-64249028D02*
X9366019Y-64249028D01*
X6909524Y-61047295D02*
X6909524Y-60247295D01*
X6909524Y-60247295D02*
X7100000Y-60247295D01*
X7100000Y-60247295D02*
X7214286Y-60285390D01*
X7214286Y-60285390D02*
X7290476Y-60361580D01*
X7290476Y-60361580D02*
X7328571Y-60437771D01*
X7328571Y-60437771D02*
X7366667Y-60590152D01*
X7366667Y-60590152D02*
X7366667Y-60704438D01*
X7366667Y-60704438D02*
X7328571Y-60856819D01*
X7328571Y-60856819D02*
X7290476Y-60933009D01*
X7290476Y-60933009D02*
X7214286Y-61009200D01*
X7214286Y-61009200D02*
X7100000Y-61047295D01*
X7100000Y-61047295D02*
X6909524Y-61047295D01*
X8052381Y-60247295D02*
X7900000Y-60247295D01*
X7900000Y-60247295D02*
X7823809Y-60285390D01*
X7823809Y-60285390D02*
X7785714Y-60323485D01*
X7785714Y-60323485D02*
X7709524Y-60437771D01*
X7709524Y-60437771D02*
X7671428Y-60590152D01*
X7671428Y-60590152D02*
X7671428Y-60894914D01*
X7671428Y-60894914D02*
X7709524Y-60971104D01*
X7709524Y-60971104D02*
X7747619Y-61009200D01*
X7747619Y-61009200D02*
X7823809Y-61047295D01*
X7823809Y-61047295D02*
X7976190Y-61047295D01*
X7976190Y-61047295D02*
X8052381Y-61009200D01*
X8052381Y-61009200D02*
X8090476Y-60971104D01*
X8090476Y-60971104D02*
X8128571Y-60894914D01*
X8128571Y-60894914D02*
X8128571Y-60704438D01*
X8128571Y-60704438D02*
X8090476Y-60628247D01*
X8090476Y-60628247D02*
X8052381Y-60590152D01*
X8052381Y-60590152D02*
X7976190Y-60552057D01*
X7976190Y-60552057D02*
X7823809Y-60552057D01*
X7823809Y-60552057D02*
X7747619Y-60590152D01*
X7747619Y-60590152D02*
X7709524Y-60628247D01*
X7709524Y-60628247D02*
X7671428Y-60704438D01*
X11371667Y-11066104D02*
X11333571Y-11104200D01*
X11333571Y-11104200D02*
X11219286Y-11142295D01*
X11219286Y-11142295D02*
X11143095Y-11142295D01*
X11143095Y-11142295D02*
X11028809Y-11104200D01*
X11028809Y-11104200D02*
X10952619Y-11028009D01*
X10952619Y-11028009D02*
X10914524Y-10951819D01*
X10914524Y-10951819D02*
X10876428Y-10799438D01*
X10876428Y-10799438D02*
X10876428Y-10685152D01*
X10876428Y-10685152D02*
X10914524Y-10532771D01*
X10914524Y-10532771D02*
X10952619Y-10456580D01*
X10952619Y-10456580D02*
X11028809Y-10380390D01*
X11028809Y-10380390D02*
X11143095Y-10342295D01*
X11143095Y-10342295D02*
X11219286Y-10342295D01*
X11219286Y-10342295D02*
X11333571Y-10380390D01*
X11333571Y-10380390D02*
X11371667Y-10418485D01*
X12057381Y-10608961D02*
X12057381Y-11142295D01*
X11866905Y-10304200D02*
X11676428Y-10875628D01*
X11676428Y-10875628D02*
X12171667Y-10875628D01*
X32609523Y-44267295D02*
X33066666Y-44267295D01*
X32838094Y-45067295D02*
X32838094Y-44267295D01*
X33333333Y-45067295D02*
X33333333Y-44267295D01*
X33333333Y-44267295D02*
X33638095Y-44267295D01*
X33638095Y-44267295D02*
X33714285Y-44305390D01*
X33714285Y-44305390D02*
X33752380Y-44343485D01*
X33752380Y-44343485D02*
X33790476Y-44419676D01*
X33790476Y-44419676D02*
X33790476Y-44533961D01*
X33790476Y-44533961D02*
X33752380Y-44610152D01*
X33752380Y-44610152D02*
X33714285Y-44648247D01*
X33714285Y-44648247D02*
X33638095Y-44686342D01*
X33638095Y-44686342D02*
X33333333Y-44686342D01*
X34552380Y-45067295D02*
X34095237Y-45067295D01*
X34323809Y-45067295D02*
X34323809Y-44267295D01*
X34323809Y-44267295D02*
X34247618Y-44381580D01*
X34247618Y-44381580D02*
X34171428Y-44457771D01*
X34171428Y-44457771D02*
X34095237Y-44495866D01*
X35047619Y-44267295D02*
X35123809Y-44267295D01*
X35123809Y-44267295D02*
X35200000Y-44305390D01*
X35200000Y-44305390D02*
X35238095Y-44343485D01*
X35238095Y-44343485D02*
X35276190Y-44419676D01*
X35276190Y-44419676D02*
X35314285Y-44572057D01*
X35314285Y-44572057D02*
X35314285Y-44762533D01*
X35314285Y-44762533D02*
X35276190Y-44914914D01*
X35276190Y-44914914D02*
X35238095Y-44991104D01*
X35238095Y-44991104D02*
X35200000Y-45029200D01*
X35200000Y-45029200D02*
X35123809Y-45067295D01*
X35123809Y-45067295D02*
X35047619Y-45067295D01*
X35047619Y-45067295D02*
X34971428Y-45029200D01*
X34971428Y-45029200D02*
X34933333Y-44991104D01*
X34933333Y-44991104D02*
X34895238Y-44914914D01*
X34895238Y-44914914D02*
X34857142Y-44762533D01*
X34857142Y-44762533D02*
X34857142Y-44572057D01*
X34857142Y-44572057D02*
X34895238Y-44419676D01*
X34895238Y-44419676D02*
X34933333Y-44343485D01*
X34933333Y-44343485D02*
X34971428Y-44305390D01*
X34971428Y-44305390D02*
X35047619Y-44267295D01*
X11409524Y-44167295D02*
X11409524Y-43367295D01*
X11409524Y-43367295D02*
X11600000Y-43367295D01*
X11600000Y-43367295D02*
X11714286Y-43405390D01*
X11714286Y-43405390D02*
X11790476Y-43481580D01*
X11790476Y-43481580D02*
X11828571Y-43557771D01*
X11828571Y-43557771D02*
X11866667Y-43710152D01*
X11866667Y-43710152D02*
X11866667Y-43824438D01*
X11866667Y-43824438D02*
X11828571Y-43976819D01*
X11828571Y-43976819D02*
X11790476Y-44053009D01*
X11790476Y-44053009D02*
X11714286Y-44129200D01*
X11714286Y-44129200D02*
X11600000Y-44167295D01*
X11600000Y-44167295D02*
X11409524Y-44167295D01*
X12590476Y-43367295D02*
X12209524Y-43367295D01*
X12209524Y-43367295D02*
X12171428Y-43748247D01*
X12171428Y-43748247D02*
X12209524Y-43710152D01*
X12209524Y-43710152D02*
X12285714Y-43672057D01*
X12285714Y-43672057D02*
X12476190Y-43672057D01*
X12476190Y-43672057D02*
X12552381Y-43710152D01*
X12552381Y-43710152D02*
X12590476Y-43748247D01*
X12590476Y-43748247D02*
X12628571Y-43824438D01*
X12628571Y-43824438D02*
X12628571Y-44014914D01*
X12628571Y-44014914D02*
X12590476Y-44091104D01*
X12590476Y-44091104D02*
X12552381Y-44129200D01*
X12552381Y-44129200D02*
X12476190Y-44167295D01*
X12476190Y-44167295D02*
X12285714Y-44167295D01*
X12285714Y-44167295D02*
X12209524Y-44129200D01*
X12209524Y-44129200D02*
X12171428Y-44091104D01*
X1528518Y-63661287D02*
X1261851Y-63280334D01*
X1071375Y-63661287D02*
X1071375Y-62861287D01*
X1071375Y-62861287D02*
X1376137Y-62861287D01*
X1376137Y-62861287D02*
X1452327Y-62899382D01*
X1452327Y-62899382D02*
X1490422Y-62937477D01*
X1490422Y-62937477D02*
X1528518Y-63013668D01*
X1528518Y-63013668D02*
X1528518Y-63127953D01*
X1528518Y-63127953D02*
X1490422Y-63204144D01*
X1490422Y-63204144D02*
X1452327Y-63242239D01*
X1452327Y-63242239D02*
X1376137Y-63280334D01*
X1376137Y-63280334D02*
X1071375Y-63280334D01*
X2290422Y-63661287D02*
X1833279Y-63661287D01*
X2061851Y-63661287D02*
X2061851Y-62861287D01*
X2061851Y-62861287D02*
X1985660Y-62975572D01*
X1985660Y-62975572D02*
X1909470Y-63051763D01*
X1909470Y-63051763D02*
X1833279Y-63089858D01*
X2747565Y-63204144D02*
X2671375Y-63166049D01*
X2671375Y-63166049D02*
X2633280Y-63127953D01*
X2633280Y-63127953D02*
X2595184Y-63051763D01*
X2595184Y-63051763D02*
X2595184Y-63013668D01*
X2595184Y-63013668D02*
X2633280Y-62937477D01*
X2633280Y-62937477D02*
X2671375Y-62899382D01*
X2671375Y-62899382D02*
X2747565Y-62861287D01*
X2747565Y-62861287D02*
X2899946Y-62861287D01*
X2899946Y-62861287D02*
X2976137Y-62899382D01*
X2976137Y-62899382D02*
X3014232Y-62937477D01*
X3014232Y-62937477D02*
X3052327Y-63013668D01*
X3052327Y-63013668D02*
X3052327Y-63051763D01*
X3052327Y-63051763D02*
X3014232Y-63127953D01*
X3014232Y-63127953D02*
X2976137Y-63166049D01*
X2976137Y-63166049D02*
X2899946Y-63204144D01*
X2899946Y-63204144D02*
X2747565Y-63204144D01*
X2747565Y-63204144D02*
X2671375Y-63242239D01*
X2671375Y-63242239D02*
X2633280Y-63280334D01*
X2633280Y-63280334D02*
X2595184Y-63356525D01*
X2595184Y-63356525D02*
X2595184Y-63508906D01*
X2595184Y-63508906D02*
X2633280Y-63585096D01*
X2633280Y-63585096D02*
X2671375Y-63623192D01*
X2671375Y-63623192D02*
X2747565Y-63661287D01*
X2747565Y-63661287D02*
X2899946Y-63661287D01*
X2899946Y-63661287D02*
X2976137Y-63623192D01*
X2976137Y-63623192D02*
X3014232Y-63585096D01*
X3014232Y-63585096D02*
X3052327Y-63508906D01*
X3052327Y-63508906D02*
X3052327Y-63356525D01*
X3052327Y-63356525D02*
X3014232Y-63280334D01*
X3014232Y-63280334D02*
X2976137Y-63242239D01*
X2976137Y-63242239D02*
X2899946Y-63204144D01*
X16023809Y-48733485D02*
X15947619Y-48695390D01*
X15947619Y-48695390D02*
X15871428Y-48619200D01*
X15871428Y-48619200D02*
X15757142Y-48504914D01*
X15757142Y-48504914D02*
X15680952Y-48466819D01*
X15680952Y-48466819D02*
X15604761Y-48466819D01*
X15642857Y-48657295D02*
X15566666Y-48619200D01*
X15566666Y-48619200D02*
X15490476Y-48543009D01*
X15490476Y-48543009D02*
X15452380Y-48390628D01*
X15452380Y-48390628D02*
X15452380Y-48123961D01*
X15452380Y-48123961D02*
X15490476Y-47971580D01*
X15490476Y-47971580D02*
X15566666Y-47895390D01*
X15566666Y-47895390D02*
X15642857Y-47857295D01*
X15642857Y-47857295D02*
X15795238Y-47857295D01*
X15795238Y-47857295D02*
X15871428Y-47895390D01*
X15871428Y-47895390D02*
X15947619Y-47971580D01*
X15947619Y-47971580D02*
X15985714Y-48123961D01*
X15985714Y-48123961D02*
X15985714Y-48390628D01*
X15985714Y-48390628D02*
X15947619Y-48543009D01*
X15947619Y-48543009D02*
X15871428Y-48619200D01*
X15871428Y-48619200D02*
X15795238Y-48657295D01*
X15795238Y-48657295D02*
X15642857Y-48657295D01*
X16252380Y-47857295D02*
X16747618Y-47857295D01*
X16747618Y-47857295D02*
X16480952Y-48162057D01*
X16480952Y-48162057D02*
X16595237Y-48162057D01*
X16595237Y-48162057D02*
X16671428Y-48200152D01*
X16671428Y-48200152D02*
X16709523Y-48238247D01*
X16709523Y-48238247D02*
X16747618Y-48314438D01*
X16747618Y-48314438D02*
X16747618Y-48504914D01*
X16747618Y-48504914D02*
X16709523Y-48581104D01*
X16709523Y-48581104D02*
X16671428Y-48619200D01*
X16671428Y-48619200D02*
X16595237Y-48657295D01*
X16595237Y-48657295D02*
X16366666Y-48657295D01*
X16366666Y-48657295D02*
X16290475Y-48619200D01*
X16290475Y-48619200D02*
X16252380Y-48581104D01*
X21733333Y-28698247D02*
X21466667Y-28698247D01*
X21466667Y-29117295D02*
X21466667Y-28317295D01*
X21466667Y-28317295D02*
X21847619Y-28317295D01*
X22571428Y-29117295D02*
X22114285Y-29117295D01*
X22342857Y-29117295D02*
X22342857Y-28317295D01*
X22342857Y-28317295D02*
X22266666Y-28431580D01*
X22266666Y-28431580D02*
X22190476Y-28507771D01*
X22190476Y-28507771D02*
X22114285Y-28545866D01*
X47404523Y-47562295D02*
X47861666Y-47562295D01*
X47633094Y-48362295D02*
X47633094Y-47562295D01*
X48128333Y-48362295D02*
X48128333Y-47562295D01*
X48128333Y-47562295D02*
X48433095Y-47562295D01*
X48433095Y-47562295D02*
X48509285Y-47600390D01*
X48509285Y-47600390D02*
X48547380Y-47638485D01*
X48547380Y-47638485D02*
X48585476Y-47714676D01*
X48585476Y-47714676D02*
X48585476Y-47828961D01*
X48585476Y-47828961D02*
X48547380Y-47905152D01*
X48547380Y-47905152D02*
X48509285Y-47943247D01*
X48509285Y-47943247D02*
X48433095Y-47981342D01*
X48433095Y-47981342D02*
X48128333Y-47981342D01*
X49347380Y-48362295D02*
X48890237Y-48362295D01*
X49118809Y-48362295D02*
X49118809Y-47562295D01*
X49118809Y-47562295D02*
X49042618Y-47676580D01*
X49042618Y-47676580D02*
X48966428Y-47752771D01*
X48966428Y-47752771D02*
X48890237Y-47790866D01*
X49614047Y-47562295D02*
X50109285Y-47562295D01*
X50109285Y-47562295D02*
X49842619Y-47867057D01*
X49842619Y-47867057D02*
X49956904Y-47867057D01*
X49956904Y-47867057D02*
X50033095Y-47905152D01*
X50033095Y-47905152D02*
X50071190Y-47943247D01*
X50071190Y-47943247D02*
X50109285Y-48019438D01*
X50109285Y-48019438D02*
X50109285Y-48209914D01*
X50109285Y-48209914D02*
X50071190Y-48286104D01*
X50071190Y-48286104D02*
X50033095Y-48324200D01*
X50033095Y-48324200D02*
X49956904Y-48362295D01*
X49956904Y-48362295D02*
X49728333Y-48362295D01*
X49728333Y-48362295D02*
X49652142Y-48324200D01*
X49652142Y-48324200D02*
X49614047Y-48286104D01*
X16944767Y-19809195D02*
X16678100Y-19428242D01*
X16487624Y-19809195D02*
X16487624Y-19009195D01*
X16487624Y-19009195D02*
X16792386Y-19009195D01*
X16792386Y-19009195D02*
X16868576Y-19047290D01*
X16868576Y-19047290D02*
X16906671Y-19085385D01*
X16906671Y-19085385D02*
X16944767Y-19161576D01*
X16944767Y-19161576D02*
X16944767Y-19275861D01*
X16944767Y-19275861D02*
X16906671Y-19352052D01*
X16906671Y-19352052D02*
X16868576Y-19390147D01*
X16868576Y-19390147D02*
X16792386Y-19428242D01*
X16792386Y-19428242D02*
X16487624Y-19428242D01*
X17211433Y-19009195D02*
X17706671Y-19009195D01*
X17706671Y-19009195D02*
X17440005Y-19313957D01*
X17440005Y-19313957D02*
X17554290Y-19313957D01*
X17554290Y-19313957D02*
X17630481Y-19352052D01*
X17630481Y-19352052D02*
X17668576Y-19390147D01*
X17668576Y-19390147D02*
X17706671Y-19466338D01*
X17706671Y-19466338D02*
X17706671Y-19656814D01*
X17706671Y-19656814D02*
X17668576Y-19733004D01*
X17668576Y-19733004D02*
X17630481Y-19771100D01*
X17630481Y-19771100D02*
X17554290Y-19809195D01*
X17554290Y-19809195D02*
X17325719Y-19809195D01*
X17325719Y-19809195D02*
X17249528Y-19771100D01*
X17249528Y-19771100D02*
X17211433Y-19733004D01*
X43890476Y-78287295D02*
X43890476Y-78934914D01*
X43890476Y-78934914D02*
X43928571Y-79011104D01*
X43928571Y-79011104D02*
X43966666Y-79049200D01*
X43966666Y-79049200D02*
X44042857Y-79087295D01*
X44042857Y-79087295D02*
X44195238Y-79087295D01*
X44195238Y-79087295D02*
X44271428Y-79049200D01*
X44271428Y-79049200D02*
X44309523Y-79011104D01*
X44309523Y-79011104D02*
X44347619Y-78934914D01*
X44347619Y-78934914D02*
X44347619Y-78287295D01*
X45109523Y-78287295D02*
X44728571Y-78287295D01*
X44728571Y-78287295D02*
X44690475Y-78668247D01*
X44690475Y-78668247D02*
X44728571Y-78630152D01*
X44728571Y-78630152D02*
X44804761Y-78592057D01*
X44804761Y-78592057D02*
X44995237Y-78592057D01*
X44995237Y-78592057D02*
X45071428Y-78630152D01*
X45071428Y-78630152D02*
X45109523Y-78668247D01*
X45109523Y-78668247D02*
X45147618Y-78744438D01*
X45147618Y-78744438D02*
X45147618Y-78934914D01*
X45147618Y-78934914D02*
X45109523Y-79011104D01*
X45109523Y-79011104D02*
X45071428Y-79049200D01*
X45071428Y-79049200D02*
X44995237Y-79087295D01*
X44995237Y-79087295D02*
X44804761Y-79087295D01*
X44804761Y-79087295D02*
X44728571Y-79049200D01*
X44728571Y-79049200D02*
X44690475Y-79011104D01*
X56233333Y-11247295D02*
X56233333Y-11818723D01*
X56233333Y-11818723D02*
X56195238Y-11933009D01*
X56195238Y-11933009D02*
X56119047Y-12009200D01*
X56119047Y-12009200D02*
X56004762Y-12047295D01*
X56004762Y-12047295D02*
X55928571Y-12047295D01*
X56576190Y-11323485D02*
X56614286Y-11285390D01*
X56614286Y-11285390D02*
X56690476Y-11247295D01*
X56690476Y-11247295D02*
X56880952Y-11247295D01*
X56880952Y-11247295D02*
X56957143Y-11285390D01*
X56957143Y-11285390D02*
X56995238Y-11323485D01*
X56995238Y-11323485D02*
X57033333Y-11399676D01*
X57033333Y-11399676D02*
X57033333Y-11475866D01*
X57033333Y-11475866D02*
X56995238Y-11590152D01*
X56995238Y-11590152D02*
X56538095Y-12047295D01*
X56538095Y-12047295D02*
X57033333Y-12047295D01*
X11933332Y-20929200D02*
X12047618Y-20967295D01*
X12047618Y-20967295D02*
X12238094Y-20967295D01*
X12238094Y-20967295D02*
X12314285Y-20929200D01*
X12314285Y-20929200D02*
X12352380Y-20891104D01*
X12352380Y-20891104D02*
X12390475Y-20814914D01*
X12390475Y-20814914D02*
X12390475Y-20738723D01*
X12390475Y-20738723D02*
X12352380Y-20662533D01*
X12352380Y-20662533D02*
X12314285Y-20624438D01*
X12314285Y-20624438D02*
X12238094Y-20586342D01*
X12238094Y-20586342D02*
X12085713Y-20548247D01*
X12085713Y-20548247D02*
X12009523Y-20510152D01*
X12009523Y-20510152D02*
X11971428Y-20472057D01*
X11971428Y-20472057D02*
X11933332Y-20395866D01*
X11933332Y-20395866D02*
X11933332Y-20319676D01*
X11933332Y-20319676D02*
X11971428Y-20243485D01*
X11971428Y-20243485D02*
X12009523Y-20205390D01*
X12009523Y-20205390D02*
X12085713Y-20167295D01*
X12085713Y-20167295D02*
X12276190Y-20167295D01*
X12276190Y-20167295D02*
X12390475Y-20205390D01*
X12657142Y-20167295D02*
X12847618Y-20967295D01*
X12847618Y-20967295D02*
X12999999Y-20395866D01*
X12999999Y-20395866D02*
X13152380Y-20967295D01*
X13152380Y-20967295D02*
X13342857Y-20167295D01*
X13609523Y-20243485D02*
X13647619Y-20205390D01*
X13647619Y-20205390D02*
X13723809Y-20167295D01*
X13723809Y-20167295D02*
X13914285Y-20167295D01*
X13914285Y-20167295D02*
X13990476Y-20205390D01*
X13990476Y-20205390D02*
X14028571Y-20243485D01*
X14028571Y-20243485D02*
X14066666Y-20319676D01*
X14066666Y-20319676D02*
X14066666Y-20395866D01*
X14066666Y-20395866D02*
X14028571Y-20510152D01*
X14028571Y-20510152D02*
X13571428Y-20967295D01*
X13571428Y-20967295D02*
X14066666Y-20967295D01*
X56233333Y-23247295D02*
X56233333Y-23818723D01*
X56233333Y-23818723D02*
X56195238Y-23933009D01*
X56195238Y-23933009D02*
X56119047Y-24009200D01*
X56119047Y-24009200D02*
X56004762Y-24047295D01*
X56004762Y-24047295D02*
X55928571Y-24047295D01*
X56538095Y-23247295D02*
X57033333Y-23247295D01*
X57033333Y-23247295D02*
X56766667Y-23552057D01*
X56766667Y-23552057D02*
X56880952Y-23552057D01*
X56880952Y-23552057D02*
X56957143Y-23590152D01*
X56957143Y-23590152D02*
X56995238Y-23628247D01*
X56995238Y-23628247D02*
X57033333Y-23704438D01*
X57033333Y-23704438D02*
X57033333Y-23894914D01*
X57033333Y-23894914D02*
X56995238Y-23971104D01*
X56995238Y-23971104D02*
X56957143Y-24009200D01*
X56957143Y-24009200D02*
X56880952Y-24047295D01*
X56880952Y-24047295D02*
X56652381Y-24047295D01*
X56652381Y-24047295D02*
X56576190Y-24009200D01*
X56576190Y-24009200D02*
X56538095Y-23971104D01*
X36266667Y-28511104D02*
X36228571Y-28549200D01*
X36228571Y-28549200D02*
X36114286Y-28587295D01*
X36114286Y-28587295D02*
X36038095Y-28587295D01*
X36038095Y-28587295D02*
X35923809Y-28549200D01*
X35923809Y-28549200D02*
X35847619Y-28473009D01*
X35847619Y-28473009D02*
X35809524Y-28396819D01*
X35809524Y-28396819D02*
X35771428Y-28244438D01*
X35771428Y-28244438D02*
X35771428Y-28130152D01*
X35771428Y-28130152D02*
X35809524Y-27977771D01*
X35809524Y-27977771D02*
X35847619Y-27901580D01*
X35847619Y-27901580D02*
X35923809Y-27825390D01*
X35923809Y-27825390D02*
X36038095Y-27787295D01*
X36038095Y-27787295D02*
X36114286Y-27787295D01*
X36114286Y-27787295D02*
X36228571Y-27825390D01*
X36228571Y-27825390D02*
X36266667Y-27863485D01*
X36533333Y-27787295D02*
X37028571Y-27787295D01*
X37028571Y-27787295D02*
X36761905Y-28092057D01*
X36761905Y-28092057D02*
X36876190Y-28092057D01*
X36876190Y-28092057D02*
X36952381Y-28130152D01*
X36952381Y-28130152D02*
X36990476Y-28168247D01*
X36990476Y-28168247D02*
X37028571Y-28244438D01*
X37028571Y-28244438D02*
X37028571Y-28434914D01*
X37028571Y-28434914D02*
X36990476Y-28511104D01*
X36990476Y-28511104D02*
X36952381Y-28549200D01*
X36952381Y-28549200D02*
X36876190Y-28587295D01*
X36876190Y-28587295D02*
X36647619Y-28587295D01*
X36647619Y-28587295D02*
X36571428Y-28549200D01*
X36571428Y-28549200D02*
X36533333Y-28511104D01*
X35610714Y-73762295D02*
X35344047Y-73381342D01*
X35153571Y-73762295D02*
X35153571Y-72962295D01*
X35153571Y-72962295D02*
X35458333Y-72962295D01*
X35458333Y-72962295D02*
X35534523Y-73000390D01*
X35534523Y-73000390D02*
X35572618Y-73038485D01*
X35572618Y-73038485D02*
X35610714Y-73114676D01*
X35610714Y-73114676D02*
X35610714Y-73228961D01*
X35610714Y-73228961D02*
X35572618Y-73305152D01*
X35572618Y-73305152D02*
X35534523Y-73343247D01*
X35534523Y-73343247D02*
X35458333Y-73381342D01*
X35458333Y-73381342D02*
X35153571Y-73381342D01*
X35915475Y-73038485D02*
X35953571Y-73000390D01*
X35953571Y-73000390D02*
X36029761Y-72962295D01*
X36029761Y-72962295D02*
X36220237Y-72962295D01*
X36220237Y-72962295D02*
X36296428Y-73000390D01*
X36296428Y-73000390D02*
X36334523Y-73038485D01*
X36334523Y-73038485D02*
X36372618Y-73114676D01*
X36372618Y-73114676D02*
X36372618Y-73190866D01*
X36372618Y-73190866D02*
X36334523Y-73305152D01*
X36334523Y-73305152D02*
X35877380Y-73762295D01*
X35877380Y-73762295D02*
X36372618Y-73762295D01*
X36677380Y-73038485D02*
X36715476Y-73000390D01*
X36715476Y-73000390D02*
X36791666Y-72962295D01*
X36791666Y-72962295D02*
X36982142Y-72962295D01*
X36982142Y-72962295D02*
X37058333Y-73000390D01*
X37058333Y-73000390D02*
X37096428Y-73038485D01*
X37096428Y-73038485D02*
X37134523Y-73114676D01*
X37134523Y-73114676D02*
X37134523Y-73190866D01*
X37134523Y-73190866D02*
X37096428Y-73305152D01*
X37096428Y-73305152D02*
X36639285Y-73762295D01*
X36639285Y-73762295D02*
X37134523Y-73762295D01*
X36609523Y-44267295D02*
X37066666Y-44267295D01*
X36838094Y-45067295D02*
X36838094Y-44267295D01*
X37333333Y-45067295D02*
X37333333Y-44267295D01*
X37333333Y-44267295D02*
X37638095Y-44267295D01*
X37638095Y-44267295D02*
X37714285Y-44305390D01*
X37714285Y-44305390D02*
X37752380Y-44343485D01*
X37752380Y-44343485D02*
X37790476Y-44419676D01*
X37790476Y-44419676D02*
X37790476Y-44533961D01*
X37790476Y-44533961D02*
X37752380Y-44610152D01*
X37752380Y-44610152D02*
X37714285Y-44648247D01*
X37714285Y-44648247D02*
X37638095Y-44686342D01*
X37638095Y-44686342D02*
X37333333Y-44686342D01*
X38552380Y-45067295D02*
X38095237Y-45067295D01*
X38323809Y-45067295D02*
X38323809Y-44267295D01*
X38323809Y-44267295D02*
X38247618Y-44381580D01*
X38247618Y-44381580D02*
X38171428Y-44457771D01*
X38171428Y-44457771D02*
X38095237Y-44495866D01*
X39314285Y-45067295D02*
X38857142Y-45067295D01*
X39085714Y-45067295D02*
X39085714Y-44267295D01*
X39085714Y-44267295D02*
X39009523Y-44381580D01*
X39009523Y-44381580D02*
X38933333Y-44457771D01*
X38933333Y-44457771D02*
X38857142Y-44495866D01*
X24990476Y-40767295D02*
X25447619Y-40767295D01*
X25219047Y-41567295D02*
X25219047Y-40767295D01*
X25714286Y-41567295D02*
X25714286Y-40767295D01*
X25714286Y-40767295D02*
X26019048Y-40767295D01*
X26019048Y-40767295D02*
X26095238Y-40805390D01*
X26095238Y-40805390D02*
X26133333Y-40843485D01*
X26133333Y-40843485D02*
X26171429Y-40919676D01*
X26171429Y-40919676D02*
X26171429Y-41033961D01*
X26171429Y-41033961D02*
X26133333Y-41110152D01*
X26133333Y-41110152D02*
X26095238Y-41148247D01*
X26095238Y-41148247D02*
X26019048Y-41186342D01*
X26019048Y-41186342D02*
X25714286Y-41186342D01*
X26476190Y-40843485D02*
X26514286Y-40805390D01*
X26514286Y-40805390D02*
X26590476Y-40767295D01*
X26590476Y-40767295D02*
X26780952Y-40767295D01*
X26780952Y-40767295D02*
X26857143Y-40805390D01*
X26857143Y-40805390D02*
X26895238Y-40843485D01*
X26895238Y-40843485D02*
X26933333Y-40919676D01*
X26933333Y-40919676D02*
X26933333Y-40995866D01*
X26933333Y-40995866D02*
X26895238Y-41110152D01*
X26895238Y-41110152D02*
X26438095Y-41567295D01*
X26438095Y-41567295D02*
X26933333Y-41567295D01*
X20990476Y-40767295D02*
X21447619Y-40767295D01*
X21219047Y-41567295D02*
X21219047Y-40767295D01*
X21714286Y-41567295D02*
X21714286Y-40767295D01*
X21714286Y-40767295D02*
X22019048Y-40767295D01*
X22019048Y-40767295D02*
X22095238Y-40805390D01*
X22095238Y-40805390D02*
X22133333Y-40843485D01*
X22133333Y-40843485D02*
X22171429Y-40919676D01*
X22171429Y-40919676D02*
X22171429Y-41033961D01*
X22171429Y-41033961D02*
X22133333Y-41110152D01*
X22133333Y-41110152D02*
X22095238Y-41148247D01*
X22095238Y-41148247D02*
X22019048Y-41186342D01*
X22019048Y-41186342D02*
X21714286Y-41186342D01*
X22933333Y-41567295D02*
X22476190Y-41567295D01*
X22704762Y-41567295D02*
X22704762Y-40767295D01*
X22704762Y-40767295D02*
X22628571Y-40881580D01*
X22628571Y-40881580D02*
X22552381Y-40957771D01*
X22552381Y-40957771D02*
X22476190Y-40995866D01*
X40410714Y-64536104D02*
X40372618Y-64574200D01*
X40372618Y-64574200D02*
X40258333Y-64612295D01*
X40258333Y-64612295D02*
X40182142Y-64612295D01*
X40182142Y-64612295D02*
X40067856Y-64574200D01*
X40067856Y-64574200D02*
X39991666Y-64498009D01*
X39991666Y-64498009D02*
X39953571Y-64421819D01*
X39953571Y-64421819D02*
X39915475Y-64269438D01*
X39915475Y-64269438D02*
X39915475Y-64155152D01*
X39915475Y-64155152D02*
X39953571Y-64002771D01*
X39953571Y-64002771D02*
X39991666Y-63926580D01*
X39991666Y-63926580D02*
X40067856Y-63850390D01*
X40067856Y-63850390D02*
X40182142Y-63812295D01*
X40182142Y-63812295D02*
X40258333Y-63812295D01*
X40258333Y-63812295D02*
X40372618Y-63850390D01*
X40372618Y-63850390D02*
X40410714Y-63888485D01*
X41172618Y-64612295D02*
X40715475Y-64612295D01*
X40944047Y-64612295D02*
X40944047Y-63812295D01*
X40944047Y-63812295D02*
X40867856Y-63926580D01*
X40867856Y-63926580D02*
X40791666Y-64002771D01*
X40791666Y-64002771D02*
X40715475Y-64040866D01*
X41629761Y-64155152D02*
X41553571Y-64117057D01*
X41553571Y-64117057D02*
X41515476Y-64078961D01*
X41515476Y-64078961D02*
X41477380Y-64002771D01*
X41477380Y-64002771D02*
X41477380Y-63964676D01*
X41477380Y-63964676D02*
X41515476Y-63888485D01*
X41515476Y-63888485D02*
X41553571Y-63850390D01*
X41553571Y-63850390D02*
X41629761Y-63812295D01*
X41629761Y-63812295D02*
X41782142Y-63812295D01*
X41782142Y-63812295D02*
X41858333Y-63850390D01*
X41858333Y-63850390D02*
X41896428Y-63888485D01*
X41896428Y-63888485D02*
X41934523Y-63964676D01*
X41934523Y-63964676D02*
X41934523Y-64002771D01*
X41934523Y-64002771D02*
X41896428Y-64078961D01*
X41896428Y-64078961D02*
X41858333Y-64117057D01*
X41858333Y-64117057D02*
X41782142Y-64155152D01*
X41782142Y-64155152D02*
X41629761Y-64155152D01*
X41629761Y-64155152D02*
X41553571Y-64193247D01*
X41553571Y-64193247D02*
X41515476Y-64231342D01*
X41515476Y-64231342D02*
X41477380Y-64307533D01*
X41477380Y-64307533D02*
X41477380Y-64459914D01*
X41477380Y-64459914D02*
X41515476Y-64536104D01*
X41515476Y-64536104D02*
X41553571Y-64574200D01*
X41553571Y-64574200D02*
X41629761Y-64612295D01*
X41629761Y-64612295D02*
X41782142Y-64612295D01*
X41782142Y-64612295D02*
X41858333Y-64574200D01*
X41858333Y-64574200D02*
X41896428Y-64536104D01*
X41896428Y-64536104D02*
X41934523Y-64459914D01*
X41934523Y-64459914D02*
X41934523Y-64307533D01*
X41934523Y-64307533D02*
X41896428Y-64231342D01*
X41896428Y-64231342D02*
X41858333Y-64193247D01*
X41858333Y-64193247D02*
X41782142Y-64155152D01*
X56233333Y-35247295D02*
X56233333Y-35818723D01*
X56233333Y-35818723D02*
X56195238Y-35933009D01*
X56195238Y-35933009D02*
X56119047Y-36009200D01*
X56119047Y-36009200D02*
X56004762Y-36047295D01*
X56004762Y-36047295D02*
X55928571Y-36047295D01*
X56957143Y-35513961D02*
X56957143Y-36047295D01*
X56766667Y-35209200D02*
X56576190Y-35780628D01*
X56576190Y-35780628D02*
X57071429Y-35780628D01*
X51064524Y-59982295D02*
X51064524Y-59182295D01*
X51064524Y-59182295D02*
X51255000Y-59182295D01*
X51255000Y-59182295D02*
X51369286Y-59220390D01*
X51369286Y-59220390D02*
X51445476Y-59296580D01*
X51445476Y-59296580D02*
X51483571Y-59372771D01*
X51483571Y-59372771D02*
X51521667Y-59525152D01*
X51521667Y-59525152D02*
X51521667Y-59639438D01*
X51521667Y-59639438D02*
X51483571Y-59791819D01*
X51483571Y-59791819D02*
X51445476Y-59868009D01*
X51445476Y-59868009D02*
X51369286Y-59944200D01*
X51369286Y-59944200D02*
X51255000Y-59982295D01*
X51255000Y-59982295D02*
X51064524Y-59982295D01*
X51978809Y-59525152D02*
X51902619Y-59487057D01*
X51902619Y-59487057D02*
X51864524Y-59448961D01*
X51864524Y-59448961D02*
X51826428Y-59372771D01*
X51826428Y-59372771D02*
X51826428Y-59334676D01*
X51826428Y-59334676D02*
X51864524Y-59258485D01*
X51864524Y-59258485D02*
X51902619Y-59220390D01*
X51902619Y-59220390D02*
X51978809Y-59182295D01*
X51978809Y-59182295D02*
X52131190Y-59182295D01*
X52131190Y-59182295D02*
X52207381Y-59220390D01*
X52207381Y-59220390D02*
X52245476Y-59258485D01*
X52245476Y-59258485D02*
X52283571Y-59334676D01*
X52283571Y-59334676D02*
X52283571Y-59372771D01*
X52283571Y-59372771D02*
X52245476Y-59448961D01*
X52245476Y-59448961D02*
X52207381Y-59487057D01*
X52207381Y-59487057D02*
X52131190Y-59525152D01*
X52131190Y-59525152D02*
X51978809Y-59525152D01*
X51978809Y-59525152D02*
X51902619Y-59563247D01*
X51902619Y-59563247D02*
X51864524Y-59601342D01*
X51864524Y-59601342D02*
X51826428Y-59677533D01*
X51826428Y-59677533D02*
X51826428Y-59829914D01*
X51826428Y-59829914D02*
X51864524Y-59906104D01*
X51864524Y-59906104D02*
X51902619Y-59944200D01*
X51902619Y-59944200D02*
X51978809Y-59982295D01*
X51978809Y-59982295D02*
X52131190Y-59982295D01*
X52131190Y-59982295D02*
X52207381Y-59944200D01*
X52207381Y-59944200D02*
X52245476Y-59906104D01*
X52245476Y-59906104D02*
X52283571Y-59829914D01*
X52283571Y-59829914D02*
X52283571Y-59677533D01*
X52283571Y-59677533D02*
X52245476Y-59601342D01*
X52245476Y-59601342D02*
X52207381Y-59563247D01*
X52207381Y-59563247D02*
X52131190Y-59525152D01*
X47064524Y-62522295D02*
X47064524Y-61722295D01*
X47064524Y-61722295D02*
X47255000Y-61722295D01*
X47255000Y-61722295D02*
X47369286Y-61760390D01*
X47369286Y-61760390D02*
X47445476Y-61836580D01*
X47445476Y-61836580D02*
X47483571Y-61912771D01*
X47483571Y-61912771D02*
X47521667Y-62065152D01*
X47521667Y-62065152D02*
X47521667Y-62179438D01*
X47521667Y-62179438D02*
X47483571Y-62331819D01*
X47483571Y-62331819D02*
X47445476Y-62408009D01*
X47445476Y-62408009D02*
X47369286Y-62484200D01*
X47369286Y-62484200D02*
X47255000Y-62522295D01*
X47255000Y-62522295D02*
X47064524Y-62522295D01*
X47902619Y-62522295D02*
X48055000Y-62522295D01*
X48055000Y-62522295D02*
X48131190Y-62484200D01*
X48131190Y-62484200D02*
X48169286Y-62446104D01*
X48169286Y-62446104D02*
X48245476Y-62331819D01*
X48245476Y-62331819D02*
X48283571Y-62179438D01*
X48283571Y-62179438D02*
X48283571Y-61874676D01*
X48283571Y-61874676D02*
X48245476Y-61798485D01*
X48245476Y-61798485D02*
X48207381Y-61760390D01*
X48207381Y-61760390D02*
X48131190Y-61722295D01*
X48131190Y-61722295D02*
X47978809Y-61722295D01*
X47978809Y-61722295D02*
X47902619Y-61760390D01*
X47902619Y-61760390D02*
X47864524Y-61798485D01*
X47864524Y-61798485D02*
X47826428Y-61874676D01*
X47826428Y-61874676D02*
X47826428Y-62065152D01*
X47826428Y-62065152D02*
X47864524Y-62141342D01*
X47864524Y-62141342D02*
X47902619Y-62179438D01*
X47902619Y-62179438D02*
X47978809Y-62217533D01*
X47978809Y-62217533D02*
X48131190Y-62217533D01*
X48131190Y-62217533D02*
X48207381Y-62179438D01*
X48207381Y-62179438D02*
X48245476Y-62141342D01*
X48245476Y-62141342D02*
X48283571Y-62065152D01*
X28390476Y-38807295D02*
X28390476Y-39454914D01*
X28390476Y-39454914D02*
X28428571Y-39531104D01*
X28428571Y-39531104D02*
X28466666Y-39569200D01*
X28466666Y-39569200D02*
X28542857Y-39607295D01*
X28542857Y-39607295D02*
X28695238Y-39607295D01*
X28695238Y-39607295D02*
X28771428Y-39569200D01*
X28771428Y-39569200D02*
X28809523Y-39531104D01*
X28809523Y-39531104D02*
X28847619Y-39454914D01*
X28847619Y-39454914D02*
X28847619Y-38807295D01*
X29190475Y-38883485D02*
X29228571Y-38845390D01*
X29228571Y-38845390D02*
X29304761Y-38807295D01*
X29304761Y-38807295D02*
X29495237Y-38807295D01*
X29495237Y-38807295D02*
X29571428Y-38845390D01*
X29571428Y-38845390D02*
X29609523Y-38883485D01*
X29609523Y-38883485D02*
X29647618Y-38959676D01*
X29647618Y-38959676D02*
X29647618Y-39035866D01*
X29647618Y-39035866D02*
X29609523Y-39150152D01*
X29609523Y-39150152D02*
X29152380Y-39607295D01*
X29152380Y-39607295D02*
X29647618Y-39607295D01*
X40990476Y-40267295D02*
X41447619Y-40267295D01*
X41219047Y-41067295D02*
X41219047Y-40267295D01*
X41714286Y-41067295D02*
X41714286Y-40267295D01*
X41714286Y-40267295D02*
X42019048Y-40267295D01*
X42019048Y-40267295D02*
X42095238Y-40305390D01*
X42095238Y-40305390D02*
X42133333Y-40343485D01*
X42133333Y-40343485D02*
X42171429Y-40419676D01*
X42171429Y-40419676D02*
X42171429Y-40533961D01*
X42171429Y-40533961D02*
X42133333Y-40610152D01*
X42133333Y-40610152D02*
X42095238Y-40648247D01*
X42095238Y-40648247D02*
X42019048Y-40686342D01*
X42019048Y-40686342D02*
X41714286Y-40686342D01*
X42857143Y-40267295D02*
X42704762Y-40267295D01*
X42704762Y-40267295D02*
X42628571Y-40305390D01*
X42628571Y-40305390D02*
X42590476Y-40343485D01*
X42590476Y-40343485D02*
X42514286Y-40457771D01*
X42514286Y-40457771D02*
X42476190Y-40610152D01*
X42476190Y-40610152D02*
X42476190Y-40914914D01*
X42476190Y-40914914D02*
X42514286Y-40991104D01*
X42514286Y-40991104D02*
X42552381Y-41029200D01*
X42552381Y-41029200D02*
X42628571Y-41067295D01*
X42628571Y-41067295D02*
X42780952Y-41067295D01*
X42780952Y-41067295D02*
X42857143Y-41029200D01*
X42857143Y-41029200D02*
X42895238Y-40991104D01*
X42895238Y-40991104D02*
X42933333Y-40914914D01*
X42933333Y-40914914D02*
X42933333Y-40724438D01*
X42933333Y-40724438D02*
X42895238Y-40648247D01*
X42895238Y-40648247D02*
X42857143Y-40610152D01*
X42857143Y-40610152D02*
X42780952Y-40572057D01*
X42780952Y-40572057D02*
X42628571Y-40572057D01*
X42628571Y-40572057D02*
X42552381Y-40610152D01*
X42552381Y-40610152D02*
X42514286Y-40648247D01*
X42514286Y-40648247D02*
X42476190Y-40724438D01*
X56233333Y-71657295D02*
X56233333Y-72228723D01*
X56233333Y-72228723D02*
X56195238Y-72343009D01*
X56195238Y-72343009D02*
X56119047Y-72419200D01*
X56119047Y-72419200D02*
X56004762Y-72457295D01*
X56004762Y-72457295D02*
X55928571Y-72457295D01*
X56652381Y-72457295D02*
X56804762Y-72457295D01*
X56804762Y-72457295D02*
X56880952Y-72419200D01*
X56880952Y-72419200D02*
X56919048Y-72381104D01*
X56919048Y-72381104D02*
X56995238Y-72266819D01*
X56995238Y-72266819D02*
X57033333Y-72114438D01*
X57033333Y-72114438D02*
X57033333Y-71809676D01*
X57033333Y-71809676D02*
X56995238Y-71733485D01*
X56995238Y-71733485D02*
X56957143Y-71695390D01*
X56957143Y-71695390D02*
X56880952Y-71657295D01*
X56880952Y-71657295D02*
X56728571Y-71657295D01*
X56728571Y-71657295D02*
X56652381Y-71695390D01*
X56652381Y-71695390D02*
X56614286Y-71733485D01*
X56614286Y-71733485D02*
X56576190Y-71809676D01*
X56576190Y-71809676D02*
X56576190Y-72000152D01*
X56576190Y-72000152D02*
X56614286Y-72076342D01*
X56614286Y-72076342D02*
X56652381Y-72114438D01*
X56652381Y-72114438D02*
X56728571Y-72152533D01*
X56728571Y-72152533D02*
X56880952Y-72152533D01*
X56880952Y-72152533D02*
X56957143Y-72114438D01*
X56957143Y-72114438D02*
X56995238Y-72076342D01*
X56995238Y-72076342D02*
X57033333Y-72000152D01*
X25197553Y-51699117D02*
X25311839Y-51737212D01*
X25311839Y-51737212D02*
X25349934Y-51775308D01*
X25349934Y-51775308D02*
X25388030Y-51851498D01*
X25388030Y-51851498D02*
X25388030Y-51965784D01*
X25388030Y-51965784D02*
X25349934Y-52041974D01*
X25349934Y-52041974D02*
X25311839Y-52080070D01*
X25311839Y-52080070D02*
X25235649Y-52118165D01*
X25235649Y-52118165D02*
X24930887Y-52118165D01*
X24930887Y-52118165D02*
X24930887Y-51318165D01*
X24930887Y-51318165D02*
X25197553Y-51318165D01*
X25197553Y-51318165D02*
X25273744Y-51356260D01*
X25273744Y-51356260D02*
X25311839Y-51394355D01*
X25311839Y-51394355D02*
X25349934Y-51470546D01*
X25349934Y-51470546D02*
X25349934Y-51546736D01*
X25349934Y-51546736D02*
X25311839Y-51622927D01*
X25311839Y-51622927D02*
X25273744Y-51661022D01*
X25273744Y-51661022D02*
X25197553Y-51699117D01*
X25197553Y-51699117D02*
X24930887Y-51699117D01*
X25654696Y-51318165D02*
X26188030Y-51318165D01*
X26188030Y-51318165D02*
X25654696Y-52118165D01*
X25654696Y-52118165D02*
X26188030Y-52118165D01*
X26911839Y-52118165D02*
X26454696Y-52118165D01*
X26683268Y-52118165D02*
X26683268Y-51318165D01*
X26683268Y-51318165D02*
X26607077Y-51432450D01*
X26607077Y-51432450D02*
X26530887Y-51508641D01*
X26530887Y-51508641D02*
X26454696Y-51546736D01*
X52909524Y-56047295D02*
X52909524Y-55247295D01*
X52909524Y-55247295D02*
X53100000Y-55247295D01*
X53100000Y-55247295D02*
X53214286Y-55285390D01*
X53214286Y-55285390D02*
X53290476Y-55361580D01*
X53290476Y-55361580D02*
X53328571Y-55437771D01*
X53328571Y-55437771D02*
X53366667Y-55590152D01*
X53366667Y-55590152D02*
X53366667Y-55704438D01*
X53366667Y-55704438D02*
X53328571Y-55856819D01*
X53328571Y-55856819D02*
X53290476Y-55933009D01*
X53290476Y-55933009D02*
X53214286Y-56009200D01*
X53214286Y-56009200D02*
X53100000Y-56047295D01*
X53100000Y-56047295D02*
X52909524Y-56047295D01*
X53633333Y-55247295D02*
X54166667Y-55247295D01*
X54166667Y-55247295D02*
X53823809Y-56047295D01*
X23190889Y-45762708D02*
X23648032Y-45762708D01*
X23419460Y-46562708D02*
X23419460Y-45762708D01*
X23914699Y-46562708D02*
X23914699Y-45762708D01*
X23914699Y-45762708D02*
X24219461Y-45762708D01*
X24219461Y-45762708D02*
X24295651Y-45800803D01*
X24295651Y-45800803D02*
X24333746Y-45838898D01*
X24333746Y-45838898D02*
X24371842Y-45915089D01*
X24371842Y-45915089D02*
X24371842Y-46029374D01*
X24371842Y-46029374D02*
X24333746Y-46105565D01*
X24333746Y-46105565D02*
X24295651Y-46143660D01*
X24295651Y-46143660D02*
X24219461Y-46181755D01*
X24219461Y-46181755D02*
X23914699Y-46181755D01*
X24828984Y-46105565D02*
X24752794Y-46067470D01*
X24752794Y-46067470D02*
X24714699Y-46029374D01*
X24714699Y-46029374D02*
X24676603Y-45953184D01*
X24676603Y-45953184D02*
X24676603Y-45915089D01*
X24676603Y-45915089D02*
X24714699Y-45838898D01*
X24714699Y-45838898D02*
X24752794Y-45800803D01*
X24752794Y-45800803D02*
X24828984Y-45762708D01*
X24828984Y-45762708D02*
X24981365Y-45762708D01*
X24981365Y-45762708D02*
X25057556Y-45800803D01*
X25057556Y-45800803D02*
X25095651Y-45838898D01*
X25095651Y-45838898D02*
X25133746Y-45915089D01*
X25133746Y-45915089D02*
X25133746Y-45953184D01*
X25133746Y-45953184D02*
X25095651Y-46029374D01*
X25095651Y-46029374D02*
X25057556Y-46067470D01*
X25057556Y-46067470D02*
X24981365Y-46105565D01*
X24981365Y-46105565D02*
X24828984Y-46105565D01*
X24828984Y-46105565D02*
X24752794Y-46143660D01*
X24752794Y-46143660D02*
X24714699Y-46181755D01*
X24714699Y-46181755D02*
X24676603Y-46257946D01*
X24676603Y-46257946D02*
X24676603Y-46410327D01*
X24676603Y-46410327D02*
X24714699Y-46486517D01*
X24714699Y-46486517D02*
X24752794Y-46524613D01*
X24752794Y-46524613D02*
X24828984Y-46562708D01*
X24828984Y-46562708D02*
X24981365Y-46562708D01*
X24981365Y-46562708D02*
X25057556Y-46524613D01*
X25057556Y-46524613D02*
X25095651Y-46486517D01*
X25095651Y-46486517D02*
X25133746Y-46410327D01*
X25133746Y-46410327D02*
X25133746Y-46257946D01*
X25133746Y-46257946D02*
X25095651Y-46181755D01*
X25095651Y-46181755D02*
X25057556Y-46143660D01*
X25057556Y-46143660D02*
X24981365Y-46105565D01*
X1918333Y-59102295D02*
X1918333Y-59673723D01*
X1918333Y-59673723D02*
X1880238Y-59788009D01*
X1880238Y-59788009D02*
X1804047Y-59864200D01*
X1804047Y-59864200D02*
X1689762Y-59902295D01*
X1689762Y-59902295D02*
X1613571Y-59902295D01*
X2223095Y-59102295D02*
X2756429Y-59102295D01*
X2756429Y-59102295D02*
X2413571Y-59902295D01*
X15375314Y-42487695D02*
X15108647Y-42106742D01*
X14918171Y-42487695D02*
X14918171Y-41687695D01*
X14918171Y-41687695D02*
X15222933Y-41687695D01*
X15222933Y-41687695D02*
X15299123Y-41725790D01*
X15299123Y-41725790D02*
X15337218Y-41763885D01*
X15337218Y-41763885D02*
X15375314Y-41840076D01*
X15375314Y-41840076D02*
X15375314Y-41954361D01*
X15375314Y-41954361D02*
X15337218Y-42030552D01*
X15337218Y-42030552D02*
X15299123Y-42068647D01*
X15299123Y-42068647D02*
X15222933Y-42106742D01*
X15222933Y-42106742D02*
X14918171Y-42106742D01*
X16137218Y-42487695D02*
X15680075Y-42487695D01*
X15908647Y-42487695D02*
X15908647Y-41687695D01*
X15908647Y-41687695D02*
X15832456Y-41801980D01*
X15832456Y-41801980D02*
X15756266Y-41878171D01*
X15756266Y-41878171D02*
X15680075Y-41916266D01*
X16441980Y-41763885D02*
X16480076Y-41725790D01*
X16480076Y-41725790D02*
X16556266Y-41687695D01*
X16556266Y-41687695D02*
X16746742Y-41687695D01*
X16746742Y-41687695D02*
X16822933Y-41725790D01*
X16822933Y-41725790D02*
X16861028Y-41763885D01*
X16861028Y-41763885D02*
X16899123Y-41840076D01*
X16899123Y-41840076D02*
X16899123Y-41916266D01*
X16899123Y-41916266D02*
X16861028Y-42030552D01*
X16861028Y-42030552D02*
X16403885Y-42487695D01*
X16403885Y-42487695D02*
X16899123Y-42487695D01*
X6960714Y-67942295D02*
X6694047Y-67561342D01*
X6503571Y-67942295D02*
X6503571Y-67142295D01*
X6503571Y-67142295D02*
X6808333Y-67142295D01*
X6808333Y-67142295D02*
X6884523Y-67180390D01*
X6884523Y-67180390D02*
X6922618Y-67218485D01*
X6922618Y-67218485D02*
X6960714Y-67294676D01*
X6960714Y-67294676D02*
X6960714Y-67408961D01*
X6960714Y-67408961D02*
X6922618Y-67485152D01*
X6922618Y-67485152D02*
X6884523Y-67523247D01*
X6884523Y-67523247D02*
X6808333Y-67561342D01*
X6808333Y-67561342D02*
X6503571Y-67561342D01*
X7722618Y-67942295D02*
X7265475Y-67942295D01*
X7494047Y-67942295D02*
X7494047Y-67142295D01*
X7494047Y-67142295D02*
X7417856Y-67256580D01*
X7417856Y-67256580D02*
X7341666Y-67332771D01*
X7341666Y-67332771D02*
X7265475Y-67370866D01*
X8408333Y-67142295D02*
X8255952Y-67142295D01*
X8255952Y-67142295D02*
X8179761Y-67180390D01*
X8179761Y-67180390D02*
X8141666Y-67218485D01*
X8141666Y-67218485D02*
X8065476Y-67332771D01*
X8065476Y-67332771D02*
X8027380Y-67485152D01*
X8027380Y-67485152D02*
X8027380Y-67789914D01*
X8027380Y-67789914D02*
X8065476Y-67866104D01*
X8065476Y-67866104D02*
X8103571Y-67904200D01*
X8103571Y-67904200D02*
X8179761Y-67942295D01*
X8179761Y-67942295D02*
X8332142Y-67942295D01*
X8332142Y-67942295D02*
X8408333Y-67904200D01*
X8408333Y-67904200D02*
X8446428Y-67866104D01*
X8446428Y-67866104D02*
X8484523Y-67789914D01*
X8484523Y-67789914D02*
X8484523Y-67599438D01*
X8484523Y-67599438D02*
X8446428Y-67523247D01*
X8446428Y-67523247D02*
X8408333Y-67485152D01*
X8408333Y-67485152D02*
X8332142Y-67447057D01*
X8332142Y-67447057D02*
X8179761Y-67447057D01*
X8179761Y-67447057D02*
X8103571Y-67485152D01*
X8103571Y-67485152D02*
X8065476Y-67523247D01*
X8065476Y-67523247D02*
X8027380Y-67599438D01*
X13390476Y-38807295D02*
X13390476Y-39454914D01*
X13390476Y-39454914D02*
X13428571Y-39531104D01*
X13428571Y-39531104D02*
X13466666Y-39569200D01*
X13466666Y-39569200D02*
X13542857Y-39607295D01*
X13542857Y-39607295D02*
X13695238Y-39607295D01*
X13695238Y-39607295D02*
X13771428Y-39569200D01*
X13771428Y-39569200D02*
X13809523Y-39531104D01*
X13809523Y-39531104D02*
X13847619Y-39454914D01*
X13847619Y-39454914D02*
X13847619Y-38807295D01*
X14342856Y-39150152D02*
X14266666Y-39112057D01*
X14266666Y-39112057D02*
X14228571Y-39073961D01*
X14228571Y-39073961D02*
X14190475Y-38997771D01*
X14190475Y-38997771D02*
X14190475Y-38959676D01*
X14190475Y-38959676D02*
X14228571Y-38883485D01*
X14228571Y-38883485D02*
X14266666Y-38845390D01*
X14266666Y-38845390D02*
X14342856Y-38807295D01*
X14342856Y-38807295D02*
X14495237Y-38807295D01*
X14495237Y-38807295D02*
X14571428Y-38845390D01*
X14571428Y-38845390D02*
X14609523Y-38883485D01*
X14609523Y-38883485D02*
X14647618Y-38959676D01*
X14647618Y-38959676D02*
X14647618Y-38997771D01*
X14647618Y-38997771D02*
X14609523Y-39073961D01*
X14609523Y-39073961D02*
X14571428Y-39112057D01*
X14571428Y-39112057D02*
X14495237Y-39150152D01*
X14495237Y-39150152D02*
X14342856Y-39150152D01*
X14342856Y-39150152D02*
X14266666Y-39188247D01*
X14266666Y-39188247D02*
X14228571Y-39226342D01*
X14228571Y-39226342D02*
X14190475Y-39302533D01*
X14190475Y-39302533D02*
X14190475Y-39454914D01*
X14190475Y-39454914D02*
X14228571Y-39531104D01*
X14228571Y-39531104D02*
X14266666Y-39569200D01*
X14266666Y-39569200D02*
X14342856Y-39607295D01*
X14342856Y-39607295D02*
X14495237Y-39607295D01*
X14495237Y-39607295D02*
X14571428Y-39569200D01*
X14571428Y-39569200D02*
X14609523Y-39531104D01*
X14609523Y-39531104D02*
X14647618Y-39454914D01*
X14647618Y-39454914D02*
X14647618Y-39302533D01*
X14647618Y-39302533D02*
X14609523Y-39226342D01*
X14609523Y-39226342D02*
X14571428Y-39188247D01*
X14571428Y-39188247D02*
X14495237Y-39150152D01*
X52939724Y-12537495D02*
X52939724Y-11737495D01*
X52939724Y-11737495D02*
X53130200Y-11737495D01*
X53130200Y-11737495D02*
X53244486Y-11775590D01*
X53244486Y-11775590D02*
X53320676Y-11851780D01*
X53320676Y-11851780D02*
X53358771Y-11927971D01*
X53358771Y-11927971D02*
X53396867Y-12080352D01*
X53396867Y-12080352D02*
X53396867Y-12194638D01*
X53396867Y-12194638D02*
X53358771Y-12347019D01*
X53358771Y-12347019D02*
X53320676Y-12423209D01*
X53320676Y-12423209D02*
X53244486Y-12499400D01*
X53244486Y-12499400D02*
X53130200Y-12537495D01*
X53130200Y-12537495D02*
X52939724Y-12537495D01*
X53701628Y-11813685D02*
X53739724Y-11775590D01*
X53739724Y-11775590D02*
X53815914Y-11737495D01*
X53815914Y-11737495D02*
X54006390Y-11737495D01*
X54006390Y-11737495D02*
X54082581Y-11775590D01*
X54082581Y-11775590D02*
X54120676Y-11813685D01*
X54120676Y-11813685D02*
X54158771Y-11889876D01*
X54158771Y-11889876D02*
X54158771Y-11966066D01*
X54158771Y-11966066D02*
X54120676Y-12080352D01*
X54120676Y-12080352D02*
X53663533Y-12537495D01*
X53663533Y-12537495D02*
X54158771Y-12537495D01*
X47610714Y-19442295D02*
X47344047Y-19061342D01*
X47153571Y-19442295D02*
X47153571Y-18642295D01*
X47153571Y-18642295D02*
X47458333Y-18642295D01*
X47458333Y-18642295D02*
X47534523Y-18680390D01*
X47534523Y-18680390D02*
X47572618Y-18718485D01*
X47572618Y-18718485D02*
X47610714Y-18794676D01*
X47610714Y-18794676D02*
X47610714Y-18908961D01*
X47610714Y-18908961D02*
X47572618Y-18985152D01*
X47572618Y-18985152D02*
X47534523Y-19023247D01*
X47534523Y-19023247D02*
X47458333Y-19061342D01*
X47458333Y-19061342D02*
X47153571Y-19061342D01*
X48372618Y-19442295D02*
X47915475Y-19442295D01*
X48144047Y-19442295D02*
X48144047Y-18642295D01*
X48144047Y-18642295D02*
X48067856Y-18756580D01*
X48067856Y-18756580D02*
X47991666Y-18832771D01*
X47991666Y-18832771D02*
X47915475Y-18870866D01*
X49134523Y-19442295D02*
X48677380Y-19442295D01*
X48905952Y-19442295D02*
X48905952Y-18642295D01*
X48905952Y-18642295D02*
X48829761Y-18756580D01*
X48829761Y-18756580D02*
X48753571Y-18832771D01*
X48753571Y-18832771D02*
X48677380Y-18870866D01*
X36040714Y-75986104D02*
X36002618Y-76024200D01*
X36002618Y-76024200D02*
X35888333Y-76062295D01*
X35888333Y-76062295D02*
X35812142Y-76062295D01*
X35812142Y-76062295D02*
X35697856Y-76024200D01*
X35697856Y-76024200D02*
X35621666Y-75948009D01*
X35621666Y-75948009D02*
X35583571Y-75871819D01*
X35583571Y-75871819D02*
X35545475Y-75719438D01*
X35545475Y-75719438D02*
X35545475Y-75605152D01*
X35545475Y-75605152D02*
X35583571Y-75452771D01*
X35583571Y-75452771D02*
X35621666Y-75376580D01*
X35621666Y-75376580D02*
X35697856Y-75300390D01*
X35697856Y-75300390D02*
X35812142Y-75262295D01*
X35812142Y-75262295D02*
X35888333Y-75262295D01*
X35888333Y-75262295D02*
X36002618Y-75300390D01*
X36002618Y-75300390D02*
X36040714Y-75338485D01*
X36345475Y-75338485D02*
X36383571Y-75300390D01*
X36383571Y-75300390D02*
X36459761Y-75262295D01*
X36459761Y-75262295D02*
X36650237Y-75262295D01*
X36650237Y-75262295D02*
X36726428Y-75300390D01*
X36726428Y-75300390D02*
X36764523Y-75338485D01*
X36764523Y-75338485D02*
X36802618Y-75414676D01*
X36802618Y-75414676D02*
X36802618Y-75490866D01*
X36802618Y-75490866D02*
X36764523Y-75605152D01*
X36764523Y-75605152D02*
X36307380Y-76062295D01*
X36307380Y-76062295D02*
X36802618Y-76062295D01*
X37297857Y-75262295D02*
X37374047Y-75262295D01*
X37374047Y-75262295D02*
X37450238Y-75300390D01*
X37450238Y-75300390D02*
X37488333Y-75338485D01*
X37488333Y-75338485D02*
X37526428Y-75414676D01*
X37526428Y-75414676D02*
X37564523Y-75567057D01*
X37564523Y-75567057D02*
X37564523Y-75757533D01*
X37564523Y-75757533D02*
X37526428Y-75909914D01*
X37526428Y-75909914D02*
X37488333Y-75986104D01*
X37488333Y-75986104D02*
X37450238Y-76024200D01*
X37450238Y-76024200D02*
X37374047Y-76062295D01*
X37374047Y-76062295D02*
X37297857Y-76062295D01*
X37297857Y-76062295D02*
X37221666Y-76024200D01*
X37221666Y-76024200D02*
X37183571Y-75986104D01*
X37183571Y-75986104D02*
X37145476Y-75909914D01*
X37145476Y-75909914D02*
X37107380Y-75757533D01*
X37107380Y-75757533D02*
X37107380Y-75567057D01*
X37107380Y-75567057D02*
X37145476Y-75414676D01*
X37145476Y-75414676D02*
X37183571Y-75338485D01*
X37183571Y-75338485D02*
X37221666Y-75300390D01*
X37221666Y-75300390D02*
X37297857Y-75262295D01*
X14597014Y-63808595D02*
X14330347Y-63427642D01*
X14139871Y-63808595D02*
X14139871Y-63008595D01*
X14139871Y-63008595D02*
X14444633Y-63008595D01*
X14444633Y-63008595D02*
X14520823Y-63046690D01*
X14520823Y-63046690D02*
X14558918Y-63084785D01*
X14558918Y-63084785D02*
X14597014Y-63160976D01*
X14597014Y-63160976D02*
X14597014Y-63275261D01*
X14597014Y-63275261D02*
X14558918Y-63351452D01*
X14558918Y-63351452D02*
X14520823Y-63389547D01*
X14520823Y-63389547D02*
X14444633Y-63427642D01*
X14444633Y-63427642D02*
X14139871Y-63427642D01*
X15358918Y-63808595D02*
X14901775Y-63808595D01*
X15130347Y-63808595D02*
X15130347Y-63008595D01*
X15130347Y-63008595D02*
X15054156Y-63122880D01*
X15054156Y-63122880D02*
X14977966Y-63199071D01*
X14977966Y-63199071D02*
X14901775Y-63237166D01*
X15625585Y-63008595D02*
X16158919Y-63008595D01*
X16158919Y-63008595D02*
X15816061Y-63808595D01*
X18016667Y-24317295D02*
X17750000Y-23936342D01*
X17559524Y-24317295D02*
X17559524Y-23517295D01*
X17559524Y-23517295D02*
X17864286Y-23517295D01*
X17864286Y-23517295D02*
X17940476Y-23555390D01*
X17940476Y-23555390D02*
X17978571Y-23593485D01*
X17978571Y-23593485D02*
X18016667Y-23669676D01*
X18016667Y-23669676D02*
X18016667Y-23783961D01*
X18016667Y-23783961D02*
X17978571Y-23860152D01*
X17978571Y-23860152D02*
X17940476Y-23898247D01*
X17940476Y-23898247D02*
X17864286Y-23936342D01*
X17864286Y-23936342D02*
X17559524Y-23936342D01*
X18473809Y-23860152D02*
X18397619Y-23822057D01*
X18397619Y-23822057D02*
X18359524Y-23783961D01*
X18359524Y-23783961D02*
X18321428Y-23707771D01*
X18321428Y-23707771D02*
X18321428Y-23669676D01*
X18321428Y-23669676D02*
X18359524Y-23593485D01*
X18359524Y-23593485D02*
X18397619Y-23555390D01*
X18397619Y-23555390D02*
X18473809Y-23517295D01*
X18473809Y-23517295D02*
X18626190Y-23517295D01*
X18626190Y-23517295D02*
X18702381Y-23555390D01*
X18702381Y-23555390D02*
X18740476Y-23593485D01*
X18740476Y-23593485D02*
X18778571Y-23669676D01*
X18778571Y-23669676D02*
X18778571Y-23707771D01*
X18778571Y-23707771D02*
X18740476Y-23783961D01*
X18740476Y-23783961D02*
X18702381Y-23822057D01*
X18702381Y-23822057D02*
X18626190Y-23860152D01*
X18626190Y-23860152D02*
X18473809Y-23860152D01*
X18473809Y-23860152D02*
X18397619Y-23898247D01*
X18397619Y-23898247D02*
X18359524Y-23936342D01*
X18359524Y-23936342D02*
X18321428Y-24012533D01*
X18321428Y-24012533D02*
X18321428Y-24164914D01*
X18321428Y-24164914D02*
X18359524Y-24241104D01*
X18359524Y-24241104D02*
X18397619Y-24279200D01*
X18397619Y-24279200D02*
X18473809Y-24317295D01*
X18473809Y-24317295D02*
X18626190Y-24317295D01*
X18626190Y-24317295D02*
X18702381Y-24279200D01*
X18702381Y-24279200D02*
X18740476Y-24241104D01*
X18740476Y-24241104D02*
X18778571Y-24164914D01*
X18778571Y-24164914D02*
X18778571Y-24012533D01*
X18778571Y-24012533D02*
X18740476Y-23936342D01*
X18740476Y-23936342D02*
X18702381Y-23898247D01*
X18702381Y-23898247D02*
X18626190Y-23860152D01*
X48218755Y-60893901D02*
X48218755Y-60093901D01*
X48218755Y-60093901D02*
X48409231Y-60093901D01*
X48409231Y-60093901D02*
X48523517Y-60131996D01*
X48523517Y-60131996D02*
X48599707Y-60208186D01*
X48599707Y-60208186D02*
X48637802Y-60284377D01*
X48637802Y-60284377D02*
X48675898Y-60436758D01*
X48675898Y-60436758D02*
X48675898Y-60551044D01*
X48675898Y-60551044D02*
X48637802Y-60703425D01*
X48637802Y-60703425D02*
X48599707Y-60779615D01*
X48599707Y-60779615D02*
X48523517Y-60855806D01*
X48523517Y-60855806D02*
X48409231Y-60893901D01*
X48409231Y-60893901D02*
X48218755Y-60893901D01*
X49437802Y-60893901D02*
X48980659Y-60893901D01*
X49209231Y-60893901D02*
X49209231Y-60093901D01*
X49209231Y-60093901D02*
X49133040Y-60208186D01*
X49133040Y-60208186D02*
X49056850Y-60284377D01*
X49056850Y-60284377D02*
X48980659Y-60322472D01*
X49933041Y-60093901D02*
X50009231Y-60093901D01*
X50009231Y-60093901D02*
X50085422Y-60131996D01*
X50085422Y-60131996D02*
X50123517Y-60170091D01*
X50123517Y-60170091D02*
X50161612Y-60246282D01*
X50161612Y-60246282D02*
X50199707Y-60398663D01*
X50199707Y-60398663D02*
X50199707Y-60589139D01*
X50199707Y-60589139D02*
X50161612Y-60741520D01*
X50161612Y-60741520D02*
X50123517Y-60817710D01*
X50123517Y-60817710D02*
X50085422Y-60855806D01*
X50085422Y-60855806D02*
X50009231Y-60893901D01*
X50009231Y-60893901D02*
X49933041Y-60893901D01*
X49933041Y-60893901D02*
X49856850Y-60855806D01*
X49856850Y-60855806D02*
X49818755Y-60817710D01*
X49818755Y-60817710D02*
X49780660Y-60741520D01*
X49780660Y-60741520D02*
X49742564Y-60589139D01*
X49742564Y-60589139D02*
X49742564Y-60398663D01*
X49742564Y-60398663D02*
X49780660Y-60246282D01*
X49780660Y-60246282D02*
X49818755Y-60170091D01*
X49818755Y-60170091D02*
X49856850Y-60131996D01*
X49856850Y-60131996D02*
X49933041Y-60093901D01*
X5233333Y-44257295D02*
X5233333Y-44828723D01*
X5233333Y-44828723D02*
X5195238Y-44943009D01*
X5195238Y-44943009D02*
X5119047Y-45019200D01*
X5119047Y-45019200D02*
X5004762Y-45057295D01*
X5004762Y-45057295D02*
X4928571Y-45057295D01*
X6033333Y-45057295D02*
X5576190Y-45057295D01*
X5804762Y-45057295D02*
X5804762Y-44257295D01*
X5804762Y-44257295D02*
X5728571Y-44371580D01*
X5728571Y-44371580D02*
X5652381Y-44447771D01*
X5652381Y-44447771D02*
X5576190Y-44485866D01*
X39691014Y-73116404D02*
X39652918Y-73154500D01*
X39652918Y-73154500D02*
X39538633Y-73192595D01*
X39538633Y-73192595D02*
X39462442Y-73192595D01*
X39462442Y-73192595D02*
X39348156Y-73154500D01*
X39348156Y-73154500D02*
X39271966Y-73078309D01*
X39271966Y-73078309D02*
X39233871Y-73002119D01*
X39233871Y-73002119D02*
X39195775Y-72849738D01*
X39195775Y-72849738D02*
X39195775Y-72735452D01*
X39195775Y-72735452D02*
X39233871Y-72583071D01*
X39233871Y-72583071D02*
X39271966Y-72506880D01*
X39271966Y-72506880D02*
X39348156Y-72430690D01*
X39348156Y-72430690D02*
X39462442Y-72392595D01*
X39462442Y-72392595D02*
X39538633Y-72392595D01*
X39538633Y-72392595D02*
X39652918Y-72430690D01*
X39652918Y-72430690D02*
X39691014Y-72468785D01*
X39995775Y-72468785D02*
X40033871Y-72430690D01*
X40033871Y-72430690D02*
X40110061Y-72392595D01*
X40110061Y-72392595D02*
X40300537Y-72392595D01*
X40300537Y-72392595D02*
X40376728Y-72430690D01*
X40376728Y-72430690D02*
X40414823Y-72468785D01*
X40414823Y-72468785D02*
X40452918Y-72544976D01*
X40452918Y-72544976D02*
X40452918Y-72621166D01*
X40452918Y-72621166D02*
X40414823Y-72735452D01*
X40414823Y-72735452D02*
X39957680Y-73192595D01*
X39957680Y-73192595D02*
X40452918Y-73192595D01*
X41214823Y-73192595D02*
X40757680Y-73192595D01*
X40986252Y-73192595D02*
X40986252Y-72392595D01*
X40986252Y-72392595D02*
X40910061Y-72506880D01*
X40910061Y-72506880D02*
X40833871Y-72583071D01*
X40833871Y-72583071D02*
X40757680Y-72621166D01*
X39450675Y-57702716D02*
X39374485Y-57664621D01*
X39374485Y-57664621D02*
X39298294Y-57588431D01*
X39298294Y-57588431D02*
X39184008Y-57474145D01*
X39184008Y-57474145D02*
X39107818Y-57436050D01*
X39107818Y-57436050D02*
X39031627Y-57436050D01*
X39069723Y-57626526D02*
X38993532Y-57588431D01*
X38993532Y-57588431D02*
X38917342Y-57512240D01*
X38917342Y-57512240D02*
X38879246Y-57359859D01*
X38879246Y-57359859D02*
X38879246Y-57093192D01*
X38879246Y-57093192D02*
X38917342Y-56940811D01*
X38917342Y-56940811D02*
X38993532Y-56864621D01*
X38993532Y-56864621D02*
X39069723Y-56826526D01*
X39069723Y-56826526D02*
X39222104Y-56826526D01*
X39222104Y-56826526D02*
X39298294Y-56864621D01*
X39298294Y-56864621D02*
X39374485Y-56940811D01*
X39374485Y-56940811D02*
X39412580Y-57093192D01*
X39412580Y-57093192D02*
X39412580Y-57359859D01*
X39412580Y-57359859D02*
X39374485Y-57512240D01*
X39374485Y-57512240D02*
X39298294Y-57588431D01*
X39298294Y-57588431D02*
X39222104Y-57626526D01*
X39222104Y-57626526D02*
X39069723Y-57626526D01*
X40098294Y-57093192D02*
X40098294Y-57626526D01*
X39907818Y-56788431D02*
X39717341Y-57359859D01*
X39717341Y-57359859D02*
X40212580Y-57359859D01*
X36990476Y-40767295D02*
X37447619Y-40767295D01*
X37219047Y-41567295D02*
X37219047Y-40767295D01*
X37714286Y-41567295D02*
X37714286Y-40767295D01*
X37714286Y-40767295D02*
X38019048Y-40767295D01*
X38019048Y-40767295D02*
X38095238Y-40805390D01*
X38095238Y-40805390D02*
X38133333Y-40843485D01*
X38133333Y-40843485D02*
X38171429Y-40919676D01*
X38171429Y-40919676D02*
X38171429Y-41033961D01*
X38171429Y-41033961D02*
X38133333Y-41110152D01*
X38133333Y-41110152D02*
X38095238Y-41148247D01*
X38095238Y-41148247D02*
X38019048Y-41186342D01*
X38019048Y-41186342D02*
X37714286Y-41186342D01*
X38895238Y-40767295D02*
X38514286Y-40767295D01*
X38514286Y-40767295D02*
X38476190Y-41148247D01*
X38476190Y-41148247D02*
X38514286Y-41110152D01*
X38514286Y-41110152D02*
X38590476Y-41072057D01*
X38590476Y-41072057D02*
X38780952Y-41072057D01*
X38780952Y-41072057D02*
X38857143Y-41110152D01*
X38857143Y-41110152D02*
X38895238Y-41148247D01*
X38895238Y-41148247D02*
X38933333Y-41224438D01*
X38933333Y-41224438D02*
X38933333Y-41414914D01*
X38933333Y-41414914D02*
X38895238Y-41491104D01*
X38895238Y-41491104D02*
X38857143Y-41529200D01*
X38857143Y-41529200D02*
X38780952Y-41567295D01*
X38780952Y-41567295D02*
X38590476Y-41567295D01*
X38590476Y-41567295D02*
X38514286Y-41529200D01*
X38514286Y-41529200D02*
X38476190Y-41491104D01*
X43890476Y-61727295D02*
X43890476Y-62374914D01*
X43890476Y-62374914D02*
X43928571Y-62451104D01*
X43928571Y-62451104D02*
X43966666Y-62489200D01*
X43966666Y-62489200D02*
X44042857Y-62527295D01*
X44042857Y-62527295D02*
X44195238Y-62527295D01*
X44195238Y-62527295D02*
X44271428Y-62489200D01*
X44271428Y-62489200D02*
X44309523Y-62451104D01*
X44309523Y-62451104D02*
X44347619Y-62374914D01*
X44347619Y-62374914D02*
X44347619Y-61727295D01*
X44652380Y-61727295D02*
X45185714Y-61727295D01*
X45185714Y-61727295D02*
X44842856Y-62527295D01*
X49110714Y-16902295D02*
X48844047Y-16521342D01*
X48653571Y-16902295D02*
X48653571Y-16102295D01*
X48653571Y-16102295D02*
X48958333Y-16102295D01*
X48958333Y-16102295D02*
X49034523Y-16140390D01*
X49034523Y-16140390D02*
X49072618Y-16178485D01*
X49072618Y-16178485D02*
X49110714Y-16254676D01*
X49110714Y-16254676D02*
X49110714Y-16368961D01*
X49110714Y-16368961D02*
X49072618Y-16445152D01*
X49072618Y-16445152D02*
X49034523Y-16483247D01*
X49034523Y-16483247D02*
X48958333Y-16521342D01*
X48958333Y-16521342D02*
X48653571Y-16521342D01*
X49872618Y-16902295D02*
X49415475Y-16902295D01*
X49644047Y-16902295D02*
X49644047Y-16102295D01*
X49644047Y-16102295D02*
X49567856Y-16216580D01*
X49567856Y-16216580D02*
X49491666Y-16292771D01*
X49491666Y-16292771D02*
X49415475Y-16330866D01*
X50367857Y-16102295D02*
X50444047Y-16102295D01*
X50444047Y-16102295D02*
X50520238Y-16140390D01*
X50520238Y-16140390D02*
X50558333Y-16178485D01*
X50558333Y-16178485D02*
X50596428Y-16254676D01*
X50596428Y-16254676D02*
X50634523Y-16407057D01*
X50634523Y-16407057D02*
X50634523Y-16597533D01*
X50634523Y-16597533D02*
X50596428Y-16749914D01*
X50596428Y-16749914D02*
X50558333Y-16826104D01*
X50558333Y-16826104D02*
X50520238Y-16864200D01*
X50520238Y-16864200D02*
X50444047Y-16902295D01*
X50444047Y-16902295D02*
X50367857Y-16902295D01*
X50367857Y-16902295D02*
X50291666Y-16864200D01*
X50291666Y-16864200D02*
X50253571Y-16826104D01*
X50253571Y-16826104D02*
X50215476Y-16749914D01*
X50215476Y-16749914D02*
X50177380Y-16597533D01*
X50177380Y-16597533D02*
X50177380Y-16407057D01*
X50177380Y-16407057D02*
X50215476Y-16254676D01*
X50215476Y-16254676D02*
X50253571Y-16178485D01*
X50253571Y-16178485D02*
X50291666Y-16140390D01*
X50291666Y-16140390D02*
X50367857Y-16102295D01*
X32990476Y-40767295D02*
X33447619Y-40767295D01*
X33219047Y-41567295D02*
X33219047Y-40767295D01*
X33714286Y-41567295D02*
X33714286Y-40767295D01*
X33714286Y-40767295D02*
X34019048Y-40767295D01*
X34019048Y-40767295D02*
X34095238Y-40805390D01*
X34095238Y-40805390D02*
X34133333Y-40843485D01*
X34133333Y-40843485D02*
X34171429Y-40919676D01*
X34171429Y-40919676D02*
X34171429Y-41033961D01*
X34171429Y-41033961D02*
X34133333Y-41110152D01*
X34133333Y-41110152D02*
X34095238Y-41148247D01*
X34095238Y-41148247D02*
X34019048Y-41186342D01*
X34019048Y-41186342D02*
X33714286Y-41186342D01*
X34857143Y-41033961D02*
X34857143Y-41567295D01*
X34666667Y-40729200D02*
X34476190Y-41300628D01*
X34476190Y-41300628D02*
X34971429Y-41300628D01*
X17898214Y-28062295D02*
X17631547Y-27681342D01*
X17441071Y-28062295D02*
X17441071Y-27262295D01*
X17441071Y-27262295D02*
X17745833Y-27262295D01*
X17745833Y-27262295D02*
X17822023Y-27300390D01*
X17822023Y-27300390D02*
X17860118Y-27338485D01*
X17860118Y-27338485D02*
X17898214Y-27414676D01*
X17898214Y-27414676D02*
X17898214Y-27528961D01*
X17898214Y-27528961D02*
X17860118Y-27605152D01*
X17860118Y-27605152D02*
X17822023Y-27643247D01*
X17822023Y-27643247D02*
X17745833Y-27681342D01*
X17745833Y-27681342D02*
X17441071Y-27681342D01*
X18202975Y-27338485D02*
X18241071Y-27300390D01*
X18241071Y-27300390D02*
X18317261Y-27262295D01*
X18317261Y-27262295D02*
X18507737Y-27262295D01*
X18507737Y-27262295D02*
X18583928Y-27300390D01*
X18583928Y-27300390D02*
X18622023Y-27338485D01*
X18622023Y-27338485D02*
X18660118Y-27414676D01*
X18660118Y-27414676D02*
X18660118Y-27490866D01*
X18660118Y-27490866D02*
X18622023Y-27605152D01*
X18622023Y-27605152D02*
X18164880Y-28062295D01*
X18164880Y-28062295D02*
X18660118Y-28062295D01*
X19422023Y-28062295D02*
X18964880Y-28062295D01*
X19193452Y-28062295D02*
X19193452Y-27262295D01*
X19193452Y-27262295D02*
X19117261Y-27376580D01*
X19117261Y-27376580D02*
X19041071Y-27452771D01*
X19041071Y-27452771D02*
X18964880Y-27490866D01*
X22282631Y-4811051D02*
X22930250Y-4811051D01*
X22930250Y-4811051D02*
X23006440Y-4772956D01*
X23006440Y-4772956D02*
X23044536Y-4734861D01*
X23044536Y-4734861D02*
X23082631Y-4658670D01*
X23082631Y-4658670D02*
X23082631Y-4506289D01*
X23082631Y-4506289D02*
X23044536Y-4430099D01*
X23044536Y-4430099D02*
X23006440Y-4392004D01*
X23006440Y-4392004D02*
X22930250Y-4353908D01*
X22930250Y-4353908D02*
X22282631Y-4353908D01*
X22282631Y-4049147D02*
X22282631Y-3553909D01*
X22282631Y-3553909D02*
X22587393Y-3820575D01*
X22587393Y-3820575D02*
X22587393Y-3706290D01*
X22587393Y-3706290D02*
X22625488Y-3630099D01*
X22625488Y-3630099D02*
X22663583Y-3592004D01*
X22663583Y-3592004D02*
X22739774Y-3553909D01*
X22739774Y-3553909D02*
X22930250Y-3553909D01*
X22930250Y-3553909D02*
X23006440Y-3592004D01*
X23006440Y-3592004D02*
X23044536Y-3630099D01*
X23044536Y-3630099D02*
X23082631Y-3706290D01*
X23082631Y-3706290D02*
X23082631Y-3934861D01*
X23082631Y-3934861D02*
X23044536Y-4011052D01*
X23044536Y-4011052D02*
X23006440Y-4049147D01*
X18016667Y-8021104D02*
X17978571Y-8059200D01*
X17978571Y-8059200D02*
X17864286Y-8097295D01*
X17864286Y-8097295D02*
X17788095Y-8097295D01*
X17788095Y-8097295D02*
X17673809Y-8059200D01*
X17673809Y-8059200D02*
X17597619Y-7983009D01*
X17597619Y-7983009D02*
X17559524Y-7906819D01*
X17559524Y-7906819D02*
X17521428Y-7754438D01*
X17521428Y-7754438D02*
X17521428Y-7640152D01*
X17521428Y-7640152D02*
X17559524Y-7487771D01*
X17559524Y-7487771D02*
X17597619Y-7411580D01*
X17597619Y-7411580D02*
X17673809Y-7335390D01*
X17673809Y-7335390D02*
X17788095Y-7297295D01*
X17788095Y-7297295D02*
X17864286Y-7297295D01*
X17864286Y-7297295D02*
X17978571Y-7335390D01*
X17978571Y-7335390D02*
X18016667Y-7373485D01*
X18321428Y-7373485D02*
X18359524Y-7335390D01*
X18359524Y-7335390D02*
X18435714Y-7297295D01*
X18435714Y-7297295D02*
X18626190Y-7297295D01*
X18626190Y-7297295D02*
X18702381Y-7335390D01*
X18702381Y-7335390D02*
X18740476Y-7373485D01*
X18740476Y-7373485D02*
X18778571Y-7449676D01*
X18778571Y-7449676D02*
X18778571Y-7525866D01*
X18778571Y-7525866D02*
X18740476Y-7640152D01*
X18740476Y-7640152D02*
X18283333Y-8097295D01*
X18283333Y-8097295D02*
X18778571Y-8097295D01*
M02*
