%TF.GenerationSoftware,KiCad,Pcbnew,10.0.5*%
%TF.CreationDate,2026-08-08T18:07:34+02:00*%
%TF.ProjectId,wisp,77697370-2e6b-4696-9361-645f70636258,rev?*%
%TF.SameCoordinates,Original*%
%TF.FileFunction,Copper,L4,Bot*%
%TF.FilePolarity,Positive*%
%FSLAX46Y46*%
G04 Gerber Fmt 4.6, Leading zero omitted, Abs format (unit mm)*
G04 Created by KiCad (PCBNEW 10.0.5) date 2026-08-08 18:07:34*
%MOMM*%
%LPD*%
G01*
G04 APERTURE LIST*
%TA.AperFunction,ComponentPad*%
%ADD10R,1.700000X1.700000*%
%TD*%
%TA.AperFunction,ComponentPad*%
%ADD11C,1.700000*%
%TD*%
%TA.AperFunction,ComponentPad*%
%ADD12O,1.000000X2.100000*%
%TD*%
%TA.AperFunction,ComponentPad*%
%ADD13O,1.000000X1.600000*%
%TD*%
%TA.AperFunction,HeatsinkPad*%
%ADD14C,0.600000*%
%TD*%
%TA.AperFunction,ViaPad*%
%ADD15C,0.600000*%
%TD*%
%TA.AperFunction,Conductor*%
%ADD16C,0.200000*%
%TD*%
G04 APERTURE END LIST*
D10*
%TO.P,J8,1*%
%TO.N,+3V3*%
X12000000Y-57000000D03*
D11*
%TO.P,J8,2*%
%TO.N,GND*%
X12000000Y-59540000D03*
%TO.P,J8,3*%
%TO.N,/ADC_PAD_EXT*%
X12000000Y-62080000D03*
%TD*%
D10*
%TO.P,J6,1*%
%TO.N,/REED_EXT*%
X12000000Y-48000000D03*
D11*
%TO.P,J6,2*%
%TO.N,GND*%
X12000000Y-50540000D03*
%TD*%
D10*
%TO.P,J5,1*%
%TO.N,/+5V_EXT*%
X4500000Y-48000000D03*
D11*
%TO.P,J5,2*%
%TO.N,/SW_GND*%
X4500000Y-50540000D03*
%TO.P,J5,3*%
%TO.N,GND*%
X4500000Y-53080000D03*
%TD*%
D10*
%TO.P,J2,1*%
%TO.N,+3V3*%
X56500000Y-14000000D03*
D11*
%TO.P,J2,2*%
%TO.N,/SDA2*%
X56500000Y-16540000D03*
%TO.P,J2,3*%
%TO.N,/SCL2*%
X56500000Y-19080000D03*
%TO.P,J2,4*%
%TO.N,GND*%
X56500000Y-21620000D03*
%TD*%
D10*
%TO.P,J3,1*%
%TO.N,/+5V_EXT*%
X56500000Y-26000000D03*
D11*
%TO.P,J3,2*%
%TO.N,GND*%
X56500000Y-28540000D03*
%TO.P,J3,3*%
%TO.N,/MMWAVE_TX*%
X56500000Y-31080000D03*
%TO.P,J3,4*%
%TO.N,/MMWAVE_RX*%
X56500000Y-33620000D03*
%TD*%
D10*
%TO.P,J4,1*%
%TO.N,+3V3*%
X56500000Y-38000000D03*
D11*
%TO.P,J4,2*%
%TO.N,GND*%
X56500000Y-40540000D03*
%TO.P,J4,3*%
%TO.N,/MIC_WS*%
X56500000Y-43080000D03*
%TO.P,J4,4*%
%TO.N,/MIC_SCK*%
X56500000Y-45620000D03*
%TO.P,J4,5*%
%TO.N,/MIC_SD*%
X56500000Y-48160000D03*
%TD*%
D10*
%TO.P,J9,1*%
%TO.N,GND*%
X56500000Y-52000000D03*
D11*
%TO.P,J9,2*%
%TO.N,+3V3*%
X56500000Y-54540000D03*
%TO.P,J9,3*%
%TO.N,/EXP_IO1*%
X56500000Y-57080000D03*
%TO.P,J9,4*%
%TO.N,/EXP_IO2*%
X56500000Y-59620000D03*
%TO.P,J9,5*%
%TO.N,/EXP_IO21*%
X56500000Y-62160000D03*
%TO.P,J9,6*%
%TO.N,/EXP_IO38*%
X56500000Y-64700000D03*
%TO.P,J9,7*%
%TO.N,/EXP_IO47*%
X56500000Y-67240000D03*
%TO.P,J9,8*%
%TO.N,/EXP_IO48*%
X56500000Y-69780000D03*
%TD*%
D10*
%TO.P,J7,1*%
%TO.N,+3V3*%
X4500000Y-57000000D03*
D11*
%TO.P,J7,2*%
%TO.N,GND*%
X4500000Y-59540000D03*
%TO.P,J7,3*%
%TO.N,/ONEWIRE_EXT*%
X4500000Y-62080000D03*
%TD*%
D12*
%TO.P,J1,SH*%
%TO.N,GND*%
X1180000Y-36870000D03*
D13*
X1180000Y-41050000D03*
D12*
X9820000Y-36870000D03*
D13*
X9820000Y-41050000D03*
%TD*%
D14*
%TO.P,U3,41*%
%TO.N,GND*%
X27100000Y-15260000D03*
X27100000Y-16660000D03*
X27800000Y-14560000D03*
X27800000Y-15960000D03*
X27800000Y-17360000D03*
X28500000Y-15260000D03*
X28500000Y-16660000D03*
X29200000Y-14560000D03*
X29200000Y-15960000D03*
X29200000Y-17360000D03*
X29900000Y-15260000D03*
X29900000Y-16660000D03*
%TD*%
D15*
%TO.N,+3V3*%
X52087500Y-19080000D03*
X40850000Y-68449200D03*
X35850000Y-30000000D03*
X42837500Y-73400000D03*
X25500000Y-54450000D03*
X26056400Y-74907100D03*
X38400000Y-43000000D03*
X40375000Y-66025000D03*
X44175000Y-63525000D03*
X21650000Y-9510000D03*
X43742900Y-68755600D03*
X26056400Y-66607100D03*
X17637500Y-22210000D03*
X17588700Y-12621300D03*
X26500000Y-56550000D03*
X28262500Y-32050000D03*
X16565600Y-14951900D03*
X35850000Y-36000000D03*
X46043900Y-76430500D03*
X21381600Y-78468400D03*
X44500000Y-72100800D03*
X52087500Y-16540000D03*
X41337500Y-24750000D03*
X25500000Y-56550000D03*
X14925000Y-27700000D03*
X38850000Y-33000000D03*
X25200000Y-77250000D03*
X26500000Y-54450000D03*
X25042500Y-28300000D03*
X7805900Y-65898400D03*
X36800000Y-33000000D03*
X39655300Y-71055300D03*
X17600000Y-9510000D03*
X44825000Y-66475000D03*
X36575000Y-66025000D03*
%TO.N,GND*%
X6000000Y-46000000D03*
X42750000Y-68449200D03*
X26000000Y-10000000D03*
X46000000Y-78000000D03*
X54000000Y-42000000D03*
X30000000Y-58000000D03*
X22000000Y-58000000D03*
X42000000Y-14000000D03*
X30000000Y-22000000D03*
X38000000Y-26000000D03*
X38000000Y-70000000D03*
X26000000Y-34000000D03*
X45875000Y-66025000D03*
X42400000Y-43000000D03*
X40750000Y-33000000D03*
X10000000Y-50000000D03*
X46000000Y-54000000D03*
X18000000Y-30000000D03*
X10000000Y-70000000D03*
X26000000Y-18000000D03*
X2000000Y-22000000D03*
X14000000Y-54000000D03*
X50000000Y-54000000D03*
X46000000Y-14000000D03*
X58000000Y-70000000D03*
X58000000Y-10000000D03*
X54000000Y-78000000D03*
X10000000Y-34000000D03*
X38000000Y-38000000D03*
X6000000Y-38000000D03*
X50000000Y-58000000D03*
X54000000Y-26000000D03*
X34000000Y-66000000D03*
X14000000Y-22000000D03*
X6000000Y-26000000D03*
X50000000Y-10000000D03*
X38000000Y-58000000D03*
X6000000Y-78000000D03*
X26000000Y-14000000D03*
X46050000Y-77300000D03*
X34000000Y-30000000D03*
X3825000Y-25075000D03*
X2000000Y-78000000D03*
X58000000Y-66000000D03*
X58000000Y-14000000D03*
X2000000Y-70000000D03*
X14000000Y-78000000D03*
X40900000Y-75700000D03*
X18000000Y-18000000D03*
X6000000Y-14000000D03*
X19488700Y-12621300D03*
X14000000Y-38000000D03*
X6000000Y-62000000D03*
X38000000Y-50000000D03*
X34000000Y-74000000D03*
X6000000Y-54000000D03*
X50000000Y-26000000D03*
X38000000Y-74000000D03*
X58000000Y-54000000D03*
X18000000Y-46000000D03*
X58000000Y-78000000D03*
X10000000Y-54000000D03*
X46000000Y-38000000D03*
X11178800Y-33338700D03*
X46000000Y-58000000D03*
X27525000Y-14985000D03*
X28200000Y-69300000D03*
X46000000Y-26000000D03*
X2000000Y-10000000D03*
X38475000Y-66025000D03*
X14000000Y-70000000D03*
X6000000Y-66000000D03*
X30000000Y-78000000D03*
X18000000Y-34000000D03*
X24806400Y-74907100D03*
X5900000Y-16150000D03*
X58000000Y-50000000D03*
X42000000Y-54000000D03*
X6000000Y-58000000D03*
X15600000Y-10780000D03*
X10000000Y-22000000D03*
X30000000Y-10000000D03*
X50000000Y-22000000D03*
X43750000Y-76500000D03*
X50000000Y-42000000D03*
X58000000Y-18000000D03*
X42000000Y-62000000D03*
X34000000Y-18000000D03*
X29212500Y-36150000D03*
X22000000Y-74000000D03*
X2250000Y-36355000D03*
X34000000Y-38000000D03*
X42000000Y-50000000D03*
X18000000Y-54000000D03*
X39150000Y-8240000D03*
X38000000Y-54000000D03*
X34000000Y-70000000D03*
X29475000Y-16935000D03*
X13262500Y-36500000D03*
X54000000Y-58000000D03*
X22000000Y-46000000D03*
X22000000Y-50000000D03*
X34000000Y-50000000D03*
X34000000Y-78000000D03*
X7975000Y-25075000D03*
X30000000Y-46000000D03*
X18000000Y-26000000D03*
X42000000Y-70000000D03*
X30000000Y-38000000D03*
X2000000Y-42000000D03*
X42000000Y-26000000D03*
X54000000Y-10000000D03*
X22000000Y-34000000D03*
X46000000Y-42000000D03*
X10000000Y-46000000D03*
X42000000Y-10000000D03*
X54000000Y-46000000D03*
X22000000Y-30000000D03*
X15475000Y-25075000D03*
X54000000Y-38000000D03*
X2000000Y-26000000D03*
X11325000Y-25075000D03*
X58000000Y-26000000D03*
X22000000Y-66000000D03*
X58000000Y-34000000D03*
X6000000Y-34000000D03*
X10000000Y-18000000D03*
X14000000Y-18000000D03*
X15562500Y-51490000D03*
X10000000Y-58000000D03*
X50000000Y-30000000D03*
X42000000Y-30000000D03*
X54000000Y-74000000D03*
X10000000Y-30000000D03*
X34000000Y-10000000D03*
X46000000Y-34000000D03*
X25800000Y-71700000D03*
X9150000Y-35955000D03*
X30000000Y-50000000D03*
X6000000Y-42000000D03*
X37750000Y-36000000D03*
X46000000Y-74000000D03*
X6000000Y-6000000D03*
X10000000Y-78000000D03*
X5812500Y-65240000D03*
X2000000Y-14000000D03*
X21650000Y-8240000D03*
X6000000Y-70000000D03*
X25800000Y-69300000D03*
X42275000Y-66025000D03*
X24806400Y-66607100D03*
X10000000Y-62000000D03*
X10000000Y-38000000D03*
X10762500Y-16150000D03*
X22000000Y-54000000D03*
X54000000Y-50000000D03*
X46000000Y-62000000D03*
X58000000Y-62000000D03*
X42000000Y-78000000D03*
X30000000Y-54000000D03*
X2000000Y-50000000D03*
X50000000Y-38000000D03*
X6000000Y-74000000D03*
X50000000Y-34000000D03*
X26000000Y-46000000D03*
X14000000Y-34000000D03*
X2000000Y-54000000D03*
X34000000Y-22000000D03*
X38000000Y-46000000D03*
X58000000Y-22000000D03*
X2000000Y-66000000D03*
X23281600Y-78468400D03*
X58000000Y-42000000D03*
X42000000Y-22000000D03*
X46000000Y-70000000D03*
X26000000Y-38000000D03*
X58000000Y-30000000D03*
X27100000Y-77250000D03*
X37750000Y-30000000D03*
X10000000Y-74000000D03*
X58000000Y-74000000D03*
X46000000Y-18000000D03*
X54000000Y-54000000D03*
X18000000Y-38000000D03*
X2000000Y-46000000D03*
X28200000Y-71700000D03*
X14000000Y-26000000D03*
X46000000Y-50000000D03*
X10000000Y-42000000D03*
X42000000Y-18000000D03*
X18000000Y-58000000D03*
X37062500Y-56450000D03*
X50000000Y-14000000D03*
X26000000Y-30000000D03*
X17239100Y-58190900D03*
X42000000Y-58000000D03*
X43455500Y-64368900D03*
X13962500Y-30000000D03*
X46000000Y-10000000D03*
X54000000Y-66000000D03*
X34000000Y-14000000D03*
X19500000Y-9510000D03*
X42000000Y-42000000D03*
X5562500Y-33355000D03*
X14000000Y-74000000D03*
X26000000Y-50000000D03*
X42000000Y-34000000D03*
X26000000Y-22000000D03*
X29475000Y-14985000D03*
X6000000Y-50000000D03*
X46000000Y-46000000D03*
X9850000Y-13650000D03*
X58000000Y-46000000D03*
X45400000Y-68449200D03*
X54000000Y-6000000D03*
X30537500Y-33950000D03*
X2000000Y-58000000D03*
X2000000Y-62000000D03*
X50000000Y-46000000D03*
X46000000Y-22000000D03*
X6000000Y-2000000D03*
X38000000Y-78000000D03*
X18000000Y-42000000D03*
X50000000Y-18000000D03*
X58000000Y-38000000D03*
X54000000Y-30000000D03*
X6000000Y-22000000D03*
X41555300Y-71055300D03*
X42000000Y-38000000D03*
X34000000Y-46000000D03*
X27525000Y-16935000D03*
X2000000Y-34000000D03*
X22000000Y-38000000D03*
X6000000Y-10000000D03*
X42000000Y-46000000D03*
X50000000Y-50000000D03*
X22000000Y-26000000D03*
X26000000Y-78000000D03*
X14000000Y-62000000D03*
X54000000Y-34000000D03*
X58000000Y-58000000D03*
X2000000Y-74000000D03*
X46000000Y-30000000D03*
X54000000Y-2000000D03*
X10000000Y-26000000D03*
%TO.N,/EN*%
X27805600Y-48813700D03*
X10918500Y-31056700D03*
%TO.N,/SCL2*%
X22884400Y-20254600D03*
%TO.N,/ADC_PAD*%
X23201100Y-24490900D03*
X19003500Y-35257400D03*
%TO.N,/IO0*%
X16189100Y-22665700D03*
X24871800Y-16236400D03*
%TO.N,/SDA*%
X45333600Y-72363000D03*
X30729800Y-74930900D03*
X42426100Y-75542400D03*
%TO.N,/LED_DOUT*%
X43564900Y-15367100D03*
X6411000Y-12778300D03*
%TO.N,+5V*%
X14791900Y-31525500D03*
X25573600Y-36639000D03*
X9267200Y-24441500D03*
X12447400Y-33383900D03*
X1425700Y-27915900D03*
%TO.N,/+5V_EXT*%
X24798000Y-49532100D03*
X13317400Y-9323000D03*
X4001300Y-31878700D03*
%TO.N,/SW_GND*%
X7066800Y-40145200D03*
X7204800Y-31750900D03*
%TO.N,/UART0_RX*%
X44287600Y-35178500D03*
X45461200Y-33118800D03*
X47614000Y-26092600D03*
X45916600Y-28603700D03*
X46083600Y-18901400D03*
X42547100Y-17006900D03*
%TO.N,/REED_IN*%
X15797800Y-40672100D03*
X19865000Y-14392600D03*
%TO.N,/EXP_IO47*%
X57949300Y-45027600D03*
X34907700Y-27921300D03*
%TO.N,/BUZZER_CTRL*%
X23189100Y-18517100D03*
X40466200Y-54237200D03*
%TO.N,/JTAG_MTMS*%
X35800000Y-22571800D03*
X32162300Y-32886800D03*
%TO.N,/SDA2*%
X22685800Y-19417200D03*
%TO.N,/MMWAVE_TX*%
X30150200Y-27927300D03*
%TO.N,/MMWAVE_RX*%
X55173400Y-27472700D03*
X33785900Y-24401700D03*
%TO.N,/JTAG_MTCK*%
X27960100Y-34907100D03*
X41380800Y-20325500D03*
%TO.N,/JTAG_MTDI*%
X36584400Y-20231600D03*
X24655300Y-30526600D03*
%TO.N,/MIC_WS*%
X31144600Y-27406900D03*
%TO.N,/MIC_SCK*%
X31075800Y-24555000D03*
%TO.N,/MIC_SD*%
X32231000Y-31651100D03*
%TO.N,/EXP_IO21*%
X30155600Y-24090800D03*
%TO.N,/EXP_IO38*%
X41071100Y-22865000D03*
%TO.N,/SW_OUT_CTRL*%
X16719400Y-34375300D03*
X17982600Y-35391100D03*
%TO.N,/ONEWIRE_DATA*%
X19012300Y-14892900D03*
X4573600Y-37334700D03*
%TO.N,/USB_DM*%
X12886700Y-32335200D03*
X23135400Y-23394900D03*
%TO.N,/USB_DP*%
X21910800Y-36572000D03*
X16618700Y-36667400D03*
%TO.N,/JTAG_MTDO*%
X39444000Y-37757400D03*
X36896900Y-38784600D03*
%TD*%
%TO.N,/EN*%
D16*
X23051200Y-48813700D02*
X11029300Y-36791800D01*
X27805600Y-48813700D02*
X23051200Y-48813700D01*
X10553000Y-33563800D02*
X10553000Y-31422200D01*
X11029300Y-34040100D02*
X10553000Y-33563800D01*
X11029300Y-36791800D02*
X11029300Y-34040100D01*
X10553000Y-31422200D02*
X10918500Y-31056700D01*
%TO.N,/SCL2*%
X27110100Y-19602900D02*
X51413600Y-19602900D01*
X51522000Y-19711300D02*
X55868700Y-19711300D01*
X55868700Y-19711300D02*
X56500000Y-19080000D01*
X26458400Y-20254600D02*
X27110100Y-19602900D01*
X51413600Y-19602900D02*
X51522000Y-19711300D01*
X22884400Y-20254600D02*
X26458400Y-20254600D01*
%TO.N,/ADC_PAD*%
X23201100Y-31059800D02*
X19003500Y-35257400D01*
X23201100Y-24490900D02*
X23201100Y-31059800D01*
%TO.N,/IO0*%
X24871800Y-16236400D02*
X22618400Y-16236400D01*
X22618400Y-16236400D02*
X16189100Y-22665700D01*
%TO.N,/SDA*%
X42426100Y-74930900D02*
X42426100Y-75542400D01*
X30729800Y-74930900D02*
X42426100Y-74930900D01*
X42765700Y-74930900D02*
X45333600Y-72363000D01*
X42426100Y-74930900D02*
X42765700Y-74930900D01*
%TO.N,/LED_DOUT*%
X17360800Y-13244300D02*
X39020100Y-13244300D01*
X6411000Y-12778300D02*
X16894800Y-12778300D01*
X39020100Y-13244300D02*
X41142900Y-15367100D01*
X41142900Y-15367100D02*
X43564900Y-15367100D01*
X16894800Y-12778300D02*
X17360800Y-13244300D01*
%TO.N,+5V*%
X20965000Y-35883800D02*
X24818400Y-35883800D01*
X14791900Y-31525500D02*
X13947000Y-32370400D01*
X12447400Y-33383900D02*
X13101600Y-33383900D01*
X20780600Y-36068200D02*
X20965000Y-35883800D01*
X13947000Y-32370400D02*
X13947000Y-32538500D01*
X6070500Y-27915900D02*
X9267200Y-24719200D01*
X24818400Y-35883800D02*
X25573600Y-36639000D01*
X13101600Y-33383900D02*
X13947000Y-32538500D01*
X17476700Y-36068200D02*
X20780600Y-36068200D01*
X9267200Y-24719200D02*
X9267200Y-24441500D01*
X13947000Y-32538500D02*
X17476700Y-36068200D01*
X1425700Y-27915900D02*
X6070500Y-27915900D01*
%TO.N,/+5V_EXT*%
X6958500Y-49306800D02*
X24572700Y-49306800D01*
X49596000Y-11036400D02*
X26185500Y-11036400D01*
X4500000Y-48000000D02*
X5651700Y-48000000D01*
X56500000Y-24848300D02*
X58617200Y-22731100D01*
X5651700Y-48000000D02*
X6958500Y-49306800D01*
X53826600Y-15267000D02*
X49596000Y-11036400D01*
X26185500Y-11036400D02*
X25260800Y-10111700D01*
X58617200Y-17027200D02*
X56857000Y-15267000D01*
X56857000Y-15267000D02*
X53826600Y-15267000D01*
X4500000Y-46848300D02*
X3949200Y-46297500D01*
X56500000Y-26000000D02*
X56500000Y-24848300D01*
X3949200Y-31930800D02*
X4001300Y-31878700D01*
X14106100Y-10111700D02*
X13317400Y-9323000D01*
X4500000Y-48000000D02*
X4500000Y-46848300D01*
X24572700Y-49306800D02*
X24798000Y-49532100D01*
X58617200Y-22731100D02*
X58617200Y-17027200D01*
X3949200Y-46297500D02*
X3949200Y-31930800D01*
X25260800Y-10111700D02*
X14106100Y-10111700D01*
%TO.N,/SW_GND*%
X7066800Y-40145200D02*
X7066800Y-31888900D01*
X7066800Y-31888900D02*
X7204800Y-31750900D01*
%TO.N,/UART0_RX*%
X44287700Y-34292300D02*
X44287700Y-35178500D01*
X42547100Y-17006900D02*
X44441600Y-18901400D01*
X45916600Y-28603700D02*
X47614000Y-26906300D01*
X44287700Y-35178500D02*
X44287600Y-35178500D01*
X45461200Y-33118800D02*
X44287700Y-34292300D01*
X47614000Y-26906300D02*
X47614000Y-26092600D01*
X44441600Y-18901400D02*
X46083600Y-18901400D01*
%TO.N,/REED_IN*%
X12380800Y-30600200D02*
X11845600Y-31135400D01*
X11845600Y-31135400D02*
X11845600Y-36719900D01*
X12380800Y-24868000D02*
X12380800Y-30600200D01*
X19865000Y-17383800D02*
X12380800Y-24868000D01*
X11845600Y-36719900D02*
X15797800Y-40672100D01*
X19865000Y-14392600D02*
X19865000Y-17383800D01*
%TO.N,/EXP_IO47*%
X34907700Y-27921300D02*
X34907700Y-28019500D01*
X57153400Y-44231700D02*
X57949300Y-45027600D01*
X51119900Y-44231700D02*
X57153400Y-44231700D01*
X34907700Y-28019500D02*
X51119900Y-44231700D01*
%TO.N,/BUZZER_CTRL*%
X23802800Y-23210200D02*
X22084100Y-21491500D01*
X23802800Y-30749800D02*
X23802800Y-23210200D01*
X22735100Y-18517100D02*
X23189100Y-18517100D01*
X26740600Y-40511600D02*
X26740600Y-33687600D01*
X26740600Y-33687600D02*
X23802800Y-30749800D01*
X22084100Y-21491500D02*
X22084100Y-19168100D01*
X22084100Y-19168100D02*
X22735100Y-18517100D01*
X40466200Y-54237200D02*
X26740600Y-40511600D01*
%TO.N,/JTAG_MTMS*%
X35800000Y-22571800D02*
X34489700Y-22571800D01*
X34489700Y-22571800D02*
X29526900Y-27534600D01*
X29526900Y-27534600D02*
X29526900Y-30251400D01*
X29526900Y-30251400D02*
X32162300Y-32886800D01*
%TO.N,/SDA2*%
X23690800Y-18917000D02*
X39338000Y-18917000D01*
X43814100Y-15968800D02*
X43846200Y-15936700D01*
X22685800Y-19417200D02*
X23190600Y-19417200D01*
X42286200Y-15968800D02*
X43814100Y-15968800D01*
X43846200Y-15936700D02*
X55896700Y-15936700D01*
X55896700Y-15936700D02*
X56500000Y-16540000D01*
X23190600Y-19417200D02*
X23690800Y-18917000D01*
X39338000Y-18917000D02*
X42286200Y-15968800D01*
%TO.N,/MMWAVE_TX*%
X30150200Y-27927300D02*
X30150200Y-27548100D01*
X50770400Y-25352500D02*
X56497900Y-31080000D01*
X56497900Y-31080000D02*
X56500000Y-31080000D01*
X32345800Y-25352500D02*
X50770400Y-25352500D01*
X30150200Y-27548100D02*
X32345800Y-25352500D01*
%TO.N,/MMWAVE_RX*%
X54621800Y-27472700D02*
X55173400Y-27472700D01*
X41641300Y-21392000D02*
X48541100Y-21392000D01*
X38631600Y-24401700D02*
X41641300Y-21392000D01*
X48541100Y-21392000D02*
X54621800Y-27472700D01*
X33785900Y-24401700D02*
X38631600Y-24401700D01*
%TO.N,/JTAG_MTCK*%
X32467200Y-20860400D02*
X40845900Y-20860400D01*
X40845900Y-20860400D02*
X41380800Y-20325500D01*
X27960100Y-34907100D02*
X27189000Y-34136000D01*
X27189000Y-34136000D02*
X27189000Y-26138600D01*
X27189000Y-26138600D02*
X32467200Y-20860400D01*
%TO.N,/JTAG_MTDI*%
X30878500Y-20231600D02*
X24440800Y-26669300D01*
X24440800Y-26669300D02*
X24440800Y-30312100D01*
X36584400Y-20231600D02*
X30878500Y-20231600D01*
X24440800Y-30312100D02*
X24655300Y-30526600D01*
%TO.N,/MIC_WS*%
X56500000Y-43080000D02*
X40739600Y-27319600D01*
X40739600Y-27319600D02*
X31231900Y-27319600D01*
X31231900Y-27319600D02*
X31144600Y-27406900D01*
%TO.N,/MIC_SCK*%
X36268800Y-39021600D02*
X46568500Y-49321300D01*
X57660500Y-48697600D02*
X57660500Y-46780500D01*
X29105200Y-26525600D02*
X29105200Y-31566900D01*
X29105200Y-31566900D02*
X36268800Y-38730500D01*
X46568500Y-49321300D02*
X57036800Y-49321300D01*
X57660500Y-46780500D02*
X56500000Y-45620000D01*
X57036800Y-49321300D02*
X57660500Y-48697600D01*
X36268800Y-38730500D02*
X36268800Y-39021600D01*
X31075800Y-24555000D02*
X29105200Y-26525600D01*
%TO.N,/MIC_SD*%
X53014100Y-48160000D02*
X56500000Y-48160000D01*
X36505200Y-31651100D02*
X53014100Y-48160000D01*
X32231000Y-31651100D02*
X36505200Y-31651100D01*
%TO.N,/EXP_IO21*%
X30155600Y-24090800D02*
X27626500Y-26619900D01*
X27626500Y-33286500D02*
X56500000Y-62160000D01*
X27626500Y-26619900D02*
X27626500Y-33286500D01*
%TO.N,/EXP_IO38*%
X56860000Y-29810000D02*
X58648500Y-31598500D01*
X58648500Y-31598500D02*
X58648500Y-62551500D01*
X55795900Y-29810000D02*
X56860000Y-29810000D01*
X48850900Y-22865000D02*
X55795900Y-29810000D01*
X58648500Y-62551500D02*
X56500000Y-64700000D01*
X41071100Y-22865000D02*
X48850900Y-22865000D01*
%TO.N,/SW_OUT_CTRL*%
X16719400Y-34375300D02*
X17735200Y-35391100D01*
X17735200Y-35391100D02*
X17982600Y-35391100D01*
%TO.N,/ONEWIRE_DATA*%
X6601700Y-28317400D02*
X6601700Y-35306600D01*
X6601700Y-35306600D02*
X4573600Y-37334700D01*
X19012300Y-15906800D02*
X6601700Y-28317400D01*
X19012300Y-14892900D02*
X19012300Y-15906800D01*
%TO.N,/USB_DM*%
X23135400Y-23394900D02*
X21827000Y-23394900D01*
X21827000Y-23394900D02*
X12886700Y-32335200D01*
%TO.N,/USB_DP*%
X21815400Y-36667400D02*
X16618700Y-36667400D01*
X21910800Y-36572000D02*
X21815400Y-36667400D01*
%TO.N,/JTAG_MTDO*%
X39444000Y-37757400D02*
X39084900Y-37398300D01*
X39084900Y-37398300D02*
X37732000Y-37398300D01*
X36896900Y-38233400D02*
X36896900Y-38784600D01*
X37732000Y-37398300D02*
X36896900Y-38233400D01*
%TD*%
%TA.AperFunction,Conductor*%
%TO.N,GND*%
G36*
X29624704Y-30844885D02*
G01*
X31582804Y-32802985D01*
X31610581Y-32857502D01*
X31611800Y-32872989D01*
X31611800Y-32959275D01*
X31624851Y-33007982D01*
X31649317Y-33099289D01*
X31721787Y-33224810D01*
X31721789Y-33224812D01*
X31721791Y-33224815D01*
X31824285Y-33327309D01*
X31824287Y-33327310D01*
X31824289Y-33327312D01*
X31949811Y-33399782D01*
X31949812Y-33399782D01*
X31949815Y-33399784D01*
X32089825Y-33437300D01*
X32089826Y-33437300D01*
X32234774Y-33437300D01*
X32234775Y-33437300D01*
X32374785Y-33399784D01*
X32374787Y-33399782D01*
X32374789Y-33399782D01*
X32500310Y-33327312D01*
X32500310Y-33327311D01*
X32500315Y-33327309D01*
X32602809Y-33224815D01*
X32602812Y-33224810D01*
X32675282Y-33099289D01*
X32675282Y-33099287D01*
X32675284Y-33099285D01*
X32712800Y-32959275D01*
X32712800Y-32814325D01*
X32675284Y-32674315D01*
X32675282Y-32674312D01*
X32675282Y-32674310D01*
X32602812Y-32548789D01*
X32602810Y-32548787D01*
X32602809Y-32548785D01*
X32500315Y-32446291D01*
X32500312Y-32446289D01*
X32500310Y-32446287D01*
X32374788Y-32373817D01*
X32374786Y-32373816D01*
X32374651Y-32373780D01*
X32374567Y-32373725D01*
X32368793Y-32371334D01*
X32369236Y-32370263D01*
X32323337Y-32340455D01*
X32301412Y-32283333D01*
X32317249Y-32224233D01*
X32364799Y-32185729D01*
X32374640Y-32182530D01*
X32443485Y-32164084D01*
X32443487Y-32164082D01*
X32443489Y-32164082D01*
X32569010Y-32091612D01*
X32569010Y-32091611D01*
X32569015Y-32091609D01*
X32599743Y-32060881D01*
X32630029Y-32030596D01*
X32684546Y-32002819D01*
X32700032Y-32001600D01*
X36319010Y-32001600D01*
X36377201Y-32020507D01*
X36389014Y-32030596D01*
X36669679Y-32311261D01*
X36697456Y-32365778D01*
X36687885Y-32426210D01*
X36644620Y-32469475D01*
X36625299Y-32476891D01*
X36587515Y-32487015D01*
X36587511Y-32487017D01*
X36461989Y-32559487D01*
X36359487Y-32661989D01*
X36287017Y-32787510D01*
X36264113Y-32872989D01*
X36249500Y-32927525D01*
X36249500Y-33072475D01*
X36276892Y-33174702D01*
X36287017Y-33212489D01*
X36359487Y-33338010D01*
X36359489Y-33338012D01*
X36359491Y-33338015D01*
X36461985Y-33440509D01*
X36461987Y-33440510D01*
X36461989Y-33440512D01*
X36587511Y-33512982D01*
X36587512Y-33512982D01*
X36587515Y-33512984D01*
X36727525Y-33550500D01*
X36727526Y-33550500D01*
X36872474Y-33550500D01*
X36872475Y-33550500D01*
X37012485Y-33512984D01*
X37012487Y-33512982D01*
X37012489Y-33512982D01*
X37138010Y-33440512D01*
X37138010Y-33440511D01*
X37138015Y-33440509D01*
X37240509Y-33338015D01*
X37312984Y-33212485D01*
X37323108Y-33174699D01*
X37356430Y-33123387D01*
X37413551Y-33101459D01*
X37472652Y-33117294D01*
X37488738Y-33130319D01*
X52733631Y-48375212D01*
X52733630Y-48375212D01*
X52798887Y-48440468D01*
X52798889Y-48440470D01*
X52847802Y-48468710D01*
X52878812Y-48486614D01*
X52967956Y-48510500D01*
X55384823Y-48510500D01*
X55443014Y-48529407D01*
X55478977Y-48578905D01*
X55480127Y-48582446D01*
X55531611Y-48683489D01*
X55558768Y-48736788D01*
X55614582Y-48813609D01*
X55633489Y-48871800D01*
X55614582Y-48929991D01*
X55565082Y-48965955D01*
X55534489Y-48970800D01*
X46754689Y-48970800D01*
X46696498Y-48951893D01*
X46684685Y-48941804D01*
X37156922Y-39414040D01*
X37129145Y-39359523D01*
X37138716Y-39299091D01*
X37177425Y-39258300D01*
X37234915Y-39225109D01*
X37337409Y-39122615D01*
X37350178Y-39100498D01*
X37409882Y-38997089D01*
X37409882Y-38997087D01*
X37409884Y-38997085D01*
X37447400Y-38857075D01*
X37447400Y-38712125D01*
X37409884Y-38572115D01*
X37409882Y-38572112D01*
X37409882Y-38572110D01*
X37337412Y-38446589D01*
X37337410Y-38446587D01*
X37337409Y-38446585D01*
X37328404Y-38437580D01*
X37300629Y-38383066D01*
X37310200Y-38322634D01*
X37328403Y-38297578D01*
X37848186Y-37777796D01*
X37902703Y-37750019D01*
X37918190Y-37748800D01*
X38796006Y-37748800D01*
X38854197Y-37767707D01*
X38890161Y-37817207D01*
X38891620Y-37823661D01*
X38891821Y-37823608D01*
X38893500Y-37829874D01*
X38893500Y-37829875D01*
X38922456Y-37937942D01*
X38931017Y-37969889D01*
X39003487Y-38095410D01*
X39003489Y-38095412D01*
X39003491Y-38095415D01*
X39105985Y-38197909D01*
X39105987Y-38197910D01*
X39105989Y-38197912D01*
X39231511Y-38270382D01*
X39231512Y-38270382D01*
X39231515Y-38270384D01*
X39371525Y-38307900D01*
X39371526Y-38307900D01*
X39516474Y-38307900D01*
X39516475Y-38307900D01*
X39656485Y-38270384D01*
X39656487Y-38270382D01*
X39656489Y-38270382D01*
X39782010Y-38197912D01*
X39782010Y-38197911D01*
X39782015Y-38197909D01*
X39884509Y-38095415D01*
X39915695Y-38041400D01*
X39956982Y-37969889D01*
X39956982Y-37969887D01*
X39956984Y-37969885D01*
X39994500Y-37829875D01*
X39994500Y-37684925D01*
X39956984Y-37544915D01*
X39956982Y-37544912D01*
X39956982Y-37544910D01*
X39884512Y-37419389D01*
X39884510Y-37419387D01*
X39884509Y-37419385D01*
X39782015Y-37316891D01*
X39782012Y-37316889D01*
X39782010Y-37316887D01*
X39656488Y-37244417D01*
X39656489Y-37244417D01*
X39626896Y-37236487D01*
X39516475Y-37206900D01*
X39516474Y-37206900D01*
X39430190Y-37206900D01*
X39371999Y-37187993D01*
X39360187Y-37177904D01*
X39300114Y-37117832D01*
X39300112Y-37117830D01*
X39220188Y-37071686D01*
X39131044Y-37047800D01*
X37685856Y-37047800D01*
X37601511Y-37070400D01*
X37597993Y-37071342D01*
X37596707Y-37071687D01*
X37516790Y-37117828D01*
X36616428Y-38018190D01*
X36571843Y-38095412D01*
X36571844Y-38095413D01*
X36570288Y-38098107D01*
X36570286Y-38098111D01*
X36546400Y-38187257D01*
X36546400Y-38273410D01*
X36527493Y-38331601D01*
X36477993Y-38367565D01*
X36416807Y-38367565D01*
X36377396Y-38343414D01*
X33961507Y-35927525D01*
X35299500Y-35927525D01*
X35299500Y-36072475D01*
X35318984Y-36145189D01*
X35337017Y-36212489D01*
X35409487Y-36338010D01*
X35409489Y-36338012D01*
X35409491Y-36338015D01*
X35511985Y-36440509D01*
X35511987Y-36440510D01*
X35511989Y-36440512D01*
X35637511Y-36512982D01*
X35637512Y-36512982D01*
X35637515Y-36512984D01*
X35777525Y-36550500D01*
X35777526Y-36550500D01*
X35922474Y-36550500D01*
X35922475Y-36550500D01*
X36062485Y-36512984D01*
X36062487Y-36512982D01*
X36062489Y-36512982D01*
X36188010Y-36440512D01*
X36188010Y-36440511D01*
X36188015Y-36440509D01*
X36290509Y-36338015D01*
X36311886Y-36300989D01*
X36362982Y-36212489D01*
X36362982Y-36212487D01*
X36362984Y-36212485D01*
X36400500Y-36072475D01*
X36400500Y-35927525D01*
X36362984Y-35787515D01*
X36362982Y-35787512D01*
X36362982Y-35787510D01*
X36290512Y-35661989D01*
X36290510Y-35661987D01*
X36290509Y-35661985D01*
X36188015Y-35559491D01*
X36188012Y-35559489D01*
X36188010Y-35559487D01*
X36062488Y-35487017D01*
X36062489Y-35487017D01*
X35952704Y-35457600D01*
X35922475Y-35449500D01*
X35777525Y-35449500D01*
X35747296Y-35457600D01*
X35637510Y-35487017D01*
X35511989Y-35559487D01*
X35409487Y-35661989D01*
X35337017Y-35787510D01*
X35337016Y-35787515D01*
X35299500Y-35927525D01*
X33961507Y-35927525D01*
X29484696Y-31450714D01*
X29456919Y-31396197D01*
X29455700Y-31380710D01*
X29455700Y-30914889D01*
X29474607Y-30856698D01*
X29524107Y-30820734D01*
X29585293Y-30820734D01*
X29624704Y-30844885D01*
G37*
%TD.AperFunction*%
%TA.AperFunction,Conductor*%
G36*
X19489071Y-16041192D02*
G01*
X19513958Y-16097087D01*
X19514500Y-16107436D01*
X19514500Y-17197610D01*
X19495593Y-17255801D01*
X19485504Y-17267614D01*
X12100330Y-24652788D01*
X12078447Y-24690691D01*
X12074892Y-24696849D01*
X12054187Y-24732709D01*
X12054186Y-24732711D01*
X12054186Y-24732712D01*
X12030730Y-24820254D01*
X12030300Y-24821857D01*
X12030300Y-30414010D01*
X12011393Y-30472201D01*
X12001304Y-30484014D01*
X11597031Y-30888287D01*
X11542514Y-30916064D01*
X11482082Y-30906493D01*
X11438817Y-30863228D01*
X11431969Y-30845385D01*
X11431482Y-30844211D01*
X11359012Y-30718689D01*
X11359010Y-30718687D01*
X11359009Y-30718685D01*
X11256515Y-30616191D01*
X11256512Y-30616189D01*
X11256510Y-30616187D01*
X11130988Y-30543717D01*
X11130989Y-30543717D01*
X11101396Y-30535787D01*
X10990975Y-30506200D01*
X10846025Y-30506200D01*
X10784290Y-30522741D01*
X10706010Y-30543717D01*
X10580489Y-30616187D01*
X10477987Y-30718689D01*
X10405517Y-30844210D01*
X10368000Y-30984225D01*
X10368000Y-31070510D01*
X10349093Y-31128701D01*
X10339004Y-31140513D01*
X10272530Y-31206987D01*
X10269596Y-31212069D01*
X10226664Y-31286430D01*
X10226653Y-31286448D01*
X10226387Y-31286910D01*
X10226386Y-31286912D01*
X10202500Y-31376056D01*
X10202500Y-33609944D01*
X10208352Y-33631782D01*
X10223844Y-33689600D01*
X10223843Y-33689600D01*
X10223844Y-33689602D01*
X10226383Y-33699080D01*
X10226384Y-33699083D01*
X10226386Y-33699088D01*
X10272530Y-33779012D01*
X10649805Y-34156287D01*
X10677581Y-34210802D01*
X10678800Y-34226289D01*
X10678800Y-35838963D01*
X10659893Y-35897154D01*
X10610393Y-35933118D01*
X10549207Y-35933118D01*
X10499707Y-35897154D01*
X10497485Y-35893965D01*
X10441400Y-35810030D01*
X10441397Y-35810026D01*
X10329973Y-35698602D01*
X10329969Y-35698599D01*
X10198949Y-35611052D01*
X10198940Y-35611048D01*
X10053349Y-35550742D01*
X10020000Y-35544109D01*
X10020000Y-36095735D01*
X10004205Y-36079940D01*
X9935796Y-36040444D01*
X9859496Y-36020000D01*
X9780504Y-36020000D01*
X9704204Y-36040444D01*
X9635795Y-36079940D01*
X9620000Y-36095735D01*
X9620000Y-35544109D01*
X9586650Y-35550742D01*
X9441059Y-35611048D01*
X9441050Y-35611052D01*
X9310030Y-35698599D01*
X9310026Y-35698602D01*
X9198602Y-35810026D01*
X9198599Y-35810030D01*
X9111052Y-35941050D01*
X9111048Y-35941059D01*
X9050742Y-36086650D01*
X9020000Y-36241204D01*
X9020000Y-36669999D01*
X9020001Y-36670000D01*
X9520000Y-36670000D01*
X9520000Y-37070000D01*
X8994552Y-37070000D01*
X8991887Y-37071357D01*
X8983330Y-37070000D01*
X8978993Y-37070000D01*
X8978993Y-37069312D01*
X8931457Y-37061774D01*
X8894105Y-37028576D01*
X8875858Y-37001267D01*
X8788733Y-36914142D01*
X8720279Y-36868402D01*
X8686285Y-36845688D01*
X8572450Y-36798536D01*
X8451608Y-36774500D01*
X8451606Y-36774500D01*
X8328394Y-36774500D01*
X8328391Y-36774500D01*
X8207549Y-36798536D01*
X8093714Y-36845688D01*
X7991267Y-36914142D01*
X7991263Y-36914145D01*
X7904145Y-37001263D01*
X7904142Y-37001267D01*
X7835688Y-37103714D01*
X7788536Y-37217549D01*
X7764500Y-37338391D01*
X7764500Y-37461608D01*
X7788536Y-37582450D01*
X7835688Y-37696285D01*
X7837874Y-37699556D01*
X7904142Y-37798733D01*
X7991267Y-37885858D01*
X8093714Y-37954311D01*
X8207548Y-38001463D01*
X8328394Y-38025500D01*
X8328396Y-38025500D01*
X8451604Y-38025500D01*
X8451606Y-38025500D01*
X8572452Y-38001463D01*
X8686286Y-37954311D01*
X8788733Y-37885858D01*
X8875858Y-37798733D01*
X8918093Y-37735523D01*
X8966140Y-37697646D01*
X9027278Y-37695244D01*
X9078152Y-37729236D01*
X9091870Y-37752641D01*
X9111048Y-37798940D01*
X9111052Y-37798949D01*
X9198599Y-37929969D01*
X9198602Y-37929973D01*
X9310026Y-38041397D01*
X9310030Y-38041400D01*
X9441050Y-38128947D01*
X9441059Y-38128951D01*
X9586644Y-38189254D01*
X9586655Y-38189258D01*
X9620000Y-38195890D01*
X9620000Y-37644265D01*
X9635795Y-37660060D01*
X9704204Y-37699556D01*
X9780504Y-37720000D01*
X9859496Y-37720000D01*
X9935796Y-37699556D01*
X10004205Y-37660060D01*
X10020000Y-37644265D01*
X10020000Y-38195889D01*
X10053344Y-38189258D01*
X10053355Y-38189254D01*
X10198940Y-38128951D01*
X10198949Y-38128947D01*
X10329969Y-38041400D01*
X10329973Y-38041397D01*
X10441397Y-37929973D01*
X10441400Y-37929969D01*
X10528947Y-37798949D01*
X10528951Y-37798940D01*
X10589257Y-37653349D01*
X10619999Y-37498795D01*
X10620000Y-37498792D01*
X10620000Y-37117189D01*
X10638907Y-37058998D01*
X10688407Y-37023034D01*
X10749593Y-37023034D01*
X10789001Y-37047183D01*
X16669343Y-42927525D01*
X22529114Y-48787296D01*
X22556891Y-48841813D01*
X22547320Y-48902245D01*
X22504055Y-48945510D01*
X22459110Y-48956300D01*
X13199500Y-48956300D01*
X13141309Y-48937393D01*
X13105345Y-48887893D01*
X13100500Y-48857300D01*
X13100500Y-47125327D01*
X13100498Y-47125315D01*
X13087406Y-47059500D01*
X13085966Y-47052260D01*
X13030601Y-46969399D01*
X13030599Y-46969397D01*
X12947742Y-46914035D01*
X12947740Y-46914034D01*
X12947737Y-46914033D01*
X12947736Y-46914033D01*
X12874684Y-46899501D01*
X12874674Y-46899500D01*
X11125326Y-46899500D01*
X11125325Y-46899500D01*
X11125315Y-46899501D01*
X11052263Y-46914033D01*
X11052257Y-46914035D01*
X10969400Y-46969397D01*
X10969397Y-46969400D01*
X10914035Y-47052257D01*
X10914033Y-47052263D01*
X10899501Y-47125315D01*
X10899500Y-47125327D01*
X10899500Y-48857300D01*
X10880593Y-48915491D01*
X10831093Y-48951455D01*
X10800500Y-48956300D01*
X7144689Y-48956300D01*
X7086498Y-48937393D01*
X7074685Y-48927304D01*
X6520568Y-48373187D01*
X5866912Y-47719530D01*
X5786988Y-47673386D01*
X5735518Y-47659594D01*
X5697841Y-47649499D01*
X5691410Y-47648653D01*
X5691634Y-47646944D01*
X5641309Y-47630593D01*
X5605345Y-47581093D01*
X5600500Y-47550500D01*
X5600500Y-47125327D01*
X5600498Y-47125315D01*
X5587406Y-47059500D01*
X5585966Y-47052260D01*
X5530601Y-46969399D01*
X5530599Y-46969397D01*
X5447742Y-46914035D01*
X5447740Y-46914034D01*
X5447737Y-46914033D01*
X5447736Y-46914033D01*
X5374684Y-46899501D01*
X5374674Y-46899500D01*
X5374673Y-46899500D01*
X4949500Y-46899500D01*
X4891309Y-46880593D01*
X4855345Y-46831093D01*
X4851772Y-46808533D01*
X4851347Y-46808590D01*
X4850500Y-46802158D01*
X4850500Y-46802156D01*
X4826614Y-46713012D01*
X4789079Y-46648000D01*
X4780470Y-46633088D01*
X4577382Y-46430000D01*
X4328696Y-46181313D01*
X4300919Y-46126797D01*
X4299700Y-46111310D01*
X4299700Y-37960247D01*
X4318607Y-37902056D01*
X4368107Y-37866092D01*
X4424324Y-37864621D01*
X4501122Y-37885199D01*
X4501124Y-37885200D01*
X4501125Y-37885200D01*
X4646074Y-37885200D01*
X4646075Y-37885200D01*
X4786085Y-37847684D01*
X4786087Y-37847682D01*
X4786089Y-37847682D01*
X4911610Y-37775212D01*
X4911610Y-37775211D01*
X4911615Y-37775209D01*
X5014109Y-37672715D01*
X5014112Y-37672710D01*
X5086582Y-37547189D01*
X5086582Y-37547187D01*
X5086584Y-37547185D01*
X5124100Y-37407175D01*
X5124100Y-37320890D01*
X5143007Y-37262699D01*
X5153096Y-37250886D01*
X6547296Y-35856686D01*
X6601813Y-35828909D01*
X6662245Y-35838480D01*
X6705510Y-35881745D01*
X6716300Y-35926690D01*
X6716300Y-39676168D01*
X6697393Y-39734359D01*
X6687304Y-39746171D01*
X6626291Y-39807184D01*
X6626287Y-39807189D01*
X6553817Y-39932710D01*
X6553816Y-39932715D01*
X6516300Y-40072725D01*
X6516300Y-40217675D01*
X6522289Y-40240026D01*
X6553817Y-40357689D01*
X6626287Y-40483210D01*
X6626289Y-40483212D01*
X6626291Y-40483215D01*
X6728785Y-40585709D01*
X6728787Y-40585710D01*
X6728789Y-40585712D01*
X6854311Y-40658182D01*
X6854312Y-40658182D01*
X6854315Y-40658184D01*
X6994325Y-40695700D01*
X6994326Y-40695700D01*
X7139274Y-40695700D01*
X7139275Y-40695700D01*
X7230694Y-40671204D01*
X9020000Y-40671204D01*
X9020000Y-40849999D01*
X9020001Y-40850000D01*
X9520000Y-40850000D01*
X9520000Y-41250000D01*
X9020001Y-41250000D01*
X9020000Y-41250001D01*
X9020000Y-41428795D01*
X9050742Y-41583349D01*
X9111048Y-41728940D01*
X9111052Y-41728949D01*
X9198599Y-41859969D01*
X9198602Y-41859973D01*
X9310026Y-41971397D01*
X9310030Y-41971400D01*
X9441050Y-42058947D01*
X9441059Y-42058951D01*
X9586644Y-42119254D01*
X9586655Y-42119258D01*
X9620000Y-42125890D01*
X9620000Y-41574265D01*
X9635795Y-41590060D01*
X9704204Y-41629556D01*
X9780504Y-41650000D01*
X9859496Y-41650000D01*
X9935796Y-41629556D01*
X10004205Y-41590060D01*
X10020000Y-41574265D01*
X10020000Y-42125889D01*
X10053344Y-42119258D01*
X10053355Y-42119254D01*
X10198940Y-42058951D01*
X10198949Y-42058947D01*
X10329969Y-41971400D01*
X10329973Y-41971397D01*
X10441397Y-41859973D01*
X10441400Y-41859969D01*
X10528947Y-41728949D01*
X10528951Y-41728940D01*
X10589257Y-41583349D01*
X10619999Y-41428795D01*
X10620000Y-41428792D01*
X10620000Y-41250001D01*
X10619999Y-41250000D01*
X10120000Y-41250000D01*
X10120000Y-40850000D01*
X10619999Y-40850000D01*
X10620000Y-40849999D01*
X10620000Y-40671207D01*
X10619999Y-40671204D01*
X10589257Y-40516650D01*
X10528951Y-40371059D01*
X10528947Y-40371050D01*
X10441400Y-40240030D01*
X10441397Y-40240026D01*
X10329973Y-40128602D01*
X10329969Y-40128599D01*
X10198949Y-40041052D01*
X10198940Y-40041048D01*
X10053349Y-39980742D01*
X10020000Y-39974109D01*
X10020000Y-40525735D01*
X10004205Y-40509940D01*
X9935796Y-40470444D01*
X9859496Y-40450000D01*
X9780504Y-40450000D01*
X9704204Y-40470444D01*
X9635795Y-40509940D01*
X9620000Y-40525735D01*
X9620000Y-39974109D01*
X9586650Y-39980742D01*
X9441059Y-40041048D01*
X9441050Y-40041052D01*
X9310030Y-40128599D01*
X9310026Y-40128602D01*
X9198602Y-40240026D01*
X9198599Y-40240030D01*
X9111052Y-40371050D01*
X9111048Y-40371059D01*
X9050742Y-40516650D01*
X9020000Y-40671204D01*
X7230694Y-40671204D01*
X7279285Y-40658184D01*
X7279287Y-40658182D01*
X7279289Y-40658182D01*
X7404810Y-40585712D01*
X7404810Y-40585711D01*
X7404815Y-40585709D01*
X7507309Y-40483215D01*
X7520935Y-40459615D01*
X7579782Y-40357689D01*
X7579782Y-40357687D01*
X7579784Y-40357685D01*
X7617300Y-40217675D01*
X7617300Y-40072725D01*
X7579784Y-39932715D01*
X7579782Y-39932712D01*
X7579782Y-39932710D01*
X7507312Y-39807189D01*
X7507308Y-39807184D01*
X7446296Y-39746171D01*
X7418519Y-39691654D01*
X7417300Y-39676168D01*
X7417300Y-32321032D01*
X7436207Y-32262841D01*
X7466796Y-32235298D01*
X7542815Y-32191409D01*
X7645309Y-32088915D01*
X7655520Y-32071229D01*
X7717782Y-31963389D01*
X7717782Y-31963387D01*
X7717784Y-31963385D01*
X7755300Y-31823375D01*
X7755300Y-31678425D01*
X7717784Y-31538415D01*
X7717782Y-31538412D01*
X7717782Y-31538410D01*
X7645312Y-31412889D01*
X7645310Y-31412887D01*
X7645309Y-31412885D01*
X7542815Y-31310391D01*
X7542812Y-31310389D01*
X7542810Y-31310387D01*
X7417288Y-31237917D01*
X7417289Y-31237917D01*
X7332777Y-31215272D01*
X7277275Y-31200400D01*
X7132325Y-31200400D01*
X7076823Y-31215272D01*
X7015722Y-31212069D01*
X6968172Y-31173564D01*
X6952200Y-31119645D01*
X6952200Y-28503589D01*
X6971107Y-28445398D01*
X6981190Y-28433591D01*
X19292770Y-16122012D01*
X19329765Y-16057933D01*
X19375233Y-16016995D01*
X19436083Y-16010599D01*
X19489071Y-16041192D01*
G37*
%TD.AperFunction*%
%TA.AperFunction,Conductor*%
G36*
X39519292Y-33129835D02*
G01*
X39535378Y-33142860D01*
X50904688Y-44512170D01*
X50984612Y-44558314D01*
X51073756Y-44582200D01*
X55751436Y-44582200D01*
X55809627Y-44601107D01*
X55845591Y-44650607D01*
X55845591Y-44711793D01*
X55809627Y-44761292D01*
X55783077Y-44780581D01*
X55660585Y-44903073D01*
X55558766Y-45043214D01*
X55480125Y-45197558D01*
X55480123Y-45197561D01*
X55426598Y-45362293D01*
X55426597Y-45362297D01*
X55399500Y-45533385D01*
X55399500Y-45706614D01*
X55426597Y-45877702D01*
X55426598Y-45877706D01*
X55480123Y-46042438D01*
X55480125Y-46042441D01*
X55536109Y-46152318D01*
X55558768Y-46196788D01*
X55660586Y-46336928D01*
X55783072Y-46459414D01*
X55923212Y-46561232D01*
X56077555Y-46639873D01*
X56077557Y-46639873D01*
X56077558Y-46639874D01*
X56077561Y-46639876D01*
X56242293Y-46693401D01*
X56242297Y-46693402D01*
X56413386Y-46720500D01*
X56413389Y-46720500D01*
X56586614Y-46720500D01*
X56757702Y-46693402D01*
X56814073Y-46675085D01*
X56922445Y-46639873D01*
X56925747Y-46638190D01*
X56986174Y-46628609D01*
X57040695Y-46656378D01*
X57040707Y-46656389D01*
X57281004Y-46896686D01*
X57308781Y-46951203D01*
X57310000Y-46966690D01*
X57310000Y-47193908D01*
X57291093Y-47252099D01*
X57241593Y-47288063D01*
X57180407Y-47288063D01*
X57152809Y-47274001D01*
X57076786Y-47218766D01*
X56922441Y-47140125D01*
X56922438Y-47140123D01*
X56757706Y-47086598D01*
X56757702Y-47086597D01*
X56586614Y-47059500D01*
X56586611Y-47059500D01*
X56413389Y-47059500D01*
X56413386Y-47059500D01*
X56242297Y-47086597D01*
X56242293Y-47086598D01*
X56077561Y-47140123D01*
X56077558Y-47140125D01*
X55923214Y-47218766D01*
X55783073Y-47320585D01*
X55660585Y-47443073D01*
X55558766Y-47583214D01*
X55480127Y-47737553D01*
X55478977Y-47741095D01*
X55443011Y-47790594D01*
X55384823Y-47809500D01*
X53200289Y-47809500D01*
X53142098Y-47790593D01*
X53130285Y-47780504D01*
X39026030Y-33676248D01*
X38998253Y-33621731D01*
X39007824Y-33561299D01*
X39051089Y-33518034D01*
X39058153Y-33514778D01*
X39062478Y-33512985D01*
X39062485Y-33512984D01*
X39188015Y-33440509D01*
X39290509Y-33338015D01*
X39362984Y-33212485D01*
X39369748Y-33187241D01*
X39403070Y-33135928D01*
X39460191Y-33114000D01*
X39519292Y-33129835D01*
G37*
%TD.AperFunction*%
%TA.AperFunction,Conductor*%
G36*
X47089991Y-25721907D02*
G01*
X47125955Y-25771407D01*
X47125955Y-25832593D01*
X47117537Y-25851500D01*
X47101016Y-25880113D01*
X47063500Y-26020125D01*
X47063500Y-26165074D01*
X47101017Y-26305089D01*
X47173487Y-26430610D01*
X47173489Y-26430612D01*
X47173491Y-26430615D01*
X47234505Y-26491629D01*
X47262281Y-26546144D01*
X47263500Y-26561631D01*
X47263500Y-26720110D01*
X47244593Y-26778301D01*
X47234504Y-26790114D01*
X46000414Y-28024204D01*
X45945897Y-28051981D01*
X45930410Y-28053200D01*
X45844125Y-28053200D01*
X45782390Y-28069741D01*
X45704110Y-28090717D01*
X45578589Y-28163187D01*
X45476087Y-28265689D01*
X45403617Y-28391210D01*
X45382023Y-28471800D01*
X45366100Y-28531225D01*
X45366100Y-28676175D01*
X45383339Y-28740512D01*
X45403617Y-28816189D01*
X45476087Y-28941710D01*
X45476089Y-28941712D01*
X45476091Y-28941715D01*
X45578585Y-29044209D01*
X45578587Y-29044210D01*
X45578589Y-29044212D01*
X45704111Y-29116682D01*
X45704112Y-29116682D01*
X45704115Y-29116684D01*
X45844125Y-29154200D01*
X45844126Y-29154200D01*
X45989074Y-29154200D01*
X45989075Y-29154200D01*
X46129085Y-29116684D01*
X46129087Y-29116682D01*
X46129089Y-29116682D01*
X46254610Y-29044212D01*
X46254610Y-29044211D01*
X46254615Y-29044209D01*
X46357109Y-28941715D01*
X46429584Y-28816185D01*
X46467100Y-28676175D01*
X46467100Y-28589889D01*
X46486007Y-28531698D01*
X46496090Y-28519891D01*
X47894470Y-27121512D01*
X47940614Y-27041588D01*
X47952852Y-26995914D01*
X47964500Y-26952444D01*
X47964500Y-26561631D01*
X47983407Y-26503440D01*
X47993490Y-26491633D01*
X48054509Y-26430615D01*
X48054512Y-26430610D01*
X48126982Y-26305089D01*
X48126982Y-26305087D01*
X48126984Y-26305085D01*
X48164500Y-26165075D01*
X48164500Y-26020125D01*
X48126984Y-25880115D01*
X48110462Y-25851499D01*
X48097742Y-25791652D01*
X48122629Y-25735756D01*
X48175617Y-25705163D01*
X48196200Y-25703000D01*
X50584210Y-25703000D01*
X50642401Y-25721907D01*
X50654214Y-25731996D01*
X55462900Y-30540682D01*
X55490677Y-30595199D01*
X55481391Y-30653869D01*
X55481615Y-30653962D01*
X55481228Y-30654893D01*
X55481115Y-30655614D01*
X55480127Y-30657552D01*
X55480123Y-30657561D01*
X55426598Y-30822293D01*
X55426597Y-30822297D01*
X55399500Y-30993385D01*
X55399500Y-31166614D01*
X55426597Y-31337702D01*
X55426598Y-31337706D01*
X55480123Y-31502438D01*
X55480125Y-31502441D01*
X55553956Y-31647345D01*
X55558768Y-31656788D01*
X55660586Y-31796928D01*
X55783072Y-31919414D01*
X55923212Y-32021232D01*
X56077555Y-32099873D01*
X56077557Y-32099873D01*
X56077558Y-32099874D01*
X56077561Y-32099876D01*
X56242293Y-32153401D01*
X56242297Y-32153402D01*
X56413386Y-32180500D01*
X56413389Y-32180500D01*
X56586614Y-32180500D01*
X56757702Y-32153402D01*
X56757706Y-32153401D01*
X56922438Y-32099876D01*
X56922440Y-32099874D01*
X56922445Y-32099873D01*
X57076788Y-32021232D01*
X57216928Y-31919414D01*
X57339414Y-31796928D01*
X57441232Y-31656788D01*
X57519873Y-31502445D01*
X57519874Y-31502440D01*
X57519876Y-31502438D01*
X57573401Y-31337706D01*
X57573402Y-31337700D01*
X57586571Y-31254556D01*
X57614348Y-31200039D01*
X57668864Y-31172261D01*
X57729297Y-31181832D01*
X57754356Y-31200038D01*
X58269004Y-31714686D01*
X58296781Y-31769203D01*
X58298000Y-31784690D01*
X58298000Y-44422874D01*
X58279093Y-44481065D01*
X58229593Y-44517029D01*
X58168407Y-44517029D01*
X58162086Y-44514697D01*
X58161786Y-44514616D01*
X58161785Y-44514616D01*
X58021775Y-44477100D01*
X58021774Y-44477100D01*
X57935490Y-44477100D01*
X57877299Y-44458193D01*
X57865486Y-44448104D01*
X57840256Y-44422874D01*
X57368612Y-43951230D01*
X57368609Y-43951228D01*
X57368607Y-43951226D01*
X57363875Y-43948494D01*
X57322937Y-43903022D01*
X57316545Y-43842172D01*
X57337260Y-43800172D01*
X57337127Y-43800075D01*
X57337693Y-43799295D01*
X57338107Y-43798457D01*
X57339402Y-43796939D01*
X57339414Y-43796928D01*
X57441232Y-43656788D01*
X57519873Y-43502445D01*
X57519874Y-43502440D01*
X57519876Y-43502438D01*
X57573401Y-43337706D01*
X57573402Y-43337702D01*
X57600500Y-43166614D01*
X57600500Y-42993385D01*
X57573402Y-42822297D01*
X57573401Y-42822293D01*
X57519876Y-42657561D01*
X57519874Y-42657558D01*
X57519873Y-42657557D01*
X57519873Y-42657555D01*
X57441232Y-42503212D01*
X57339414Y-42363072D01*
X57216928Y-42240586D01*
X57076788Y-42138768D01*
X57076787Y-42138767D01*
X57076785Y-42138766D01*
X56922441Y-42060125D01*
X56922438Y-42060123D01*
X56757706Y-42006598D01*
X56757702Y-42006597D01*
X56586614Y-41979500D01*
X56586611Y-41979500D01*
X56413389Y-41979500D01*
X56413386Y-41979500D01*
X56242297Y-42006597D01*
X56242293Y-42006598D01*
X56077561Y-42060123D01*
X56077552Y-42060127D01*
X56074239Y-42061816D01*
X56013807Y-42071387D01*
X55959291Y-42043610D01*
X54365170Y-40449489D01*
X55350000Y-40449489D01*
X55350000Y-40630510D01*
X55378316Y-40809289D01*
X55434250Y-40981440D01*
X55516430Y-41142728D01*
X55557667Y-41199488D01*
X56031980Y-40725174D01*
X56034075Y-40732993D01*
X56099901Y-40847007D01*
X56192993Y-40940099D01*
X56307007Y-41005925D01*
X56314821Y-41008019D01*
X55840511Y-41482330D01*
X55897275Y-41523571D01*
X56058559Y-41605749D01*
X56230710Y-41661683D01*
X56409490Y-41690000D01*
X56590510Y-41690000D01*
X56769289Y-41661683D01*
X56941440Y-41605749D01*
X57102728Y-41523569D01*
X57159487Y-41482330D01*
X56685176Y-41008019D01*
X56692993Y-41005925D01*
X56807007Y-40940099D01*
X56900099Y-40847007D01*
X56965925Y-40732993D01*
X56968019Y-40725176D01*
X57442330Y-41199487D01*
X57483569Y-41142728D01*
X57565749Y-40981440D01*
X57621683Y-40809289D01*
X57650000Y-40630510D01*
X57650000Y-40449489D01*
X57621683Y-40270710D01*
X57565749Y-40098559D01*
X57483571Y-39937275D01*
X57442330Y-39880511D01*
X56968019Y-40354821D01*
X56965925Y-40347007D01*
X56900099Y-40232993D01*
X56807007Y-40139901D01*
X56692993Y-40074075D01*
X56685174Y-40071980D01*
X57159488Y-39597667D01*
X57102728Y-39556430D01*
X56941440Y-39474250D01*
X56769289Y-39418316D01*
X56590510Y-39390000D01*
X56409490Y-39390000D01*
X56230710Y-39418316D01*
X56058559Y-39474250D01*
X55897267Y-39556432D01*
X55840510Y-39597667D01*
X56314823Y-40071980D01*
X56307007Y-40074075D01*
X56192993Y-40139901D01*
X56099901Y-40232993D01*
X56034075Y-40347007D01*
X56031980Y-40354823D01*
X55557667Y-39880510D01*
X55516432Y-39937267D01*
X55434250Y-40098559D01*
X55378316Y-40270710D01*
X55350000Y-40449489D01*
X54365170Y-40449489D01*
X51041008Y-37125327D01*
X55399500Y-37125327D01*
X55399500Y-38874672D01*
X55399501Y-38874684D01*
X55414033Y-38947736D01*
X55414035Y-38947742D01*
X55469397Y-39030599D01*
X55469399Y-39030601D01*
X55552260Y-39085966D01*
X55607808Y-39097015D01*
X55625315Y-39100498D01*
X55625320Y-39100498D01*
X55625326Y-39100500D01*
X55625327Y-39100500D01*
X57374673Y-39100500D01*
X57374674Y-39100500D01*
X57447740Y-39085966D01*
X57530601Y-39030601D01*
X57585966Y-38947740D01*
X57600500Y-38874674D01*
X57600500Y-37125326D01*
X57598881Y-37117189D01*
X57589830Y-37071686D01*
X57585966Y-37052260D01*
X57554666Y-37005415D01*
X57530602Y-36969400D01*
X57530599Y-36969397D01*
X57447742Y-36914035D01*
X57447740Y-36914034D01*
X57447737Y-36914033D01*
X57447736Y-36914033D01*
X57374684Y-36899501D01*
X57374674Y-36899500D01*
X55625326Y-36899500D01*
X55625325Y-36899500D01*
X55625315Y-36899501D01*
X55552263Y-36914033D01*
X55552257Y-36914035D01*
X55469400Y-36969397D01*
X55469397Y-36969400D01*
X55414035Y-37052257D01*
X55414033Y-37052263D01*
X55399501Y-37125315D01*
X55399500Y-37125327D01*
X51041008Y-37125327D01*
X48484766Y-34569085D01*
X47449066Y-33533385D01*
X55399500Y-33533385D01*
X55399500Y-33706614D01*
X55426597Y-33877702D01*
X55426598Y-33877706D01*
X55480123Y-34042438D01*
X55480125Y-34042441D01*
X55550422Y-34180409D01*
X55558768Y-34196788D01*
X55660586Y-34336928D01*
X55783072Y-34459414D01*
X55923212Y-34561232D01*
X56077555Y-34639873D01*
X56077557Y-34639873D01*
X56077558Y-34639874D01*
X56077561Y-34639876D01*
X56242293Y-34693401D01*
X56242297Y-34693402D01*
X56413386Y-34720500D01*
X56413389Y-34720500D01*
X56586614Y-34720500D01*
X56757702Y-34693402D01*
X56757706Y-34693401D01*
X56922438Y-34639876D01*
X56922440Y-34639874D01*
X56922445Y-34639873D01*
X57076788Y-34561232D01*
X57216928Y-34459414D01*
X57339414Y-34336928D01*
X57441232Y-34196788D01*
X57519873Y-34042445D01*
X57519874Y-34042440D01*
X57519876Y-34042438D01*
X57573401Y-33877706D01*
X57573402Y-33877702D01*
X57600500Y-33706614D01*
X57600500Y-33533385D01*
X57573402Y-33362297D01*
X57573401Y-33362293D01*
X57519876Y-33197561D01*
X57519874Y-33197558D01*
X57519873Y-33197557D01*
X57519873Y-33197555D01*
X57441232Y-33043212D01*
X57339414Y-32903072D01*
X57216928Y-32780586D01*
X57076788Y-32678768D01*
X57076787Y-32678767D01*
X57076785Y-32678766D01*
X56922441Y-32600125D01*
X56922438Y-32600123D01*
X56757706Y-32546598D01*
X56757702Y-32546597D01*
X56586614Y-32519500D01*
X56586611Y-32519500D01*
X56413389Y-32519500D01*
X56413386Y-32519500D01*
X56242297Y-32546597D01*
X56242293Y-32546598D01*
X56077561Y-32600123D01*
X56077558Y-32600125D01*
X55923214Y-32678766D01*
X55783073Y-32780585D01*
X55660585Y-32903073D01*
X55558766Y-33043214D01*
X55480125Y-33197558D01*
X55480123Y-33197561D01*
X55426598Y-33362293D01*
X55426597Y-33362297D01*
X55399500Y-33533385D01*
X47449066Y-33533385D01*
X40954812Y-27039130D01*
X40874888Y-26992986D01*
X40785744Y-26969100D01*
X40785742Y-26969100D01*
X31513835Y-26969100D01*
X31464335Y-26955836D01*
X31432670Y-26937554D01*
X31391729Y-26892084D01*
X31385333Y-26831234D01*
X31412164Y-26781816D01*
X32461985Y-25731996D01*
X32516502Y-25704219D01*
X32531989Y-25703000D01*
X47031800Y-25703000D01*
X47089991Y-25721907D01*
G37*
%TD.AperFunction*%
%TA.AperFunction,Conductor*%
G36*
X40611601Y-27689007D02*
G01*
X40623414Y-27699096D01*
X45349413Y-32425095D01*
X45377190Y-32479612D01*
X45367619Y-32540044D01*
X45324354Y-32583309D01*
X45305037Y-32590724D01*
X45248715Y-32605816D01*
X45248713Y-32605816D01*
X45248709Y-32605818D01*
X45123189Y-32678287D01*
X45020687Y-32780789D01*
X44948217Y-32906310D01*
X44910700Y-33046325D01*
X44910700Y-33132610D01*
X44891793Y-33190801D01*
X44881704Y-33202614D01*
X44007230Y-34077088D01*
X43961086Y-34157012D01*
X43938284Y-34242113D01*
X43937200Y-34246157D01*
X43937200Y-34709368D01*
X43918293Y-34767559D01*
X43908204Y-34779371D01*
X43847091Y-34840484D01*
X43847087Y-34840489D01*
X43774617Y-34966010D01*
X43751285Y-35053085D01*
X43737100Y-35106025D01*
X43737100Y-35250975D01*
X43762993Y-35347609D01*
X43774617Y-35390989D01*
X43847087Y-35516510D01*
X43847089Y-35516512D01*
X43847091Y-35516515D01*
X43949585Y-35619009D01*
X43949587Y-35619010D01*
X43949589Y-35619012D01*
X44075111Y-35691482D01*
X44075112Y-35691482D01*
X44075115Y-35691484D01*
X44215125Y-35729000D01*
X44215126Y-35729000D01*
X44360074Y-35729000D01*
X44360075Y-35729000D01*
X44500085Y-35691484D01*
X44500087Y-35691482D01*
X44500089Y-35691482D01*
X44625610Y-35619012D01*
X44625610Y-35619011D01*
X44625615Y-35619009D01*
X44728109Y-35516515D01*
X44800584Y-35390985D01*
X44838100Y-35250975D01*
X44838100Y-35106025D01*
X44800584Y-34966015D01*
X44800582Y-34966012D01*
X44800582Y-34966010D01*
X44728112Y-34840489D01*
X44728108Y-34840484D01*
X44667196Y-34779571D01*
X44639419Y-34725054D01*
X44638200Y-34709568D01*
X44638200Y-34478490D01*
X44657107Y-34420299D01*
X44667196Y-34408486D01*
X45377386Y-33698296D01*
X45431903Y-33670519D01*
X45447390Y-33669300D01*
X45533674Y-33669300D01*
X45533675Y-33669300D01*
X45673685Y-33631784D01*
X45673687Y-33631782D01*
X45673689Y-33631782D01*
X45799210Y-33559312D01*
X45799210Y-33559311D01*
X45799215Y-33559309D01*
X45901709Y-33456815D01*
X45956279Y-33362297D01*
X45974182Y-33331289D01*
X45974182Y-33331287D01*
X45974184Y-33331285D01*
X45989274Y-33274965D01*
X46022598Y-33223652D01*
X46079720Y-33201726D01*
X46138820Y-33217562D01*
X46154905Y-33230586D01*
X55463610Y-42539291D01*
X55491387Y-42593808D01*
X55481816Y-42654239D01*
X55480127Y-42657552D01*
X55480123Y-42657561D01*
X55426598Y-42822293D01*
X55426597Y-42822297D01*
X55399500Y-42993385D01*
X55399500Y-43166614D01*
X55426597Y-43337702D01*
X55426598Y-43337706D01*
X55480123Y-43502438D01*
X55480125Y-43502441D01*
X55558767Y-43656787D01*
X55558771Y-43656793D01*
X55607607Y-43724009D01*
X55626515Y-43782199D01*
X55607608Y-43840390D01*
X55558108Y-43876354D01*
X55527515Y-43881200D01*
X51306090Y-43881200D01*
X51247899Y-43862293D01*
X51236086Y-43852204D01*
X35481595Y-28097713D01*
X35453818Y-28043196D01*
X35455974Y-28002081D01*
X35456593Y-27999774D01*
X35458200Y-27993775D01*
X35458200Y-27848825D01*
X35443703Y-27794722D01*
X35446905Y-27733622D01*
X35485411Y-27686072D01*
X35539330Y-27670100D01*
X40553410Y-27670100D01*
X40611601Y-27689007D01*
G37*
%TD.AperFunction*%
%TA.AperFunction,Conductor*%
G36*
X22724559Y-23764307D02*
G01*
X22736371Y-23774396D01*
X22797384Y-23835408D01*
X22797389Y-23835412D01*
X22867914Y-23876130D01*
X22908855Y-23921599D01*
X22915251Y-23982450D01*
X22884658Y-24035438D01*
X22867916Y-24047602D01*
X22863086Y-24050390D01*
X22760587Y-24152889D01*
X22688117Y-24278410D01*
X22670940Y-24342515D01*
X22650600Y-24418425D01*
X22650600Y-24563375D01*
X22671480Y-24641300D01*
X22688117Y-24703389D01*
X22760587Y-24828909D01*
X22760588Y-24828911D01*
X22760589Y-24828912D01*
X22760591Y-24828915D01*
X22821605Y-24889929D01*
X22849381Y-24944444D01*
X22850600Y-24959931D01*
X22850600Y-30873610D01*
X22831693Y-30931801D01*
X22821604Y-30943614D01*
X19087314Y-34677904D01*
X19032797Y-34705681D01*
X19017310Y-34706900D01*
X18931025Y-34706900D01*
X18880270Y-34720500D01*
X18791010Y-34744417D01*
X18665489Y-34816887D01*
X18562990Y-34919386D01*
X18527361Y-34981096D01*
X18481890Y-35022036D01*
X18421040Y-35028430D01*
X18371623Y-35001599D01*
X18320615Y-34950591D01*
X18320612Y-34950589D01*
X18320610Y-34950587D01*
X18195088Y-34878117D01*
X18195089Y-34878117D01*
X18098672Y-34852282D01*
X18055075Y-34840600D01*
X17910125Y-34840600D01*
X17879769Y-34848734D01*
X17784143Y-34874357D01*
X17723042Y-34871154D01*
X17688516Y-34848734D01*
X17298896Y-34459114D01*
X17271119Y-34404597D01*
X17269900Y-34389110D01*
X17269900Y-34302825D01*
X17261847Y-34272771D01*
X17232384Y-34162815D01*
X17232382Y-34162812D01*
X17232382Y-34162810D01*
X17159912Y-34037289D01*
X17159910Y-34037287D01*
X17159909Y-34037285D01*
X17057415Y-33934791D01*
X17057412Y-33934789D01*
X17057410Y-33934787D01*
X16931888Y-33862317D01*
X16931889Y-33862317D01*
X16848728Y-33840034D01*
X16791875Y-33824800D01*
X16646925Y-33824800D01*
X16590072Y-33840034D01*
X16506910Y-33862317D01*
X16381389Y-33934787D01*
X16278889Y-34037287D01*
X16219894Y-34139469D01*
X16174424Y-34180409D01*
X16113574Y-34186804D01*
X16064154Y-34159972D01*
X14428636Y-32524454D01*
X14400859Y-32469937D01*
X14410430Y-32409505D01*
X14428636Y-32384446D01*
X14708086Y-32104996D01*
X14762603Y-32077219D01*
X14778090Y-32076000D01*
X14864374Y-32076000D01*
X14864375Y-32076000D01*
X15004385Y-32038484D01*
X15004387Y-32038482D01*
X15004389Y-32038482D01*
X15129910Y-31966012D01*
X15129910Y-31966011D01*
X15129915Y-31966009D01*
X15232409Y-31863515D01*
X15255584Y-31823375D01*
X15304882Y-31737989D01*
X15304882Y-31737987D01*
X15304884Y-31737985D01*
X15342400Y-31597975D01*
X15342400Y-31453025D01*
X15304884Y-31313015D01*
X15304882Y-31313012D01*
X15304882Y-31313010D01*
X15232412Y-31187489D01*
X15232410Y-31187487D01*
X15232409Y-31187485D01*
X15129915Y-31084991D01*
X15129912Y-31084989D01*
X15129910Y-31084987D01*
X15004390Y-31012518D01*
X15004387Y-31012517D01*
X15004385Y-31012516D01*
X14933947Y-30993642D01*
X14882635Y-30960318D01*
X14860709Y-30903197D01*
X14876545Y-30844096D01*
X14889564Y-30828017D01*
X21943186Y-23774396D01*
X21997703Y-23746619D01*
X22013190Y-23745400D01*
X22666368Y-23745400D01*
X22724559Y-23764307D01*
G37*
%TD.AperFunction*%
%TA.AperFunction,Conductor*%
G36*
X11441045Y-31409421D02*
G01*
X11484310Y-31452686D01*
X11495100Y-31497631D01*
X11495100Y-33776416D01*
X11476193Y-33834607D01*
X11426693Y-33870571D01*
X11365507Y-33870571D01*
X11316007Y-33834607D01*
X11310365Y-33825919D01*
X11309769Y-33824887D01*
X10932496Y-33447613D01*
X10904719Y-33393097D01*
X10903500Y-33377610D01*
X10903500Y-31705536D01*
X10922407Y-31647345D01*
X10971907Y-31611381D01*
X10989590Y-31607381D01*
X10990958Y-31607200D01*
X10990975Y-31607200D01*
X11130985Y-31569684D01*
X11130987Y-31569682D01*
X11130989Y-31569682D01*
X11256510Y-31497212D01*
X11256510Y-31497211D01*
X11256515Y-31497209D01*
X11326098Y-31427625D01*
X11380613Y-31399850D01*
X11441045Y-31409421D01*
G37*
%TD.AperFunction*%
%TA.AperFunction,Conductor*%
G36*
X32069001Y-20601007D02*
G01*
X32104965Y-20650507D01*
X32104965Y-20711693D01*
X32080814Y-20751104D01*
X26908530Y-25923388D01*
X26862386Y-26003312D01*
X26838500Y-26092457D01*
X26838500Y-33050810D01*
X26819593Y-33109001D01*
X26770093Y-33144965D01*
X26708907Y-33144965D01*
X26669496Y-33120814D01*
X24768585Y-31219903D01*
X24740808Y-31165386D01*
X24750379Y-31104954D01*
X24793644Y-31061689D01*
X24812958Y-31054274D01*
X24867785Y-31039584D01*
X24867787Y-31039582D01*
X24867789Y-31039582D01*
X24993310Y-30967112D01*
X24993310Y-30967111D01*
X24993315Y-30967109D01*
X25095809Y-30864615D01*
X25100380Y-30856698D01*
X25168282Y-30739089D01*
X25168282Y-30739087D01*
X25168284Y-30739085D01*
X25205800Y-30599075D01*
X25205800Y-30454125D01*
X25168284Y-30314115D01*
X25168282Y-30314112D01*
X25168282Y-30314110D01*
X25095812Y-30188589D01*
X25095810Y-30188587D01*
X25095809Y-30188585D01*
X24993315Y-30086091D01*
X24993312Y-30086089D01*
X24993310Y-30086087D01*
X24867788Y-30013617D01*
X24867786Y-30013616D01*
X24864673Y-30012782D01*
X24862738Y-30011525D01*
X24861791Y-30011133D01*
X24861863Y-30010957D01*
X24813360Y-29979455D01*
X24791435Y-29922333D01*
X24791300Y-29917156D01*
X24791300Y-28931629D01*
X24810207Y-28873438D01*
X24859707Y-28837474D01*
X24915922Y-28836003D01*
X24970025Y-28850500D01*
X25114974Y-28850500D01*
X25114975Y-28850500D01*
X25254985Y-28812984D01*
X25254987Y-28812982D01*
X25254989Y-28812982D01*
X25380510Y-28740512D01*
X25380510Y-28740511D01*
X25380515Y-28740509D01*
X25483009Y-28638015D01*
X25498366Y-28611416D01*
X25555482Y-28512489D01*
X25555482Y-28512487D01*
X25555484Y-28512485D01*
X25593000Y-28372475D01*
X25593000Y-28227525D01*
X25555484Y-28087515D01*
X25555482Y-28087512D01*
X25555482Y-28087510D01*
X25483012Y-27961989D01*
X25483010Y-27961987D01*
X25483009Y-27961985D01*
X25380515Y-27859491D01*
X25380512Y-27859489D01*
X25380510Y-27859487D01*
X25254988Y-27787017D01*
X25254989Y-27787017D01*
X25200714Y-27772474D01*
X25114975Y-27749500D01*
X24970025Y-27749500D01*
X24915922Y-27763996D01*
X24854822Y-27760795D01*
X24807272Y-27722289D01*
X24791300Y-27668370D01*
X24791300Y-26855490D01*
X24810207Y-26797299D01*
X24820296Y-26785486D01*
X30994686Y-20611096D01*
X31049203Y-20583319D01*
X31064690Y-20582100D01*
X32010810Y-20582100D01*
X32069001Y-20601007D01*
G37*
%TD.AperFunction*%
%TA.AperFunction,Conductor*%
G36*
X34334261Y-27689007D02*
G01*
X34370225Y-27738507D01*
X34371696Y-27794722D01*
X34357200Y-27848825D01*
X34357200Y-27993775D01*
X34373123Y-28053200D01*
X34394717Y-28133789D01*
X34467187Y-28259310D01*
X34467189Y-28259312D01*
X34467191Y-28259315D01*
X34569685Y-28361809D01*
X34569687Y-28361810D01*
X34569689Y-28361812D01*
X34695211Y-28434282D01*
X34695212Y-28434282D01*
X34695215Y-28434284D01*
X34835225Y-28471800D01*
X34835236Y-28471800D01*
X34835405Y-28471823D01*
X34835524Y-28471879D01*
X34841492Y-28473479D01*
X34841195Y-28474584D01*
X34890631Y-28498162D01*
X34892491Y-28499973D01*
X35707139Y-29314621D01*
X35734916Y-29369138D01*
X35725345Y-29429570D01*
X35682080Y-29472835D01*
X35662760Y-29480251D01*
X35637514Y-29487016D01*
X35637511Y-29487017D01*
X35511989Y-29559487D01*
X35409487Y-29661989D01*
X35337017Y-29787510D01*
X35337016Y-29787515D01*
X35299500Y-29927525D01*
X35299500Y-30072475D01*
X35308542Y-30106218D01*
X35337017Y-30212489D01*
X35409487Y-30338010D01*
X35409489Y-30338012D01*
X35409491Y-30338015D01*
X35511985Y-30440509D01*
X35511987Y-30440510D01*
X35511989Y-30440512D01*
X35637511Y-30512982D01*
X35637512Y-30512982D01*
X35637515Y-30512984D01*
X35777525Y-30550500D01*
X35777526Y-30550500D01*
X35922474Y-30550500D01*
X35922475Y-30550500D01*
X36062485Y-30512984D01*
X36062487Y-30512982D01*
X36062489Y-30512982D01*
X36188010Y-30440512D01*
X36188010Y-30440511D01*
X36188015Y-30440509D01*
X36290509Y-30338015D01*
X36362984Y-30212485D01*
X36369748Y-30187241D01*
X36403070Y-30135928D01*
X36460191Y-30114000D01*
X36519292Y-30129835D01*
X36535378Y-30142860D01*
X38707139Y-32314621D01*
X38734916Y-32369138D01*
X38725345Y-32429570D01*
X38682080Y-32472835D01*
X38662760Y-32480251D01*
X38637514Y-32487016D01*
X38637511Y-32487017D01*
X38511989Y-32559487D01*
X38409487Y-32661989D01*
X38337016Y-32787513D01*
X38335217Y-32791856D01*
X38295477Y-32838380D01*
X38235981Y-32852659D01*
X38179455Y-32829241D01*
X38173751Y-32823969D01*
X37449655Y-32099873D01*
X36720412Y-31370630D01*
X36640488Y-31324486D01*
X36551344Y-31300600D01*
X36551342Y-31300600D01*
X32700032Y-31300600D01*
X32641841Y-31281693D01*
X32630029Y-31271604D01*
X32569015Y-31210591D01*
X32569010Y-31210587D01*
X32443488Y-31138117D01*
X32443489Y-31138117D01*
X32374551Y-31119645D01*
X32303475Y-31100600D01*
X32158525Y-31100600D01*
X32122444Y-31110268D01*
X32018510Y-31138117D01*
X31892989Y-31210587D01*
X31790487Y-31313089D01*
X31718017Y-31438610D01*
X31680500Y-31578625D01*
X31680500Y-31670310D01*
X31661593Y-31728501D01*
X31612093Y-31764465D01*
X31550907Y-31764465D01*
X31511496Y-31740314D01*
X29906396Y-30135214D01*
X29878619Y-30080697D01*
X29877400Y-30065210D01*
X29877400Y-28553142D01*
X29896307Y-28494951D01*
X29945807Y-28458987D01*
X30002021Y-28457515D01*
X30077725Y-28477800D01*
X30077727Y-28477800D01*
X30222674Y-28477800D01*
X30222675Y-28477800D01*
X30362685Y-28440284D01*
X30362687Y-28440282D01*
X30362689Y-28440282D01*
X30488210Y-28367812D01*
X30488210Y-28367811D01*
X30488215Y-28367809D01*
X30590709Y-28265315D01*
X30597294Y-28253910D01*
X30663182Y-28139789D01*
X30663182Y-28139787D01*
X30663184Y-28139785D01*
X30700700Y-27999775D01*
X30700700Y-27957749D01*
X30719607Y-27899558D01*
X30769107Y-27863594D01*
X30830293Y-27863594D01*
X30849197Y-27872011D01*
X30932115Y-27919884D01*
X31072125Y-27957400D01*
X31072126Y-27957400D01*
X31217074Y-27957400D01*
X31217075Y-27957400D01*
X31357085Y-27919884D01*
X31357087Y-27919882D01*
X31357089Y-27919882D01*
X31482610Y-27847412D01*
X31482610Y-27847411D01*
X31482615Y-27847409D01*
X31585109Y-27744915D01*
X31599724Y-27719600D01*
X31645193Y-27678659D01*
X31685461Y-27670100D01*
X34276070Y-27670100D01*
X34334261Y-27689007D01*
G37*
%TD.AperFunction*%
%TA.AperFunction,Conductor*%
G36*
X51514490Y-16306107D02*
G01*
X51550454Y-16355607D01*
X51551925Y-16411824D01*
X51537000Y-16467522D01*
X51537000Y-16612474D01*
X51574517Y-16752489D01*
X51646987Y-16878010D01*
X51646989Y-16878012D01*
X51646991Y-16878015D01*
X51749485Y-16980509D01*
X51749487Y-16980510D01*
X51749489Y-16980512D01*
X51875011Y-17052982D01*
X51875012Y-17052982D01*
X51875015Y-17052984D01*
X52015025Y-17090500D01*
X52015026Y-17090500D01*
X52159974Y-17090500D01*
X52159975Y-17090500D01*
X52299985Y-17052984D01*
X52299987Y-17052982D01*
X52299989Y-17052982D01*
X52425510Y-16980512D01*
X52425510Y-16980511D01*
X52425515Y-16980509D01*
X52528009Y-16878015D01*
X52574378Y-16797702D01*
X52600482Y-16752489D01*
X52600482Y-16752487D01*
X52600484Y-16752485D01*
X52638000Y-16612475D01*
X52638000Y-16467525D01*
X52623075Y-16411824D01*
X52626276Y-16350722D01*
X52664781Y-16303172D01*
X52718701Y-16287200D01*
X55309908Y-16287200D01*
X55368099Y-16306107D01*
X55404063Y-16355607D01*
X55407689Y-16401688D01*
X55399500Y-16453387D01*
X55399500Y-16626614D01*
X55426597Y-16797702D01*
X55426598Y-16797706D01*
X55480123Y-16962438D01*
X55480125Y-16962441D01*
X55545482Y-17090714D01*
X55558768Y-17116788D01*
X55660586Y-17256928D01*
X55783072Y-17379414D01*
X55923212Y-17481232D01*
X56077555Y-17559873D01*
X56077557Y-17559873D01*
X56077558Y-17559874D01*
X56077561Y-17559876D01*
X56242293Y-17613401D01*
X56242297Y-17613402D01*
X56413386Y-17640500D01*
X56413389Y-17640500D01*
X56586614Y-17640500D01*
X56757702Y-17613402D01*
X56757706Y-17613401D01*
X56922438Y-17559876D01*
X56922440Y-17559874D01*
X56922445Y-17559873D01*
X57076788Y-17481232D01*
X57216928Y-17379414D01*
X57339414Y-17256928D01*
X57441232Y-17116788D01*
X57519873Y-16962445D01*
X57519874Y-16962440D01*
X57519876Y-16962438D01*
X57573401Y-16797706D01*
X57573402Y-16797700D01*
X57586571Y-16714556D01*
X57614348Y-16660039D01*
X57668864Y-16632261D01*
X57729297Y-16641832D01*
X57754356Y-16660038D01*
X58237704Y-17143386D01*
X58265481Y-17197903D01*
X58266700Y-17213390D01*
X58266700Y-22544910D01*
X58247793Y-22603101D01*
X58237704Y-22614914D01*
X56219530Y-24633088D01*
X56198049Y-24670296D01*
X56191194Y-24682169D01*
X56191193Y-24682170D01*
X56173387Y-24713009D01*
X56149499Y-24802158D01*
X56148653Y-24808590D01*
X56146944Y-24808365D01*
X56130593Y-24858691D01*
X56081093Y-24894655D01*
X56050500Y-24899500D01*
X55625326Y-24899500D01*
X55625325Y-24899500D01*
X55625315Y-24899501D01*
X55552263Y-24914033D01*
X55552257Y-24914035D01*
X55469400Y-24969397D01*
X55469397Y-24969400D01*
X55414035Y-25052257D01*
X55414033Y-25052263D01*
X55399501Y-25125315D01*
X55399500Y-25125327D01*
X55399500Y-26834344D01*
X55380593Y-26892535D01*
X55331093Y-26928499D01*
X55274878Y-26929971D01*
X55245875Y-26922200D01*
X55100925Y-26922200D01*
X55071924Y-26929971D01*
X54960910Y-26959717D01*
X54835383Y-27032191D01*
X54826176Y-27041398D01*
X54771658Y-27069171D01*
X54711227Y-27059595D01*
X54686174Y-27041393D01*
X51759268Y-24114487D01*
X49174271Y-21529489D01*
X55350000Y-21529489D01*
X55350000Y-21710510D01*
X55378316Y-21889289D01*
X55434250Y-22061440D01*
X55516430Y-22222728D01*
X55557667Y-22279488D01*
X56031980Y-21805174D01*
X56034075Y-21812993D01*
X56099901Y-21927007D01*
X56192993Y-22020099D01*
X56307007Y-22085925D01*
X56314821Y-22088019D01*
X55840511Y-22562330D01*
X55897275Y-22603571D01*
X56058559Y-22685749D01*
X56230710Y-22741683D01*
X56409490Y-22770000D01*
X56590510Y-22770000D01*
X56769289Y-22741683D01*
X56941440Y-22685749D01*
X57102728Y-22603569D01*
X57159487Y-22562330D01*
X56685176Y-22088019D01*
X56692993Y-22085925D01*
X56807007Y-22020099D01*
X56900099Y-21927007D01*
X56965925Y-21812993D01*
X56968019Y-21805176D01*
X57442330Y-22279487D01*
X57483569Y-22222728D01*
X57565749Y-22061440D01*
X57621683Y-21889289D01*
X57650000Y-21710510D01*
X57650000Y-21529489D01*
X57621683Y-21350710D01*
X57565749Y-21178559D01*
X57483571Y-21017275D01*
X57442330Y-20960511D01*
X56968019Y-21434821D01*
X56965925Y-21427007D01*
X56900099Y-21312993D01*
X56807007Y-21219901D01*
X56692993Y-21154075D01*
X56685174Y-21151980D01*
X57159488Y-20677667D01*
X57102728Y-20636430D01*
X56941440Y-20554250D01*
X56769289Y-20498316D01*
X56590510Y-20470000D01*
X56409490Y-20470000D01*
X56230710Y-20498316D01*
X56058559Y-20554250D01*
X55897267Y-20636432D01*
X55840510Y-20677667D01*
X56314823Y-21151980D01*
X56307007Y-21154075D01*
X56192993Y-21219901D01*
X56099901Y-21312993D01*
X56034075Y-21427007D01*
X56031980Y-21434823D01*
X55557667Y-20960510D01*
X55516432Y-21017267D01*
X55434250Y-21178559D01*
X55378316Y-21350710D01*
X55350000Y-21529489D01*
X49174271Y-21529489D01*
X48756312Y-21111530D01*
X48676388Y-21065386D01*
X48587244Y-21041500D01*
X41595156Y-21041500D01*
X41506012Y-21065386D01*
X41503066Y-21067086D01*
X41503065Y-21067087D01*
X41426088Y-21111530D01*
X38515414Y-24022204D01*
X38460897Y-24049981D01*
X38445410Y-24051200D01*
X34254932Y-24051200D01*
X34196741Y-24032293D01*
X34184929Y-24022204D01*
X34123915Y-23961191D01*
X34123910Y-23961187D01*
X33998388Y-23888717D01*
X33998384Y-23888715D01*
X33903815Y-23863375D01*
X33852501Y-23830051D01*
X33830575Y-23772930D01*
X33846411Y-23713829D01*
X33859436Y-23697745D01*
X34605887Y-22951296D01*
X34660403Y-22923519D01*
X34675890Y-22922300D01*
X35330968Y-22922300D01*
X35389159Y-22941207D01*
X35400971Y-22951296D01*
X35461984Y-23012308D01*
X35461989Y-23012312D01*
X35587511Y-23084782D01*
X35587512Y-23084782D01*
X35587515Y-23084784D01*
X35727525Y-23122300D01*
X35727526Y-23122300D01*
X35872474Y-23122300D01*
X35872475Y-23122300D01*
X36012485Y-23084784D01*
X36012487Y-23084782D01*
X36012489Y-23084782D01*
X36138010Y-23012312D01*
X36138010Y-23012311D01*
X36138015Y-23012309D01*
X36240509Y-22909815D01*
X36312984Y-22784285D01*
X36350500Y-22644275D01*
X36350500Y-22499325D01*
X36312984Y-22359315D01*
X36312982Y-22359312D01*
X36312982Y-22359310D01*
X36240512Y-22233789D01*
X36240510Y-22233787D01*
X36240509Y-22233785D01*
X36138015Y-22131291D01*
X36138012Y-22131289D01*
X36138010Y-22131287D01*
X36012488Y-22058817D01*
X36012489Y-22058817D01*
X35982896Y-22050887D01*
X35872475Y-22021300D01*
X35727525Y-22021300D01*
X35665790Y-22037841D01*
X35587510Y-22058817D01*
X35461989Y-22131287D01*
X35461984Y-22131291D01*
X35400971Y-22192304D01*
X35346454Y-22220081D01*
X35330968Y-22221300D01*
X34443556Y-22221300D01*
X34354412Y-22245186D01*
X34274488Y-22291330D01*
X31773341Y-24792477D01*
X31718824Y-24820254D01*
X31658392Y-24810683D01*
X31615127Y-24767418D01*
X31605556Y-24706986D01*
X31607711Y-24696849D01*
X31611644Y-24682170D01*
X31626300Y-24627475D01*
X31626300Y-24482525D01*
X31588784Y-24342515D01*
X31588782Y-24342512D01*
X31588782Y-24342510D01*
X31516312Y-24216989D01*
X31516310Y-24216987D01*
X31516309Y-24216985D01*
X31413815Y-24114491D01*
X31413812Y-24114489D01*
X31413810Y-24114487D01*
X31288288Y-24042017D01*
X31288289Y-24042017D01*
X31214346Y-24022204D01*
X31148275Y-24004500D01*
X31003325Y-24004500D01*
X30956655Y-24017005D01*
X30863313Y-24042016D01*
X30844394Y-24052940D01*
X30784545Y-24065661D01*
X30728650Y-24040774D01*
X30699267Y-23992826D01*
X30695272Y-23977916D01*
X30668584Y-23878315D01*
X30668582Y-23878312D01*
X30668582Y-23878310D01*
X30596112Y-23752789D01*
X30596110Y-23752787D01*
X30596109Y-23752785D01*
X30493615Y-23650291D01*
X30493612Y-23650289D01*
X30493610Y-23650287D01*
X30402081Y-23597443D01*
X30361140Y-23551974D01*
X30354744Y-23491124D01*
X30381575Y-23441705D01*
X32583386Y-21239896D01*
X32637903Y-21212119D01*
X32653390Y-21210900D01*
X40892042Y-21210900D01*
X40892044Y-21210900D01*
X40981188Y-21187014D01*
X40998900Y-21176788D01*
X41061112Y-21140870D01*
X41184715Y-21017267D01*
X41296987Y-20904996D01*
X41351503Y-20877219D01*
X41366990Y-20876000D01*
X41451184Y-20876000D01*
X41453275Y-20876000D01*
X41593285Y-20838484D01*
X41716087Y-20767584D01*
X41718810Y-20766012D01*
X41718810Y-20766011D01*
X41718815Y-20766009D01*
X41821309Y-20663515D01*
X41875522Y-20569616D01*
X41893782Y-20537989D01*
X41893782Y-20537987D01*
X41893784Y-20537985D01*
X41931300Y-20397975D01*
X41931300Y-20253025D01*
X41893784Y-20113015D01*
X41893782Y-20113011D01*
X41887367Y-20101899D01*
X41874647Y-20042050D01*
X41899534Y-19986155D01*
X41952522Y-19955563D01*
X41973104Y-19953400D01*
X51227411Y-19953400D01*
X51285602Y-19972307D01*
X51297408Y-19982390D01*
X51306788Y-19991770D01*
X51357818Y-20021232D01*
X51386712Y-20037914D01*
X51475856Y-20061800D01*
X51475857Y-20061800D01*
X51475858Y-20061800D01*
X55914843Y-20061800D01*
X55914844Y-20061800D01*
X55935798Y-20056185D01*
X55996898Y-20059385D01*
X56006361Y-20063598D01*
X56077555Y-20099873D01*
X56077557Y-20099873D01*
X56077558Y-20099874D01*
X56077561Y-20099876D01*
X56242293Y-20153401D01*
X56242297Y-20153402D01*
X56413386Y-20180500D01*
X56413389Y-20180500D01*
X56586614Y-20180500D01*
X56757702Y-20153402D01*
X56757706Y-20153401D01*
X56922438Y-20099876D01*
X56922440Y-20099874D01*
X56922445Y-20099873D01*
X57076788Y-20021232D01*
X57216928Y-19919414D01*
X57339414Y-19796928D01*
X57441232Y-19656788D01*
X57519873Y-19502445D01*
X57519874Y-19502440D01*
X57519876Y-19502438D01*
X57573401Y-19337706D01*
X57573402Y-19337702D01*
X57600500Y-19166614D01*
X57600500Y-18993385D01*
X57573402Y-18822297D01*
X57573401Y-18822293D01*
X57519876Y-18657561D01*
X57519874Y-18657558D01*
X57519873Y-18657557D01*
X57519873Y-18657555D01*
X57441232Y-18503212D01*
X57339414Y-18363072D01*
X57216928Y-18240586D01*
X57076788Y-18138768D01*
X57076787Y-18138767D01*
X57076785Y-18138766D01*
X56922441Y-18060125D01*
X56922438Y-18060123D01*
X56757706Y-18006598D01*
X56757702Y-18006597D01*
X56586614Y-17979500D01*
X56586611Y-17979500D01*
X56413389Y-17979500D01*
X56413386Y-17979500D01*
X56242297Y-18006597D01*
X56242293Y-18006598D01*
X56077561Y-18060123D01*
X56077558Y-18060125D01*
X55923214Y-18138766D01*
X55783073Y-18240585D01*
X55660585Y-18363073D01*
X55558766Y-18503214D01*
X55480125Y-18657558D01*
X55480123Y-18657561D01*
X55426598Y-18822293D01*
X55426597Y-18822297D01*
X55399500Y-18993385D01*
X55399500Y-19166614D01*
X55412123Y-19246313D01*
X55402552Y-19306745D01*
X55359287Y-19350010D01*
X55314342Y-19360800D01*
X52711198Y-19360800D01*
X52653007Y-19341893D01*
X52617043Y-19292393D01*
X52615572Y-19236176D01*
X52625943Y-19197470D01*
X52638000Y-19152475D01*
X52638000Y-19007525D01*
X52600484Y-18867515D01*
X52600482Y-18867512D01*
X52600482Y-18867510D01*
X52528012Y-18741989D01*
X52528010Y-18741987D01*
X52528009Y-18741985D01*
X52425515Y-18639491D01*
X52425512Y-18639489D01*
X52425510Y-18639487D01*
X52299988Y-18567017D01*
X52299989Y-18567017D01*
X52239840Y-18550900D01*
X52159975Y-18529500D01*
X52015025Y-18529500D01*
X51953290Y-18546041D01*
X51875010Y-18567017D01*
X51749489Y-18639487D01*
X51646987Y-18741989D01*
X51574517Y-18867510D01*
X51537000Y-19007525D01*
X51537000Y-19153400D01*
X51518093Y-19211591D01*
X51468593Y-19247555D01*
X51438000Y-19252400D01*
X46687373Y-19252400D01*
X46629182Y-19233493D01*
X46593218Y-19183993D01*
X46593218Y-19122807D01*
X46595909Y-19115514D01*
X46596583Y-19113886D01*
X46596584Y-19113885D01*
X46634100Y-18973875D01*
X46634100Y-18828925D01*
X46596584Y-18688915D01*
X46596582Y-18688912D01*
X46596582Y-18688910D01*
X46524112Y-18563389D01*
X46524110Y-18563387D01*
X46524109Y-18563385D01*
X46421615Y-18460891D01*
X46421612Y-18460889D01*
X46421610Y-18460887D01*
X46296088Y-18388417D01*
X46296089Y-18388417D01*
X46266496Y-18380487D01*
X46156075Y-18350900D01*
X46011125Y-18350900D01*
X45949390Y-18367441D01*
X45871110Y-18388417D01*
X45745589Y-18460887D01*
X45745584Y-18460891D01*
X45684571Y-18521904D01*
X45630054Y-18549681D01*
X45614568Y-18550900D01*
X44627790Y-18550900D01*
X44569599Y-18531993D01*
X44557786Y-18521904D01*
X43126596Y-17090714D01*
X43098819Y-17036197D01*
X43097600Y-17020710D01*
X43097600Y-16934425D01*
X43089683Y-16904879D01*
X43060084Y-16794415D01*
X43060082Y-16794412D01*
X43060082Y-16794410D01*
X42987612Y-16668889D01*
X42987610Y-16668887D01*
X42987609Y-16668885D01*
X42885115Y-16566391D01*
X42885112Y-16566389D01*
X42885110Y-16566387D01*
X42777115Y-16504036D01*
X42736174Y-16458567D01*
X42729778Y-16397716D01*
X42760371Y-16344728D01*
X42816267Y-16319842D01*
X42826615Y-16319300D01*
X43860242Y-16319300D01*
X43860244Y-16319300D01*
X43949388Y-16295414D01*
X43949390Y-16295412D01*
X43949393Y-16295412D01*
X43951028Y-16294735D01*
X43954490Y-16294046D01*
X43955656Y-16293734D01*
X43955676Y-16293810D01*
X43988911Y-16287200D01*
X51456299Y-16287200D01*
X51514490Y-16306107D01*
G37*
%TD.AperFunction*%
%TA.AperFunction,Conductor*%
G36*
X30480201Y-19972307D02*
G01*
X30516165Y-20021807D01*
X30516165Y-20082993D01*
X30492014Y-20122404D01*
X24322304Y-26292114D01*
X24267787Y-26319891D01*
X24207355Y-26310320D01*
X24164090Y-26267055D01*
X24153300Y-26222110D01*
X24153300Y-23164057D01*
X24153300Y-23164056D01*
X24129414Y-23074912D01*
X24108614Y-23038886D01*
X24083270Y-22994988D01*
X22463596Y-21375314D01*
X22435819Y-21320797D01*
X22434600Y-21305310D01*
X22434600Y-20802043D01*
X22453507Y-20743852D01*
X22503007Y-20707888D01*
X22564193Y-20707888D01*
X22583100Y-20716307D01*
X22671911Y-20767582D01*
X22671912Y-20767582D01*
X22671915Y-20767584D01*
X22811925Y-20805100D01*
X22811926Y-20805100D01*
X22956874Y-20805100D01*
X22956875Y-20805100D01*
X23096885Y-20767584D01*
X23096887Y-20767582D01*
X23096889Y-20767582D01*
X23222410Y-20695112D01*
X23222410Y-20695111D01*
X23222415Y-20695109D01*
X23267017Y-20650507D01*
X23283429Y-20634096D01*
X23337946Y-20606319D01*
X23353432Y-20605100D01*
X26504542Y-20605100D01*
X26504544Y-20605100D01*
X26593688Y-20581214D01*
X26613775Y-20569616D01*
X26613777Y-20569616D01*
X26640391Y-20554250D01*
X26673612Y-20535070D01*
X27226286Y-19982396D01*
X27280803Y-19954619D01*
X27296290Y-19953400D01*
X30422010Y-19953400D01*
X30480201Y-19972307D01*
G37*
%TD.AperFunction*%
%TA.AperFunction,Conductor*%
G36*
X48413101Y-21761407D02*
G01*
X48424914Y-21771496D01*
X49005807Y-22352389D01*
X49033584Y-22406906D01*
X49024013Y-22467338D01*
X48980748Y-22510603D01*
X48920316Y-22520174D01*
X48910181Y-22518020D01*
X48905374Y-22516732D01*
X48897044Y-22514500D01*
X48897043Y-22514500D01*
X41540132Y-22514500D01*
X41481941Y-22495593D01*
X41470129Y-22485504D01*
X41409115Y-22424491D01*
X41409113Y-22424489D01*
X41327724Y-22377499D01*
X41286784Y-22332029D01*
X41280389Y-22271179D01*
X41307222Y-22221759D01*
X41757487Y-21771496D01*
X41812003Y-21743719D01*
X41827490Y-21742500D01*
X48354910Y-21742500D01*
X48413101Y-21761407D01*
G37*
%TD.AperFunction*%
%TA.AperFunction,Conductor*%
G36*
X41942545Y-16904879D02*
G01*
X41985810Y-16948144D01*
X41996600Y-16993089D01*
X41996600Y-17079375D01*
X42006624Y-17116785D01*
X42034117Y-17219389D01*
X42106587Y-17344910D01*
X42106589Y-17344912D01*
X42106591Y-17344915D01*
X42209085Y-17447409D01*
X42209087Y-17447410D01*
X42209089Y-17447412D01*
X42334611Y-17519882D01*
X42334612Y-17519882D01*
X42334615Y-17519884D01*
X42474625Y-17557400D01*
X42560910Y-17557400D01*
X42619101Y-17576307D01*
X42630914Y-17586396D01*
X44127916Y-19083398D01*
X44155692Y-19137913D01*
X44146121Y-19198345D01*
X44102856Y-19241610D01*
X44057911Y-19252400D01*
X39737289Y-19252400D01*
X39679098Y-19233493D01*
X39643134Y-19183993D01*
X39643134Y-19122807D01*
X39667283Y-19083398D01*
X41827596Y-16923084D01*
X41882113Y-16895308D01*
X41942545Y-16904879D01*
G37*
%TD.AperFunction*%
%TA.AperFunction,Conductor*%
G36*
X7959191Y-519407D02*
G01*
X7995155Y-568907D01*
X8000000Y-599499D01*
X8000000Y-7500000D01*
X8000001Y-7500000D01*
X51999999Y-7500000D01*
X52000000Y-7500000D01*
X52000000Y-3875433D01*
X54599500Y-3875433D01*
X54599500Y-4124566D01*
X54632017Y-4371557D01*
X54632017Y-4371562D01*
X54696496Y-4612199D01*
X54696500Y-4612212D01*
X54791832Y-4842365D01*
X54791834Y-4842369D01*
X54791836Y-4842373D01*
X54916401Y-5058127D01*
X54916403Y-5058130D01*
X55068056Y-5255769D01*
X55068058Y-5255771D01*
X55068062Y-5255776D01*
X55244224Y-5431938D01*
X55244228Y-5431941D01*
X55244230Y-5431943D01*
X55441869Y-5583596D01*
X55441873Y-5583599D01*
X55657627Y-5708164D01*
X55887793Y-5803502D01*
X56128435Y-5867982D01*
X56375435Y-5900500D01*
X56375436Y-5900500D01*
X56624564Y-5900500D01*
X56624565Y-5900500D01*
X56871565Y-5867982D01*
X57112207Y-5803502D01*
X57342373Y-5708164D01*
X57558127Y-5583599D01*
X57755776Y-5431938D01*
X57931938Y-5255776D01*
X58083599Y-5058127D01*
X58208164Y-4842373D01*
X58303502Y-4612207D01*
X58367982Y-4371565D01*
X58400500Y-4124565D01*
X58400500Y-3875435D01*
X58367982Y-3628435D01*
X58303502Y-3387793D01*
X58208164Y-3157627D01*
X58083599Y-2941873D01*
X57931938Y-2744224D01*
X57755776Y-2568062D01*
X57755771Y-2568058D01*
X57755769Y-2568056D01*
X57558130Y-2416403D01*
X57558127Y-2416401D01*
X57342373Y-2291836D01*
X57342369Y-2291834D01*
X57342365Y-2291832D01*
X57112212Y-2196500D01*
X57112211Y-2196499D01*
X57112207Y-2196498D01*
X56871565Y-2132018D01*
X56871562Y-2132017D01*
X56871560Y-2132017D01*
X56624566Y-2099500D01*
X56624565Y-2099500D01*
X56375435Y-2099500D01*
X56375433Y-2099500D01*
X56128442Y-2132017D01*
X56128437Y-2132017D01*
X55887800Y-2196496D01*
X55887787Y-2196500D01*
X55657634Y-2291832D01*
X55441869Y-2416403D01*
X55244230Y-2568056D01*
X55068056Y-2744230D01*
X54916403Y-2941869D01*
X54791832Y-3157634D01*
X54696500Y-3387787D01*
X54696496Y-3387800D01*
X54632017Y-3628437D01*
X54632017Y-3628442D01*
X54599500Y-3875433D01*
X52000000Y-3875433D01*
X52000000Y-599500D01*
X52018907Y-541309D01*
X52068407Y-505345D01*
X52099000Y-500500D01*
X59400500Y-500500D01*
X59458691Y-519407D01*
X59494655Y-568907D01*
X59499500Y-599500D01*
X59499500Y-79400500D01*
X59480593Y-79458691D01*
X59431093Y-79494655D01*
X59400500Y-79499500D01*
X51099500Y-79499500D01*
X51041309Y-79480593D01*
X51005345Y-79431093D01*
X51000500Y-79400500D01*
X51000500Y-75875433D01*
X54099500Y-75875433D01*
X54099500Y-76124566D01*
X54132017Y-76371557D01*
X54132017Y-76371562D01*
X54196496Y-76612199D01*
X54196500Y-76612212D01*
X54291832Y-76842365D01*
X54291834Y-76842369D01*
X54291836Y-76842373D01*
X54371872Y-76981000D01*
X54416403Y-77058130D01*
X54568056Y-77255769D01*
X54568058Y-77255771D01*
X54568062Y-77255776D01*
X54744224Y-77431938D01*
X54744228Y-77431941D01*
X54744230Y-77431943D01*
X54784039Y-77462489D01*
X54941873Y-77583599D01*
X55157627Y-77708164D01*
X55387793Y-77803502D01*
X55628435Y-77867982D01*
X55875435Y-77900500D01*
X55875436Y-77900500D01*
X56124564Y-77900500D01*
X56124565Y-77900500D01*
X56371565Y-77867982D01*
X56612207Y-77803502D01*
X56842373Y-77708164D01*
X57058127Y-77583599D01*
X57255776Y-77431938D01*
X57431938Y-77255776D01*
X57583599Y-77058127D01*
X57708164Y-76842373D01*
X57803502Y-76612207D01*
X57867982Y-76371565D01*
X57900500Y-76124565D01*
X57900500Y-75875435D01*
X57867982Y-75628435D01*
X57803502Y-75387793D01*
X57708164Y-75157627D01*
X57583599Y-74941873D01*
X57431938Y-74744224D01*
X57255776Y-74568062D01*
X57255771Y-74568058D01*
X57255769Y-74568056D01*
X57058130Y-74416403D01*
X57058127Y-74416401D01*
X56842373Y-74291836D01*
X56842369Y-74291834D01*
X56842365Y-74291832D01*
X56612212Y-74196500D01*
X56612211Y-74196499D01*
X56612207Y-74196498D01*
X56371565Y-74132018D01*
X56371562Y-74132017D01*
X56371560Y-74132017D01*
X56124566Y-74099500D01*
X56124565Y-74099500D01*
X55875435Y-74099500D01*
X55875433Y-74099500D01*
X55628442Y-74132017D01*
X55628437Y-74132017D01*
X55387800Y-74196496D01*
X55387787Y-74196500D01*
X55157634Y-74291832D01*
X54941869Y-74416403D01*
X54744230Y-74568056D01*
X54568056Y-74744230D01*
X54416403Y-74941869D01*
X54291832Y-75157634D01*
X54196500Y-75387787D01*
X54196496Y-75387800D01*
X54132017Y-75628437D01*
X54132017Y-75628442D01*
X54099500Y-75875433D01*
X51000500Y-75875433D01*
X51000500Y-69693385D01*
X55399500Y-69693385D01*
X55399500Y-69866614D01*
X55426597Y-70037702D01*
X55426598Y-70037706D01*
X55480123Y-70202438D01*
X55480125Y-70202441D01*
X55480126Y-70202444D01*
X55480127Y-70202445D01*
X55558768Y-70356788D01*
X55660586Y-70496928D01*
X55783072Y-70619414D01*
X55923212Y-70721232D01*
X56077555Y-70799873D01*
X56077557Y-70799873D01*
X56077558Y-70799874D01*
X56077561Y-70799876D01*
X56242293Y-70853401D01*
X56242297Y-70853402D01*
X56413386Y-70880500D01*
X56413389Y-70880500D01*
X56586614Y-70880500D01*
X56757702Y-70853402D01*
X56757706Y-70853401D01*
X56922438Y-70799876D01*
X56922440Y-70799874D01*
X56922445Y-70799873D01*
X57076788Y-70721232D01*
X57216928Y-70619414D01*
X57339414Y-70496928D01*
X57441232Y-70356788D01*
X57519873Y-70202445D01*
X57519874Y-70202440D01*
X57519876Y-70202438D01*
X57573401Y-70037706D01*
X57573402Y-70037702D01*
X57600500Y-69866614D01*
X57600500Y-69693385D01*
X57573402Y-69522297D01*
X57573401Y-69522293D01*
X57519876Y-69357561D01*
X57519874Y-69357558D01*
X57519873Y-69357557D01*
X57519873Y-69357555D01*
X57441232Y-69203212D01*
X57339414Y-69063072D01*
X57216928Y-68940586D01*
X57076788Y-68838768D01*
X57076787Y-68838767D01*
X57076785Y-68838766D01*
X56922441Y-68760125D01*
X56922438Y-68760123D01*
X56757706Y-68706598D01*
X56757702Y-68706597D01*
X56586614Y-68679500D01*
X56586611Y-68679500D01*
X56413389Y-68679500D01*
X56413386Y-68679500D01*
X56242297Y-68706597D01*
X56242293Y-68706598D01*
X56077561Y-68760123D01*
X56077558Y-68760125D01*
X55923214Y-68838766D01*
X55783073Y-68940585D01*
X55660585Y-69063073D01*
X55558766Y-69203214D01*
X55480125Y-69357558D01*
X55480123Y-69357561D01*
X55426598Y-69522293D01*
X55426597Y-69522297D01*
X55399500Y-69693385D01*
X51000500Y-69693385D01*
X51000500Y-67153385D01*
X55399500Y-67153385D01*
X55399500Y-67326614D01*
X55426597Y-67497702D01*
X55426598Y-67497706D01*
X55480123Y-67662438D01*
X55480125Y-67662441D01*
X55480126Y-67662444D01*
X55480127Y-67662445D01*
X55558768Y-67816788D01*
X55660586Y-67956928D01*
X55783072Y-68079414D01*
X55923212Y-68181232D01*
X56077555Y-68259873D01*
X56077557Y-68259873D01*
X56077558Y-68259874D01*
X56077561Y-68259876D01*
X56242293Y-68313401D01*
X56242297Y-68313402D01*
X56413386Y-68340500D01*
X56413389Y-68340500D01*
X56586614Y-68340500D01*
X56757702Y-68313402D01*
X56757706Y-68313401D01*
X56922438Y-68259876D01*
X56922440Y-68259874D01*
X56922445Y-68259873D01*
X57076788Y-68181232D01*
X57216928Y-68079414D01*
X57339414Y-67956928D01*
X57441232Y-67816788D01*
X57519873Y-67662445D01*
X57519874Y-67662440D01*
X57519876Y-67662438D01*
X57573401Y-67497706D01*
X57573402Y-67497702D01*
X57600500Y-67326614D01*
X57600500Y-67153385D01*
X57573402Y-66982297D01*
X57573401Y-66982293D01*
X57519876Y-66817561D01*
X57519874Y-66817558D01*
X57519873Y-66817557D01*
X57519873Y-66817555D01*
X57441232Y-66663212D01*
X57339414Y-66523072D01*
X57216928Y-66400586D01*
X57076788Y-66298768D01*
X57076787Y-66298767D01*
X57076785Y-66298766D01*
X56922441Y-66220125D01*
X56922438Y-66220123D01*
X56757706Y-66166598D01*
X56757702Y-66166597D01*
X56586614Y-66139500D01*
X56586611Y-66139500D01*
X56413389Y-66139500D01*
X56413386Y-66139500D01*
X56242297Y-66166597D01*
X56242293Y-66166598D01*
X56077561Y-66220123D01*
X56077558Y-66220125D01*
X55923214Y-66298766D01*
X55783073Y-66400585D01*
X55660585Y-66523073D01*
X55558766Y-66663214D01*
X55480125Y-66817558D01*
X55480123Y-66817561D01*
X55426598Y-66982293D01*
X55426597Y-66982297D01*
X55399500Y-67153385D01*
X51000500Y-67153385D01*
X51000500Y-61934109D01*
X50970541Y-61822299D01*
X50966392Y-61806814D01*
X50966390Y-61806811D01*
X50966390Y-61806809D01*
X50900503Y-61692690D01*
X50900501Y-61692688D01*
X50900500Y-61692686D01*
X50807314Y-61599500D01*
X50807311Y-61599498D01*
X50807309Y-61599496D01*
X50693189Y-61533609D01*
X50693191Y-61533609D01*
X50643799Y-61520375D01*
X50565892Y-61499500D01*
X49065892Y-61499500D01*
X48934108Y-61499500D01*
X48856200Y-61520375D01*
X48806809Y-61533609D01*
X48692690Y-61599496D01*
X48599496Y-61692690D01*
X48533609Y-61806809D01*
X48499500Y-61934109D01*
X48499500Y-79400500D01*
X48480593Y-79458691D01*
X48431093Y-79494655D01*
X48400500Y-79499500D01*
X20099500Y-79499500D01*
X20041309Y-79480593D01*
X20005345Y-79431093D01*
X20000500Y-79400500D01*
X20000500Y-78395925D01*
X20831100Y-78395925D01*
X20831100Y-78540874D01*
X20868617Y-78680889D01*
X20941087Y-78806410D01*
X20941089Y-78806412D01*
X20941091Y-78806415D01*
X21043585Y-78908909D01*
X21043587Y-78908910D01*
X21043589Y-78908912D01*
X21169111Y-78981382D01*
X21169112Y-78981382D01*
X21169115Y-78981384D01*
X21309125Y-79018900D01*
X21309126Y-79018900D01*
X21454074Y-79018900D01*
X21454075Y-79018900D01*
X21594085Y-78981384D01*
X21594087Y-78981382D01*
X21594089Y-78981382D01*
X21719610Y-78908912D01*
X21719610Y-78908911D01*
X21719615Y-78908909D01*
X21822109Y-78806415D01*
X21894584Y-78680885D01*
X21932100Y-78540875D01*
X21932100Y-78395925D01*
X21894584Y-78255915D01*
X21894582Y-78255912D01*
X21894582Y-78255910D01*
X21822112Y-78130389D01*
X21822110Y-78130387D01*
X21822109Y-78130385D01*
X21719615Y-78027891D01*
X21719612Y-78027889D01*
X21719610Y-78027887D01*
X21594088Y-77955417D01*
X21594089Y-77955417D01*
X21564496Y-77947487D01*
X21454075Y-77917900D01*
X21309125Y-77917900D01*
X21247390Y-77934441D01*
X21169110Y-77955417D01*
X21043589Y-78027887D01*
X20941087Y-78130389D01*
X20868617Y-78255910D01*
X20831100Y-78395925D01*
X20000500Y-78395925D01*
X20000500Y-77177525D01*
X24649500Y-77177525D01*
X24649500Y-77322474D01*
X24687017Y-77462489D01*
X24759487Y-77588010D01*
X24759489Y-77588012D01*
X24759491Y-77588015D01*
X24861985Y-77690509D01*
X24861987Y-77690510D01*
X24861989Y-77690512D01*
X24987511Y-77762982D01*
X24987512Y-77762982D01*
X24987515Y-77762984D01*
X25127525Y-77800500D01*
X25127526Y-77800500D01*
X25272474Y-77800500D01*
X25272475Y-77800500D01*
X25412485Y-77762984D01*
X25412487Y-77762982D01*
X25412489Y-77762982D01*
X25538010Y-77690512D01*
X25538010Y-77690511D01*
X25538015Y-77690509D01*
X25640509Y-77588015D01*
X25712984Y-77462485D01*
X25750500Y-77322475D01*
X25750500Y-77177525D01*
X25712984Y-77037515D01*
X25712982Y-77037512D01*
X25712982Y-77037510D01*
X25640512Y-76911989D01*
X25640510Y-76911987D01*
X25640509Y-76911985D01*
X25538015Y-76809491D01*
X25538012Y-76809489D01*
X25538010Y-76809487D01*
X25412488Y-76737017D01*
X25412489Y-76737017D01*
X25382896Y-76729087D01*
X25272475Y-76699500D01*
X25127525Y-76699500D01*
X25065790Y-76716041D01*
X24987510Y-76737017D01*
X24861989Y-76809487D01*
X24759487Y-76911989D01*
X24687017Y-77037510D01*
X24649500Y-77177525D01*
X20000500Y-77177525D01*
X20000500Y-76358025D01*
X45493400Y-76358025D01*
X45493400Y-76502974D01*
X45530917Y-76642989D01*
X45603387Y-76768510D01*
X45603389Y-76768512D01*
X45603391Y-76768515D01*
X45705885Y-76871009D01*
X45705887Y-76871010D01*
X45705889Y-76871012D01*
X45831411Y-76943482D01*
X45831412Y-76943482D01*
X45831415Y-76943484D01*
X45971425Y-76981000D01*
X45971426Y-76981000D01*
X46116374Y-76981000D01*
X46116375Y-76981000D01*
X46256385Y-76943484D01*
X46256387Y-76943482D01*
X46256389Y-76943482D01*
X46381910Y-76871012D01*
X46381910Y-76871011D01*
X46381915Y-76871009D01*
X46484409Y-76768515D01*
X46484412Y-76768510D01*
X46556882Y-76642989D01*
X46556882Y-76642987D01*
X46556884Y-76642985D01*
X46594400Y-76502975D01*
X46594400Y-76358025D01*
X46556884Y-76218015D01*
X46556882Y-76218012D01*
X46556882Y-76218010D01*
X46484412Y-76092489D01*
X46484410Y-76092487D01*
X46484409Y-76092485D01*
X46381915Y-75989991D01*
X46381912Y-75989989D01*
X46381910Y-75989987D01*
X46256388Y-75917517D01*
X46256389Y-75917517D01*
X46226796Y-75909587D01*
X46116375Y-75880000D01*
X45971425Y-75880000D01*
X45909690Y-75896541D01*
X45831410Y-75917517D01*
X45705889Y-75989987D01*
X45603387Y-76092489D01*
X45530917Y-76218010D01*
X45493400Y-76358025D01*
X20000500Y-76358025D01*
X20000500Y-74834625D01*
X25505900Y-74834625D01*
X25505900Y-74979574D01*
X25543417Y-75119589D01*
X25615887Y-75245110D01*
X25615889Y-75245112D01*
X25615891Y-75245115D01*
X25718385Y-75347609D01*
X25718387Y-75347610D01*
X25718389Y-75347612D01*
X25843911Y-75420082D01*
X25843912Y-75420082D01*
X25843915Y-75420084D01*
X25983925Y-75457600D01*
X25983926Y-75457600D01*
X26128874Y-75457600D01*
X26128875Y-75457600D01*
X26268885Y-75420084D01*
X26268887Y-75420082D01*
X26268889Y-75420082D01*
X26394410Y-75347612D01*
X26394410Y-75347611D01*
X26394415Y-75347609D01*
X26496909Y-75245115D01*
X26516392Y-75211370D01*
X26569382Y-75119589D01*
X26569382Y-75119587D01*
X26569384Y-75119585D01*
X26606900Y-74979575D01*
X26606900Y-74858425D01*
X30179300Y-74858425D01*
X30179300Y-75003374D01*
X30216817Y-75143389D01*
X30289287Y-75268910D01*
X30289289Y-75268912D01*
X30289291Y-75268915D01*
X30391785Y-75371409D01*
X30391787Y-75371410D01*
X30391789Y-75371412D01*
X30517311Y-75443882D01*
X30517312Y-75443882D01*
X30517315Y-75443884D01*
X30657325Y-75481400D01*
X30657326Y-75481400D01*
X30802274Y-75481400D01*
X30802275Y-75481400D01*
X30942285Y-75443884D01*
X30942287Y-75443882D01*
X30942289Y-75443882D01*
X31067810Y-75371412D01*
X31067810Y-75371411D01*
X31067815Y-75371409D01*
X31109309Y-75329915D01*
X31128829Y-75310396D01*
X31183346Y-75282619D01*
X31198832Y-75281400D01*
X41797096Y-75281400D01*
X41855287Y-75300307D01*
X41891251Y-75349807D01*
X41892722Y-75406021D01*
X41875600Y-75469925D01*
X41875600Y-75614875D01*
X41905187Y-75725296D01*
X41913117Y-75754889D01*
X41985587Y-75880410D01*
X41985589Y-75880412D01*
X41985591Y-75880415D01*
X42088085Y-75982909D01*
X42088087Y-75982910D01*
X42088089Y-75982912D01*
X42213611Y-76055382D01*
X42213612Y-76055382D01*
X42213615Y-76055384D01*
X42353625Y-76092900D01*
X42353626Y-76092900D01*
X42498574Y-76092900D01*
X42498575Y-76092900D01*
X42638585Y-76055384D01*
X42638587Y-76055382D01*
X42638589Y-76055382D01*
X42764110Y-75982912D01*
X42764110Y-75982911D01*
X42764115Y-75982909D01*
X42866609Y-75880415D01*
X42939084Y-75754885D01*
X42976600Y-75614875D01*
X42976600Y-75469925D01*
X42939084Y-75329915D01*
X42939083Y-75329913D01*
X42937404Y-75323647D01*
X42939893Y-75322979D01*
X42935950Y-75272964D01*
X42967912Y-75220791D01*
X42977056Y-75214328D01*
X42980905Y-75211375D01*
X42980907Y-75211372D01*
X42980912Y-75211370D01*
X45249786Y-72942496D01*
X45304303Y-72914719D01*
X45319790Y-72913500D01*
X45406074Y-72913500D01*
X45406075Y-72913500D01*
X45546085Y-72875984D01*
X45546087Y-72875982D01*
X45546089Y-72875982D01*
X45671610Y-72803512D01*
X45671610Y-72803511D01*
X45671615Y-72803509D01*
X45774109Y-72701015D01*
X45846584Y-72575485D01*
X45884100Y-72435475D01*
X45884100Y-72290525D01*
X45846584Y-72150515D01*
X45846582Y-72150512D01*
X45846582Y-72150510D01*
X45774112Y-72024989D01*
X45774110Y-72024987D01*
X45774109Y-72024985D01*
X45671615Y-71922491D01*
X45671612Y-71922489D01*
X45671610Y-71922487D01*
X45546088Y-71850017D01*
X45546089Y-71850017D01*
X45516496Y-71842087D01*
X45406075Y-71812500D01*
X45261125Y-71812500D01*
X45230612Y-71820676D01*
X45121113Y-71850016D01*
X45121112Y-71850017D01*
X45109166Y-71856914D01*
X45049318Y-71869633D01*
X44993423Y-71844745D01*
X44973932Y-71820676D01*
X44940511Y-71762789D01*
X44940509Y-71762785D01*
X44838015Y-71660291D01*
X44838012Y-71660289D01*
X44838010Y-71660287D01*
X44712488Y-71587817D01*
X44712489Y-71587817D01*
X44639584Y-71568282D01*
X44572475Y-71550300D01*
X44427525Y-71550300D01*
X44365790Y-71566841D01*
X44287510Y-71587817D01*
X44161989Y-71660287D01*
X44059487Y-71762789D01*
X43987017Y-71888310D01*
X43949500Y-72028325D01*
X43949500Y-72173274D01*
X43987017Y-72313289D01*
X44059487Y-72438810D01*
X44059489Y-72438812D01*
X44059491Y-72438815D01*
X44161985Y-72541309D01*
X44161987Y-72541310D01*
X44161989Y-72541312D01*
X44287511Y-72613782D01*
X44287515Y-72613784D01*
X44358186Y-72632721D01*
X44409500Y-72666045D01*
X44431426Y-72723166D01*
X44415590Y-72782267D01*
X44402566Y-72798351D01*
X43524646Y-73676271D01*
X43470129Y-73704048D01*
X43409697Y-73694477D01*
X43366432Y-73651212D01*
X43356861Y-73590780D01*
X43359016Y-73580643D01*
X43387999Y-73472477D01*
X43388000Y-73472475D01*
X43388000Y-73327525D01*
X43350484Y-73187515D01*
X43350482Y-73187512D01*
X43350482Y-73187510D01*
X43278012Y-73061989D01*
X43278010Y-73061987D01*
X43278009Y-73061985D01*
X43175515Y-72959491D01*
X43175512Y-72959489D01*
X43175510Y-72959487D01*
X43049988Y-72887017D01*
X43049989Y-72887017D01*
X43008806Y-72875982D01*
X42909975Y-72849500D01*
X42765025Y-72849500D01*
X42703290Y-72866041D01*
X42625010Y-72887017D01*
X42499489Y-72959487D01*
X42396987Y-73061989D01*
X42324517Y-73187510D01*
X42287000Y-73327525D01*
X42287000Y-73472474D01*
X42324517Y-73612489D01*
X42396987Y-73738010D01*
X42396989Y-73738012D01*
X42396991Y-73738015D01*
X42499485Y-73840509D01*
X42499487Y-73840510D01*
X42499489Y-73840512D01*
X42625011Y-73912982D01*
X42625012Y-73912982D01*
X42625015Y-73912984D01*
X42765025Y-73950500D01*
X42765026Y-73950500D01*
X42909976Y-73950500D01*
X42909976Y-73950499D01*
X43018143Y-73921516D01*
X43079245Y-73924717D01*
X43126795Y-73963222D01*
X43142631Y-74022322D01*
X43120705Y-74079444D01*
X43113771Y-74087145D01*
X42649514Y-74551403D01*
X42594997Y-74579181D01*
X42579510Y-74580400D01*
X31198832Y-74580400D01*
X31140641Y-74561493D01*
X31128829Y-74551404D01*
X31067815Y-74490391D01*
X31067810Y-74490387D01*
X30942288Y-74417917D01*
X30942289Y-74417917D01*
X30912696Y-74409987D01*
X30802275Y-74380400D01*
X30657325Y-74380400D01*
X30606137Y-74394116D01*
X30517310Y-74417917D01*
X30391789Y-74490387D01*
X30289287Y-74592889D01*
X30216817Y-74718410D01*
X30179300Y-74858425D01*
X26606900Y-74858425D01*
X26606900Y-74834625D01*
X26569384Y-74694615D01*
X26569382Y-74694612D01*
X26569382Y-74694610D01*
X26496912Y-74569089D01*
X26496910Y-74569087D01*
X26496909Y-74569085D01*
X26394415Y-74466591D01*
X26394412Y-74466589D01*
X26394410Y-74466587D01*
X26268888Y-74394117D01*
X26268889Y-74394117D01*
X26217697Y-74380400D01*
X26128875Y-74356600D01*
X25983925Y-74356600D01*
X25922190Y-74373141D01*
X25843910Y-74394117D01*
X25718389Y-74466587D01*
X25615887Y-74569089D01*
X25543417Y-74694610D01*
X25505900Y-74834625D01*
X20000500Y-74834625D01*
X20000500Y-70982825D01*
X39104800Y-70982825D01*
X39104800Y-71127774D01*
X39142317Y-71267789D01*
X39214787Y-71393310D01*
X39214789Y-71393312D01*
X39214791Y-71393315D01*
X39317285Y-71495809D01*
X39317287Y-71495810D01*
X39317289Y-71495812D01*
X39442811Y-71568282D01*
X39442812Y-71568282D01*
X39442815Y-71568284D01*
X39582825Y-71605800D01*
X39582826Y-71605800D01*
X39727774Y-71605800D01*
X39727775Y-71605800D01*
X39867785Y-71568284D01*
X39867787Y-71568282D01*
X39867789Y-71568282D01*
X39993310Y-71495812D01*
X39993310Y-71495811D01*
X39993315Y-71495809D01*
X40095809Y-71393315D01*
X40168284Y-71267785D01*
X40205800Y-71127775D01*
X40205800Y-70982825D01*
X40168284Y-70842815D01*
X40168282Y-70842812D01*
X40168282Y-70842810D01*
X40095812Y-70717289D01*
X40095810Y-70717287D01*
X40095809Y-70717285D01*
X39993315Y-70614791D01*
X39993312Y-70614789D01*
X39993310Y-70614787D01*
X39867788Y-70542317D01*
X39867789Y-70542317D01*
X39838196Y-70534387D01*
X39727775Y-70504800D01*
X39582825Y-70504800D01*
X39521090Y-70521341D01*
X39442810Y-70542317D01*
X39317289Y-70614787D01*
X39214787Y-70717289D01*
X39142317Y-70842810D01*
X39104800Y-70982825D01*
X20000500Y-70982825D01*
X20000500Y-68376725D01*
X40299500Y-68376725D01*
X40299500Y-68521674D01*
X40337017Y-68661689D01*
X40409487Y-68787210D01*
X40409489Y-68787212D01*
X40409491Y-68787215D01*
X40511985Y-68889709D01*
X40511987Y-68889710D01*
X40511989Y-68889712D01*
X40637511Y-68962182D01*
X40637512Y-68962182D01*
X40637515Y-68962184D01*
X40777525Y-68999700D01*
X40777526Y-68999700D01*
X40922474Y-68999700D01*
X40922475Y-68999700D01*
X41062485Y-68962184D01*
X41062487Y-68962182D01*
X41062489Y-68962182D01*
X41188010Y-68889712D01*
X41188010Y-68889711D01*
X41188015Y-68889709D01*
X41290509Y-68787215D01*
X41306148Y-68760127D01*
X41350606Y-68683125D01*
X43192400Y-68683125D01*
X43192400Y-68828074D01*
X43229917Y-68968089D01*
X43302387Y-69093610D01*
X43302389Y-69093612D01*
X43302391Y-69093615D01*
X43404885Y-69196109D01*
X43404887Y-69196110D01*
X43404889Y-69196112D01*
X43530411Y-69268582D01*
X43530412Y-69268582D01*
X43530415Y-69268584D01*
X43670425Y-69306100D01*
X43670426Y-69306100D01*
X43815374Y-69306100D01*
X43815375Y-69306100D01*
X43955385Y-69268584D01*
X43955387Y-69268582D01*
X43955389Y-69268582D01*
X44080910Y-69196112D01*
X44080910Y-69196111D01*
X44080915Y-69196109D01*
X44183409Y-69093615D01*
X44183412Y-69093610D01*
X44255882Y-68968089D01*
X44255882Y-68968087D01*
X44255884Y-68968085D01*
X44293400Y-68828075D01*
X44293400Y-68683125D01*
X44255884Y-68543115D01*
X44255882Y-68543112D01*
X44255882Y-68543110D01*
X44183412Y-68417589D01*
X44183410Y-68417587D01*
X44183409Y-68417585D01*
X44080915Y-68315091D01*
X44080912Y-68315089D01*
X44080910Y-68315087D01*
X43955388Y-68242617D01*
X43955389Y-68242617D01*
X43925796Y-68234687D01*
X43815375Y-68205100D01*
X43670425Y-68205100D01*
X43608690Y-68221641D01*
X43530410Y-68242617D01*
X43404889Y-68315087D01*
X43302387Y-68417589D01*
X43229917Y-68543110D01*
X43192400Y-68683125D01*
X41350606Y-68683125D01*
X41362982Y-68661689D01*
X41362982Y-68661687D01*
X41362984Y-68661685D01*
X41400500Y-68521675D01*
X41400500Y-68376725D01*
X41362984Y-68236715D01*
X41362982Y-68236712D01*
X41362982Y-68236710D01*
X41290512Y-68111189D01*
X41290510Y-68111187D01*
X41290509Y-68111185D01*
X41188015Y-68008691D01*
X41188012Y-68008689D01*
X41188010Y-68008687D01*
X41062488Y-67936217D01*
X41062489Y-67936217D01*
X41032896Y-67928287D01*
X40922475Y-67898700D01*
X40777525Y-67898700D01*
X40715790Y-67915241D01*
X40637510Y-67936217D01*
X40511989Y-68008687D01*
X40409487Y-68111189D01*
X40337017Y-68236710D01*
X40299500Y-68376725D01*
X20000500Y-68376725D01*
X20000500Y-66534625D01*
X25505900Y-66534625D01*
X25505900Y-66679574D01*
X25543417Y-66819589D01*
X25615887Y-66945110D01*
X25615889Y-66945112D01*
X25615891Y-66945115D01*
X25718385Y-67047609D01*
X25718387Y-67047610D01*
X25718389Y-67047612D01*
X25843911Y-67120082D01*
X25843912Y-67120082D01*
X25843915Y-67120084D01*
X25983925Y-67157600D01*
X25983926Y-67157600D01*
X26128874Y-67157600D01*
X26128875Y-67157600D01*
X26268885Y-67120084D01*
X26268887Y-67120082D01*
X26268889Y-67120082D01*
X26394410Y-67047612D01*
X26394410Y-67047611D01*
X26394415Y-67047609D01*
X26496909Y-66945115D01*
X26496912Y-66945110D01*
X26569382Y-66819589D01*
X26569382Y-66819587D01*
X26569384Y-66819585D01*
X26606900Y-66679575D01*
X26606900Y-66534625D01*
X26569384Y-66394615D01*
X26569382Y-66394612D01*
X26569382Y-66394610D01*
X26496912Y-66269089D01*
X26496910Y-66269087D01*
X26496909Y-66269085D01*
X26394415Y-66166591D01*
X26394412Y-66166589D01*
X26394410Y-66166587D01*
X26268888Y-66094117D01*
X26268889Y-66094117D01*
X26239296Y-66086187D01*
X26128875Y-66056600D01*
X25983925Y-66056600D01*
X25922190Y-66073141D01*
X25843910Y-66094117D01*
X25718389Y-66166587D01*
X25615887Y-66269089D01*
X25543417Y-66394610D01*
X25505900Y-66534625D01*
X20000500Y-66534625D01*
X20000500Y-65952525D01*
X36024500Y-65952525D01*
X36024500Y-66097475D01*
X36035087Y-66136985D01*
X36062017Y-66237489D01*
X36134487Y-66363010D01*
X36134489Y-66363012D01*
X36134491Y-66363015D01*
X36236985Y-66465509D01*
X36236987Y-66465510D01*
X36236989Y-66465512D01*
X36362511Y-66537982D01*
X36362512Y-66537982D01*
X36362515Y-66537984D01*
X36502525Y-66575500D01*
X36502526Y-66575500D01*
X36647474Y-66575500D01*
X36647475Y-66575500D01*
X36787485Y-66537984D01*
X36787487Y-66537982D01*
X36787489Y-66537982D01*
X36913010Y-66465512D01*
X36913010Y-66465511D01*
X36913015Y-66465509D01*
X37015509Y-66363015D01*
X37052602Y-66298768D01*
X37087982Y-66237489D01*
X37087982Y-66237487D01*
X37087984Y-66237485D01*
X37125500Y-66097475D01*
X37125500Y-65952525D01*
X39824500Y-65952525D01*
X39824500Y-66097475D01*
X39835087Y-66136985D01*
X39862017Y-66237489D01*
X39934487Y-66363010D01*
X39934489Y-66363012D01*
X39934491Y-66363015D01*
X40036985Y-66465509D01*
X40036987Y-66465510D01*
X40036989Y-66465512D01*
X40162511Y-66537982D01*
X40162512Y-66537982D01*
X40162515Y-66537984D01*
X40302525Y-66575500D01*
X40302526Y-66575500D01*
X40447474Y-66575500D01*
X40447475Y-66575500D01*
X40587485Y-66537984D01*
X40587487Y-66537982D01*
X40587489Y-66537982D01*
X40713010Y-66465512D01*
X40713010Y-66465511D01*
X40713015Y-66465509D01*
X40775999Y-66402525D01*
X44274500Y-66402525D01*
X44274500Y-66547475D01*
X44304087Y-66657896D01*
X44312017Y-66687489D01*
X44384487Y-66813010D01*
X44384489Y-66813012D01*
X44384491Y-66813015D01*
X44486985Y-66915509D01*
X44486987Y-66915510D01*
X44486989Y-66915512D01*
X44612511Y-66987982D01*
X44612512Y-66987982D01*
X44612515Y-66987984D01*
X44752525Y-67025500D01*
X44752526Y-67025500D01*
X44897474Y-67025500D01*
X44897475Y-67025500D01*
X45037485Y-66987984D01*
X45037487Y-66987982D01*
X45037489Y-66987982D01*
X45163010Y-66915512D01*
X45163010Y-66915511D01*
X45163015Y-66915509D01*
X45265509Y-66813015D01*
X45337984Y-66687485D01*
X45375500Y-66547475D01*
X45375500Y-66402525D01*
X45337984Y-66262515D01*
X45337982Y-66262512D01*
X45337982Y-66262510D01*
X45265512Y-66136989D01*
X45265510Y-66136987D01*
X45265509Y-66136985D01*
X45163015Y-66034491D01*
X45163012Y-66034489D01*
X45163010Y-66034487D01*
X45037488Y-65962017D01*
X45037489Y-65962017D01*
X45007896Y-65954087D01*
X44897475Y-65924500D01*
X44752525Y-65924500D01*
X44690790Y-65941041D01*
X44612510Y-65962017D01*
X44486989Y-66034487D01*
X44384487Y-66136989D01*
X44312017Y-66262510D01*
X44275020Y-66400585D01*
X44274500Y-66402525D01*
X40775999Y-66402525D01*
X40815509Y-66363015D01*
X40815512Y-66363010D01*
X40825024Y-66346536D01*
X40887982Y-66237489D01*
X40887982Y-66237487D01*
X40887984Y-66237485D01*
X40925500Y-66097475D01*
X40925500Y-65952525D01*
X40887984Y-65812515D01*
X40887982Y-65812512D01*
X40887982Y-65812510D01*
X40815512Y-65686989D01*
X40815510Y-65686987D01*
X40815509Y-65686985D01*
X40713015Y-65584491D01*
X40713012Y-65584489D01*
X40713010Y-65584487D01*
X40587488Y-65512017D01*
X40587489Y-65512017D01*
X40557896Y-65504087D01*
X40447475Y-65474500D01*
X40302525Y-65474500D01*
X40240790Y-65491041D01*
X40162510Y-65512017D01*
X40036989Y-65584487D01*
X39934487Y-65686989D01*
X39862017Y-65812510D01*
X39832009Y-65924500D01*
X39824500Y-65952525D01*
X37125500Y-65952525D01*
X37087984Y-65812515D01*
X37087982Y-65812512D01*
X37087982Y-65812510D01*
X37015512Y-65686989D01*
X37015510Y-65686987D01*
X37015509Y-65686985D01*
X36913015Y-65584491D01*
X36913012Y-65584489D01*
X36913010Y-65584487D01*
X36787488Y-65512017D01*
X36787489Y-65512017D01*
X36757896Y-65504087D01*
X36647475Y-65474500D01*
X36502525Y-65474500D01*
X36440790Y-65491041D01*
X36362510Y-65512017D01*
X36236989Y-65584487D01*
X36134487Y-65686989D01*
X36062017Y-65812510D01*
X36032009Y-65924500D01*
X36024500Y-65952525D01*
X20000500Y-65952525D01*
X20000500Y-63452525D01*
X43624500Y-63452525D01*
X43624500Y-63597475D01*
X43632304Y-63626598D01*
X43662017Y-63737489D01*
X43734487Y-63863010D01*
X43734489Y-63863012D01*
X43734491Y-63863015D01*
X43836985Y-63965509D01*
X43836987Y-63965510D01*
X43836989Y-63965512D01*
X43962511Y-64037982D01*
X43962512Y-64037982D01*
X43962515Y-64037984D01*
X44102525Y-64075500D01*
X44102526Y-64075500D01*
X44247474Y-64075500D01*
X44247475Y-64075500D01*
X44387485Y-64037984D01*
X44387487Y-64037982D01*
X44387489Y-64037982D01*
X44513010Y-63965512D01*
X44513010Y-63965511D01*
X44513015Y-63965509D01*
X44615509Y-63863015D01*
X44615512Y-63863010D01*
X44687982Y-63737489D01*
X44687982Y-63737487D01*
X44687984Y-63737485D01*
X44725500Y-63597475D01*
X44725500Y-63452525D01*
X44687984Y-63312515D01*
X44687982Y-63312512D01*
X44687982Y-63312510D01*
X44615512Y-63186989D01*
X44615510Y-63186987D01*
X44615509Y-63186985D01*
X44513015Y-63084491D01*
X44513012Y-63084489D01*
X44513010Y-63084487D01*
X44387488Y-63012017D01*
X44387489Y-63012017D01*
X44340454Y-62999414D01*
X44247475Y-62974500D01*
X44102525Y-62974500D01*
X44040790Y-62991041D01*
X43962510Y-63012017D01*
X43836989Y-63084487D01*
X43734487Y-63186989D01*
X43662017Y-63312510D01*
X43662016Y-63312515D01*
X43624500Y-63452525D01*
X20000500Y-63452525D01*
X20000500Y-62599500D01*
X20019407Y-62541309D01*
X20068907Y-62505345D01*
X20099500Y-62500500D01*
X40065890Y-62500500D01*
X40065892Y-62500500D01*
X40193186Y-62466392D01*
X40193188Y-62466390D01*
X40193190Y-62466390D01*
X40307309Y-62400503D01*
X40307309Y-62400502D01*
X40307314Y-62400500D01*
X40400500Y-62307314D01*
X40466392Y-62193186D01*
X40500500Y-62065892D01*
X40500500Y-60434108D01*
X40466392Y-60306814D01*
X40466390Y-60306811D01*
X40466390Y-60306809D01*
X40400503Y-60192690D01*
X40400501Y-60192688D01*
X40400500Y-60192686D01*
X40307314Y-60099500D01*
X40307311Y-60099498D01*
X40307309Y-60099496D01*
X40193189Y-60033609D01*
X40193191Y-60033609D01*
X40143799Y-60020375D01*
X40065892Y-59999500D01*
X18065892Y-59999500D01*
X17934108Y-59999500D01*
X17856200Y-60020375D01*
X17806809Y-60033609D01*
X17692690Y-60099496D01*
X17599496Y-60192690D01*
X17533609Y-60306809D01*
X17499500Y-60434109D01*
X17499500Y-79400500D01*
X17480593Y-79458691D01*
X17431093Y-79494655D01*
X17400500Y-79499500D01*
X599500Y-79499500D01*
X541309Y-79480593D01*
X505345Y-79431093D01*
X500500Y-79400500D01*
X500500Y-75875433D01*
X2099500Y-75875433D01*
X2099500Y-76124566D01*
X2132017Y-76371557D01*
X2132017Y-76371562D01*
X2196496Y-76612199D01*
X2196500Y-76612212D01*
X2291832Y-76842365D01*
X2291834Y-76842369D01*
X2291836Y-76842373D01*
X2371872Y-76981000D01*
X2416403Y-77058130D01*
X2568056Y-77255769D01*
X2568058Y-77255771D01*
X2568062Y-77255776D01*
X2744224Y-77431938D01*
X2744228Y-77431941D01*
X2744230Y-77431943D01*
X2784039Y-77462489D01*
X2941873Y-77583599D01*
X3157627Y-77708164D01*
X3387793Y-77803502D01*
X3628435Y-77867982D01*
X3875435Y-77900500D01*
X3875436Y-77900500D01*
X4124564Y-77900500D01*
X4124565Y-77900500D01*
X4371565Y-77867982D01*
X4612207Y-77803502D01*
X4842373Y-77708164D01*
X5058127Y-77583599D01*
X5255776Y-77431938D01*
X5431938Y-77255776D01*
X5583599Y-77058127D01*
X5708164Y-76842373D01*
X5803502Y-76612207D01*
X5867982Y-76371565D01*
X5900500Y-76124565D01*
X5900500Y-75875435D01*
X5867982Y-75628435D01*
X5803502Y-75387793D01*
X5708164Y-75157627D01*
X5583599Y-74941873D01*
X5431938Y-74744224D01*
X5255776Y-74568062D01*
X5255771Y-74568058D01*
X5255769Y-74568056D01*
X5058130Y-74416403D01*
X5058127Y-74416401D01*
X4842373Y-74291836D01*
X4842369Y-74291834D01*
X4842365Y-74291832D01*
X4612212Y-74196500D01*
X4612211Y-74196499D01*
X4612207Y-74196498D01*
X4371565Y-74132018D01*
X4371562Y-74132017D01*
X4371560Y-74132017D01*
X4124566Y-74099500D01*
X4124565Y-74099500D01*
X3875435Y-74099500D01*
X3875433Y-74099500D01*
X3628442Y-74132017D01*
X3628437Y-74132017D01*
X3387800Y-74196496D01*
X3387787Y-74196500D01*
X3157634Y-74291832D01*
X2941869Y-74416403D01*
X2744230Y-74568056D01*
X2568056Y-74744230D01*
X2416403Y-74941869D01*
X2291832Y-75157634D01*
X2196500Y-75387787D01*
X2196496Y-75387800D01*
X2132017Y-75628437D01*
X2132017Y-75628442D01*
X2099500Y-75875433D01*
X500500Y-75875433D01*
X500500Y-65825925D01*
X7255400Y-65825925D01*
X7255400Y-65970874D01*
X7292917Y-66110889D01*
X7365387Y-66236410D01*
X7365389Y-66236412D01*
X7365391Y-66236415D01*
X7467885Y-66338909D01*
X7467887Y-66338910D01*
X7467889Y-66338912D01*
X7593411Y-66411382D01*
X7593412Y-66411382D01*
X7593415Y-66411384D01*
X7733425Y-66448900D01*
X7733426Y-66448900D01*
X7878374Y-66448900D01*
X7878375Y-66448900D01*
X8018385Y-66411384D01*
X8018387Y-66411382D01*
X8018389Y-66411382D01*
X8143910Y-66338912D01*
X8143910Y-66338911D01*
X8143915Y-66338909D01*
X8246409Y-66236415D01*
X8286722Y-66166591D01*
X8318882Y-66110889D01*
X8318882Y-66110887D01*
X8318884Y-66110885D01*
X8356400Y-65970875D01*
X8356400Y-65825925D01*
X8318884Y-65685915D01*
X8318882Y-65685912D01*
X8318882Y-65685910D01*
X8246412Y-65560389D01*
X8246410Y-65560387D01*
X8246409Y-65560385D01*
X8143915Y-65457891D01*
X8143912Y-65457889D01*
X8143910Y-65457887D01*
X8018388Y-65385417D01*
X8018389Y-65385417D01*
X7988796Y-65377487D01*
X7878375Y-65347900D01*
X7733425Y-65347900D01*
X7671690Y-65364441D01*
X7593410Y-65385417D01*
X7467889Y-65457887D01*
X7365387Y-65560389D01*
X7292917Y-65685910D01*
X7255400Y-65825925D01*
X500500Y-65825925D01*
X500500Y-61993385D01*
X3399500Y-61993385D01*
X3399500Y-62166614D01*
X3426597Y-62337702D01*
X3426598Y-62337706D01*
X3480123Y-62502438D01*
X3480125Y-62502441D01*
X3529578Y-62599500D01*
X3558768Y-62656788D01*
X3660586Y-62796928D01*
X3783072Y-62919414D01*
X3923212Y-63021232D01*
X4077555Y-63099873D01*
X4077557Y-63099873D01*
X4077558Y-63099874D01*
X4077561Y-63099876D01*
X4242293Y-63153401D01*
X4242297Y-63153402D01*
X4413386Y-63180500D01*
X4413389Y-63180500D01*
X4586614Y-63180500D01*
X4757702Y-63153402D01*
X4757706Y-63153401D01*
X4922438Y-63099876D01*
X4922440Y-63099874D01*
X4922445Y-63099873D01*
X5076788Y-63021232D01*
X5216928Y-62919414D01*
X5339414Y-62796928D01*
X5441232Y-62656788D01*
X5519873Y-62502445D01*
X5519874Y-62502440D01*
X5519876Y-62502438D01*
X5573401Y-62337706D01*
X5573402Y-62337702D01*
X5600500Y-62166614D01*
X5600500Y-61993385D01*
X10899500Y-61993385D01*
X10899500Y-62166614D01*
X10926597Y-62337702D01*
X10926598Y-62337706D01*
X10980123Y-62502438D01*
X10980125Y-62502441D01*
X11029578Y-62599500D01*
X11058768Y-62656788D01*
X11160586Y-62796928D01*
X11283072Y-62919414D01*
X11423212Y-63021232D01*
X11577555Y-63099873D01*
X11577557Y-63099873D01*
X11577558Y-63099874D01*
X11577561Y-63099876D01*
X11742293Y-63153401D01*
X11742297Y-63153402D01*
X11913386Y-63180500D01*
X11913389Y-63180500D01*
X12086614Y-63180500D01*
X12257702Y-63153402D01*
X12257706Y-63153401D01*
X12422438Y-63099876D01*
X12422440Y-63099874D01*
X12422445Y-63099873D01*
X12576788Y-63021232D01*
X12716928Y-62919414D01*
X12839414Y-62796928D01*
X12941232Y-62656788D01*
X13019873Y-62502445D01*
X13019874Y-62502440D01*
X13019876Y-62502438D01*
X13073401Y-62337706D01*
X13073402Y-62337702D01*
X13100500Y-62166614D01*
X13100500Y-61993385D01*
X13073402Y-61822297D01*
X13073401Y-61822293D01*
X13019876Y-61657561D01*
X13019874Y-61657558D01*
X13019873Y-61657557D01*
X13019873Y-61657555D01*
X12941232Y-61503212D01*
X12839414Y-61363072D01*
X12716928Y-61240586D01*
X12576788Y-61138768D01*
X12576787Y-61138767D01*
X12576785Y-61138766D01*
X12422441Y-61060125D01*
X12422438Y-61060123D01*
X12257706Y-61006598D01*
X12257702Y-61006597D01*
X12086614Y-60979500D01*
X12086611Y-60979500D01*
X11913389Y-60979500D01*
X11913386Y-60979500D01*
X11742297Y-61006597D01*
X11742293Y-61006598D01*
X11577561Y-61060123D01*
X11577558Y-61060125D01*
X11423214Y-61138766D01*
X11283073Y-61240585D01*
X11160585Y-61363073D01*
X11058766Y-61503214D01*
X10980125Y-61657558D01*
X10980123Y-61657561D01*
X10926598Y-61822293D01*
X10926597Y-61822297D01*
X10899500Y-61993385D01*
X5600500Y-61993385D01*
X5573402Y-61822297D01*
X5573401Y-61822293D01*
X5519876Y-61657561D01*
X5519874Y-61657558D01*
X5519873Y-61657557D01*
X5519873Y-61657555D01*
X5441232Y-61503212D01*
X5339414Y-61363072D01*
X5216928Y-61240586D01*
X5076788Y-61138768D01*
X5076787Y-61138767D01*
X5076785Y-61138766D01*
X4922441Y-61060125D01*
X4922438Y-61060123D01*
X4757706Y-61006598D01*
X4757702Y-61006597D01*
X4586614Y-60979500D01*
X4586611Y-60979500D01*
X4413389Y-60979500D01*
X4413386Y-60979500D01*
X4242297Y-61006597D01*
X4242293Y-61006598D01*
X4077561Y-61060123D01*
X4077558Y-61060125D01*
X3923214Y-61138766D01*
X3783073Y-61240585D01*
X3660585Y-61363073D01*
X3558766Y-61503214D01*
X3480125Y-61657558D01*
X3480123Y-61657561D01*
X3426598Y-61822293D01*
X3426597Y-61822297D01*
X3399500Y-61993385D01*
X500500Y-61993385D01*
X500500Y-59449489D01*
X3350000Y-59449489D01*
X3350000Y-59630510D01*
X3378316Y-59809289D01*
X3434250Y-59981440D01*
X3516430Y-60142728D01*
X3557667Y-60199488D01*
X4031980Y-59725174D01*
X4034075Y-59732993D01*
X4099901Y-59847007D01*
X4192993Y-59940099D01*
X4307007Y-60005925D01*
X4314821Y-60008019D01*
X3840511Y-60482330D01*
X3897275Y-60523571D01*
X4058559Y-60605749D01*
X4230710Y-60661683D01*
X4409490Y-60690000D01*
X4590510Y-60690000D01*
X4769289Y-60661683D01*
X4941440Y-60605749D01*
X5102728Y-60523569D01*
X5159487Y-60482330D01*
X4685176Y-60008019D01*
X4692993Y-60005925D01*
X4807007Y-59940099D01*
X4900099Y-59847007D01*
X4965925Y-59732993D01*
X4968019Y-59725176D01*
X5442330Y-60199487D01*
X5483569Y-60142728D01*
X5565749Y-59981440D01*
X5621683Y-59809289D01*
X5650000Y-59630510D01*
X5650000Y-59449489D01*
X10850000Y-59449489D01*
X10850000Y-59630510D01*
X10878316Y-59809289D01*
X10934250Y-59981440D01*
X11016430Y-60142728D01*
X11057667Y-60199488D01*
X11531980Y-59725174D01*
X11534075Y-59732993D01*
X11599901Y-59847007D01*
X11692993Y-59940099D01*
X11807007Y-60005925D01*
X11814821Y-60008019D01*
X11340511Y-60482330D01*
X11397275Y-60523571D01*
X11558559Y-60605749D01*
X11730710Y-60661683D01*
X11909490Y-60690000D01*
X12090510Y-60690000D01*
X12269289Y-60661683D01*
X12441440Y-60605749D01*
X12602728Y-60523569D01*
X12659487Y-60482330D01*
X12185176Y-60008019D01*
X12192993Y-60005925D01*
X12307007Y-59940099D01*
X12400099Y-59847007D01*
X12465925Y-59732993D01*
X12468019Y-59725176D01*
X12942330Y-60199487D01*
X12983569Y-60142728D01*
X13065749Y-59981440D01*
X13121683Y-59809289D01*
X13150000Y-59630510D01*
X13150000Y-59449489D01*
X13121683Y-59270710D01*
X13065749Y-59098559D01*
X12983571Y-58937275D01*
X12942330Y-58880511D01*
X12468019Y-59354821D01*
X12465925Y-59347007D01*
X12400099Y-59232993D01*
X12307007Y-59139901D01*
X12192993Y-59074075D01*
X12185174Y-59071980D01*
X12659488Y-58597667D01*
X12602728Y-58556430D01*
X12441440Y-58474250D01*
X12269289Y-58418316D01*
X12090510Y-58390000D01*
X11909490Y-58390000D01*
X11730710Y-58418316D01*
X11558559Y-58474250D01*
X11397267Y-58556432D01*
X11340510Y-58597667D01*
X11814823Y-59071980D01*
X11807007Y-59074075D01*
X11692993Y-59139901D01*
X11599901Y-59232993D01*
X11534075Y-59347007D01*
X11531980Y-59354823D01*
X11057667Y-58880510D01*
X11016432Y-58937267D01*
X10934250Y-59098559D01*
X10878316Y-59270710D01*
X10850000Y-59449489D01*
X5650000Y-59449489D01*
X5621683Y-59270710D01*
X5565749Y-59098559D01*
X5483571Y-58937275D01*
X5442330Y-58880511D01*
X4968019Y-59354821D01*
X4965925Y-59347007D01*
X4900099Y-59232993D01*
X4807007Y-59139901D01*
X4692993Y-59074075D01*
X4685174Y-59071980D01*
X5159488Y-58597667D01*
X5102728Y-58556430D01*
X4941440Y-58474250D01*
X4769289Y-58418316D01*
X4590510Y-58390000D01*
X4409490Y-58390000D01*
X4230710Y-58418316D01*
X4058559Y-58474250D01*
X3897267Y-58556432D01*
X3840510Y-58597667D01*
X4314823Y-59071980D01*
X4307007Y-59074075D01*
X4192993Y-59139901D01*
X4099901Y-59232993D01*
X4034075Y-59347007D01*
X4031980Y-59354823D01*
X3557667Y-58880510D01*
X3516432Y-58937267D01*
X3434250Y-59098559D01*
X3378316Y-59270710D01*
X3350000Y-59449489D01*
X500500Y-59449489D01*
X500500Y-56125327D01*
X3399500Y-56125327D01*
X3399500Y-57874672D01*
X3399501Y-57874684D01*
X3414033Y-57947736D01*
X3414035Y-57947742D01*
X3469397Y-58030599D01*
X3469399Y-58030601D01*
X3552260Y-58085966D01*
X3607808Y-58097015D01*
X3625315Y-58100498D01*
X3625320Y-58100498D01*
X3625326Y-58100500D01*
X3625327Y-58100500D01*
X5374673Y-58100500D01*
X5374674Y-58100500D01*
X5447740Y-58085966D01*
X5530601Y-58030601D01*
X5585966Y-57947740D01*
X5600500Y-57874674D01*
X5600500Y-56125327D01*
X10899500Y-56125327D01*
X10899500Y-57874672D01*
X10899501Y-57874684D01*
X10914033Y-57947736D01*
X10914035Y-57947742D01*
X10969397Y-58030599D01*
X10969399Y-58030601D01*
X11052260Y-58085966D01*
X11107808Y-58097015D01*
X11125315Y-58100498D01*
X11125320Y-58100498D01*
X11125326Y-58100500D01*
X11125327Y-58100500D01*
X12874673Y-58100500D01*
X12874674Y-58100500D01*
X12947740Y-58085966D01*
X13030601Y-58030601D01*
X13085966Y-57947740D01*
X13100500Y-57874674D01*
X13100500Y-56477525D01*
X24949500Y-56477525D01*
X24949500Y-56622475D01*
X24979087Y-56732896D01*
X24987017Y-56762489D01*
X25059487Y-56888010D01*
X25059489Y-56888012D01*
X25059491Y-56888015D01*
X25161985Y-56990509D01*
X25161987Y-56990510D01*
X25161989Y-56990512D01*
X25287511Y-57062982D01*
X25287512Y-57062982D01*
X25287515Y-57062984D01*
X25427525Y-57100500D01*
X25427526Y-57100500D01*
X25572474Y-57100500D01*
X25572475Y-57100500D01*
X25712485Y-57062984D01*
X25712487Y-57062982D01*
X25712489Y-57062982D01*
X25838010Y-56990512D01*
X25838010Y-56990511D01*
X25838015Y-56990509D01*
X25929998Y-56898525D01*
X25984513Y-56870750D01*
X26044945Y-56880321D01*
X26070000Y-56898524D01*
X26161985Y-56990509D01*
X26161987Y-56990510D01*
X26161989Y-56990512D01*
X26287511Y-57062982D01*
X26287512Y-57062982D01*
X26287515Y-57062984D01*
X26427525Y-57100500D01*
X26427526Y-57100500D01*
X26572474Y-57100500D01*
X26572475Y-57100500D01*
X26712485Y-57062984D01*
X26712487Y-57062982D01*
X26712489Y-57062982D01*
X26838010Y-56990512D01*
X26838010Y-56990511D01*
X26838015Y-56990509D01*
X26940509Y-56888015D01*
X26978450Y-56822299D01*
X27012982Y-56762489D01*
X27012982Y-56762487D01*
X27012984Y-56762485D01*
X27050500Y-56622475D01*
X27050500Y-56477525D01*
X27012984Y-56337515D01*
X27012982Y-56337512D01*
X27012982Y-56337510D01*
X26940512Y-56211989D01*
X26940510Y-56211987D01*
X26940509Y-56211985D01*
X26838015Y-56109491D01*
X26838012Y-56109489D01*
X26838010Y-56109487D01*
X26712488Y-56037017D01*
X26712489Y-56037017D01*
X26682896Y-56029087D01*
X26572475Y-55999500D01*
X26427525Y-55999500D01*
X26365790Y-56016041D01*
X26287510Y-56037017D01*
X26161989Y-56109487D01*
X26161988Y-56109488D01*
X26161985Y-56109490D01*
X26161985Y-56109491D01*
X26070001Y-56201474D01*
X26015487Y-56229250D01*
X25955055Y-56219679D01*
X25929999Y-56201475D01*
X25838015Y-56109491D01*
X25838012Y-56109489D01*
X25838010Y-56109487D01*
X25712488Y-56037017D01*
X25712489Y-56037017D01*
X25682896Y-56029087D01*
X25572475Y-55999500D01*
X25427525Y-55999500D01*
X25365790Y-56016041D01*
X25287510Y-56037017D01*
X25161989Y-56109487D01*
X25059487Y-56211989D01*
X24987017Y-56337510D01*
X24949500Y-56477525D01*
X13100500Y-56477525D01*
X13100500Y-56125326D01*
X13085966Y-56052260D01*
X13075781Y-56037017D01*
X13030602Y-55969400D01*
X13030599Y-55969397D01*
X12947742Y-55914035D01*
X12947740Y-55914034D01*
X12947737Y-55914033D01*
X12947736Y-55914033D01*
X12874684Y-55899501D01*
X12874674Y-55899500D01*
X11125326Y-55899500D01*
X11125325Y-55899500D01*
X11125315Y-55899501D01*
X11052263Y-55914033D01*
X11052257Y-55914035D01*
X10969400Y-55969397D01*
X10969397Y-55969400D01*
X10914035Y-56052257D01*
X10914033Y-56052263D01*
X10899501Y-56125315D01*
X10899500Y-56125327D01*
X5600500Y-56125327D01*
X5600500Y-56125326D01*
X5585966Y-56052260D01*
X5575781Y-56037017D01*
X5530602Y-55969400D01*
X5530599Y-55969397D01*
X5447742Y-55914035D01*
X5447740Y-55914034D01*
X5447737Y-55914033D01*
X5447736Y-55914033D01*
X5374684Y-55899501D01*
X5374674Y-55899500D01*
X3625326Y-55899500D01*
X3625325Y-55899500D01*
X3625315Y-55899501D01*
X3552263Y-55914033D01*
X3552257Y-55914035D01*
X3469400Y-55969397D01*
X3469397Y-55969400D01*
X3414035Y-56052257D01*
X3414033Y-56052263D01*
X3399501Y-56125315D01*
X3399500Y-56125327D01*
X500500Y-56125327D01*
X500500Y-54377525D01*
X24949500Y-54377525D01*
X24949500Y-54522475D01*
X24963632Y-54575215D01*
X24987017Y-54662489D01*
X25059487Y-54788010D01*
X25059489Y-54788012D01*
X25059491Y-54788015D01*
X25161985Y-54890509D01*
X25161987Y-54890510D01*
X25161989Y-54890512D01*
X25287511Y-54962982D01*
X25287512Y-54962982D01*
X25287515Y-54962984D01*
X25427525Y-55000500D01*
X25427526Y-55000500D01*
X25572474Y-55000500D01*
X25572475Y-55000500D01*
X25712485Y-54962984D01*
X25712487Y-54962982D01*
X25712489Y-54962982D01*
X25838010Y-54890512D01*
X25838010Y-54890511D01*
X25838015Y-54890509D01*
X25929998Y-54798525D01*
X25984513Y-54770750D01*
X26044945Y-54780321D01*
X26070000Y-54798524D01*
X26161985Y-54890509D01*
X26161987Y-54890510D01*
X26161989Y-54890512D01*
X26287511Y-54962982D01*
X26287512Y-54962982D01*
X26287515Y-54962984D01*
X26427525Y-55000500D01*
X26427526Y-55000500D01*
X26572474Y-55000500D01*
X26572475Y-55000500D01*
X26712485Y-54962984D01*
X26712487Y-54962982D01*
X26712489Y-54962982D01*
X26838010Y-54890512D01*
X26838010Y-54890511D01*
X26838015Y-54890509D01*
X26940509Y-54788015D01*
X27004193Y-54677712D01*
X27012982Y-54662489D01*
X27012982Y-54662487D01*
X27012984Y-54662485D01*
X27050500Y-54522475D01*
X27050500Y-54377525D01*
X27012984Y-54237515D01*
X27012982Y-54237512D01*
X27012982Y-54237510D01*
X26940512Y-54111989D01*
X26940510Y-54111987D01*
X26940509Y-54111985D01*
X26838015Y-54009491D01*
X26838012Y-54009489D01*
X26838010Y-54009487D01*
X26712488Y-53937017D01*
X26712489Y-53937017D01*
X26682896Y-53929087D01*
X26572475Y-53899500D01*
X26427525Y-53899500D01*
X26365790Y-53916041D01*
X26287510Y-53937017D01*
X26161989Y-54009487D01*
X26161988Y-54009488D01*
X26161985Y-54009490D01*
X26161985Y-54009491D01*
X26070001Y-54101474D01*
X26015487Y-54129250D01*
X25955055Y-54119679D01*
X25929999Y-54101475D01*
X25838015Y-54009491D01*
X25838012Y-54009489D01*
X25838010Y-54009487D01*
X25712488Y-53937017D01*
X25712489Y-53937017D01*
X25682896Y-53929087D01*
X25572475Y-53899500D01*
X25427525Y-53899500D01*
X25365790Y-53916041D01*
X25287510Y-53937017D01*
X25161989Y-54009487D01*
X25059487Y-54111989D01*
X24987017Y-54237510D01*
X24949500Y-54377525D01*
X500500Y-54377525D01*
X500500Y-52989489D01*
X3350000Y-52989489D01*
X3350000Y-53170510D01*
X3378316Y-53349289D01*
X3434250Y-53521440D01*
X3516430Y-53682728D01*
X3557667Y-53739488D01*
X4031980Y-53265174D01*
X4034075Y-53272993D01*
X4099901Y-53387007D01*
X4192993Y-53480099D01*
X4307007Y-53545925D01*
X4314821Y-53548019D01*
X3840511Y-54022330D01*
X3897275Y-54063571D01*
X4058559Y-54145749D01*
X4230710Y-54201683D01*
X4409490Y-54230000D01*
X4590510Y-54230000D01*
X4769289Y-54201683D01*
X4941440Y-54145749D01*
X5102728Y-54063569D01*
X5159487Y-54022330D01*
X4685176Y-53548019D01*
X4692993Y-53545925D01*
X4807007Y-53480099D01*
X4900099Y-53387007D01*
X4965925Y-53272993D01*
X4968019Y-53265176D01*
X5442330Y-53739487D01*
X5483569Y-53682728D01*
X5565749Y-53521440D01*
X5621683Y-53349289D01*
X5650000Y-53170510D01*
X5650000Y-52989489D01*
X5621683Y-52810710D01*
X5565749Y-52638559D01*
X5483571Y-52477275D01*
X5442330Y-52420511D01*
X4968019Y-52894821D01*
X4965925Y-52887007D01*
X4900099Y-52772993D01*
X4807007Y-52679901D01*
X4692993Y-52614075D01*
X4685174Y-52611980D01*
X5159488Y-52137667D01*
X5102728Y-52096430D01*
X4941440Y-52014250D01*
X4769289Y-51958316D01*
X4590510Y-51930000D01*
X4409490Y-51930000D01*
X4230710Y-51958316D01*
X4058559Y-52014250D01*
X3897267Y-52096432D01*
X3840510Y-52137667D01*
X4314823Y-52611980D01*
X4307007Y-52614075D01*
X4192993Y-52679901D01*
X4099901Y-52772993D01*
X4034075Y-52887007D01*
X4031980Y-52894823D01*
X3557667Y-52420510D01*
X3516432Y-52477267D01*
X3434250Y-52638559D01*
X3378316Y-52810710D01*
X3350000Y-52989489D01*
X500500Y-52989489D01*
X500500Y-50453385D01*
X3399500Y-50453385D01*
X3399500Y-50626614D01*
X3426597Y-50797702D01*
X3426598Y-50797706D01*
X3480123Y-50962438D01*
X3480125Y-50962441D01*
X3552868Y-51105210D01*
X3558768Y-51116788D01*
X3660586Y-51256928D01*
X3783072Y-51379414D01*
X3923212Y-51481232D01*
X4077555Y-51559873D01*
X4077557Y-51559873D01*
X4077558Y-51559874D01*
X4077561Y-51559876D01*
X4242293Y-51613401D01*
X4242297Y-51613402D01*
X4413386Y-51640500D01*
X4413389Y-51640500D01*
X4586614Y-51640500D01*
X4757702Y-51613402D01*
X4757706Y-51613401D01*
X4922438Y-51559876D01*
X4922440Y-51559874D01*
X4922445Y-51559873D01*
X5076788Y-51481232D01*
X5216928Y-51379414D01*
X5339414Y-51256928D01*
X5441232Y-51116788D01*
X5519873Y-50962445D01*
X5519874Y-50962440D01*
X5519876Y-50962438D01*
X5573401Y-50797706D01*
X5573402Y-50797702D01*
X5600500Y-50626614D01*
X5600500Y-50453385D01*
X5573402Y-50282297D01*
X5573401Y-50282293D01*
X5519876Y-50117561D01*
X5519874Y-50117558D01*
X5519873Y-50117557D01*
X5519873Y-50117555D01*
X5441232Y-49963212D01*
X5339414Y-49823072D01*
X5216928Y-49700586D01*
X5076788Y-49598768D01*
X5076787Y-49598767D01*
X5076785Y-49598766D01*
X4922441Y-49520125D01*
X4922438Y-49520123D01*
X4757706Y-49466598D01*
X4757702Y-49466597D01*
X4586614Y-49439500D01*
X4586611Y-49439500D01*
X4413389Y-49439500D01*
X4413386Y-49439500D01*
X4242297Y-49466597D01*
X4242293Y-49466598D01*
X4077561Y-49520123D01*
X4077558Y-49520125D01*
X3923214Y-49598766D01*
X3783073Y-49700585D01*
X3660585Y-49823073D01*
X3558766Y-49963214D01*
X3480125Y-50117558D01*
X3480123Y-50117561D01*
X3426598Y-50282293D01*
X3426597Y-50282297D01*
X3399500Y-50453385D01*
X500500Y-50453385D01*
X500500Y-42040878D01*
X519407Y-41982687D01*
X568907Y-41946723D01*
X630093Y-41946723D01*
X665943Y-41968695D01*
X666261Y-41968308D01*
X669066Y-41970610D01*
X669512Y-41970883D01*
X670025Y-41971396D01*
X670030Y-41971400D01*
X801050Y-42058947D01*
X801059Y-42058951D01*
X946644Y-42119254D01*
X946655Y-42119258D01*
X980000Y-42125890D01*
X980000Y-41574265D01*
X995795Y-41590060D01*
X1064204Y-41629556D01*
X1140504Y-41650000D01*
X1219496Y-41650000D01*
X1295796Y-41629556D01*
X1364205Y-41590060D01*
X1380000Y-41574265D01*
X1380000Y-42125889D01*
X1413344Y-42119258D01*
X1413355Y-42119254D01*
X1558940Y-42058951D01*
X1558949Y-42058947D01*
X1689969Y-41971400D01*
X1689973Y-41971397D01*
X1801397Y-41859973D01*
X1801400Y-41859969D01*
X1888947Y-41728949D01*
X1888951Y-41728940D01*
X1949257Y-41583349D01*
X1979999Y-41428795D01*
X1980000Y-41428792D01*
X1980000Y-41250001D01*
X1979999Y-41250000D01*
X1480000Y-41250000D01*
X1480000Y-40850000D01*
X1979999Y-40850000D01*
X1980000Y-40849999D01*
X1980000Y-40671207D01*
X1979999Y-40671204D01*
X1949257Y-40516650D01*
X1888951Y-40371059D01*
X1888947Y-40371050D01*
X1801400Y-40240030D01*
X1801397Y-40240026D01*
X1689973Y-40128602D01*
X1689969Y-40128599D01*
X1558949Y-40041052D01*
X1558940Y-40041048D01*
X1413349Y-39980742D01*
X1380000Y-39974109D01*
X1380000Y-40525735D01*
X1364205Y-40509940D01*
X1295796Y-40470444D01*
X1219496Y-40450000D01*
X1140504Y-40450000D01*
X1064204Y-40470444D01*
X995795Y-40509940D01*
X980000Y-40525735D01*
X980000Y-39974109D01*
X946650Y-39980742D01*
X801059Y-40041048D01*
X801050Y-40041052D01*
X670030Y-40128599D01*
X670026Y-40128602D01*
X669504Y-40129125D01*
X669202Y-40129278D01*
X666261Y-40131692D01*
X665731Y-40131046D01*
X614987Y-40156902D01*
X554555Y-40147331D01*
X511290Y-40104066D01*
X500500Y-40059121D01*
X500500Y-38110878D01*
X519407Y-38052687D01*
X568907Y-38016723D01*
X630093Y-38016723D01*
X665943Y-38038695D01*
X666261Y-38038308D01*
X669066Y-38040610D01*
X669512Y-38040883D01*
X670025Y-38041396D01*
X670030Y-38041400D01*
X801050Y-38128947D01*
X801059Y-38128951D01*
X946644Y-38189254D01*
X946655Y-38189258D01*
X980000Y-38195890D01*
X980000Y-37644265D01*
X995795Y-37660060D01*
X1064204Y-37699556D01*
X1140504Y-37720000D01*
X1219496Y-37720000D01*
X1295796Y-37699556D01*
X1364205Y-37660060D01*
X1380000Y-37644265D01*
X1380000Y-38195889D01*
X1413344Y-38189258D01*
X1413355Y-38189254D01*
X1558940Y-38128951D01*
X1558949Y-38128947D01*
X1689969Y-38041400D01*
X1689973Y-38041397D01*
X1801397Y-37929973D01*
X1801400Y-37929969D01*
X1888947Y-37798949D01*
X1888953Y-37798937D01*
X1908129Y-37752642D01*
X1947865Y-37706116D01*
X2007360Y-37691832D01*
X2063888Y-37715246D01*
X2081906Y-37735523D01*
X2124142Y-37798733D01*
X2211267Y-37885858D01*
X2313714Y-37954311D01*
X2427548Y-38001463D01*
X2548394Y-38025500D01*
X2548396Y-38025500D01*
X2671604Y-38025500D01*
X2671606Y-38025500D01*
X2792452Y-38001463D01*
X2906286Y-37954311D01*
X3008733Y-37885858D01*
X3095858Y-37798733D01*
X3164311Y-37696286D01*
X3211463Y-37582452D01*
X3235500Y-37461606D01*
X3235500Y-37338394D01*
X3211463Y-37217548D01*
X3164311Y-37103714D01*
X3095858Y-37001267D01*
X3008733Y-36914142D01*
X2940279Y-36868402D01*
X2906285Y-36845688D01*
X2792450Y-36798536D01*
X2671608Y-36774500D01*
X2671606Y-36774500D01*
X2548394Y-36774500D01*
X2548391Y-36774500D01*
X2427549Y-36798536D01*
X2313714Y-36845688D01*
X2211267Y-36914142D01*
X2211263Y-36914145D01*
X2124145Y-37001263D01*
X2124139Y-37001270D01*
X2105894Y-37028576D01*
X2057844Y-37066455D01*
X2021007Y-37067901D01*
X2021007Y-37070000D01*
X1480000Y-37070000D01*
X1480000Y-36670000D01*
X1979999Y-36670000D01*
X1980000Y-36669999D01*
X1980000Y-36241207D01*
X1979999Y-36241204D01*
X1949257Y-36086650D01*
X1888951Y-35941059D01*
X1888947Y-35941050D01*
X1801400Y-35810030D01*
X1801397Y-35810026D01*
X1689973Y-35698602D01*
X1689969Y-35698599D01*
X1558949Y-35611052D01*
X1558940Y-35611048D01*
X1413349Y-35550742D01*
X1380000Y-35544109D01*
X1380000Y-36095735D01*
X1364205Y-36079940D01*
X1295796Y-36040444D01*
X1219496Y-36020000D01*
X1140504Y-36020000D01*
X1064204Y-36040444D01*
X995795Y-36079940D01*
X980000Y-36095735D01*
X980000Y-35544109D01*
X946650Y-35550742D01*
X801059Y-35611048D01*
X801050Y-35611052D01*
X670030Y-35698599D01*
X670026Y-35698602D01*
X669504Y-35699125D01*
X669202Y-35699278D01*
X666261Y-35701692D01*
X665731Y-35701046D01*
X614987Y-35726902D01*
X554555Y-35717331D01*
X511290Y-35674066D01*
X500500Y-35629121D01*
X500500Y-27843425D01*
X875200Y-27843425D01*
X875200Y-27988375D01*
X891612Y-28049623D01*
X912717Y-28128389D01*
X985187Y-28253910D01*
X985189Y-28253912D01*
X985191Y-28253915D01*
X1087685Y-28356409D01*
X1087687Y-28356410D01*
X1087689Y-28356412D01*
X1213211Y-28428882D01*
X1213212Y-28428882D01*
X1213215Y-28428884D01*
X1353225Y-28466400D01*
X1353226Y-28466400D01*
X1498174Y-28466400D01*
X1498175Y-28466400D01*
X1638185Y-28428884D01*
X1638187Y-28428882D01*
X1638189Y-28428882D01*
X1763710Y-28356412D01*
X1763710Y-28356411D01*
X1763715Y-28356409D01*
X1794222Y-28325902D01*
X1824729Y-28295396D01*
X1879246Y-28267619D01*
X1894732Y-28266400D01*
X6116643Y-28266400D01*
X6116644Y-28266400D01*
X6126574Y-28263739D01*
X6187673Y-28266938D01*
X6235225Y-28305440D01*
X6251200Y-28359364D01*
X6251200Y-35120410D01*
X6232293Y-35178601D01*
X6222204Y-35190414D01*
X4657414Y-36755204D01*
X4602897Y-36782981D01*
X4587410Y-36784200D01*
X4501125Y-36784200D01*
X4462991Y-36794417D01*
X4424323Y-36804779D01*
X4363221Y-36801576D01*
X4315671Y-36763071D01*
X4299700Y-36709152D01*
X4299700Y-32398428D01*
X4318607Y-32340237D01*
X4338432Y-32319886D01*
X4339306Y-32319213D01*
X4339315Y-32319209D01*
X4441809Y-32216715D01*
X4450536Y-32201600D01*
X4514282Y-32091189D01*
X4514282Y-32091187D01*
X4514284Y-32091185D01*
X4551800Y-31951175D01*
X4551800Y-31806225D01*
X4514284Y-31666215D01*
X4514282Y-31666212D01*
X4514282Y-31666210D01*
X4441812Y-31540689D01*
X4441810Y-31540687D01*
X4441809Y-31540685D01*
X4339315Y-31438191D01*
X4339312Y-31438189D01*
X4339310Y-31438187D01*
X4213788Y-31365717D01*
X4213789Y-31365717D01*
X4109251Y-31337706D01*
X4073775Y-31328200D01*
X3928825Y-31328200D01*
X3893349Y-31337706D01*
X3788810Y-31365717D01*
X3663289Y-31438187D01*
X3560787Y-31540689D01*
X3488317Y-31666210D01*
X3464337Y-31755704D01*
X3450800Y-31806225D01*
X3450800Y-31951175D01*
X3464638Y-32002819D01*
X3488317Y-32091189D01*
X3560787Y-32216710D01*
X3560789Y-32216712D01*
X3560791Y-32216715D01*
X3569705Y-32225629D01*
X3597481Y-32280144D01*
X3598700Y-32295631D01*
X3598700Y-46343644D01*
X3621839Y-46430000D01*
X3621839Y-46430003D01*
X3622583Y-46432781D01*
X3622584Y-46432784D01*
X3622585Y-46432787D01*
X3622586Y-46432788D01*
X3668730Y-46512712D01*
X3668732Y-46512714D01*
X3886514Y-46730497D01*
X3914291Y-46785013D01*
X3904720Y-46845445D01*
X3861455Y-46888710D01*
X3816510Y-46899500D01*
X3625326Y-46899500D01*
X3625325Y-46899500D01*
X3625315Y-46899501D01*
X3552263Y-46914033D01*
X3552257Y-46914035D01*
X3469400Y-46969397D01*
X3469397Y-46969400D01*
X3414035Y-47052257D01*
X3414033Y-47052263D01*
X3399501Y-47125315D01*
X3399500Y-47125327D01*
X3399500Y-48874672D01*
X3399501Y-48874684D01*
X3414033Y-48947736D01*
X3414035Y-48947742D01*
X3469397Y-49030599D01*
X3469399Y-49030601D01*
X3552260Y-49085966D01*
X3607808Y-49097015D01*
X3625315Y-49100498D01*
X3625320Y-49100498D01*
X3625326Y-49100500D01*
X3625327Y-49100500D01*
X5374673Y-49100500D01*
X5374674Y-49100500D01*
X5447740Y-49085966D01*
X5530601Y-49030601D01*
X5585966Y-48947740D01*
X5600500Y-48874674D01*
X5600500Y-48683489D01*
X5619407Y-48625298D01*
X5668907Y-48589334D01*
X5730093Y-48589334D01*
X5769504Y-48613485D01*
X6678031Y-49522012D01*
X6678030Y-49522012D01*
X6743287Y-49587268D01*
X6743289Y-49587270D01*
X6773262Y-49604575D01*
X6823212Y-49633414D01*
X6912356Y-49657300D01*
X11025542Y-49657300D01*
X11083733Y-49676207D01*
X11119697Y-49725707D01*
X11119697Y-49786893D01*
X11105635Y-49814490D01*
X11016433Y-49937265D01*
X11016431Y-49937269D01*
X10934250Y-50098559D01*
X10878316Y-50270710D01*
X10850000Y-50449489D01*
X10850000Y-50630510D01*
X10878316Y-50809289D01*
X10934250Y-50981440D01*
X11016430Y-51142728D01*
X11057667Y-51199488D01*
X11531980Y-50725175D01*
X11534075Y-50732993D01*
X11599901Y-50847007D01*
X11692993Y-50940099D01*
X11807007Y-51005925D01*
X11814821Y-51008019D01*
X11340511Y-51482330D01*
X11397275Y-51523571D01*
X11558559Y-51605749D01*
X11730710Y-51661683D01*
X11909490Y-51690000D01*
X12090510Y-51690000D01*
X12269289Y-51661683D01*
X12441440Y-51605749D01*
X12602728Y-51523569D01*
X12659487Y-51482330D01*
X12185176Y-51008019D01*
X12192993Y-51005925D01*
X12307007Y-50940099D01*
X12400099Y-50847007D01*
X12465925Y-50732993D01*
X12468019Y-50725177D01*
X12942330Y-51199488D01*
X12983569Y-51142728D01*
X13065749Y-50981440D01*
X13121683Y-50809289D01*
X13150000Y-50630510D01*
X13150000Y-50449489D01*
X13121683Y-50270710D01*
X13065749Y-50098559D01*
X12983568Y-49937269D01*
X12983566Y-49937265D01*
X12894365Y-49814490D01*
X12875458Y-49756300D01*
X12894366Y-49698109D01*
X12943866Y-49662145D01*
X12974458Y-49657300D01*
X24185663Y-49657300D01*
X24243854Y-49676207D01*
X24279818Y-49725707D01*
X24281290Y-49730678D01*
X24285017Y-49744588D01*
X24357487Y-49870110D01*
X24357489Y-49870112D01*
X24357491Y-49870115D01*
X24459985Y-49972609D01*
X24459987Y-49972610D01*
X24459989Y-49972612D01*
X24585511Y-50045082D01*
X24585512Y-50045082D01*
X24585515Y-50045084D01*
X24725525Y-50082600D01*
X24725526Y-50082600D01*
X24870474Y-50082600D01*
X24870475Y-50082600D01*
X25010485Y-50045084D01*
X25010487Y-50045082D01*
X25010489Y-50045082D01*
X25136010Y-49972612D01*
X25136010Y-49972611D01*
X25136015Y-49972609D01*
X25238509Y-49870115D01*
X25265669Y-49823073D01*
X25310982Y-49744589D01*
X25310982Y-49744587D01*
X25310984Y-49744585D01*
X25348500Y-49604575D01*
X25348500Y-49459625D01*
X25310984Y-49319615D01*
X25306992Y-49312702D01*
X25294270Y-49252855D01*
X25319155Y-49196958D01*
X25372142Y-49166364D01*
X25392728Y-49164200D01*
X27336568Y-49164200D01*
X27394759Y-49183107D01*
X27406571Y-49193196D01*
X27467584Y-49254208D01*
X27467589Y-49254212D01*
X27593111Y-49326682D01*
X27593112Y-49326682D01*
X27593115Y-49326684D01*
X27733125Y-49364200D01*
X27733126Y-49364200D01*
X27878074Y-49364200D01*
X27878075Y-49364200D01*
X28018085Y-49326684D01*
X28018087Y-49326682D01*
X28018089Y-49326682D01*
X28143610Y-49254212D01*
X28143610Y-49254211D01*
X28143615Y-49254209D01*
X28246109Y-49151715D01*
X28275679Y-49100498D01*
X28318582Y-49026189D01*
X28318582Y-49026187D01*
X28318584Y-49026185D01*
X28356100Y-48886175D01*
X28356100Y-48741225D01*
X28318584Y-48601215D01*
X28318582Y-48601212D01*
X28318582Y-48601210D01*
X28246112Y-48475689D01*
X28246110Y-48475687D01*
X28246109Y-48475685D01*
X28143615Y-48373191D01*
X28143612Y-48373189D01*
X28143610Y-48373187D01*
X28018088Y-48300717D01*
X28018089Y-48300717D01*
X27988496Y-48292787D01*
X27878075Y-48263200D01*
X27733125Y-48263200D01*
X27671390Y-48279741D01*
X27593110Y-48300717D01*
X27467589Y-48373187D01*
X27467584Y-48373191D01*
X27406571Y-48434204D01*
X27352054Y-48461981D01*
X27336568Y-48463200D01*
X23237390Y-48463200D01*
X23179199Y-48444293D01*
X23167386Y-48434204D01*
X16043177Y-41309995D01*
X16015400Y-41255478D01*
X16024971Y-41195046D01*
X16063679Y-41154256D01*
X16135815Y-41112609D01*
X16238309Y-41010115D01*
X16310784Y-40884585D01*
X16348300Y-40744575D01*
X16348300Y-40599625D01*
X16310784Y-40459615D01*
X16310782Y-40459612D01*
X16310782Y-40459610D01*
X16238312Y-40334089D01*
X16238310Y-40334087D01*
X16238309Y-40334085D01*
X16135815Y-40231591D01*
X16135812Y-40231589D01*
X16135810Y-40231587D01*
X16010288Y-40159117D01*
X16010289Y-40159117D01*
X15907938Y-40131692D01*
X15870275Y-40121600D01*
X15870274Y-40121600D01*
X15783990Y-40121600D01*
X15725799Y-40102693D01*
X15713986Y-40092604D01*
X12225096Y-36603714D01*
X12197319Y-36549197D01*
X12196100Y-36533710D01*
X12196100Y-34015503D01*
X12215007Y-33957312D01*
X12264507Y-33921348D01*
X12320721Y-33919876D01*
X12374925Y-33934400D01*
X12374927Y-33934400D01*
X12519874Y-33934400D01*
X12519875Y-33934400D01*
X12659885Y-33896884D01*
X12659887Y-33896882D01*
X12659889Y-33896882D01*
X12785410Y-33824412D01*
X12785410Y-33824411D01*
X12785415Y-33824409D01*
X12830813Y-33779011D01*
X12846429Y-33763396D01*
X12900946Y-33735619D01*
X12916432Y-33734400D01*
X13147742Y-33734400D01*
X13147744Y-33734400D01*
X13236888Y-33710514D01*
X13256678Y-33699088D01*
X13316812Y-33664370D01*
X13876999Y-33104182D01*
X13931512Y-33076408D01*
X13991944Y-33085979D01*
X14017003Y-33104185D01*
X16892376Y-35979558D01*
X16920153Y-36034075D01*
X16910582Y-36094507D01*
X16867317Y-36137772D01*
X16806885Y-36147343D01*
X16796752Y-36145189D01*
X16691175Y-36116900D01*
X16546225Y-36116900D01*
X16484490Y-36133441D01*
X16406210Y-36154417D01*
X16280689Y-36226887D01*
X16178187Y-36329389D01*
X16105717Y-36454910D01*
X16071079Y-36584182D01*
X16068200Y-36594925D01*
X16068200Y-36739875D01*
X16094478Y-36837944D01*
X16105717Y-36879889D01*
X16178187Y-37005410D01*
X16178189Y-37005412D01*
X16178191Y-37005415D01*
X16280685Y-37107909D01*
X16280687Y-37107910D01*
X16280689Y-37107912D01*
X16406211Y-37180382D01*
X16406212Y-37180382D01*
X16406215Y-37180384D01*
X16546225Y-37217900D01*
X16546226Y-37217900D01*
X16691174Y-37217900D01*
X16691175Y-37217900D01*
X16831185Y-37180384D01*
X16831187Y-37180382D01*
X16831189Y-37180382D01*
X16956710Y-37107912D01*
X16956710Y-37107911D01*
X16956715Y-37107909D01*
X16998169Y-37066455D01*
X17017729Y-37046896D01*
X17072246Y-37019119D01*
X17087732Y-37017900D01*
X21555594Y-37017900D01*
X21605094Y-37031163D01*
X21698311Y-37084982D01*
X21698315Y-37084984D01*
X21838325Y-37122500D01*
X21838326Y-37122500D01*
X21983274Y-37122500D01*
X21983275Y-37122500D01*
X22123285Y-37084984D01*
X22123287Y-37084982D01*
X22123289Y-37084982D01*
X22248810Y-37012512D01*
X22248810Y-37012511D01*
X22248815Y-37012509D01*
X22351309Y-36910015D01*
X22385099Y-36851489D01*
X22423782Y-36784489D01*
X22423782Y-36784487D01*
X22423784Y-36784485D01*
X22461300Y-36644475D01*
X22461300Y-36499525D01*
X22423784Y-36359515D01*
X22423783Y-36359513D01*
X22423625Y-36358923D01*
X22426827Y-36297822D01*
X22465332Y-36250272D01*
X22519252Y-36234300D01*
X24632210Y-36234300D01*
X24690401Y-36253207D01*
X24702214Y-36263296D01*
X24994104Y-36555186D01*
X25021881Y-36609703D01*
X25023100Y-36625190D01*
X25023100Y-36711475D01*
X25047243Y-36801576D01*
X25060617Y-36851489D01*
X25133087Y-36977010D01*
X25133089Y-36977012D01*
X25133091Y-36977015D01*
X25235585Y-37079509D01*
X25235587Y-37079510D01*
X25235589Y-37079512D01*
X25361111Y-37151982D01*
X25361112Y-37151982D01*
X25361115Y-37151984D01*
X25501125Y-37189500D01*
X25501126Y-37189500D01*
X25646074Y-37189500D01*
X25646075Y-37189500D01*
X25786085Y-37151984D01*
X25786087Y-37151982D01*
X25786089Y-37151982D01*
X25911610Y-37079512D01*
X25911610Y-37079511D01*
X25911615Y-37079509D01*
X26014109Y-36977015D01*
X26018507Y-36969397D01*
X26086582Y-36851489D01*
X26086582Y-36851487D01*
X26086584Y-36851485D01*
X26124100Y-36711475D01*
X26124100Y-36566525D01*
X26086584Y-36426515D01*
X26086582Y-36426512D01*
X26086582Y-36426510D01*
X26014112Y-36300989D01*
X26014110Y-36300987D01*
X26014109Y-36300985D01*
X25911615Y-36198491D01*
X25911612Y-36198489D01*
X25911610Y-36198487D01*
X25786088Y-36126017D01*
X25786089Y-36126017D01*
X25752064Y-36116900D01*
X25646075Y-36088500D01*
X25646074Y-36088500D01*
X25559790Y-36088500D01*
X25501599Y-36069593D01*
X25489787Y-36059504D01*
X25033614Y-35603332D01*
X25033612Y-35603330D01*
X24953688Y-35557186D01*
X24864544Y-35533300D01*
X20918856Y-35533300D01*
X20829712Y-35557186D01*
X20763498Y-35595415D01*
X20749785Y-35603332D01*
X20664413Y-35688704D01*
X20609896Y-35716481D01*
X20594410Y-35717700D01*
X19544881Y-35717700D01*
X19486690Y-35698793D01*
X19450726Y-35649293D01*
X19450726Y-35588107D01*
X19459145Y-35569200D01*
X19516482Y-35469889D01*
X19516482Y-35469887D01*
X19516484Y-35469885D01*
X19554000Y-35329875D01*
X19554000Y-35243589D01*
X19572907Y-35185398D01*
X19582990Y-35173591D01*
X23481570Y-31275012D01*
X23527714Y-31195088D01*
X23530816Y-31183510D01*
X23564135Y-31132198D01*
X23621255Y-31110268D01*
X23680357Y-31126101D01*
X23696446Y-31139128D01*
X26361104Y-33803786D01*
X26388881Y-33858303D01*
X26390100Y-33873790D01*
X26390100Y-40557744D01*
X26413986Y-40646888D01*
X26460130Y-40726812D01*
X39886705Y-54153387D01*
X39914481Y-54207902D01*
X39915700Y-54223389D01*
X39915700Y-54309674D01*
X39953217Y-54449689D01*
X40025687Y-54575210D01*
X40025689Y-54575212D01*
X40025691Y-54575215D01*
X40128185Y-54677709D01*
X40128187Y-54677710D01*
X40128189Y-54677712D01*
X40253711Y-54750182D01*
X40253712Y-54750182D01*
X40253715Y-54750184D01*
X40393725Y-54787700D01*
X40393726Y-54787700D01*
X40538674Y-54787700D01*
X40538675Y-54787700D01*
X40678685Y-54750184D01*
X40678687Y-54750182D01*
X40678689Y-54750182D01*
X40804210Y-54677712D01*
X40804210Y-54677711D01*
X40804215Y-54677709D01*
X40906709Y-54575215D01*
X40937159Y-54522474D01*
X40979182Y-54449689D01*
X40979182Y-54449687D01*
X40979184Y-54449685D01*
X41016700Y-54309675D01*
X41016700Y-54164725D01*
X40979184Y-54024715D01*
X40979182Y-54024712D01*
X40979182Y-54024710D01*
X40906712Y-53899189D01*
X40906710Y-53899187D01*
X40906709Y-53899185D01*
X40804215Y-53796691D01*
X40804212Y-53796689D01*
X40804210Y-53796687D01*
X40678688Y-53724217D01*
X40678689Y-53724217D01*
X40649096Y-53716287D01*
X40538675Y-53686700D01*
X40538674Y-53686700D01*
X40452390Y-53686700D01*
X40394199Y-53667793D01*
X40382386Y-53657704D01*
X27120096Y-40395414D01*
X27092319Y-40340897D01*
X27091100Y-40325410D01*
X27091100Y-34772790D01*
X27110007Y-34714599D01*
X27159507Y-34678635D01*
X27220693Y-34678635D01*
X27260104Y-34702786D01*
X27380604Y-34823286D01*
X27408381Y-34877803D01*
X27409600Y-34893290D01*
X27409600Y-34979574D01*
X27447117Y-35119589D01*
X27519587Y-35245110D01*
X27519589Y-35245112D01*
X27519591Y-35245115D01*
X27622085Y-35347609D01*
X27622087Y-35347610D01*
X27622089Y-35347612D01*
X27747611Y-35420082D01*
X27747612Y-35420082D01*
X27747615Y-35420084D01*
X27887625Y-35457600D01*
X27887626Y-35457600D01*
X28032574Y-35457600D01*
X28032575Y-35457600D01*
X28172585Y-35420084D01*
X28172587Y-35420082D01*
X28172589Y-35420082D01*
X28298110Y-35347612D01*
X28298110Y-35347611D01*
X28298115Y-35347609D01*
X28400609Y-35245115D01*
X28448932Y-35161418D01*
X28473082Y-35119589D01*
X28473082Y-35119587D01*
X28473084Y-35119585D01*
X28510600Y-34979575D01*
X28510600Y-34905289D01*
X28529507Y-34847098D01*
X28579007Y-34811134D01*
X28640193Y-34811134D01*
X28679604Y-34835285D01*
X55463610Y-61619291D01*
X55491387Y-61673808D01*
X55481816Y-61734239D01*
X55480127Y-61737552D01*
X55480123Y-61737561D01*
X55426598Y-61902293D01*
X55426597Y-61902297D01*
X55399500Y-62073385D01*
X55399500Y-62246614D01*
X55426597Y-62417702D01*
X55426598Y-62417706D01*
X55480123Y-62582438D01*
X55480125Y-62582441D01*
X55480126Y-62582444D01*
X55480127Y-62582445D01*
X55558768Y-62736788D01*
X55660586Y-62876928D01*
X55783072Y-62999414D01*
X55923212Y-63101232D01*
X56077555Y-63179873D01*
X56077557Y-63179873D01*
X56077558Y-63179874D01*
X56077561Y-63179876D01*
X56242293Y-63233401D01*
X56242297Y-63233402D01*
X56413386Y-63260500D01*
X56413389Y-63260500D01*
X56586614Y-63260500D01*
X56757702Y-63233402D01*
X56757706Y-63233401D01*
X56922438Y-63179876D01*
X56922440Y-63179874D01*
X56922445Y-63179873D01*
X57076788Y-63101232D01*
X57216928Y-62999414D01*
X57339414Y-62876928D01*
X57441232Y-62736788D01*
X57519873Y-62582445D01*
X57519874Y-62582440D01*
X57519876Y-62582438D01*
X57573401Y-62417706D01*
X57573402Y-62417702D01*
X57600500Y-62246614D01*
X57600500Y-62073385D01*
X57573402Y-61902297D01*
X57573401Y-61902293D01*
X57519876Y-61737561D01*
X57519874Y-61737558D01*
X57519873Y-61737557D01*
X57519873Y-61737555D01*
X57441232Y-61583212D01*
X57339414Y-61443072D01*
X57216928Y-61320586D01*
X57076788Y-61218768D01*
X57076787Y-61218767D01*
X57076785Y-61218766D01*
X56922441Y-61140125D01*
X56922438Y-61140123D01*
X56757706Y-61086598D01*
X56757702Y-61086597D01*
X56586614Y-61059500D01*
X56586611Y-61059500D01*
X56413389Y-61059500D01*
X56413386Y-61059500D01*
X56242297Y-61086597D01*
X56242293Y-61086598D01*
X56077561Y-61140123D01*
X56077552Y-61140127D01*
X56074239Y-61141816D01*
X56013807Y-61151387D01*
X55959291Y-61123610D01*
X54435184Y-59599503D01*
X54369066Y-59533385D01*
X55399500Y-59533385D01*
X55399500Y-59706614D01*
X55426597Y-59877702D01*
X55426598Y-59877706D01*
X55480123Y-60042438D01*
X55480125Y-60042441D01*
X55556677Y-60192686D01*
X55558768Y-60196788D01*
X55660586Y-60336928D01*
X55783072Y-60459414D01*
X55923212Y-60561232D01*
X56077555Y-60639873D01*
X56077557Y-60639873D01*
X56077558Y-60639874D01*
X56077561Y-60639876D01*
X56242293Y-60693401D01*
X56242297Y-60693402D01*
X56413386Y-60720500D01*
X56413389Y-60720500D01*
X56586614Y-60720500D01*
X56757702Y-60693402D01*
X56757706Y-60693401D01*
X56922438Y-60639876D01*
X56922440Y-60639874D01*
X56922445Y-60639873D01*
X57076788Y-60561232D01*
X57216928Y-60459414D01*
X57339414Y-60336928D01*
X57441232Y-60196788D01*
X57519873Y-60042445D01*
X57519874Y-60042440D01*
X57519876Y-60042438D01*
X57573401Y-59877706D01*
X57573402Y-59877702D01*
X57600500Y-59706614D01*
X57600500Y-59533385D01*
X57573402Y-59362297D01*
X57573401Y-59362293D01*
X57519876Y-59197561D01*
X57519874Y-59197558D01*
X57519873Y-59197557D01*
X57519873Y-59197555D01*
X57441232Y-59043212D01*
X57339414Y-58903072D01*
X57216928Y-58780586D01*
X57076788Y-58678768D01*
X57076787Y-58678767D01*
X57076785Y-58678766D01*
X56922441Y-58600125D01*
X56922438Y-58600123D01*
X56757706Y-58546598D01*
X56757702Y-58546597D01*
X56586614Y-58519500D01*
X56586611Y-58519500D01*
X56413389Y-58519500D01*
X56413386Y-58519500D01*
X56242297Y-58546597D01*
X56242293Y-58546598D01*
X56077561Y-58600123D01*
X56077558Y-58600125D01*
X55923214Y-58678766D01*
X55783073Y-58780585D01*
X55660585Y-58903073D01*
X55558766Y-59043214D01*
X55480125Y-59197558D01*
X55480123Y-59197561D01*
X55426598Y-59362293D01*
X55426597Y-59362297D01*
X55399500Y-59533385D01*
X54369066Y-59533385D01*
X51895185Y-57059503D01*
X51829067Y-56993385D01*
X55399500Y-56993385D01*
X55399500Y-57166614D01*
X55426597Y-57337702D01*
X55426598Y-57337706D01*
X55480123Y-57502438D01*
X55480125Y-57502441D01*
X55480126Y-57502444D01*
X55480127Y-57502445D01*
X55558768Y-57656788D01*
X55660586Y-57796928D01*
X55783072Y-57919414D01*
X55923212Y-58021232D01*
X56077555Y-58099873D01*
X56077557Y-58099873D01*
X56077558Y-58099874D01*
X56077561Y-58099876D01*
X56242293Y-58153401D01*
X56242297Y-58153402D01*
X56413386Y-58180500D01*
X56413389Y-58180500D01*
X56586614Y-58180500D01*
X56757702Y-58153402D01*
X56757706Y-58153401D01*
X56922438Y-58099876D01*
X56922440Y-58099874D01*
X56922445Y-58099873D01*
X57076788Y-58021232D01*
X57216928Y-57919414D01*
X57339414Y-57796928D01*
X57441232Y-57656788D01*
X57519873Y-57502445D01*
X57519874Y-57502440D01*
X57519876Y-57502438D01*
X57573401Y-57337706D01*
X57573402Y-57337702D01*
X57600500Y-57166614D01*
X57600500Y-56993385D01*
X57573402Y-56822297D01*
X57573401Y-56822293D01*
X57519876Y-56657561D01*
X57519874Y-56657558D01*
X57519873Y-56657557D01*
X57519873Y-56657555D01*
X57441232Y-56503212D01*
X57339414Y-56363072D01*
X57216928Y-56240586D01*
X57076788Y-56138768D01*
X57076787Y-56138767D01*
X57076785Y-56138766D01*
X56922441Y-56060125D01*
X56922438Y-56060123D01*
X56757706Y-56006598D01*
X56757702Y-56006597D01*
X56586614Y-55979500D01*
X56586611Y-55979500D01*
X56413389Y-55979500D01*
X56413386Y-55979500D01*
X56242297Y-56006597D01*
X56242293Y-56006598D01*
X56077561Y-56060123D01*
X56077558Y-56060125D01*
X55923214Y-56138766D01*
X55783073Y-56240585D01*
X55660585Y-56363073D01*
X55558766Y-56503214D01*
X55480125Y-56657558D01*
X55480123Y-56657561D01*
X55426598Y-56822293D01*
X55426597Y-56822297D01*
X55399500Y-56993385D01*
X51829067Y-56993385D01*
X49289067Y-54453385D01*
X55399500Y-54453385D01*
X55399500Y-54626614D01*
X55426597Y-54797702D01*
X55426598Y-54797706D01*
X55480123Y-54962438D01*
X55480125Y-54962441D01*
X55480126Y-54962444D01*
X55480127Y-54962445D01*
X55558768Y-55116788D01*
X55660586Y-55256928D01*
X55783072Y-55379414D01*
X55923212Y-55481232D01*
X56077555Y-55559873D01*
X56077557Y-55559873D01*
X56077558Y-55559874D01*
X56077561Y-55559876D01*
X56242293Y-55613401D01*
X56242297Y-55613402D01*
X56413386Y-55640500D01*
X56413389Y-55640500D01*
X56586614Y-55640500D01*
X56757702Y-55613402D01*
X56757706Y-55613401D01*
X56922438Y-55559876D01*
X56922440Y-55559874D01*
X56922445Y-55559873D01*
X57076788Y-55481232D01*
X57216928Y-55379414D01*
X57339414Y-55256928D01*
X57441232Y-55116788D01*
X57519873Y-54962445D01*
X57519874Y-54962440D01*
X57519876Y-54962438D01*
X57573401Y-54797706D01*
X57573402Y-54797702D01*
X57600500Y-54626614D01*
X57600500Y-54453385D01*
X57573402Y-54282297D01*
X57573401Y-54282293D01*
X57519876Y-54117561D01*
X57519874Y-54117558D01*
X57519873Y-54117557D01*
X57519873Y-54117555D01*
X57441232Y-53963212D01*
X57339414Y-53823072D01*
X57216928Y-53700586D01*
X57076788Y-53598768D01*
X57076787Y-53598767D01*
X57076785Y-53598766D01*
X56922441Y-53520125D01*
X56922438Y-53520123D01*
X56757706Y-53466598D01*
X56757702Y-53466597D01*
X56586614Y-53439500D01*
X56586611Y-53439500D01*
X56413389Y-53439500D01*
X56413386Y-53439500D01*
X56242297Y-53466597D01*
X56242293Y-53466598D01*
X56077561Y-53520123D01*
X56077558Y-53520125D01*
X55923214Y-53598766D01*
X55783073Y-53700585D01*
X55660585Y-53823073D01*
X55558766Y-53963214D01*
X55480125Y-54117558D01*
X55480123Y-54117561D01*
X55426598Y-54282293D01*
X55426597Y-54282297D01*
X55399500Y-54453385D01*
X49289067Y-54453385D01*
X45940884Y-51105202D01*
X55350000Y-51105202D01*
X55350000Y-51799999D01*
X55350001Y-51800000D01*
X56038120Y-51800000D01*
X56034075Y-51807007D01*
X56000000Y-51934174D01*
X56000000Y-52065826D01*
X56034075Y-52192993D01*
X56038120Y-52200000D01*
X55350002Y-52200000D01*
X55350001Y-52200001D01*
X55350001Y-52894791D01*
X55352909Y-52919874D01*
X55398213Y-53022477D01*
X55477522Y-53101786D01*
X55580127Y-53147090D01*
X55605203Y-53149999D01*
X56299998Y-53149999D01*
X56300000Y-53149998D01*
X56300000Y-52461879D01*
X56307007Y-52465925D01*
X56434174Y-52500000D01*
X56565826Y-52500000D01*
X56692993Y-52465925D01*
X56700000Y-52461879D01*
X56700000Y-53149998D01*
X56700001Y-53149999D01*
X57394790Y-53149999D01*
X57394791Y-53149998D01*
X57419874Y-53147090D01*
X57522477Y-53101786D01*
X57601786Y-53022477D01*
X57647090Y-52919872D01*
X57649999Y-52894797D01*
X57650000Y-52894795D01*
X57650000Y-52200001D01*
X57649999Y-52200000D01*
X56961880Y-52200000D01*
X56965925Y-52192993D01*
X57000000Y-52065826D01*
X57000000Y-51934174D01*
X56965925Y-51807007D01*
X56961880Y-51800000D01*
X57649998Y-51800000D01*
X57649999Y-51799999D01*
X57649999Y-51105210D01*
X57649998Y-51105208D01*
X57647090Y-51080125D01*
X57601786Y-50977522D01*
X57522477Y-50898213D01*
X57419872Y-50852909D01*
X57394797Y-50850000D01*
X56700001Y-50850000D01*
X56700000Y-50850001D01*
X56700000Y-51538120D01*
X56692993Y-51534075D01*
X56565826Y-51500000D01*
X56434174Y-51500000D01*
X56307007Y-51534075D01*
X56300000Y-51538120D01*
X56300000Y-50850001D01*
X56299999Y-50850000D01*
X55605210Y-50850000D01*
X55605207Y-50850001D01*
X55580125Y-50852909D01*
X55477522Y-50898213D01*
X55398213Y-50977522D01*
X55352909Y-51080127D01*
X55350000Y-51105202D01*
X45940884Y-51105202D01*
X38525667Y-43689985D01*
X38497890Y-43635468D01*
X38507461Y-43575036D01*
X38550726Y-43531771D01*
X38570041Y-43524356D01*
X38612485Y-43512984D01*
X38738015Y-43440509D01*
X38840509Y-43338015D01*
X38840512Y-43338010D01*
X38912982Y-43212489D01*
X38912982Y-43212487D01*
X38912984Y-43212485D01*
X38950500Y-43072475D01*
X38950500Y-42927525D01*
X38912984Y-42787515D01*
X38912982Y-42787511D01*
X38912982Y-42787510D01*
X38840512Y-42661989D01*
X38840510Y-42661987D01*
X38840509Y-42661985D01*
X38738015Y-42559491D01*
X38738012Y-42559489D01*
X38738010Y-42559487D01*
X38612488Y-42487017D01*
X38612489Y-42487017D01*
X38582896Y-42479087D01*
X38472475Y-42449500D01*
X38327525Y-42449500D01*
X38265790Y-42466041D01*
X38187510Y-42487017D01*
X38061989Y-42559487D01*
X37959487Y-42661989D01*
X37887017Y-42787511D01*
X37887016Y-42787513D01*
X37875644Y-42829953D01*
X37842320Y-42881266D01*
X37785198Y-42903192D01*
X37726097Y-42887356D01*
X37710014Y-42874332D01*
X28005996Y-33170314D01*
X27978219Y-33115797D01*
X27977000Y-33100310D01*
X27977000Y-32672439D01*
X27995907Y-32614248D01*
X28045407Y-32578284D01*
X28101621Y-32576812D01*
X28190025Y-32600500D01*
X28190027Y-32600500D01*
X28334974Y-32600500D01*
X28334975Y-32600500D01*
X28474985Y-32562984D01*
X28474987Y-32562982D01*
X28474989Y-32562982D01*
X28600510Y-32490512D01*
X28600510Y-32490511D01*
X28600515Y-32490509D01*
X28703009Y-32388015D01*
X28732867Y-32336300D01*
X28775482Y-32262489D01*
X28775482Y-32262487D01*
X28775484Y-32262485D01*
X28813000Y-32122475D01*
X28813000Y-32009389D01*
X28831907Y-31951198D01*
X28881407Y-31915234D01*
X28942593Y-31915234D01*
X28982001Y-31939383D01*
X32372493Y-35329874D01*
X35889304Y-38846685D01*
X35917081Y-38901202D01*
X35918300Y-38916689D01*
X35918300Y-39067744D01*
X35942186Y-39156888D01*
X35988330Y-39236812D01*
X46288031Y-49536512D01*
X46288030Y-49536512D01*
X46353287Y-49601768D01*
X46353289Y-49601770D01*
X46402202Y-49630010D01*
X46433212Y-49647914D01*
X46522356Y-49671800D01*
X46522358Y-49671800D01*
X57082942Y-49671800D01*
X57082944Y-49671800D01*
X57172088Y-49647914D01*
X57252012Y-49601770D01*
X57940970Y-48912812D01*
X57987114Y-48832888D01*
X57995792Y-48800500D01*
X58011000Y-48743744D01*
X58011000Y-46734356D01*
X57987114Y-46645212D01*
X57940970Y-46565288D01*
X57805682Y-46430000D01*
X57536389Y-46160706D01*
X57508612Y-46106190D01*
X57518182Y-46045763D01*
X57519873Y-46042445D01*
X57555085Y-45934073D01*
X57573402Y-45877702D01*
X57600500Y-45706614D01*
X57600500Y-45632284D01*
X57619407Y-45574093D01*
X57668907Y-45538129D01*
X57730093Y-45538129D01*
X57736555Y-45540513D01*
X57736810Y-45540581D01*
X57736815Y-45540584D01*
X57876825Y-45578100D01*
X57876826Y-45578100D01*
X58021774Y-45578100D01*
X58021775Y-45578100D01*
X58161785Y-45540584D01*
X58161786Y-45540583D01*
X58168053Y-45538904D01*
X58168423Y-45540288D01*
X58222100Y-45536058D01*
X58274273Y-45568021D01*
X58297694Y-45624546D01*
X58298000Y-45632325D01*
X58298000Y-62365309D01*
X58279093Y-62423500D01*
X58269004Y-62435313D01*
X57040707Y-63663609D01*
X56986190Y-63691386D01*
X56925759Y-63681815D01*
X56922447Y-63680127D01*
X56922438Y-63680123D01*
X56757706Y-63626598D01*
X56757702Y-63626597D01*
X56586614Y-63599500D01*
X56586611Y-63599500D01*
X56413389Y-63599500D01*
X56413386Y-63599500D01*
X56242297Y-63626597D01*
X56242293Y-63626598D01*
X56077561Y-63680123D01*
X56077558Y-63680125D01*
X55923214Y-63758766D01*
X55783073Y-63860585D01*
X55660585Y-63983073D01*
X55558766Y-64123214D01*
X55480125Y-64277558D01*
X55480123Y-64277561D01*
X55426598Y-64442293D01*
X55426597Y-64442297D01*
X55399500Y-64613385D01*
X55399500Y-64786614D01*
X55426597Y-64957702D01*
X55426598Y-64957706D01*
X55480123Y-65122438D01*
X55480125Y-65122441D01*
X55480126Y-65122444D01*
X55480127Y-65122445D01*
X55558768Y-65276788D01*
X55660586Y-65416928D01*
X55783072Y-65539414D01*
X55923212Y-65641232D01*
X56077555Y-65719873D01*
X56077557Y-65719873D01*
X56077558Y-65719874D01*
X56077561Y-65719876D01*
X56242293Y-65773401D01*
X56242297Y-65773402D01*
X56413386Y-65800500D01*
X56413389Y-65800500D01*
X56586614Y-65800500D01*
X56757702Y-65773402D01*
X56757706Y-65773401D01*
X56922438Y-65719876D01*
X56922440Y-65719874D01*
X56922445Y-65719873D01*
X57076788Y-65641232D01*
X57216928Y-65539414D01*
X57339414Y-65416928D01*
X57441232Y-65276788D01*
X57519873Y-65122445D01*
X57519874Y-65122440D01*
X57519876Y-65122438D01*
X57573401Y-64957706D01*
X57573402Y-64957702D01*
X57600500Y-64786614D01*
X57600500Y-64613385D01*
X57573402Y-64442297D01*
X57573401Y-64442293D01*
X57519876Y-64277563D01*
X57519872Y-64277553D01*
X57518186Y-64274244D01*
X57508611Y-64213813D01*
X57536386Y-64159295D01*
X57536385Y-64159295D01*
X58928970Y-62766712D01*
X58975114Y-62686788D01*
X58999000Y-62597644D01*
X58999000Y-62505356D01*
X58999000Y-31552356D01*
X58975114Y-31463212D01*
X58972626Y-31458902D01*
X58972625Y-31458900D01*
X58928971Y-31383290D01*
X58928970Y-31383288D01*
X57165302Y-29619620D01*
X57137525Y-29565103D01*
X57147096Y-29504671D01*
X57158810Y-29490956D01*
X57159488Y-29482331D01*
X56685176Y-29008019D01*
X56692993Y-29005925D01*
X56807007Y-28940099D01*
X56900099Y-28847007D01*
X56965925Y-28732993D01*
X56968019Y-28725176D01*
X57442330Y-29199487D01*
X57483569Y-29142728D01*
X57565749Y-28981440D01*
X57621683Y-28809289D01*
X57650000Y-28630510D01*
X57650000Y-28449489D01*
X57621683Y-28270710D01*
X57565749Y-28098559D01*
X57483571Y-27937275D01*
X57442330Y-27880511D01*
X56968019Y-28354821D01*
X56965925Y-28347007D01*
X56900099Y-28232993D01*
X56807007Y-28139901D01*
X56692993Y-28074075D01*
X56685175Y-28071980D01*
X57159488Y-27597667D01*
X57102728Y-27556430D01*
X56941440Y-27474250D01*
X56769289Y-27418316D01*
X56590510Y-27390000D01*
X56409490Y-27390000D01*
X56230710Y-27418316D01*
X56058559Y-27474250D01*
X55897271Y-27556430D01*
X55881090Y-27568187D01*
X55822899Y-27587093D01*
X55764708Y-27568185D01*
X55728745Y-27518684D01*
X55723900Y-27488093D01*
X55723900Y-27400225D01*
X55721160Y-27390000D01*
X55686384Y-27260215D01*
X55679909Y-27249000D01*
X55667188Y-27189151D01*
X55692075Y-27133256D01*
X55745063Y-27102663D01*
X55765646Y-27100500D01*
X57374673Y-27100500D01*
X57374674Y-27100500D01*
X57447740Y-27085966D01*
X57530601Y-27030601D01*
X57585966Y-26947740D01*
X57600500Y-26874674D01*
X57600500Y-25125326D01*
X57585966Y-25052260D01*
X57585964Y-25052257D01*
X57530602Y-24969400D01*
X57530599Y-24969397D01*
X57447742Y-24914035D01*
X57447740Y-24914034D01*
X57447737Y-24914033D01*
X57447736Y-24914033D01*
X57374684Y-24899501D01*
X57374674Y-24899500D01*
X57374673Y-24899500D01*
X57183490Y-24899500D01*
X57125299Y-24880593D01*
X57089335Y-24831093D01*
X57089335Y-24769907D01*
X57113486Y-24730496D01*
X57534495Y-24309487D01*
X58897670Y-22946312D01*
X58943814Y-22866388D01*
X58948629Y-22848416D01*
X58948631Y-22848413D01*
X58948630Y-22848413D01*
X58967700Y-22777243D01*
X58967700Y-16981057D01*
X58955205Y-16934425D01*
X58943814Y-16891912D01*
X58943009Y-16890518D01*
X58943004Y-16890495D01*
X58942999Y-16890499D01*
X58897671Y-16811990D01*
X58897670Y-16811988D01*
X57348422Y-15262740D01*
X57320645Y-15208223D01*
X57330216Y-15147791D01*
X57373481Y-15104526D01*
X57399105Y-15095640D01*
X57447740Y-15085966D01*
X57530601Y-15030601D01*
X57585966Y-14947740D01*
X57600500Y-14874674D01*
X57600500Y-13125326D01*
X57585966Y-13052260D01*
X57544893Y-12990789D01*
X57530602Y-12969400D01*
X57530599Y-12969397D01*
X57447742Y-12914035D01*
X57447740Y-12914034D01*
X57447737Y-12914033D01*
X57447736Y-12914033D01*
X57374684Y-12899501D01*
X57374674Y-12899500D01*
X55625326Y-12899500D01*
X55625325Y-12899500D01*
X55625315Y-12899501D01*
X55552263Y-12914033D01*
X55552257Y-12914035D01*
X55469400Y-12969397D01*
X55469397Y-12969400D01*
X55414035Y-13052257D01*
X55414033Y-13052263D01*
X55399501Y-13125315D01*
X55399500Y-13125327D01*
X55399500Y-14817500D01*
X55380593Y-14875691D01*
X55331093Y-14911655D01*
X55300500Y-14916500D01*
X54012790Y-14916500D01*
X53954599Y-14897593D01*
X53942786Y-14887504D01*
X51880675Y-12825393D01*
X49811212Y-10755930D01*
X49731288Y-10709786D01*
X49642144Y-10685900D01*
X49642142Y-10685900D01*
X26371689Y-10685900D01*
X26313498Y-10666993D01*
X26301685Y-10656904D01*
X25971692Y-10326911D01*
X25476012Y-9831230D01*
X25396088Y-9785086D01*
X25306944Y-9761200D01*
X25306942Y-9761200D01*
X22281630Y-9761200D01*
X22223439Y-9742293D01*
X22187475Y-9692793D01*
X22186003Y-9636577D01*
X22200500Y-9582474D01*
X22200500Y-9437525D01*
X22192271Y-9406814D01*
X22162984Y-9297515D01*
X22162982Y-9297512D01*
X22162982Y-9297510D01*
X22090512Y-9171989D01*
X22090510Y-9171987D01*
X22090509Y-9171985D01*
X21988015Y-9069491D01*
X21988012Y-9069489D01*
X21988010Y-9069487D01*
X21862488Y-8997017D01*
X21862489Y-8997017D01*
X21817585Y-8984985D01*
X21722475Y-8959500D01*
X21577525Y-8959500D01*
X21515790Y-8976041D01*
X21437510Y-8997017D01*
X21311989Y-9069487D01*
X21209487Y-9171989D01*
X21137017Y-9297510D01*
X21099500Y-9437525D01*
X21099500Y-9582474D01*
X21113997Y-9636577D01*
X21110795Y-9697678D01*
X21072289Y-9745228D01*
X21018370Y-9761200D01*
X18231630Y-9761200D01*
X18173439Y-9742293D01*
X18137475Y-9692793D01*
X18136003Y-9636577D01*
X18150500Y-9582474D01*
X18150500Y-9437525D01*
X18142271Y-9406814D01*
X18112984Y-9297515D01*
X18112982Y-9297512D01*
X18112982Y-9297510D01*
X18040512Y-9171989D01*
X18040510Y-9171987D01*
X18040509Y-9171985D01*
X17938015Y-9069491D01*
X17938012Y-9069489D01*
X17938010Y-9069487D01*
X17812488Y-8997017D01*
X17812489Y-8997017D01*
X17767585Y-8984985D01*
X17672475Y-8959500D01*
X17527525Y-8959500D01*
X17465790Y-8976041D01*
X17387510Y-8997017D01*
X17261989Y-9069487D01*
X17159487Y-9171989D01*
X17087017Y-9297510D01*
X17049500Y-9437525D01*
X17049500Y-9582474D01*
X17063997Y-9636577D01*
X17060795Y-9697678D01*
X17022289Y-9745228D01*
X16968370Y-9761200D01*
X14292288Y-9761200D01*
X14234097Y-9742293D01*
X14222284Y-9732203D01*
X13896896Y-9406814D01*
X13869119Y-9352298D01*
X13867900Y-9336811D01*
X13867900Y-9250525D01*
X13846855Y-9171985D01*
X13830384Y-9110515D01*
X13830382Y-9110512D01*
X13830382Y-9110510D01*
X13757912Y-8984989D01*
X13757910Y-8984987D01*
X13757909Y-8984985D01*
X13655415Y-8882491D01*
X13655412Y-8882489D01*
X13655410Y-8882487D01*
X13529888Y-8810017D01*
X13529889Y-8810017D01*
X13500296Y-8802087D01*
X13389875Y-8772500D01*
X13244925Y-8772500D01*
X13183190Y-8789041D01*
X13104910Y-8810017D01*
X12979389Y-8882487D01*
X12876887Y-8984989D01*
X12804417Y-9110510D01*
X12804416Y-9110515D01*
X12766900Y-9250525D01*
X12766900Y-9395475D01*
X12796487Y-9505896D01*
X12804417Y-9535489D01*
X12876887Y-9661010D01*
X12876889Y-9661012D01*
X12876891Y-9661015D01*
X12979385Y-9763509D01*
X12979387Y-9763510D01*
X12979389Y-9763512D01*
X13104911Y-9835982D01*
X13104912Y-9835982D01*
X13104915Y-9835984D01*
X13244925Y-9873500D01*
X13331211Y-9873500D01*
X13389402Y-9892407D01*
X13401214Y-9902496D01*
X13825630Y-10326911D01*
X13825631Y-10326913D01*
X13890887Y-10392168D01*
X13890889Y-10392170D01*
X13939802Y-10420410D01*
X13970812Y-10438314D01*
X14059956Y-10462200D01*
X25074610Y-10462200D01*
X25132801Y-10481107D01*
X25144614Y-10491196D01*
X25905031Y-11251612D01*
X25905030Y-11251612D01*
X25970287Y-11316868D01*
X25970289Y-11316870D01*
X26019202Y-11345110D01*
X26050212Y-11363014D01*
X26139356Y-11386900D01*
X49409810Y-11386900D01*
X49468001Y-11405807D01*
X49479814Y-11415896D01*
X53481116Y-15417198D01*
X53508892Y-15471713D01*
X53499321Y-15532145D01*
X53456056Y-15575410D01*
X53411111Y-15586200D01*
X44205131Y-15586200D01*
X44146940Y-15567293D01*
X44110976Y-15517793D01*
X44109505Y-15461576D01*
X44115399Y-15439577D01*
X44115400Y-15439575D01*
X44115400Y-15294625D01*
X44106856Y-15262740D01*
X44077884Y-15154615D01*
X44077882Y-15154612D01*
X44077882Y-15154610D01*
X44005412Y-15029089D01*
X44005410Y-15029087D01*
X44005409Y-15029085D01*
X43902915Y-14926591D01*
X43902912Y-14926589D01*
X43902910Y-14926587D01*
X43777388Y-14854117D01*
X43777389Y-14854117D01*
X43747796Y-14846187D01*
X43637375Y-14816600D01*
X43492425Y-14816600D01*
X43430690Y-14833141D01*
X43352410Y-14854117D01*
X43226889Y-14926587D01*
X43226884Y-14926591D01*
X43165871Y-14987604D01*
X43111354Y-15015381D01*
X43095868Y-15016600D01*
X41329090Y-15016600D01*
X41270899Y-14997693D01*
X41259086Y-14987604D01*
X40326067Y-14054585D01*
X39235312Y-12963830D01*
X39155388Y-12917686D01*
X39066244Y-12893800D01*
X39066242Y-12893800D01*
X18214622Y-12893800D01*
X18156431Y-12874893D01*
X18120467Y-12825393D01*
X18118996Y-12769176D01*
X18139199Y-12693777D01*
X18139200Y-12693775D01*
X18139200Y-12548825D01*
X18113171Y-12451686D01*
X18101684Y-12408815D01*
X18101682Y-12408812D01*
X18101682Y-12408810D01*
X18029212Y-12283289D01*
X18029210Y-12283287D01*
X18029209Y-12283285D01*
X17926715Y-12180791D01*
X17926712Y-12180789D01*
X17926710Y-12180787D01*
X17801188Y-12108317D01*
X17801189Y-12108317D01*
X17771596Y-12100387D01*
X17661175Y-12070800D01*
X17516225Y-12070800D01*
X17454490Y-12087341D01*
X17376210Y-12108317D01*
X17250689Y-12180787D01*
X17148189Y-12283287D01*
X17086149Y-12390743D01*
X17040679Y-12431683D01*
X16979829Y-12438078D01*
X16974791Y-12436869D01*
X16958370Y-12432469D01*
X16940944Y-12427800D01*
X16940943Y-12427800D01*
X6880032Y-12427800D01*
X6821841Y-12408893D01*
X6810029Y-12398804D01*
X6749015Y-12337791D01*
X6749010Y-12337787D01*
X6623488Y-12265317D01*
X6623489Y-12265317D01*
X6593896Y-12257387D01*
X6483475Y-12227800D01*
X6338525Y-12227800D01*
X6276790Y-12244341D01*
X6198510Y-12265317D01*
X6072989Y-12337787D01*
X5970487Y-12440289D01*
X5898017Y-12565810D01*
X5898016Y-12565815D01*
X5860500Y-12705825D01*
X5860500Y-12850775D01*
X5877451Y-12914035D01*
X5898017Y-12990789D01*
X5970487Y-13116310D01*
X5970489Y-13116312D01*
X5970491Y-13116315D01*
X6072985Y-13218809D01*
X6072987Y-13218810D01*
X6072989Y-13218812D01*
X6198511Y-13291282D01*
X6198512Y-13291282D01*
X6198515Y-13291284D01*
X6338525Y-13328800D01*
X6338526Y-13328800D01*
X6483474Y-13328800D01*
X6483475Y-13328800D01*
X6623485Y-13291284D01*
X6623487Y-13291282D01*
X6623489Y-13291282D01*
X6749010Y-13218812D01*
X6749010Y-13218811D01*
X6749015Y-13218809D01*
X6779522Y-13188302D01*
X6810029Y-13157796D01*
X6864546Y-13130019D01*
X6880032Y-13128800D01*
X16708610Y-13128800D01*
X16766801Y-13147707D01*
X16778613Y-13157796D01*
X17145585Y-13524767D01*
X17145588Y-13524770D01*
X17225512Y-13570914D01*
X17314656Y-13594800D01*
X17314657Y-13594800D01*
X17406944Y-13594800D01*
X38833910Y-13594800D01*
X38892101Y-13613707D01*
X38903914Y-13623796D01*
X40927688Y-15647570D01*
X40927690Y-15647571D01*
X41003930Y-15691589D01*
X41003932Y-15691589D01*
X41007612Y-15693714D01*
X41096756Y-15717600D01*
X41096757Y-15717600D01*
X41189044Y-15717600D01*
X41802711Y-15717600D01*
X41860902Y-15736507D01*
X41896866Y-15786007D01*
X41896866Y-15847193D01*
X41872715Y-15886603D01*
X40545928Y-17213390D01*
X39221814Y-18537504D01*
X39167297Y-18565281D01*
X39151810Y-18566500D01*
X23838600Y-18566500D01*
X23780409Y-18547593D01*
X23744445Y-18498093D01*
X23739600Y-18467500D01*
X23739600Y-18444625D01*
X23724539Y-18388417D01*
X23702084Y-18304615D01*
X23702082Y-18304612D01*
X23702082Y-18304610D01*
X23629612Y-18179089D01*
X23629610Y-18179087D01*
X23629609Y-18179085D01*
X23527115Y-18076591D01*
X23527112Y-18076589D01*
X23527110Y-18076587D01*
X23401588Y-18004117D01*
X23401589Y-18004117D01*
X23371996Y-17996187D01*
X23261575Y-17966600D01*
X23116625Y-17966600D01*
X23068482Y-17979500D01*
X22976610Y-18004117D01*
X22851089Y-18076587D01*
X22851084Y-18076591D01*
X22790071Y-18137604D01*
X22735554Y-18165381D01*
X22720068Y-18166600D01*
X22688956Y-18166600D01*
X22599812Y-18190486D01*
X22519888Y-18236630D01*
X21803629Y-18952889D01*
X21764483Y-19020692D01*
X21757487Y-19032809D01*
X21757487Y-19032810D01*
X21757486Y-19032812D01*
X21733600Y-19121956D01*
X21733600Y-21537644D01*
X21752241Y-21607212D01*
X21752240Y-21607212D01*
X21752241Y-21607214D01*
X21757483Y-21626781D01*
X21757484Y-21626784D01*
X21757485Y-21626787D01*
X21757486Y-21626788D01*
X21803630Y-21706712D01*
X22342104Y-22245186D01*
X22867135Y-22770217D01*
X22894912Y-22824734D01*
X22885341Y-22885166D01*
X22846632Y-22925957D01*
X22797387Y-22954389D01*
X22797384Y-22954391D01*
X22736371Y-23015404D01*
X22681854Y-23043181D01*
X22666368Y-23044400D01*
X21780856Y-23044400D01*
X21691712Y-23068286D01*
X21611788Y-23114430D01*
X12970514Y-31755704D01*
X12915997Y-31783481D01*
X12900510Y-31784700D01*
X12814225Y-31784700D01*
X12768590Y-31796928D01*
X12674210Y-31822217D01*
X12548689Y-31894687D01*
X12446187Y-31997189D01*
X12380836Y-32110381D01*
X12335367Y-32151322D01*
X12274516Y-32157718D01*
X12221528Y-32127125D01*
X12196642Y-32071229D01*
X12196100Y-32060881D01*
X12196100Y-31321589D01*
X12215007Y-31263398D01*
X12225090Y-31251591D01*
X12661270Y-30815412D01*
X12707414Y-30735488D01*
X12708244Y-30732387D01*
X12716704Y-30700820D01*
X12722046Y-30680880D01*
X12731300Y-30646344D01*
X12731300Y-27627525D01*
X14374500Y-27627525D01*
X14374500Y-27772475D01*
X14386571Y-27817525D01*
X14412017Y-27912489D01*
X14484487Y-28038010D01*
X14484489Y-28038012D01*
X14484491Y-28038015D01*
X14586985Y-28140509D01*
X14586987Y-28140510D01*
X14586989Y-28140512D01*
X14712511Y-28212982D01*
X14712512Y-28212982D01*
X14712515Y-28212984D01*
X14852525Y-28250500D01*
X14852526Y-28250500D01*
X14997474Y-28250500D01*
X14997475Y-28250500D01*
X15137485Y-28212984D01*
X15137487Y-28212982D01*
X15137489Y-28212982D01*
X15263010Y-28140512D01*
X15263010Y-28140511D01*
X15263015Y-28140509D01*
X15365509Y-28038015D01*
X15373483Y-28024204D01*
X15437982Y-27912489D01*
X15437982Y-27912487D01*
X15437984Y-27912485D01*
X15475500Y-27772475D01*
X15475500Y-27627525D01*
X15437984Y-27487515D01*
X15437982Y-27487512D01*
X15437982Y-27487510D01*
X15365512Y-27361989D01*
X15365510Y-27361987D01*
X15365509Y-27361985D01*
X15263015Y-27259491D01*
X15263012Y-27259489D01*
X15263010Y-27259487D01*
X15137488Y-27187017D01*
X15137489Y-27187017D01*
X15107896Y-27179087D01*
X14997475Y-27149500D01*
X14852525Y-27149500D01*
X14790790Y-27166041D01*
X14712510Y-27187017D01*
X14586989Y-27259487D01*
X14484487Y-27361989D01*
X14412017Y-27487510D01*
X14376681Y-27619385D01*
X14374500Y-27627525D01*
X12731300Y-27627525D01*
X12731300Y-25054189D01*
X12750207Y-24995998D01*
X12760290Y-24984191D01*
X15151256Y-22593225D01*
X15638600Y-22593225D01*
X15638600Y-22738175D01*
X15661794Y-22824734D01*
X15676117Y-22878189D01*
X15748587Y-23003710D01*
X15748589Y-23003712D01*
X15748591Y-23003715D01*
X15851085Y-23106209D01*
X15851087Y-23106210D01*
X15851089Y-23106212D01*
X15976611Y-23178682D01*
X15976612Y-23178682D01*
X15976615Y-23178684D01*
X16116625Y-23216200D01*
X16116626Y-23216200D01*
X16261574Y-23216200D01*
X16261575Y-23216200D01*
X16401585Y-23178684D01*
X16401587Y-23178682D01*
X16401589Y-23178682D01*
X16527110Y-23106212D01*
X16527110Y-23106211D01*
X16527115Y-23106209D01*
X16629609Y-23003715D01*
X16635566Y-22993397D01*
X16702082Y-22878189D01*
X16702082Y-22878187D01*
X16702084Y-22878185D01*
X16739600Y-22738175D01*
X16739600Y-22651889D01*
X16758507Y-22593698D01*
X16768596Y-22581886D01*
X16962188Y-22388293D01*
X17016705Y-22360515D01*
X17077137Y-22370086D01*
X17120402Y-22413351D01*
X17123655Y-22420407D01*
X17124517Y-22422489D01*
X17196987Y-22548010D01*
X17196989Y-22548012D01*
X17196991Y-22548015D01*
X17299485Y-22650509D01*
X17299487Y-22650510D01*
X17299489Y-22650512D01*
X17425011Y-22722982D01*
X17425012Y-22722982D01*
X17425015Y-22722984D01*
X17565025Y-22760500D01*
X17565026Y-22760500D01*
X17709974Y-22760500D01*
X17709975Y-22760500D01*
X17849985Y-22722984D01*
X17849987Y-22722982D01*
X17849989Y-22722982D01*
X17975510Y-22650512D01*
X17975510Y-22650511D01*
X17975515Y-22650509D01*
X18078009Y-22548015D01*
X18150484Y-22422485D01*
X18188000Y-22282475D01*
X18188000Y-22137525D01*
X18150484Y-21997515D01*
X18150482Y-21997512D01*
X18150482Y-21997510D01*
X18078012Y-21871989D01*
X18078010Y-21871987D01*
X18078009Y-21871985D01*
X17975515Y-21769491D01*
X17975512Y-21769489D01*
X17975510Y-21769487D01*
X17849989Y-21697017D01*
X17847907Y-21696155D01*
X17846680Y-21695107D01*
X17844366Y-21693771D01*
X17844613Y-21693342D01*
X17801383Y-21656417D01*
X17787101Y-21596921D01*
X17810518Y-21540394D01*
X17815767Y-21534714D01*
X22734585Y-16615895D01*
X22789102Y-16588119D01*
X22804589Y-16586900D01*
X24402768Y-16586900D01*
X24460959Y-16605807D01*
X24472771Y-16615896D01*
X24533784Y-16676908D01*
X24533789Y-16676912D01*
X24659311Y-16749382D01*
X24659312Y-16749382D01*
X24659315Y-16749384D01*
X24799325Y-16786900D01*
X24799326Y-16786900D01*
X24944274Y-16786900D01*
X24944275Y-16786900D01*
X25084285Y-16749384D01*
X25084287Y-16749382D01*
X25084289Y-16749382D01*
X25209810Y-16676912D01*
X25209810Y-16676911D01*
X25209815Y-16676909D01*
X25312309Y-16574415D01*
X25316944Y-16566387D01*
X25384782Y-16448889D01*
X25384782Y-16448887D01*
X25384784Y-16448885D01*
X25422300Y-16308875D01*
X25422300Y-16163925D01*
X25384784Y-16023915D01*
X25384782Y-16023912D01*
X25384782Y-16023910D01*
X25312312Y-15898389D01*
X25312310Y-15898387D01*
X25312309Y-15898385D01*
X25209815Y-15795891D01*
X25209812Y-15795889D01*
X25209810Y-15795887D01*
X25084288Y-15723417D01*
X25084289Y-15723417D01*
X25054696Y-15715487D01*
X24944275Y-15685900D01*
X24799325Y-15685900D01*
X24737590Y-15702441D01*
X24659310Y-15723417D01*
X24533789Y-15795887D01*
X24533784Y-15795891D01*
X24472771Y-15856904D01*
X24418254Y-15884681D01*
X24402768Y-15885900D01*
X22572256Y-15885900D01*
X22483112Y-15909786D01*
X22483111Y-15909786D01*
X22483109Y-15909787D01*
X22403190Y-15955929D01*
X16272914Y-22086204D01*
X16218397Y-22113981D01*
X16202910Y-22115200D01*
X16116625Y-22115200D01*
X16056588Y-22131287D01*
X15976610Y-22152717D01*
X15851089Y-22225187D01*
X15748587Y-22327689D01*
X15676117Y-22453210D01*
X15659096Y-22516732D01*
X15638600Y-22593225D01*
X15151256Y-22593225D01*
X20145470Y-17599012D01*
X20191614Y-17519088D01*
X20208143Y-17457400D01*
X20215500Y-17429944D01*
X20215500Y-14861631D01*
X20234407Y-14803440D01*
X20244490Y-14791633D01*
X20305509Y-14730615D01*
X20372901Y-14613889D01*
X20377982Y-14605089D01*
X20377982Y-14605087D01*
X20377984Y-14605085D01*
X20415500Y-14465075D01*
X20415500Y-14320125D01*
X20377984Y-14180115D01*
X20377982Y-14180111D01*
X20377982Y-14180110D01*
X20305512Y-14054589D01*
X20305510Y-14054587D01*
X20305509Y-14054585D01*
X20203015Y-13952091D01*
X20203012Y-13952089D01*
X20203010Y-13952087D01*
X20077488Y-13879617D01*
X20077489Y-13879617D01*
X20047896Y-13871687D01*
X19937475Y-13842100D01*
X19792525Y-13842100D01*
X19730790Y-13858641D01*
X19652510Y-13879617D01*
X19526989Y-13952087D01*
X19424487Y-14054589D01*
X19352017Y-14180111D01*
X19352015Y-14180115D01*
X19319164Y-14302713D01*
X19285840Y-14354027D01*
X19228718Y-14375953D01*
X19197915Y-14372716D01*
X19128167Y-14354027D01*
X19084775Y-14342400D01*
X18939825Y-14342400D01*
X18896433Y-14354027D01*
X18799810Y-14379917D01*
X18674289Y-14452387D01*
X18571787Y-14554889D01*
X18499317Y-14680410D01*
X18499316Y-14680415D01*
X18461800Y-14820425D01*
X18461800Y-14965375D01*
X18479278Y-15030602D01*
X18499317Y-15105389D01*
X18571787Y-15230910D01*
X18571789Y-15230912D01*
X18571791Y-15230915D01*
X18632805Y-15291929D01*
X18660581Y-15346444D01*
X18661800Y-15361931D01*
X18661800Y-15720609D01*
X18642893Y-15778800D01*
X18632804Y-15790613D01*
X9986704Y-24436713D01*
X9932187Y-24464490D01*
X9871755Y-24454919D01*
X9828490Y-24411654D01*
X9819761Y-24375298D01*
X9818547Y-24375458D01*
X9817700Y-24369027D01*
X9817700Y-24369025D01*
X9780184Y-24229015D01*
X9780182Y-24229012D01*
X9780182Y-24229010D01*
X9707712Y-24103489D01*
X9707710Y-24103487D01*
X9707709Y-24103485D01*
X9605215Y-24000991D01*
X9605212Y-24000989D01*
X9605210Y-24000987D01*
X9479688Y-23928517D01*
X9479689Y-23928517D01*
X9402686Y-23907884D01*
X9339675Y-23891000D01*
X9194725Y-23891000D01*
X9132990Y-23907541D01*
X9054710Y-23928517D01*
X8929189Y-24000987D01*
X8826687Y-24103489D01*
X8754217Y-24229010D01*
X8723805Y-24342510D01*
X8716700Y-24369025D01*
X8716700Y-24513975D01*
X8753895Y-24652788D01*
X8755896Y-24660253D01*
X8753827Y-24660807D01*
X8757866Y-24712231D01*
X8731609Y-24759107D01*
X5954314Y-27536404D01*
X5899797Y-27564181D01*
X5884310Y-27565400D01*
X1894732Y-27565400D01*
X1836541Y-27546493D01*
X1824729Y-27536404D01*
X1763715Y-27475391D01*
X1763710Y-27475387D01*
X1638188Y-27402917D01*
X1638189Y-27402917D01*
X1589982Y-27390000D01*
X1498175Y-27365400D01*
X1353225Y-27365400D01*
X1291490Y-27381941D01*
X1213210Y-27402917D01*
X1087689Y-27475387D01*
X985187Y-27577889D01*
X912717Y-27703410D01*
X880620Y-27823199D01*
X875200Y-27843425D01*
X500500Y-27843425D01*
X500500Y-14879425D01*
X16015100Y-14879425D01*
X16015100Y-15024375D01*
X16034195Y-15095638D01*
X16052617Y-15164389D01*
X16125087Y-15289910D01*
X16125089Y-15289912D01*
X16125091Y-15289915D01*
X16227585Y-15392409D01*
X16227587Y-15392410D01*
X16227589Y-15392412D01*
X16353111Y-15464882D01*
X16353112Y-15464882D01*
X16353115Y-15464884D01*
X16493125Y-15502400D01*
X16493126Y-15502400D01*
X16638074Y-15502400D01*
X16638075Y-15502400D01*
X16778085Y-15464884D01*
X16778087Y-15464882D01*
X16778089Y-15464882D01*
X16903610Y-15392412D01*
X16903610Y-15392411D01*
X16903615Y-15392409D01*
X17006109Y-15289915D01*
X17078584Y-15164385D01*
X17116100Y-15024375D01*
X17116100Y-14879425D01*
X17078584Y-14739415D01*
X17078582Y-14739412D01*
X17078582Y-14739410D01*
X17006112Y-14613889D01*
X17006110Y-14613887D01*
X17006109Y-14613885D01*
X16903615Y-14511391D01*
X16903612Y-14511389D01*
X16903610Y-14511387D01*
X16778088Y-14438917D01*
X16778089Y-14438917D01*
X16748496Y-14430987D01*
X16638075Y-14401400D01*
X16493125Y-14401400D01*
X16431390Y-14417941D01*
X16353110Y-14438917D01*
X16227589Y-14511387D01*
X16125087Y-14613889D01*
X16052617Y-14739410D01*
X16035460Y-14803440D01*
X16015100Y-14879425D01*
X500500Y-14879425D01*
X500500Y-3875433D01*
X1599500Y-3875433D01*
X1599500Y-4124566D01*
X1632017Y-4371557D01*
X1632017Y-4371562D01*
X1696496Y-4612199D01*
X1696500Y-4612212D01*
X1791832Y-4842365D01*
X1791834Y-4842369D01*
X1791836Y-4842373D01*
X1916401Y-5058127D01*
X1916403Y-5058130D01*
X2068056Y-5255769D01*
X2068058Y-5255771D01*
X2068062Y-5255776D01*
X2244224Y-5431938D01*
X2244228Y-5431941D01*
X2244230Y-5431943D01*
X2441869Y-5583596D01*
X2441873Y-5583599D01*
X2657627Y-5708164D01*
X2887793Y-5803502D01*
X3128435Y-5867982D01*
X3375435Y-5900500D01*
X3375436Y-5900500D01*
X3624564Y-5900500D01*
X3624565Y-5900500D01*
X3871565Y-5867982D01*
X4112207Y-5803502D01*
X4342373Y-5708164D01*
X4558127Y-5583599D01*
X4755776Y-5431938D01*
X4931938Y-5255776D01*
X5083599Y-5058127D01*
X5208164Y-4842373D01*
X5303502Y-4612207D01*
X5367982Y-4371565D01*
X5400500Y-4124565D01*
X5400500Y-3875435D01*
X5367982Y-3628435D01*
X5303502Y-3387793D01*
X5208164Y-3157627D01*
X5083599Y-2941873D01*
X4931938Y-2744224D01*
X4755776Y-2568062D01*
X4755771Y-2568058D01*
X4755769Y-2568056D01*
X4558130Y-2416403D01*
X4558127Y-2416401D01*
X4342373Y-2291836D01*
X4342369Y-2291834D01*
X4342365Y-2291832D01*
X4112212Y-2196500D01*
X4112211Y-2196499D01*
X4112207Y-2196498D01*
X3871565Y-2132018D01*
X3871562Y-2132017D01*
X3871560Y-2132017D01*
X3624566Y-2099500D01*
X3624565Y-2099500D01*
X3375435Y-2099500D01*
X3375433Y-2099500D01*
X3128442Y-2132017D01*
X3128437Y-2132017D01*
X2887800Y-2196496D01*
X2887787Y-2196500D01*
X2657634Y-2291832D01*
X2441869Y-2416403D01*
X2244230Y-2568056D01*
X2068056Y-2744230D01*
X1916403Y-2941869D01*
X1791832Y-3157634D01*
X1696500Y-3387787D01*
X1696496Y-3387800D01*
X1632017Y-3628437D01*
X1632017Y-3628442D01*
X1599500Y-3875433D01*
X500500Y-3875433D01*
X500500Y-599500D01*
X519407Y-541309D01*
X568907Y-505345D01*
X599500Y-500500D01*
X7901000Y-500500D01*
X7959191Y-519407D01*
G37*
%TD.AperFunction*%
%TD*%
M02*
