%TF.GenerationSoftware,KiCad,Pcbnew,10.0.5*%
%TF.CreationDate,2026-08-08T18:07:34+02:00*%
%TF.ProjectId,wisp,77697370-2e6b-4696-9361-645f70636258,rev?*%
%TF.SameCoordinates,Original*%
%TF.FileFunction,Copper,L2,Inr*%
%TF.FilePolarity,Positive*%
%FSLAX46Y46*%
G04 Gerber Fmt 4.6, Leading zero omitted, Abs format (unit mm)*
G04 Created by KiCad (PCBNEW 10.0.5) date 2026-08-08 18:07:34*
%MOMM*%
%LPD*%
G01*
G04 APERTURE LIST*
%TA.AperFunction,ComponentPad*%
%ADD10R,1.700000X1.700000*%
%TD*%
%TA.AperFunction,ComponentPad*%
%ADD11C,1.700000*%
%TD*%
%TA.AperFunction,ComponentPad*%
%ADD12O,1.000000X2.100000*%
%TD*%
%TA.AperFunction,ComponentPad*%
%ADD13O,1.000000X1.600000*%
%TD*%
%TA.AperFunction,HeatsinkPad*%
%ADD14C,0.600000*%
%TD*%
%TA.AperFunction,ViaPad*%
%ADD15C,0.600000*%
%TD*%
G04 APERTURE END LIST*
D10*
%TO.N,+3V3*%
%TO.C,J8*%
X12000000Y-57000000D03*
D11*
%TO.N,GND*%
X12000000Y-59540000D03*
%TO.N,/ADC_PAD_EXT*%
X12000000Y-62080000D03*
%TD*%
D10*
%TO.N,/REED_EXT*%
%TO.C,J6*%
X12000000Y-48000000D03*
D11*
%TO.N,GND*%
X12000000Y-50540000D03*
%TD*%
D10*
%TO.N,/+5V_EXT*%
%TO.C,J5*%
X4500000Y-48000000D03*
D11*
%TO.N,/SW_GND*%
X4500000Y-50540000D03*
%TO.N,GND*%
X4500000Y-53080000D03*
%TD*%
D10*
%TO.N,+3V3*%
%TO.C,J2*%
X56500000Y-14000000D03*
D11*
%TO.N,/SDA2*%
X56500000Y-16540000D03*
%TO.N,/SCL2*%
X56500000Y-19080000D03*
%TO.N,GND*%
X56500000Y-21620000D03*
%TD*%
D10*
%TO.N,/+5V_EXT*%
%TO.C,J3*%
X56500000Y-26000000D03*
D11*
%TO.N,GND*%
X56500000Y-28540000D03*
%TO.N,/MMWAVE_TX*%
X56500000Y-31080000D03*
%TO.N,/MMWAVE_RX*%
X56500000Y-33620000D03*
%TD*%
D10*
%TO.N,+3V3*%
%TO.C,J4*%
X56500000Y-38000000D03*
D11*
%TO.N,GND*%
X56500000Y-40540000D03*
%TO.N,/MIC_WS*%
X56500000Y-43080000D03*
%TO.N,/MIC_SCK*%
X56500000Y-45620000D03*
%TO.N,/MIC_SD*%
X56500000Y-48160000D03*
%TD*%
D10*
%TO.N,GND*%
%TO.C,J9*%
X56500000Y-52000000D03*
D11*
%TO.N,+3V3*%
X56500000Y-54540000D03*
%TO.N,/EXP_IO1*%
X56500000Y-57080000D03*
%TO.N,/EXP_IO2*%
X56500000Y-59620000D03*
%TO.N,/EXP_IO21*%
X56500000Y-62160000D03*
%TO.N,/EXP_IO38*%
X56500000Y-64700000D03*
%TO.N,/EXP_IO47*%
X56500000Y-67240000D03*
%TO.N,/EXP_IO48*%
X56500000Y-69780000D03*
%TD*%
D10*
%TO.N,+3V3*%
%TO.C,J7*%
X4500000Y-57000000D03*
D11*
%TO.N,GND*%
X4500000Y-59540000D03*
%TO.N,/ONEWIRE_EXT*%
X4500000Y-62080000D03*
%TD*%
D12*
%TO.N,GND*%
%TO.C,J1*%
X1180000Y-36870000D03*
D13*
X1180000Y-41050000D03*
D12*
X9820000Y-36870000D03*
D13*
X9820000Y-41050000D03*
%TD*%
D14*
%TO.N,GND*%
%TO.C,U3*%
X27100000Y-15260000D03*
X27100000Y-16660000D03*
X27800000Y-14560000D03*
X27800000Y-15960000D03*
X27800000Y-17360000D03*
X28500000Y-15260000D03*
X28500000Y-16660000D03*
X29200000Y-14560000D03*
X29200000Y-15960000D03*
X29200000Y-17360000D03*
X29900000Y-15260000D03*
X29900000Y-16660000D03*
%TD*%
D15*
%TO.N,+3V3*%
X52087500Y-19080000D03*
X40850000Y-68449200D03*
X35850000Y-30000000D03*
X42837500Y-73400000D03*
X25500000Y-54450000D03*
X26056400Y-74907100D03*
X38400000Y-43000000D03*
X40375000Y-66025000D03*
X44175000Y-63525000D03*
X21650000Y-9510000D03*
X43742900Y-68755600D03*
X26056400Y-66607100D03*
X17637500Y-22210000D03*
X17588700Y-12621300D03*
X26500000Y-56550000D03*
X28262500Y-32050000D03*
X16565600Y-14951900D03*
X35850000Y-36000000D03*
X46043900Y-76430500D03*
X21381600Y-78468400D03*
X44500000Y-72100800D03*
X52087500Y-16540000D03*
X41337500Y-24750000D03*
X25500000Y-56550000D03*
X14925000Y-27700000D03*
X38850000Y-33000000D03*
X25200000Y-77250000D03*
X26500000Y-54450000D03*
X25042500Y-28300000D03*
X7805900Y-65898400D03*
X36800000Y-33000000D03*
X39655300Y-71055300D03*
X17600000Y-9510000D03*
X44825000Y-66475000D03*
X36575000Y-66025000D03*
%TO.N,GND*%
X6000000Y-46000000D03*
X42750000Y-68449200D03*
X26000000Y-10000000D03*
X46000000Y-78000000D03*
X54000000Y-42000000D03*
X30000000Y-58000000D03*
X22000000Y-58000000D03*
X42000000Y-14000000D03*
X30000000Y-22000000D03*
X38000000Y-26000000D03*
X38000000Y-70000000D03*
X26000000Y-34000000D03*
X45875000Y-66025000D03*
X42400000Y-43000000D03*
X40750000Y-33000000D03*
X10000000Y-50000000D03*
X46000000Y-54000000D03*
X18000000Y-30000000D03*
X10000000Y-70000000D03*
X26000000Y-18000000D03*
X2000000Y-22000000D03*
X14000000Y-54000000D03*
X50000000Y-54000000D03*
X46000000Y-14000000D03*
X58000000Y-70000000D03*
X58000000Y-10000000D03*
X54000000Y-78000000D03*
X10000000Y-34000000D03*
X38000000Y-38000000D03*
X6000000Y-38000000D03*
X50000000Y-58000000D03*
X54000000Y-26000000D03*
X34000000Y-66000000D03*
X14000000Y-22000000D03*
X6000000Y-26000000D03*
X50000000Y-10000000D03*
X38000000Y-58000000D03*
X6000000Y-78000000D03*
X26000000Y-14000000D03*
X46050000Y-77300000D03*
X34000000Y-30000000D03*
X3825000Y-25075000D03*
X2000000Y-78000000D03*
X58000000Y-66000000D03*
X58000000Y-14000000D03*
X2000000Y-70000000D03*
X14000000Y-78000000D03*
X40900000Y-75700000D03*
X18000000Y-18000000D03*
X6000000Y-14000000D03*
X19488700Y-12621300D03*
X14000000Y-38000000D03*
X6000000Y-62000000D03*
X38000000Y-50000000D03*
X34000000Y-74000000D03*
X6000000Y-54000000D03*
X50000000Y-26000000D03*
X38000000Y-74000000D03*
X58000000Y-54000000D03*
X18000000Y-46000000D03*
X58000000Y-78000000D03*
X10000000Y-54000000D03*
X46000000Y-38000000D03*
X11178800Y-33338700D03*
X46000000Y-58000000D03*
X27525000Y-14985000D03*
X28200000Y-69300000D03*
X46000000Y-26000000D03*
X2000000Y-10000000D03*
X38475000Y-66025000D03*
X14000000Y-70000000D03*
X6000000Y-66000000D03*
X30000000Y-78000000D03*
X18000000Y-34000000D03*
X24806400Y-74907100D03*
X5900000Y-16150000D03*
X58000000Y-50000000D03*
X42000000Y-54000000D03*
X6000000Y-58000000D03*
X15600000Y-10780000D03*
X10000000Y-22000000D03*
X30000000Y-10000000D03*
X50000000Y-22000000D03*
X43750000Y-76500000D03*
X50000000Y-42000000D03*
X58000000Y-18000000D03*
X42000000Y-62000000D03*
X34000000Y-18000000D03*
X29212500Y-36150000D03*
X22000000Y-74000000D03*
X2250000Y-36355000D03*
X34000000Y-38000000D03*
X42000000Y-50000000D03*
X18000000Y-54000000D03*
X39150000Y-8240000D03*
X38000000Y-54000000D03*
X34000000Y-70000000D03*
X29475000Y-16935000D03*
X13262500Y-36500000D03*
X54000000Y-58000000D03*
X22000000Y-46000000D03*
X22000000Y-50000000D03*
X34000000Y-50000000D03*
X34000000Y-78000000D03*
X7975000Y-25075000D03*
X30000000Y-46000000D03*
X18000000Y-26000000D03*
X42000000Y-70000000D03*
X30000000Y-38000000D03*
X2000000Y-42000000D03*
X42000000Y-26000000D03*
X54000000Y-10000000D03*
X22000000Y-34000000D03*
X46000000Y-42000000D03*
X10000000Y-46000000D03*
X42000000Y-10000000D03*
X54000000Y-46000000D03*
X22000000Y-30000000D03*
X15475000Y-25075000D03*
X54000000Y-38000000D03*
X2000000Y-26000000D03*
X11325000Y-25075000D03*
X58000000Y-26000000D03*
X22000000Y-66000000D03*
X58000000Y-34000000D03*
X6000000Y-34000000D03*
X10000000Y-18000000D03*
X14000000Y-18000000D03*
X15562500Y-51490000D03*
X10000000Y-58000000D03*
X50000000Y-30000000D03*
X42000000Y-30000000D03*
X54000000Y-74000000D03*
X10000000Y-30000000D03*
X34000000Y-10000000D03*
X46000000Y-34000000D03*
X25800000Y-71700000D03*
X9150000Y-35955000D03*
X30000000Y-50000000D03*
X6000000Y-42000000D03*
X37750000Y-36000000D03*
X46000000Y-74000000D03*
X6000000Y-6000000D03*
X10000000Y-78000000D03*
X5812500Y-65240000D03*
X2000000Y-14000000D03*
X21650000Y-8240000D03*
X6000000Y-70000000D03*
X25800000Y-69300000D03*
X42275000Y-66025000D03*
X24806400Y-66607100D03*
X10000000Y-62000000D03*
X10000000Y-38000000D03*
X10762500Y-16150000D03*
X22000000Y-54000000D03*
X54000000Y-50000000D03*
X46000000Y-62000000D03*
X58000000Y-62000000D03*
X42000000Y-78000000D03*
X30000000Y-54000000D03*
X2000000Y-50000000D03*
X50000000Y-38000000D03*
X6000000Y-74000000D03*
X50000000Y-34000000D03*
X26000000Y-46000000D03*
X14000000Y-34000000D03*
X2000000Y-54000000D03*
X34000000Y-22000000D03*
X38000000Y-46000000D03*
X58000000Y-22000000D03*
X2000000Y-66000000D03*
X23281600Y-78468400D03*
X58000000Y-42000000D03*
X42000000Y-22000000D03*
X46000000Y-70000000D03*
X26000000Y-38000000D03*
X58000000Y-30000000D03*
X27100000Y-77250000D03*
X37750000Y-30000000D03*
X10000000Y-74000000D03*
X58000000Y-74000000D03*
X46000000Y-18000000D03*
X54000000Y-54000000D03*
X18000000Y-38000000D03*
X2000000Y-46000000D03*
X28200000Y-71700000D03*
X14000000Y-26000000D03*
X46000000Y-50000000D03*
X10000000Y-42000000D03*
X42000000Y-18000000D03*
X18000000Y-58000000D03*
X37062500Y-56450000D03*
X50000000Y-14000000D03*
X26000000Y-30000000D03*
X17239100Y-58190900D03*
X42000000Y-58000000D03*
X43455500Y-64368900D03*
X13962500Y-30000000D03*
X46000000Y-10000000D03*
X54000000Y-66000000D03*
X34000000Y-14000000D03*
X19500000Y-9510000D03*
X42000000Y-42000000D03*
X5562500Y-33355000D03*
X14000000Y-74000000D03*
X26000000Y-50000000D03*
X42000000Y-34000000D03*
X26000000Y-22000000D03*
X29475000Y-14985000D03*
X6000000Y-50000000D03*
X46000000Y-46000000D03*
X9850000Y-13650000D03*
X58000000Y-46000000D03*
X45400000Y-68449200D03*
X54000000Y-6000000D03*
X30537500Y-33950000D03*
X2000000Y-58000000D03*
X2000000Y-62000000D03*
X50000000Y-46000000D03*
X46000000Y-22000000D03*
X6000000Y-2000000D03*
X38000000Y-78000000D03*
X18000000Y-42000000D03*
X50000000Y-18000000D03*
X58000000Y-38000000D03*
X54000000Y-30000000D03*
X6000000Y-22000000D03*
X41555300Y-71055300D03*
X42000000Y-38000000D03*
X34000000Y-46000000D03*
X27525000Y-16935000D03*
X2000000Y-34000000D03*
X22000000Y-38000000D03*
X6000000Y-10000000D03*
X42000000Y-46000000D03*
X50000000Y-50000000D03*
X22000000Y-26000000D03*
X26000000Y-78000000D03*
X14000000Y-62000000D03*
X54000000Y-34000000D03*
X58000000Y-58000000D03*
X2000000Y-74000000D03*
X46000000Y-30000000D03*
X54000000Y-2000000D03*
X10000000Y-26000000D03*
%TO.N,/EN*%
X27805600Y-48813700D03*
X10918500Y-31056700D03*
%TO.N,/SCL2*%
X22884400Y-20254600D03*
%TO.N,/ADC_PAD*%
X23201100Y-24490900D03*
X19003500Y-35257400D03*
%TO.N,/IO0*%
X16189100Y-22665700D03*
X24871800Y-16236400D03*
%TO.N,/SDA*%
X45333600Y-72363000D03*
X30729800Y-74930900D03*
X42426100Y-75542400D03*
%TO.N,/LED_DOUT*%
X43564900Y-15367100D03*
X6411000Y-12778300D03*
%TO.N,+5V*%
X14791900Y-31525500D03*
X25573600Y-36639000D03*
X9267200Y-24441500D03*
X12447400Y-33383900D03*
X1425700Y-27915900D03*
%TO.N,/+5V_EXT*%
X24798000Y-49532100D03*
X13317400Y-9323000D03*
X4001300Y-31878700D03*
%TO.N,/SW_GND*%
X7066800Y-40145200D03*
X7204800Y-31750900D03*
%TO.N,/UART0_RX*%
X44287600Y-35178500D03*
X45461200Y-33118800D03*
X47614000Y-26092600D03*
X45916600Y-28603700D03*
X46083600Y-18901400D03*
X42547100Y-17006900D03*
%TO.N,/REED_IN*%
X15797800Y-40672100D03*
X19865000Y-14392600D03*
%TO.N,/EXP_IO47*%
X57949300Y-45027600D03*
X34907700Y-27921300D03*
%TO.N,/BUZZER_CTRL*%
X23189100Y-18517100D03*
X40466200Y-54237200D03*
%TO.N,/JTAG_MTMS*%
X35800000Y-22571800D03*
X32162300Y-32886800D03*
%TO.N,/SDA2*%
X22685800Y-19417200D03*
%TO.N,/MMWAVE_TX*%
X30150200Y-27927300D03*
%TO.N,/MMWAVE_RX*%
X55173400Y-27472700D03*
X33785900Y-24401700D03*
%TO.N,/JTAG_MTCK*%
X27960100Y-34907100D03*
X41380800Y-20325500D03*
%TO.N,/JTAG_MTDI*%
X36584400Y-20231600D03*
X24655300Y-30526600D03*
%TO.N,/MIC_WS*%
X31144600Y-27406900D03*
%TO.N,/MIC_SCK*%
X31075800Y-24555000D03*
%TO.N,/MIC_SD*%
X32231000Y-31651100D03*
%TO.N,/EXP_IO21*%
X30155600Y-24090800D03*
%TO.N,/EXP_IO38*%
X41071100Y-22865000D03*
%TO.N,/SW_OUT_CTRL*%
X16719400Y-34375300D03*
X17982600Y-35391100D03*
%TO.N,/ONEWIRE_DATA*%
X19012300Y-14892900D03*
X4573600Y-37334700D03*
%TO.N,/USB_DM*%
X12886700Y-32335200D03*
X23135400Y-23394900D03*
%TO.N,/USB_DP*%
X21910800Y-36572000D03*
X16618700Y-36667400D03*
%TO.N,/JTAG_MTDO*%
X39444000Y-37757400D03*
X36896900Y-38784600D03*
%TD*%
%TA.AperFunction,Conductor*%
%TO.N,GND*%
G36*
X7959191Y-519407D02*
G01*
X7995155Y-568907D01*
X8000000Y-599499D01*
X8000000Y-7500000D01*
X8000001Y-7500000D01*
X51999999Y-7500000D01*
X52000000Y-7500000D01*
X52000000Y-3875433D01*
X54599500Y-3875433D01*
X54599500Y-4124566D01*
X54632017Y-4371557D01*
X54632017Y-4371562D01*
X54696496Y-4612199D01*
X54696500Y-4612212D01*
X54791832Y-4842365D01*
X54791834Y-4842369D01*
X54791836Y-4842373D01*
X54916401Y-5058127D01*
X54916403Y-5058130D01*
X55068056Y-5255769D01*
X55068058Y-5255771D01*
X55068062Y-5255776D01*
X55244224Y-5431938D01*
X55244228Y-5431941D01*
X55244230Y-5431943D01*
X55441869Y-5583596D01*
X55441873Y-5583599D01*
X55657627Y-5708164D01*
X55887793Y-5803502D01*
X56128435Y-5867982D01*
X56375435Y-5900500D01*
X56375436Y-5900500D01*
X56624564Y-5900500D01*
X56624565Y-5900500D01*
X56871565Y-5867982D01*
X57112207Y-5803502D01*
X57342373Y-5708164D01*
X57558127Y-5583599D01*
X57755776Y-5431938D01*
X57931938Y-5255776D01*
X58083599Y-5058127D01*
X58208164Y-4842373D01*
X58303502Y-4612207D01*
X58367982Y-4371565D01*
X58400500Y-4124565D01*
X58400500Y-3875435D01*
X58367982Y-3628435D01*
X58303502Y-3387793D01*
X58208164Y-3157627D01*
X58083599Y-2941873D01*
X57931938Y-2744224D01*
X57755776Y-2568062D01*
X57755771Y-2568058D01*
X57755769Y-2568056D01*
X57558130Y-2416403D01*
X57558127Y-2416401D01*
X57342373Y-2291836D01*
X57342369Y-2291834D01*
X57342365Y-2291832D01*
X57112212Y-2196500D01*
X57112211Y-2196499D01*
X57112207Y-2196498D01*
X56871565Y-2132018D01*
X56871562Y-2132017D01*
X56871560Y-2132017D01*
X56624566Y-2099500D01*
X56624565Y-2099500D01*
X56375435Y-2099500D01*
X56375433Y-2099500D01*
X56128442Y-2132017D01*
X56128437Y-2132017D01*
X55887800Y-2196496D01*
X55887787Y-2196500D01*
X55657634Y-2291832D01*
X55441869Y-2416403D01*
X55244230Y-2568056D01*
X55068056Y-2744230D01*
X54916403Y-2941869D01*
X54791832Y-3157634D01*
X54696500Y-3387787D01*
X54696496Y-3387800D01*
X54632017Y-3628437D01*
X54632017Y-3628442D01*
X54599500Y-3875433D01*
X52000000Y-3875433D01*
X52000000Y-599500D01*
X52018907Y-541309D01*
X52068407Y-505345D01*
X52099000Y-500500D01*
X59400500Y-500500D01*
X59458691Y-519407D01*
X59494655Y-568907D01*
X59499500Y-599500D01*
X59499500Y-79400500D01*
X59480593Y-79458691D01*
X59431093Y-79494655D01*
X59400500Y-79499500D01*
X51099500Y-79499500D01*
X51041309Y-79480593D01*
X51005345Y-79431093D01*
X51000500Y-79400500D01*
X51000500Y-75875433D01*
X54099500Y-75875433D01*
X54099500Y-76124566D01*
X54132017Y-76371557D01*
X54132017Y-76371562D01*
X54196496Y-76612199D01*
X54196500Y-76612212D01*
X54291832Y-76842365D01*
X54291834Y-76842369D01*
X54291836Y-76842373D01*
X54371872Y-76981000D01*
X54416403Y-77058130D01*
X54568056Y-77255769D01*
X54568058Y-77255771D01*
X54568062Y-77255776D01*
X54744224Y-77431938D01*
X54744228Y-77431941D01*
X54744230Y-77431943D01*
X54784039Y-77462489D01*
X54941873Y-77583599D01*
X55157627Y-77708164D01*
X55387793Y-77803502D01*
X55628435Y-77867982D01*
X55875435Y-77900500D01*
X55875436Y-77900500D01*
X56124564Y-77900500D01*
X56124565Y-77900500D01*
X56371565Y-77867982D01*
X56612207Y-77803502D01*
X56842373Y-77708164D01*
X57058127Y-77583599D01*
X57255776Y-77431938D01*
X57431938Y-77255776D01*
X57583599Y-77058127D01*
X57708164Y-76842373D01*
X57803502Y-76612207D01*
X57867982Y-76371565D01*
X57900500Y-76124565D01*
X57900500Y-75875435D01*
X57867982Y-75628435D01*
X57803502Y-75387793D01*
X57708164Y-75157627D01*
X57583599Y-74941873D01*
X57431938Y-74744224D01*
X57255776Y-74568062D01*
X57255771Y-74568058D01*
X57255769Y-74568056D01*
X57058130Y-74416403D01*
X57058127Y-74416401D01*
X56842373Y-74291836D01*
X56842369Y-74291834D01*
X56842365Y-74291832D01*
X56612212Y-74196500D01*
X56612211Y-74196499D01*
X56612207Y-74196498D01*
X56371565Y-74132018D01*
X56371562Y-74132017D01*
X56371560Y-74132017D01*
X56124566Y-74099500D01*
X56124565Y-74099500D01*
X55875435Y-74099500D01*
X55875433Y-74099500D01*
X55628442Y-74132017D01*
X55628437Y-74132017D01*
X55387800Y-74196496D01*
X55387787Y-74196500D01*
X55157634Y-74291832D01*
X54941869Y-74416403D01*
X54744230Y-74568056D01*
X54568056Y-74744230D01*
X54416403Y-74941869D01*
X54291832Y-75157634D01*
X54196500Y-75387787D01*
X54196496Y-75387800D01*
X54132017Y-75628437D01*
X54132017Y-75628442D01*
X54099500Y-75875433D01*
X51000500Y-75875433D01*
X51000500Y-69693385D01*
X55399500Y-69693385D01*
X55399500Y-69866614D01*
X55426597Y-70037702D01*
X55426598Y-70037706D01*
X55480123Y-70202438D01*
X55480125Y-70202441D01*
X55480126Y-70202444D01*
X55480127Y-70202445D01*
X55558768Y-70356788D01*
X55660586Y-70496928D01*
X55783072Y-70619414D01*
X55923212Y-70721232D01*
X56077555Y-70799873D01*
X56077557Y-70799873D01*
X56077558Y-70799874D01*
X56077561Y-70799876D01*
X56242293Y-70853401D01*
X56242297Y-70853402D01*
X56413386Y-70880500D01*
X56413389Y-70880500D01*
X56586614Y-70880500D01*
X56757702Y-70853402D01*
X56757706Y-70853401D01*
X56922438Y-70799876D01*
X56922440Y-70799874D01*
X56922445Y-70799873D01*
X57076788Y-70721232D01*
X57216928Y-70619414D01*
X57339414Y-70496928D01*
X57441232Y-70356788D01*
X57519873Y-70202445D01*
X57519874Y-70202440D01*
X57519876Y-70202438D01*
X57573401Y-70037706D01*
X57573402Y-70037702D01*
X57600500Y-69866614D01*
X57600500Y-69693385D01*
X57573402Y-69522297D01*
X57573401Y-69522293D01*
X57519876Y-69357561D01*
X57519874Y-69357558D01*
X57519873Y-69357557D01*
X57519873Y-69357555D01*
X57441232Y-69203212D01*
X57339414Y-69063072D01*
X57216928Y-68940586D01*
X57076788Y-68838768D01*
X57076787Y-68838767D01*
X57076785Y-68838766D01*
X56922441Y-68760125D01*
X56922438Y-68760123D01*
X56757706Y-68706598D01*
X56757702Y-68706597D01*
X56586614Y-68679500D01*
X56586611Y-68679500D01*
X56413389Y-68679500D01*
X56413386Y-68679500D01*
X56242297Y-68706597D01*
X56242293Y-68706598D01*
X56077561Y-68760123D01*
X56077558Y-68760125D01*
X55923214Y-68838766D01*
X55783073Y-68940585D01*
X55660585Y-69063073D01*
X55558766Y-69203214D01*
X55480125Y-69357558D01*
X55480123Y-69357561D01*
X55426598Y-69522293D01*
X55426597Y-69522297D01*
X55399500Y-69693385D01*
X51000500Y-69693385D01*
X51000500Y-67153385D01*
X55399500Y-67153385D01*
X55399500Y-67326614D01*
X55426597Y-67497702D01*
X55426598Y-67497706D01*
X55480123Y-67662438D01*
X55480125Y-67662441D01*
X55480126Y-67662444D01*
X55480127Y-67662445D01*
X55558768Y-67816788D01*
X55660586Y-67956928D01*
X55783072Y-68079414D01*
X55923212Y-68181232D01*
X56077555Y-68259873D01*
X56077557Y-68259873D01*
X56077558Y-68259874D01*
X56077561Y-68259876D01*
X56242293Y-68313401D01*
X56242297Y-68313402D01*
X56413386Y-68340500D01*
X56413389Y-68340500D01*
X56586614Y-68340500D01*
X56757702Y-68313402D01*
X56757706Y-68313401D01*
X56922438Y-68259876D01*
X56922440Y-68259874D01*
X56922445Y-68259873D01*
X57076788Y-68181232D01*
X57216928Y-68079414D01*
X57339414Y-67956928D01*
X57441232Y-67816788D01*
X57519873Y-67662445D01*
X57519874Y-67662440D01*
X57519876Y-67662438D01*
X57573401Y-67497706D01*
X57573402Y-67497702D01*
X57600500Y-67326614D01*
X57600500Y-67153385D01*
X57573402Y-66982297D01*
X57573401Y-66982293D01*
X57519876Y-66817561D01*
X57519874Y-66817558D01*
X57519873Y-66817557D01*
X57519873Y-66817555D01*
X57441232Y-66663212D01*
X57339414Y-66523072D01*
X57216928Y-66400586D01*
X57076788Y-66298768D01*
X57076787Y-66298767D01*
X57076785Y-66298766D01*
X56922441Y-66220125D01*
X56922438Y-66220123D01*
X56757706Y-66166598D01*
X56757702Y-66166597D01*
X56586614Y-66139500D01*
X56586611Y-66139500D01*
X56413389Y-66139500D01*
X56413386Y-66139500D01*
X56242297Y-66166597D01*
X56242293Y-66166598D01*
X56077561Y-66220123D01*
X56077558Y-66220125D01*
X55923214Y-66298766D01*
X55783073Y-66400585D01*
X55660585Y-66523073D01*
X55558766Y-66663214D01*
X55480125Y-66817558D01*
X55480123Y-66817561D01*
X55426598Y-66982293D01*
X55426597Y-66982297D01*
X55399500Y-67153385D01*
X51000500Y-67153385D01*
X51000500Y-64613385D01*
X55399500Y-64613385D01*
X55399500Y-64786614D01*
X55426597Y-64957702D01*
X55426598Y-64957706D01*
X55480123Y-65122438D01*
X55480125Y-65122441D01*
X55480126Y-65122444D01*
X55480127Y-65122445D01*
X55558768Y-65276788D01*
X55660586Y-65416928D01*
X55783072Y-65539414D01*
X55923212Y-65641232D01*
X56077555Y-65719873D01*
X56077557Y-65719873D01*
X56077558Y-65719874D01*
X56077561Y-65719876D01*
X56242293Y-65773401D01*
X56242297Y-65773402D01*
X56413386Y-65800500D01*
X56413389Y-65800500D01*
X56586614Y-65800500D01*
X56757702Y-65773402D01*
X56757706Y-65773401D01*
X56922438Y-65719876D01*
X56922440Y-65719874D01*
X56922445Y-65719873D01*
X57076788Y-65641232D01*
X57216928Y-65539414D01*
X57339414Y-65416928D01*
X57441232Y-65276788D01*
X57519873Y-65122445D01*
X57519874Y-65122440D01*
X57519876Y-65122438D01*
X57573401Y-64957706D01*
X57573402Y-64957702D01*
X57600500Y-64786614D01*
X57600500Y-64613385D01*
X57573402Y-64442297D01*
X57573401Y-64442293D01*
X57519876Y-64277561D01*
X57519874Y-64277558D01*
X57519873Y-64277557D01*
X57519873Y-64277555D01*
X57441232Y-64123212D01*
X57339414Y-63983072D01*
X57216928Y-63860586D01*
X57076788Y-63758768D01*
X57076787Y-63758767D01*
X57076785Y-63758766D01*
X56922441Y-63680125D01*
X56922438Y-63680123D01*
X56757706Y-63626598D01*
X56757702Y-63626597D01*
X56586614Y-63599500D01*
X56586611Y-63599500D01*
X56413389Y-63599500D01*
X56413386Y-63599500D01*
X56242297Y-63626597D01*
X56242293Y-63626598D01*
X56077561Y-63680123D01*
X56077558Y-63680125D01*
X55923214Y-63758766D01*
X55783073Y-63860585D01*
X55660585Y-63983073D01*
X55558766Y-64123214D01*
X55480125Y-64277558D01*
X55480123Y-64277561D01*
X55426598Y-64442293D01*
X55426597Y-64442297D01*
X55399500Y-64613385D01*
X51000500Y-64613385D01*
X51000500Y-62073385D01*
X55399500Y-62073385D01*
X55399500Y-62246614D01*
X55426597Y-62417702D01*
X55426598Y-62417706D01*
X55480123Y-62582438D01*
X55480125Y-62582441D01*
X55480126Y-62582444D01*
X55480127Y-62582445D01*
X55558768Y-62736788D01*
X55660586Y-62876928D01*
X55783072Y-62999414D01*
X55923212Y-63101232D01*
X56077555Y-63179873D01*
X56077557Y-63179873D01*
X56077558Y-63179874D01*
X56077561Y-63179876D01*
X56242293Y-63233401D01*
X56242297Y-63233402D01*
X56413386Y-63260500D01*
X56413389Y-63260500D01*
X56586614Y-63260500D01*
X56757702Y-63233402D01*
X56757706Y-63233401D01*
X56922438Y-63179876D01*
X56922440Y-63179874D01*
X56922445Y-63179873D01*
X57076788Y-63101232D01*
X57216928Y-62999414D01*
X57339414Y-62876928D01*
X57441232Y-62736788D01*
X57519873Y-62582445D01*
X57519874Y-62582440D01*
X57519876Y-62582438D01*
X57573401Y-62417706D01*
X57573402Y-62417702D01*
X57600500Y-62246614D01*
X57600500Y-62073385D01*
X57573402Y-61902297D01*
X57573401Y-61902293D01*
X57519876Y-61737561D01*
X57519874Y-61737558D01*
X57519873Y-61737557D01*
X57519873Y-61737555D01*
X57441232Y-61583212D01*
X57339414Y-61443072D01*
X57216928Y-61320586D01*
X57076788Y-61218768D01*
X57076787Y-61218767D01*
X57076785Y-61218766D01*
X56922441Y-61140125D01*
X56922438Y-61140123D01*
X56757706Y-61086598D01*
X56757702Y-61086597D01*
X56586614Y-61059500D01*
X56586611Y-61059500D01*
X56413389Y-61059500D01*
X56413386Y-61059500D01*
X56242297Y-61086597D01*
X56242293Y-61086598D01*
X56077561Y-61140123D01*
X56077558Y-61140125D01*
X55923214Y-61218766D01*
X55783073Y-61320585D01*
X55660585Y-61443073D01*
X55558766Y-61583214D01*
X55480125Y-61737558D01*
X55480123Y-61737561D01*
X55426598Y-61902293D01*
X55426597Y-61902297D01*
X55399500Y-62073385D01*
X51000500Y-62073385D01*
X51000500Y-61934109D01*
X50970541Y-61822299D01*
X50966392Y-61806814D01*
X50966390Y-61806811D01*
X50966390Y-61806809D01*
X50900503Y-61692690D01*
X50900501Y-61692688D01*
X50900500Y-61692686D01*
X50807314Y-61599500D01*
X50807311Y-61599498D01*
X50807309Y-61599496D01*
X50693189Y-61533609D01*
X50693191Y-61533609D01*
X50643799Y-61520375D01*
X50565892Y-61499500D01*
X49065892Y-61499500D01*
X48934108Y-61499500D01*
X48856200Y-61520375D01*
X48806809Y-61533609D01*
X48692690Y-61599496D01*
X48599496Y-61692690D01*
X48533609Y-61806809D01*
X48499500Y-61934109D01*
X48499500Y-79400500D01*
X48480593Y-79458691D01*
X48431093Y-79494655D01*
X48400500Y-79499500D01*
X20099500Y-79499500D01*
X20041309Y-79480593D01*
X20005345Y-79431093D01*
X20000500Y-79400500D01*
X20000500Y-78395925D01*
X20831100Y-78395925D01*
X20831100Y-78540874D01*
X20868617Y-78680889D01*
X20941087Y-78806410D01*
X20941089Y-78806412D01*
X20941091Y-78806415D01*
X21043585Y-78908909D01*
X21043587Y-78908910D01*
X21043589Y-78908912D01*
X21169111Y-78981382D01*
X21169112Y-78981382D01*
X21169115Y-78981384D01*
X21309125Y-79018900D01*
X21309126Y-79018900D01*
X21454074Y-79018900D01*
X21454075Y-79018900D01*
X21594085Y-78981384D01*
X21594087Y-78981382D01*
X21594089Y-78981382D01*
X21719610Y-78908912D01*
X21719610Y-78908911D01*
X21719615Y-78908909D01*
X21822109Y-78806415D01*
X21894584Y-78680885D01*
X21932100Y-78540875D01*
X21932100Y-78395925D01*
X21894584Y-78255915D01*
X21894582Y-78255912D01*
X21894582Y-78255910D01*
X21822112Y-78130389D01*
X21822110Y-78130387D01*
X21822109Y-78130385D01*
X21719615Y-78027891D01*
X21719612Y-78027889D01*
X21719610Y-78027887D01*
X21594088Y-77955417D01*
X21594089Y-77955417D01*
X21564496Y-77947487D01*
X21454075Y-77917900D01*
X21309125Y-77917900D01*
X21247390Y-77934441D01*
X21169110Y-77955417D01*
X21043589Y-78027887D01*
X20941087Y-78130389D01*
X20868617Y-78255910D01*
X20831100Y-78395925D01*
X20000500Y-78395925D01*
X20000500Y-77177525D01*
X24649500Y-77177525D01*
X24649500Y-77322474D01*
X24687017Y-77462489D01*
X24759487Y-77588010D01*
X24759489Y-77588012D01*
X24759491Y-77588015D01*
X24861985Y-77690509D01*
X24861987Y-77690510D01*
X24861989Y-77690512D01*
X24987511Y-77762982D01*
X24987512Y-77762982D01*
X24987515Y-77762984D01*
X25127525Y-77800500D01*
X25127526Y-77800500D01*
X25272474Y-77800500D01*
X25272475Y-77800500D01*
X25412485Y-77762984D01*
X25412487Y-77762982D01*
X25412489Y-77762982D01*
X25538010Y-77690512D01*
X25538010Y-77690511D01*
X25538015Y-77690509D01*
X25640509Y-77588015D01*
X25712984Y-77462485D01*
X25750500Y-77322475D01*
X25750500Y-77177525D01*
X25712984Y-77037515D01*
X25712982Y-77037512D01*
X25712982Y-77037510D01*
X25640512Y-76911989D01*
X25640510Y-76911987D01*
X25640509Y-76911985D01*
X25538015Y-76809491D01*
X25538012Y-76809489D01*
X25538010Y-76809487D01*
X25412488Y-76737017D01*
X25412489Y-76737017D01*
X25382896Y-76729087D01*
X25272475Y-76699500D01*
X25127525Y-76699500D01*
X25065790Y-76716041D01*
X24987510Y-76737017D01*
X24861989Y-76809487D01*
X24759487Y-76911989D01*
X24687017Y-77037510D01*
X24649500Y-77177525D01*
X20000500Y-77177525D01*
X20000500Y-76358025D01*
X45493400Y-76358025D01*
X45493400Y-76502974D01*
X45530917Y-76642989D01*
X45603387Y-76768510D01*
X45603389Y-76768512D01*
X45603391Y-76768515D01*
X45705885Y-76871009D01*
X45705887Y-76871010D01*
X45705889Y-76871012D01*
X45831411Y-76943482D01*
X45831412Y-76943482D01*
X45831415Y-76943484D01*
X45971425Y-76981000D01*
X45971426Y-76981000D01*
X46116374Y-76981000D01*
X46116375Y-76981000D01*
X46256385Y-76943484D01*
X46256387Y-76943482D01*
X46256389Y-76943482D01*
X46381910Y-76871012D01*
X46381910Y-76871011D01*
X46381915Y-76871009D01*
X46484409Y-76768515D01*
X46484412Y-76768510D01*
X46556882Y-76642989D01*
X46556882Y-76642987D01*
X46556884Y-76642985D01*
X46594400Y-76502975D01*
X46594400Y-76358025D01*
X46556884Y-76218015D01*
X46556882Y-76218012D01*
X46556882Y-76218010D01*
X46484412Y-76092489D01*
X46484410Y-76092487D01*
X46484409Y-76092485D01*
X46381915Y-75989991D01*
X46381912Y-75989989D01*
X46381910Y-75989987D01*
X46256388Y-75917517D01*
X46256389Y-75917517D01*
X46226796Y-75909587D01*
X46116375Y-75880000D01*
X45971425Y-75880000D01*
X45909690Y-75896541D01*
X45831410Y-75917517D01*
X45705889Y-75989987D01*
X45603387Y-76092489D01*
X45530917Y-76218010D01*
X45493400Y-76358025D01*
X20000500Y-76358025D01*
X20000500Y-74834625D01*
X25505900Y-74834625D01*
X25505900Y-74979574D01*
X25543417Y-75119589D01*
X25615887Y-75245110D01*
X25615889Y-75245112D01*
X25615891Y-75245115D01*
X25718385Y-75347609D01*
X25718387Y-75347610D01*
X25718389Y-75347612D01*
X25843911Y-75420082D01*
X25843912Y-75420082D01*
X25843915Y-75420084D01*
X25983925Y-75457600D01*
X25983926Y-75457600D01*
X26128874Y-75457600D01*
X26128875Y-75457600D01*
X26268885Y-75420084D01*
X26268887Y-75420082D01*
X26268889Y-75420082D01*
X26394410Y-75347612D01*
X26394410Y-75347611D01*
X26394415Y-75347609D01*
X26496909Y-75245115D01*
X26520425Y-75204385D01*
X26569382Y-75119589D01*
X26569382Y-75119587D01*
X26569384Y-75119585D01*
X26606900Y-74979575D01*
X26606900Y-74858425D01*
X30179300Y-74858425D01*
X30179300Y-75003374D01*
X30216817Y-75143389D01*
X30289287Y-75268910D01*
X30289289Y-75268912D01*
X30289291Y-75268915D01*
X30391785Y-75371409D01*
X30391787Y-75371410D01*
X30391789Y-75371412D01*
X30517311Y-75443882D01*
X30517312Y-75443882D01*
X30517315Y-75443884D01*
X30657325Y-75481400D01*
X30657326Y-75481400D01*
X30802274Y-75481400D01*
X30802275Y-75481400D01*
X30845100Y-75469925D01*
X41875600Y-75469925D01*
X41875600Y-75614875D01*
X41905187Y-75725296D01*
X41913117Y-75754889D01*
X41985587Y-75880410D01*
X41985589Y-75880412D01*
X41985591Y-75880415D01*
X42088085Y-75982909D01*
X42088087Y-75982910D01*
X42088089Y-75982912D01*
X42213611Y-76055382D01*
X42213612Y-76055382D01*
X42213615Y-76055384D01*
X42353625Y-76092900D01*
X42353626Y-76092900D01*
X42498574Y-76092900D01*
X42498575Y-76092900D01*
X42638585Y-76055384D01*
X42638587Y-76055382D01*
X42638589Y-76055382D01*
X42764110Y-75982912D01*
X42764110Y-75982911D01*
X42764115Y-75982909D01*
X42866609Y-75880415D01*
X42939084Y-75754885D01*
X42976600Y-75614875D01*
X42976600Y-75469925D01*
X42939084Y-75329915D01*
X42939082Y-75329912D01*
X42939082Y-75329910D01*
X42866612Y-75204389D01*
X42866610Y-75204387D01*
X42866609Y-75204385D01*
X42764115Y-75101891D01*
X42764112Y-75101889D01*
X42764110Y-75101887D01*
X42638588Y-75029417D01*
X42638589Y-75029417D01*
X42608996Y-75021487D01*
X42498575Y-74991900D01*
X42353625Y-74991900D01*
X42291890Y-75008441D01*
X42213610Y-75029417D01*
X42088089Y-75101887D01*
X41985587Y-75204389D01*
X41913117Y-75329910D01*
X41875600Y-75469925D01*
X30845100Y-75469925D01*
X30942285Y-75443884D01*
X30942287Y-75443882D01*
X30942289Y-75443882D01*
X31056920Y-75377700D01*
X31067810Y-75371412D01*
X31067810Y-75371411D01*
X31067815Y-75371409D01*
X31170309Y-75268915D01*
X31207566Y-75204385D01*
X31242782Y-75143389D01*
X31242782Y-75143387D01*
X31242784Y-75143385D01*
X31280300Y-75003375D01*
X31280300Y-74858425D01*
X31242784Y-74718415D01*
X31242782Y-74718412D01*
X31242782Y-74718410D01*
X31170312Y-74592889D01*
X31170310Y-74592887D01*
X31170309Y-74592885D01*
X31067815Y-74490391D01*
X31067812Y-74490389D01*
X31067810Y-74490387D01*
X30942288Y-74417917D01*
X30942289Y-74417917D01*
X30912696Y-74409987D01*
X30802275Y-74380400D01*
X30657325Y-74380400D01*
X30606137Y-74394116D01*
X30517310Y-74417917D01*
X30391789Y-74490387D01*
X30289287Y-74592889D01*
X30216817Y-74718410D01*
X30179300Y-74858425D01*
X26606900Y-74858425D01*
X26606900Y-74834625D01*
X26569384Y-74694615D01*
X26569382Y-74694612D01*
X26569382Y-74694610D01*
X26496912Y-74569089D01*
X26496910Y-74569087D01*
X26496909Y-74569085D01*
X26394415Y-74466591D01*
X26394412Y-74466589D01*
X26394410Y-74466587D01*
X26268888Y-74394117D01*
X26268889Y-74394117D01*
X26217697Y-74380400D01*
X26128875Y-74356600D01*
X25983925Y-74356600D01*
X25922190Y-74373141D01*
X25843910Y-74394117D01*
X25718389Y-74466587D01*
X25615887Y-74569089D01*
X25543417Y-74694610D01*
X25505900Y-74834625D01*
X20000500Y-74834625D01*
X20000500Y-73327525D01*
X42287000Y-73327525D01*
X42287000Y-73472474D01*
X42324517Y-73612489D01*
X42396987Y-73738010D01*
X42396989Y-73738012D01*
X42396991Y-73738015D01*
X42499485Y-73840509D01*
X42499487Y-73840510D01*
X42499489Y-73840512D01*
X42625011Y-73912982D01*
X42625012Y-73912982D01*
X42625015Y-73912984D01*
X42765025Y-73950500D01*
X42765026Y-73950500D01*
X42909974Y-73950500D01*
X42909975Y-73950500D01*
X43049985Y-73912984D01*
X43049987Y-73912982D01*
X43049989Y-73912982D01*
X43175510Y-73840512D01*
X43175510Y-73840511D01*
X43175515Y-73840509D01*
X43278009Y-73738015D01*
X43350484Y-73612485D01*
X43388000Y-73472475D01*
X43388000Y-73327525D01*
X43350484Y-73187515D01*
X43350482Y-73187512D01*
X43350482Y-73187510D01*
X43278012Y-73061989D01*
X43278010Y-73061987D01*
X43278009Y-73061985D01*
X43175515Y-72959491D01*
X43175512Y-72959489D01*
X43175510Y-72959487D01*
X43049988Y-72887017D01*
X43049989Y-72887017D01*
X43008806Y-72875982D01*
X42909975Y-72849500D01*
X42765025Y-72849500D01*
X42703290Y-72866041D01*
X42625010Y-72887017D01*
X42499489Y-72959487D01*
X42396987Y-73061989D01*
X42324517Y-73187510D01*
X42287000Y-73327525D01*
X20000500Y-73327525D01*
X20000500Y-72028325D01*
X43949500Y-72028325D01*
X43949500Y-72173274D01*
X43987017Y-72313289D01*
X44059487Y-72438810D01*
X44059489Y-72438812D01*
X44059491Y-72438815D01*
X44161985Y-72541309D01*
X44161987Y-72541310D01*
X44161989Y-72541312D01*
X44287511Y-72613782D01*
X44287512Y-72613782D01*
X44287515Y-72613784D01*
X44427525Y-72651300D01*
X44427526Y-72651300D01*
X44572474Y-72651300D01*
X44572475Y-72651300D01*
X44712485Y-72613784D01*
X44724428Y-72606888D01*
X44784272Y-72594165D01*
X44840169Y-72619048D01*
X44859666Y-72643123D01*
X44893087Y-72701010D01*
X44893089Y-72701012D01*
X44893091Y-72701015D01*
X44995585Y-72803509D01*
X44995587Y-72803510D01*
X44995589Y-72803512D01*
X45121111Y-72875982D01*
X45121112Y-72875982D01*
X45121115Y-72875984D01*
X45261125Y-72913500D01*
X45261126Y-72913500D01*
X45406074Y-72913500D01*
X45406075Y-72913500D01*
X45546085Y-72875984D01*
X45546087Y-72875982D01*
X45546089Y-72875982D01*
X45671610Y-72803512D01*
X45671610Y-72803511D01*
X45671615Y-72803509D01*
X45774109Y-72701015D01*
X45846584Y-72575485D01*
X45884100Y-72435475D01*
X45884100Y-72290525D01*
X45846584Y-72150515D01*
X45846582Y-72150512D01*
X45846582Y-72150510D01*
X45774112Y-72024989D01*
X45774110Y-72024987D01*
X45774109Y-72024985D01*
X45671615Y-71922491D01*
X45671612Y-71922489D01*
X45671610Y-71922487D01*
X45546088Y-71850017D01*
X45546089Y-71850017D01*
X45516496Y-71842087D01*
X45406075Y-71812500D01*
X45261125Y-71812500D01*
X45230612Y-71820676D01*
X45121113Y-71850016D01*
X45121112Y-71850017D01*
X45109166Y-71856914D01*
X45049318Y-71869633D01*
X44993423Y-71844745D01*
X44973932Y-71820676D01*
X44940511Y-71762789D01*
X44940509Y-71762785D01*
X44838015Y-71660291D01*
X44838012Y-71660289D01*
X44838010Y-71660287D01*
X44712488Y-71587817D01*
X44712489Y-71587817D01*
X44639584Y-71568282D01*
X44572475Y-71550300D01*
X44427525Y-71550300D01*
X44365790Y-71566841D01*
X44287510Y-71587817D01*
X44161989Y-71660287D01*
X44059487Y-71762789D01*
X43987017Y-71888310D01*
X43949500Y-72028325D01*
X20000500Y-72028325D01*
X20000500Y-70982825D01*
X39104800Y-70982825D01*
X39104800Y-71127774D01*
X39142317Y-71267789D01*
X39214787Y-71393310D01*
X39214789Y-71393312D01*
X39214791Y-71393315D01*
X39317285Y-71495809D01*
X39317287Y-71495810D01*
X39317289Y-71495812D01*
X39442811Y-71568282D01*
X39442812Y-71568282D01*
X39442815Y-71568284D01*
X39582825Y-71605800D01*
X39582826Y-71605800D01*
X39727774Y-71605800D01*
X39727775Y-71605800D01*
X39867785Y-71568284D01*
X39867787Y-71568282D01*
X39867789Y-71568282D01*
X39993310Y-71495812D01*
X39993310Y-71495811D01*
X39993315Y-71495809D01*
X40095809Y-71393315D01*
X40168284Y-71267785D01*
X40205800Y-71127775D01*
X40205800Y-70982825D01*
X40168284Y-70842815D01*
X40168282Y-70842812D01*
X40168282Y-70842810D01*
X40095812Y-70717289D01*
X40095810Y-70717287D01*
X40095809Y-70717285D01*
X39993315Y-70614791D01*
X39993312Y-70614789D01*
X39993310Y-70614787D01*
X39867788Y-70542317D01*
X39867789Y-70542317D01*
X39838196Y-70534387D01*
X39727775Y-70504800D01*
X39582825Y-70504800D01*
X39521090Y-70521341D01*
X39442810Y-70542317D01*
X39317289Y-70614787D01*
X39214787Y-70717289D01*
X39142317Y-70842810D01*
X39104800Y-70982825D01*
X20000500Y-70982825D01*
X20000500Y-68376725D01*
X40299500Y-68376725D01*
X40299500Y-68521674D01*
X40337017Y-68661689D01*
X40409487Y-68787210D01*
X40409489Y-68787212D01*
X40409491Y-68787215D01*
X40511985Y-68889709D01*
X40511987Y-68889710D01*
X40511989Y-68889712D01*
X40637511Y-68962182D01*
X40637512Y-68962182D01*
X40637515Y-68962184D01*
X40777525Y-68999700D01*
X40777526Y-68999700D01*
X40922474Y-68999700D01*
X40922475Y-68999700D01*
X41062485Y-68962184D01*
X41062487Y-68962182D01*
X41062489Y-68962182D01*
X41188010Y-68889712D01*
X41188010Y-68889711D01*
X41188015Y-68889709D01*
X41290509Y-68787215D01*
X41306148Y-68760127D01*
X41350606Y-68683125D01*
X43192400Y-68683125D01*
X43192400Y-68828074D01*
X43229917Y-68968089D01*
X43302387Y-69093610D01*
X43302389Y-69093612D01*
X43302391Y-69093615D01*
X43404885Y-69196109D01*
X43404887Y-69196110D01*
X43404889Y-69196112D01*
X43530411Y-69268582D01*
X43530412Y-69268582D01*
X43530415Y-69268584D01*
X43670425Y-69306100D01*
X43670426Y-69306100D01*
X43815374Y-69306100D01*
X43815375Y-69306100D01*
X43955385Y-69268584D01*
X43955387Y-69268582D01*
X43955389Y-69268582D01*
X44080910Y-69196112D01*
X44080910Y-69196111D01*
X44080915Y-69196109D01*
X44183409Y-69093615D01*
X44183412Y-69093610D01*
X44255882Y-68968089D01*
X44255882Y-68968087D01*
X44255884Y-68968085D01*
X44293400Y-68828075D01*
X44293400Y-68683125D01*
X44255884Y-68543115D01*
X44255882Y-68543112D01*
X44255882Y-68543110D01*
X44183412Y-68417589D01*
X44183410Y-68417587D01*
X44183409Y-68417585D01*
X44080915Y-68315091D01*
X44080912Y-68315089D01*
X44080910Y-68315087D01*
X43955388Y-68242617D01*
X43955389Y-68242617D01*
X43925796Y-68234687D01*
X43815375Y-68205100D01*
X43670425Y-68205100D01*
X43608690Y-68221641D01*
X43530410Y-68242617D01*
X43404889Y-68315087D01*
X43302387Y-68417589D01*
X43229917Y-68543110D01*
X43192400Y-68683125D01*
X41350606Y-68683125D01*
X41362982Y-68661689D01*
X41362982Y-68661687D01*
X41362984Y-68661685D01*
X41400500Y-68521675D01*
X41400500Y-68376725D01*
X41362984Y-68236715D01*
X41362982Y-68236712D01*
X41362982Y-68236710D01*
X41290512Y-68111189D01*
X41290510Y-68111187D01*
X41290509Y-68111185D01*
X41188015Y-68008691D01*
X41188012Y-68008689D01*
X41188010Y-68008687D01*
X41062488Y-67936217D01*
X41062489Y-67936217D01*
X41032896Y-67928287D01*
X40922475Y-67898700D01*
X40777525Y-67898700D01*
X40715790Y-67915241D01*
X40637510Y-67936217D01*
X40511989Y-68008687D01*
X40409487Y-68111189D01*
X40337017Y-68236710D01*
X40299500Y-68376725D01*
X20000500Y-68376725D01*
X20000500Y-66534625D01*
X25505900Y-66534625D01*
X25505900Y-66679574D01*
X25543417Y-66819589D01*
X25615887Y-66945110D01*
X25615889Y-66945112D01*
X25615891Y-66945115D01*
X25718385Y-67047609D01*
X25718387Y-67047610D01*
X25718389Y-67047612D01*
X25843911Y-67120082D01*
X25843912Y-67120082D01*
X25843915Y-67120084D01*
X25983925Y-67157600D01*
X25983926Y-67157600D01*
X26128874Y-67157600D01*
X26128875Y-67157600D01*
X26268885Y-67120084D01*
X26268887Y-67120082D01*
X26268889Y-67120082D01*
X26394410Y-67047612D01*
X26394410Y-67047611D01*
X26394415Y-67047609D01*
X26496909Y-66945115D01*
X26496912Y-66945110D01*
X26569382Y-66819589D01*
X26569382Y-66819587D01*
X26569384Y-66819585D01*
X26606900Y-66679575D01*
X26606900Y-66534625D01*
X26569384Y-66394615D01*
X26569382Y-66394612D01*
X26569382Y-66394610D01*
X26496912Y-66269089D01*
X26496910Y-66269087D01*
X26496909Y-66269085D01*
X26394415Y-66166591D01*
X26394412Y-66166589D01*
X26394410Y-66166587D01*
X26268888Y-66094117D01*
X26268889Y-66094117D01*
X26239296Y-66086187D01*
X26128875Y-66056600D01*
X25983925Y-66056600D01*
X25922190Y-66073141D01*
X25843910Y-66094117D01*
X25718389Y-66166587D01*
X25615887Y-66269089D01*
X25543417Y-66394610D01*
X25505900Y-66534625D01*
X20000500Y-66534625D01*
X20000500Y-65952525D01*
X36024500Y-65952525D01*
X36024500Y-66097475D01*
X36035087Y-66136985D01*
X36062017Y-66237489D01*
X36134487Y-66363010D01*
X36134489Y-66363012D01*
X36134491Y-66363015D01*
X36236985Y-66465509D01*
X36236987Y-66465510D01*
X36236989Y-66465512D01*
X36362511Y-66537982D01*
X36362512Y-66537982D01*
X36362515Y-66537984D01*
X36502525Y-66575500D01*
X36502526Y-66575500D01*
X36647474Y-66575500D01*
X36647475Y-66575500D01*
X36787485Y-66537984D01*
X36787487Y-66537982D01*
X36787489Y-66537982D01*
X36913010Y-66465512D01*
X36913010Y-66465511D01*
X36913015Y-66465509D01*
X37015509Y-66363015D01*
X37052602Y-66298768D01*
X37087982Y-66237489D01*
X37087982Y-66237487D01*
X37087984Y-66237485D01*
X37125500Y-66097475D01*
X37125500Y-65952525D01*
X39824500Y-65952525D01*
X39824500Y-66097475D01*
X39835087Y-66136985D01*
X39862017Y-66237489D01*
X39934487Y-66363010D01*
X39934489Y-66363012D01*
X39934491Y-66363015D01*
X40036985Y-66465509D01*
X40036987Y-66465510D01*
X40036989Y-66465512D01*
X40162511Y-66537982D01*
X40162512Y-66537982D01*
X40162515Y-66537984D01*
X40302525Y-66575500D01*
X40302526Y-66575500D01*
X40447474Y-66575500D01*
X40447475Y-66575500D01*
X40587485Y-66537984D01*
X40587487Y-66537982D01*
X40587489Y-66537982D01*
X40713010Y-66465512D01*
X40713010Y-66465511D01*
X40713015Y-66465509D01*
X40775999Y-66402525D01*
X44274500Y-66402525D01*
X44274500Y-66547475D01*
X44304087Y-66657896D01*
X44312017Y-66687489D01*
X44384487Y-66813010D01*
X44384489Y-66813012D01*
X44384491Y-66813015D01*
X44486985Y-66915509D01*
X44486987Y-66915510D01*
X44486989Y-66915512D01*
X44612511Y-66987982D01*
X44612512Y-66987982D01*
X44612515Y-66987984D01*
X44752525Y-67025500D01*
X44752526Y-67025500D01*
X44897474Y-67025500D01*
X44897475Y-67025500D01*
X45037485Y-66987984D01*
X45037487Y-66987982D01*
X45037489Y-66987982D01*
X45163010Y-66915512D01*
X45163010Y-66915511D01*
X45163015Y-66915509D01*
X45265509Y-66813015D01*
X45337984Y-66687485D01*
X45375500Y-66547475D01*
X45375500Y-66402525D01*
X45337984Y-66262515D01*
X45337982Y-66262512D01*
X45337982Y-66262510D01*
X45265512Y-66136989D01*
X45265510Y-66136987D01*
X45265509Y-66136985D01*
X45163015Y-66034491D01*
X45163012Y-66034489D01*
X45163010Y-66034487D01*
X45037488Y-65962017D01*
X45037489Y-65962017D01*
X45007896Y-65954087D01*
X44897475Y-65924500D01*
X44752525Y-65924500D01*
X44690790Y-65941041D01*
X44612510Y-65962017D01*
X44486989Y-66034487D01*
X44384487Y-66136989D01*
X44312017Y-66262510D01*
X44275020Y-66400585D01*
X44274500Y-66402525D01*
X40775999Y-66402525D01*
X40815509Y-66363015D01*
X40815512Y-66363010D01*
X40825024Y-66346536D01*
X40887982Y-66237489D01*
X40887982Y-66237487D01*
X40887984Y-66237485D01*
X40925500Y-66097475D01*
X40925500Y-65952525D01*
X40887984Y-65812515D01*
X40887982Y-65812512D01*
X40887982Y-65812510D01*
X40815512Y-65686989D01*
X40815510Y-65686987D01*
X40815509Y-65686985D01*
X40713015Y-65584491D01*
X40713012Y-65584489D01*
X40713010Y-65584487D01*
X40587488Y-65512017D01*
X40587489Y-65512017D01*
X40557896Y-65504087D01*
X40447475Y-65474500D01*
X40302525Y-65474500D01*
X40240790Y-65491041D01*
X40162510Y-65512017D01*
X40036989Y-65584487D01*
X39934487Y-65686989D01*
X39862017Y-65812510D01*
X39832009Y-65924500D01*
X39824500Y-65952525D01*
X37125500Y-65952525D01*
X37087984Y-65812515D01*
X37087982Y-65812512D01*
X37087982Y-65812510D01*
X37015512Y-65686989D01*
X37015510Y-65686987D01*
X37015509Y-65686985D01*
X36913015Y-65584491D01*
X36913012Y-65584489D01*
X36913010Y-65584487D01*
X36787488Y-65512017D01*
X36787489Y-65512017D01*
X36757896Y-65504087D01*
X36647475Y-65474500D01*
X36502525Y-65474500D01*
X36440790Y-65491041D01*
X36362510Y-65512017D01*
X36236989Y-65584487D01*
X36134487Y-65686989D01*
X36062017Y-65812510D01*
X36032009Y-65924500D01*
X36024500Y-65952525D01*
X20000500Y-65952525D01*
X20000500Y-63452525D01*
X43624500Y-63452525D01*
X43624500Y-63597475D01*
X43632304Y-63626598D01*
X43662017Y-63737489D01*
X43734487Y-63863010D01*
X43734489Y-63863012D01*
X43734491Y-63863015D01*
X43836985Y-63965509D01*
X43836987Y-63965510D01*
X43836989Y-63965512D01*
X43962511Y-64037982D01*
X43962512Y-64037982D01*
X43962515Y-64037984D01*
X44102525Y-64075500D01*
X44102526Y-64075500D01*
X44247474Y-64075500D01*
X44247475Y-64075500D01*
X44387485Y-64037984D01*
X44387487Y-64037982D01*
X44387489Y-64037982D01*
X44513010Y-63965512D01*
X44513010Y-63965511D01*
X44513015Y-63965509D01*
X44615509Y-63863015D01*
X44615512Y-63863010D01*
X44687982Y-63737489D01*
X44687982Y-63737487D01*
X44687984Y-63737485D01*
X44725500Y-63597475D01*
X44725500Y-63452525D01*
X44687984Y-63312515D01*
X44687982Y-63312512D01*
X44687982Y-63312510D01*
X44615512Y-63186989D01*
X44615510Y-63186987D01*
X44615509Y-63186985D01*
X44513015Y-63084491D01*
X44513012Y-63084489D01*
X44513010Y-63084487D01*
X44387488Y-63012017D01*
X44387489Y-63012017D01*
X44340454Y-62999414D01*
X44247475Y-62974500D01*
X44102525Y-62974500D01*
X44040790Y-62991041D01*
X43962510Y-63012017D01*
X43836989Y-63084487D01*
X43734487Y-63186989D01*
X43662017Y-63312510D01*
X43662016Y-63312515D01*
X43624500Y-63452525D01*
X20000500Y-63452525D01*
X20000500Y-62599500D01*
X20019407Y-62541309D01*
X20068907Y-62505345D01*
X20099500Y-62500500D01*
X40065890Y-62500500D01*
X40065892Y-62500500D01*
X40193186Y-62466392D01*
X40193188Y-62466390D01*
X40193190Y-62466390D01*
X40307309Y-62400503D01*
X40307309Y-62400502D01*
X40307314Y-62400500D01*
X40400500Y-62307314D01*
X40466392Y-62193186D01*
X40500500Y-62065892D01*
X40500500Y-60434108D01*
X40466392Y-60306814D01*
X40466390Y-60306811D01*
X40466390Y-60306809D01*
X40400503Y-60192690D01*
X40400501Y-60192688D01*
X40400500Y-60192686D01*
X40307314Y-60099500D01*
X40307311Y-60099498D01*
X40307309Y-60099496D01*
X40193189Y-60033609D01*
X40193191Y-60033609D01*
X40143799Y-60020375D01*
X40065892Y-59999500D01*
X18065892Y-59999500D01*
X17934108Y-59999500D01*
X17856200Y-60020375D01*
X17806809Y-60033609D01*
X17692690Y-60099496D01*
X17599496Y-60192690D01*
X17533609Y-60306809D01*
X17499500Y-60434109D01*
X17499500Y-79400500D01*
X17480593Y-79458691D01*
X17431093Y-79494655D01*
X17400500Y-79499500D01*
X599500Y-79499500D01*
X541309Y-79480593D01*
X505345Y-79431093D01*
X500500Y-79400500D01*
X500500Y-75875433D01*
X2099500Y-75875433D01*
X2099500Y-76124566D01*
X2132017Y-76371557D01*
X2132017Y-76371562D01*
X2196496Y-76612199D01*
X2196500Y-76612212D01*
X2291832Y-76842365D01*
X2291834Y-76842369D01*
X2291836Y-76842373D01*
X2371872Y-76981000D01*
X2416403Y-77058130D01*
X2568056Y-77255769D01*
X2568058Y-77255771D01*
X2568062Y-77255776D01*
X2744224Y-77431938D01*
X2744228Y-77431941D01*
X2744230Y-77431943D01*
X2784039Y-77462489D01*
X2941873Y-77583599D01*
X3157627Y-77708164D01*
X3387793Y-77803502D01*
X3628435Y-77867982D01*
X3875435Y-77900500D01*
X3875436Y-77900500D01*
X4124564Y-77900500D01*
X4124565Y-77900500D01*
X4371565Y-77867982D01*
X4612207Y-77803502D01*
X4842373Y-77708164D01*
X5058127Y-77583599D01*
X5255776Y-77431938D01*
X5431938Y-77255776D01*
X5583599Y-77058127D01*
X5708164Y-76842373D01*
X5803502Y-76612207D01*
X5867982Y-76371565D01*
X5900500Y-76124565D01*
X5900500Y-75875435D01*
X5867982Y-75628435D01*
X5803502Y-75387793D01*
X5708164Y-75157627D01*
X5583599Y-74941873D01*
X5431938Y-74744224D01*
X5255776Y-74568062D01*
X5255771Y-74568058D01*
X5255769Y-74568056D01*
X5058130Y-74416403D01*
X5058127Y-74416401D01*
X4842373Y-74291836D01*
X4842369Y-74291834D01*
X4842365Y-74291832D01*
X4612212Y-74196500D01*
X4612211Y-74196499D01*
X4612207Y-74196498D01*
X4371565Y-74132018D01*
X4371562Y-74132017D01*
X4371560Y-74132017D01*
X4124566Y-74099500D01*
X4124565Y-74099500D01*
X3875435Y-74099500D01*
X3875433Y-74099500D01*
X3628442Y-74132017D01*
X3628437Y-74132017D01*
X3387800Y-74196496D01*
X3387787Y-74196500D01*
X3157634Y-74291832D01*
X2941869Y-74416403D01*
X2744230Y-74568056D01*
X2568056Y-74744230D01*
X2416403Y-74941869D01*
X2291832Y-75157634D01*
X2196500Y-75387787D01*
X2196496Y-75387800D01*
X2132017Y-75628437D01*
X2132017Y-75628442D01*
X2099500Y-75875433D01*
X500500Y-75875433D01*
X500500Y-65825925D01*
X7255400Y-65825925D01*
X7255400Y-65970874D01*
X7292917Y-66110889D01*
X7365387Y-66236410D01*
X7365389Y-66236412D01*
X7365391Y-66236415D01*
X7467885Y-66338909D01*
X7467887Y-66338910D01*
X7467889Y-66338912D01*
X7593411Y-66411382D01*
X7593412Y-66411382D01*
X7593415Y-66411384D01*
X7733425Y-66448900D01*
X7733426Y-66448900D01*
X7878374Y-66448900D01*
X7878375Y-66448900D01*
X8018385Y-66411384D01*
X8018387Y-66411382D01*
X8018389Y-66411382D01*
X8143910Y-66338912D01*
X8143910Y-66338911D01*
X8143915Y-66338909D01*
X8246409Y-66236415D01*
X8286722Y-66166591D01*
X8318882Y-66110889D01*
X8318882Y-66110887D01*
X8318884Y-66110885D01*
X8356400Y-65970875D01*
X8356400Y-65825925D01*
X8318884Y-65685915D01*
X8318882Y-65685912D01*
X8318882Y-65685910D01*
X8246412Y-65560389D01*
X8246410Y-65560387D01*
X8246409Y-65560385D01*
X8143915Y-65457891D01*
X8143912Y-65457889D01*
X8143910Y-65457887D01*
X8018388Y-65385417D01*
X8018389Y-65385417D01*
X7988796Y-65377487D01*
X7878375Y-65347900D01*
X7733425Y-65347900D01*
X7671690Y-65364441D01*
X7593410Y-65385417D01*
X7467889Y-65457887D01*
X7365387Y-65560389D01*
X7292917Y-65685910D01*
X7255400Y-65825925D01*
X500500Y-65825925D01*
X500500Y-61993385D01*
X3399500Y-61993385D01*
X3399500Y-62166614D01*
X3426597Y-62337702D01*
X3426598Y-62337706D01*
X3480123Y-62502438D01*
X3480125Y-62502441D01*
X3529578Y-62599500D01*
X3558768Y-62656788D01*
X3660586Y-62796928D01*
X3783072Y-62919414D01*
X3923212Y-63021232D01*
X4077555Y-63099873D01*
X4077557Y-63099873D01*
X4077558Y-63099874D01*
X4077561Y-63099876D01*
X4242293Y-63153401D01*
X4242297Y-63153402D01*
X4413386Y-63180500D01*
X4413389Y-63180500D01*
X4586614Y-63180500D01*
X4757702Y-63153402D01*
X4757706Y-63153401D01*
X4922438Y-63099876D01*
X4922440Y-63099874D01*
X4922445Y-63099873D01*
X5076788Y-63021232D01*
X5216928Y-62919414D01*
X5339414Y-62796928D01*
X5441232Y-62656788D01*
X5519873Y-62502445D01*
X5519874Y-62502440D01*
X5519876Y-62502438D01*
X5573401Y-62337706D01*
X5573402Y-62337702D01*
X5600500Y-62166614D01*
X5600500Y-61993385D01*
X10899500Y-61993385D01*
X10899500Y-62166614D01*
X10926597Y-62337702D01*
X10926598Y-62337706D01*
X10980123Y-62502438D01*
X10980125Y-62502441D01*
X11029578Y-62599500D01*
X11058768Y-62656788D01*
X11160586Y-62796928D01*
X11283072Y-62919414D01*
X11423212Y-63021232D01*
X11577555Y-63099873D01*
X11577557Y-63099873D01*
X11577558Y-63099874D01*
X11577561Y-63099876D01*
X11742293Y-63153401D01*
X11742297Y-63153402D01*
X11913386Y-63180500D01*
X11913389Y-63180500D01*
X12086614Y-63180500D01*
X12257702Y-63153402D01*
X12257706Y-63153401D01*
X12422438Y-63099876D01*
X12422440Y-63099874D01*
X12422445Y-63099873D01*
X12576788Y-63021232D01*
X12716928Y-62919414D01*
X12839414Y-62796928D01*
X12941232Y-62656788D01*
X13019873Y-62502445D01*
X13019874Y-62502440D01*
X13019876Y-62502438D01*
X13073401Y-62337706D01*
X13073402Y-62337702D01*
X13100500Y-62166614D01*
X13100500Y-61993385D01*
X13073402Y-61822297D01*
X13073401Y-61822293D01*
X13019876Y-61657561D01*
X13019874Y-61657558D01*
X13019873Y-61657557D01*
X13019873Y-61657555D01*
X12941232Y-61503212D01*
X12839414Y-61363072D01*
X12716928Y-61240586D01*
X12576788Y-61138768D01*
X12576787Y-61138767D01*
X12576785Y-61138766D01*
X12422441Y-61060125D01*
X12422438Y-61060123D01*
X12257706Y-61006598D01*
X12257702Y-61006597D01*
X12086614Y-60979500D01*
X12086611Y-60979500D01*
X11913389Y-60979500D01*
X11913386Y-60979500D01*
X11742297Y-61006597D01*
X11742293Y-61006598D01*
X11577561Y-61060123D01*
X11577558Y-61060125D01*
X11423214Y-61138766D01*
X11283073Y-61240585D01*
X11160585Y-61363073D01*
X11058766Y-61503214D01*
X10980125Y-61657558D01*
X10980123Y-61657561D01*
X10926598Y-61822293D01*
X10926597Y-61822297D01*
X10899500Y-61993385D01*
X5600500Y-61993385D01*
X5573402Y-61822297D01*
X5573401Y-61822293D01*
X5519876Y-61657561D01*
X5519874Y-61657558D01*
X5519873Y-61657557D01*
X5519873Y-61657555D01*
X5441232Y-61503212D01*
X5339414Y-61363072D01*
X5216928Y-61240586D01*
X5076788Y-61138768D01*
X5076787Y-61138767D01*
X5076785Y-61138766D01*
X4922441Y-61060125D01*
X4922438Y-61060123D01*
X4757706Y-61006598D01*
X4757702Y-61006597D01*
X4586614Y-60979500D01*
X4586611Y-60979500D01*
X4413389Y-60979500D01*
X4413386Y-60979500D01*
X4242297Y-61006597D01*
X4242293Y-61006598D01*
X4077561Y-61060123D01*
X4077558Y-61060125D01*
X3923214Y-61138766D01*
X3783073Y-61240585D01*
X3660585Y-61363073D01*
X3558766Y-61503214D01*
X3480125Y-61657558D01*
X3480123Y-61657561D01*
X3426598Y-61822293D01*
X3426597Y-61822297D01*
X3399500Y-61993385D01*
X500500Y-61993385D01*
X500500Y-59449489D01*
X3350000Y-59449489D01*
X3350000Y-59630510D01*
X3378316Y-59809289D01*
X3434250Y-59981440D01*
X3516430Y-60142728D01*
X3557667Y-60199488D01*
X4031980Y-59725174D01*
X4034075Y-59732993D01*
X4099901Y-59847007D01*
X4192993Y-59940099D01*
X4307007Y-60005925D01*
X4314821Y-60008019D01*
X3840511Y-60482330D01*
X3897275Y-60523571D01*
X4058559Y-60605749D01*
X4230710Y-60661683D01*
X4409490Y-60690000D01*
X4590510Y-60690000D01*
X4769289Y-60661683D01*
X4941440Y-60605749D01*
X5102728Y-60523569D01*
X5159487Y-60482330D01*
X4685176Y-60008019D01*
X4692993Y-60005925D01*
X4807007Y-59940099D01*
X4900099Y-59847007D01*
X4965925Y-59732993D01*
X4968019Y-59725176D01*
X5442330Y-60199487D01*
X5483569Y-60142728D01*
X5565749Y-59981440D01*
X5621683Y-59809289D01*
X5650000Y-59630510D01*
X5650000Y-59449489D01*
X10850000Y-59449489D01*
X10850000Y-59630510D01*
X10878316Y-59809289D01*
X10934250Y-59981440D01*
X11016430Y-60142728D01*
X11057667Y-60199488D01*
X11531980Y-59725174D01*
X11534075Y-59732993D01*
X11599901Y-59847007D01*
X11692993Y-59940099D01*
X11807007Y-60005925D01*
X11814821Y-60008019D01*
X11340511Y-60482330D01*
X11397275Y-60523571D01*
X11558559Y-60605749D01*
X11730710Y-60661683D01*
X11909490Y-60690000D01*
X12090510Y-60690000D01*
X12269289Y-60661683D01*
X12441440Y-60605749D01*
X12602728Y-60523569D01*
X12659487Y-60482330D01*
X12185176Y-60008019D01*
X12192993Y-60005925D01*
X12307007Y-59940099D01*
X12400099Y-59847007D01*
X12465925Y-59732993D01*
X12468019Y-59725176D01*
X12942330Y-60199487D01*
X12983569Y-60142728D01*
X13065749Y-59981440D01*
X13121683Y-59809289D01*
X13150000Y-59630510D01*
X13150000Y-59533385D01*
X55399500Y-59533385D01*
X55399500Y-59706614D01*
X55426597Y-59877702D01*
X55426598Y-59877706D01*
X55480123Y-60042438D01*
X55480125Y-60042441D01*
X55556677Y-60192686D01*
X55558768Y-60196788D01*
X55660586Y-60336928D01*
X55783072Y-60459414D01*
X55923212Y-60561232D01*
X56077555Y-60639873D01*
X56077557Y-60639873D01*
X56077558Y-60639874D01*
X56077561Y-60639876D01*
X56242293Y-60693401D01*
X56242297Y-60693402D01*
X56413386Y-60720500D01*
X56413389Y-60720500D01*
X56586614Y-60720500D01*
X56757702Y-60693402D01*
X56757706Y-60693401D01*
X56922438Y-60639876D01*
X56922440Y-60639874D01*
X56922445Y-60639873D01*
X57076788Y-60561232D01*
X57216928Y-60459414D01*
X57339414Y-60336928D01*
X57441232Y-60196788D01*
X57519873Y-60042445D01*
X57519874Y-60042440D01*
X57519876Y-60042438D01*
X57573401Y-59877706D01*
X57573402Y-59877702D01*
X57600500Y-59706614D01*
X57600500Y-59533385D01*
X57573402Y-59362297D01*
X57573401Y-59362293D01*
X57519876Y-59197561D01*
X57519874Y-59197558D01*
X57519873Y-59197557D01*
X57519873Y-59197555D01*
X57441232Y-59043212D01*
X57339414Y-58903072D01*
X57216928Y-58780586D01*
X57076788Y-58678768D01*
X57076787Y-58678767D01*
X57076785Y-58678766D01*
X56922441Y-58600125D01*
X56922438Y-58600123D01*
X56757706Y-58546598D01*
X56757702Y-58546597D01*
X56586614Y-58519500D01*
X56586611Y-58519500D01*
X56413389Y-58519500D01*
X56413386Y-58519500D01*
X56242297Y-58546597D01*
X56242293Y-58546598D01*
X56077561Y-58600123D01*
X56077558Y-58600125D01*
X55923214Y-58678766D01*
X55783073Y-58780585D01*
X55660585Y-58903073D01*
X55558766Y-59043214D01*
X55480125Y-59197558D01*
X55480123Y-59197561D01*
X55426598Y-59362293D01*
X55426597Y-59362297D01*
X55399500Y-59533385D01*
X13150000Y-59533385D01*
X13150000Y-59449489D01*
X13121683Y-59270710D01*
X13065749Y-59098559D01*
X12983571Y-58937275D01*
X12942330Y-58880511D01*
X12468019Y-59354821D01*
X12465925Y-59347007D01*
X12400099Y-59232993D01*
X12307007Y-59139901D01*
X12192993Y-59074075D01*
X12185174Y-59071980D01*
X12659488Y-58597667D01*
X12602728Y-58556430D01*
X12441440Y-58474250D01*
X12269289Y-58418316D01*
X12090510Y-58390000D01*
X11909490Y-58390000D01*
X11730710Y-58418316D01*
X11558559Y-58474250D01*
X11397267Y-58556432D01*
X11340510Y-58597667D01*
X11814823Y-59071980D01*
X11807007Y-59074075D01*
X11692993Y-59139901D01*
X11599901Y-59232993D01*
X11534075Y-59347007D01*
X11531980Y-59354823D01*
X11057667Y-58880510D01*
X11016432Y-58937267D01*
X10934250Y-59098559D01*
X10878316Y-59270710D01*
X10850000Y-59449489D01*
X5650000Y-59449489D01*
X5621683Y-59270710D01*
X5565749Y-59098559D01*
X5483571Y-58937275D01*
X5442330Y-58880511D01*
X4968019Y-59354821D01*
X4965925Y-59347007D01*
X4900099Y-59232993D01*
X4807007Y-59139901D01*
X4692993Y-59074075D01*
X4685174Y-59071980D01*
X5159488Y-58597667D01*
X5102728Y-58556430D01*
X4941440Y-58474250D01*
X4769289Y-58418316D01*
X4590510Y-58390000D01*
X4409490Y-58390000D01*
X4230710Y-58418316D01*
X4058559Y-58474250D01*
X3897267Y-58556432D01*
X3840510Y-58597667D01*
X4314823Y-59071980D01*
X4307007Y-59074075D01*
X4192993Y-59139901D01*
X4099901Y-59232993D01*
X4034075Y-59347007D01*
X4031980Y-59354823D01*
X3557667Y-58880510D01*
X3516432Y-58937267D01*
X3434250Y-59098559D01*
X3378316Y-59270710D01*
X3350000Y-59449489D01*
X500500Y-59449489D01*
X500500Y-56125327D01*
X3399500Y-56125327D01*
X3399500Y-57874672D01*
X3399501Y-57874684D01*
X3414033Y-57947736D01*
X3414035Y-57947742D01*
X3469397Y-58030599D01*
X3469399Y-58030601D01*
X3552260Y-58085966D01*
X3607808Y-58097015D01*
X3625315Y-58100498D01*
X3625320Y-58100498D01*
X3625326Y-58100500D01*
X3625327Y-58100500D01*
X5374673Y-58100500D01*
X5374674Y-58100500D01*
X5447740Y-58085966D01*
X5530601Y-58030601D01*
X5585966Y-57947740D01*
X5600500Y-57874674D01*
X5600500Y-56125327D01*
X10899500Y-56125327D01*
X10899500Y-57874672D01*
X10899501Y-57874684D01*
X10914033Y-57947736D01*
X10914035Y-57947742D01*
X10969397Y-58030599D01*
X10969399Y-58030601D01*
X11052260Y-58085966D01*
X11107808Y-58097015D01*
X11125315Y-58100498D01*
X11125320Y-58100498D01*
X11125326Y-58100500D01*
X11125327Y-58100500D01*
X12874673Y-58100500D01*
X12874674Y-58100500D01*
X12947740Y-58085966D01*
X13030601Y-58030601D01*
X13085966Y-57947740D01*
X13100500Y-57874674D01*
X13100500Y-56477525D01*
X24949500Y-56477525D01*
X24949500Y-56622475D01*
X24979087Y-56732896D01*
X24987017Y-56762489D01*
X25059487Y-56888010D01*
X25059489Y-56888012D01*
X25059491Y-56888015D01*
X25161985Y-56990509D01*
X25161987Y-56990510D01*
X25161989Y-56990512D01*
X25287511Y-57062982D01*
X25287512Y-57062982D01*
X25287515Y-57062984D01*
X25427525Y-57100500D01*
X25427526Y-57100500D01*
X25572474Y-57100500D01*
X25572475Y-57100500D01*
X25712485Y-57062984D01*
X25712487Y-57062982D01*
X25712489Y-57062982D01*
X25838010Y-56990512D01*
X25838010Y-56990511D01*
X25838015Y-56990509D01*
X25929998Y-56898525D01*
X25984513Y-56870750D01*
X26044945Y-56880321D01*
X26070000Y-56898524D01*
X26161985Y-56990509D01*
X26161987Y-56990510D01*
X26161989Y-56990512D01*
X26287511Y-57062982D01*
X26287512Y-57062982D01*
X26287515Y-57062984D01*
X26427525Y-57100500D01*
X26427526Y-57100500D01*
X26572474Y-57100500D01*
X26572475Y-57100500D01*
X26712485Y-57062984D01*
X26712487Y-57062982D01*
X26712489Y-57062982D01*
X26833034Y-56993385D01*
X55399500Y-56993385D01*
X55399500Y-57166614D01*
X55426597Y-57337702D01*
X55426598Y-57337706D01*
X55480123Y-57502438D01*
X55480125Y-57502441D01*
X55480126Y-57502444D01*
X55480127Y-57502445D01*
X55558768Y-57656788D01*
X55660586Y-57796928D01*
X55783072Y-57919414D01*
X55923212Y-58021232D01*
X56077555Y-58099873D01*
X56077557Y-58099873D01*
X56077558Y-58099874D01*
X56077561Y-58099876D01*
X56242293Y-58153401D01*
X56242297Y-58153402D01*
X56413386Y-58180500D01*
X56413389Y-58180500D01*
X56586614Y-58180500D01*
X56757702Y-58153402D01*
X56757706Y-58153401D01*
X56922438Y-58099876D01*
X56922440Y-58099874D01*
X56922445Y-58099873D01*
X57076788Y-58021232D01*
X57216928Y-57919414D01*
X57339414Y-57796928D01*
X57441232Y-57656788D01*
X57519873Y-57502445D01*
X57519874Y-57502440D01*
X57519876Y-57502438D01*
X57573401Y-57337706D01*
X57573402Y-57337702D01*
X57600500Y-57166614D01*
X57600500Y-56993385D01*
X57573402Y-56822297D01*
X57573401Y-56822293D01*
X57519876Y-56657561D01*
X57519874Y-56657558D01*
X57519873Y-56657557D01*
X57519873Y-56657555D01*
X57441232Y-56503212D01*
X57339414Y-56363072D01*
X57216928Y-56240586D01*
X57076788Y-56138768D01*
X57076787Y-56138767D01*
X57076785Y-56138766D01*
X56922441Y-56060125D01*
X56922438Y-56060123D01*
X56757706Y-56006598D01*
X56757702Y-56006597D01*
X56586614Y-55979500D01*
X56586611Y-55979500D01*
X56413389Y-55979500D01*
X56413386Y-55979500D01*
X56242297Y-56006597D01*
X56242293Y-56006598D01*
X56077561Y-56060123D01*
X56077558Y-56060125D01*
X55923214Y-56138766D01*
X55783073Y-56240585D01*
X55660585Y-56363073D01*
X55558766Y-56503214D01*
X55480125Y-56657558D01*
X55480123Y-56657561D01*
X55426598Y-56822293D01*
X55426597Y-56822297D01*
X55399500Y-56993385D01*
X26833034Y-56993385D01*
X26838010Y-56990512D01*
X26838010Y-56990511D01*
X26838015Y-56990509D01*
X26940509Y-56888015D01*
X26978450Y-56822299D01*
X27012982Y-56762489D01*
X27012982Y-56762487D01*
X27012984Y-56762485D01*
X27050500Y-56622475D01*
X27050500Y-56477525D01*
X27012984Y-56337515D01*
X27012982Y-56337512D01*
X27012982Y-56337510D01*
X26940512Y-56211989D01*
X26940510Y-56211987D01*
X26940509Y-56211985D01*
X26838015Y-56109491D01*
X26838012Y-56109489D01*
X26838010Y-56109487D01*
X26712488Y-56037017D01*
X26712489Y-56037017D01*
X26682896Y-56029087D01*
X26572475Y-55999500D01*
X26427525Y-55999500D01*
X26365790Y-56016041D01*
X26287510Y-56037017D01*
X26161989Y-56109487D01*
X26161988Y-56109488D01*
X26161985Y-56109490D01*
X26161985Y-56109491D01*
X26070001Y-56201474D01*
X26015487Y-56229250D01*
X25955055Y-56219679D01*
X25929999Y-56201475D01*
X25838015Y-56109491D01*
X25838012Y-56109489D01*
X25838010Y-56109487D01*
X25712488Y-56037017D01*
X25712489Y-56037017D01*
X25682896Y-56029087D01*
X25572475Y-55999500D01*
X25427525Y-55999500D01*
X25365790Y-56016041D01*
X25287510Y-56037017D01*
X25161989Y-56109487D01*
X25059487Y-56211989D01*
X24987017Y-56337510D01*
X24949500Y-56477525D01*
X13100500Y-56477525D01*
X13100500Y-56125326D01*
X13085966Y-56052260D01*
X13075781Y-56037017D01*
X13030602Y-55969400D01*
X13030599Y-55969397D01*
X12947742Y-55914035D01*
X12947740Y-55914034D01*
X12947737Y-55914033D01*
X12947736Y-55914033D01*
X12874684Y-55899501D01*
X12874674Y-55899500D01*
X11125326Y-55899500D01*
X11125325Y-55899500D01*
X11125315Y-55899501D01*
X11052263Y-55914033D01*
X11052257Y-55914035D01*
X10969400Y-55969397D01*
X10969397Y-55969400D01*
X10914035Y-56052257D01*
X10914033Y-56052263D01*
X10899501Y-56125315D01*
X10899500Y-56125327D01*
X5600500Y-56125327D01*
X5600500Y-56125326D01*
X5585966Y-56052260D01*
X5575781Y-56037017D01*
X5530602Y-55969400D01*
X5530599Y-55969397D01*
X5447742Y-55914035D01*
X5447740Y-55914034D01*
X5447737Y-55914033D01*
X5447736Y-55914033D01*
X5374684Y-55899501D01*
X5374674Y-55899500D01*
X3625326Y-55899500D01*
X3625325Y-55899500D01*
X3625315Y-55899501D01*
X3552263Y-55914033D01*
X3552257Y-55914035D01*
X3469400Y-55969397D01*
X3469397Y-55969400D01*
X3414035Y-56052257D01*
X3414033Y-56052263D01*
X3399501Y-56125315D01*
X3399500Y-56125327D01*
X500500Y-56125327D01*
X500500Y-54377525D01*
X24949500Y-54377525D01*
X24949500Y-54522475D01*
X24963632Y-54575215D01*
X24987017Y-54662489D01*
X25059487Y-54788010D01*
X25059489Y-54788012D01*
X25059491Y-54788015D01*
X25161985Y-54890509D01*
X25161987Y-54890510D01*
X25161989Y-54890512D01*
X25287511Y-54962982D01*
X25287512Y-54962982D01*
X25287515Y-54962984D01*
X25427525Y-55000500D01*
X25427526Y-55000500D01*
X25572474Y-55000500D01*
X25572475Y-55000500D01*
X25712485Y-54962984D01*
X25712487Y-54962982D01*
X25712489Y-54962982D01*
X25838010Y-54890512D01*
X25838010Y-54890511D01*
X25838015Y-54890509D01*
X25929998Y-54798525D01*
X25984513Y-54770750D01*
X26044945Y-54780321D01*
X26070000Y-54798524D01*
X26161985Y-54890509D01*
X26161987Y-54890510D01*
X26161989Y-54890512D01*
X26287511Y-54962982D01*
X26287512Y-54962982D01*
X26287515Y-54962984D01*
X26427525Y-55000500D01*
X26427526Y-55000500D01*
X26572474Y-55000500D01*
X26572475Y-55000500D01*
X26712485Y-54962984D01*
X26712487Y-54962982D01*
X26712489Y-54962982D01*
X26838010Y-54890512D01*
X26838010Y-54890511D01*
X26838015Y-54890509D01*
X26940509Y-54788015D01*
X27004193Y-54677712D01*
X27012982Y-54662489D01*
X27012982Y-54662487D01*
X27012984Y-54662485D01*
X27050500Y-54522475D01*
X27050500Y-54377525D01*
X27012984Y-54237515D01*
X26995790Y-54207735D01*
X26995790Y-54207733D01*
X26970959Y-54164725D01*
X39915700Y-54164725D01*
X39915700Y-54309674D01*
X39953217Y-54449689D01*
X40025687Y-54575210D01*
X40025689Y-54575212D01*
X40025691Y-54575215D01*
X40128185Y-54677709D01*
X40128187Y-54677710D01*
X40128189Y-54677712D01*
X40253711Y-54750182D01*
X40253712Y-54750182D01*
X40253715Y-54750184D01*
X40393725Y-54787700D01*
X40393726Y-54787700D01*
X40538674Y-54787700D01*
X40538675Y-54787700D01*
X40678685Y-54750184D01*
X40678687Y-54750182D01*
X40678689Y-54750182D01*
X40804210Y-54677712D01*
X40804210Y-54677711D01*
X40804215Y-54677709D01*
X40906709Y-54575215D01*
X40937159Y-54522474D01*
X40977048Y-54453385D01*
X55399500Y-54453385D01*
X55399500Y-54626614D01*
X55426597Y-54797702D01*
X55426598Y-54797706D01*
X55480123Y-54962438D01*
X55480125Y-54962441D01*
X55480126Y-54962444D01*
X55480127Y-54962445D01*
X55558768Y-55116788D01*
X55660586Y-55256928D01*
X55783072Y-55379414D01*
X55923212Y-55481232D01*
X56077555Y-55559873D01*
X56077557Y-55559873D01*
X56077558Y-55559874D01*
X56077561Y-55559876D01*
X56242293Y-55613401D01*
X56242297Y-55613402D01*
X56413386Y-55640500D01*
X56413389Y-55640500D01*
X56586614Y-55640500D01*
X56757702Y-55613402D01*
X56757706Y-55613401D01*
X56922438Y-55559876D01*
X56922440Y-55559874D01*
X56922445Y-55559873D01*
X57076788Y-55481232D01*
X57216928Y-55379414D01*
X57339414Y-55256928D01*
X57441232Y-55116788D01*
X57519873Y-54962445D01*
X57519874Y-54962440D01*
X57519876Y-54962438D01*
X57573401Y-54797706D01*
X57573402Y-54797702D01*
X57600500Y-54626614D01*
X57600500Y-54453385D01*
X57573402Y-54282297D01*
X57573401Y-54282293D01*
X57519876Y-54117561D01*
X57519874Y-54117558D01*
X57519873Y-54117557D01*
X57519873Y-54117555D01*
X57441232Y-53963212D01*
X57339414Y-53823072D01*
X57216928Y-53700586D01*
X57076788Y-53598768D01*
X57076787Y-53598767D01*
X57076785Y-53598766D01*
X56922441Y-53520125D01*
X56922438Y-53520123D01*
X56757706Y-53466598D01*
X56757702Y-53466597D01*
X56586614Y-53439500D01*
X56586611Y-53439500D01*
X56413389Y-53439500D01*
X56413386Y-53439500D01*
X56242297Y-53466597D01*
X56242293Y-53466598D01*
X56077561Y-53520123D01*
X56077558Y-53520125D01*
X55923214Y-53598766D01*
X55783073Y-53700585D01*
X55660585Y-53823073D01*
X55558766Y-53963214D01*
X55480125Y-54117558D01*
X55480123Y-54117561D01*
X55426598Y-54282293D01*
X55426597Y-54282297D01*
X55399500Y-54453385D01*
X40977048Y-54453385D01*
X40979182Y-54449689D01*
X40979182Y-54449687D01*
X40979184Y-54449685D01*
X41016700Y-54309675D01*
X41016700Y-54164725D01*
X40979184Y-54024715D01*
X40979182Y-54024712D01*
X40979182Y-54024710D01*
X40906712Y-53899189D01*
X40906710Y-53899187D01*
X40906709Y-53899185D01*
X40804215Y-53796691D01*
X40804212Y-53796689D01*
X40804210Y-53796687D01*
X40678688Y-53724217D01*
X40678689Y-53724217D01*
X40649096Y-53716287D01*
X40538675Y-53686700D01*
X40393725Y-53686700D01*
X40331990Y-53703241D01*
X40253710Y-53724217D01*
X40128189Y-53796687D01*
X40025687Y-53899189D01*
X39953217Y-54024710D01*
X39915700Y-54164725D01*
X26970959Y-54164725D01*
X26940512Y-54111989D01*
X26940510Y-54111987D01*
X26940509Y-54111985D01*
X26838015Y-54009491D01*
X26838012Y-54009489D01*
X26838010Y-54009487D01*
X26712488Y-53937017D01*
X26712489Y-53937017D01*
X26682896Y-53929087D01*
X26572475Y-53899500D01*
X26427525Y-53899500D01*
X26365790Y-53916041D01*
X26287510Y-53937017D01*
X26161989Y-54009487D01*
X26161988Y-54009488D01*
X26161985Y-54009490D01*
X26161985Y-54009491D01*
X26070001Y-54101474D01*
X26015487Y-54129250D01*
X25955055Y-54119679D01*
X25929999Y-54101475D01*
X25838015Y-54009491D01*
X25838012Y-54009489D01*
X25838010Y-54009487D01*
X25712488Y-53937017D01*
X25712489Y-53937017D01*
X25682896Y-53929087D01*
X25572475Y-53899500D01*
X25427525Y-53899500D01*
X25365790Y-53916041D01*
X25287510Y-53937017D01*
X25161989Y-54009487D01*
X25059487Y-54111989D01*
X24987017Y-54237510D01*
X24949500Y-54377525D01*
X500500Y-54377525D01*
X500500Y-52989489D01*
X3350000Y-52989489D01*
X3350000Y-53170510D01*
X3378316Y-53349289D01*
X3434250Y-53521440D01*
X3516430Y-53682728D01*
X3557667Y-53739488D01*
X4031980Y-53265174D01*
X4034075Y-53272993D01*
X4099901Y-53387007D01*
X4192993Y-53480099D01*
X4307007Y-53545925D01*
X4314821Y-53548019D01*
X3840511Y-54022330D01*
X3897275Y-54063571D01*
X4058559Y-54145749D01*
X4230710Y-54201683D01*
X4409490Y-54230000D01*
X4590510Y-54230000D01*
X4769289Y-54201683D01*
X4941440Y-54145749D01*
X5102728Y-54063569D01*
X5159487Y-54022330D01*
X4685176Y-53548019D01*
X4692993Y-53545925D01*
X4807007Y-53480099D01*
X4900099Y-53387007D01*
X4965925Y-53272993D01*
X4968019Y-53265176D01*
X5442330Y-53739487D01*
X5483569Y-53682728D01*
X5565749Y-53521440D01*
X5621683Y-53349289D01*
X5650000Y-53170510D01*
X5650000Y-52989489D01*
X5621683Y-52810710D01*
X5565749Y-52638559D01*
X5483571Y-52477275D01*
X5442330Y-52420511D01*
X4968019Y-52894821D01*
X4965925Y-52887007D01*
X4900099Y-52772993D01*
X4807007Y-52679901D01*
X4692993Y-52614075D01*
X4685174Y-52611980D01*
X5159488Y-52137667D01*
X5102728Y-52096430D01*
X4941440Y-52014250D01*
X4769289Y-51958316D01*
X4590510Y-51930000D01*
X4409490Y-51930000D01*
X4230710Y-51958316D01*
X4058559Y-52014250D01*
X3897267Y-52096432D01*
X3840510Y-52137667D01*
X4314823Y-52611980D01*
X4307007Y-52614075D01*
X4192993Y-52679901D01*
X4099901Y-52772993D01*
X4034075Y-52887007D01*
X4031980Y-52894823D01*
X3557667Y-52420510D01*
X3516432Y-52477267D01*
X3434250Y-52638559D01*
X3378316Y-52810710D01*
X3350000Y-52989489D01*
X500500Y-52989489D01*
X500500Y-50453384D01*
X3399500Y-50453384D01*
X3399500Y-50626614D01*
X3426597Y-50797702D01*
X3426598Y-50797706D01*
X3480123Y-50962438D01*
X3480125Y-50962441D01*
X3552868Y-51105210D01*
X3558768Y-51116788D01*
X3660586Y-51256928D01*
X3783072Y-51379414D01*
X3923212Y-51481232D01*
X4077555Y-51559873D01*
X4077557Y-51559873D01*
X4077558Y-51559874D01*
X4077561Y-51559876D01*
X4242293Y-51613401D01*
X4242297Y-51613402D01*
X4413386Y-51640500D01*
X4413389Y-51640500D01*
X4586614Y-51640500D01*
X4757702Y-51613402D01*
X4757706Y-51613401D01*
X4922438Y-51559876D01*
X4922440Y-51559874D01*
X4922445Y-51559873D01*
X5076788Y-51481232D01*
X5216928Y-51379414D01*
X5339414Y-51256928D01*
X5441232Y-51116788D01*
X5519873Y-50962445D01*
X5519874Y-50962440D01*
X5519876Y-50962438D01*
X5573401Y-50797706D01*
X5573402Y-50797702D01*
X5600500Y-50626614D01*
X5600500Y-50453385D01*
X5599883Y-50449489D01*
X10850000Y-50449489D01*
X10850000Y-50630510D01*
X10878316Y-50809289D01*
X10934250Y-50981440D01*
X11016430Y-51142728D01*
X11057667Y-51199488D01*
X11531980Y-50725174D01*
X11534075Y-50732993D01*
X11599901Y-50847007D01*
X11692993Y-50940099D01*
X11807007Y-51005925D01*
X11814821Y-51008019D01*
X11340511Y-51482330D01*
X11397275Y-51523571D01*
X11558559Y-51605749D01*
X11730710Y-51661683D01*
X11909490Y-51690000D01*
X12090510Y-51690000D01*
X12269289Y-51661683D01*
X12441440Y-51605749D01*
X12602728Y-51523569D01*
X12659487Y-51482330D01*
X12185176Y-51008019D01*
X12192993Y-51005925D01*
X12307007Y-50940099D01*
X12400099Y-50847007D01*
X12465925Y-50732993D01*
X12468019Y-50725176D01*
X12942330Y-51199487D01*
X12983569Y-51142728D01*
X13002690Y-51105202D01*
X55350000Y-51105202D01*
X55350000Y-51799999D01*
X55350001Y-51800000D01*
X56038120Y-51800000D01*
X56034075Y-51807007D01*
X56000000Y-51934174D01*
X56000000Y-52065826D01*
X56034075Y-52192993D01*
X56038120Y-52200000D01*
X55350002Y-52200000D01*
X55350001Y-52200001D01*
X55350001Y-52894791D01*
X55352909Y-52919874D01*
X55398213Y-53022477D01*
X55477522Y-53101786D01*
X55580127Y-53147090D01*
X55605203Y-53149999D01*
X56299998Y-53149999D01*
X56300000Y-53149998D01*
X56300000Y-52461879D01*
X56307007Y-52465925D01*
X56434174Y-52500000D01*
X56565826Y-52500000D01*
X56692993Y-52465925D01*
X56700000Y-52461879D01*
X56700000Y-53149998D01*
X56700001Y-53149999D01*
X57394790Y-53149999D01*
X57394791Y-53149998D01*
X57419874Y-53147090D01*
X57522477Y-53101786D01*
X57601786Y-53022477D01*
X57647090Y-52919872D01*
X57649999Y-52894797D01*
X57650000Y-52894795D01*
X57650000Y-52200001D01*
X57649999Y-52200000D01*
X56961880Y-52200000D01*
X56965925Y-52192993D01*
X57000000Y-52065826D01*
X57000000Y-51934174D01*
X56965925Y-51807007D01*
X56961880Y-51800000D01*
X57649998Y-51800000D01*
X57649999Y-51799999D01*
X57649999Y-51105210D01*
X57649998Y-51105208D01*
X57647090Y-51080125D01*
X57601786Y-50977522D01*
X57522477Y-50898213D01*
X57419872Y-50852909D01*
X57394797Y-50850000D01*
X56700001Y-50850000D01*
X56700000Y-50850001D01*
X56700000Y-51538120D01*
X56692993Y-51534075D01*
X56565826Y-51500000D01*
X56434174Y-51500000D01*
X56307007Y-51534075D01*
X56300000Y-51538120D01*
X56300000Y-50850001D01*
X56299999Y-50850000D01*
X55605210Y-50850000D01*
X55605207Y-50850001D01*
X55580125Y-50852909D01*
X55477522Y-50898213D01*
X55398213Y-50977522D01*
X55352909Y-51080127D01*
X55350000Y-51105202D01*
X13002690Y-51105202D01*
X13027045Y-51057403D01*
X13065749Y-50981440D01*
X13121683Y-50809289D01*
X13150000Y-50630510D01*
X13150000Y-50449489D01*
X13121683Y-50270710D01*
X13065749Y-50098559D01*
X12983571Y-49937275D01*
X12942330Y-49880511D01*
X12468019Y-50354821D01*
X12465925Y-50347007D01*
X12400099Y-50232993D01*
X12307007Y-50139901D01*
X12192993Y-50074075D01*
X12185174Y-50071980D01*
X12659488Y-49597667D01*
X12602728Y-49556430D01*
X12573123Y-49541346D01*
X12441440Y-49474250D01*
X12396428Y-49459625D01*
X24247500Y-49459625D01*
X24247500Y-49604574D01*
X24285017Y-49744589D01*
X24357487Y-49870110D01*
X24357489Y-49870112D01*
X24357491Y-49870115D01*
X24459985Y-49972609D01*
X24459987Y-49972610D01*
X24459989Y-49972612D01*
X24585511Y-50045082D01*
X24585512Y-50045082D01*
X24585515Y-50045084D01*
X24725525Y-50082600D01*
X24725526Y-50082600D01*
X24870474Y-50082600D01*
X24870475Y-50082600D01*
X25010485Y-50045084D01*
X25010487Y-50045082D01*
X25010489Y-50045082D01*
X25136010Y-49972612D01*
X25136010Y-49972611D01*
X25136015Y-49972609D01*
X25238509Y-49870115D01*
X25265669Y-49823073D01*
X25310982Y-49744589D01*
X25310982Y-49744587D01*
X25310984Y-49744585D01*
X25348500Y-49604575D01*
X25348500Y-49459625D01*
X25310984Y-49319615D01*
X25310982Y-49319612D01*
X25310982Y-49319610D01*
X25238512Y-49194089D01*
X25238510Y-49194087D01*
X25238509Y-49194085D01*
X25136015Y-49091591D01*
X25136012Y-49091589D01*
X25136010Y-49091587D01*
X25010488Y-49019117D01*
X25010489Y-49019117D01*
X24936957Y-48999414D01*
X24870475Y-48981600D01*
X24725525Y-48981600D01*
X24663790Y-48998141D01*
X24585510Y-49019117D01*
X24459989Y-49091587D01*
X24357487Y-49194089D01*
X24285017Y-49319610D01*
X24247500Y-49459625D01*
X12396428Y-49459625D01*
X12269289Y-49418316D01*
X12090510Y-49390000D01*
X11909490Y-49390000D01*
X11730710Y-49418316D01*
X11558559Y-49474250D01*
X11397267Y-49556432D01*
X11340510Y-49597667D01*
X11814823Y-50071980D01*
X11807007Y-50074075D01*
X11692993Y-50139901D01*
X11599901Y-50232993D01*
X11534075Y-50347007D01*
X11531980Y-50354823D01*
X11057667Y-49880510D01*
X11016432Y-49937267D01*
X10934250Y-50098559D01*
X10878316Y-50270710D01*
X10850000Y-50449489D01*
X5599883Y-50449489D01*
X5573402Y-50282297D01*
X5573401Y-50282293D01*
X5519876Y-50117561D01*
X5519874Y-50117558D01*
X5519873Y-50117557D01*
X5519873Y-50117555D01*
X5441232Y-49963212D01*
X5339414Y-49823072D01*
X5216928Y-49700586D01*
X5076788Y-49598768D01*
X5076787Y-49598767D01*
X5076785Y-49598766D01*
X4922441Y-49520125D01*
X4922438Y-49520123D01*
X4757706Y-49466598D01*
X4757702Y-49466597D01*
X4586614Y-49439500D01*
X4586611Y-49439500D01*
X4413389Y-49439500D01*
X4413386Y-49439500D01*
X4242297Y-49466597D01*
X4242293Y-49466598D01*
X4077561Y-49520123D01*
X4077558Y-49520125D01*
X3923214Y-49598766D01*
X3783073Y-49700585D01*
X3660585Y-49823073D01*
X3558766Y-49963214D01*
X3480125Y-50117558D01*
X3480123Y-50117561D01*
X3426598Y-50282293D01*
X3426597Y-50282297D01*
X3399501Y-50453378D01*
X3399500Y-50453384D01*
X500500Y-50453384D01*
X500500Y-47125327D01*
X3399500Y-47125327D01*
X3399500Y-48874672D01*
X3399501Y-48874684D01*
X3414033Y-48947736D01*
X3414035Y-48947742D01*
X3469397Y-49030599D01*
X3469399Y-49030601D01*
X3552260Y-49085966D01*
X3607808Y-49097015D01*
X3625315Y-49100498D01*
X3625320Y-49100498D01*
X3625326Y-49100500D01*
X3625327Y-49100500D01*
X5374673Y-49100500D01*
X5374674Y-49100500D01*
X5447740Y-49085966D01*
X5530601Y-49030601D01*
X5585966Y-48947740D01*
X5600500Y-48874674D01*
X5600500Y-47125327D01*
X10899500Y-47125327D01*
X10899500Y-48874672D01*
X10899501Y-48874684D01*
X10914033Y-48947736D01*
X10914035Y-48947742D01*
X10969397Y-49030599D01*
X10969399Y-49030601D01*
X11052260Y-49085966D01*
X11107808Y-49097015D01*
X11125315Y-49100498D01*
X11125320Y-49100498D01*
X11125326Y-49100500D01*
X11125327Y-49100500D01*
X12874673Y-49100500D01*
X12874674Y-49100500D01*
X12947740Y-49085966D01*
X13030601Y-49030601D01*
X13085966Y-48947740D01*
X13100500Y-48874674D01*
X13100500Y-48741225D01*
X27255100Y-48741225D01*
X27255100Y-48886175D01*
X27271597Y-48947742D01*
X27292617Y-49026189D01*
X27365087Y-49151710D01*
X27365089Y-49151712D01*
X27365091Y-49151715D01*
X27467585Y-49254209D01*
X27467587Y-49254210D01*
X27467589Y-49254212D01*
X27593111Y-49326682D01*
X27593112Y-49326682D01*
X27593115Y-49326684D01*
X27733125Y-49364200D01*
X27733126Y-49364200D01*
X27878074Y-49364200D01*
X27878075Y-49364200D01*
X28018085Y-49326684D01*
X28018087Y-49326682D01*
X28018089Y-49326682D01*
X28143610Y-49254212D01*
X28143610Y-49254211D01*
X28143615Y-49254209D01*
X28246109Y-49151715D01*
X28275255Y-49101233D01*
X28318582Y-49026189D01*
X28318582Y-49026187D01*
X28318584Y-49026185D01*
X28356100Y-48886175D01*
X28356100Y-48741225D01*
X28318584Y-48601215D01*
X28318582Y-48601212D01*
X28318582Y-48601210D01*
X28246112Y-48475689D01*
X28246110Y-48475687D01*
X28246109Y-48475685D01*
X28143615Y-48373191D01*
X28143612Y-48373189D01*
X28143610Y-48373187D01*
X28018088Y-48300717D01*
X28018089Y-48300717D01*
X27988496Y-48292787D01*
X27878075Y-48263200D01*
X27733125Y-48263200D01*
X27671390Y-48279741D01*
X27593110Y-48300717D01*
X27467589Y-48373187D01*
X27365087Y-48475689D01*
X27292617Y-48601210D01*
X27292616Y-48601215D01*
X27255100Y-48741225D01*
X13100500Y-48741225D01*
X13100500Y-48073385D01*
X55399500Y-48073385D01*
X55399500Y-48246614D01*
X55426597Y-48417702D01*
X55426598Y-48417706D01*
X55480123Y-48582438D01*
X55480125Y-48582441D01*
X55480126Y-48582444D01*
X55480127Y-48582445D01*
X55558768Y-48736788D01*
X55660586Y-48876928D01*
X55783072Y-48999414D01*
X55923212Y-49101232D01*
X56077555Y-49179873D01*
X56077557Y-49179873D01*
X56077558Y-49179874D01*
X56077561Y-49179876D01*
X56242293Y-49233401D01*
X56242297Y-49233402D01*
X56413386Y-49260500D01*
X56413389Y-49260500D01*
X56586614Y-49260500D01*
X56757702Y-49233402D01*
X56757706Y-49233401D01*
X56922438Y-49179876D01*
X56922440Y-49179874D01*
X56922445Y-49179873D01*
X57076788Y-49101232D01*
X57216928Y-48999414D01*
X57339414Y-48876928D01*
X57441232Y-48736788D01*
X57519873Y-48582445D01*
X57519874Y-48582440D01*
X57519876Y-48582438D01*
X57573401Y-48417706D01*
X57573402Y-48417702D01*
X57600500Y-48246614D01*
X57600500Y-48073385D01*
X57573402Y-47902297D01*
X57573401Y-47902293D01*
X57519876Y-47737561D01*
X57519874Y-47737558D01*
X57519873Y-47737557D01*
X57519873Y-47737555D01*
X57441232Y-47583212D01*
X57339414Y-47443072D01*
X57216928Y-47320586D01*
X57076788Y-47218768D01*
X57076787Y-47218767D01*
X57076785Y-47218766D01*
X56922441Y-47140125D01*
X56922438Y-47140123D01*
X56757706Y-47086598D01*
X56757702Y-47086597D01*
X56586614Y-47059500D01*
X56586611Y-47059500D01*
X56413389Y-47059500D01*
X56413386Y-47059500D01*
X56242297Y-47086597D01*
X56242293Y-47086598D01*
X56077561Y-47140123D01*
X56077558Y-47140125D01*
X55923214Y-47218766D01*
X55783073Y-47320585D01*
X55660585Y-47443073D01*
X55558766Y-47583214D01*
X55480125Y-47737558D01*
X55480123Y-47737561D01*
X55426598Y-47902293D01*
X55426597Y-47902297D01*
X55399500Y-48073385D01*
X13100500Y-48073385D01*
X13100500Y-47125326D01*
X13085966Y-47052260D01*
X13030601Y-46969399D01*
X13030599Y-46969397D01*
X12947742Y-46914035D01*
X12947740Y-46914034D01*
X12947737Y-46914033D01*
X12947736Y-46914033D01*
X12874684Y-46899501D01*
X12874674Y-46899500D01*
X11125326Y-46899500D01*
X11125325Y-46899500D01*
X11125315Y-46899501D01*
X11052263Y-46914033D01*
X11052257Y-46914035D01*
X10969400Y-46969397D01*
X10969397Y-46969400D01*
X10914035Y-47052257D01*
X10914033Y-47052263D01*
X10899501Y-47125315D01*
X10899500Y-47125327D01*
X5600500Y-47125327D01*
X5600500Y-47125326D01*
X5585966Y-47052260D01*
X5530601Y-46969399D01*
X5530599Y-46969397D01*
X5447742Y-46914035D01*
X5447740Y-46914034D01*
X5447737Y-46914033D01*
X5447736Y-46914033D01*
X5374684Y-46899501D01*
X5374674Y-46899500D01*
X3625326Y-46899500D01*
X3625325Y-46899500D01*
X3625315Y-46899501D01*
X3552263Y-46914033D01*
X3552257Y-46914035D01*
X3469400Y-46969397D01*
X3469397Y-46969400D01*
X3414035Y-47052257D01*
X3414033Y-47052263D01*
X3399501Y-47125315D01*
X3399500Y-47125327D01*
X500500Y-47125327D01*
X500500Y-45533385D01*
X55399500Y-45533385D01*
X55399500Y-45706614D01*
X55426597Y-45877702D01*
X55426598Y-45877706D01*
X55480123Y-46042438D01*
X55480125Y-46042441D01*
X55480126Y-46042444D01*
X55480127Y-46042445D01*
X55558768Y-46196788D01*
X55660586Y-46336928D01*
X55783072Y-46459414D01*
X55923212Y-46561232D01*
X56077555Y-46639873D01*
X56077557Y-46639873D01*
X56077558Y-46639874D01*
X56077561Y-46639876D01*
X56242293Y-46693401D01*
X56242297Y-46693402D01*
X56413386Y-46720500D01*
X56413389Y-46720500D01*
X56586614Y-46720500D01*
X56757702Y-46693402D01*
X56757706Y-46693401D01*
X56922438Y-46639876D01*
X56922440Y-46639874D01*
X56922445Y-46639873D01*
X57076788Y-46561232D01*
X57216928Y-46459414D01*
X57339414Y-46336928D01*
X57441232Y-46196788D01*
X57519873Y-46042445D01*
X57519874Y-46042440D01*
X57519876Y-46042438D01*
X57573401Y-45877706D01*
X57573402Y-45877702D01*
X57600500Y-45706614D01*
X57600500Y-45632284D01*
X57619407Y-45574093D01*
X57668907Y-45538129D01*
X57730093Y-45538129D01*
X57736555Y-45540513D01*
X57736810Y-45540581D01*
X57736815Y-45540584D01*
X57876825Y-45578100D01*
X57876826Y-45578100D01*
X58021774Y-45578100D01*
X58021775Y-45578100D01*
X58161785Y-45540584D01*
X58161787Y-45540582D01*
X58161789Y-45540582D01*
X58287310Y-45468112D01*
X58287310Y-45468111D01*
X58287315Y-45468109D01*
X58389809Y-45365615D01*
X58389812Y-45365610D01*
X58462282Y-45240089D01*
X58462282Y-45240087D01*
X58462284Y-45240085D01*
X58499800Y-45100075D01*
X58499800Y-44955125D01*
X58462284Y-44815115D01*
X58462282Y-44815112D01*
X58462282Y-44815110D01*
X58389812Y-44689589D01*
X58389810Y-44689587D01*
X58389809Y-44689585D01*
X58287315Y-44587091D01*
X58287312Y-44587089D01*
X58287310Y-44587087D01*
X58161788Y-44514617D01*
X58161789Y-44514617D01*
X58132196Y-44506687D01*
X58021775Y-44477100D01*
X57876825Y-44477100D01*
X57815090Y-44493641D01*
X57736810Y-44514617D01*
X57611289Y-44587087D01*
X57508789Y-44689587D01*
X57433161Y-44820577D01*
X57387691Y-44861517D01*
X57326841Y-44867912D01*
X57277423Y-44841081D01*
X57216928Y-44780586D01*
X57076788Y-44678768D01*
X57076787Y-44678767D01*
X57076785Y-44678766D01*
X56922441Y-44600125D01*
X56922438Y-44600123D01*
X56757706Y-44546598D01*
X56757702Y-44546597D01*
X56586614Y-44519500D01*
X56586611Y-44519500D01*
X56413389Y-44519500D01*
X56413386Y-44519500D01*
X56242297Y-44546597D01*
X56242293Y-44546598D01*
X56077561Y-44600123D01*
X56077558Y-44600125D01*
X55923214Y-44678766D01*
X55783073Y-44780585D01*
X55660585Y-44903073D01*
X55558766Y-45043214D01*
X55480125Y-45197558D01*
X55480123Y-45197561D01*
X55426598Y-45362293D01*
X55426597Y-45362297D01*
X55399500Y-45533385D01*
X500500Y-45533385D01*
X500500Y-42927525D01*
X37849500Y-42927525D01*
X37849500Y-43072474D01*
X37887017Y-43212489D01*
X37959487Y-43338010D01*
X37959489Y-43338012D01*
X37959491Y-43338015D01*
X38061985Y-43440509D01*
X38061987Y-43440510D01*
X38061989Y-43440512D01*
X38187511Y-43512982D01*
X38187512Y-43512982D01*
X38187515Y-43512984D01*
X38327525Y-43550500D01*
X38327526Y-43550500D01*
X38472474Y-43550500D01*
X38472475Y-43550500D01*
X38612485Y-43512984D01*
X38612487Y-43512982D01*
X38612489Y-43512982D01*
X38738010Y-43440512D01*
X38738010Y-43440511D01*
X38738015Y-43440509D01*
X38840509Y-43338015D01*
X38840512Y-43338010D01*
X38912982Y-43212489D01*
X38912982Y-43212487D01*
X38912984Y-43212485D01*
X38950500Y-43072475D01*
X38950500Y-42993385D01*
X55399500Y-42993385D01*
X55399500Y-43166614D01*
X55426597Y-43337702D01*
X55426598Y-43337706D01*
X55480123Y-43502438D01*
X55480125Y-43502441D01*
X55480126Y-43502444D01*
X55480127Y-43502445D01*
X55558768Y-43656788D01*
X55660586Y-43796928D01*
X55783072Y-43919414D01*
X55923212Y-44021232D01*
X56077555Y-44099873D01*
X56077557Y-44099873D01*
X56077558Y-44099874D01*
X56077561Y-44099876D01*
X56242293Y-44153401D01*
X56242297Y-44153402D01*
X56413386Y-44180500D01*
X56413389Y-44180500D01*
X56586614Y-44180500D01*
X56757702Y-44153402D01*
X56757706Y-44153401D01*
X56922438Y-44099876D01*
X56922440Y-44099874D01*
X56922445Y-44099873D01*
X57076788Y-44021232D01*
X57216928Y-43919414D01*
X57339414Y-43796928D01*
X57441232Y-43656788D01*
X57519873Y-43502445D01*
X57519874Y-43502440D01*
X57519876Y-43502438D01*
X57573401Y-43337706D01*
X57573402Y-43337702D01*
X57600500Y-43166614D01*
X57600500Y-42993385D01*
X57573402Y-42822297D01*
X57573401Y-42822293D01*
X57519876Y-42657561D01*
X57519874Y-42657558D01*
X57519873Y-42657557D01*
X57519873Y-42657555D01*
X57441232Y-42503212D01*
X57339414Y-42363072D01*
X57216928Y-42240586D01*
X57076788Y-42138768D01*
X57076787Y-42138767D01*
X57076785Y-42138766D01*
X56922441Y-42060125D01*
X56922438Y-42060123D01*
X56757706Y-42006598D01*
X56757702Y-42006597D01*
X56586614Y-41979500D01*
X56586611Y-41979500D01*
X56413389Y-41979500D01*
X56413386Y-41979500D01*
X56242297Y-42006597D01*
X56242293Y-42006598D01*
X56077561Y-42060123D01*
X56077558Y-42060125D01*
X55923214Y-42138766D01*
X55783073Y-42240585D01*
X55660585Y-42363073D01*
X55558766Y-42503214D01*
X55480125Y-42657558D01*
X55480123Y-42657561D01*
X55426598Y-42822293D01*
X55426597Y-42822297D01*
X55399500Y-42993385D01*
X38950500Y-42993385D01*
X38950500Y-42927525D01*
X38912984Y-42787515D01*
X38912982Y-42787512D01*
X38912982Y-42787510D01*
X38840512Y-42661989D01*
X38840510Y-42661987D01*
X38840509Y-42661985D01*
X38738015Y-42559491D01*
X38738012Y-42559489D01*
X38738010Y-42559487D01*
X38612488Y-42487017D01*
X38612489Y-42487017D01*
X38582896Y-42479087D01*
X38472475Y-42449500D01*
X38327525Y-42449500D01*
X38265790Y-42466041D01*
X38187510Y-42487017D01*
X38061989Y-42559487D01*
X37959487Y-42661989D01*
X37887017Y-42787510D01*
X37849500Y-42927525D01*
X500500Y-42927525D01*
X500500Y-42040878D01*
X519407Y-41982687D01*
X568907Y-41946723D01*
X630093Y-41946723D01*
X665943Y-41968695D01*
X666261Y-41968308D01*
X669066Y-41970610D01*
X669512Y-41970883D01*
X670025Y-41971396D01*
X670030Y-41971400D01*
X801050Y-42058947D01*
X801059Y-42058951D01*
X946644Y-42119254D01*
X946655Y-42119258D01*
X980000Y-42125890D01*
X980000Y-41574265D01*
X995795Y-41590060D01*
X1064204Y-41629556D01*
X1140504Y-41650000D01*
X1219496Y-41650000D01*
X1295796Y-41629556D01*
X1364205Y-41590060D01*
X1380000Y-41574265D01*
X1380000Y-42125889D01*
X1413344Y-42119258D01*
X1413355Y-42119254D01*
X1558940Y-42058951D01*
X1558949Y-42058947D01*
X1689969Y-41971400D01*
X1689973Y-41971397D01*
X1801397Y-41859973D01*
X1801400Y-41859969D01*
X1888947Y-41728949D01*
X1888951Y-41728940D01*
X1949257Y-41583349D01*
X1979999Y-41428795D01*
X1980000Y-41428792D01*
X1980000Y-41250001D01*
X1979999Y-41250000D01*
X1480000Y-41250000D01*
X1480000Y-40850000D01*
X1979999Y-40850000D01*
X1980000Y-40849999D01*
X1980000Y-40671207D01*
X1979999Y-40671204D01*
X1949257Y-40516650D01*
X1888951Y-40371059D01*
X1888947Y-40371050D01*
X1801400Y-40240030D01*
X1801397Y-40240026D01*
X1689973Y-40128602D01*
X1689969Y-40128599D01*
X1606350Y-40072725D01*
X6516300Y-40072725D01*
X6516300Y-40217675D01*
X6522289Y-40240026D01*
X6553817Y-40357689D01*
X6626287Y-40483210D01*
X6626289Y-40483212D01*
X6626291Y-40483215D01*
X6728785Y-40585709D01*
X6728787Y-40585710D01*
X6728789Y-40585712D01*
X6854311Y-40658182D01*
X6854312Y-40658182D01*
X6854315Y-40658184D01*
X6994325Y-40695700D01*
X6994326Y-40695700D01*
X7139274Y-40695700D01*
X7139275Y-40695700D01*
X7230694Y-40671204D01*
X9020000Y-40671204D01*
X9020000Y-40849999D01*
X9020001Y-40850000D01*
X9520000Y-40850000D01*
X9520000Y-41250000D01*
X9020001Y-41250000D01*
X9020000Y-41250001D01*
X9020000Y-41428795D01*
X9050742Y-41583349D01*
X9111048Y-41728940D01*
X9111052Y-41728949D01*
X9198599Y-41859969D01*
X9198602Y-41859973D01*
X9310026Y-41971397D01*
X9310030Y-41971400D01*
X9441050Y-42058947D01*
X9441059Y-42058951D01*
X9586644Y-42119254D01*
X9586655Y-42119258D01*
X9620000Y-42125890D01*
X9620000Y-41574265D01*
X9635795Y-41590060D01*
X9704204Y-41629556D01*
X9780504Y-41650000D01*
X9859496Y-41650000D01*
X9935796Y-41629556D01*
X10004205Y-41590060D01*
X10020000Y-41574265D01*
X10020000Y-42125889D01*
X10053344Y-42119258D01*
X10053355Y-42119254D01*
X10198940Y-42058951D01*
X10198949Y-42058947D01*
X10329969Y-41971400D01*
X10329973Y-41971397D01*
X10441397Y-41859973D01*
X10441400Y-41859969D01*
X10528947Y-41728949D01*
X10528951Y-41728940D01*
X10589257Y-41583349D01*
X10619999Y-41428797D01*
X10620000Y-41428792D01*
X10620000Y-41250001D01*
X10619999Y-41250000D01*
X10120000Y-41250000D01*
X10120000Y-40850000D01*
X10619999Y-40850000D01*
X10620000Y-40849999D01*
X10620000Y-40671207D01*
X10619999Y-40671202D01*
X10608313Y-40612449D01*
X10605762Y-40599625D01*
X15247300Y-40599625D01*
X15247300Y-40744574D01*
X15284817Y-40884589D01*
X15357287Y-41010110D01*
X15357289Y-41010112D01*
X15357291Y-41010115D01*
X15459785Y-41112609D01*
X15459787Y-41112610D01*
X15459789Y-41112612D01*
X15585311Y-41185082D01*
X15585312Y-41185082D01*
X15585315Y-41185084D01*
X15725325Y-41222600D01*
X15725326Y-41222600D01*
X15870274Y-41222600D01*
X15870275Y-41222600D01*
X16010285Y-41185084D01*
X16010287Y-41185082D01*
X16010289Y-41185082D01*
X16135810Y-41112612D01*
X16135810Y-41112611D01*
X16135815Y-41112609D01*
X16238309Y-41010115D01*
X16310784Y-40884585D01*
X16348300Y-40744575D01*
X16348300Y-40599625D01*
X16310784Y-40459615D01*
X16304938Y-40449489D01*
X55350000Y-40449489D01*
X55350000Y-40630510D01*
X55378316Y-40809289D01*
X55434250Y-40981440D01*
X55516430Y-41142728D01*
X55557667Y-41199488D01*
X56031980Y-40725174D01*
X56034075Y-40732993D01*
X56099901Y-40847007D01*
X56192993Y-40940099D01*
X56307007Y-41005925D01*
X56314821Y-41008019D01*
X55840511Y-41482330D01*
X55897275Y-41523571D01*
X56058559Y-41605749D01*
X56230710Y-41661683D01*
X56409490Y-41690000D01*
X56590510Y-41690000D01*
X56769289Y-41661683D01*
X56941440Y-41605749D01*
X57102728Y-41523569D01*
X57159487Y-41482330D01*
X56685176Y-41008019D01*
X56692993Y-41005925D01*
X56807007Y-40940099D01*
X56900099Y-40847007D01*
X56965925Y-40732993D01*
X56968019Y-40725176D01*
X57442330Y-41199487D01*
X57483569Y-41142728D01*
X57565749Y-40981440D01*
X57621683Y-40809289D01*
X57650000Y-40630510D01*
X57650000Y-40449489D01*
X57621683Y-40270710D01*
X57565749Y-40098559D01*
X57483571Y-39937275D01*
X57442330Y-39880511D01*
X56968019Y-40354821D01*
X56965925Y-40347007D01*
X56900099Y-40232993D01*
X56807007Y-40139901D01*
X56692993Y-40074075D01*
X56685174Y-40071980D01*
X57159488Y-39597667D01*
X57102728Y-39556430D01*
X56941440Y-39474250D01*
X56769289Y-39418316D01*
X56590510Y-39390000D01*
X56409490Y-39390000D01*
X56230710Y-39418316D01*
X56058559Y-39474250D01*
X55897267Y-39556432D01*
X55840510Y-39597667D01*
X56314823Y-40071980D01*
X56307007Y-40074075D01*
X56192993Y-40139901D01*
X56099901Y-40232993D01*
X56034075Y-40347007D01*
X56031980Y-40354823D01*
X55557667Y-39880510D01*
X55516432Y-39937267D01*
X55434250Y-40098559D01*
X55378316Y-40270710D01*
X55350000Y-40449489D01*
X16304938Y-40449489D01*
X16238312Y-40334089D01*
X16238310Y-40334087D01*
X16238309Y-40334085D01*
X16135815Y-40231591D01*
X16135812Y-40231589D01*
X16135810Y-40231587D01*
X16010288Y-40159117D01*
X16010289Y-40159117D01*
X15907938Y-40131692D01*
X15870275Y-40121600D01*
X15725325Y-40121600D01*
X15687662Y-40131692D01*
X15585310Y-40159117D01*
X15459789Y-40231587D01*
X15357287Y-40334089D01*
X15284817Y-40459610D01*
X15247300Y-40599625D01*
X10605762Y-40599625D01*
X10589257Y-40516650D01*
X10528951Y-40371059D01*
X10528947Y-40371050D01*
X10441400Y-40240030D01*
X10441397Y-40240026D01*
X10329973Y-40128602D01*
X10329969Y-40128599D01*
X10198949Y-40041052D01*
X10198940Y-40041048D01*
X10053349Y-39980742D01*
X10020000Y-39974109D01*
X10020000Y-40525735D01*
X10004205Y-40509940D01*
X9935796Y-40470444D01*
X9859496Y-40450000D01*
X9780504Y-40450000D01*
X9704204Y-40470444D01*
X9635795Y-40509940D01*
X9620000Y-40525735D01*
X9620000Y-39974109D01*
X9586650Y-39980742D01*
X9441059Y-40041048D01*
X9441050Y-40041052D01*
X9310030Y-40128599D01*
X9310026Y-40128602D01*
X9198602Y-40240026D01*
X9198599Y-40240030D01*
X9111052Y-40371050D01*
X9111048Y-40371059D01*
X9050742Y-40516650D01*
X9020000Y-40671204D01*
X7230694Y-40671204D01*
X7279285Y-40658184D01*
X7279287Y-40658182D01*
X7279289Y-40658182D01*
X7404810Y-40585712D01*
X7404810Y-40585711D01*
X7404815Y-40585709D01*
X7507309Y-40483215D01*
X7520937Y-40459611D01*
X7579782Y-40357689D01*
X7579782Y-40357687D01*
X7579784Y-40357685D01*
X7617300Y-40217675D01*
X7617300Y-40072725D01*
X7579784Y-39932715D01*
X7579782Y-39932712D01*
X7579782Y-39932710D01*
X7507312Y-39807189D01*
X7507310Y-39807187D01*
X7507309Y-39807185D01*
X7404815Y-39704691D01*
X7404812Y-39704689D01*
X7404810Y-39704687D01*
X7279288Y-39632217D01*
X7279289Y-39632217D01*
X7249696Y-39624287D01*
X7139275Y-39594700D01*
X6994325Y-39594700D01*
X6932590Y-39611241D01*
X6854310Y-39632217D01*
X6728789Y-39704687D01*
X6626287Y-39807189D01*
X6553817Y-39932710D01*
X6553816Y-39932715D01*
X6516300Y-40072725D01*
X1606350Y-40072725D01*
X1558949Y-40041052D01*
X1558940Y-40041048D01*
X1413349Y-39980742D01*
X1380000Y-39974109D01*
X1380000Y-40525735D01*
X1364205Y-40509940D01*
X1295796Y-40470444D01*
X1219496Y-40450000D01*
X1140504Y-40450000D01*
X1064204Y-40470444D01*
X995795Y-40509940D01*
X980000Y-40525735D01*
X980000Y-39974109D01*
X946650Y-39980742D01*
X801059Y-40041048D01*
X801050Y-40041052D01*
X670030Y-40128599D01*
X670026Y-40128602D01*
X669504Y-40129125D01*
X669202Y-40129278D01*
X666261Y-40131692D01*
X665731Y-40131046D01*
X614987Y-40156902D01*
X554555Y-40147331D01*
X511290Y-40104066D01*
X500500Y-40059121D01*
X500500Y-38712125D01*
X36346400Y-38712125D01*
X36346400Y-38857075D01*
X36370693Y-38947736D01*
X36383917Y-38997089D01*
X36456387Y-39122610D01*
X36456389Y-39122612D01*
X36456391Y-39122615D01*
X36558885Y-39225109D01*
X36558887Y-39225110D01*
X36558889Y-39225112D01*
X36684411Y-39297582D01*
X36684412Y-39297582D01*
X36684415Y-39297584D01*
X36824425Y-39335100D01*
X36824426Y-39335100D01*
X36969374Y-39335100D01*
X36969375Y-39335100D01*
X37109385Y-39297584D01*
X37109387Y-39297582D01*
X37109389Y-39297582D01*
X37234910Y-39225112D01*
X37234910Y-39225111D01*
X37234915Y-39225109D01*
X37337409Y-39122615D01*
X37350178Y-39100498D01*
X37409882Y-38997089D01*
X37409882Y-38997087D01*
X37409884Y-38997085D01*
X37447400Y-38857075D01*
X37447400Y-38712125D01*
X37409884Y-38572115D01*
X37409882Y-38572112D01*
X37409882Y-38572110D01*
X37337412Y-38446589D01*
X37337410Y-38446587D01*
X37337409Y-38446585D01*
X37234915Y-38344091D01*
X37234912Y-38344089D01*
X37234910Y-38344087D01*
X37109388Y-38271617D01*
X37109389Y-38271617D01*
X37079796Y-38263687D01*
X36969375Y-38234100D01*
X36824425Y-38234100D01*
X36762690Y-38250641D01*
X36684410Y-38271617D01*
X36558889Y-38344087D01*
X36456387Y-38446589D01*
X36383917Y-38572110D01*
X36383916Y-38572115D01*
X36346400Y-38712125D01*
X500500Y-38712125D01*
X500500Y-38110878D01*
X519407Y-38052687D01*
X568907Y-38016723D01*
X630093Y-38016723D01*
X665943Y-38038695D01*
X666261Y-38038308D01*
X669066Y-38040610D01*
X669512Y-38040883D01*
X670025Y-38041396D01*
X670030Y-38041400D01*
X801050Y-38128947D01*
X801059Y-38128951D01*
X946644Y-38189254D01*
X946655Y-38189258D01*
X980000Y-38195890D01*
X980000Y-37644265D01*
X995795Y-37660060D01*
X1064204Y-37699556D01*
X1140504Y-37720000D01*
X1219496Y-37720000D01*
X1295796Y-37699556D01*
X1364205Y-37660060D01*
X1380000Y-37644265D01*
X1380000Y-38195889D01*
X1413344Y-38189258D01*
X1413355Y-38189254D01*
X1558940Y-38128951D01*
X1558949Y-38128947D01*
X1689969Y-38041400D01*
X1689973Y-38041397D01*
X1801397Y-37929973D01*
X1801400Y-37929969D01*
X1888947Y-37798949D01*
X1888953Y-37798937D01*
X1908129Y-37752642D01*
X1947865Y-37706116D01*
X2007360Y-37691832D01*
X2063888Y-37715246D01*
X2081906Y-37735523D01*
X2124142Y-37798733D01*
X2211267Y-37885858D01*
X2313714Y-37954311D01*
X2427548Y-38001463D01*
X2548394Y-38025500D01*
X2548396Y-38025500D01*
X2671604Y-38025500D01*
X2671606Y-38025500D01*
X2792452Y-38001463D01*
X2906286Y-37954311D01*
X3008733Y-37885858D01*
X3095858Y-37798733D01*
X3164311Y-37696286D01*
X3211463Y-37582452D01*
X3235500Y-37461606D01*
X3235500Y-37338394D01*
X3220350Y-37262225D01*
X4023100Y-37262225D01*
X4023100Y-37407175D01*
X4047649Y-37498792D01*
X4060617Y-37547189D01*
X4133087Y-37672710D01*
X4133089Y-37672712D01*
X4133091Y-37672715D01*
X4235585Y-37775209D01*
X4235587Y-37775210D01*
X4235589Y-37775212D01*
X4361111Y-37847682D01*
X4361112Y-37847682D01*
X4361115Y-37847684D01*
X4501125Y-37885200D01*
X4501126Y-37885200D01*
X4646074Y-37885200D01*
X4646075Y-37885200D01*
X4786085Y-37847684D01*
X4786087Y-37847682D01*
X4786089Y-37847682D01*
X4911610Y-37775212D01*
X4911610Y-37775211D01*
X4911615Y-37775209D01*
X5014109Y-37672715D01*
X5014112Y-37672710D01*
X5086582Y-37547189D01*
X5086582Y-37547187D01*
X5086584Y-37547185D01*
X5124100Y-37407175D01*
X5124100Y-37338391D01*
X7764500Y-37338391D01*
X7764500Y-37461608D01*
X7788536Y-37582450D01*
X7835688Y-37696285D01*
X7837874Y-37699556D01*
X7904142Y-37798733D01*
X7991267Y-37885858D01*
X8093714Y-37954311D01*
X8207548Y-38001463D01*
X8328394Y-38025500D01*
X8328396Y-38025500D01*
X8451604Y-38025500D01*
X8451606Y-38025500D01*
X8572452Y-38001463D01*
X8686286Y-37954311D01*
X8788733Y-37885858D01*
X8875858Y-37798733D01*
X8918093Y-37735523D01*
X8966140Y-37697646D01*
X9027278Y-37695244D01*
X9078152Y-37729236D01*
X9091870Y-37752641D01*
X9111048Y-37798940D01*
X9111052Y-37798949D01*
X9198599Y-37929969D01*
X9198602Y-37929973D01*
X9310026Y-38041397D01*
X9310030Y-38041400D01*
X9441050Y-38128947D01*
X9441059Y-38128951D01*
X9586644Y-38189254D01*
X9586655Y-38189258D01*
X9620000Y-38195890D01*
X9620000Y-37644265D01*
X9635795Y-37660060D01*
X9704204Y-37699556D01*
X9780504Y-37720000D01*
X9859496Y-37720000D01*
X9935796Y-37699556D01*
X10004205Y-37660060D01*
X10020000Y-37644265D01*
X10020000Y-38195889D01*
X10053344Y-38189258D01*
X10053355Y-38189254D01*
X10198940Y-38128951D01*
X10198949Y-38128947D01*
X10329969Y-38041400D01*
X10329973Y-38041397D01*
X10441397Y-37929973D01*
X10441400Y-37929969D01*
X10528947Y-37798949D01*
X10528951Y-37798940D01*
X10576178Y-37684925D01*
X38893500Y-37684925D01*
X38893500Y-37829875D01*
X38923087Y-37940296D01*
X38931017Y-37969889D01*
X39003487Y-38095410D01*
X39003489Y-38095412D01*
X39003491Y-38095415D01*
X39105985Y-38197909D01*
X39105987Y-38197910D01*
X39105989Y-38197912D01*
X39231511Y-38270382D01*
X39231512Y-38270382D01*
X39231515Y-38270384D01*
X39371525Y-38307900D01*
X39371526Y-38307900D01*
X39516474Y-38307900D01*
X39516475Y-38307900D01*
X39656485Y-38270384D01*
X39656487Y-38270382D01*
X39656489Y-38270382D01*
X39782010Y-38197912D01*
X39782010Y-38197911D01*
X39782015Y-38197909D01*
X39884509Y-38095415D01*
X39915695Y-38041400D01*
X39956982Y-37969889D01*
X39956982Y-37969887D01*
X39956984Y-37969885D01*
X39994500Y-37829875D01*
X39994500Y-37684925D01*
X39956984Y-37544915D01*
X39956982Y-37544912D01*
X39956982Y-37544910D01*
X39884512Y-37419389D01*
X39884510Y-37419387D01*
X39884509Y-37419385D01*
X39782015Y-37316891D01*
X39782012Y-37316889D01*
X39782010Y-37316887D01*
X39656488Y-37244417D01*
X39656489Y-37244417D01*
X39639689Y-37239915D01*
X39516475Y-37206900D01*
X39371525Y-37206900D01*
X39337232Y-37216089D01*
X39231510Y-37244417D01*
X39105989Y-37316887D01*
X39003487Y-37419389D01*
X38931017Y-37544910D01*
X38920958Y-37582450D01*
X38893500Y-37684925D01*
X10576178Y-37684925D01*
X10589256Y-37653351D01*
X10589257Y-37653348D01*
X10619999Y-37498795D01*
X10620000Y-37498792D01*
X10620000Y-37070001D01*
X10619999Y-37070000D01*
X10120000Y-37070000D01*
X10120000Y-36670000D01*
X10619999Y-36670000D01*
X10620000Y-36669999D01*
X10620000Y-36594925D01*
X16068200Y-36594925D01*
X16068200Y-36739875D01*
X16090130Y-36821717D01*
X16105717Y-36879889D01*
X16178187Y-37005410D01*
X16178189Y-37005412D01*
X16178191Y-37005415D01*
X16280685Y-37107909D01*
X16280687Y-37107910D01*
X16280689Y-37107912D01*
X16406211Y-37180382D01*
X16406212Y-37180382D01*
X16406215Y-37180384D01*
X16546225Y-37217900D01*
X16546226Y-37217900D01*
X16691174Y-37217900D01*
X16691175Y-37217900D01*
X16831185Y-37180384D01*
X16831187Y-37180382D01*
X16831189Y-37180382D01*
X16956710Y-37107912D01*
X16956710Y-37107911D01*
X16956715Y-37107909D01*
X17059209Y-37005415D01*
X17075609Y-36977010D01*
X17131682Y-36879889D01*
X17131682Y-36879887D01*
X17131684Y-36879885D01*
X17169200Y-36739875D01*
X17169200Y-36594925D01*
X17143637Y-36499525D01*
X21360300Y-36499525D01*
X21360300Y-36644475D01*
X21378253Y-36711474D01*
X21397817Y-36784489D01*
X21470287Y-36910010D01*
X21470289Y-36910012D01*
X21470291Y-36910015D01*
X21572785Y-37012509D01*
X21572787Y-37012510D01*
X21572789Y-37012512D01*
X21698311Y-37084982D01*
X21698312Y-37084982D01*
X21698315Y-37084984D01*
X21838325Y-37122500D01*
X21838326Y-37122500D01*
X21983274Y-37122500D01*
X21983275Y-37122500D01*
X22123285Y-37084984D01*
X22123287Y-37084982D01*
X22123289Y-37084982D01*
X22248810Y-37012512D01*
X22248810Y-37012511D01*
X22248815Y-37012509D01*
X22351309Y-36910015D01*
X22385099Y-36851489D01*
X22423782Y-36784489D01*
X22423782Y-36784487D01*
X22423784Y-36784485D01*
X22461300Y-36644475D01*
X22461300Y-36566525D01*
X25023100Y-36566525D01*
X25023100Y-36711475D01*
X25052639Y-36821716D01*
X25060617Y-36851489D01*
X25133087Y-36977010D01*
X25133089Y-36977012D01*
X25133091Y-36977015D01*
X25235585Y-37079509D01*
X25235587Y-37079510D01*
X25235589Y-37079512D01*
X25361111Y-37151982D01*
X25361112Y-37151982D01*
X25361115Y-37151984D01*
X25501125Y-37189500D01*
X25501126Y-37189500D01*
X25646074Y-37189500D01*
X25646075Y-37189500D01*
X25786085Y-37151984D01*
X25786087Y-37151982D01*
X25786089Y-37151982D01*
X25832257Y-37125327D01*
X55399500Y-37125327D01*
X55399500Y-38874672D01*
X55399501Y-38874684D01*
X55414033Y-38947736D01*
X55414035Y-38947742D01*
X55469397Y-39030599D01*
X55469399Y-39030601D01*
X55552260Y-39085966D01*
X55607808Y-39097015D01*
X55625315Y-39100498D01*
X55625320Y-39100498D01*
X55625326Y-39100500D01*
X55625327Y-39100500D01*
X57374673Y-39100500D01*
X57374674Y-39100500D01*
X57447740Y-39085966D01*
X57530601Y-39030601D01*
X57585966Y-38947740D01*
X57600500Y-38874674D01*
X57600500Y-37125326D01*
X57585966Y-37052260D01*
X57554666Y-37005415D01*
X57530602Y-36969400D01*
X57530599Y-36969397D01*
X57447742Y-36914035D01*
X57447740Y-36914034D01*
X57447737Y-36914033D01*
X57447736Y-36914033D01*
X57374684Y-36899501D01*
X57374674Y-36899500D01*
X55625326Y-36899500D01*
X55625325Y-36899500D01*
X55625315Y-36899501D01*
X55552263Y-36914033D01*
X55552257Y-36914035D01*
X55469400Y-36969397D01*
X55469397Y-36969400D01*
X55414035Y-37052257D01*
X55414033Y-37052263D01*
X55399501Y-37125315D01*
X55399500Y-37125327D01*
X25832257Y-37125327D01*
X25911610Y-37079512D01*
X25911610Y-37079511D01*
X25911615Y-37079509D01*
X26014109Y-36977015D01*
X26052792Y-36910015D01*
X26086582Y-36851489D01*
X26086582Y-36851487D01*
X26086584Y-36851485D01*
X26124100Y-36711475D01*
X26124100Y-36566525D01*
X26086584Y-36426515D01*
X26086582Y-36426512D01*
X26086582Y-36426510D01*
X26014112Y-36300989D01*
X26014110Y-36300987D01*
X26014109Y-36300985D01*
X25911615Y-36198491D01*
X25911612Y-36198489D01*
X25911610Y-36198487D01*
X25786088Y-36126017D01*
X25786089Y-36126017D01*
X25752064Y-36116900D01*
X25646075Y-36088500D01*
X25501125Y-36088500D01*
X25439390Y-36105041D01*
X25361110Y-36126017D01*
X25235589Y-36198487D01*
X25133087Y-36300989D01*
X25060617Y-36426510D01*
X25053007Y-36454910D01*
X25023100Y-36566525D01*
X22461300Y-36566525D01*
X22461300Y-36499525D01*
X22423784Y-36359515D01*
X22423782Y-36359512D01*
X22423782Y-36359510D01*
X22351312Y-36233989D01*
X22351310Y-36233987D01*
X22351309Y-36233985D01*
X22248815Y-36131491D01*
X22248812Y-36131489D01*
X22248810Y-36131487D01*
X22123288Y-36059017D01*
X22123289Y-36059017D01*
X22053974Y-36040444D01*
X21983275Y-36021500D01*
X21838325Y-36021500D01*
X21776590Y-36038041D01*
X21698310Y-36059017D01*
X21572789Y-36131487D01*
X21470287Y-36233989D01*
X21397817Y-36359510D01*
X21379863Y-36426515D01*
X21360300Y-36499525D01*
X17143637Y-36499525D01*
X17131684Y-36454915D01*
X17131681Y-36454909D01*
X17059212Y-36329389D01*
X17059210Y-36329387D01*
X17059209Y-36329385D01*
X16956715Y-36226891D01*
X16956712Y-36226889D01*
X16956710Y-36226887D01*
X16831188Y-36154417D01*
X16831189Y-36154417D01*
X16761691Y-36135795D01*
X16691175Y-36116900D01*
X16546225Y-36116900D01*
X16491786Y-36131487D01*
X16406210Y-36154417D01*
X16280689Y-36226887D01*
X16178187Y-36329389D01*
X16105717Y-36454910D01*
X16080104Y-36550500D01*
X16068200Y-36594925D01*
X10620000Y-36594925D01*
X10620000Y-36241207D01*
X10619999Y-36241204D01*
X10589257Y-36086650D01*
X10528951Y-35941059D01*
X10528947Y-35941050D01*
X10441400Y-35810030D01*
X10441397Y-35810026D01*
X10329973Y-35698602D01*
X10329969Y-35698599D01*
X10198949Y-35611052D01*
X10198940Y-35611048D01*
X10053349Y-35550742D01*
X10020000Y-35544109D01*
X10020000Y-36095735D01*
X10004205Y-36079940D01*
X9935796Y-36040444D01*
X9859496Y-36020000D01*
X9780504Y-36020000D01*
X9704204Y-36040444D01*
X9635795Y-36079940D01*
X9620000Y-36095735D01*
X9620000Y-35544109D01*
X9586650Y-35550742D01*
X9441059Y-35611048D01*
X9441050Y-35611052D01*
X9310030Y-35698599D01*
X9310026Y-35698602D01*
X9198602Y-35810026D01*
X9198599Y-35810030D01*
X9111052Y-35941050D01*
X9111048Y-35941059D01*
X9050742Y-36086650D01*
X9020000Y-36241204D01*
X9020000Y-36669999D01*
X9020001Y-36670000D01*
X9520000Y-36670000D01*
X9520000Y-37070000D01*
X8994552Y-37070000D01*
X8991887Y-37071357D01*
X8983330Y-37070000D01*
X8978993Y-37070000D01*
X8978993Y-37069312D01*
X8931457Y-37061774D01*
X8894105Y-37028576D01*
X8875858Y-37001267D01*
X8788733Y-36914142D01*
X8720279Y-36868402D01*
X8686285Y-36845688D01*
X8572450Y-36798536D01*
X8451608Y-36774500D01*
X8451606Y-36774500D01*
X8328394Y-36774500D01*
X8328391Y-36774500D01*
X8207549Y-36798536D01*
X8093714Y-36845688D01*
X7991267Y-36914142D01*
X7991263Y-36914145D01*
X7904145Y-37001263D01*
X7904142Y-37001267D01*
X7835688Y-37103714D01*
X7788536Y-37217549D01*
X7764500Y-37338391D01*
X5124100Y-37338391D01*
X5124100Y-37262225D01*
X5086584Y-37122215D01*
X5086582Y-37122212D01*
X5086582Y-37122210D01*
X5014112Y-36996689D01*
X5014110Y-36996687D01*
X5014109Y-36996685D01*
X4911615Y-36894191D01*
X4911612Y-36894189D01*
X4911610Y-36894187D01*
X4786088Y-36821717D01*
X4786089Y-36821717D01*
X4756496Y-36813787D01*
X4646075Y-36784200D01*
X4501125Y-36784200D01*
X4447623Y-36798536D01*
X4361110Y-36821717D01*
X4235589Y-36894187D01*
X4133087Y-36996689D01*
X4060617Y-37122210D01*
X4059785Y-37125315D01*
X4023100Y-37262225D01*
X3220350Y-37262225D01*
X3211463Y-37217548D01*
X3164311Y-37103714D01*
X3095858Y-37001267D01*
X3008733Y-36914142D01*
X2940279Y-36868402D01*
X2906285Y-36845688D01*
X2792450Y-36798536D01*
X2671608Y-36774500D01*
X2671606Y-36774500D01*
X2548394Y-36774500D01*
X2548391Y-36774500D01*
X2427549Y-36798536D01*
X2313714Y-36845688D01*
X2211267Y-36914142D01*
X2211263Y-36914145D01*
X2124145Y-37001263D01*
X2124139Y-37001270D01*
X2105894Y-37028576D01*
X2057844Y-37066455D01*
X2021007Y-37067901D01*
X2021007Y-37070000D01*
X1480000Y-37070000D01*
X1480000Y-36670000D01*
X1979999Y-36670000D01*
X1980000Y-36669999D01*
X1980000Y-36241207D01*
X1979999Y-36241204D01*
X1949257Y-36086650D01*
X1888951Y-35941059D01*
X1888947Y-35941050D01*
X1801400Y-35810030D01*
X1801397Y-35810026D01*
X1689973Y-35698602D01*
X1689969Y-35698599D01*
X1558949Y-35611052D01*
X1558940Y-35611048D01*
X1413349Y-35550742D01*
X1380000Y-35544109D01*
X1380000Y-36095735D01*
X1364205Y-36079940D01*
X1295796Y-36040444D01*
X1219496Y-36020000D01*
X1140504Y-36020000D01*
X1064204Y-36040444D01*
X995795Y-36079940D01*
X980000Y-36095735D01*
X980000Y-35544109D01*
X946650Y-35550742D01*
X801059Y-35611048D01*
X801050Y-35611052D01*
X670030Y-35698599D01*
X670026Y-35698602D01*
X669504Y-35699125D01*
X669202Y-35699278D01*
X666261Y-35701692D01*
X665731Y-35701046D01*
X614987Y-35726902D01*
X554555Y-35717331D01*
X511290Y-35674066D01*
X500500Y-35629121D01*
X500500Y-35318625D01*
X17432100Y-35318625D01*
X17432100Y-35463575D01*
X17446753Y-35518261D01*
X17469617Y-35603589D01*
X17542087Y-35729110D01*
X17542089Y-35729112D01*
X17542091Y-35729115D01*
X17644585Y-35831609D01*
X17644587Y-35831610D01*
X17644589Y-35831612D01*
X17770111Y-35904082D01*
X17770112Y-35904082D01*
X17770115Y-35904084D01*
X17910125Y-35941600D01*
X17910126Y-35941600D01*
X18055074Y-35941600D01*
X18055075Y-35941600D01*
X18107603Y-35927525D01*
X35299500Y-35927525D01*
X35299500Y-36072475D01*
X35316467Y-36135795D01*
X35337017Y-36212489D01*
X35409487Y-36338010D01*
X35409489Y-36338012D01*
X35409491Y-36338015D01*
X35511985Y-36440509D01*
X35511987Y-36440510D01*
X35511989Y-36440512D01*
X35637511Y-36512982D01*
X35637512Y-36512982D01*
X35637515Y-36512984D01*
X35777525Y-36550500D01*
X35777526Y-36550500D01*
X35922474Y-36550500D01*
X35922475Y-36550500D01*
X36062485Y-36512984D01*
X36062487Y-36512982D01*
X36062489Y-36512982D01*
X36188010Y-36440512D01*
X36188010Y-36440511D01*
X36188015Y-36440509D01*
X36290509Y-36338015D01*
X36311886Y-36300989D01*
X36362982Y-36212489D01*
X36362982Y-36212487D01*
X36362984Y-36212485D01*
X36400500Y-36072475D01*
X36400500Y-35927525D01*
X36362984Y-35787515D01*
X36362982Y-35787512D01*
X36362982Y-35787510D01*
X36290512Y-35661989D01*
X36290510Y-35661987D01*
X36290509Y-35661985D01*
X36188015Y-35559491D01*
X36188012Y-35559489D01*
X36188010Y-35559487D01*
X36062488Y-35487017D01*
X36062489Y-35487017D01*
X35998552Y-35469885D01*
X35922475Y-35449500D01*
X35777525Y-35449500D01*
X35747296Y-35457600D01*
X35637510Y-35487017D01*
X35511989Y-35559487D01*
X35409487Y-35661989D01*
X35337017Y-35787510D01*
X35325200Y-35831612D01*
X35299500Y-35927525D01*
X18107603Y-35927525D01*
X18195085Y-35904084D01*
X18195087Y-35904082D01*
X18195089Y-35904082D01*
X18253565Y-35870320D01*
X18320615Y-35831609D01*
X18423109Y-35729115D01*
X18458737Y-35667404D01*
X18504207Y-35626464D01*
X18565057Y-35620068D01*
X18614475Y-35646899D01*
X18665485Y-35697909D01*
X18665487Y-35697910D01*
X18665489Y-35697912D01*
X18791011Y-35770382D01*
X18791012Y-35770382D01*
X18791015Y-35770384D01*
X18931025Y-35807900D01*
X18931026Y-35807900D01*
X19075974Y-35807900D01*
X19075975Y-35807900D01*
X19215985Y-35770384D01*
X19215987Y-35770382D01*
X19215989Y-35770382D01*
X19341510Y-35697912D01*
X19341510Y-35697911D01*
X19341515Y-35697909D01*
X19444009Y-35595415D01*
X19506593Y-35487017D01*
X19516482Y-35469889D01*
X19516482Y-35469887D01*
X19516484Y-35469885D01*
X19554000Y-35329875D01*
X19554000Y-35184925D01*
X19516484Y-35044915D01*
X19516482Y-35044912D01*
X19516482Y-35044910D01*
X19444012Y-34919389D01*
X19444010Y-34919387D01*
X19444009Y-34919385D01*
X19359249Y-34834625D01*
X27409600Y-34834625D01*
X27409600Y-34979574D01*
X27447117Y-35119589D01*
X27519587Y-35245110D01*
X27519589Y-35245112D01*
X27519591Y-35245115D01*
X27622085Y-35347609D01*
X27622087Y-35347610D01*
X27622089Y-35347612D01*
X27747611Y-35420082D01*
X27747612Y-35420082D01*
X27747615Y-35420084D01*
X27887625Y-35457600D01*
X27887626Y-35457600D01*
X28032574Y-35457600D01*
X28032575Y-35457600D01*
X28172585Y-35420084D01*
X28172587Y-35420082D01*
X28172589Y-35420082D01*
X28298110Y-35347612D01*
X28298110Y-35347611D01*
X28298115Y-35347609D01*
X28400609Y-35245115D01*
X28473084Y-35119585D01*
X28476717Y-35106025D01*
X43737100Y-35106025D01*
X43737100Y-35250975D01*
X43762993Y-35347609D01*
X43774617Y-35390989D01*
X43847087Y-35516510D01*
X43847089Y-35516512D01*
X43847091Y-35516515D01*
X43949585Y-35619009D01*
X43949587Y-35619010D01*
X43949589Y-35619012D01*
X44075111Y-35691482D01*
X44075112Y-35691482D01*
X44075115Y-35691484D01*
X44215125Y-35729000D01*
X44215126Y-35729000D01*
X44360074Y-35729000D01*
X44360075Y-35729000D01*
X44500085Y-35691484D01*
X44500087Y-35691482D01*
X44500089Y-35691482D01*
X44625610Y-35619012D01*
X44625610Y-35619011D01*
X44625615Y-35619009D01*
X44728109Y-35516515D01*
X44800584Y-35390985D01*
X44838100Y-35250975D01*
X44838100Y-35106025D01*
X44800584Y-34966015D01*
X44800582Y-34966012D01*
X44800582Y-34966010D01*
X44728112Y-34840489D01*
X44728110Y-34840487D01*
X44728109Y-34840485D01*
X44625615Y-34737991D01*
X44625612Y-34737989D01*
X44625610Y-34737987D01*
X44500088Y-34665517D01*
X44500089Y-34665517D01*
X44404396Y-34639876D01*
X44360075Y-34628000D01*
X44215125Y-34628000D01*
X44170815Y-34639873D01*
X44075110Y-34665517D01*
X43949589Y-34737987D01*
X43847087Y-34840489D01*
X43774617Y-34966010D01*
X43751285Y-35053085D01*
X43737100Y-35106025D01*
X28476717Y-35106025D01*
X28476781Y-35105786D01*
X28485322Y-35073915D01*
X28485322Y-35073913D01*
X28510600Y-34979574D01*
X28510600Y-34834625D01*
X28505558Y-34815809D01*
X28473084Y-34694615D01*
X28473082Y-34694612D01*
X28473082Y-34694610D01*
X28400612Y-34569089D01*
X28400610Y-34569087D01*
X28400609Y-34569085D01*
X28298115Y-34466591D01*
X28298112Y-34466589D01*
X28298110Y-34466587D01*
X28172588Y-34394117D01*
X28172589Y-34394117D01*
X28142996Y-34386187D01*
X28032575Y-34356600D01*
X27887625Y-34356600D01*
X27825890Y-34373141D01*
X27747610Y-34394117D01*
X27622089Y-34466587D01*
X27519587Y-34569089D01*
X27447117Y-34694610D01*
X27409600Y-34834625D01*
X19359249Y-34834625D01*
X19341515Y-34816891D01*
X19341512Y-34816889D01*
X19341510Y-34816887D01*
X19215988Y-34744417D01*
X19215989Y-34744417D01*
X19126730Y-34720500D01*
X19075975Y-34706900D01*
X18931025Y-34706900D01*
X18880270Y-34720500D01*
X18791010Y-34744417D01*
X18665489Y-34816887D01*
X18562990Y-34919386D01*
X18527361Y-34981096D01*
X18481890Y-35022036D01*
X18421040Y-35028430D01*
X18371623Y-35001599D01*
X18320615Y-34950591D01*
X18320612Y-34950589D01*
X18320610Y-34950587D01*
X18195088Y-34878117D01*
X18195089Y-34878117D01*
X18165496Y-34870187D01*
X18055075Y-34840600D01*
X17910125Y-34840600D01*
X17848390Y-34857141D01*
X17770110Y-34878117D01*
X17644589Y-34950587D01*
X17542087Y-35053089D01*
X17469617Y-35178610D01*
X17451797Y-35245115D01*
X17432100Y-35318625D01*
X500500Y-35318625D01*
X500500Y-34302825D01*
X16168900Y-34302825D01*
X16168900Y-34447774D01*
X16206417Y-34587789D01*
X16278887Y-34713310D01*
X16278889Y-34713312D01*
X16278891Y-34713315D01*
X16381385Y-34815809D01*
X16381387Y-34815810D01*
X16381389Y-34815812D01*
X16506911Y-34888282D01*
X16506912Y-34888282D01*
X16506915Y-34888284D01*
X16646925Y-34925800D01*
X16646926Y-34925800D01*
X16791874Y-34925800D01*
X16791875Y-34925800D01*
X16931885Y-34888284D01*
X16931887Y-34888282D01*
X16931889Y-34888282D01*
X17057410Y-34815812D01*
X17057410Y-34815811D01*
X17057415Y-34815809D01*
X17159909Y-34713315D01*
X17163613Y-34706900D01*
X17232382Y-34587789D01*
X17232382Y-34587787D01*
X17232384Y-34587785D01*
X17269900Y-34447775D01*
X17269900Y-34302825D01*
X17232384Y-34162815D01*
X17232382Y-34162812D01*
X17232382Y-34162810D01*
X17159912Y-34037289D01*
X17159910Y-34037287D01*
X17159909Y-34037285D01*
X17057415Y-33934791D01*
X17057412Y-33934789D01*
X17057410Y-33934787D01*
X16931888Y-33862317D01*
X16931889Y-33862317D01*
X16902296Y-33854387D01*
X16791875Y-33824800D01*
X16646925Y-33824800D01*
X16585190Y-33841341D01*
X16506910Y-33862317D01*
X16381389Y-33934787D01*
X16278887Y-34037289D01*
X16206417Y-34162810D01*
X16168900Y-34302825D01*
X500500Y-34302825D01*
X500500Y-33311425D01*
X11896900Y-33311425D01*
X11896900Y-33456374D01*
X11934417Y-33596389D01*
X12006887Y-33721910D01*
X12006889Y-33721912D01*
X12006891Y-33721915D01*
X12109385Y-33824409D01*
X12109387Y-33824410D01*
X12109389Y-33824412D01*
X12234911Y-33896882D01*
X12234912Y-33896882D01*
X12234915Y-33896884D01*
X12374925Y-33934400D01*
X12374926Y-33934400D01*
X12519874Y-33934400D01*
X12519875Y-33934400D01*
X12659885Y-33896884D01*
X12659887Y-33896882D01*
X12659889Y-33896882D01*
X12785410Y-33824412D01*
X12785410Y-33824411D01*
X12785415Y-33824409D01*
X12887909Y-33721915D01*
X12896745Y-33706611D01*
X12960382Y-33596389D01*
X12960382Y-33596387D01*
X12960384Y-33596385D01*
X12997900Y-33456375D01*
X12997900Y-33311425D01*
X12960384Y-33171415D01*
X12960382Y-33171412D01*
X12960382Y-33171410D01*
X12887911Y-33045888D01*
X12887200Y-33044961D01*
X12886920Y-33044171D01*
X12884665Y-33040265D01*
X12885388Y-33039847D01*
X12866773Y-32987287D01*
X12884148Y-32928620D01*
X12932687Y-32891370D01*
X12952818Y-32886537D01*
X12959172Y-32885700D01*
X12959175Y-32885700D01*
X13099185Y-32848184D01*
X13099187Y-32848182D01*
X13099189Y-32848182D01*
X13157831Y-32814325D01*
X31611800Y-32814325D01*
X31611800Y-32959275D01*
X31634291Y-33043212D01*
X31649317Y-33099289D01*
X31721787Y-33224810D01*
X31721789Y-33224812D01*
X31721791Y-33224815D01*
X31824285Y-33327309D01*
X31824287Y-33327310D01*
X31824289Y-33327312D01*
X31949811Y-33399782D01*
X31949812Y-33399782D01*
X31949815Y-33399784D01*
X32089825Y-33437300D01*
X32089826Y-33437300D01*
X32234774Y-33437300D01*
X32234775Y-33437300D01*
X32374785Y-33399784D01*
X32374787Y-33399782D01*
X32374789Y-33399782D01*
X32500310Y-33327312D01*
X32500310Y-33327311D01*
X32500315Y-33327309D01*
X32602809Y-33224815D01*
X32602812Y-33224810D01*
X32675282Y-33099289D01*
X32675282Y-33099287D01*
X32675284Y-33099285D01*
X32712800Y-32959275D01*
X32712800Y-32927525D01*
X36249500Y-32927525D01*
X36249500Y-33072474D01*
X36287017Y-33212489D01*
X36359487Y-33338010D01*
X36359489Y-33338012D01*
X36359491Y-33338015D01*
X36461985Y-33440509D01*
X36461987Y-33440510D01*
X36461989Y-33440512D01*
X36587511Y-33512982D01*
X36587512Y-33512982D01*
X36587515Y-33512984D01*
X36727525Y-33550500D01*
X36727526Y-33550500D01*
X36872474Y-33550500D01*
X36872475Y-33550500D01*
X37012485Y-33512984D01*
X37012487Y-33512982D01*
X37012489Y-33512982D01*
X37138010Y-33440512D01*
X37138010Y-33440511D01*
X37138015Y-33440509D01*
X37240509Y-33338015D01*
X37244395Y-33331285D01*
X37312982Y-33212489D01*
X37312982Y-33212487D01*
X37312984Y-33212485D01*
X37350500Y-33072475D01*
X37350500Y-32927525D01*
X38299500Y-32927525D01*
X38299500Y-33072474D01*
X38337017Y-33212489D01*
X38409487Y-33338010D01*
X38409489Y-33338012D01*
X38409491Y-33338015D01*
X38511985Y-33440509D01*
X38511987Y-33440510D01*
X38511989Y-33440512D01*
X38637511Y-33512982D01*
X38637512Y-33512982D01*
X38637515Y-33512984D01*
X38777525Y-33550500D01*
X38777526Y-33550500D01*
X38922474Y-33550500D01*
X38922475Y-33550500D01*
X39062485Y-33512984D01*
X39062487Y-33512982D01*
X39062489Y-33512982D01*
X39188010Y-33440512D01*
X39188010Y-33440511D01*
X39188015Y-33440509D01*
X39290509Y-33338015D01*
X39294395Y-33331285D01*
X39362982Y-33212489D01*
X39362982Y-33212487D01*
X39362984Y-33212485D01*
X39400500Y-33072475D01*
X39400500Y-33046325D01*
X44910700Y-33046325D01*
X44910700Y-33191275D01*
X44919686Y-33224810D01*
X44948217Y-33331289D01*
X45020687Y-33456810D01*
X45020689Y-33456812D01*
X45020691Y-33456815D01*
X45123185Y-33559309D01*
X45123187Y-33559310D01*
X45123189Y-33559312D01*
X45248711Y-33631782D01*
X45248712Y-33631782D01*
X45248715Y-33631784D01*
X45388725Y-33669300D01*
X45388726Y-33669300D01*
X45533674Y-33669300D01*
X45533675Y-33669300D01*
X45673685Y-33631784D01*
X45673687Y-33631782D01*
X45673689Y-33631782D01*
X45799210Y-33559312D01*
X45799210Y-33559311D01*
X45799215Y-33559309D01*
X45825139Y-33533385D01*
X55399500Y-33533385D01*
X55399500Y-33706614D01*
X55426597Y-33877702D01*
X55426598Y-33877706D01*
X55480123Y-34042438D01*
X55480125Y-34042441D01*
X55480126Y-34042444D01*
X55480127Y-34042445D01*
X55558768Y-34196788D01*
X55660586Y-34336928D01*
X55783072Y-34459414D01*
X55923212Y-34561232D01*
X56077555Y-34639873D01*
X56077557Y-34639873D01*
X56077558Y-34639874D01*
X56077561Y-34639876D01*
X56242293Y-34693401D01*
X56242297Y-34693402D01*
X56413386Y-34720500D01*
X56413389Y-34720500D01*
X56586614Y-34720500D01*
X56757702Y-34693402D01*
X56757706Y-34693401D01*
X56922438Y-34639876D01*
X56922440Y-34639874D01*
X56922445Y-34639873D01*
X57076788Y-34561232D01*
X57216928Y-34459414D01*
X57339414Y-34336928D01*
X57441232Y-34196788D01*
X57519873Y-34042445D01*
X57519874Y-34042440D01*
X57519876Y-34042438D01*
X57573401Y-33877706D01*
X57573402Y-33877702D01*
X57600500Y-33706614D01*
X57600500Y-33533385D01*
X57573402Y-33362297D01*
X57573401Y-33362293D01*
X57519876Y-33197561D01*
X57519874Y-33197558D01*
X57519873Y-33197557D01*
X57519873Y-33197555D01*
X57441232Y-33043212D01*
X57339414Y-32903072D01*
X57216928Y-32780586D01*
X57076788Y-32678768D01*
X57076787Y-32678767D01*
X57076785Y-32678766D01*
X56922441Y-32600125D01*
X56922438Y-32600123D01*
X56757706Y-32546598D01*
X56757702Y-32546597D01*
X56586614Y-32519500D01*
X56586611Y-32519500D01*
X56413389Y-32519500D01*
X56413386Y-32519500D01*
X56242297Y-32546597D01*
X56242293Y-32546598D01*
X56077561Y-32600123D01*
X56077558Y-32600125D01*
X55923214Y-32678766D01*
X55783073Y-32780585D01*
X55660585Y-32903073D01*
X55558766Y-33043214D01*
X55480125Y-33197558D01*
X55480123Y-33197561D01*
X55426598Y-33362293D01*
X55426597Y-33362297D01*
X55399500Y-33533385D01*
X45825139Y-33533385D01*
X45901709Y-33456815D01*
X45956279Y-33362297D01*
X45974182Y-33331289D01*
X45974182Y-33331287D01*
X45974184Y-33331285D01*
X46011700Y-33191275D01*
X46011700Y-33046325D01*
X45974184Y-32906315D01*
X45974182Y-32906312D01*
X45974182Y-32906310D01*
X45901712Y-32780789D01*
X45901710Y-32780787D01*
X45901709Y-32780785D01*
X45799215Y-32678291D01*
X45799212Y-32678289D01*
X45799210Y-32678287D01*
X45673688Y-32605817D01*
X45673689Y-32605817D01*
X45644096Y-32597887D01*
X45533675Y-32568300D01*
X45388725Y-32568300D01*
X45326990Y-32584841D01*
X45248710Y-32605817D01*
X45123189Y-32678287D01*
X45020687Y-32780789D01*
X44948217Y-32906310D01*
X44934025Y-32959275D01*
X44910700Y-33046325D01*
X39400500Y-33046325D01*
X39400500Y-32927525D01*
X39362984Y-32787515D01*
X39362982Y-32787512D01*
X39362982Y-32787510D01*
X39290512Y-32661989D01*
X39290510Y-32661987D01*
X39290509Y-32661985D01*
X39188015Y-32559491D01*
X39188012Y-32559489D01*
X39188010Y-32559487D01*
X39062488Y-32487017D01*
X39062489Y-32487017D01*
X39032896Y-32479087D01*
X38922475Y-32449500D01*
X38777525Y-32449500D01*
X38715790Y-32466041D01*
X38637510Y-32487017D01*
X38511989Y-32559487D01*
X38409487Y-32661989D01*
X38337017Y-32787510D01*
X38299500Y-32927525D01*
X37350500Y-32927525D01*
X37312984Y-32787515D01*
X37312982Y-32787512D01*
X37312982Y-32787510D01*
X37240512Y-32661989D01*
X37240510Y-32661987D01*
X37240509Y-32661985D01*
X37138015Y-32559491D01*
X37138012Y-32559489D01*
X37138010Y-32559487D01*
X37012488Y-32487017D01*
X37012489Y-32487017D01*
X36982896Y-32479087D01*
X36872475Y-32449500D01*
X36727525Y-32449500D01*
X36665790Y-32466041D01*
X36587510Y-32487017D01*
X36461989Y-32559487D01*
X36359487Y-32661989D01*
X36287017Y-32787510D01*
X36249500Y-32927525D01*
X32712800Y-32927525D01*
X32712800Y-32814325D01*
X32675284Y-32674315D01*
X32675282Y-32674312D01*
X32675282Y-32674310D01*
X32602812Y-32548789D01*
X32602810Y-32548787D01*
X32602809Y-32548785D01*
X32500315Y-32446291D01*
X32500312Y-32446289D01*
X32500310Y-32446287D01*
X32374788Y-32373817D01*
X32374786Y-32373816D01*
X32374651Y-32373780D01*
X32374567Y-32373725D01*
X32368793Y-32371334D01*
X32369236Y-32370263D01*
X32323337Y-32340455D01*
X32301412Y-32283333D01*
X32317249Y-32224233D01*
X32364799Y-32185729D01*
X32374640Y-32182530D01*
X32443485Y-32164084D01*
X32443487Y-32164082D01*
X32443489Y-32164082D01*
X32569010Y-32091612D01*
X32569010Y-32091611D01*
X32569015Y-32091609D01*
X32671509Y-31989115D01*
X32743984Y-31863585D01*
X32781500Y-31723575D01*
X32781500Y-31578625D01*
X32743984Y-31438615D01*
X32743982Y-31438612D01*
X32743982Y-31438610D01*
X32671512Y-31313089D01*
X32671510Y-31313087D01*
X32671509Y-31313085D01*
X32569015Y-31210591D01*
X32569012Y-31210589D01*
X32569010Y-31210587D01*
X32443488Y-31138117D01*
X32443489Y-31138117D01*
X32410113Y-31129174D01*
X32303475Y-31100600D01*
X32158525Y-31100600D01*
X32096790Y-31117141D01*
X32018510Y-31138117D01*
X31892989Y-31210587D01*
X31790487Y-31313089D01*
X31718017Y-31438610D01*
X31691649Y-31537016D01*
X31680500Y-31578625D01*
X31680500Y-31723575D01*
X31702646Y-31806224D01*
X31718017Y-31863589D01*
X31790487Y-31989110D01*
X31790489Y-31989112D01*
X31790491Y-31989115D01*
X31892985Y-32091609D01*
X31892987Y-32091610D01*
X31892989Y-32091612D01*
X32018509Y-32164081D01*
X32018510Y-32164081D01*
X32018515Y-32164084D01*
X32018640Y-32164117D01*
X32018719Y-32164168D01*
X32024507Y-32166566D01*
X32024062Y-32167638D01*
X32069955Y-32197435D01*
X32091887Y-32254555D01*
X32076056Y-32313657D01*
X32028510Y-32352166D01*
X32018648Y-32355371D01*
X31949813Y-32373816D01*
X31949811Y-32373817D01*
X31824289Y-32446287D01*
X31721787Y-32548789D01*
X31649317Y-32674310D01*
X31648105Y-32678835D01*
X31611800Y-32814325D01*
X13157831Y-32814325D01*
X13224710Y-32775712D01*
X13224710Y-32775711D01*
X13224715Y-32775709D01*
X13327209Y-32673215D01*
X13333693Y-32661985D01*
X13399682Y-32547689D01*
X13399682Y-32547687D01*
X13399684Y-32547685D01*
X13437200Y-32407675D01*
X13437200Y-32262725D01*
X13399684Y-32122715D01*
X13399682Y-32122712D01*
X13399682Y-32122710D01*
X13327212Y-31997189D01*
X13327210Y-31997187D01*
X13327209Y-31997185D01*
X13224715Y-31894691D01*
X13224712Y-31894689D01*
X13224710Y-31894687D01*
X13099188Y-31822217D01*
X13099189Y-31822217D01*
X13039506Y-31806225D01*
X12959175Y-31784700D01*
X12814225Y-31784700D01*
X12768590Y-31796928D01*
X12674210Y-31822217D01*
X12548689Y-31894687D01*
X12446187Y-31997189D01*
X12373717Y-32122710D01*
X12336200Y-32262725D01*
X12336200Y-32407674D01*
X12373717Y-32547689D01*
X12446190Y-32673215D01*
X12446900Y-32674140D01*
X12447178Y-32674927D01*
X12449435Y-32678835D01*
X12448710Y-32679253D01*
X12467326Y-32731815D01*
X12449950Y-32790481D01*
X12401409Y-32827730D01*
X12381290Y-32832561D01*
X12374930Y-32833398D01*
X12234910Y-32870917D01*
X12109389Y-32943387D01*
X12006887Y-33045889D01*
X11934417Y-33171410D01*
X11896900Y-33311425D01*
X500500Y-33311425D01*
X500500Y-31806225D01*
X3450800Y-31806225D01*
X3450800Y-31951175D01*
X3463130Y-31997189D01*
X3488317Y-32091189D01*
X3560787Y-32216710D01*
X3560789Y-32216712D01*
X3560791Y-32216715D01*
X3663285Y-32319209D01*
X3663287Y-32319210D01*
X3663289Y-32319212D01*
X3788811Y-32391682D01*
X3788812Y-32391682D01*
X3788815Y-32391684D01*
X3928825Y-32429200D01*
X3928826Y-32429200D01*
X4073774Y-32429200D01*
X4073775Y-32429200D01*
X4213785Y-32391684D01*
X4213787Y-32391682D01*
X4213789Y-32391682D01*
X4339310Y-32319212D01*
X4339310Y-32319211D01*
X4339315Y-32319209D01*
X4441809Y-32216715D01*
X4456418Y-32191412D01*
X4514282Y-32091189D01*
X4514282Y-32091187D01*
X4514284Y-32091185D01*
X4551800Y-31951175D01*
X4551800Y-31806225D01*
X4517556Y-31678425D01*
X6654300Y-31678425D01*
X6654300Y-31823375D01*
X6673408Y-31894687D01*
X6691817Y-31963389D01*
X6764287Y-32088910D01*
X6764289Y-32088912D01*
X6764291Y-32088915D01*
X6866785Y-32191409D01*
X6866787Y-32191410D01*
X6866789Y-32191412D01*
X6992311Y-32263882D01*
X6992312Y-32263882D01*
X6992315Y-32263884D01*
X7132325Y-32301400D01*
X7132326Y-32301400D01*
X7277274Y-32301400D01*
X7277275Y-32301400D01*
X7417285Y-32263884D01*
X7417287Y-32263882D01*
X7417289Y-32263882D01*
X7542810Y-32191412D01*
X7542810Y-32191411D01*
X7542815Y-32191409D01*
X7645309Y-32088915D01*
X7652766Y-32076000D01*
X7717782Y-31963389D01*
X7717782Y-31963387D01*
X7717784Y-31963385D01*
X7755300Y-31823375D01*
X7755300Y-31678425D01*
X7717784Y-31538415D01*
X7717782Y-31538412D01*
X7717782Y-31538410D01*
X7645312Y-31412889D01*
X7645310Y-31412887D01*
X7645309Y-31412885D01*
X7542815Y-31310391D01*
X7542812Y-31310389D01*
X7542810Y-31310387D01*
X7417288Y-31237917D01*
X7417289Y-31237917D01*
X7387696Y-31229987D01*
X7277275Y-31200400D01*
X7132325Y-31200400D01*
X7094307Y-31210587D01*
X6992310Y-31237917D01*
X6866789Y-31310387D01*
X6764287Y-31412889D01*
X6691817Y-31538410D01*
X6675857Y-31597974D01*
X6654300Y-31678425D01*
X4517556Y-31678425D01*
X4514284Y-31666215D01*
X4514282Y-31666212D01*
X4514282Y-31666210D01*
X4441812Y-31540689D01*
X4441810Y-31540687D01*
X4441809Y-31540685D01*
X4339315Y-31438191D01*
X4339312Y-31438189D01*
X4339310Y-31438187D01*
X4213788Y-31365717D01*
X4213789Y-31365717D01*
X4109251Y-31337706D01*
X4073775Y-31328200D01*
X3928825Y-31328200D01*
X3893349Y-31337706D01*
X3788810Y-31365717D01*
X3663289Y-31438187D01*
X3560787Y-31540689D01*
X3488317Y-31666210D01*
X3472946Y-31723575D01*
X3450800Y-31806225D01*
X500500Y-31806225D01*
X500500Y-30984225D01*
X10368000Y-30984225D01*
X10368000Y-31129174D01*
X10405517Y-31269189D01*
X10477987Y-31394710D01*
X10477989Y-31394712D01*
X10477991Y-31394715D01*
X10580485Y-31497209D01*
X10580487Y-31497210D01*
X10580489Y-31497212D01*
X10706011Y-31569682D01*
X10706012Y-31569682D01*
X10706015Y-31569684D01*
X10846025Y-31607200D01*
X10846026Y-31607200D01*
X10990974Y-31607200D01*
X10990975Y-31607200D01*
X11130985Y-31569684D01*
X11130987Y-31569682D01*
X11130989Y-31569682D01*
X11256510Y-31497212D01*
X11256510Y-31497211D01*
X11256515Y-31497209D01*
X11300699Y-31453025D01*
X14241400Y-31453025D01*
X14241400Y-31597974D01*
X14278917Y-31737989D01*
X14351387Y-31863510D01*
X14351389Y-31863512D01*
X14351391Y-31863515D01*
X14453885Y-31966009D01*
X14453887Y-31966010D01*
X14453889Y-31966012D01*
X14579411Y-32038482D01*
X14579412Y-32038482D01*
X14579415Y-32038484D01*
X14719425Y-32076000D01*
X14719426Y-32076000D01*
X14864374Y-32076000D01*
X14864375Y-32076000D01*
X15004385Y-32038484D01*
X15004387Y-32038482D01*
X15004389Y-32038482D01*
X15109969Y-31977525D01*
X27712000Y-31977525D01*
X27712000Y-32122475D01*
X27737252Y-32216715D01*
X27749517Y-32262489D01*
X27821987Y-32388010D01*
X27821989Y-32388012D01*
X27821991Y-32388015D01*
X27924485Y-32490509D01*
X27924487Y-32490510D01*
X27924489Y-32490512D01*
X28050011Y-32562982D01*
X28050012Y-32562982D01*
X28050015Y-32562984D01*
X28190025Y-32600500D01*
X28190026Y-32600500D01*
X28334974Y-32600500D01*
X28334975Y-32600500D01*
X28474985Y-32562984D01*
X28474987Y-32562982D01*
X28474989Y-32562982D01*
X28600510Y-32490512D01*
X28600510Y-32490511D01*
X28600515Y-32490509D01*
X28703009Y-32388015D01*
X28721856Y-32355371D01*
X28775482Y-32262489D01*
X28775482Y-32262487D01*
X28775484Y-32262485D01*
X28813000Y-32122475D01*
X28813000Y-31977525D01*
X28775484Y-31837515D01*
X28775482Y-31837512D01*
X28775482Y-31837510D01*
X28703012Y-31711989D01*
X28703010Y-31711987D01*
X28703009Y-31711985D01*
X28600515Y-31609491D01*
X28600512Y-31609489D01*
X28600510Y-31609487D01*
X28474988Y-31537017D01*
X28474989Y-31537017D01*
X28445396Y-31529087D01*
X28334975Y-31499500D01*
X28190025Y-31499500D01*
X28128290Y-31516041D01*
X28050010Y-31537017D01*
X27924489Y-31609487D01*
X27821987Y-31711989D01*
X27749517Y-31837510D01*
X27715789Y-31963385D01*
X27712000Y-31977525D01*
X15109969Y-31977525D01*
X15129910Y-31966012D01*
X15129910Y-31966011D01*
X15129915Y-31966009D01*
X15232409Y-31863515D01*
X15255584Y-31823375D01*
X15304882Y-31737989D01*
X15304882Y-31737987D01*
X15304884Y-31737985D01*
X15342400Y-31597975D01*
X15342400Y-31453025D01*
X15304884Y-31313015D01*
X15304882Y-31313012D01*
X15304882Y-31313010D01*
X15232412Y-31187489D01*
X15232410Y-31187487D01*
X15232409Y-31187485D01*
X15129915Y-31084991D01*
X15129912Y-31084989D01*
X15129910Y-31084987D01*
X15004388Y-31012517D01*
X15004389Y-31012517D01*
X14932988Y-30993385D01*
X14864375Y-30975000D01*
X14719425Y-30975000D01*
X14657690Y-30991541D01*
X14579410Y-31012517D01*
X14453889Y-31084987D01*
X14351387Y-31187489D01*
X14278917Y-31313010D01*
X14241400Y-31453025D01*
X11300699Y-31453025D01*
X11359009Y-31394715D01*
X11431484Y-31269185D01*
X11469000Y-31129175D01*
X11469000Y-30984225D01*
X11431484Y-30844215D01*
X11431482Y-30844212D01*
X11431482Y-30844210D01*
X11359012Y-30718689D01*
X11359010Y-30718687D01*
X11359009Y-30718685D01*
X11256515Y-30616191D01*
X11256512Y-30616189D01*
X11256510Y-30616187D01*
X11130988Y-30543717D01*
X11130984Y-30543715D01*
X11129298Y-30543263D01*
X11129294Y-30543263D01*
X10990975Y-30506200D01*
X10846025Y-30506200D01*
X10784290Y-30522741D01*
X10706010Y-30543717D01*
X10580489Y-30616187D01*
X10477987Y-30718689D01*
X10405517Y-30844210D01*
X10368000Y-30984225D01*
X500500Y-30984225D01*
X500500Y-30454125D01*
X24104800Y-30454125D01*
X24104800Y-30599075D01*
X24134387Y-30709496D01*
X24142317Y-30739089D01*
X24214787Y-30864610D01*
X24214789Y-30864612D01*
X24214791Y-30864615D01*
X24317285Y-30967109D01*
X24317287Y-30967110D01*
X24317289Y-30967112D01*
X24442811Y-31039582D01*
X24442812Y-31039582D01*
X24442815Y-31039584D01*
X24582825Y-31077100D01*
X24582826Y-31077100D01*
X24727774Y-31077100D01*
X24727775Y-31077100D01*
X24867785Y-31039584D01*
X24867787Y-31039582D01*
X24867789Y-31039582D01*
X24947804Y-30993385D01*
X55399500Y-30993385D01*
X55399500Y-31166614D01*
X55426597Y-31337702D01*
X55426598Y-31337706D01*
X55480123Y-31502438D01*
X55480125Y-31502441D01*
X55528801Y-31597975D01*
X55558768Y-31656788D01*
X55660586Y-31796928D01*
X55783072Y-31919414D01*
X55923212Y-32021232D01*
X56077555Y-32099873D01*
X56077557Y-32099873D01*
X56077558Y-32099874D01*
X56077561Y-32099876D01*
X56242293Y-32153401D01*
X56242297Y-32153402D01*
X56413386Y-32180500D01*
X56413389Y-32180500D01*
X56586614Y-32180500D01*
X56757702Y-32153402D01*
X56757706Y-32153401D01*
X56922438Y-32099876D01*
X56922440Y-32099874D01*
X56922445Y-32099873D01*
X57076788Y-32021232D01*
X57216928Y-31919414D01*
X57339414Y-31796928D01*
X57441232Y-31656788D01*
X57519873Y-31502445D01*
X57519874Y-31502440D01*
X57519876Y-31502438D01*
X57573401Y-31337706D01*
X57573402Y-31337702D01*
X57600500Y-31166614D01*
X57600500Y-30993385D01*
X57573402Y-30822297D01*
X57573401Y-30822293D01*
X57519876Y-30657561D01*
X57519874Y-30657558D01*
X57519873Y-30657557D01*
X57519873Y-30657555D01*
X57441232Y-30503212D01*
X57339414Y-30363072D01*
X57216928Y-30240586D01*
X57076788Y-30138768D01*
X57076787Y-30138767D01*
X57076785Y-30138766D01*
X56922441Y-30060125D01*
X56922438Y-30060123D01*
X56757706Y-30006598D01*
X56757702Y-30006597D01*
X56586614Y-29979500D01*
X56586611Y-29979500D01*
X56413389Y-29979500D01*
X56413386Y-29979500D01*
X56242297Y-30006597D01*
X56242293Y-30006598D01*
X56077561Y-30060123D01*
X56077558Y-30060125D01*
X55923214Y-30138766D01*
X55783073Y-30240585D01*
X55660585Y-30363073D01*
X55558766Y-30503214D01*
X55480125Y-30657558D01*
X55480123Y-30657561D01*
X55426598Y-30822293D01*
X55426597Y-30822297D01*
X55399500Y-30993385D01*
X24947804Y-30993385D01*
X24993310Y-30967112D01*
X24993310Y-30967111D01*
X24993315Y-30967109D01*
X25095809Y-30864615D01*
X25120240Y-30822299D01*
X25168282Y-30739089D01*
X25168282Y-30739087D01*
X25168284Y-30739085D01*
X25205800Y-30599075D01*
X25205800Y-30454125D01*
X25168284Y-30314115D01*
X25168282Y-30314112D01*
X25168282Y-30314110D01*
X25095812Y-30188589D01*
X25095810Y-30188587D01*
X25095809Y-30188585D01*
X24993315Y-30086091D01*
X24993312Y-30086089D01*
X24993310Y-30086087D01*
X24867789Y-30013617D01*
X24838196Y-30005687D01*
X24727775Y-29976100D01*
X24582825Y-29976100D01*
X24521090Y-29992641D01*
X24442810Y-30013617D01*
X24317289Y-30086087D01*
X24214787Y-30188589D01*
X24142317Y-30314110D01*
X24108448Y-30440509D01*
X24104800Y-30454125D01*
X500500Y-30454125D01*
X500500Y-29927525D01*
X35299500Y-29927525D01*
X35299500Y-30072475D01*
X35317263Y-30138766D01*
X35337017Y-30212489D01*
X35409487Y-30338010D01*
X35409489Y-30338012D01*
X35409491Y-30338015D01*
X35511985Y-30440509D01*
X35511987Y-30440510D01*
X35511989Y-30440512D01*
X35637511Y-30512982D01*
X35637512Y-30512982D01*
X35637515Y-30512984D01*
X35777525Y-30550500D01*
X35777526Y-30550500D01*
X35922474Y-30550500D01*
X35922475Y-30550500D01*
X36062485Y-30512984D01*
X36062487Y-30512982D01*
X36062489Y-30512982D01*
X36188010Y-30440512D01*
X36188010Y-30440511D01*
X36188015Y-30440509D01*
X36290509Y-30338015D01*
X36346760Y-30240586D01*
X36362982Y-30212489D01*
X36362982Y-30212487D01*
X36362984Y-30212485D01*
X36400500Y-30072475D01*
X36400500Y-29927525D01*
X36362984Y-29787515D01*
X36362982Y-29787512D01*
X36362982Y-29787510D01*
X36290512Y-29661989D01*
X36290510Y-29661987D01*
X36290509Y-29661985D01*
X36188015Y-29559491D01*
X36188012Y-29559489D01*
X36188010Y-29559487D01*
X36137522Y-29530337D01*
X36137519Y-29530337D01*
X36062486Y-29487016D01*
X35992480Y-29468258D01*
X35922475Y-29449500D01*
X35777525Y-29449500D01*
X35715790Y-29466041D01*
X35637510Y-29487017D01*
X35511989Y-29559487D01*
X35409487Y-29661989D01*
X35337017Y-29787510D01*
X35337016Y-29787515D01*
X35299500Y-29927525D01*
X500500Y-29927525D01*
X500500Y-27843425D01*
X875200Y-27843425D01*
X875200Y-27988375D01*
X888500Y-28038010D01*
X912717Y-28128389D01*
X985187Y-28253910D01*
X985189Y-28253912D01*
X985191Y-28253915D01*
X1087685Y-28356409D01*
X1087687Y-28356410D01*
X1087689Y-28356412D01*
X1213211Y-28428882D01*
X1213212Y-28428882D01*
X1213215Y-28428884D01*
X1353225Y-28466400D01*
X1353226Y-28466400D01*
X1498174Y-28466400D01*
X1498175Y-28466400D01*
X1638185Y-28428884D01*
X1638187Y-28428882D01*
X1638189Y-28428882D01*
X1763710Y-28356412D01*
X1763710Y-28356411D01*
X1763715Y-28356409D01*
X1866209Y-28253915D01*
X1868181Y-28250500D01*
X1938682Y-28128389D01*
X1938682Y-28128387D01*
X1938684Y-28128385D01*
X1976200Y-27988375D01*
X1976200Y-27843425D01*
X1938684Y-27703415D01*
X1938682Y-27703412D01*
X1938682Y-27703410D01*
X1919702Y-27670536D01*
X1894869Y-27627525D01*
X14374500Y-27627525D01*
X14374500Y-27772475D01*
X14393511Y-27843425D01*
X14412017Y-27912489D01*
X14484487Y-28038010D01*
X14484489Y-28038012D01*
X14484491Y-28038015D01*
X14586985Y-28140509D01*
X14586987Y-28140510D01*
X14586989Y-28140512D01*
X14712511Y-28212982D01*
X14712512Y-28212982D01*
X14712515Y-28212984D01*
X14852525Y-28250500D01*
X14852526Y-28250500D01*
X14997474Y-28250500D01*
X14997475Y-28250500D01*
X15083218Y-28227525D01*
X24492000Y-28227525D01*
X24492000Y-28372475D01*
X24520222Y-28477800D01*
X24529517Y-28512489D01*
X24601987Y-28638010D01*
X24601989Y-28638012D01*
X24601991Y-28638015D01*
X24704485Y-28740509D01*
X24704487Y-28740510D01*
X24704489Y-28740512D01*
X24830011Y-28812982D01*
X24830012Y-28812982D01*
X24830015Y-28812984D01*
X24970025Y-28850500D01*
X24970026Y-28850500D01*
X25114974Y-28850500D01*
X25114975Y-28850500D01*
X25254985Y-28812984D01*
X25254987Y-28812982D01*
X25254989Y-28812982D01*
X25380510Y-28740512D01*
X25380510Y-28740511D01*
X25380515Y-28740509D01*
X25483009Y-28638015D01*
X25487342Y-28630510D01*
X25544665Y-28531225D01*
X45366100Y-28531225D01*
X45366100Y-28676175D01*
X45383339Y-28740512D01*
X45403617Y-28816189D01*
X45476087Y-28941710D01*
X45476089Y-28941712D01*
X45476091Y-28941715D01*
X45578585Y-29044209D01*
X45578587Y-29044210D01*
X45578589Y-29044212D01*
X45704111Y-29116682D01*
X45704112Y-29116682D01*
X45704115Y-29116684D01*
X45844125Y-29154200D01*
X45844126Y-29154200D01*
X45989074Y-29154200D01*
X45989075Y-29154200D01*
X46129085Y-29116684D01*
X46129087Y-29116682D01*
X46129089Y-29116682D01*
X46254610Y-29044212D01*
X46254610Y-29044211D01*
X46254615Y-29044209D01*
X46357109Y-28941715D01*
X46429584Y-28816185D01*
X46467100Y-28676175D01*
X46467100Y-28531225D01*
X46429584Y-28391215D01*
X46429582Y-28391212D01*
X46429582Y-28391210D01*
X46357112Y-28265689D01*
X46357110Y-28265687D01*
X46357109Y-28265685D01*
X46254615Y-28163191D01*
X46254612Y-28163189D01*
X46254610Y-28163187D01*
X46129088Y-28090717D01*
X46129089Y-28090717D01*
X46099496Y-28082787D01*
X45989075Y-28053200D01*
X45844125Y-28053200D01*
X45782390Y-28069741D01*
X45704110Y-28090717D01*
X45578589Y-28163187D01*
X45476087Y-28265689D01*
X45403617Y-28391210D01*
X45390468Y-28440282D01*
X45366100Y-28531225D01*
X25544665Y-28531225D01*
X25555482Y-28512489D01*
X25555482Y-28512487D01*
X25555484Y-28512485D01*
X25593000Y-28372475D01*
X25593000Y-28227525D01*
X25555484Y-28087515D01*
X25555482Y-28087512D01*
X25555482Y-28087510D01*
X25483012Y-27961989D01*
X25483010Y-27961987D01*
X25483009Y-27961985D01*
X25380515Y-27859491D01*
X25380512Y-27859489D01*
X25380510Y-27859487D01*
X25372435Y-27854825D01*
X29599700Y-27854825D01*
X29599700Y-27999775D01*
X29613057Y-28049623D01*
X29637217Y-28139789D01*
X29709687Y-28265310D01*
X29709689Y-28265312D01*
X29709691Y-28265315D01*
X29812185Y-28367809D01*
X29812187Y-28367810D01*
X29812189Y-28367812D01*
X29937711Y-28440282D01*
X29937712Y-28440282D01*
X29937715Y-28440284D01*
X30077725Y-28477800D01*
X30077726Y-28477800D01*
X30222674Y-28477800D01*
X30222675Y-28477800D01*
X30362685Y-28440284D01*
X30362687Y-28440282D01*
X30362689Y-28440282D01*
X30488210Y-28367812D01*
X30488210Y-28367811D01*
X30488215Y-28367809D01*
X30590709Y-28265315D01*
X30597294Y-28253910D01*
X30663182Y-28139789D01*
X30663182Y-28139787D01*
X30663184Y-28139785D01*
X30700700Y-27999775D01*
X30700700Y-27957749D01*
X30719607Y-27899558D01*
X30769107Y-27863594D01*
X30830293Y-27863594D01*
X30849197Y-27872011D01*
X30932115Y-27919884D01*
X31072125Y-27957400D01*
X31072126Y-27957400D01*
X31217074Y-27957400D01*
X31217075Y-27957400D01*
X31357085Y-27919884D01*
X31357087Y-27919882D01*
X31357089Y-27919882D01*
X31480163Y-27848825D01*
X34357200Y-27848825D01*
X34357200Y-27993775D01*
X34369053Y-28038010D01*
X34394717Y-28133789D01*
X34467187Y-28259310D01*
X34467189Y-28259312D01*
X34467191Y-28259315D01*
X34569685Y-28361809D01*
X34569687Y-28361810D01*
X34569689Y-28361812D01*
X34695211Y-28434282D01*
X34695212Y-28434282D01*
X34695215Y-28434284D01*
X34835225Y-28471800D01*
X34835226Y-28471800D01*
X34980174Y-28471800D01*
X34980175Y-28471800D01*
X35120185Y-28434284D01*
X35245715Y-28361809D01*
X35348209Y-28259315D01*
X35374958Y-28212984D01*
X35420682Y-28133789D01*
X35420682Y-28133787D01*
X35420684Y-28133785D01*
X35458200Y-27993775D01*
X35458200Y-27848825D01*
X35420684Y-27708815D01*
X35420682Y-27708812D01*
X35420682Y-27708810D01*
X35348212Y-27583289D01*
X35348210Y-27583287D01*
X35348209Y-27583285D01*
X35245715Y-27480791D01*
X35243429Y-27479471D01*
X35243427Y-27479469D01*
X35120188Y-27408317D01*
X35120189Y-27408317D01*
X35089989Y-27400225D01*
X54622900Y-27400225D01*
X54622900Y-27545175D01*
X54636966Y-27597668D01*
X54660417Y-27685189D01*
X54732887Y-27810710D01*
X54732889Y-27810712D01*
X54732891Y-27810715D01*
X54835385Y-27913209D01*
X54835387Y-27913210D01*
X54835389Y-27913212D01*
X54960911Y-27985682D01*
X54960912Y-27985682D01*
X54960915Y-27985684D01*
X55100925Y-28023200D01*
X55100926Y-28023200D01*
X55245876Y-28023200D01*
X55245876Y-28023199D01*
X55290965Y-28011118D01*
X55302912Y-28007917D01*
X55364014Y-28011118D01*
X55411564Y-28049623D01*
X55427400Y-28108724D01*
X55422691Y-28134135D01*
X55378316Y-28270710D01*
X55350000Y-28449489D01*
X55350000Y-28630510D01*
X55378316Y-28809289D01*
X55434250Y-28981440D01*
X55516430Y-29142728D01*
X55557668Y-29199488D01*
X56031980Y-28725176D01*
X56034075Y-28732993D01*
X56099901Y-28847007D01*
X56192993Y-28940099D01*
X56307007Y-29005925D01*
X56314821Y-29008019D01*
X55840511Y-29482330D01*
X55897275Y-29523571D01*
X56058559Y-29605749D01*
X56230710Y-29661683D01*
X56409490Y-29690000D01*
X56590510Y-29690000D01*
X56769289Y-29661683D01*
X56941440Y-29605749D01*
X57102728Y-29523569D01*
X57159487Y-29482330D01*
X56685176Y-29008019D01*
X56692993Y-29005925D01*
X56807007Y-28940099D01*
X56900099Y-28847007D01*
X56965925Y-28732993D01*
X56968019Y-28725176D01*
X57442330Y-29199487D01*
X57483569Y-29142728D01*
X57565749Y-28981440D01*
X57621683Y-28809289D01*
X57650000Y-28630510D01*
X57650000Y-28449489D01*
X57621683Y-28270710D01*
X57565749Y-28098559D01*
X57483571Y-27937275D01*
X57442330Y-27880511D01*
X56968019Y-28354821D01*
X56965925Y-28347007D01*
X56900099Y-28232993D01*
X56807007Y-28139901D01*
X56692993Y-28074075D01*
X56685176Y-28071980D01*
X57159489Y-27597668D01*
X57102728Y-27556430D01*
X56941440Y-27474250D01*
X56769289Y-27418316D01*
X56590510Y-27390000D01*
X56409490Y-27390000D01*
X56230710Y-27418316D01*
X56058559Y-27474250D01*
X55897271Y-27556430D01*
X55881090Y-27568187D01*
X55822899Y-27587093D01*
X55764708Y-27568185D01*
X55728745Y-27518684D01*
X55723900Y-27488093D01*
X55723900Y-27400225D01*
X55717529Y-27376450D01*
X55686384Y-27260215D01*
X55679909Y-27249000D01*
X55667188Y-27189151D01*
X55692075Y-27133256D01*
X55745063Y-27102663D01*
X55765646Y-27100500D01*
X57374673Y-27100500D01*
X57374674Y-27100500D01*
X57447740Y-27085966D01*
X57530601Y-27030601D01*
X57585966Y-26947740D01*
X57600500Y-26874674D01*
X57600500Y-25125326D01*
X57585966Y-25052260D01*
X57553643Y-25003884D01*
X57530602Y-24969400D01*
X57530599Y-24969397D01*
X57447742Y-24914035D01*
X57447740Y-24914034D01*
X57447737Y-24914033D01*
X57447736Y-24914033D01*
X57374684Y-24899501D01*
X57374674Y-24899500D01*
X55625326Y-24899500D01*
X55625325Y-24899500D01*
X55625315Y-24899501D01*
X55552263Y-24914033D01*
X55552257Y-24914035D01*
X55469400Y-24969397D01*
X55469397Y-24969400D01*
X55414035Y-25052257D01*
X55414033Y-25052263D01*
X55399501Y-25125315D01*
X55399500Y-25125327D01*
X55399500Y-26834344D01*
X55380593Y-26892535D01*
X55331093Y-26928499D01*
X55274878Y-26929971D01*
X55245875Y-26922200D01*
X55100925Y-26922200D01*
X55071924Y-26929971D01*
X54960910Y-26959717D01*
X54835389Y-27032187D01*
X54732887Y-27134689D01*
X54660417Y-27260210D01*
X54660416Y-27260215D01*
X54622900Y-27400225D01*
X35089989Y-27400225D01*
X34980175Y-27370800D01*
X34835225Y-27370800D01*
X34773490Y-27387341D01*
X34695210Y-27408317D01*
X34569689Y-27480787D01*
X34467187Y-27583289D01*
X34394717Y-27708810D01*
X34367413Y-27810710D01*
X34357200Y-27848825D01*
X31480163Y-27848825D01*
X31482610Y-27847412D01*
X31482610Y-27847411D01*
X31482615Y-27847409D01*
X31585109Y-27744915D01*
X31602490Y-27714810D01*
X31657582Y-27619389D01*
X31657582Y-27619387D01*
X31657584Y-27619385D01*
X31695100Y-27479375D01*
X31695100Y-27334425D01*
X31657584Y-27194415D01*
X31657582Y-27194412D01*
X31657582Y-27194410D01*
X31585112Y-27068889D01*
X31585110Y-27068887D01*
X31585109Y-27068885D01*
X31482615Y-26966391D01*
X31482612Y-26966389D01*
X31482610Y-26966387D01*
X31357088Y-26893917D01*
X31357089Y-26893917D01*
X31285311Y-26874684D01*
X31217075Y-26856400D01*
X31072125Y-26856400D01*
X31010390Y-26872941D01*
X30932110Y-26893917D01*
X30806589Y-26966387D01*
X30704087Y-27068889D01*
X30631617Y-27194410D01*
X30594100Y-27334425D01*
X30594100Y-27376450D01*
X30575193Y-27434641D01*
X30525693Y-27470605D01*
X30464507Y-27470605D01*
X30445600Y-27462187D01*
X30362686Y-27414316D01*
X30292680Y-27395558D01*
X30222675Y-27376800D01*
X30077725Y-27376800D01*
X30015990Y-27393341D01*
X29937710Y-27414317D01*
X29812189Y-27486787D01*
X29709687Y-27589289D01*
X29637217Y-27714810D01*
X29617869Y-27787017D01*
X29599700Y-27854825D01*
X25372435Y-27854825D01*
X25254988Y-27787017D01*
X25254989Y-27787017D01*
X25200184Y-27772332D01*
X25114975Y-27749500D01*
X24970025Y-27749500D01*
X24908290Y-27766041D01*
X24830010Y-27787017D01*
X24704489Y-27859487D01*
X24601987Y-27961989D01*
X24529517Y-28087510D01*
X24509238Y-28163191D01*
X24492000Y-28227525D01*
X15083218Y-28227525D01*
X15137485Y-28212984D01*
X15137487Y-28212982D01*
X15137489Y-28212982D01*
X15263008Y-28140513D01*
X15263007Y-28140513D01*
X15263015Y-28140509D01*
X15365509Y-28038015D01*
X15365512Y-28038010D01*
X15437982Y-27912489D01*
X15437982Y-27912487D01*
X15437984Y-27912485D01*
X15475500Y-27772475D01*
X15475500Y-27627525D01*
X15437984Y-27487515D01*
X15437982Y-27487512D01*
X15437982Y-27487510D01*
X15365512Y-27361989D01*
X15365510Y-27361987D01*
X15365509Y-27361985D01*
X15263015Y-27259491D01*
X15263012Y-27259489D01*
X15263010Y-27259487D01*
X15137488Y-27187017D01*
X15137489Y-27187017D01*
X15107896Y-27179087D01*
X14997475Y-27149500D01*
X14852525Y-27149500D01*
X14790790Y-27166041D01*
X14712510Y-27187017D01*
X14586989Y-27259487D01*
X14484487Y-27361989D01*
X14412017Y-27487510D01*
X14412016Y-27487515D01*
X14374500Y-27627525D01*
X1894869Y-27627525D01*
X1866212Y-27577889D01*
X1866210Y-27577887D01*
X1866209Y-27577885D01*
X1763715Y-27475391D01*
X1763712Y-27475389D01*
X1763710Y-27475387D01*
X1638188Y-27402917D01*
X1638189Y-27402917D01*
X1589982Y-27390000D01*
X1498175Y-27365400D01*
X1353225Y-27365400D01*
X1310680Y-27376800D01*
X1213210Y-27402917D01*
X1087689Y-27475387D01*
X985187Y-27577889D01*
X912717Y-27703410D01*
X894211Y-27772474D01*
X875200Y-27843425D01*
X500500Y-27843425D01*
X500500Y-26020125D01*
X47063500Y-26020125D01*
X47063500Y-26165074D01*
X47101017Y-26305089D01*
X47173487Y-26430610D01*
X47173489Y-26430612D01*
X47173491Y-26430615D01*
X47275985Y-26533109D01*
X47275987Y-26533110D01*
X47275989Y-26533112D01*
X47401511Y-26605582D01*
X47401512Y-26605582D01*
X47401515Y-26605584D01*
X47541525Y-26643100D01*
X47541526Y-26643100D01*
X47686474Y-26643100D01*
X47686475Y-26643100D01*
X47826485Y-26605584D01*
X47826487Y-26605582D01*
X47826489Y-26605582D01*
X47952010Y-26533112D01*
X47952010Y-26533111D01*
X47952015Y-26533109D01*
X48054509Y-26430615D01*
X48126984Y-26305085D01*
X48164500Y-26165075D01*
X48164500Y-26020125D01*
X48126984Y-25880115D01*
X48126982Y-25880112D01*
X48126982Y-25880110D01*
X48054512Y-25754589D01*
X48054510Y-25754587D01*
X48054509Y-25754585D01*
X47952015Y-25652091D01*
X47952012Y-25652089D01*
X47952010Y-25652087D01*
X47826488Y-25579617D01*
X47826489Y-25579617D01*
X47796896Y-25571687D01*
X47686475Y-25542100D01*
X47541525Y-25542100D01*
X47479790Y-25558641D01*
X47401510Y-25579617D01*
X47275989Y-25652087D01*
X47173487Y-25754589D01*
X47101017Y-25880110D01*
X47063500Y-26020125D01*
X500500Y-26020125D01*
X500500Y-24369025D01*
X8716700Y-24369025D01*
X8716700Y-24513975D01*
X8743552Y-24614188D01*
X8754217Y-24653989D01*
X8826687Y-24779510D01*
X8826689Y-24779512D01*
X8826691Y-24779515D01*
X8929185Y-24882009D01*
X8929187Y-24882010D01*
X8929189Y-24882012D01*
X9054711Y-24954482D01*
X9054712Y-24954482D01*
X9054715Y-24954484D01*
X9194725Y-24992000D01*
X9194726Y-24992000D01*
X9339674Y-24992000D01*
X9339675Y-24992000D01*
X9479685Y-24954484D01*
X9479687Y-24954482D01*
X9479689Y-24954482D01*
X9605210Y-24882012D01*
X9605210Y-24882011D01*
X9605215Y-24882009D01*
X9707709Y-24779515D01*
X9730688Y-24739715D01*
X9780182Y-24653989D01*
X9780182Y-24653987D01*
X9780184Y-24653985D01*
X9817700Y-24513975D01*
X9817700Y-24369025D01*
X9780184Y-24229015D01*
X9780182Y-24229012D01*
X9780182Y-24229010D01*
X9707712Y-24103489D01*
X9707710Y-24103487D01*
X9707709Y-24103485D01*
X9605215Y-24000991D01*
X9605212Y-24000989D01*
X9605210Y-24000987D01*
X9479688Y-23928517D01*
X9479689Y-23928517D01*
X9402686Y-23907884D01*
X9339675Y-23891000D01*
X9194725Y-23891000D01*
X9132990Y-23907541D01*
X9054710Y-23928517D01*
X8929189Y-24000987D01*
X8826687Y-24103489D01*
X8754217Y-24229010D01*
X8722237Y-24348360D01*
X8716700Y-24369025D01*
X500500Y-24369025D01*
X500500Y-23322425D01*
X22584900Y-23322425D01*
X22584900Y-23467375D01*
X22614487Y-23577796D01*
X22622417Y-23607389D01*
X22694887Y-23732910D01*
X22694889Y-23732912D01*
X22694891Y-23732915D01*
X22797385Y-23835409D01*
X22797387Y-23835410D01*
X22797389Y-23835412D01*
X22867914Y-23876130D01*
X22908855Y-23921599D01*
X22915251Y-23982450D01*
X22884658Y-24035438D01*
X22867916Y-24047602D01*
X22863086Y-24050390D01*
X22760587Y-24152889D01*
X22688117Y-24278410D01*
X22670940Y-24342515D01*
X22650600Y-24418425D01*
X22650600Y-24563375D01*
X22667776Y-24627475D01*
X22688117Y-24703389D01*
X22760587Y-24828909D01*
X22760588Y-24828911D01*
X22760589Y-24828912D01*
X22760591Y-24828915D01*
X22863085Y-24931409D01*
X22863087Y-24931410D01*
X22863089Y-24931412D01*
X22988611Y-25003882D01*
X22988612Y-25003882D01*
X22988615Y-25003884D01*
X23128625Y-25041400D01*
X23128626Y-25041400D01*
X23273574Y-25041400D01*
X23273575Y-25041400D01*
X23413585Y-25003884D01*
X23413587Y-25003882D01*
X23413589Y-25003882D01*
X23539110Y-24931412D01*
X23539110Y-24931411D01*
X23539115Y-24931409D01*
X23641609Y-24828915D01*
X23641611Y-24828910D01*
X23641613Y-24828909D01*
X23714082Y-24703389D01*
X23714082Y-24703387D01*
X23714084Y-24703385D01*
X23751600Y-24563375D01*
X23751600Y-24418425D01*
X23714084Y-24278415D01*
X23714082Y-24278412D01*
X23714082Y-24278410D01*
X23641612Y-24152889D01*
X23641610Y-24152887D01*
X23641609Y-24152885D01*
X23539115Y-24050391D01*
X23483576Y-24018325D01*
X29605100Y-24018325D01*
X29605100Y-24163275D01*
X29612051Y-24189215D01*
X29642617Y-24303289D01*
X29715087Y-24428810D01*
X29715089Y-24428812D01*
X29715091Y-24428815D01*
X29817585Y-24531309D01*
X29817587Y-24531310D01*
X29817589Y-24531312D01*
X29943111Y-24603782D01*
X29943112Y-24603782D01*
X29943115Y-24603784D01*
X30083125Y-24641300D01*
X30083126Y-24641300D01*
X30228074Y-24641300D01*
X30228075Y-24641300D01*
X30368085Y-24603784D01*
X30387003Y-24592861D01*
X30446849Y-24580138D01*
X30502746Y-24605022D01*
X30532131Y-24652972D01*
X30562815Y-24767484D01*
X30562817Y-24767488D01*
X30635287Y-24893010D01*
X30635289Y-24893012D01*
X30635291Y-24893015D01*
X30737785Y-24995509D01*
X30737787Y-24995510D01*
X30737789Y-24995512D01*
X30863311Y-25067982D01*
X30863312Y-25067982D01*
X30863315Y-25067984D01*
X31003325Y-25105500D01*
X31003326Y-25105500D01*
X31148274Y-25105500D01*
X31148275Y-25105500D01*
X31288285Y-25067984D01*
X31288287Y-25067982D01*
X31288289Y-25067982D01*
X31413810Y-24995512D01*
X31413810Y-24995511D01*
X31413815Y-24995509D01*
X31516309Y-24893015D01*
X31553321Y-24828909D01*
X31588782Y-24767489D01*
X31588782Y-24767487D01*
X31588784Y-24767485D01*
X31626300Y-24627475D01*
X31626300Y-24482525D01*
X31588784Y-24342515D01*
X31581111Y-24329225D01*
X33235400Y-24329225D01*
X33235400Y-24474175D01*
X33242219Y-24499624D01*
X33272917Y-24614189D01*
X33345387Y-24739710D01*
X33345389Y-24739712D01*
X33345391Y-24739715D01*
X33447885Y-24842209D01*
X33447887Y-24842210D01*
X33447889Y-24842212D01*
X33573411Y-24914682D01*
X33573412Y-24914682D01*
X33573415Y-24914684D01*
X33713425Y-24952200D01*
X33713426Y-24952200D01*
X33858374Y-24952200D01*
X33858375Y-24952200D01*
X33998385Y-24914684D01*
X33998387Y-24914682D01*
X33998389Y-24914682D01*
X34123910Y-24842212D01*
X34123910Y-24842211D01*
X34123915Y-24842209D01*
X34226409Y-24739715D01*
X34247382Y-24703389D01*
X34262315Y-24677525D01*
X40787000Y-24677525D01*
X40787000Y-24822474D01*
X40824517Y-24962489D01*
X40896987Y-25088010D01*
X40896989Y-25088012D01*
X40896991Y-25088015D01*
X40999485Y-25190509D01*
X40999487Y-25190510D01*
X40999489Y-25190512D01*
X41125011Y-25262982D01*
X41125012Y-25262982D01*
X41125015Y-25262984D01*
X41265025Y-25300500D01*
X41265026Y-25300500D01*
X41409974Y-25300500D01*
X41409975Y-25300500D01*
X41549985Y-25262984D01*
X41549987Y-25262982D01*
X41549989Y-25262982D01*
X41675510Y-25190512D01*
X41675510Y-25190511D01*
X41675515Y-25190509D01*
X41778009Y-25088015D01*
X41789575Y-25067982D01*
X41850482Y-24962489D01*
X41850482Y-24962487D01*
X41850484Y-24962485D01*
X41888000Y-24822475D01*
X41888000Y-24677525D01*
X41850484Y-24537515D01*
X41850482Y-24537512D01*
X41850482Y-24537510D01*
X41778012Y-24411989D01*
X41778010Y-24411987D01*
X41778009Y-24411985D01*
X41675515Y-24309491D01*
X41675512Y-24309489D01*
X41675510Y-24309487D01*
X41549988Y-24237017D01*
X41549989Y-24237017D01*
X41475229Y-24216985D01*
X41409975Y-24199500D01*
X41265025Y-24199500D01*
X41203290Y-24216041D01*
X41125010Y-24237017D01*
X40999489Y-24309487D01*
X40896987Y-24411989D01*
X40824517Y-24537510D01*
X40787000Y-24677525D01*
X34262315Y-24677525D01*
X34294641Y-24621536D01*
X34298060Y-24615611D01*
X34298884Y-24614185D01*
X34336400Y-24474175D01*
X34336400Y-24329225D01*
X34298884Y-24189215D01*
X34298882Y-24189212D01*
X34298882Y-24189210D01*
X34226412Y-24063689D01*
X34226410Y-24063687D01*
X34226409Y-24063685D01*
X34123915Y-23961191D01*
X34123912Y-23961189D01*
X34123910Y-23961187D01*
X33998388Y-23888717D01*
X33998389Y-23888717D01*
X33939057Y-23872819D01*
X33858375Y-23851200D01*
X33713425Y-23851200D01*
X33651690Y-23867741D01*
X33573410Y-23888717D01*
X33447889Y-23961187D01*
X33345387Y-24063689D01*
X33272917Y-24189210D01*
X33260107Y-24237017D01*
X33235400Y-24329225D01*
X31581111Y-24329225D01*
X31569718Y-24309491D01*
X31516312Y-24216989D01*
X31516310Y-24216987D01*
X31516309Y-24216985D01*
X31413815Y-24114491D01*
X31413812Y-24114489D01*
X31413810Y-24114487D01*
X31288288Y-24042017D01*
X31288289Y-24042017D01*
X31258696Y-24034087D01*
X31148275Y-24004500D01*
X31003325Y-24004500D01*
X30956655Y-24017005D01*
X30863313Y-24042016D01*
X30844394Y-24052940D01*
X30784545Y-24065661D01*
X30728650Y-24040774D01*
X30699267Y-23992826D01*
X30668584Y-23878315D01*
X30668582Y-23878312D01*
X30668582Y-23878310D01*
X30596112Y-23752789D01*
X30596110Y-23752787D01*
X30596109Y-23752785D01*
X30493615Y-23650291D01*
X30493612Y-23650289D01*
X30493610Y-23650287D01*
X30368088Y-23577817D01*
X30368089Y-23577817D01*
X30338496Y-23569887D01*
X30228075Y-23540300D01*
X30083125Y-23540300D01*
X30021390Y-23556841D01*
X29943110Y-23577817D01*
X29817589Y-23650287D01*
X29715087Y-23752789D01*
X29642617Y-23878310D01*
X29609746Y-24000987D01*
X29605100Y-24018325D01*
X23483576Y-24018325D01*
X23464351Y-24007225D01*
X23460362Y-24004363D01*
X23444995Y-23983470D01*
X23427644Y-23964199D01*
X23427114Y-23959158D01*
X23424110Y-23955074D01*
X23423959Y-23929136D01*
X23421249Y-23903349D01*
X23423783Y-23898959D01*
X23423754Y-23893889D01*
X23438875Y-23872819D01*
X23451842Y-23850361D01*
X23458426Y-23845577D01*
X23459429Y-23844181D01*
X23461120Y-23843620D01*
X23468586Y-23838196D01*
X23473415Y-23835409D01*
X23575909Y-23732915D01*
X23623612Y-23650291D01*
X23648382Y-23607389D01*
X23648382Y-23607387D01*
X23648384Y-23607385D01*
X23685900Y-23467375D01*
X23685900Y-23322425D01*
X23648384Y-23182415D01*
X23648382Y-23182412D01*
X23648382Y-23182410D01*
X23575912Y-23056889D01*
X23575910Y-23056887D01*
X23575909Y-23056885D01*
X23473415Y-22954391D01*
X23473412Y-22954389D01*
X23473410Y-22954387D01*
X23347888Y-22881917D01*
X23347889Y-22881917D01*
X23318296Y-22873987D01*
X23207875Y-22844400D01*
X23062925Y-22844400D01*
X23001190Y-22860941D01*
X22922910Y-22881917D01*
X22797389Y-22954387D01*
X22694887Y-23056889D01*
X22622417Y-23182410D01*
X22616896Y-23203015D01*
X22584900Y-23322425D01*
X500500Y-23322425D01*
X500500Y-22593225D01*
X15638600Y-22593225D01*
X15638600Y-22738175D01*
X15653163Y-22792525D01*
X15676117Y-22878189D01*
X15748587Y-23003710D01*
X15748589Y-23003712D01*
X15748591Y-23003715D01*
X15851085Y-23106209D01*
X15851087Y-23106210D01*
X15851089Y-23106212D01*
X15976611Y-23178682D01*
X15976612Y-23178682D01*
X15976615Y-23178684D01*
X16116625Y-23216200D01*
X16116626Y-23216200D01*
X16261574Y-23216200D01*
X16261575Y-23216200D01*
X16401585Y-23178684D01*
X16401587Y-23178682D01*
X16401589Y-23178682D01*
X16527110Y-23106212D01*
X16527110Y-23106211D01*
X16527115Y-23106209D01*
X16629609Y-23003715D01*
X16629612Y-23003710D01*
X16702082Y-22878189D01*
X16702082Y-22878187D01*
X16702084Y-22878185D01*
X16739600Y-22738175D01*
X16739600Y-22593225D01*
X16702084Y-22453215D01*
X16702082Y-22453212D01*
X16702082Y-22453210D01*
X16629612Y-22327689D01*
X16629610Y-22327687D01*
X16629609Y-22327685D01*
X16527115Y-22225191D01*
X16512533Y-22216772D01*
X16512532Y-22216770D01*
X16401588Y-22152717D01*
X16401589Y-22152717D01*
X16344892Y-22137525D01*
X17087000Y-22137525D01*
X17087000Y-22282475D01*
X17116587Y-22392896D01*
X17124517Y-22422489D01*
X17196987Y-22548010D01*
X17196989Y-22548012D01*
X17196991Y-22548015D01*
X17299485Y-22650509D01*
X17299487Y-22650510D01*
X17299489Y-22650512D01*
X17425011Y-22722982D01*
X17425012Y-22722982D01*
X17425015Y-22722984D01*
X17565025Y-22760500D01*
X17565026Y-22760500D01*
X17709974Y-22760500D01*
X17709975Y-22760500D01*
X17849985Y-22722984D01*
X17849987Y-22722982D01*
X17849989Y-22722982D01*
X17975510Y-22650512D01*
X17975510Y-22650511D01*
X17975515Y-22650509D01*
X18078009Y-22548015D01*
X18106120Y-22499325D01*
X35249500Y-22499325D01*
X35249500Y-22644275D01*
X35251708Y-22652515D01*
X35287017Y-22784289D01*
X35359487Y-22909810D01*
X35359489Y-22909812D01*
X35359491Y-22909815D01*
X35461985Y-23012309D01*
X35461987Y-23012310D01*
X35461989Y-23012312D01*
X35587511Y-23084782D01*
X35587512Y-23084782D01*
X35587515Y-23084784D01*
X35727525Y-23122300D01*
X35727526Y-23122300D01*
X35872474Y-23122300D01*
X35872475Y-23122300D01*
X36012485Y-23084784D01*
X36012487Y-23084782D01*
X36012489Y-23084782D01*
X36138010Y-23012312D01*
X36138010Y-23012311D01*
X36138015Y-23012309D01*
X36240509Y-22909815D01*
X36258771Y-22878185D01*
X36308227Y-22792525D01*
X40520600Y-22792525D01*
X40520600Y-22937474D01*
X40558117Y-23077489D01*
X40630587Y-23203010D01*
X40630589Y-23203012D01*
X40630591Y-23203015D01*
X40733085Y-23305509D01*
X40733087Y-23305510D01*
X40733089Y-23305512D01*
X40858611Y-23377982D01*
X40858612Y-23377982D01*
X40858615Y-23377984D01*
X40998625Y-23415500D01*
X40998626Y-23415500D01*
X41143574Y-23415500D01*
X41143575Y-23415500D01*
X41283585Y-23377984D01*
X41283587Y-23377982D01*
X41283589Y-23377982D01*
X41409110Y-23305512D01*
X41409110Y-23305511D01*
X41409115Y-23305509D01*
X41511609Y-23203015D01*
X41511612Y-23203010D01*
X41584082Y-23077489D01*
X41584082Y-23077487D01*
X41584084Y-23077485D01*
X41621600Y-22937475D01*
X41621600Y-22792525D01*
X41584084Y-22652515D01*
X41511609Y-22526985D01*
X41409115Y-22424491D01*
X41409112Y-22424489D01*
X41409110Y-22424487D01*
X41283588Y-22352017D01*
X41283589Y-22352017D01*
X41192796Y-22327689D01*
X41143575Y-22314500D01*
X40998625Y-22314500D01*
X40949404Y-22327689D01*
X40858610Y-22352017D01*
X40733089Y-22424487D01*
X40630587Y-22526989D01*
X40558117Y-22652510D01*
X40520600Y-22792525D01*
X36308227Y-22792525D01*
X36312982Y-22784289D01*
X36312982Y-22784287D01*
X36312984Y-22784285D01*
X36350500Y-22644275D01*
X36350500Y-22499325D01*
X36312984Y-22359315D01*
X36312982Y-22359312D01*
X36312982Y-22359310D01*
X36240512Y-22233789D01*
X36240510Y-22233787D01*
X36240509Y-22233785D01*
X36138015Y-22131291D01*
X36138012Y-22131289D01*
X36138010Y-22131287D01*
X36012488Y-22058817D01*
X36012489Y-22058817D01*
X35982896Y-22050887D01*
X35872475Y-22021300D01*
X35727525Y-22021300D01*
X35665790Y-22037841D01*
X35587510Y-22058817D01*
X35461989Y-22131287D01*
X35359487Y-22233789D01*
X35287017Y-22359310D01*
X35287016Y-22359315D01*
X35249500Y-22499325D01*
X18106120Y-22499325D01*
X18150484Y-22422485D01*
X18188000Y-22282475D01*
X18188000Y-22137525D01*
X18150484Y-21997515D01*
X18150482Y-21997512D01*
X18150482Y-21997510D01*
X18078012Y-21871989D01*
X18078010Y-21871987D01*
X18078009Y-21871985D01*
X17975515Y-21769491D01*
X17975512Y-21769489D01*
X17975510Y-21769487D01*
X17849988Y-21697017D01*
X17849989Y-21697017D01*
X17808224Y-21685826D01*
X17709975Y-21659500D01*
X17565025Y-21659500D01*
X17503290Y-21676041D01*
X17425010Y-21697017D01*
X17299489Y-21769487D01*
X17196987Y-21871989D01*
X17124517Y-21997510D01*
X17108090Y-22058816D01*
X17087000Y-22137525D01*
X16344892Y-22137525D01*
X16261575Y-22115200D01*
X16116625Y-22115200D01*
X16056588Y-22131287D01*
X15976610Y-22152717D01*
X15851089Y-22225187D01*
X15748587Y-22327689D01*
X15676117Y-22453210D01*
X15656348Y-22526989D01*
X15638600Y-22593225D01*
X500500Y-22593225D01*
X500500Y-21529489D01*
X55350000Y-21529489D01*
X55350000Y-21710510D01*
X55378316Y-21889289D01*
X55434250Y-22061440D01*
X55516430Y-22222728D01*
X55557667Y-22279488D01*
X56031980Y-21805174D01*
X56034075Y-21812993D01*
X56099901Y-21927007D01*
X56192993Y-22020099D01*
X56307007Y-22085925D01*
X56314821Y-22088019D01*
X55840511Y-22562330D01*
X55897275Y-22603571D01*
X56058559Y-22685749D01*
X56230710Y-22741683D01*
X56409490Y-22770000D01*
X56590510Y-22770000D01*
X56769289Y-22741683D01*
X56941440Y-22685749D01*
X57102728Y-22603569D01*
X57159487Y-22562330D01*
X56685176Y-22088019D01*
X56692993Y-22085925D01*
X56807007Y-22020099D01*
X56900099Y-21927007D01*
X56965925Y-21812993D01*
X56968019Y-21805176D01*
X57442330Y-22279487D01*
X57483569Y-22222728D01*
X57565749Y-22061440D01*
X57621683Y-21889289D01*
X57650000Y-21710510D01*
X57650000Y-21529489D01*
X57621683Y-21350710D01*
X57565749Y-21178559D01*
X57483571Y-21017275D01*
X57442330Y-20960511D01*
X56968019Y-21434821D01*
X56965925Y-21427007D01*
X56900099Y-21312993D01*
X56807007Y-21219901D01*
X56692993Y-21154075D01*
X56685174Y-21151980D01*
X57159488Y-20677667D01*
X57102728Y-20636430D01*
X56941440Y-20554250D01*
X56769289Y-20498316D01*
X56590510Y-20470000D01*
X56409490Y-20470000D01*
X56230710Y-20498316D01*
X56058559Y-20554250D01*
X55897267Y-20636432D01*
X55840510Y-20677667D01*
X56314823Y-21151980D01*
X56307007Y-21154075D01*
X56192993Y-21219901D01*
X56099901Y-21312993D01*
X56034075Y-21427007D01*
X56031980Y-21434823D01*
X55557667Y-20960510D01*
X55516432Y-21017267D01*
X55434250Y-21178559D01*
X55378316Y-21350710D01*
X55350000Y-21529489D01*
X500500Y-21529489D01*
X500500Y-19344725D01*
X22135300Y-19344725D01*
X22135300Y-19489674D01*
X22172817Y-19629689D01*
X22245287Y-19755210D01*
X22245289Y-19755212D01*
X22245291Y-19755215D01*
X22347785Y-19857709D01*
X22359622Y-19864543D01*
X22400563Y-19910013D01*
X22406957Y-19970864D01*
X22395858Y-19999778D01*
X22371417Y-20042111D01*
X22333900Y-20182125D01*
X22333900Y-20327074D01*
X22371417Y-20467089D01*
X22443887Y-20592610D01*
X22443889Y-20592612D01*
X22443891Y-20592615D01*
X22546385Y-20695109D01*
X22546387Y-20695110D01*
X22546389Y-20695112D01*
X22671911Y-20767582D01*
X22671912Y-20767582D01*
X22671915Y-20767584D01*
X22811925Y-20805100D01*
X22811926Y-20805100D01*
X22956874Y-20805100D01*
X22956875Y-20805100D01*
X23096885Y-20767584D01*
X23096887Y-20767582D01*
X23096889Y-20767582D01*
X23222410Y-20695112D01*
X23222410Y-20695111D01*
X23222415Y-20695109D01*
X23324909Y-20592615D01*
X23347059Y-20554250D01*
X23397382Y-20467089D01*
X23397382Y-20467087D01*
X23397384Y-20467085D01*
X23434900Y-20327075D01*
X23434900Y-20182125D01*
X23428737Y-20159125D01*
X36033900Y-20159125D01*
X36033900Y-20304074D01*
X36071417Y-20444089D01*
X36143887Y-20569610D01*
X36143889Y-20569612D01*
X36143891Y-20569615D01*
X36246385Y-20672109D01*
X36246387Y-20672110D01*
X36246389Y-20672112D01*
X36371911Y-20744582D01*
X36371912Y-20744582D01*
X36371915Y-20744584D01*
X36511925Y-20782100D01*
X36511926Y-20782100D01*
X36656874Y-20782100D01*
X36656875Y-20782100D01*
X36796885Y-20744584D01*
X36796887Y-20744582D01*
X36796889Y-20744582D01*
X36922410Y-20672112D01*
X36922410Y-20672111D01*
X36922415Y-20672109D01*
X37024909Y-20569615D01*
X37097384Y-20444085D01*
X37134900Y-20304075D01*
X37134900Y-20253025D01*
X40830300Y-20253025D01*
X40830300Y-20397975D01*
X40848818Y-20467085D01*
X40867817Y-20537989D01*
X40940287Y-20663510D01*
X40940289Y-20663512D01*
X40940291Y-20663515D01*
X41042785Y-20766009D01*
X41042787Y-20766010D01*
X41042789Y-20766012D01*
X41168311Y-20838482D01*
X41168312Y-20838482D01*
X41168315Y-20838484D01*
X41308325Y-20876000D01*
X41308326Y-20876000D01*
X41453274Y-20876000D01*
X41453275Y-20876000D01*
X41593285Y-20838484D01*
X41593287Y-20838482D01*
X41593289Y-20838482D01*
X41718810Y-20766012D01*
X41718810Y-20766011D01*
X41718815Y-20766009D01*
X41821309Y-20663515D01*
X41862246Y-20592610D01*
X41893782Y-20537989D01*
X41893782Y-20537987D01*
X41893784Y-20537985D01*
X41931300Y-20397975D01*
X41931300Y-20253025D01*
X41893784Y-20113015D01*
X41893782Y-20113012D01*
X41893782Y-20113010D01*
X41821312Y-19987489D01*
X41821310Y-19987487D01*
X41821309Y-19987485D01*
X41718815Y-19884991D01*
X41718812Y-19884989D01*
X41718810Y-19884987D01*
X41593288Y-19812517D01*
X41593289Y-19812517D01*
X41535103Y-19796926D01*
X41453275Y-19775000D01*
X41308325Y-19775000D01*
X41248288Y-19791087D01*
X41168310Y-19812517D01*
X41042789Y-19884987D01*
X40940287Y-19987489D01*
X40867817Y-20113010D01*
X40849733Y-20180500D01*
X40830300Y-20253025D01*
X37134900Y-20253025D01*
X37134900Y-20159125D01*
X37097384Y-20019115D01*
X37097382Y-20019112D01*
X37097382Y-20019110D01*
X37024912Y-19893589D01*
X37024910Y-19893587D01*
X37024909Y-19893585D01*
X36922415Y-19791091D01*
X36922412Y-19791089D01*
X36922410Y-19791087D01*
X36796888Y-19718617D01*
X36796889Y-19718617D01*
X36730903Y-19700936D01*
X36656875Y-19681100D01*
X36511925Y-19681100D01*
X36450190Y-19697641D01*
X36371910Y-19718617D01*
X36246389Y-19791087D01*
X36143887Y-19893589D01*
X36071417Y-20019110D01*
X36033900Y-20159125D01*
X23428737Y-20159125D01*
X23397384Y-20042115D01*
X23385328Y-20021233D01*
X23324912Y-19916589D01*
X23324910Y-19916587D01*
X23324909Y-19916585D01*
X23222415Y-19814091D01*
X23219689Y-19812517D01*
X23210577Y-19807256D01*
X23169637Y-19761786D01*
X23163242Y-19700936D01*
X23174342Y-19672019D01*
X23198784Y-19629685D01*
X23236300Y-19489675D01*
X23236300Y-19344725D01*
X23198784Y-19204715D01*
X23198782Y-19204712D01*
X23198782Y-19204710D01*
X23197135Y-19200733D01*
X23192336Y-19139736D01*
X23224307Y-19087568D01*
X23262971Y-19067225D01*
X23401585Y-19030084D01*
X23401587Y-19030082D01*
X23401589Y-19030082D01*
X23527110Y-18957612D01*
X23527110Y-18957611D01*
X23527115Y-18957609D01*
X23629609Y-18855115D01*
X23644730Y-18828925D01*
X45533100Y-18828925D01*
X45533100Y-18973875D01*
X45533855Y-18976691D01*
X45570617Y-19113889D01*
X45643087Y-19239410D01*
X45643089Y-19239412D01*
X45643091Y-19239415D01*
X45745585Y-19341909D01*
X45745587Y-19341910D01*
X45745589Y-19341912D01*
X45871111Y-19414382D01*
X45871112Y-19414382D01*
X45871115Y-19414384D01*
X46011125Y-19451900D01*
X46011126Y-19451900D01*
X46156074Y-19451900D01*
X46156075Y-19451900D01*
X46296085Y-19414384D01*
X46296087Y-19414382D01*
X46296089Y-19414382D01*
X46421610Y-19341912D01*
X46421610Y-19341911D01*
X46421615Y-19341909D01*
X46524109Y-19239415D01*
X46596584Y-19113885D01*
X46619039Y-19030084D01*
X46625084Y-19007525D01*
X51537000Y-19007525D01*
X51537000Y-19152475D01*
X51550998Y-19204715D01*
X51574517Y-19292489D01*
X51646987Y-19418010D01*
X51646989Y-19418012D01*
X51646991Y-19418015D01*
X51749485Y-19520509D01*
X51749487Y-19520510D01*
X51749489Y-19520512D01*
X51875011Y-19592982D01*
X51875012Y-19592982D01*
X51875015Y-19592984D01*
X52015025Y-19630500D01*
X52015026Y-19630500D01*
X52159974Y-19630500D01*
X52159975Y-19630500D01*
X52299985Y-19592984D01*
X52299987Y-19592982D01*
X52299989Y-19592982D01*
X52425510Y-19520512D01*
X52425510Y-19520511D01*
X52425515Y-19520509D01*
X52528009Y-19418015D01*
X52574378Y-19337702D01*
X52600482Y-19292489D01*
X52600482Y-19292487D01*
X52600484Y-19292485D01*
X52638000Y-19152475D01*
X52638000Y-19007525D01*
X52634211Y-18993385D01*
X55399500Y-18993385D01*
X55399500Y-19166614D01*
X55426597Y-19337702D01*
X55426598Y-19337706D01*
X55480123Y-19502438D01*
X55480125Y-19502441D01*
X55545373Y-19630500D01*
X55558768Y-19656788D01*
X55660586Y-19796928D01*
X55783072Y-19919414D01*
X55923212Y-20021232D01*
X56077555Y-20099873D01*
X56077557Y-20099873D01*
X56077558Y-20099874D01*
X56077561Y-20099876D01*
X56242293Y-20153401D01*
X56242297Y-20153402D01*
X56413386Y-20180500D01*
X56413389Y-20180500D01*
X56586614Y-20180500D01*
X56757702Y-20153402D01*
X56757706Y-20153401D01*
X56922438Y-20099876D01*
X56922440Y-20099874D01*
X56922445Y-20099873D01*
X57076788Y-20021232D01*
X57216928Y-19919414D01*
X57339414Y-19796928D01*
X57441232Y-19656788D01*
X57519873Y-19502445D01*
X57519874Y-19502440D01*
X57519876Y-19502438D01*
X57573401Y-19337706D01*
X57573402Y-19337702D01*
X57600500Y-19166614D01*
X57600500Y-18993385D01*
X57573402Y-18822297D01*
X57573401Y-18822293D01*
X57519876Y-18657561D01*
X57519874Y-18657558D01*
X57519873Y-18657557D01*
X57519873Y-18657555D01*
X57441232Y-18503212D01*
X57339414Y-18363072D01*
X57216928Y-18240586D01*
X57076788Y-18138768D01*
X57076787Y-18138767D01*
X57076785Y-18138766D01*
X56922441Y-18060125D01*
X56922438Y-18060123D01*
X56757706Y-18006598D01*
X56757702Y-18006597D01*
X56586614Y-17979500D01*
X56586611Y-17979500D01*
X56413389Y-17979500D01*
X56413386Y-17979500D01*
X56242297Y-18006597D01*
X56242293Y-18006598D01*
X56077561Y-18060123D01*
X56077558Y-18060125D01*
X55923214Y-18138766D01*
X55783073Y-18240585D01*
X55660585Y-18363073D01*
X55558766Y-18503214D01*
X55480125Y-18657558D01*
X55480123Y-18657561D01*
X55426598Y-18822293D01*
X55426597Y-18822297D01*
X55399500Y-18993385D01*
X52634211Y-18993385D01*
X52600484Y-18867515D01*
X52600482Y-18867512D01*
X52600482Y-18867510D01*
X52528012Y-18741989D01*
X52528010Y-18741987D01*
X52528009Y-18741985D01*
X52425515Y-18639491D01*
X52425512Y-18639489D01*
X52425510Y-18639487D01*
X52299988Y-18567017D01*
X52299989Y-18567017D01*
X52270396Y-18559087D01*
X52159975Y-18529500D01*
X52015025Y-18529500D01*
X51953290Y-18546041D01*
X51875010Y-18567017D01*
X51749489Y-18639487D01*
X51646987Y-18741989D01*
X51574517Y-18867510D01*
X51574516Y-18867515D01*
X51537000Y-19007525D01*
X46625084Y-19007525D01*
X46633687Y-18975419D01*
X46633687Y-18975417D01*
X46634100Y-18973875D01*
X46634100Y-18828925D01*
X46624894Y-18794568D01*
X46596584Y-18688915D01*
X46596582Y-18688912D01*
X46596582Y-18688910D01*
X46524112Y-18563389D01*
X46524110Y-18563387D01*
X46524109Y-18563385D01*
X46421615Y-18460891D01*
X46421612Y-18460889D01*
X46421610Y-18460887D01*
X46296088Y-18388417D01*
X46296089Y-18388417D01*
X46266496Y-18380487D01*
X46156075Y-18350900D01*
X46011125Y-18350900D01*
X45949390Y-18367441D01*
X45871110Y-18388417D01*
X45745589Y-18460887D01*
X45643087Y-18563389D01*
X45570617Y-18688910D01*
X45548102Y-18772936D01*
X45533100Y-18828925D01*
X23644730Y-18828925D01*
X23677056Y-18772936D01*
X23702082Y-18729589D01*
X23702082Y-18729587D01*
X23702084Y-18729585D01*
X23739600Y-18589575D01*
X23739600Y-18444625D01*
X23702084Y-18304615D01*
X23702082Y-18304612D01*
X23702082Y-18304610D01*
X23629612Y-18179089D01*
X23629610Y-18179087D01*
X23629609Y-18179085D01*
X23527115Y-18076591D01*
X23527112Y-18076589D01*
X23527110Y-18076587D01*
X23401588Y-18004117D01*
X23401589Y-18004117D01*
X23371996Y-17996187D01*
X23261575Y-17966600D01*
X23116625Y-17966600D01*
X23068482Y-17979500D01*
X22976610Y-18004117D01*
X22851089Y-18076587D01*
X22748587Y-18179089D01*
X22676117Y-18304610D01*
X22676116Y-18304615D01*
X22638600Y-18444625D01*
X22638600Y-18589575D01*
X22676116Y-18729585D01*
X22676118Y-18729592D01*
X22677766Y-18733571D01*
X22682562Y-18794568D01*
X22650588Y-18846734D01*
X22611924Y-18867075D01*
X22473315Y-18904216D01*
X22473313Y-18904216D01*
X22473309Y-18904218D01*
X22347789Y-18976687D01*
X22245287Y-19079189D01*
X22172817Y-19204710D01*
X22135300Y-19344725D01*
X500500Y-19344725D01*
X500500Y-16934425D01*
X41996600Y-16934425D01*
X41996600Y-17079374D01*
X42034117Y-17219389D01*
X42106587Y-17344910D01*
X42106589Y-17344912D01*
X42106591Y-17344915D01*
X42209085Y-17447409D01*
X42209087Y-17447410D01*
X42209089Y-17447412D01*
X42334611Y-17519882D01*
X42334612Y-17519882D01*
X42334615Y-17519884D01*
X42474625Y-17557400D01*
X42474626Y-17557400D01*
X42619574Y-17557400D01*
X42619575Y-17557400D01*
X42759585Y-17519884D01*
X42759587Y-17519882D01*
X42759589Y-17519882D01*
X42885110Y-17447412D01*
X42885110Y-17447411D01*
X42885115Y-17447409D01*
X42987609Y-17344915D01*
X42987612Y-17344910D01*
X43060082Y-17219389D01*
X43060082Y-17219387D01*
X43060084Y-17219385D01*
X43097600Y-17079375D01*
X43097600Y-16934425D01*
X43060084Y-16794415D01*
X43060082Y-16794412D01*
X43060082Y-16794410D01*
X42987612Y-16668889D01*
X42987610Y-16668887D01*
X42987609Y-16668885D01*
X42885115Y-16566391D01*
X42851134Y-16546772D01*
X42851133Y-16546770D01*
X42759588Y-16493917D01*
X42759589Y-16493917D01*
X42729996Y-16485987D01*
X42661094Y-16467525D01*
X51537000Y-16467525D01*
X51537000Y-16612474D01*
X51574517Y-16752489D01*
X51646987Y-16878010D01*
X51646989Y-16878012D01*
X51646991Y-16878015D01*
X51749485Y-16980509D01*
X51749487Y-16980510D01*
X51749489Y-16980512D01*
X51875011Y-17052982D01*
X51875012Y-17052982D01*
X51875015Y-17052984D01*
X52015025Y-17090500D01*
X52015026Y-17090500D01*
X52159974Y-17090500D01*
X52159975Y-17090500D01*
X52299985Y-17052984D01*
X52299987Y-17052982D01*
X52299989Y-17052982D01*
X52425510Y-16980512D01*
X52425510Y-16980511D01*
X52425515Y-16980509D01*
X52528009Y-16878015D01*
X52574378Y-16797702D01*
X52600482Y-16752489D01*
X52600482Y-16752487D01*
X52600484Y-16752485D01*
X52638000Y-16612475D01*
X52638000Y-16467525D01*
X52634211Y-16453385D01*
X55399500Y-16453385D01*
X55399500Y-16626614D01*
X55426597Y-16797702D01*
X55426598Y-16797706D01*
X55480123Y-16962438D01*
X55480125Y-16962441D01*
X55545373Y-17090500D01*
X55558768Y-17116788D01*
X55660586Y-17256928D01*
X55783072Y-17379414D01*
X55923212Y-17481232D01*
X56077555Y-17559873D01*
X56077557Y-17559873D01*
X56077558Y-17559874D01*
X56077561Y-17559876D01*
X56242293Y-17613401D01*
X56242297Y-17613402D01*
X56413386Y-17640500D01*
X56413389Y-17640500D01*
X56586614Y-17640500D01*
X56757702Y-17613402D01*
X56757706Y-17613401D01*
X56922438Y-17559876D01*
X56922440Y-17559874D01*
X56922445Y-17559873D01*
X57076788Y-17481232D01*
X57216928Y-17379414D01*
X57339414Y-17256928D01*
X57441232Y-17116788D01*
X57519873Y-16962445D01*
X57519874Y-16962440D01*
X57519876Y-16962438D01*
X57573401Y-16797706D01*
X57573402Y-16797702D01*
X57600500Y-16626614D01*
X57600500Y-16453385D01*
X57573402Y-16282297D01*
X57573401Y-16282293D01*
X57519876Y-16117561D01*
X57519874Y-16117558D01*
X57519873Y-16117557D01*
X57519873Y-16117555D01*
X57441232Y-15963212D01*
X57339414Y-15823072D01*
X57216928Y-15700586D01*
X57076788Y-15598768D01*
X57076787Y-15598767D01*
X57076785Y-15598766D01*
X56922441Y-15520125D01*
X56922438Y-15520123D01*
X56757706Y-15466598D01*
X56757702Y-15466597D01*
X56586614Y-15439500D01*
X56586611Y-15439500D01*
X56413389Y-15439500D01*
X56413386Y-15439500D01*
X56242297Y-15466597D01*
X56242293Y-15466598D01*
X56077561Y-15520123D01*
X56077558Y-15520125D01*
X55923214Y-15598766D01*
X55783073Y-15700585D01*
X55660585Y-15823073D01*
X55558766Y-15963214D01*
X55480125Y-16117558D01*
X55480123Y-16117561D01*
X55426598Y-16282293D01*
X55426597Y-16282297D01*
X55399500Y-16453385D01*
X52634211Y-16453385D01*
X52600484Y-16327515D01*
X52600482Y-16327512D01*
X52600482Y-16327510D01*
X52528012Y-16201989D01*
X52528010Y-16201987D01*
X52528009Y-16201985D01*
X52425515Y-16099491D01*
X52425512Y-16099489D01*
X52425510Y-16099487D01*
X52299988Y-16027017D01*
X52299989Y-16027017D01*
X52270396Y-16019087D01*
X52159975Y-15989500D01*
X52015025Y-15989500D01*
X51953290Y-16006041D01*
X51875010Y-16027017D01*
X51749489Y-16099487D01*
X51646987Y-16201989D01*
X51574517Y-16327510D01*
X51537000Y-16467525D01*
X42661094Y-16467525D01*
X42619575Y-16456400D01*
X42474625Y-16456400D01*
X42412890Y-16472941D01*
X42334610Y-16493917D01*
X42209089Y-16566387D01*
X42106587Y-16668889D01*
X42034117Y-16794410D01*
X41996600Y-16934425D01*
X500500Y-16934425D01*
X500500Y-16163925D01*
X24321300Y-16163925D01*
X24321300Y-16308875D01*
X24326295Y-16327515D01*
X24358817Y-16448889D01*
X24431287Y-16574410D01*
X24431289Y-16574412D01*
X24431291Y-16574415D01*
X24533785Y-16676909D01*
X24533787Y-16676910D01*
X24533789Y-16676912D01*
X24659311Y-16749382D01*
X24659312Y-16749382D01*
X24659315Y-16749384D01*
X24799325Y-16786900D01*
X24799326Y-16786900D01*
X24944274Y-16786900D01*
X24944275Y-16786900D01*
X25084285Y-16749384D01*
X25084287Y-16749382D01*
X25084289Y-16749382D01*
X25209810Y-16676912D01*
X25209810Y-16676911D01*
X25209815Y-16676909D01*
X25312309Y-16574415D01*
X25384784Y-16448885D01*
X25422300Y-16308875D01*
X25422300Y-16163925D01*
X25384784Y-16023915D01*
X25384782Y-16023912D01*
X25384782Y-16023910D01*
X25312312Y-15898389D01*
X25312310Y-15898387D01*
X25312309Y-15898385D01*
X25209815Y-15795891D01*
X25209812Y-15795889D01*
X25209810Y-15795887D01*
X25084288Y-15723417D01*
X25084289Y-15723417D01*
X25054696Y-15715487D01*
X24944275Y-15685900D01*
X24799325Y-15685900D01*
X24744517Y-15700586D01*
X24659310Y-15723417D01*
X24533789Y-15795887D01*
X24431287Y-15898389D01*
X24358817Y-16023910D01*
X24338566Y-16099487D01*
X24321300Y-16163925D01*
X500500Y-16163925D01*
X500500Y-14879425D01*
X16015100Y-14879425D01*
X16015100Y-15024375D01*
X16035497Y-15100498D01*
X16052617Y-15164389D01*
X16125087Y-15289910D01*
X16125089Y-15289912D01*
X16125091Y-15289915D01*
X16227585Y-15392409D01*
X16227587Y-15392410D01*
X16227589Y-15392412D01*
X16353111Y-15464882D01*
X16353112Y-15464882D01*
X16353115Y-15464884D01*
X16493125Y-15502400D01*
X16493126Y-15502400D01*
X16638074Y-15502400D01*
X16638075Y-15502400D01*
X16778085Y-15464884D01*
X16778087Y-15464882D01*
X16778089Y-15464882D01*
X16903610Y-15392412D01*
X16903610Y-15392411D01*
X16903615Y-15392409D01*
X17006109Y-15289915D01*
X17078584Y-15164385D01*
X17116100Y-15024375D01*
X17116100Y-14879425D01*
X17100291Y-14820425D01*
X18461800Y-14820425D01*
X18461800Y-14965375D01*
X18479278Y-15030602D01*
X18499317Y-15105389D01*
X18571787Y-15230910D01*
X18571789Y-15230912D01*
X18571791Y-15230915D01*
X18674285Y-15333409D01*
X18674287Y-15333410D01*
X18674289Y-15333412D01*
X18799811Y-15405882D01*
X18799812Y-15405882D01*
X18799815Y-15405884D01*
X18939825Y-15443400D01*
X18939826Y-15443400D01*
X19084774Y-15443400D01*
X19084775Y-15443400D01*
X19224785Y-15405884D01*
X19224787Y-15405882D01*
X19224789Y-15405882D01*
X19350310Y-15333412D01*
X19350310Y-15333411D01*
X19350315Y-15333409D01*
X19389099Y-15294625D01*
X43014400Y-15294625D01*
X43014400Y-15439574D01*
X43051917Y-15579589D01*
X43124387Y-15705110D01*
X43124389Y-15705112D01*
X43124391Y-15705115D01*
X43226885Y-15807609D01*
X43226887Y-15807610D01*
X43226889Y-15807612D01*
X43352411Y-15880082D01*
X43352412Y-15880082D01*
X43352415Y-15880084D01*
X43492425Y-15917600D01*
X43492426Y-15917600D01*
X43637374Y-15917600D01*
X43637375Y-15917600D01*
X43777385Y-15880084D01*
X43777387Y-15880082D01*
X43777389Y-15880082D01*
X43902910Y-15807612D01*
X43902910Y-15807611D01*
X43902915Y-15807609D01*
X44005409Y-15705115D01*
X44008024Y-15700586D01*
X44077882Y-15579589D01*
X44077882Y-15579587D01*
X44077884Y-15579585D01*
X44115400Y-15439575D01*
X44115400Y-15294625D01*
X44077884Y-15154615D01*
X44077882Y-15154612D01*
X44077882Y-15154610D01*
X44005412Y-15029089D01*
X44005410Y-15029087D01*
X44005409Y-15029085D01*
X43902915Y-14926591D01*
X43902912Y-14926589D01*
X43902910Y-14926587D01*
X43777388Y-14854117D01*
X43777389Y-14854117D01*
X43723058Y-14839559D01*
X43637375Y-14816600D01*
X43492425Y-14816600D01*
X43430813Y-14833109D01*
X43352410Y-14854117D01*
X43226889Y-14926587D01*
X43124387Y-15029089D01*
X43051917Y-15154610D01*
X43014400Y-15294625D01*
X19389099Y-15294625D01*
X19452809Y-15230915D01*
X19525284Y-15105385D01*
X19558134Y-14982785D01*
X19591459Y-14931472D01*
X19648580Y-14909546D01*
X19679379Y-14912782D01*
X19792525Y-14943100D01*
X19792527Y-14943100D01*
X19937474Y-14943100D01*
X19937475Y-14943100D01*
X20077485Y-14905584D01*
X20077487Y-14905582D01*
X20077489Y-14905582D01*
X20203010Y-14833112D01*
X20203010Y-14833111D01*
X20203015Y-14833109D01*
X20305509Y-14730615D01*
X20372901Y-14613889D01*
X20377982Y-14605089D01*
X20377982Y-14605087D01*
X20377984Y-14605085D01*
X20415500Y-14465075D01*
X20415500Y-14320125D01*
X20377984Y-14180115D01*
X20377982Y-14180111D01*
X20377982Y-14180110D01*
X20305512Y-14054589D01*
X20305510Y-14054587D01*
X20305509Y-14054585D01*
X20203015Y-13952091D01*
X20203012Y-13952089D01*
X20203010Y-13952087D01*
X20077488Y-13879617D01*
X20077489Y-13879617D01*
X20047896Y-13871687D01*
X19937475Y-13842100D01*
X19792525Y-13842100D01*
X19730790Y-13858641D01*
X19652510Y-13879617D01*
X19526989Y-13952087D01*
X19424487Y-14054589D01*
X19352017Y-14180111D01*
X19352015Y-14180115D01*
X19319164Y-14302713D01*
X19285840Y-14354027D01*
X19228718Y-14375953D01*
X19197915Y-14372716D01*
X19128167Y-14354027D01*
X19084775Y-14342400D01*
X18939825Y-14342400D01*
X18896433Y-14354027D01*
X18799810Y-14379917D01*
X18674289Y-14452387D01*
X18571787Y-14554889D01*
X18499317Y-14680410D01*
X18499316Y-14680415D01*
X18461800Y-14820425D01*
X17100291Y-14820425D01*
X17078584Y-14739415D01*
X17078582Y-14739412D01*
X17078582Y-14739410D01*
X17006112Y-14613889D01*
X17006110Y-14613887D01*
X17006109Y-14613885D01*
X16903615Y-14511391D01*
X16903612Y-14511389D01*
X16903610Y-14511387D01*
X16778088Y-14438917D01*
X16778089Y-14438917D01*
X16748496Y-14430987D01*
X16638075Y-14401400D01*
X16493125Y-14401400D01*
X16431390Y-14417941D01*
X16353110Y-14438917D01*
X16227589Y-14511387D01*
X16125087Y-14613889D01*
X16052617Y-14739410D01*
X16052616Y-14739415D01*
X16015100Y-14879425D01*
X500500Y-14879425D01*
X500500Y-12705825D01*
X5860500Y-12705825D01*
X5860500Y-12850775D01*
X5877451Y-12914035D01*
X5898017Y-12990789D01*
X5970487Y-13116310D01*
X5970489Y-13116312D01*
X5970491Y-13116315D01*
X6072985Y-13218809D01*
X6072987Y-13218810D01*
X6072989Y-13218812D01*
X6198511Y-13291282D01*
X6198512Y-13291282D01*
X6198515Y-13291284D01*
X6338525Y-13328800D01*
X6338526Y-13328800D01*
X6483474Y-13328800D01*
X6483475Y-13328800D01*
X6623485Y-13291284D01*
X6623487Y-13291282D01*
X6623489Y-13291282D01*
X6749010Y-13218812D01*
X6749010Y-13218811D01*
X6749015Y-13218809D01*
X6851509Y-13116315D01*
X6851512Y-13116310D01*
X6923982Y-12990789D01*
X6923982Y-12990787D01*
X6923984Y-12990785D01*
X6961500Y-12850775D01*
X6961500Y-12705825D01*
X6923984Y-12565815D01*
X6923982Y-12565812D01*
X6923982Y-12565810D01*
X6914176Y-12548825D01*
X17038200Y-12548825D01*
X17038200Y-12693774D01*
X17075717Y-12833789D01*
X17148187Y-12959310D01*
X17148189Y-12959312D01*
X17148191Y-12959315D01*
X17250685Y-13061809D01*
X17250687Y-13061810D01*
X17250689Y-13061812D01*
X17376211Y-13134282D01*
X17376212Y-13134282D01*
X17376215Y-13134284D01*
X17516225Y-13171800D01*
X17516226Y-13171800D01*
X17661174Y-13171800D01*
X17661175Y-13171800D01*
X17801185Y-13134284D01*
X17801187Y-13134282D01*
X17801189Y-13134282D01*
X17816699Y-13125327D01*
X55399500Y-13125327D01*
X55399500Y-14874672D01*
X55399501Y-14874684D01*
X55414033Y-14947736D01*
X55414035Y-14947742D01*
X55469397Y-15030599D01*
X55469399Y-15030601D01*
X55552260Y-15085966D01*
X55607808Y-15097015D01*
X55625315Y-15100498D01*
X55625320Y-15100498D01*
X55625326Y-15100500D01*
X55625327Y-15100500D01*
X57374673Y-15100500D01*
X57374674Y-15100500D01*
X57447740Y-15085966D01*
X57530601Y-15030601D01*
X57585966Y-14947740D01*
X57600500Y-14874674D01*
X57600500Y-13125326D01*
X57585966Y-13052260D01*
X57544893Y-12990789D01*
X57530602Y-12969400D01*
X57530599Y-12969397D01*
X57447742Y-12914035D01*
X57447740Y-12914034D01*
X57447737Y-12914033D01*
X57447736Y-12914033D01*
X57374684Y-12899501D01*
X57374674Y-12899500D01*
X55625326Y-12899500D01*
X55625325Y-12899500D01*
X55625315Y-12899501D01*
X55552263Y-12914033D01*
X55552257Y-12914035D01*
X55469400Y-12969397D01*
X55469397Y-12969400D01*
X55414035Y-13052257D01*
X55414033Y-13052263D01*
X55399501Y-13125315D01*
X55399500Y-13125327D01*
X17816699Y-13125327D01*
X17926710Y-13061812D01*
X17926710Y-13061811D01*
X17926715Y-13061809D01*
X18029209Y-12959315D01*
X18029212Y-12959310D01*
X18101682Y-12833789D01*
X18101682Y-12833787D01*
X18101684Y-12833785D01*
X18139200Y-12693775D01*
X18139200Y-12548825D01*
X18101684Y-12408815D01*
X18101682Y-12408812D01*
X18101682Y-12408810D01*
X18029212Y-12283289D01*
X18029210Y-12283287D01*
X18029209Y-12283285D01*
X17926715Y-12180791D01*
X17926712Y-12180789D01*
X17926710Y-12180787D01*
X17801188Y-12108317D01*
X17801189Y-12108317D01*
X17771596Y-12100387D01*
X17661175Y-12070800D01*
X17516225Y-12070800D01*
X17454490Y-12087341D01*
X17376210Y-12108317D01*
X17250689Y-12180787D01*
X17148187Y-12283289D01*
X17075717Y-12408810D01*
X17038200Y-12548825D01*
X6914176Y-12548825D01*
X6851512Y-12440289D01*
X6851510Y-12440287D01*
X6851509Y-12440285D01*
X6749015Y-12337791D01*
X6749012Y-12337789D01*
X6749010Y-12337787D01*
X6623488Y-12265317D01*
X6623489Y-12265317D01*
X6593896Y-12257387D01*
X6483475Y-12227800D01*
X6338525Y-12227800D01*
X6276790Y-12244341D01*
X6198510Y-12265317D01*
X6072989Y-12337787D01*
X5970487Y-12440289D01*
X5898017Y-12565810D01*
X5897441Y-12567960D01*
X5860500Y-12705825D01*
X500500Y-12705825D01*
X500500Y-9250525D01*
X12766900Y-9250525D01*
X12766900Y-9395475D01*
X12796487Y-9505896D01*
X12804417Y-9535489D01*
X12876887Y-9661010D01*
X12876889Y-9661012D01*
X12876891Y-9661015D01*
X12979385Y-9763509D01*
X12979387Y-9763510D01*
X12979389Y-9763512D01*
X13104911Y-9835982D01*
X13104912Y-9835982D01*
X13104915Y-9835984D01*
X13244925Y-9873500D01*
X13244926Y-9873500D01*
X13389874Y-9873500D01*
X13389875Y-9873500D01*
X13529885Y-9835984D01*
X13529887Y-9835982D01*
X13529889Y-9835982D01*
X13655410Y-9763512D01*
X13655410Y-9763511D01*
X13655415Y-9763509D01*
X13757909Y-9661015D01*
X13830384Y-9535485D01*
X13856633Y-9437525D01*
X17049500Y-9437525D01*
X17049500Y-9582474D01*
X17087017Y-9722489D01*
X17159487Y-9848010D01*
X17159489Y-9848012D01*
X17159491Y-9848015D01*
X17261985Y-9950509D01*
X17261987Y-9950510D01*
X17261989Y-9950512D01*
X17387511Y-10022982D01*
X17387512Y-10022982D01*
X17387515Y-10022984D01*
X17527525Y-10060500D01*
X17527526Y-10060500D01*
X17672474Y-10060500D01*
X17672475Y-10060500D01*
X17812485Y-10022984D01*
X17812487Y-10022982D01*
X17812489Y-10022982D01*
X17938010Y-9950512D01*
X17938010Y-9950511D01*
X17938015Y-9950509D01*
X18040509Y-9848015D01*
X18112984Y-9722485D01*
X18150500Y-9582475D01*
X18150500Y-9437525D01*
X21099500Y-9437525D01*
X21099500Y-9582474D01*
X21137017Y-9722489D01*
X21209487Y-9848010D01*
X21209489Y-9848012D01*
X21209491Y-9848015D01*
X21311985Y-9950509D01*
X21311987Y-9950510D01*
X21311989Y-9950512D01*
X21437511Y-10022982D01*
X21437512Y-10022982D01*
X21437515Y-10022984D01*
X21577525Y-10060500D01*
X21577526Y-10060500D01*
X21722474Y-10060500D01*
X21722475Y-10060500D01*
X21862485Y-10022984D01*
X21862487Y-10022982D01*
X21862489Y-10022982D01*
X21988010Y-9950512D01*
X21988010Y-9950511D01*
X21988015Y-9950509D01*
X22090509Y-9848015D01*
X22162984Y-9722485D01*
X22200500Y-9582475D01*
X22200500Y-9437525D01*
X22162984Y-9297515D01*
X22162982Y-9297512D01*
X22162982Y-9297510D01*
X22090512Y-9171989D01*
X22090510Y-9171987D01*
X22090509Y-9171985D01*
X21988015Y-9069491D01*
X21988012Y-9069489D01*
X21988010Y-9069487D01*
X21862488Y-8997017D01*
X21862489Y-8997017D01*
X21817585Y-8984985D01*
X21722475Y-8959500D01*
X21577525Y-8959500D01*
X21515790Y-8976041D01*
X21437510Y-8997017D01*
X21311989Y-9069487D01*
X21209487Y-9171989D01*
X21137017Y-9297510D01*
X21099500Y-9437525D01*
X18150500Y-9437525D01*
X18112984Y-9297515D01*
X18112982Y-9297512D01*
X18112982Y-9297510D01*
X18040512Y-9171989D01*
X18040510Y-9171987D01*
X18040509Y-9171985D01*
X17938015Y-9069491D01*
X17938012Y-9069489D01*
X17938010Y-9069487D01*
X17812488Y-8997017D01*
X17812489Y-8997017D01*
X17767585Y-8984985D01*
X17672475Y-8959500D01*
X17527525Y-8959500D01*
X17465790Y-8976041D01*
X17387510Y-8997017D01*
X17261989Y-9069487D01*
X17159487Y-9171989D01*
X17087017Y-9297510D01*
X17049500Y-9437525D01*
X13856633Y-9437525D01*
X13867900Y-9395475D01*
X13867900Y-9250525D01*
X13830384Y-9110515D01*
X13830382Y-9110512D01*
X13830382Y-9110510D01*
X13757912Y-8984989D01*
X13757910Y-8984987D01*
X13757909Y-8984985D01*
X13655415Y-8882491D01*
X13655412Y-8882489D01*
X13655410Y-8882487D01*
X13529888Y-8810017D01*
X13529889Y-8810017D01*
X13500296Y-8802087D01*
X13389875Y-8772500D01*
X13244925Y-8772500D01*
X13183190Y-8789041D01*
X13104910Y-8810017D01*
X12979389Y-8882487D01*
X12876887Y-8984989D01*
X12804417Y-9110510D01*
X12804416Y-9110515D01*
X12766900Y-9250525D01*
X500500Y-9250525D01*
X500500Y-3875433D01*
X1599500Y-3875433D01*
X1599500Y-4124566D01*
X1632017Y-4371557D01*
X1632017Y-4371562D01*
X1696496Y-4612199D01*
X1696500Y-4612212D01*
X1791832Y-4842365D01*
X1791834Y-4842369D01*
X1791836Y-4842373D01*
X1916401Y-5058127D01*
X1916403Y-5058130D01*
X2068056Y-5255769D01*
X2068058Y-5255771D01*
X2068062Y-5255776D01*
X2244224Y-5431938D01*
X2244228Y-5431941D01*
X2244230Y-5431943D01*
X2441869Y-5583596D01*
X2441873Y-5583599D01*
X2657627Y-5708164D01*
X2887793Y-5803502D01*
X3128435Y-5867982D01*
X3375435Y-5900500D01*
X3375436Y-5900500D01*
X3624564Y-5900500D01*
X3624565Y-5900500D01*
X3871565Y-5867982D01*
X4112207Y-5803502D01*
X4342373Y-5708164D01*
X4558127Y-5583599D01*
X4755776Y-5431938D01*
X4931938Y-5255776D01*
X5083599Y-5058127D01*
X5208164Y-4842373D01*
X5303502Y-4612207D01*
X5367982Y-4371565D01*
X5400500Y-4124565D01*
X5400500Y-3875435D01*
X5367982Y-3628435D01*
X5303502Y-3387793D01*
X5208164Y-3157627D01*
X5083599Y-2941873D01*
X4931938Y-2744224D01*
X4755776Y-2568062D01*
X4755771Y-2568058D01*
X4755769Y-2568056D01*
X4558130Y-2416403D01*
X4558127Y-2416401D01*
X4342373Y-2291836D01*
X4342369Y-2291834D01*
X4342365Y-2291832D01*
X4112212Y-2196500D01*
X4112211Y-2196499D01*
X4112207Y-2196498D01*
X3871565Y-2132018D01*
X3871562Y-2132017D01*
X3871560Y-2132017D01*
X3624566Y-2099500D01*
X3624565Y-2099500D01*
X3375435Y-2099500D01*
X3375433Y-2099500D01*
X3128442Y-2132017D01*
X3128437Y-2132017D01*
X2887800Y-2196496D01*
X2887787Y-2196500D01*
X2657634Y-2291832D01*
X2441869Y-2416403D01*
X2244230Y-2568056D01*
X2068056Y-2744230D01*
X1916403Y-2941869D01*
X1791832Y-3157634D01*
X1696500Y-3387787D01*
X1696496Y-3387800D01*
X1632017Y-3628437D01*
X1632017Y-3628442D01*
X1599500Y-3875433D01*
X500500Y-3875433D01*
X500500Y-599500D01*
X519407Y-541309D01*
X568907Y-505345D01*
X599500Y-500500D01*
X7901000Y-500500D01*
X7959191Y-519407D01*
G37*
%TD.AperFunction*%
%TD*%
M02*
