%TF.GenerationSoftware,KiCad,Pcbnew,10.0.5*%
%TF.CreationDate,2026-08-08T09:27:43+02:00*%
%TF.ProjectId,wisp,77697370-2e6b-4696-9361-645f70636258,rev?*%
%TF.SameCoordinates,Original*%
%TF.FileFunction,Drillmap*%
%TF.FilePolarity,Positive*%
%FSLAX45Y45*%
G04 Gerber Fmt 4.5, Leading zero omitted, Abs format (unit mm)*
G04 Created by KiCad (PCBNEW 10.0.5) date 2026-08-08 09:27:43*
%MOMM*%
%LPD*%
G01*
G04 APERTURE LIST*
%ADD10C,0.100000*%
%ADD11C,0.200000*%
%ADD12C,0.320000*%
G04 APERTURE END LIST*
D10*
X0Y0D02*
X6000000Y0D01*
X0Y-8000000D02*
X0Y0D01*
X2000000Y-6200000D02*
X2000000Y-8000000D01*
X2000000Y-8000000D02*
X0Y-8000000D01*
X2150000Y-6350000D02*
X3800000Y-6350000D01*
X2150000Y-8000000D02*
X2150000Y-6350000D01*
X3800000Y-6200000D02*
X2000000Y-6200000D01*
X3800000Y-6350000D02*
X3800000Y-6200000D01*
X4650000Y-6350000D02*
X4650000Y-8000000D01*
X4650000Y-8000000D02*
X2150000Y-8000000D01*
X4800000Y-6350000D02*
X4650000Y-6350000D01*
X4800000Y-8000000D02*
X4800000Y-6350000D01*
X6000000Y0D02*
X6000000Y-8000000D01*
X6000000Y-8000000D02*
X4800000Y-8000000D01*
D11*
D10*
X257500Y-3678500D02*
X322500Y-3743500D01*
X322500Y-3678500D02*
X257500Y-3743500D01*
X257500Y-4256500D02*
X322500Y-4321500D01*
X322500Y-4256500D02*
X257500Y-4321500D01*
D12*
X560000Y-400000D02*
G75*
G02*
X240000Y-400000I-160000J0D01*
G01*
X240000Y-400000D02*
G75*
G02*
X560000Y-400000I160000J0D01*
G01*
X560000Y-7600000D02*
G75*
G02*
X240000Y-7600000I-160000J0D01*
G01*
X240000Y-7600000D02*
G75*
G02*
X560000Y-7600000I160000J0D01*
G01*
X5760000Y-400000D02*
G75*
G02*
X5440000Y-400000I-160000J0D01*
G01*
X5440000Y-400000D02*
G75*
G02*
X5760000Y-400000I160000J0D01*
G01*
X5760000Y-7600000D02*
G75*
G02*
X5440000Y-7600000I-160000J0D01*
G01*
X5440000Y-7600000D02*
G75*
G02*
X5760000Y-7600000I160000J0D01*
G01*
D11*
X255777Y-8316484D02*
X255777Y-8116484D01*
X255777Y-8116484D02*
X303396Y-8116484D01*
X303396Y-8116484D02*
X331967Y-8126008D01*
X331967Y-8126008D02*
X351015Y-8145055D01*
X351015Y-8145055D02*
X360539Y-8164103D01*
X360539Y-8164103D02*
X370062Y-8202198D01*
X370062Y-8202198D02*
X370062Y-8230769D01*
X370062Y-8230769D02*
X360539Y-8268865D01*
X360539Y-8268865D02*
X351015Y-8287912D01*
X351015Y-8287912D02*
X331967Y-8306960D01*
X331967Y-8306960D02*
X303396Y-8316484D01*
X303396Y-8316484D02*
X255777Y-8316484D01*
X455777Y-8316484D02*
X455777Y-8183150D01*
X455777Y-8221246D02*
X465301Y-8202198D01*
X465301Y-8202198D02*
X474824Y-8192674D01*
X474824Y-8192674D02*
X493872Y-8183150D01*
X493872Y-8183150D02*
X512920Y-8183150D01*
X579586Y-8316484D02*
X579586Y-8183150D01*
X579586Y-8116484D02*
X570063Y-8126008D01*
X570063Y-8126008D02*
X579586Y-8135531D01*
X579586Y-8135531D02*
X589110Y-8126008D01*
X589110Y-8126008D02*
X579586Y-8116484D01*
X579586Y-8116484D02*
X579586Y-8135531D01*
X703396Y-8316484D02*
X684348Y-8306960D01*
X684348Y-8306960D02*
X674824Y-8287912D01*
X674824Y-8287912D02*
X674824Y-8116484D01*
X808158Y-8316484D02*
X789110Y-8306960D01*
X789110Y-8306960D02*
X779586Y-8287912D01*
X779586Y-8287912D02*
X779586Y-8116484D01*
X1036729Y-8316484D02*
X1036729Y-8116484D01*
X1036729Y-8116484D02*
X1103396Y-8259341D01*
X1103396Y-8259341D02*
X1170063Y-8116484D01*
X1170063Y-8116484D02*
X1170063Y-8316484D01*
X1351015Y-8316484D02*
X1351015Y-8211722D01*
X1351015Y-8211722D02*
X1341491Y-8192674D01*
X1341491Y-8192674D02*
X1322444Y-8183150D01*
X1322444Y-8183150D02*
X1284348Y-8183150D01*
X1284348Y-8183150D02*
X1265301Y-8192674D01*
X1351015Y-8306960D02*
X1331967Y-8316484D01*
X1331967Y-8316484D02*
X1284348Y-8316484D01*
X1284348Y-8316484D02*
X1265301Y-8306960D01*
X1265301Y-8306960D02*
X1255777Y-8287912D01*
X1255777Y-8287912D02*
X1255777Y-8268865D01*
X1255777Y-8268865D02*
X1265301Y-8249817D01*
X1265301Y-8249817D02*
X1284348Y-8240293D01*
X1284348Y-8240293D02*
X1331967Y-8240293D01*
X1331967Y-8240293D02*
X1351015Y-8230769D01*
X1446253Y-8183150D02*
X1446253Y-8383150D01*
X1446253Y-8192674D02*
X1465301Y-8183150D01*
X1465301Y-8183150D02*
X1503396Y-8183150D01*
X1503396Y-8183150D02*
X1522443Y-8192674D01*
X1522443Y-8192674D02*
X1531967Y-8202198D01*
X1531967Y-8202198D02*
X1541491Y-8221246D01*
X1541491Y-8221246D02*
X1541491Y-8278388D01*
X1541491Y-8278388D02*
X1531967Y-8297436D01*
X1531967Y-8297436D02*
X1522443Y-8306960D01*
X1522443Y-8306960D02*
X1503396Y-8316484D01*
X1503396Y-8316484D02*
X1465301Y-8316484D01*
X1465301Y-8316484D02*
X1446253Y-8306960D01*
X1627205Y-8297436D02*
X1636729Y-8306960D01*
X1636729Y-8306960D02*
X1627205Y-8316484D01*
X1627205Y-8316484D02*
X1617682Y-8306960D01*
X1617682Y-8306960D02*
X1627205Y-8297436D01*
X1627205Y-8297436D02*
X1627205Y-8316484D01*
X1627205Y-8192674D02*
X1636729Y-8202198D01*
X1636729Y-8202198D02*
X1627205Y-8211722D01*
X1627205Y-8211722D02*
X1617682Y-8202198D01*
X1617682Y-8202198D02*
X1627205Y-8192674D01*
X1627205Y-8192674D02*
X1627205Y-8211722D01*
D10*
X-70000Y-8612500D02*
X-5000Y-8677500D01*
X-5000Y-8612500D02*
X-70000Y-8677500D01*
D11*
X293872Y-8536484D02*
X312920Y-8536484D01*
X312920Y-8536484D02*
X331967Y-8546008D01*
X331967Y-8546008D02*
X341491Y-8555531D01*
X341491Y-8555531D02*
X351015Y-8574579D01*
X351015Y-8574579D02*
X360539Y-8612674D01*
X360539Y-8612674D02*
X360539Y-8660293D01*
X360539Y-8660293D02*
X351015Y-8698389D01*
X351015Y-8698389D02*
X341491Y-8717436D01*
X341491Y-8717436D02*
X331967Y-8726960D01*
X331967Y-8726960D02*
X312920Y-8736484D01*
X312920Y-8736484D02*
X293872Y-8736484D01*
X293872Y-8736484D02*
X274824Y-8726960D01*
X274824Y-8726960D02*
X265301Y-8717436D01*
X265301Y-8717436D02*
X255777Y-8698389D01*
X255777Y-8698389D02*
X246253Y-8660293D01*
X246253Y-8660293D02*
X246253Y-8612674D01*
X246253Y-8612674D02*
X255777Y-8574579D01*
X255777Y-8574579D02*
X265301Y-8555531D01*
X265301Y-8555531D02*
X274824Y-8546008D01*
X274824Y-8546008D02*
X293872Y-8536484D01*
X446253Y-8717436D02*
X455777Y-8726960D01*
X455777Y-8726960D02*
X446253Y-8736484D01*
X446253Y-8736484D02*
X436729Y-8726960D01*
X436729Y-8726960D02*
X446253Y-8717436D01*
X446253Y-8717436D02*
X446253Y-8736484D01*
X627205Y-8536484D02*
X589110Y-8536484D01*
X589110Y-8536484D02*
X570063Y-8546008D01*
X570063Y-8546008D02*
X560539Y-8555531D01*
X560539Y-8555531D02*
X541491Y-8584103D01*
X541491Y-8584103D02*
X531967Y-8622198D01*
X531967Y-8622198D02*
X531967Y-8698389D01*
X531967Y-8698389D02*
X541491Y-8717436D01*
X541491Y-8717436D02*
X551015Y-8726960D01*
X551015Y-8726960D02*
X570063Y-8736484D01*
X570063Y-8736484D02*
X608158Y-8736484D01*
X608158Y-8736484D02*
X627205Y-8726960D01*
X627205Y-8726960D02*
X636729Y-8717436D01*
X636729Y-8717436D02*
X646253Y-8698389D01*
X646253Y-8698389D02*
X646253Y-8650770D01*
X646253Y-8650770D02*
X636729Y-8631722D01*
X636729Y-8631722D02*
X627205Y-8622198D01*
X627205Y-8622198D02*
X608158Y-8612674D01*
X608158Y-8612674D02*
X570063Y-8612674D01*
X570063Y-8612674D02*
X551015Y-8622198D01*
X551015Y-8622198D02*
X541491Y-8631722D01*
X541491Y-8631722D02*
X531967Y-8650770D01*
X827205Y-8536484D02*
X731967Y-8536484D01*
X731967Y-8536484D02*
X722443Y-8631722D01*
X722443Y-8631722D02*
X731967Y-8622198D01*
X731967Y-8622198D02*
X751015Y-8612674D01*
X751015Y-8612674D02*
X798634Y-8612674D01*
X798634Y-8612674D02*
X817682Y-8622198D01*
X817682Y-8622198D02*
X827205Y-8631722D01*
X827205Y-8631722D02*
X836729Y-8650770D01*
X836729Y-8650770D02*
X836729Y-8698389D01*
X836729Y-8698389D02*
X827205Y-8717436D01*
X827205Y-8717436D02*
X817682Y-8726960D01*
X817682Y-8726960D02*
X798634Y-8736484D01*
X798634Y-8736484D02*
X751015Y-8736484D01*
X751015Y-8736484D02*
X731967Y-8726960D01*
X731967Y-8726960D02*
X722443Y-8717436D01*
X960539Y-8536484D02*
X979586Y-8536484D01*
X979586Y-8536484D02*
X998634Y-8546008D01*
X998634Y-8546008D02*
X1008158Y-8555531D01*
X1008158Y-8555531D02*
X1017682Y-8574579D01*
X1017682Y-8574579D02*
X1027205Y-8612674D01*
X1027205Y-8612674D02*
X1027205Y-8660293D01*
X1027205Y-8660293D02*
X1017682Y-8698389D01*
X1017682Y-8698389D02*
X1008158Y-8717436D01*
X1008158Y-8717436D02*
X998634Y-8726960D01*
X998634Y-8726960D02*
X979586Y-8736484D01*
X979586Y-8736484D02*
X960539Y-8736484D01*
X960539Y-8736484D02*
X941491Y-8726960D01*
X941491Y-8726960D02*
X931967Y-8717436D01*
X931967Y-8717436D02*
X922443Y-8698389D01*
X922443Y-8698389D02*
X912920Y-8660293D01*
X912920Y-8660293D02*
X912920Y-8612674D01*
X912920Y-8612674D02*
X922443Y-8574579D01*
X922443Y-8574579D02*
X931967Y-8555531D01*
X931967Y-8555531D02*
X941491Y-8546008D01*
X941491Y-8546008D02*
X960539Y-8536484D01*
X1112920Y-8736484D02*
X1112920Y-8603150D01*
X1112920Y-8622198D02*
X1122444Y-8612674D01*
X1122444Y-8612674D02*
X1141491Y-8603150D01*
X1141491Y-8603150D02*
X1170063Y-8603150D01*
X1170063Y-8603150D02*
X1189110Y-8612674D01*
X1189110Y-8612674D02*
X1198634Y-8631722D01*
X1198634Y-8631722D02*
X1198634Y-8736484D01*
X1198634Y-8631722D02*
X1208158Y-8612674D01*
X1208158Y-8612674D02*
X1227205Y-8603150D01*
X1227205Y-8603150D02*
X1255777Y-8603150D01*
X1255777Y-8603150D02*
X1274825Y-8612674D01*
X1274825Y-8612674D02*
X1284348Y-8631722D01*
X1284348Y-8631722D02*
X1284348Y-8736484D01*
X1379586Y-8736484D02*
X1379586Y-8603150D01*
X1379586Y-8622198D02*
X1389110Y-8612674D01*
X1389110Y-8612674D02*
X1408158Y-8603150D01*
X1408158Y-8603150D02*
X1436729Y-8603150D01*
X1436729Y-8603150D02*
X1455777Y-8612674D01*
X1455777Y-8612674D02*
X1465301Y-8631722D01*
X1465301Y-8631722D02*
X1465301Y-8736484D01*
X1465301Y-8631722D02*
X1474824Y-8612674D01*
X1474824Y-8612674D02*
X1493872Y-8603150D01*
X1493872Y-8603150D02*
X1522443Y-8603150D01*
X1522443Y-8603150D02*
X1541491Y-8612674D01*
X1541491Y-8612674D02*
X1551015Y-8631722D01*
X1551015Y-8631722D02*
X1551015Y-8736484D01*
X1941491Y-8526960D02*
X1770063Y-8784103D01*
X2198634Y-8536484D02*
X2217682Y-8536484D01*
X2217682Y-8536484D02*
X2236729Y-8546008D01*
X2236729Y-8546008D02*
X2246253Y-8555531D01*
X2246253Y-8555531D02*
X2255777Y-8574579D01*
X2255777Y-8574579D02*
X2265301Y-8612674D01*
X2265301Y-8612674D02*
X2265301Y-8660293D01*
X2265301Y-8660293D02*
X2255777Y-8698389D01*
X2255777Y-8698389D02*
X2246253Y-8717436D01*
X2246253Y-8717436D02*
X2236729Y-8726960D01*
X2236729Y-8726960D02*
X2217682Y-8736484D01*
X2217682Y-8736484D02*
X2198634Y-8736484D01*
X2198634Y-8736484D02*
X2179587Y-8726960D01*
X2179587Y-8726960D02*
X2170063Y-8717436D01*
X2170063Y-8717436D02*
X2160539Y-8698389D01*
X2160539Y-8698389D02*
X2151015Y-8660293D01*
X2151015Y-8660293D02*
X2151015Y-8612674D01*
X2151015Y-8612674D02*
X2160539Y-8574579D01*
X2160539Y-8574579D02*
X2170063Y-8555531D01*
X2170063Y-8555531D02*
X2179587Y-8546008D01*
X2179587Y-8546008D02*
X2198634Y-8536484D01*
X2351015Y-8717436D02*
X2360539Y-8726960D01*
X2360539Y-8726960D02*
X2351015Y-8736484D01*
X2351015Y-8736484D02*
X2341491Y-8726960D01*
X2341491Y-8726960D02*
X2351015Y-8717436D01*
X2351015Y-8717436D02*
X2351015Y-8736484D01*
X2484348Y-8536484D02*
X2503396Y-8536484D01*
X2503396Y-8536484D02*
X2522444Y-8546008D01*
X2522444Y-8546008D02*
X2531968Y-8555531D01*
X2531968Y-8555531D02*
X2541491Y-8574579D01*
X2541491Y-8574579D02*
X2551015Y-8612674D01*
X2551015Y-8612674D02*
X2551015Y-8660293D01*
X2551015Y-8660293D02*
X2541491Y-8698389D01*
X2541491Y-8698389D02*
X2531968Y-8717436D01*
X2531968Y-8717436D02*
X2522444Y-8726960D01*
X2522444Y-8726960D02*
X2503396Y-8736484D01*
X2503396Y-8736484D02*
X2484348Y-8736484D01*
X2484348Y-8736484D02*
X2465301Y-8726960D01*
X2465301Y-8726960D02*
X2455777Y-8717436D01*
X2455777Y-8717436D02*
X2446253Y-8698389D01*
X2446253Y-8698389D02*
X2436729Y-8660293D01*
X2436729Y-8660293D02*
X2436729Y-8612674D01*
X2436729Y-8612674D02*
X2446253Y-8574579D01*
X2446253Y-8574579D02*
X2455777Y-8555531D01*
X2455777Y-8555531D02*
X2465301Y-8546008D01*
X2465301Y-8546008D02*
X2484348Y-8536484D01*
X2627206Y-8555531D02*
X2636729Y-8546008D01*
X2636729Y-8546008D02*
X2655777Y-8536484D01*
X2655777Y-8536484D02*
X2703396Y-8536484D01*
X2703396Y-8536484D02*
X2722444Y-8546008D01*
X2722444Y-8546008D02*
X2731968Y-8555531D01*
X2731968Y-8555531D02*
X2741491Y-8574579D01*
X2741491Y-8574579D02*
X2741491Y-8593627D01*
X2741491Y-8593627D02*
X2731968Y-8622198D01*
X2731968Y-8622198D02*
X2617682Y-8736484D01*
X2617682Y-8736484D02*
X2741491Y-8736484D01*
X2922444Y-8536484D02*
X2827206Y-8536484D01*
X2827206Y-8536484D02*
X2817682Y-8631722D01*
X2817682Y-8631722D02*
X2827206Y-8622198D01*
X2827206Y-8622198D02*
X2846253Y-8612674D01*
X2846253Y-8612674D02*
X2893872Y-8612674D01*
X2893872Y-8612674D02*
X2912920Y-8622198D01*
X2912920Y-8622198D02*
X2922444Y-8631722D01*
X2922444Y-8631722D02*
X2931967Y-8650770D01*
X2931967Y-8650770D02*
X2931967Y-8698389D01*
X2931967Y-8698389D02*
X2922444Y-8717436D01*
X2922444Y-8717436D02*
X2912920Y-8726960D01*
X2912920Y-8726960D02*
X2893872Y-8736484D01*
X2893872Y-8736484D02*
X2846253Y-8736484D01*
X2846253Y-8736484D02*
X2827206Y-8726960D01*
X2827206Y-8726960D02*
X2817682Y-8717436D01*
X3103396Y-8536484D02*
X3065301Y-8536484D01*
X3065301Y-8536484D02*
X3046253Y-8546008D01*
X3046253Y-8546008D02*
X3036729Y-8555531D01*
X3036729Y-8555531D02*
X3017682Y-8584103D01*
X3017682Y-8584103D02*
X3008158Y-8622198D01*
X3008158Y-8622198D02*
X3008158Y-8698389D01*
X3008158Y-8698389D02*
X3017682Y-8717436D01*
X3017682Y-8717436D02*
X3027206Y-8726960D01*
X3027206Y-8726960D02*
X3046253Y-8736484D01*
X3046253Y-8736484D02*
X3084348Y-8736484D01*
X3084348Y-8736484D02*
X3103396Y-8726960D01*
X3103396Y-8726960D02*
X3112920Y-8717436D01*
X3112920Y-8717436D02*
X3122444Y-8698389D01*
X3122444Y-8698389D02*
X3122444Y-8650770D01*
X3122444Y-8650770D02*
X3112920Y-8631722D01*
X3112920Y-8631722D02*
X3103396Y-8622198D01*
X3103396Y-8622198D02*
X3084348Y-8612674D01*
X3084348Y-8612674D02*
X3046253Y-8612674D01*
X3046253Y-8612674D02*
X3027206Y-8622198D01*
X3027206Y-8622198D02*
X3017682Y-8631722D01*
X3017682Y-8631722D02*
X3008158Y-8650770D01*
X3198634Y-8536484D02*
X3198634Y-8574579D01*
X3274825Y-8536484D02*
X3274825Y-8574579D01*
X3570063Y-8812674D02*
X3560539Y-8803150D01*
X3560539Y-8803150D02*
X3541491Y-8774579D01*
X3541491Y-8774579D02*
X3531968Y-8755531D01*
X3531968Y-8755531D02*
X3522444Y-8726960D01*
X3522444Y-8726960D02*
X3512920Y-8679341D01*
X3512920Y-8679341D02*
X3512920Y-8641246D01*
X3512920Y-8641246D02*
X3522444Y-8593627D01*
X3522444Y-8593627D02*
X3531968Y-8565055D01*
X3531968Y-8565055D02*
X3541491Y-8546008D01*
X3541491Y-8546008D02*
X3560539Y-8517436D01*
X3560539Y-8517436D02*
X3570063Y-8507912D01*
X3636729Y-8555531D02*
X3646253Y-8546008D01*
X3646253Y-8546008D02*
X3665301Y-8536484D01*
X3665301Y-8536484D02*
X3712920Y-8536484D01*
X3712920Y-8536484D02*
X3731968Y-8546008D01*
X3731968Y-8546008D02*
X3741491Y-8555531D01*
X3741491Y-8555531D02*
X3751015Y-8574579D01*
X3751015Y-8574579D02*
X3751015Y-8593627D01*
X3751015Y-8593627D02*
X3741491Y-8622198D01*
X3741491Y-8622198D02*
X3627206Y-8736484D01*
X3627206Y-8736484D02*
X3751015Y-8736484D01*
X3989110Y-8736484D02*
X3989110Y-8536484D01*
X4074825Y-8736484D02*
X4074825Y-8631722D01*
X4074825Y-8631722D02*
X4065301Y-8612674D01*
X4065301Y-8612674D02*
X4046253Y-8603150D01*
X4046253Y-8603150D02*
X4017682Y-8603150D01*
X4017682Y-8603150D02*
X3998634Y-8612674D01*
X3998634Y-8612674D02*
X3989110Y-8622198D01*
X4198634Y-8736484D02*
X4179587Y-8726960D01*
X4179587Y-8726960D02*
X4170063Y-8717436D01*
X4170063Y-8717436D02*
X4160539Y-8698389D01*
X4160539Y-8698389D02*
X4160539Y-8641246D01*
X4160539Y-8641246D02*
X4170063Y-8622198D01*
X4170063Y-8622198D02*
X4179587Y-8612674D01*
X4179587Y-8612674D02*
X4198634Y-8603150D01*
X4198634Y-8603150D02*
X4227206Y-8603150D01*
X4227206Y-8603150D02*
X4246253Y-8612674D01*
X4246253Y-8612674D02*
X4255777Y-8622198D01*
X4255777Y-8622198D02*
X4265301Y-8641246D01*
X4265301Y-8641246D02*
X4265301Y-8698389D01*
X4265301Y-8698389D02*
X4255777Y-8717436D01*
X4255777Y-8717436D02*
X4246253Y-8726960D01*
X4246253Y-8726960D02*
X4227206Y-8736484D01*
X4227206Y-8736484D02*
X4198634Y-8736484D01*
X4379587Y-8736484D02*
X4360539Y-8726960D01*
X4360539Y-8726960D02*
X4351015Y-8707912D01*
X4351015Y-8707912D02*
X4351015Y-8536484D01*
X4531968Y-8726960D02*
X4512920Y-8736484D01*
X4512920Y-8736484D02*
X4474825Y-8736484D01*
X4474825Y-8736484D02*
X4455777Y-8726960D01*
X4455777Y-8726960D02*
X4446253Y-8707912D01*
X4446253Y-8707912D02*
X4446253Y-8631722D01*
X4446253Y-8631722D02*
X4455777Y-8612674D01*
X4455777Y-8612674D02*
X4474825Y-8603150D01*
X4474825Y-8603150D02*
X4512920Y-8603150D01*
X4512920Y-8603150D02*
X4531968Y-8612674D01*
X4531968Y-8612674D02*
X4541492Y-8631722D01*
X4541492Y-8631722D02*
X4541492Y-8650770D01*
X4541492Y-8650770D02*
X4446253Y-8669817D01*
X4617682Y-8726960D02*
X4636730Y-8736484D01*
X4636730Y-8736484D02*
X4674825Y-8736484D01*
X4674825Y-8736484D02*
X4693873Y-8726960D01*
X4693873Y-8726960D02*
X4703396Y-8707912D01*
X4703396Y-8707912D02*
X4703396Y-8698389D01*
X4703396Y-8698389D02*
X4693873Y-8679341D01*
X4693873Y-8679341D02*
X4674825Y-8669817D01*
X4674825Y-8669817D02*
X4646253Y-8669817D01*
X4646253Y-8669817D02*
X4627206Y-8660293D01*
X4627206Y-8660293D02*
X4617682Y-8641246D01*
X4617682Y-8641246D02*
X4617682Y-8631722D01*
X4617682Y-8631722D02*
X4627206Y-8612674D01*
X4627206Y-8612674D02*
X4646253Y-8603150D01*
X4646253Y-8603150D02*
X4674825Y-8603150D01*
X4674825Y-8603150D02*
X4693873Y-8612674D01*
X4770063Y-8812674D02*
X4779587Y-8803150D01*
X4779587Y-8803150D02*
X4798634Y-8774579D01*
X4798634Y-8774579D02*
X4808158Y-8755531D01*
X4808158Y-8755531D02*
X4817682Y-8726960D01*
X4817682Y-8726960D02*
X4827206Y-8679341D01*
X4827206Y-8679341D02*
X4827206Y-8641246D01*
X4827206Y-8641246D02*
X4817682Y-8593627D01*
X4817682Y-8593627D02*
X4808158Y-8565055D01*
X4808158Y-8565055D02*
X4798634Y-8546008D01*
X4798634Y-8546008D02*
X4779587Y-8517436D01*
X4779587Y-8517436D02*
X4770063Y-8507912D01*
X5131968Y-8812674D02*
X5122444Y-8803150D01*
X5122444Y-8803150D02*
X5103396Y-8774579D01*
X5103396Y-8774579D02*
X5093873Y-8755531D01*
X5093873Y-8755531D02*
X5084349Y-8726960D01*
X5084349Y-8726960D02*
X5074825Y-8679341D01*
X5074825Y-8679341D02*
X5074825Y-8641246D01*
X5074825Y-8641246D02*
X5084349Y-8593627D01*
X5084349Y-8593627D02*
X5093873Y-8565055D01*
X5093873Y-8565055D02*
X5103396Y-8546008D01*
X5103396Y-8546008D02*
X5122444Y-8517436D01*
X5122444Y-8517436D02*
X5131968Y-8507912D01*
X5208158Y-8603150D02*
X5208158Y-8736484D01*
X5208158Y-8622198D02*
X5217682Y-8612674D01*
X5217682Y-8612674D02*
X5236730Y-8603150D01*
X5236730Y-8603150D02*
X5265301Y-8603150D01*
X5265301Y-8603150D02*
X5284349Y-8612674D01*
X5284349Y-8612674D02*
X5293873Y-8631722D01*
X5293873Y-8631722D02*
X5293873Y-8736484D01*
X5417682Y-8736484D02*
X5398634Y-8726960D01*
X5398634Y-8726960D02*
X5389111Y-8717436D01*
X5389111Y-8717436D02*
X5379587Y-8698389D01*
X5379587Y-8698389D02*
X5379587Y-8641246D01*
X5379587Y-8641246D02*
X5389111Y-8622198D01*
X5389111Y-8622198D02*
X5398634Y-8612674D01*
X5398634Y-8612674D02*
X5417682Y-8603150D01*
X5417682Y-8603150D02*
X5446254Y-8603150D01*
X5446254Y-8603150D02*
X5465301Y-8612674D01*
X5465301Y-8612674D02*
X5474825Y-8622198D01*
X5474825Y-8622198D02*
X5484349Y-8641246D01*
X5484349Y-8641246D02*
X5484349Y-8698389D01*
X5484349Y-8698389D02*
X5474825Y-8717436D01*
X5474825Y-8717436D02*
X5465301Y-8726960D01*
X5465301Y-8726960D02*
X5446254Y-8736484D01*
X5446254Y-8736484D02*
X5417682Y-8736484D01*
X5541492Y-8603150D02*
X5617682Y-8603150D01*
X5570063Y-8536484D02*
X5570063Y-8707912D01*
X5570063Y-8707912D02*
X5579587Y-8726960D01*
X5579587Y-8726960D02*
X5598634Y-8736484D01*
X5598634Y-8736484D02*
X5617682Y-8736484D01*
X5836730Y-8603150D02*
X5836730Y-8803150D01*
X5836730Y-8612674D02*
X5855777Y-8603150D01*
X5855777Y-8603150D02*
X5893873Y-8603150D01*
X5893873Y-8603150D02*
X5912920Y-8612674D01*
X5912920Y-8612674D02*
X5922444Y-8622198D01*
X5922444Y-8622198D02*
X5931968Y-8641246D01*
X5931968Y-8641246D02*
X5931968Y-8698389D01*
X5931968Y-8698389D02*
X5922444Y-8717436D01*
X5922444Y-8717436D02*
X5912920Y-8726960D01*
X5912920Y-8726960D02*
X5893873Y-8736484D01*
X5893873Y-8736484D02*
X5855777Y-8736484D01*
X5855777Y-8736484D02*
X5836730Y-8726960D01*
X6046253Y-8736484D02*
X6027206Y-8726960D01*
X6027206Y-8726960D02*
X6017682Y-8707912D01*
X6017682Y-8707912D02*
X6017682Y-8536484D01*
X6208158Y-8736484D02*
X6208158Y-8631722D01*
X6208158Y-8631722D02*
X6198634Y-8612674D01*
X6198634Y-8612674D02*
X6179587Y-8603150D01*
X6179587Y-8603150D02*
X6141492Y-8603150D01*
X6141492Y-8603150D02*
X6122444Y-8612674D01*
X6208158Y-8726960D02*
X6189111Y-8736484D01*
X6189111Y-8736484D02*
X6141492Y-8736484D01*
X6141492Y-8736484D02*
X6122444Y-8726960D01*
X6122444Y-8726960D02*
X6112920Y-8707912D01*
X6112920Y-8707912D02*
X6112920Y-8688865D01*
X6112920Y-8688865D02*
X6122444Y-8669817D01*
X6122444Y-8669817D02*
X6141492Y-8660293D01*
X6141492Y-8660293D02*
X6189111Y-8660293D01*
X6189111Y-8660293D02*
X6208158Y-8650770D01*
X6274825Y-8603150D02*
X6351015Y-8603150D01*
X6303396Y-8536484D02*
X6303396Y-8707912D01*
X6303396Y-8707912D02*
X6312920Y-8726960D01*
X6312920Y-8726960D02*
X6331968Y-8736484D01*
X6331968Y-8736484D02*
X6351015Y-8736484D01*
X6493873Y-8726960D02*
X6474825Y-8736484D01*
X6474825Y-8736484D02*
X6436730Y-8736484D01*
X6436730Y-8736484D02*
X6417682Y-8726960D01*
X6417682Y-8726960D02*
X6408158Y-8707912D01*
X6408158Y-8707912D02*
X6408158Y-8631722D01*
X6408158Y-8631722D02*
X6417682Y-8612674D01*
X6417682Y-8612674D02*
X6436730Y-8603150D01*
X6436730Y-8603150D02*
X6474825Y-8603150D01*
X6474825Y-8603150D02*
X6493873Y-8612674D01*
X6493873Y-8612674D02*
X6503396Y-8631722D01*
X6503396Y-8631722D02*
X6503396Y-8650770D01*
X6503396Y-8650770D02*
X6408158Y-8669817D01*
X6674825Y-8736484D02*
X6674825Y-8536484D01*
X6674825Y-8726960D02*
X6655777Y-8736484D01*
X6655777Y-8736484D02*
X6617682Y-8736484D01*
X6617682Y-8736484D02*
X6598634Y-8726960D01*
X6598634Y-8726960D02*
X6589111Y-8717436D01*
X6589111Y-8717436D02*
X6579587Y-8698389D01*
X6579587Y-8698389D02*
X6579587Y-8641246D01*
X6579587Y-8641246D02*
X6589111Y-8622198D01*
X6589111Y-8622198D02*
X6598634Y-8612674D01*
X6598634Y-8612674D02*
X6617682Y-8603150D01*
X6617682Y-8603150D02*
X6655777Y-8603150D01*
X6655777Y-8603150D02*
X6674825Y-8612674D01*
X6751015Y-8812674D02*
X6760539Y-8803150D01*
X6760539Y-8803150D02*
X6779587Y-8774579D01*
X6779587Y-8774579D02*
X6789111Y-8755531D01*
X6789111Y-8755531D02*
X6798634Y-8726960D01*
X6798634Y-8726960D02*
X6808158Y-8679341D01*
X6808158Y-8679341D02*
X6808158Y-8641246D01*
X6808158Y-8641246D02*
X6798634Y-8593627D01*
X6798634Y-8593627D02*
X6789111Y-8565055D01*
X6789111Y-8565055D02*
X6779587Y-8546008D01*
X6779587Y-8546008D02*
X6760539Y-8517436D01*
X6760539Y-8517436D02*
X6751015Y-8507912D01*
X-5000Y-8909000D02*
G75*
G02*
X-205000Y-8909000I-100000J0D01*
G01*
X-205000Y-8909000D02*
G75*
G02*
X-5000Y-8909000I100000J0D01*
G01*
X236729Y-8800484D02*
X360539Y-8800484D01*
X360539Y-8800484D02*
X293872Y-8876674D01*
X293872Y-8876674D02*
X322444Y-8876674D01*
X322444Y-8876674D02*
X341491Y-8886198D01*
X341491Y-8886198D02*
X351015Y-8895722D01*
X351015Y-8895722D02*
X360539Y-8914770D01*
X360539Y-8914770D02*
X360539Y-8962389D01*
X360539Y-8962389D02*
X351015Y-8981436D01*
X351015Y-8981436D02*
X341491Y-8990960D01*
X341491Y-8990960D02*
X322444Y-9000484D01*
X322444Y-9000484D02*
X265301Y-9000484D01*
X265301Y-9000484D02*
X246253Y-8990960D01*
X246253Y-8990960D02*
X236729Y-8981436D01*
X446253Y-8981436D02*
X455777Y-8990960D01*
X455777Y-8990960D02*
X446253Y-9000484D01*
X446253Y-9000484D02*
X436729Y-8990960D01*
X436729Y-8990960D02*
X446253Y-8981436D01*
X446253Y-8981436D02*
X446253Y-9000484D01*
X531967Y-8819531D02*
X541491Y-8810008D01*
X541491Y-8810008D02*
X560539Y-8800484D01*
X560539Y-8800484D02*
X608158Y-8800484D01*
X608158Y-8800484D02*
X627205Y-8810008D01*
X627205Y-8810008D02*
X636729Y-8819531D01*
X636729Y-8819531D02*
X646253Y-8838579D01*
X646253Y-8838579D02*
X646253Y-8857627D01*
X646253Y-8857627D02*
X636729Y-8886198D01*
X636729Y-8886198D02*
X522443Y-9000484D01*
X522443Y-9000484D02*
X646253Y-9000484D01*
X770062Y-8800484D02*
X789110Y-8800484D01*
X789110Y-8800484D02*
X808158Y-8810008D01*
X808158Y-8810008D02*
X817682Y-8819531D01*
X817682Y-8819531D02*
X827205Y-8838579D01*
X827205Y-8838579D02*
X836729Y-8876674D01*
X836729Y-8876674D02*
X836729Y-8924293D01*
X836729Y-8924293D02*
X827205Y-8962389D01*
X827205Y-8962389D02*
X817682Y-8981436D01*
X817682Y-8981436D02*
X808158Y-8990960D01*
X808158Y-8990960D02*
X789110Y-9000484D01*
X789110Y-9000484D02*
X770062Y-9000484D01*
X770062Y-9000484D02*
X751015Y-8990960D01*
X751015Y-8990960D02*
X741491Y-8981436D01*
X741491Y-8981436D02*
X731967Y-8962389D01*
X731967Y-8962389D02*
X722443Y-8924293D01*
X722443Y-8924293D02*
X722443Y-8876674D01*
X722443Y-8876674D02*
X731967Y-8838579D01*
X731967Y-8838579D02*
X741491Y-8819531D01*
X741491Y-8819531D02*
X751015Y-8810008D01*
X751015Y-8810008D02*
X770062Y-8800484D01*
X960539Y-8800484D02*
X979586Y-8800484D01*
X979586Y-8800484D02*
X998634Y-8810008D01*
X998634Y-8810008D02*
X1008158Y-8819531D01*
X1008158Y-8819531D02*
X1017682Y-8838579D01*
X1017682Y-8838579D02*
X1027205Y-8876674D01*
X1027205Y-8876674D02*
X1027205Y-8924293D01*
X1027205Y-8924293D02*
X1017682Y-8962389D01*
X1017682Y-8962389D02*
X1008158Y-8981436D01*
X1008158Y-8981436D02*
X998634Y-8990960D01*
X998634Y-8990960D02*
X979586Y-9000484D01*
X979586Y-9000484D02*
X960539Y-9000484D01*
X960539Y-9000484D02*
X941491Y-8990960D01*
X941491Y-8990960D02*
X931967Y-8981436D01*
X931967Y-8981436D02*
X922443Y-8962389D01*
X922443Y-8962389D02*
X912920Y-8924293D01*
X912920Y-8924293D02*
X912920Y-8876674D01*
X912920Y-8876674D02*
X922443Y-8838579D01*
X922443Y-8838579D02*
X931967Y-8819531D01*
X931967Y-8819531D02*
X941491Y-8810008D01*
X941491Y-8810008D02*
X960539Y-8800484D01*
X1112920Y-9000484D02*
X1112920Y-8867150D01*
X1112920Y-8886198D02*
X1122444Y-8876674D01*
X1122444Y-8876674D02*
X1141491Y-8867150D01*
X1141491Y-8867150D02*
X1170063Y-8867150D01*
X1170063Y-8867150D02*
X1189110Y-8876674D01*
X1189110Y-8876674D02*
X1198634Y-8895722D01*
X1198634Y-8895722D02*
X1198634Y-9000484D01*
X1198634Y-8895722D02*
X1208158Y-8876674D01*
X1208158Y-8876674D02*
X1227205Y-8867150D01*
X1227205Y-8867150D02*
X1255777Y-8867150D01*
X1255777Y-8867150D02*
X1274825Y-8876674D01*
X1274825Y-8876674D02*
X1284348Y-8895722D01*
X1284348Y-8895722D02*
X1284348Y-9000484D01*
X1379586Y-9000484D02*
X1379586Y-8867150D01*
X1379586Y-8886198D02*
X1389110Y-8876674D01*
X1389110Y-8876674D02*
X1408158Y-8867150D01*
X1408158Y-8867150D02*
X1436729Y-8867150D01*
X1436729Y-8867150D02*
X1455777Y-8876674D01*
X1455777Y-8876674D02*
X1465301Y-8895722D01*
X1465301Y-8895722D02*
X1465301Y-9000484D01*
X1465301Y-8895722D02*
X1474824Y-8876674D01*
X1474824Y-8876674D02*
X1493872Y-8867150D01*
X1493872Y-8867150D02*
X1522443Y-8867150D01*
X1522443Y-8867150D02*
X1541491Y-8876674D01*
X1541491Y-8876674D02*
X1551015Y-8895722D01*
X1551015Y-8895722D02*
X1551015Y-9000484D01*
X1941491Y-8790960D02*
X1770063Y-9048103D01*
X2198634Y-8800484D02*
X2217682Y-8800484D01*
X2217682Y-8800484D02*
X2236729Y-8810008D01*
X2236729Y-8810008D02*
X2246253Y-8819531D01*
X2246253Y-8819531D02*
X2255777Y-8838579D01*
X2255777Y-8838579D02*
X2265301Y-8876674D01*
X2265301Y-8876674D02*
X2265301Y-8924293D01*
X2265301Y-8924293D02*
X2255777Y-8962389D01*
X2255777Y-8962389D02*
X2246253Y-8981436D01*
X2246253Y-8981436D02*
X2236729Y-8990960D01*
X2236729Y-8990960D02*
X2217682Y-9000484D01*
X2217682Y-9000484D02*
X2198634Y-9000484D01*
X2198634Y-9000484D02*
X2179587Y-8990960D01*
X2179587Y-8990960D02*
X2170063Y-8981436D01*
X2170063Y-8981436D02*
X2160539Y-8962389D01*
X2160539Y-8962389D02*
X2151015Y-8924293D01*
X2151015Y-8924293D02*
X2151015Y-8876674D01*
X2151015Y-8876674D02*
X2160539Y-8838579D01*
X2160539Y-8838579D02*
X2170063Y-8819531D01*
X2170063Y-8819531D02*
X2179587Y-8810008D01*
X2179587Y-8810008D02*
X2198634Y-8800484D01*
X2351015Y-8981436D02*
X2360539Y-8990960D01*
X2360539Y-8990960D02*
X2351015Y-9000484D01*
X2351015Y-9000484D02*
X2341491Y-8990960D01*
X2341491Y-8990960D02*
X2351015Y-8981436D01*
X2351015Y-8981436D02*
X2351015Y-9000484D01*
X2551015Y-9000484D02*
X2436729Y-9000484D01*
X2493872Y-9000484D02*
X2493872Y-8800484D01*
X2493872Y-8800484D02*
X2474825Y-8829055D01*
X2474825Y-8829055D02*
X2455777Y-8848103D01*
X2455777Y-8848103D02*
X2436729Y-8857627D01*
X2627206Y-8819531D02*
X2636729Y-8810008D01*
X2636729Y-8810008D02*
X2655777Y-8800484D01*
X2655777Y-8800484D02*
X2703396Y-8800484D01*
X2703396Y-8800484D02*
X2722444Y-8810008D01*
X2722444Y-8810008D02*
X2731968Y-8819531D01*
X2731968Y-8819531D02*
X2741491Y-8838579D01*
X2741491Y-8838579D02*
X2741491Y-8857627D01*
X2741491Y-8857627D02*
X2731968Y-8886198D01*
X2731968Y-8886198D02*
X2617682Y-9000484D01*
X2617682Y-9000484D02*
X2741491Y-9000484D01*
X2912920Y-8800484D02*
X2874825Y-8800484D01*
X2874825Y-8800484D02*
X2855777Y-8810008D01*
X2855777Y-8810008D02*
X2846253Y-8819531D01*
X2846253Y-8819531D02*
X2827206Y-8848103D01*
X2827206Y-8848103D02*
X2817682Y-8886198D01*
X2817682Y-8886198D02*
X2817682Y-8962389D01*
X2817682Y-8962389D02*
X2827206Y-8981436D01*
X2827206Y-8981436D02*
X2836729Y-8990960D01*
X2836729Y-8990960D02*
X2855777Y-9000484D01*
X2855777Y-9000484D02*
X2893872Y-9000484D01*
X2893872Y-9000484D02*
X2912920Y-8990960D01*
X2912920Y-8990960D02*
X2922444Y-8981436D01*
X2922444Y-8981436D02*
X2931967Y-8962389D01*
X2931967Y-8962389D02*
X2931967Y-8914770D01*
X2931967Y-8914770D02*
X2922444Y-8895722D01*
X2922444Y-8895722D02*
X2912920Y-8886198D01*
X2912920Y-8886198D02*
X2893872Y-8876674D01*
X2893872Y-8876674D02*
X2855777Y-8876674D01*
X2855777Y-8876674D02*
X2836729Y-8886198D01*
X2836729Y-8886198D02*
X2827206Y-8895722D01*
X2827206Y-8895722D02*
X2817682Y-8914770D01*
X3055777Y-8800484D02*
X3074825Y-8800484D01*
X3074825Y-8800484D02*
X3093872Y-8810008D01*
X3093872Y-8810008D02*
X3103396Y-8819531D01*
X3103396Y-8819531D02*
X3112920Y-8838579D01*
X3112920Y-8838579D02*
X3122444Y-8876674D01*
X3122444Y-8876674D02*
X3122444Y-8924293D01*
X3122444Y-8924293D02*
X3112920Y-8962389D01*
X3112920Y-8962389D02*
X3103396Y-8981436D01*
X3103396Y-8981436D02*
X3093872Y-8990960D01*
X3093872Y-8990960D02*
X3074825Y-9000484D01*
X3074825Y-9000484D02*
X3055777Y-9000484D01*
X3055777Y-9000484D02*
X3036729Y-8990960D01*
X3036729Y-8990960D02*
X3027206Y-8981436D01*
X3027206Y-8981436D02*
X3017682Y-8962389D01*
X3017682Y-8962389D02*
X3008158Y-8924293D01*
X3008158Y-8924293D02*
X3008158Y-8876674D01*
X3008158Y-8876674D02*
X3017682Y-8838579D01*
X3017682Y-8838579D02*
X3027206Y-8819531D01*
X3027206Y-8819531D02*
X3036729Y-8810008D01*
X3036729Y-8810008D02*
X3055777Y-8800484D01*
X3198634Y-8800484D02*
X3198634Y-8838579D01*
X3274825Y-8800484D02*
X3274825Y-8838579D01*
X3570063Y-9076674D02*
X3560539Y-9067150D01*
X3560539Y-9067150D02*
X3541491Y-9038579D01*
X3541491Y-9038579D02*
X3531968Y-9019531D01*
X3531968Y-9019531D02*
X3522444Y-8990960D01*
X3522444Y-8990960D02*
X3512920Y-8943341D01*
X3512920Y-8943341D02*
X3512920Y-8905246D01*
X3512920Y-8905246D02*
X3522444Y-8857627D01*
X3522444Y-8857627D02*
X3531968Y-8829055D01*
X3531968Y-8829055D02*
X3541491Y-8810008D01*
X3541491Y-8810008D02*
X3560539Y-8781436D01*
X3560539Y-8781436D02*
X3570063Y-8771912D01*
X3731968Y-8867150D02*
X3731968Y-9000484D01*
X3684348Y-8790960D02*
X3636729Y-8933817D01*
X3636729Y-8933817D02*
X3760539Y-8933817D01*
X3989110Y-9000484D02*
X3989110Y-8800484D01*
X4074825Y-9000484D02*
X4074825Y-8895722D01*
X4074825Y-8895722D02*
X4065301Y-8876674D01*
X4065301Y-8876674D02*
X4046253Y-8867150D01*
X4046253Y-8867150D02*
X4017682Y-8867150D01*
X4017682Y-8867150D02*
X3998634Y-8876674D01*
X3998634Y-8876674D02*
X3989110Y-8886198D01*
X4198634Y-9000484D02*
X4179587Y-8990960D01*
X4179587Y-8990960D02*
X4170063Y-8981436D01*
X4170063Y-8981436D02*
X4160539Y-8962389D01*
X4160539Y-8962389D02*
X4160539Y-8905246D01*
X4160539Y-8905246D02*
X4170063Y-8886198D01*
X4170063Y-8886198D02*
X4179587Y-8876674D01*
X4179587Y-8876674D02*
X4198634Y-8867150D01*
X4198634Y-8867150D02*
X4227206Y-8867150D01*
X4227206Y-8867150D02*
X4246253Y-8876674D01*
X4246253Y-8876674D02*
X4255777Y-8886198D01*
X4255777Y-8886198D02*
X4265301Y-8905246D01*
X4265301Y-8905246D02*
X4265301Y-8962389D01*
X4265301Y-8962389D02*
X4255777Y-8981436D01*
X4255777Y-8981436D02*
X4246253Y-8990960D01*
X4246253Y-8990960D02*
X4227206Y-9000484D01*
X4227206Y-9000484D02*
X4198634Y-9000484D01*
X4379587Y-9000484D02*
X4360539Y-8990960D01*
X4360539Y-8990960D02*
X4351015Y-8971912D01*
X4351015Y-8971912D02*
X4351015Y-8800484D01*
X4531968Y-8990960D02*
X4512920Y-9000484D01*
X4512920Y-9000484D02*
X4474825Y-9000484D01*
X4474825Y-9000484D02*
X4455777Y-8990960D01*
X4455777Y-8990960D02*
X4446253Y-8971912D01*
X4446253Y-8971912D02*
X4446253Y-8895722D01*
X4446253Y-8895722D02*
X4455777Y-8876674D01*
X4455777Y-8876674D02*
X4474825Y-8867150D01*
X4474825Y-8867150D02*
X4512920Y-8867150D01*
X4512920Y-8867150D02*
X4531968Y-8876674D01*
X4531968Y-8876674D02*
X4541492Y-8895722D01*
X4541492Y-8895722D02*
X4541492Y-8914770D01*
X4541492Y-8914770D02*
X4446253Y-8933817D01*
X4617682Y-8990960D02*
X4636730Y-9000484D01*
X4636730Y-9000484D02*
X4674825Y-9000484D01*
X4674825Y-9000484D02*
X4693873Y-8990960D01*
X4693873Y-8990960D02*
X4703396Y-8971912D01*
X4703396Y-8971912D02*
X4703396Y-8962389D01*
X4703396Y-8962389D02*
X4693873Y-8943341D01*
X4693873Y-8943341D02*
X4674825Y-8933817D01*
X4674825Y-8933817D02*
X4646253Y-8933817D01*
X4646253Y-8933817D02*
X4627206Y-8924293D01*
X4627206Y-8924293D02*
X4617682Y-8905246D01*
X4617682Y-8905246D02*
X4617682Y-8895722D01*
X4617682Y-8895722D02*
X4627206Y-8876674D01*
X4627206Y-8876674D02*
X4646253Y-8867150D01*
X4646253Y-8867150D02*
X4674825Y-8867150D01*
X4674825Y-8867150D02*
X4693873Y-8876674D01*
X4770063Y-9076674D02*
X4779587Y-9067150D01*
X4779587Y-9067150D02*
X4798634Y-9038579D01*
X4798634Y-9038579D02*
X4808158Y-9019531D01*
X4808158Y-9019531D02*
X4817682Y-8990960D01*
X4817682Y-8990960D02*
X4827206Y-8943341D01*
X4827206Y-8943341D02*
X4827206Y-8905246D01*
X4827206Y-8905246D02*
X4817682Y-8857627D01*
X4817682Y-8857627D02*
X4808158Y-8829055D01*
X4808158Y-8829055D02*
X4798634Y-8810008D01*
X4798634Y-8810008D02*
X4779587Y-8781436D01*
X4779587Y-8781436D02*
X4770063Y-8771912D01*
X5131968Y-9076674D02*
X5122444Y-9067150D01*
X5122444Y-9067150D02*
X5103396Y-9038579D01*
X5103396Y-9038579D02*
X5093873Y-9019531D01*
X5093873Y-9019531D02*
X5084349Y-8990960D01*
X5084349Y-8990960D02*
X5074825Y-8943341D01*
X5074825Y-8943341D02*
X5074825Y-8905246D01*
X5074825Y-8905246D02*
X5084349Y-8857627D01*
X5084349Y-8857627D02*
X5093873Y-8829055D01*
X5093873Y-8829055D02*
X5103396Y-8810008D01*
X5103396Y-8810008D02*
X5122444Y-8781436D01*
X5122444Y-8781436D02*
X5131968Y-8771912D01*
X5208158Y-8867150D02*
X5208158Y-9000484D01*
X5208158Y-8886198D02*
X5217682Y-8876674D01*
X5217682Y-8876674D02*
X5236730Y-8867150D01*
X5236730Y-8867150D02*
X5265301Y-8867150D01*
X5265301Y-8867150D02*
X5284349Y-8876674D01*
X5284349Y-8876674D02*
X5293873Y-8895722D01*
X5293873Y-8895722D02*
X5293873Y-9000484D01*
X5417682Y-9000484D02*
X5398634Y-8990960D01*
X5398634Y-8990960D02*
X5389111Y-8981436D01*
X5389111Y-8981436D02*
X5379587Y-8962389D01*
X5379587Y-8962389D02*
X5379587Y-8905246D01*
X5379587Y-8905246D02*
X5389111Y-8886198D01*
X5389111Y-8886198D02*
X5398634Y-8876674D01*
X5398634Y-8876674D02*
X5417682Y-8867150D01*
X5417682Y-8867150D02*
X5446254Y-8867150D01*
X5446254Y-8867150D02*
X5465301Y-8876674D01*
X5465301Y-8876674D02*
X5474825Y-8886198D01*
X5474825Y-8886198D02*
X5484349Y-8905246D01*
X5484349Y-8905246D02*
X5484349Y-8962389D01*
X5484349Y-8962389D02*
X5474825Y-8981436D01*
X5474825Y-8981436D02*
X5465301Y-8990960D01*
X5465301Y-8990960D02*
X5446254Y-9000484D01*
X5446254Y-9000484D02*
X5417682Y-9000484D01*
X5541492Y-8867150D02*
X5617682Y-8867150D01*
X5570063Y-8800484D02*
X5570063Y-8971912D01*
X5570063Y-8971912D02*
X5579587Y-8990960D01*
X5579587Y-8990960D02*
X5598634Y-9000484D01*
X5598634Y-9000484D02*
X5617682Y-9000484D01*
X5836730Y-8867150D02*
X5836730Y-9067150D01*
X5836730Y-8876674D02*
X5855777Y-8867150D01*
X5855777Y-8867150D02*
X5893873Y-8867150D01*
X5893873Y-8867150D02*
X5912920Y-8876674D01*
X5912920Y-8876674D02*
X5922444Y-8886198D01*
X5922444Y-8886198D02*
X5931968Y-8905246D01*
X5931968Y-8905246D02*
X5931968Y-8962389D01*
X5931968Y-8962389D02*
X5922444Y-8981436D01*
X5922444Y-8981436D02*
X5912920Y-8990960D01*
X5912920Y-8990960D02*
X5893873Y-9000484D01*
X5893873Y-9000484D02*
X5855777Y-9000484D01*
X5855777Y-9000484D02*
X5836730Y-8990960D01*
X6046253Y-9000484D02*
X6027206Y-8990960D01*
X6027206Y-8990960D02*
X6017682Y-8971912D01*
X6017682Y-8971912D02*
X6017682Y-8800484D01*
X6208158Y-9000484D02*
X6208158Y-8895722D01*
X6208158Y-8895722D02*
X6198634Y-8876674D01*
X6198634Y-8876674D02*
X6179587Y-8867150D01*
X6179587Y-8867150D02*
X6141492Y-8867150D01*
X6141492Y-8867150D02*
X6122444Y-8876674D01*
X6208158Y-8990960D02*
X6189111Y-9000484D01*
X6189111Y-9000484D02*
X6141492Y-9000484D01*
X6141492Y-9000484D02*
X6122444Y-8990960D01*
X6122444Y-8990960D02*
X6112920Y-8971912D01*
X6112920Y-8971912D02*
X6112920Y-8952865D01*
X6112920Y-8952865D02*
X6122444Y-8933817D01*
X6122444Y-8933817D02*
X6141492Y-8924293D01*
X6141492Y-8924293D02*
X6189111Y-8924293D01*
X6189111Y-8924293D02*
X6208158Y-8914770D01*
X6274825Y-8867150D02*
X6351015Y-8867150D01*
X6303396Y-8800484D02*
X6303396Y-8971912D01*
X6303396Y-8971912D02*
X6312920Y-8990960D01*
X6312920Y-8990960D02*
X6331968Y-9000484D01*
X6331968Y-9000484D02*
X6351015Y-9000484D01*
X6493873Y-8990960D02*
X6474825Y-9000484D01*
X6474825Y-9000484D02*
X6436730Y-9000484D01*
X6436730Y-9000484D02*
X6417682Y-8990960D01*
X6417682Y-8990960D02*
X6408158Y-8971912D01*
X6408158Y-8971912D02*
X6408158Y-8895722D01*
X6408158Y-8895722D02*
X6417682Y-8876674D01*
X6417682Y-8876674D02*
X6436730Y-8867150D01*
X6436730Y-8867150D02*
X6474825Y-8867150D01*
X6474825Y-8867150D02*
X6493873Y-8876674D01*
X6493873Y-8876674D02*
X6503396Y-8895722D01*
X6503396Y-8895722D02*
X6503396Y-8914770D01*
X6503396Y-8914770D02*
X6408158Y-8933817D01*
X6674825Y-9000484D02*
X6674825Y-8800484D01*
X6674825Y-8990960D02*
X6655777Y-9000484D01*
X6655777Y-9000484D02*
X6617682Y-9000484D01*
X6617682Y-9000484D02*
X6598634Y-8990960D01*
X6598634Y-8990960D02*
X6589111Y-8981436D01*
X6589111Y-8981436D02*
X6579587Y-8962389D01*
X6579587Y-8962389D02*
X6579587Y-8905246D01*
X6579587Y-8905246D02*
X6589111Y-8886198D01*
X6589111Y-8886198D02*
X6598634Y-8876674D01*
X6598634Y-8876674D02*
X6617682Y-8867150D01*
X6617682Y-8867150D02*
X6655777Y-8867150D01*
X6655777Y-8867150D02*
X6674825Y-8876674D01*
X6751015Y-9076674D02*
X6760539Y-9067150D01*
X6760539Y-9067150D02*
X6779587Y-9038579D01*
X6779587Y-9038579D02*
X6789111Y-9019531D01*
X6789111Y-9019531D02*
X6798634Y-8990960D01*
X6798634Y-8990960D02*
X6808158Y-8943341D01*
X6808158Y-8943341D02*
X6808158Y-8905246D01*
X6808158Y-8905246D02*
X6798634Y-8857627D01*
X6798634Y-8857627D02*
X6789111Y-8829055D01*
X6789111Y-8829055D02*
X6779587Y-8810008D01*
X6779587Y-8810008D02*
X6760539Y-8781436D01*
X6760539Y-8781436D02*
X6751015Y-8771912D01*
M02*
