%TF.GenerationSoftware,KiCad,Pcbnew,10.0.5*%
%TF.CreationDate,2026-08-07T23:43:03+02:00*%
%TF.ProjectId,wisp,77697370-2e6b-4696-9361-645f70636258,rev?*%
%TF.SameCoordinates,Original*%
%TF.FileFunction,Other,User*%
%FSLAX46Y46*%
G04 Gerber Fmt 4.6, Leading zero omitted, Abs format (unit mm)*
G04 Created by KiCad (PCBNEW 10.0.5) date 2026-08-07 23:43:03*
%MOMM*%
%LPD*%
G01*
G04 APERTURE LIST*
%ADD10C,0.050000*%
G04 APERTURE END LIST*
%TO.C,J3*%
D10*
X91563300Y-43230000D02*
X95103300Y-43230000D01*
X95103300Y-54390000D01*
X91563300Y-54390000D01*
X91563300Y-43230000D01*
%TO.C,TP9*%
X22750000Y-41250000D02*
X22750000Y-43750000D01*
X22750000Y-41250000D02*
X25250000Y-41250000D01*
X25250000Y-43750000D02*
X22750000Y-43750000D01*
X25250000Y-43750000D02*
X25250000Y-41250000D01*
%TO.C,BZ1*%
X13416700Y-85150000D02*
X13916700Y-85150000D01*
X13416700Y-89850000D02*
X13416700Y-85150000D01*
X13916700Y-82750000D02*
X23416700Y-82750000D01*
X13916700Y-85150000D02*
X13916700Y-82750000D01*
X13916700Y-89850000D02*
X13416700Y-89850000D01*
X13916700Y-92250000D02*
X13916700Y-89850000D01*
X23416700Y-82750000D02*
X23416700Y-85150000D01*
X23416700Y-85150000D02*
X23916700Y-85150000D01*
X23416700Y-89850000D02*
X23416700Y-92250000D01*
X23416700Y-92250000D02*
X13916700Y-92250000D01*
X23916700Y-85150000D02*
X23916700Y-89850000D01*
X23916700Y-89850000D02*
X23416700Y-89850000D01*
%TO.C,TP3*%
X38750000Y-41250000D02*
X38750000Y-43750000D01*
X38750000Y-41250000D02*
X41250000Y-41250000D01*
X41250000Y-43750000D02*
X38750000Y-43750000D01*
X41250000Y-43750000D02*
X41250000Y-41250000D01*
%TO.C,J5*%
X27563300Y-73230000D02*
X31103300Y-73230000D01*
X31103300Y-79320000D01*
X27563300Y-79320000D01*
X27563300Y-73230000D01*
%TO.C,SW1*%
X5150000Y-48150000D02*
X10850000Y-48150000D01*
X5150000Y-51850000D02*
X5150000Y-48150000D01*
X10850000Y-48150000D02*
X10850000Y-51850000D01*
X10850000Y-51850000D02*
X5150000Y-51850000D01*
%TO.C,MH4*%
X98116700Y-95000000D02*
G75*
G02*
X91216700Y-95000000I-3450000J0D01*
G01*
X91216700Y-95000000D02*
G75*
G02*
X98116700Y-95000000I3450000J0D01*
G01*
%TO.C,TP7*%
X38750000Y-45000000D02*
X38750000Y-47500000D01*
X38750000Y-45000000D02*
X41250000Y-45000000D01*
X41250000Y-47500000D02*
X38750000Y-47500000D01*
X41250000Y-47500000D02*
X41250000Y-45000000D01*
%TO.C,TP2*%
X34750000Y-41250000D02*
X34750000Y-43750000D01*
X34750000Y-41250000D02*
X37250000Y-41250000D01*
X37250000Y-43750000D02*
X34750000Y-43750000D01*
X37250000Y-43750000D02*
X37250000Y-41250000D01*
%TO.C,U5*%
X51583300Y-53250000D02*
X55083300Y-53250000D01*
X55083300Y-56750000D01*
X51583300Y-56750000D01*
X51583300Y-53250000D01*
%TO.C,U4*%
X26650000Y-54320000D02*
X26700000Y-54320000D01*
X26650000Y-60680000D02*
X26650000Y-54320000D01*
X26700000Y-52200000D02*
X28820000Y-52200000D01*
X26700000Y-54320000D02*
X26700000Y-52200000D01*
X26700000Y-60680000D02*
X26650000Y-60680000D01*
X26700000Y-62800000D02*
X26700000Y-60680000D01*
X28820000Y-52150000D02*
X35180000Y-52150000D01*
X28820000Y-52200000D02*
X28820000Y-52150000D01*
X28820000Y-62800000D02*
X26700000Y-62800000D01*
X28820000Y-62850000D02*
X28820000Y-62800000D01*
X35180000Y-52150000D02*
X35180000Y-52200000D01*
X35180000Y-52200000D02*
X37300000Y-52200000D01*
X35180000Y-62800000D02*
X35180000Y-62850000D01*
X35180000Y-62850000D02*
X28820000Y-62850000D01*
X37300000Y-52200000D02*
X37300000Y-54320000D01*
X37300000Y-54320000D02*
X37350000Y-54320000D01*
X37300000Y-60680000D02*
X37300000Y-62800000D01*
X37300000Y-62800000D02*
X35180000Y-62800000D01*
X37350000Y-54320000D02*
X37350000Y-60680000D01*
X37350000Y-60680000D02*
X37300000Y-60680000D01*
%TO.C,SW2*%
X13150000Y-48150000D02*
X18850000Y-48150000D01*
X13150000Y-51850000D02*
X13150000Y-48150000D01*
X18850000Y-48150000D02*
X18850000Y-51850000D01*
X18850000Y-51850000D02*
X13150000Y-51850000D01*
%TO.C,MH1*%
X8783300Y-5000000D02*
G75*
G02*
X1883300Y-5000000I-3450000J0D01*
G01*
X1883300Y-5000000D02*
G75*
G02*
X8783300Y-5000000I3450000J0D01*
G01*
%TO.C,TP10*%
X46750000Y-45000000D02*
X46750000Y-47500000D01*
X46750000Y-45000000D02*
X49250000Y-45000000D01*
X49250000Y-47500000D02*
X46750000Y-47500000D01*
X49250000Y-47500000D02*
X49250000Y-45000000D01*
%TO.C,J1*%
X17396700Y-5930000D02*
X26816700Y-5930000D01*
X17396700Y-16570000D02*
X17396700Y-5930000D01*
X17396700Y-16570000D02*
X26816700Y-16570000D01*
X26816700Y-16570000D02*
X26816700Y-5930000D01*
%TO.C,U2*%
X45950000Y-11000000D02*
X46950000Y-11000000D01*
X45950000Y-14000000D02*
X45950000Y-11000000D01*
X46950000Y-10800000D02*
X49050000Y-10800000D01*
X46950000Y-11000000D02*
X46950000Y-10800000D01*
X46950000Y-14000000D02*
X45950000Y-14000000D01*
X46950000Y-14200000D02*
X46950000Y-14000000D01*
X49050000Y-10800000D02*
X49050000Y-11000000D01*
X49050000Y-11000000D02*
X50050000Y-11000000D01*
X49050000Y-14000000D02*
X49050000Y-14200000D01*
X49050000Y-14200000D02*
X46950000Y-14200000D01*
X50050000Y-11000000D02*
X50050000Y-14000000D01*
X50050000Y-14000000D02*
X49050000Y-14000000D01*
%TO.C,U3*%
X9833300Y6250000D02*
X28833300Y6250000D01*
X28833300Y-20750000D01*
X9833300Y-20750000D01*
X9833300Y6250000D01*
%TO.C,TP5*%
X30750000Y-45000000D02*
X30750000Y-47500000D01*
X30750000Y-45000000D02*
X33250000Y-45000000D01*
X33250000Y-47500000D02*
X30750000Y-47500000D01*
X33250000Y-47500000D02*
X33250000Y-45000000D01*
%TO.C,MH3*%
X8783300Y-95000000D02*
G75*
G02*
X1883300Y-95000000I-3450000J0D01*
G01*
X1883300Y-95000000D02*
G75*
G02*
X8783300Y-95000000I3450000J0D01*
G01*
%TO.C,J2*%
X91563300Y-23230000D02*
X95103300Y-23230000D01*
X95103300Y-34390000D01*
X91563300Y-34390000D01*
X91563300Y-23230000D01*
%TO.C,J7*%
X48896700Y-73230000D02*
X52436700Y-73230000D01*
X52436700Y-81850000D01*
X48896700Y-81850000D01*
X48896700Y-73230000D01*
%TO.C,TP1*%
X30750000Y-41250000D02*
X30750000Y-43750000D01*
X30750000Y-41250000D02*
X33250000Y-41250000D01*
X33250000Y-43750000D02*
X30750000Y-43750000D01*
X33250000Y-43750000D02*
X33250000Y-41250000D01*
%TO.C,D1*%
X31216700Y-4750000D02*
X31216700Y-10250000D01*
X31216700Y-10250000D02*
X38116700Y-10250000D01*
X38116700Y-4750000D02*
X31216700Y-4750000D01*
X38116700Y-10250000D02*
X38116700Y-4750000D01*
%TO.C,J9*%
X72896700Y-73230000D02*
X76436700Y-73230000D01*
X76436700Y-89470000D01*
X72896700Y-89470000D01*
X72896700Y-73230000D01*
%TO.C,MH2*%
X98116700Y-5000000D02*
G75*
G02*
X91216700Y-5000000I-3450000J0D01*
G01*
X91216700Y-5000000D02*
G75*
G02*
X98116700Y-5000000I3450000J0D01*
G01*
%TO.C,TP4*%
X42750000Y-41250000D02*
X42750000Y-43750000D01*
X42750000Y-41250000D02*
X45250000Y-41250000D01*
X45250000Y-43750000D02*
X42750000Y-43750000D01*
X45250000Y-43750000D02*
X45250000Y-41250000D01*
%TO.C,TP6*%
X34750000Y-45000000D02*
X34750000Y-47500000D01*
X34750000Y-45000000D02*
X37250000Y-45000000D01*
X37250000Y-47500000D02*
X34750000Y-47500000D01*
X37250000Y-47500000D02*
X37250000Y-45000000D01*
%TO.C,J4*%
X91563300Y-63230000D02*
X95103300Y-63230000D01*
X95103300Y-76930000D01*
X91563300Y-76930000D01*
X91563300Y-63230000D01*
%TO.C,TP8*%
X42750000Y-45000000D02*
X42750000Y-47500000D01*
X42750000Y-45000000D02*
X45250000Y-45000000D01*
X45250000Y-47500000D02*
X42750000Y-47500000D01*
X45250000Y-47500000D02*
X45250000Y-45000000D01*
%TO.C,J8*%
X59563300Y-73230000D02*
X63103300Y-73230000D01*
X63103300Y-81850000D01*
X59563300Y-81850000D01*
X59563300Y-73230000D01*
%TO.C,J6*%
X38230000Y-73230000D02*
X41770000Y-73230000D01*
X41770000Y-79320000D01*
X38230000Y-79320000D01*
X38230000Y-73230000D01*
%TO.C,L1*%
X45720000Y-19670000D02*
X50280000Y-19670000D01*
X50280000Y-22830000D01*
X45720000Y-22830000D01*
X45720000Y-19670000D01*
%TD*%
M02*
