%TF.GenerationSoftware,KiCad,Pcbnew,10.0.5*%
%TF.CreationDate,2026-08-08T18:07:34+02:00*%
%TF.ProjectId,wisp,77697370-2e6b-4696-9361-645f70636258,rev?*%
%TF.SameCoordinates,Original*%
%TF.FileFunction,Drillmap*%
%TF.FilePolarity,Positive*%
%FSLAX45Y45*%
G04 Gerber Fmt 4.5, Leading zero omitted, Abs format (unit mm)*
G04 Created by KiCad (PCBNEW 10.0.5) date 2026-08-08 18:07:34*
%MOMM*%
%LPD*%
G01*
G04 APERTURE LIST*
%ADD10C,0.050000*%
%ADD11C,0.200000*%
%ADD12C,0.100000*%
%ADD13C,0.320000*%
G04 APERTURE END LIST*
D10*
X0Y0D02*
X6000000Y0D01*
X0Y-8000000D02*
X0Y0D01*
X1800000Y-6050000D02*
X1800000Y-8000000D01*
X1800000Y-8000000D02*
X0Y-8000000D01*
X1950000Y-6200000D02*
X4000000Y-6200000D01*
X1950000Y-8000000D02*
X1950000Y-6200000D01*
X4000000Y-6050000D02*
X1800000Y-6050000D01*
X4000000Y-6200000D02*
X4000000Y-6050000D01*
X4900000Y-6200000D02*
X4900000Y-8000000D01*
X4900000Y-8000000D02*
X1950000Y-8000000D01*
X5050000Y-6200000D02*
X4900000Y-6200000D01*
X5050000Y-8000000D02*
X5050000Y-6200000D01*
X6000000Y0D02*
X6000000Y-8000000D01*
X6000000Y-8000000D02*
X5050000Y-8000000D01*
D11*
D12*
X228500Y-3707500D02*
X293500Y-3772500D01*
X293500Y-3707500D02*
X228500Y-3772500D01*
X806500Y-3707500D02*
X871500Y-3772500D01*
X871500Y-3707500D02*
X806500Y-3772500D01*
D13*
X510000Y-400000D02*
G75*
G02*
X190000Y-400000I-160000J0D01*
G01*
X190000Y-400000D02*
G75*
G02*
X510000Y-400000I160000J0D01*
G01*
X560000Y-7600000D02*
G75*
G02*
X240000Y-7600000I-160000J0D01*
G01*
X240000Y-7600000D02*
G75*
G02*
X560000Y-7600000I160000J0D01*
G01*
X5760000Y-7600000D02*
G75*
G02*
X5440000Y-7600000I-160000J0D01*
G01*
X5440000Y-7600000D02*
G75*
G02*
X5760000Y-7600000I160000J0D01*
G01*
X5810000Y-400000D02*
G75*
G02*
X5490000Y-400000I-160000J0D01*
G01*
X5490000Y-400000D02*
G75*
G02*
X5810000Y-400000I160000J0D01*
G01*
D11*
X258277Y-8313984D02*
X258277Y-8113984D01*
X258277Y-8113984D02*
X305896Y-8113984D01*
X305896Y-8113984D02*
X334467Y-8123508D01*
X334467Y-8123508D02*
X353515Y-8142555D01*
X353515Y-8142555D02*
X363039Y-8161603D01*
X363039Y-8161603D02*
X372562Y-8199698D01*
X372562Y-8199698D02*
X372562Y-8228269D01*
X372562Y-8228269D02*
X363039Y-8266365D01*
X363039Y-8266365D02*
X353515Y-8285412D01*
X353515Y-8285412D02*
X334467Y-8304460D01*
X334467Y-8304460D02*
X305896Y-8313984D01*
X305896Y-8313984D02*
X258277Y-8313984D01*
X458277Y-8313984D02*
X458277Y-8180650D01*
X458277Y-8218746D02*
X467801Y-8199698D01*
X467801Y-8199698D02*
X477324Y-8190174D01*
X477324Y-8190174D02*
X496372Y-8180650D01*
X496372Y-8180650D02*
X515420Y-8180650D01*
X582086Y-8313984D02*
X582086Y-8180650D01*
X582086Y-8113984D02*
X572563Y-8123508D01*
X572563Y-8123508D02*
X582086Y-8133031D01*
X582086Y-8133031D02*
X591610Y-8123508D01*
X591610Y-8123508D02*
X582086Y-8113984D01*
X582086Y-8113984D02*
X582086Y-8133031D01*
X705896Y-8313984D02*
X686848Y-8304460D01*
X686848Y-8304460D02*
X677324Y-8285412D01*
X677324Y-8285412D02*
X677324Y-8113984D01*
X810658Y-8313984D02*
X791610Y-8304460D01*
X791610Y-8304460D02*
X782086Y-8285412D01*
X782086Y-8285412D02*
X782086Y-8113984D01*
X1039229Y-8313984D02*
X1039229Y-8113984D01*
X1039229Y-8113984D02*
X1105896Y-8256841D01*
X1105896Y-8256841D02*
X1172563Y-8113984D01*
X1172563Y-8113984D02*
X1172563Y-8313984D01*
X1353515Y-8313984D02*
X1353515Y-8209222D01*
X1353515Y-8209222D02*
X1343991Y-8190174D01*
X1343991Y-8190174D02*
X1324944Y-8180650D01*
X1324944Y-8180650D02*
X1286848Y-8180650D01*
X1286848Y-8180650D02*
X1267801Y-8190174D01*
X1353515Y-8304460D02*
X1334467Y-8313984D01*
X1334467Y-8313984D02*
X1286848Y-8313984D01*
X1286848Y-8313984D02*
X1267801Y-8304460D01*
X1267801Y-8304460D02*
X1258277Y-8285412D01*
X1258277Y-8285412D02*
X1258277Y-8266365D01*
X1258277Y-8266365D02*
X1267801Y-8247317D01*
X1267801Y-8247317D02*
X1286848Y-8237793D01*
X1286848Y-8237793D02*
X1334467Y-8237793D01*
X1334467Y-8237793D02*
X1353515Y-8228269D01*
X1448753Y-8180650D02*
X1448753Y-8380650D01*
X1448753Y-8190174D02*
X1467801Y-8180650D01*
X1467801Y-8180650D02*
X1505896Y-8180650D01*
X1505896Y-8180650D02*
X1524943Y-8190174D01*
X1524943Y-8190174D02*
X1534467Y-8199698D01*
X1534467Y-8199698D02*
X1543991Y-8218746D01*
X1543991Y-8218746D02*
X1543991Y-8275888D01*
X1543991Y-8275888D02*
X1534467Y-8294936D01*
X1534467Y-8294936D02*
X1524943Y-8304460D01*
X1524943Y-8304460D02*
X1505896Y-8313984D01*
X1505896Y-8313984D02*
X1467801Y-8313984D01*
X1467801Y-8313984D02*
X1448753Y-8304460D01*
X1629705Y-8294936D02*
X1639229Y-8304460D01*
X1639229Y-8304460D02*
X1629705Y-8313984D01*
X1629705Y-8313984D02*
X1620182Y-8304460D01*
X1620182Y-8304460D02*
X1629705Y-8294936D01*
X1629705Y-8294936D02*
X1629705Y-8313984D01*
X1629705Y-8190174D02*
X1639229Y-8199698D01*
X1639229Y-8199698D02*
X1629705Y-8209222D01*
X1629705Y-8209222D02*
X1620182Y-8199698D01*
X1620182Y-8199698D02*
X1629705Y-8190174D01*
X1629705Y-8190174D02*
X1629705Y-8209222D01*
D12*
X-67500Y-8610000D02*
X-2500Y-8675000D01*
X-2500Y-8610000D02*
X-67500Y-8675000D01*
D11*
X296372Y-8533984D02*
X315420Y-8533984D01*
X315420Y-8533984D02*
X334467Y-8543508D01*
X334467Y-8543508D02*
X343991Y-8553031D01*
X343991Y-8553031D02*
X353515Y-8572079D01*
X353515Y-8572079D02*
X363039Y-8610174D01*
X363039Y-8610174D02*
X363039Y-8657793D01*
X363039Y-8657793D02*
X353515Y-8695889D01*
X353515Y-8695889D02*
X343991Y-8714936D01*
X343991Y-8714936D02*
X334467Y-8724460D01*
X334467Y-8724460D02*
X315420Y-8733984D01*
X315420Y-8733984D02*
X296372Y-8733984D01*
X296372Y-8733984D02*
X277324Y-8724460D01*
X277324Y-8724460D02*
X267801Y-8714936D01*
X267801Y-8714936D02*
X258277Y-8695889D01*
X258277Y-8695889D02*
X248753Y-8657793D01*
X248753Y-8657793D02*
X248753Y-8610174D01*
X248753Y-8610174D02*
X258277Y-8572079D01*
X258277Y-8572079D02*
X267801Y-8553031D01*
X267801Y-8553031D02*
X277324Y-8543508D01*
X277324Y-8543508D02*
X296372Y-8533984D01*
X448753Y-8714936D02*
X458277Y-8724460D01*
X458277Y-8724460D02*
X448753Y-8733984D01*
X448753Y-8733984D02*
X439229Y-8724460D01*
X439229Y-8724460D02*
X448753Y-8714936D01*
X448753Y-8714936D02*
X448753Y-8733984D01*
X629705Y-8533984D02*
X591610Y-8533984D01*
X591610Y-8533984D02*
X572563Y-8543508D01*
X572563Y-8543508D02*
X563039Y-8553031D01*
X563039Y-8553031D02*
X543991Y-8581603D01*
X543991Y-8581603D02*
X534467Y-8619698D01*
X534467Y-8619698D02*
X534467Y-8695889D01*
X534467Y-8695889D02*
X543991Y-8714936D01*
X543991Y-8714936D02*
X553515Y-8724460D01*
X553515Y-8724460D02*
X572563Y-8733984D01*
X572563Y-8733984D02*
X610658Y-8733984D01*
X610658Y-8733984D02*
X629705Y-8724460D01*
X629705Y-8724460D02*
X639229Y-8714936D01*
X639229Y-8714936D02*
X648753Y-8695889D01*
X648753Y-8695889D02*
X648753Y-8648270D01*
X648753Y-8648270D02*
X639229Y-8629222D01*
X639229Y-8629222D02*
X629705Y-8619698D01*
X629705Y-8619698D02*
X610658Y-8610174D01*
X610658Y-8610174D02*
X572563Y-8610174D01*
X572563Y-8610174D02*
X553515Y-8619698D01*
X553515Y-8619698D02*
X543991Y-8629222D01*
X543991Y-8629222D02*
X534467Y-8648270D01*
X829705Y-8533984D02*
X734467Y-8533984D01*
X734467Y-8533984D02*
X724943Y-8629222D01*
X724943Y-8629222D02*
X734467Y-8619698D01*
X734467Y-8619698D02*
X753515Y-8610174D01*
X753515Y-8610174D02*
X801134Y-8610174D01*
X801134Y-8610174D02*
X820182Y-8619698D01*
X820182Y-8619698D02*
X829705Y-8629222D01*
X829705Y-8629222D02*
X839229Y-8648270D01*
X839229Y-8648270D02*
X839229Y-8695889D01*
X839229Y-8695889D02*
X829705Y-8714936D01*
X829705Y-8714936D02*
X820182Y-8724460D01*
X820182Y-8724460D02*
X801134Y-8733984D01*
X801134Y-8733984D02*
X753515Y-8733984D01*
X753515Y-8733984D02*
X734467Y-8724460D01*
X734467Y-8724460D02*
X724943Y-8714936D01*
X963039Y-8533984D02*
X982086Y-8533984D01*
X982086Y-8533984D02*
X1001134Y-8543508D01*
X1001134Y-8543508D02*
X1010658Y-8553031D01*
X1010658Y-8553031D02*
X1020182Y-8572079D01*
X1020182Y-8572079D02*
X1029705Y-8610174D01*
X1029705Y-8610174D02*
X1029705Y-8657793D01*
X1029705Y-8657793D02*
X1020182Y-8695889D01*
X1020182Y-8695889D02*
X1010658Y-8714936D01*
X1010658Y-8714936D02*
X1001134Y-8724460D01*
X1001134Y-8724460D02*
X982086Y-8733984D01*
X982086Y-8733984D02*
X963039Y-8733984D01*
X963039Y-8733984D02*
X943991Y-8724460D01*
X943991Y-8724460D02*
X934467Y-8714936D01*
X934467Y-8714936D02*
X924943Y-8695889D01*
X924943Y-8695889D02*
X915420Y-8657793D01*
X915420Y-8657793D02*
X915420Y-8610174D01*
X915420Y-8610174D02*
X924943Y-8572079D01*
X924943Y-8572079D02*
X934467Y-8553031D01*
X934467Y-8553031D02*
X943991Y-8543508D01*
X943991Y-8543508D02*
X963039Y-8533984D01*
X1115420Y-8733984D02*
X1115420Y-8600650D01*
X1115420Y-8619698D02*
X1124944Y-8610174D01*
X1124944Y-8610174D02*
X1143991Y-8600650D01*
X1143991Y-8600650D02*
X1172563Y-8600650D01*
X1172563Y-8600650D02*
X1191610Y-8610174D01*
X1191610Y-8610174D02*
X1201134Y-8629222D01*
X1201134Y-8629222D02*
X1201134Y-8733984D01*
X1201134Y-8629222D02*
X1210658Y-8610174D01*
X1210658Y-8610174D02*
X1229705Y-8600650D01*
X1229705Y-8600650D02*
X1258277Y-8600650D01*
X1258277Y-8600650D02*
X1277325Y-8610174D01*
X1277325Y-8610174D02*
X1286848Y-8629222D01*
X1286848Y-8629222D02*
X1286848Y-8733984D01*
X1382086Y-8733984D02*
X1382086Y-8600650D01*
X1382086Y-8619698D02*
X1391610Y-8610174D01*
X1391610Y-8610174D02*
X1410658Y-8600650D01*
X1410658Y-8600650D02*
X1439229Y-8600650D01*
X1439229Y-8600650D02*
X1458277Y-8610174D01*
X1458277Y-8610174D02*
X1467801Y-8629222D01*
X1467801Y-8629222D02*
X1467801Y-8733984D01*
X1467801Y-8629222D02*
X1477324Y-8610174D01*
X1477324Y-8610174D02*
X1496372Y-8600650D01*
X1496372Y-8600650D02*
X1524943Y-8600650D01*
X1524943Y-8600650D02*
X1543991Y-8610174D01*
X1543991Y-8610174D02*
X1553515Y-8629222D01*
X1553515Y-8629222D02*
X1553515Y-8733984D01*
X1943991Y-8524460D02*
X1772563Y-8781603D01*
X2201134Y-8533984D02*
X2220182Y-8533984D01*
X2220182Y-8533984D02*
X2239229Y-8543508D01*
X2239229Y-8543508D02*
X2248753Y-8553031D01*
X2248753Y-8553031D02*
X2258277Y-8572079D01*
X2258277Y-8572079D02*
X2267801Y-8610174D01*
X2267801Y-8610174D02*
X2267801Y-8657793D01*
X2267801Y-8657793D02*
X2258277Y-8695889D01*
X2258277Y-8695889D02*
X2248753Y-8714936D01*
X2248753Y-8714936D02*
X2239229Y-8724460D01*
X2239229Y-8724460D02*
X2220182Y-8733984D01*
X2220182Y-8733984D02*
X2201134Y-8733984D01*
X2201134Y-8733984D02*
X2182087Y-8724460D01*
X2182087Y-8724460D02*
X2172563Y-8714936D01*
X2172563Y-8714936D02*
X2163039Y-8695889D01*
X2163039Y-8695889D02*
X2153515Y-8657793D01*
X2153515Y-8657793D02*
X2153515Y-8610174D01*
X2153515Y-8610174D02*
X2163039Y-8572079D01*
X2163039Y-8572079D02*
X2172563Y-8553031D01*
X2172563Y-8553031D02*
X2182087Y-8543508D01*
X2182087Y-8543508D02*
X2201134Y-8533984D01*
X2353515Y-8714936D02*
X2363039Y-8724460D01*
X2363039Y-8724460D02*
X2353515Y-8733984D01*
X2353515Y-8733984D02*
X2343991Y-8724460D01*
X2343991Y-8724460D02*
X2353515Y-8714936D01*
X2353515Y-8714936D02*
X2353515Y-8733984D01*
X2486848Y-8533984D02*
X2505896Y-8533984D01*
X2505896Y-8533984D02*
X2524944Y-8543508D01*
X2524944Y-8543508D02*
X2534468Y-8553031D01*
X2534468Y-8553031D02*
X2543991Y-8572079D01*
X2543991Y-8572079D02*
X2553515Y-8610174D01*
X2553515Y-8610174D02*
X2553515Y-8657793D01*
X2553515Y-8657793D02*
X2543991Y-8695889D01*
X2543991Y-8695889D02*
X2534468Y-8714936D01*
X2534468Y-8714936D02*
X2524944Y-8724460D01*
X2524944Y-8724460D02*
X2505896Y-8733984D01*
X2505896Y-8733984D02*
X2486848Y-8733984D01*
X2486848Y-8733984D02*
X2467801Y-8724460D01*
X2467801Y-8724460D02*
X2458277Y-8714936D01*
X2458277Y-8714936D02*
X2448753Y-8695889D01*
X2448753Y-8695889D02*
X2439229Y-8657793D01*
X2439229Y-8657793D02*
X2439229Y-8610174D01*
X2439229Y-8610174D02*
X2448753Y-8572079D01*
X2448753Y-8572079D02*
X2458277Y-8553031D01*
X2458277Y-8553031D02*
X2467801Y-8543508D01*
X2467801Y-8543508D02*
X2486848Y-8533984D01*
X2629706Y-8553031D02*
X2639229Y-8543508D01*
X2639229Y-8543508D02*
X2658277Y-8533984D01*
X2658277Y-8533984D02*
X2705896Y-8533984D01*
X2705896Y-8533984D02*
X2724944Y-8543508D01*
X2724944Y-8543508D02*
X2734468Y-8553031D01*
X2734468Y-8553031D02*
X2743991Y-8572079D01*
X2743991Y-8572079D02*
X2743991Y-8591127D01*
X2743991Y-8591127D02*
X2734468Y-8619698D01*
X2734468Y-8619698D02*
X2620182Y-8733984D01*
X2620182Y-8733984D02*
X2743991Y-8733984D01*
X2924944Y-8533984D02*
X2829706Y-8533984D01*
X2829706Y-8533984D02*
X2820182Y-8629222D01*
X2820182Y-8629222D02*
X2829706Y-8619698D01*
X2829706Y-8619698D02*
X2848753Y-8610174D01*
X2848753Y-8610174D02*
X2896372Y-8610174D01*
X2896372Y-8610174D02*
X2915420Y-8619698D01*
X2915420Y-8619698D02*
X2924944Y-8629222D01*
X2924944Y-8629222D02*
X2934467Y-8648270D01*
X2934467Y-8648270D02*
X2934467Y-8695889D01*
X2934467Y-8695889D02*
X2924944Y-8714936D01*
X2924944Y-8714936D02*
X2915420Y-8724460D01*
X2915420Y-8724460D02*
X2896372Y-8733984D01*
X2896372Y-8733984D02*
X2848753Y-8733984D01*
X2848753Y-8733984D02*
X2829706Y-8724460D01*
X2829706Y-8724460D02*
X2820182Y-8714936D01*
X3105896Y-8533984D02*
X3067801Y-8533984D01*
X3067801Y-8533984D02*
X3048753Y-8543508D01*
X3048753Y-8543508D02*
X3039229Y-8553031D01*
X3039229Y-8553031D02*
X3020182Y-8581603D01*
X3020182Y-8581603D02*
X3010658Y-8619698D01*
X3010658Y-8619698D02*
X3010658Y-8695889D01*
X3010658Y-8695889D02*
X3020182Y-8714936D01*
X3020182Y-8714936D02*
X3029706Y-8724460D01*
X3029706Y-8724460D02*
X3048753Y-8733984D01*
X3048753Y-8733984D02*
X3086848Y-8733984D01*
X3086848Y-8733984D02*
X3105896Y-8724460D01*
X3105896Y-8724460D02*
X3115420Y-8714936D01*
X3115420Y-8714936D02*
X3124944Y-8695889D01*
X3124944Y-8695889D02*
X3124944Y-8648270D01*
X3124944Y-8648270D02*
X3115420Y-8629222D01*
X3115420Y-8629222D02*
X3105896Y-8619698D01*
X3105896Y-8619698D02*
X3086848Y-8610174D01*
X3086848Y-8610174D02*
X3048753Y-8610174D01*
X3048753Y-8610174D02*
X3029706Y-8619698D01*
X3029706Y-8619698D02*
X3020182Y-8629222D01*
X3020182Y-8629222D02*
X3010658Y-8648270D01*
X3201134Y-8533984D02*
X3201134Y-8572079D01*
X3277325Y-8533984D02*
X3277325Y-8572079D01*
X3572563Y-8810174D02*
X3563039Y-8800650D01*
X3563039Y-8800650D02*
X3543991Y-8772079D01*
X3543991Y-8772079D02*
X3534468Y-8753031D01*
X3534468Y-8753031D02*
X3524944Y-8724460D01*
X3524944Y-8724460D02*
X3515420Y-8676841D01*
X3515420Y-8676841D02*
X3515420Y-8638746D01*
X3515420Y-8638746D02*
X3524944Y-8591127D01*
X3524944Y-8591127D02*
X3534468Y-8562555D01*
X3534468Y-8562555D02*
X3543991Y-8543508D01*
X3543991Y-8543508D02*
X3563039Y-8514936D01*
X3563039Y-8514936D02*
X3572563Y-8505412D01*
X3639229Y-8553031D02*
X3648753Y-8543508D01*
X3648753Y-8543508D02*
X3667801Y-8533984D01*
X3667801Y-8533984D02*
X3715420Y-8533984D01*
X3715420Y-8533984D02*
X3734468Y-8543508D01*
X3734468Y-8543508D02*
X3743991Y-8553031D01*
X3743991Y-8553031D02*
X3753515Y-8572079D01*
X3753515Y-8572079D02*
X3753515Y-8591127D01*
X3753515Y-8591127D02*
X3743991Y-8619698D01*
X3743991Y-8619698D02*
X3629706Y-8733984D01*
X3629706Y-8733984D02*
X3753515Y-8733984D01*
X3991610Y-8733984D02*
X3991610Y-8533984D01*
X4077325Y-8733984D02*
X4077325Y-8629222D01*
X4077325Y-8629222D02*
X4067801Y-8610174D01*
X4067801Y-8610174D02*
X4048753Y-8600650D01*
X4048753Y-8600650D02*
X4020182Y-8600650D01*
X4020182Y-8600650D02*
X4001134Y-8610174D01*
X4001134Y-8610174D02*
X3991610Y-8619698D01*
X4201134Y-8733984D02*
X4182087Y-8724460D01*
X4182087Y-8724460D02*
X4172563Y-8714936D01*
X4172563Y-8714936D02*
X4163039Y-8695889D01*
X4163039Y-8695889D02*
X4163039Y-8638746D01*
X4163039Y-8638746D02*
X4172563Y-8619698D01*
X4172563Y-8619698D02*
X4182087Y-8610174D01*
X4182087Y-8610174D02*
X4201134Y-8600650D01*
X4201134Y-8600650D02*
X4229706Y-8600650D01*
X4229706Y-8600650D02*
X4248753Y-8610174D01*
X4248753Y-8610174D02*
X4258277Y-8619698D01*
X4258277Y-8619698D02*
X4267801Y-8638746D01*
X4267801Y-8638746D02*
X4267801Y-8695889D01*
X4267801Y-8695889D02*
X4258277Y-8714936D01*
X4258277Y-8714936D02*
X4248753Y-8724460D01*
X4248753Y-8724460D02*
X4229706Y-8733984D01*
X4229706Y-8733984D02*
X4201134Y-8733984D01*
X4382087Y-8733984D02*
X4363039Y-8724460D01*
X4363039Y-8724460D02*
X4353515Y-8705412D01*
X4353515Y-8705412D02*
X4353515Y-8533984D01*
X4534468Y-8724460D02*
X4515420Y-8733984D01*
X4515420Y-8733984D02*
X4477325Y-8733984D01*
X4477325Y-8733984D02*
X4458277Y-8724460D01*
X4458277Y-8724460D02*
X4448753Y-8705412D01*
X4448753Y-8705412D02*
X4448753Y-8629222D01*
X4448753Y-8629222D02*
X4458277Y-8610174D01*
X4458277Y-8610174D02*
X4477325Y-8600650D01*
X4477325Y-8600650D02*
X4515420Y-8600650D01*
X4515420Y-8600650D02*
X4534468Y-8610174D01*
X4534468Y-8610174D02*
X4543992Y-8629222D01*
X4543992Y-8629222D02*
X4543992Y-8648270D01*
X4543992Y-8648270D02*
X4448753Y-8667317D01*
X4620182Y-8724460D02*
X4639230Y-8733984D01*
X4639230Y-8733984D02*
X4677325Y-8733984D01*
X4677325Y-8733984D02*
X4696373Y-8724460D01*
X4696373Y-8724460D02*
X4705896Y-8705412D01*
X4705896Y-8705412D02*
X4705896Y-8695889D01*
X4705896Y-8695889D02*
X4696373Y-8676841D01*
X4696373Y-8676841D02*
X4677325Y-8667317D01*
X4677325Y-8667317D02*
X4648753Y-8667317D01*
X4648753Y-8667317D02*
X4629706Y-8657793D01*
X4629706Y-8657793D02*
X4620182Y-8638746D01*
X4620182Y-8638746D02*
X4620182Y-8629222D01*
X4620182Y-8629222D02*
X4629706Y-8610174D01*
X4629706Y-8610174D02*
X4648753Y-8600650D01*
X4648753Y-8600650D02*
X4677325Y-8600650D01*
X4677325Y-8600650D02*
X4696373Y-8610174D01*
X4772563Y-8810174D02*
X4782087Y-8800650D01*
X4782087Y-8800650D02*
X4801134Y-8772079D01*
X4801134Y-8772079D02*
X4810658Y-8753031D01*
X4810658Y-8753031D02*
X4820182Y-8724460D01*
X4820182Y-8724460D02*
X4829706Y-8676841D01*
X4829706Y-8676841D02*
X4829706Y-8638746D01*
X4829706Y-8638746D02*
X4820182Y-8591127D01*
X4820182Y-8591127D02*
X4810658Y-8562555D01*
X4810658Y-8562555D02*
X4801134Y-8543508D01*
X4801134Y-8543508D02*
X4782087Y-8514936D01*
X4782087Y-8514936D02*
X4772563Y-8505412D01*
X5134468Y-8810174D02*
X5124944Y-8800650D01*
X5124944Y-8800650D02*
X5105896Y-8772079D01*
X5105896Y-8772079D02*
X5096373Y-8753031D01*
X5096373Y-8753031D02*
X5086849Y-8724460D01*
X5086849Y-8724460D02*
X5077325Y-8676841D01*
X5077325Y-8676841D02*
X5077325Y-8638746D01*
X5077325Y-8638746D02*
X5086849Y-8591127D01*
X5086849Y-8591127D02*
X5096373Y-8562555D01*
X5096373Y-8562555D02*
X5105896Y-8543508D01*
X5105896Y-8543508D02*
X5124944Y-8514936D01*
X5124944Y-8514936D02*
X5134468Y-8505412D01*
X5210658Y-8600650D02*
X5210658Y-8733984D01*
X5210658Y-8619698D02*
X5220182Y-8610174D01*
X5220182Y-8610174D02*
X5239230Y-8600650D01*
X5239230Y-8600650D02*
X5267801Y-8600650D01*
X5267801Y-8600650D02*
X5286849Y-8610174D01*
X5286849Y-8610174D02*
X5296373Y-8629222D01*
X5296373Y-8629222D02*
X5296373Y-8733984D01*
X5420182Y-8733984D02*
X5401134Y-8724460D01*
X5401134Y-8724460D02*
X5391611Y-8714936D01*
X5391611Y-8714936D02*
X5382087Y-8695889D01*
X5382087Y-8695889D02*
X5382087Y-8638746D01*
X5382087Y-8638746D02*
X5391611Y-8619698D01*
X5391611Y-8619698D02*
X5401134Y-8610174D01*
X5401134Y-8610174D02*
X5420182Y-8600650D01*
X5420182Y-8600650D02*
X5448754Y-8600650D01*
X5448754Y-8600650D02*
X5467801Y-8610174D01*
X5467801Y-8610174D02*
X5477325Y-8619698D01*
X5477325Y-8619698D02*
X5486849Y-8638746D01*
X5486849Y-8638746D02*
X5486849Y-8695889D01*
X5486849Y-8695889D02*
X5477325Y-8714936D01*
X5477325Y-8714936D02*
X5467801Y-8724460D01*
X5467801Y-8724460D02*
X5448754Y-8733984D01*
X5448754Y-8733984D02*
X5420182Y-8733984D01*
X5543992Y-8600650D02*
X5620182Y-8600650D01*
X5572563Y-8533984D02*
X5572563Y-8705412D01*
X5572563Y-8705412D02*
X5582087Y-8724460D01*
X5582087Y-8724460D02*
X5601134Y-8733984D01*
X5601134Y-8733984D02*
X5620182Y-8733984D01*
X5839230Y-8600650D02*
X5839230Y-8800650D01*
X5839230Y-8610174D02*
X5858277Y-8600650D01*
X5858277Y-8600650D02*
X5896373Y-8600650D01*
X5896373Y-8600650D02*
X5915420Y-8610174D01*
X5915420Y-8610174D02*
X5924944Y-8619698D01*
X5924944Y-8619698D02*
X5934468Y-8638746D01*
X5934468Y-8638746D02*
X5934468Y-8695889D01*
X5934468Y-8695889D02*
X5924944Y-8714936D01*
X5924944Y-8714936D02*
X5915420Y-8724460D01*
X5915420Y-8724460D02*
X5896373Y-8733984D01*
X5896373Y-8733984D02*
X5858277Y-8733984D01*
X5858277Y-8733984D02*
X5839230Y-8724460D01*
X6048753Y-8733984D02*
X6029706Y-8724460D01*
X6029706Y-8724460D02*
X6020182Y-8705412D01*
X6020182Y-8705412D02*
X6020182Y-8533984D01*
X6210658Y-8733984D02*
X6210658Y-8629222D01*
X6210658Y-8629222D02*
X6201134Y-8610174D01*
X6201134Y-8610174D02*
X6182087Y-8600650D01*
X6182087Y-8600650D02*
X6143992Y-8600650D01*
X6143992Y-8600650D02*
X6124944Y-8610174D01*
X6210658Y-8724460D02*
X6191611Y-8733984D01*
X6191611Y-8733984D02*
X6143992Y-8733984D01*
X6143992Y-8733984D02*
X6124944Y-8724460D01*
X6124944Y-8724460D02*
X6115420Y-8705412D01*
X6115420Y-8705412D02*
X6115420Y-8686365D01*
X6115420Y-8686365D02*
X6124944Y-8667317D01*
X6124944Y-8667317D02*
X6143992Y-8657793D01*
X6143992Y-8657793D02*
X6191611Y-8657793D01*
X6191611Y-8657793D02*
X6210658Y-8648270D01*
X6277325Y-8600650D02*
X6353515Y-8600650D01*
X6305896Y-8533984D02*
X6305896Y-8705412D01*
X6305896Y-8705412D02*
X6315420Y-8724460D01*
X6315420Y-8724460D02*
X6334468Y-8733984D01*
X6334468Y-8733984D02*
X6353515Y-8733984D01*
X6496373Y-8724460D02*
X6477325Y-8733984D01*
X6477325Y-8733984D02*
X6439230Y-8733984D01*
X6439230Y-8733984D02*
X6420182Y-8724460D01*
X6420182Y-8724460D02*
X6410658Y-8705412D01*
X6410658Y-8705412D02*
X6410658Y-8629222D01*
X6410658Y-8629222D02*
X6420182Y-8610174D01*
X6420182Y-8610174D02*
X6439230Y-8600650D01*
X6439230Y-8600650D02*
X6477325Y-8600650D01*
X6477325Y-8600650D02*
X6496373Y-8610174D01*
X6496373Y-8610174D02*
X6505896Y-8629222D01*
X6505896Y-8629222D02*
X6505896Y-8648270D01*
X6505896Y-8648270D02*
X6410658Y-8667317D01*
X6677325Y-8733984D02*
X6677325Y-8533984D01*
X6677325Y-8724460D02*
X6658277Y-8733984D01*
X6658277Y-8733984D02*
X6620182Y-8733984D01*
X6620182Y-8733984D02*
X6601134Y-8724460D01*
X6601134Y-8724460D02*
X6591611Y-8714936D01*
X6591611Y-8714936D02*
X6582087Y-8695889D01*
X6582087Y-8695889D02*
X6582087Y-8638746D01*
X6582087Y-8638746D02*
X6591611Y-8619698D01*
X6591611Y-8619698D02*
X6601134Y-8610174D01*
X6601134Y-8610174D02*
X6620182Y-8600650D01*
X6620182Y-8600650D02*
X6658277Y-8600650D01*
X6658277Y-8600650D02*
X6677325Y-8610174D01*
X6753515Y-8810174D02*
X6763039Y-8800650D01*
X6763039Y-8800650D02*
X6782087Y-8772079D01*
X6782087Y-8772079D02*
X6791611Y-8753031D01*
X6791611Y-8753031D02*
X6801134Y-8724460D01*
X6801134Y-8724460D02*
X6810658Y-8676841D01*
X6810658Y-8676841D02*
X6810658Y-8638746D01*
X6810658Y-8638746D02*
X6801134Y-8591127D01*
X6801134Y-8591127D02*
X6791611Y-8562555D01*
X6791611Y-8562555D02*
X6782087Y-8543508D01*
X6782087Y-8543508D02*
X6763039Y-8514936D01*
X6763039Y-8514936D02*
X6753515Y-8505412D01*
X-2500Y-8906500D02*
G75*
G02*
X-202500Y-8906500I-100000J0D01*
G01*
X-202500Y-8906500D02*
G75*
G02*
X-2500Y-8906500I100000J0D01*
G01*
X239229Y-8797984D02*
X363039Y-8797984D01*
X363039Y-8797984D02*
X296372Y-8874174D01*
X296372Y-8874174D02*
X324944Y-8874174D01*
X324944Y-8874174D02*
X343991Y-8883698D01*
X343991Y-8883698D02*
X353515Y-8893222D01*
X353515Y-8893222D02*
X363039Y-8912270D01*
X363039Y-8912270D02*
X363039Y-8959889D01*
X363039Y-8959889D02*
X353515Y-8978936D01*
X353515Y-8978936D02*
X343991Y-8988460D01*
X343991Y-8988460D02*
X324944Y-8997984D01*
X324944Y-8997984D02*
X267801Y-8997984D01*
X267801Y-8997984D02*
X248753Y-8988460D01*
X248753Y-8988460D02*
X239229Y-8978936D01*
X448753Y-8978936D02*
X458277Y-8988460D01*
X458277Y-8988460D02*
X448753Y-8997984D01*
X448753Y-8997984D02*
X439229Y-8988460D01*
X439229Y-8988460D02*
X448753Y-8978936D01*
X448753Y-8978936D02*
X448753Y-8997984D01*
X534467Y-8817031D02*
X543991Y-8807508D01*
X543991Y-8807508D02*
X563039Y-8797984D01*
X563039Y-8797984D02*
X610658Y-8797984D01*
X610658Y-8797984D02*
X629705Y-8807508D01*
X629705Y-8807508D02*
X639229Y-8817031D01*
X639229Y-8817031D02*
X648753Y-8836079D01*
X648753Y-8836079D02*
X648753Y-8855127D01*
X648753Y-8855127D02*
X639229Y-8883698D01*
X639229Y-8883698D02*
X524944Y-8997984D01*
X524944Y-8997984D02*
X648753Y-8997984D01*
X772562Y-8797984D02*
X791610Y-8797984D01*
X791610Y-8797984D02*
X810658Y-8807508D01*
X810658Y-8807508D02*
X820182Y-8817031D01*
X820182Y-8817031D02*
X829705Y-8836079D01*
X829705Y-8836079D02*
X839229Y-8874174D01*
X839229Y-8874174D02*
X839229Y-8921793D01*
X839229Y-8921793D02*
X829705Y-8959889D01*
X829705Y-8959889D02*
X820182Y-8978936D01*
X820182Y-8978936D02*
X810658Y-8988460D01*
X810658Y-8988460D02*
X791610Y-8997984D01*
X791610Y-8997984D02*
X772562Y-8997984D01*
X772562Y-8997984D02*
X753515Y-8988460D01*
X753515Y-8988460D02*
X743991Y-8978936D01*
X743991Y-8978936D02*
X734467Y-8959889D01*
X734467Y-8959889D02*
X724943Y-8921793D01*
X724943Y-8921793D02*
X724943Y-8874174D01*
X724943Y-8874174D02*
X734467Y-8836079D01*
X734467Y-8836079D02*
X743991Y-8817031D01*
X743991Y-8817031D02*
X753515Y-8807508D01*
X753515Y-8807508D02*
X772562Y-8797984D01*
X963039Y-8797984D02*
X982086Y-8797984D01*
X982086Y-8797984D02*
X1001134Y-8807508D01*
X1001134Y-8807508D02*
X1010658Y-8817031D01*
X1010658Y-8817031D02*
X1020182Y-8836079D01*
X1020182Y-8836079D02*
X1029705Y-8874174D01*
X1029705Y-8874174D02*
X1029705Y-8921793D01*
X1029705Y-8921793D02*
X1020182Y-8959889D01*
X1020182Y-8959889D02*
X1010658Y-8978936D01*
X1010658Y-8978936D02*
X1001134Y-8988460D01*
X1001134Y-8988460D02*
X982086Y-8997984D01*
X982086Y-8997984D02*
X963039Y-8997984D01*
X963039Y-8997984D02*
X943991Y-8988460D01*
X943991Y-8988460D02*
X934467Y-8978936D01*
X934467Y-8978936D02*
X924943Y-8959889D01*
X924943Y-8959889D02*
X915420Y-8921793D01*
X915420Y-8921793D02*
X915420Y-8874174D01*
X915420Y-8874174D02*
X924943Y-8836079D01*
X924943Y-8836079D02*
X934467Y-8817031D01*
X934467Y-8817031D02*
X943991Y-8807508D01*
X943991Y-8807508D02*
X963039Y-8797984D01*
X1115420Y-8997984D02*
X1115420Y-8864650D01*
X1115420Y-8883698D02*
X1124944Y-8874174D01*
X1124944Y-8874174D02*
X1143991Y-8864650D01*
X1143991Y-8864650D02*
X1172563Y-8864650D01*
X1172563Y-8864650D02*
X1191610Y-8874174D01*
X1191610Y-8874174D02*
X1201134Y-8893222D01*
X1201134Y-8893222D02*
X1201134Y-8997984D01*
X1201134Y-8893222D02*
X1210658Y-8874174D01*
X1210658Y-8874174D02*
X1229705Y-8864650D01*
X1229705Y-8864650D02*
X1258277Y-8864650D01*
X1258277Y-8864650D02*
X1277325Y-8874174D01*
X1277325Y-8874174D02*
X1286848Y-8893222D01*
X1286848Y-8893222D02*
X1286848Y-8997984D01*
X1382086Y-8997984D02*
X1382086Y-8864650D01*
X1382086Y-8883698D02*
X1391610Y-8874174D01*
X1391610Y-8874174D02*
X1410658Y-8864650D01*
X1410658Y-8864650D02*
X1439229Y-8864650D01*
X1439229Y-8864650D02*
X1458277Y-8874174D01*
X1458277Y-8874174D02*
X1467801Y-8893222D01*
X1467801Y-8893222D02*
X1467801Y-8997984D01*
X1467801Y-8893222D02*
X1477324Y-8874174D01*
X1477324Y-8874174D02*
X1496372Y-8864650D01*
X1496372Y-8864650D02*
X1524943Y-8864650D01*
X1524943Y-8864650D02*
X1543991Y-8874174D01*
X1543991Y-8874174D02*
X1553515Y-8893222D01*
X1553515Y-8893222D02*
X1553515Y-8997984D01*
X1943991Y-8788460D02*
X1772563Y-9045603D01*
X2201134Y-8797984D02*
X2220182Y-8797984D01*
X2220182Y-8797984D02*
X2239229Y-8807508D01*
X2239229Y-8807508D02*
X2248753Y-8817031D01*
X2248753Y-8817031D02*
X2258277Y-8836079D01*
X2258277Y-8836079D02*
X2267801Y-8874174D01*
X2267801Y-8874174D02*
X2267801Y-8921793D01*
X2267801Y-8921793D02*
X2258277Y-8959889D01*
X2258277Y-8959889D02*
X2248753Y-8978936D01*
X2248753Y-8978936D02*
X2239229Y-8988460D01*
X2239229Y-8988460D02*
X2220182Y-8997984D01*
X2220182Y-8997984D02*
X2201134Y-8997984D01*
X2201134Y-8997984D02*
X2182087Y-8988460D01*
X2182087Y-8988460D02*
X2172563Y-8978936D01*
X2172563Y-8978936D02*
X2163039Y-8959889D01*
X2163039Y-8959889D02*
X2153515Y-8921793D01*
X2153515Y-8921793D02*
X2153515Y-8874174D01*
X2153515Y-8874174D02*
X2163039Y-8836079D01*
X2163039Y-8836079D02*
X2172563Y-8817031D01*
X2172563Y-8817031D02*
X2182087Y-8807508D01*
X2182087Y-8807508D02*
X2201134Y-8797984D01*
X2353515Y-8978936D02*
X2363039Y-8988460D01*
X2363039Y-8988460D02*
X2353515Y-8997984D01*
X2353515Y-8997984D02*
X2343991Y-8988460D01*
X2343991Y-8988460D02*
X2353515Y-8978936D01*
X2353515Y-8978936D02*
X2353515Y-8997984D01*
X2553515Y-8997984D02*
X2439229Y-8997984D01*
X2496372Y-8997984D02*
X2496372Y-8797984D01*
X2496372Y-8797984D02*
X2477325Y-8826555D01*
X2477325Y-8826555D02*
X2458277Y-8845603D01*
X2458277Y-8845603D02*
X2439229Y-8855127D01*
X2629706Y-8817031D02*
X2639229Y-8807508D01*
X2639229Y-8807508D02*
X2658277Y-8797984D01*
X2658277Y-8797984D02*
X2705896Y-8797984D01*
X2705896Y-8797984D02*
X2724944Y-8807508D01*
X2724944Y-8807508D02*
X2734468Y-8817031D01*
X2734468Y-8817031D02*
X2743991Y-8836079D01*
X2743991Y-8836079D02*
X2743991Y-8855127D01*
X2743991Y-8855127D02*
X2734468Y-8883698D01*
X2734468Y-8883698D02*
X2620182Y-8997984D01*
X2620182Y-8997984D02*
X2743991Y-8997984D01*
X2915420Y-8797984D02*
X2877325Y-8797984D01*
X2877325Y-8797984D02*
X2858277Y-8807508D01*
X2858277Y-8807508D02*
X2848753Y-8817031D01*
X2848753Y-8817031D02*
X2829706Y-8845603D01*
X2829706Y-8845603D02*
X2820182Y-8883698D01*
X2820182Y-8883698D02*
X2820182Y-8959889D01*
X2820182Y-8959889D02*
X2829706Y-8978936D01*
X2829706Y-8978936D02*
X2839229Y-8988460D01*
X2839229Y-8988460D02*
X2858277Y-8997984D01*
X2858277Y-8997984D02*
X2896372Y-8997984D01*
X2896372Y-8997984D02*
X2915420Y-8988460D01*
X2915420Y-8988460D02*
X2924944Y-8978936D01*
X2924944Y-8978936D02*
X2934467Y-8959889D01*
X2934467Y-8959889D02*
X2934467Y-8912270D01*
X2934467Y-8912270D02*
X2924944Y-8893222D01*
X2924944Y-8893222D02*
X2915420Y-8883698D01*
X2915420Y-8883698D02*
X2896372Y-8874174D01*
X2896372Y-8874174D02*
X2858277Y-8874174D01*
X2858277Y-8874174D02*
X2839229Y-8883698D01*
X2839229Y-8883698D02*
X2829706Y-8893222D01*
X2829706Y-8893222D02*
X2820182Y-8912270D01*
X3058277Y-8797984D02*
X3077325Y-8797984D01*
X3077325Y-8797984D02*
X3096372Y-8807508D01*
X3096372Y-8807508D02*
X3105896Y-8817031D01*
X3105896Y-8817031D02*
X3115420Y-8836079D01*
X3115420Y-8836079D02*
X3124944Y-8874174D01*
X3124944Y-8874174D02*
X3124944Y-8921793D01*
X3124944Y-8921793D02*
X3115420Y-8959889D01*
X3115420Y-8959889D02*
X3105896Y-8978936D01*
X3105896Y-8978936D02*
X3096372Y-8988460D01*
X3096372Y-8988460D02*
X3077325Y-8997984D01*
X3077325Y-8997984D02*
X3058277Y-8997984D01*
X3058277Y-8997984D02*
X3039229Y-8988460D01*
X3039229Y-8988460D02*
X3029706Y-8978936D01*
X3029706Y-8978936D02*
X3020182Y-8959889D01*
X3020182Y-8959889D02*
X3010658Y-8921793D01*
X3010658Y-8921793D02*
X3010658Y-8874174D01*
X3010658Y-8874174D02*
X3020182Y-8836079D01*
X3020182Y-8836079D02*
X3029706Y-8817031D01*
X3029706Y-8817031D02*
X3039229Y-8807508D01*
X3039229Y-8807508D02*
X3058277Y-8797984D01*
X3201134Y-8797984D02*
X3201134Y-8836079D01*
X3277325Y-8797984D02*
X3277325Y-8836079D01*
X3572563Y-9074174D02*
X3563039Y-9064650D01*
X3563039Y-9064650D02*
X3543991Y-9036079D01*
X3543991Y-9036079D02*
X3534468Y-9017031D01*
X3534468Y-9017031D02*
X3524944Y-8988460D01*
X3524944Y-8988460D02*
X3515420Y-8940841D01*
X3515420Y-8940841D02*
X3515420Y-8902746D01*
X3515420Y-8902746D02*
X3524944Y-8855127D01*
X3524944Y-8855127D02*
X3534468Y-8826555D01*
X3534468Y-8826555D02*
X3543991Y-8807508D01*
X3543991Y-8807508D02*
X3563039Y-8778936D01*
X3563039Y-8778936D02*
X3572563Y-8769412D01*
X3734468Y-8864650D02*
X3734468Y-8997984D01*
X3686848Y-8788460D02*
X3639229Y-8931317D01*
X3639229Y-8931317D02*
X3763039Y-8931317D01*
X3991610Y-8997984D02*
X3991610Y-8797984D01*
X4077325Y-8997984D02*
X4077325Y-8893222D01*
X4077325Y-8893222D02*
X4067801Y-8874174D01*
X4067801Y-8874174D02*
X4048753Y-8864650D01*
X4048753Y-8864650D02*
X4020182Y-8864650D01*
X4020182Y-8864650D02*
X4001134Y-8874174D01*
X4001134Y-8874174D02*
X3991610Y-8883698D01*
X4201134Y-8997984D02*
X4182087Y-8988460D01*
X4182087Y-8988460D02*
X4172563Y-8978936D01*
X4172563Y-8978936D02*
X4163039Y-8959889D01*
X4163039Y-8959889D02*
X4163039Y-8902746D01*
X4163039Y-8902746D02*
X4172563Y-8883698D01*
X4172563Y-8883698D02*
X4182087Y-8874174D01*
X4182087Y-8874174D02*
X4201134Y-8864650D01*
X4201134Y-8864650D02*
X4229706Y-8864650D01*
X4229706Y-8864650D02*
X4248753Y-8874174D01*
X4248753Y-8874174D02*
X4258277Y-8883698D01*
X4258277Y-8883698D02*
X4267801Y-8902746D01*
X4267801Y-8902746D02*
X4267801Y-8959889D01*
X4267801Y-8959889D02*
X4258277Y-8978936D01*
X4258277Y-8978936D02*
X4248753Y-8988460D01*
X4248753Y-8988460D02*
X4229706Y-8997984D01*
X4229706Y-8997984D02*
X4201134Y-8997984D01*
X4382087Y-8997984D02*
X4363039Y-8988460D01*
X4363039Y-8988460D02*
X4353515Y-8969412D01*
X4353515Y-8969412D02*
X4353515Y-8797984D01*
X4534468Y-8988460D02*
X4515420Y-8997984D01*
X4515420Y-8997984D02*
X4477325Y-8997984D01*
X4477325Y-8997984D02*
X4458277Y-8988460D01*
X4458277Y-8988460D02*
X4448753Y-8969412D01*
X4448753Y-8969412D02*
X4448753Y-8893222D01*
X4448753Y-8893222D02*
X4458277Y-8874174D01*
X4458277Y-8874174D02*
X4477325Y-8864650D01*
X4477325Y-8864650D02*
X4515420Y-8864650D01*
X4515420Y-8864650D02*
X4534468Y-8874174D01*
X4534468Y-8874174D02*
X4543992Y-8893222D01*
X4543992Y-8893222D02*
X4543992Y-8912270D01*
X4543992Y-8912270D02*
X4448753Y-8931317D01*
X4620182Y-8988460D02*
X4639230Y-8997984D01*
X4639230Y-8997984D02*
X4677325Y-8997984D01*
X4677325Y-8997984D02*
X4696373Y-8988460D01*
X4696373Y-8988460D02*
X4705896Y-8969412D01*
X4705896Y-8969412D02*
X4705896Y-8959889D01*
X4705896Y-8959889D02*
X4696373Y-8940841D01*
X4696373Y-8940841D02*
X4677325Y-8931317D01*
X4677325Y-8931317D02*
X4648753Y-8931317D01*
X4648753Y-8931317D02*
X4629706Y-8921793D01*
X4629706Y-8921793D02*
X4620182Y-8902746D01*
X4620182Y-8902746D02*
X4620182Y-8893222D01*
X4620182Y-8893222D02*
X4629706Y-8874174D01*
X4629706Y-8874174D02*
X4648753Y-8864650D01*
X4648753Y-8864650D02*
X4677325Y-8864650D01*
X4677325Y-8864650D02*
X4696373Y-8874174D01*
X4772563Y-9074174D02*
X4782087Y-9064650D01*
X4782087Y-9064650D02*
X4801134Y-9036079D01*
X4801134Y-9036079D02*
X4810658Y-9017031D01*
X4810658Y-9017031D02*
X4820182Y-8988460D01*
X4820182Y-8988460D02*
X4829706Y-8940841D01*
X4829706Y-8940841D02*
X4829706Y-8902746D01*
X4829706Y-8902746D02*
X4820182Y-8855127D01*
X4820182Y-8855127D02*
X4810658Y-8826555D01*
X4810658Y-8826555D02*
X4801134Y-8807508D01*
X4801134Y-8807508D02*
X4782087Y-8778936D01*
X4782087Y-8778936D02*
X4772563Y-8769412D01*
X5134468Y-9074174D02*
X5124944Y-9064650D01*
X5124944Y-9064650D02*
X5105896Y-9036079D01*
X5105896Y-9036079D02*
X5096373Y-9017031D01*
X5096373Y-9017031D02*
X5086849Y-8988460D01*
X5086849Y-8988460D02*
X5077325Y-8940841D01*
X5077325Y-8940841D02*
X5077325Y-8902746D01*
X5077325Y-8902746D02*
X5086849Y-8855127D01*
X5086849Y-8855127D02*
X5096373Y-8826555D01*
X5096373Y-8826555D02*
X5105896Y-8807508D01*
X5105896Y-8807508D02*
X5124944Y-8778936D01*
X5124944Y-8778936D02*
X5134468Y-8769412D01*
X5210658Y-8864650D02*
X5210658Y-8997984D01*
X5210658Y-8883698D02*
X5220182Y-8874174D01*
X5220182Y-8874174D02*
X5239230Y-8864650D01*
X5239230Y-8864650D02*
X5267801Y-8864650D01*
X5267801Y-8864650D02*
X5286849Y-8874174D01*
X5286849Y-8874174D02*
X5296373Y-8893222D01*
X5296373Y-8893222D02*
X5296373Y-8997984D01*
X5420182Y-8997984D02*
X5401134Y-8988460D01*
X5401134Y-8988460D02*
X5391611Y-8978936D01*
X5391611Y-8978936D02*
X5382087Y-8959889D01*
X5382087Y-8959889D02*
X5382087Y-8902746D01*
X5382087Y-8902746D02*
X5391611Y-8883698D01*
X5391611Y-8883698D02*
X5401134Y-8874174D01*
X5401134Y-8874174D02*
X5420182Y-8864650D01*
X5420182Y-8864650D02*
X5448754Y-8864650D01*
X5448754Y-8864650D02*
X5467801Y-8874174D01*
X5467801Y-8874174D02*
X5477325Y-8883698D01*
X5477325Y-8883698D02*
X5486849Y-8902746D01*
X5486849Y-8902746D02*
X5486849Y-8959889D01*
X5486849Y-8959889D02*
X5477325Y-8978936D01*
X5477325Y-8978936D02*
X5467801Y-8988460D01*
X5467801Y-8988460D02*
X5448754Y-8997984D01*
X5448754Y-8997984D02*
X5420182Y-8997984D01*
X5543992Y-8864650D02*
X5620182Y-8864650D01*
X5572563Y-8797984D02*
X5572563Y-8969412D01*
X5572563Y-8969412D02*
X5582087Y-8988460D01*
X5582087Y-8988460D02*
X5601134Y-8997984D01*
X5601134Y-8997984D02*
X5620182Y-8997984D01*
X5839230Y-8864650D02*
X5839230Y-9064650D01*
X5839230Y-8874174D02*
X5858277Y-8864650D01*
X5858277Y-8864650D02*
X5896373Y-8864650D01*
X5896373Y-8864650D02*
X5915420Y-8874174D01*
X5915420Y-8874174D02*
X5924944Y-8883698D01*
X5924944Y-8883698D02*
X5934468Y-8902746D01*
X5934468Y-8902746D02*
X5934468Y-8959889D01*
X5934468Y-8959889D02*
X5924944Y-8978936D01*
X5924944Y-8978936D02*
X5915420Y-8988460D01*
X5915420Y-8988460D02*
X5896373Y-8997984D01*
X5896373Y-8997984D02*
X5858277Y-8997984D01*
X5858277Y-8997984D02*
X5839230Y-8988460D01*
X6048753Y-8997984D02*
X6029706Y-8988460D01*
X6029706Y-8988460D02*
X6020182Y-8969412D01*
X6020182Y-8969412D02*
X6020182Y-8797984D01*
X6210658Y-8997984D02*
X6210658Y-8893222D01*
X6210658Y-8893222D02*
X6201134Y-8874174D01*
X6201134Y-8874174D02*
X6182087Y-8864650D01*
X6182087Y-8864650D02*
X6143992Y-8864650D01*
X6143992Y-8864650D02*
X6124944Y-8874174D01*
X6210658Y-8988460D02*
X6191611Y-8997984D01*
X6191611Y-8997984D02*
X6143992Y-8997984D01*
X6143992Y-8997984D02*
X6124944Y-8988460D01*
X6124944Y-8988460D02*
X6115420Y-8969412D01*
X6115420Y-8969412D02*
X6115420Y-8950365D01*
X6115420Y-8950365D02*
X6124944Y-8931317D01*
X6124944Y-8931317D02*
X6143992Y-8921793D01*
X6143992Y-8921793D02*
X6191611Y-8921793D01*
X6191611Y-8921793D02*
X6210658Y-8912270D01*
X6277325Y-8864650D02*
X6353515Y-8864650D01*
X6305896Y-8797984D02*
X6305896Y-8969412D01*
X6305896Y-8969412D02*
X6315420Y-8988460D01*
X6315420Y-8988460D02*
X6334468Y-8997984D01*
X6334468Y-8997984D02*
X6353515Y-8997984D01*
X6496373Y-8988460D02*
X6477325Y-8997984D01*
X6477325Y-8997984D02*
X6439230Y-8997984D01*
X6439230Y-8997984D02*
X6420182Y-8988460D01*
X6420182Y-8988460D02*
X6410658Y-8969412D01*
X6410658Y-8969412D02*
X6410658Y-8893222D01*
X6410658Y-8893222D02*
X6420182Y-8874174D01*
X6420182Y-8874174D02*
X6439230Y-8864650D01*
X6439230Y-8864650D02*
X6477325Y-8864650D01*
X6477325Y-8864650D02*
X6496373Y-8874174D01*
X6496373Y-8874174D02*
X6505896Y-8893222D01*
X6505896Y-8893222D02*
X6505896Y-8912270D01*
X6505896Y-8912270D02*
X6410658Y-8931317D01*
X6677325Y-8997984D02*
X6677325Y-8797984D01*
X6677325Y-8988460D02*
X6658277Y-8997984D01*
X6658277Y-8997984D02*
X6620182Y-8997984D01*
X6620182Y-8997984D02*
X6601134Y-8988460D01*
X6601134Y-8988460D02*
X6591611Y-8978936D01*
X6591611Y-8978936D02*
X6582087Y-8959889D01*
X6582087Y-8959889D02*
X6582087Y-8902746D01*
X6582087Y-8902746D02*
X6591611Y-8883698D01*
X6591611Y-8883698D02*
X6601134Y-8874174D01*
X6601134Y-8874174D02*
X6620182Y-8864650D01*
X6620182Y-8864650D02*
X6658277Y-8864650D01*
X6658277Y-8864650D02*
X6677325Y-8874174D01*
X6753515Y-9074174D02*
X6763039Y-9064650D01*
X6763039Y-9064650D02*
X6782087Y-9036079D01*
X6782087Y-9036079D02*
X6791611Y-9017031D01*
X6791611Y-9017031D02*
X6801134Y-8988460D01*
X6801134Y-8988460D02*
X6810658Y-8940841D01*
X6810658Y-8940841D02*
X6810658Y-8902746D01*
X6810658Y-8902746D02*
X6801134Y-8855127D01*
X6801134Y-8855127D02*
X6791611Y-8826555D01*
X6791611Y-8826555D02*
X6782087Y-8807508D01*
X6782087Y-8807508D02*
X6763039Y-8778936D01*
X6763039Y-8778936D02*
X6753515Y-8769412D01*
M02*
