%TF.GenerationSoftware,KiCad,Pcbnew,10.0.5*%
%TF.CreationDate,2026-08-07T22:43:49+02:00*%
%TF.ProjectId,wisp,77697370-2e6b-4696-9361-645f70636258,rev?*%
%TF.SameCoordinates,Original*%
%TF.FileFunction,Soldermask,Bot*%
%TF.FilePolarity,Negative*%
%FSLAX46Y46*%
G04 Gerber Fmt 4.6, Leading zero omitted, Abs format (unit mm)*
G04 Created by KiCad (PCBNEW 10.0.5) date 2026-08-07 22:43:49*
%MOMM*%
%LPD*%
G01*
G04 APERTURE LIST*
G04 Aperture macros list*
%AMRoundRect*
0 Rectangle with rounded corners*
0 $1 Rounding radius*
0 $2 $3 $4 $5 $6 $7 $8 $9 X,Y pos of 4 corners*
0 Add a 4 corners polygon primitive as box body*
4,1,4,$2,$3,$4,$5,$6,$7,$8,$9,$2,$3,0*
0 Add four circle primitives for the rounded corners*
1,1,$1+$1,$2,$3*
1,1,$1+$1,$4,$5*
1,1,$1+$1,$6,$7*
1,1,$1+$1,$8,$9*
0 Add four rect primitives between the rounded corners*
20,1,$1+$1,$2,$3,$4,$5,0*
20,1,$1+$1,$4,$5,$6,$7,0*
20,1,$1+$1,$6,$7,$8,$9,0*
20,1,$1+$1,$8,$9,$2,$3,0*%
G04 Aperture macros list end*
%ADD10R,1.700000X1.700000*%
%ADD11C,1.700000*%
%ADD12C,3.200000*%
%ADD13C,0.650000*%
%ADD14O,2.100000X1.000000*%
%ADD15O,1.600000X1.000000*%
%ADD16RoundRect,0.150000X-0.587500X-0.150000X0.587500X-0.150000X0.587500X0.150000X-0.587500X0.150000X0*%
%ADD17RoundRect,0.250000X-0.250000X-0.475000X0.250000X-0.475000X0.250000X0.475000X-0.250000X0.475000X0*%
%ADD18RoundRect,0.250000X-0.262500X-0.450000X0.262500X-0.450000X0.262500X0.450000X-0.262500X0.450000X0*%
%ADD19RoundRect,0.050000X-0.150000X-0.300000X0.150000X-0.300000X0.150000X0.300000X-0.150000X0.300000X0*%
%ADD20RoundRect,0.150000X-0.825000X-0.150000X0.825000X-0.150000X0.825000X0.150000X-0.825000X0.150000X0*%
%ADD21RoundRect,0.225000X-0.225000X-0.375000X0.225000X-0.375000X0.225000X0.375000X-0.225000X0.375000X0*%
%ADD22RoundRect,0.250000X-0.375000X-0.625000X0.375000X-0.625000X0.375000X0.625000X-0.375000X0.625000X0*%
G04 APERTURE END LIST*
D10*
%TO.C,J3*%
X93333300Y-45000000D03*
D11*
X93333300Y-47540000D03*
X93333300Y-50080000D03*
X93333300Y-52620000D03*
%TD*%
D10*
%TO.C,J5*%
X29333300Y-75000000D03*
D11*
X29333300Y-77540000D03*
%TD*%
D12*
%TO.C,MH4*%
X94666700Y-95000000D03*
%TD*%
%TO.C,MH1*%
X5333300Y-5000000D03*
%TD*%
D13*
%TO.C,J1*%
X20066700Y-14140000D03*
X20066700Y-8360000D03*
D14*
X19536700Y-15570000D03*
D15*
X23716700Y-15570000D03*
D14*
X19536700Y-6930000D03*
D15*
X23716700Y-6930000D03*
%TD*%
D12*
%TO.C,MH3*%
X5333300Y-95000000D03*
%TD*%
D10*
%TO.C,J2*%
X93333300Y-25000000D03*
D11*
X93333300Y-27540000D03*
X93333300Y-30080000D03*
X93333300Y-32620000D03*
%TD*%
D10*
%TO.C,J7*%
X50666700Y-75000000D03*
D11*
X50666700Y-77540000D03*
X50666700Y-80080000D03*
%TD*%
D10*
%TO.C,J9*%
X74666700Y-75000000D03*
D11*
X74666700Y-77540000D03*
X74666700Y-80080000D03*
X74666700Y-82620000D03*
X74666700Y-85160000D03*
X74666700Y-87700000D03*
%TD*%
D12*
%TO.C,MH2*%
X94666700Y-5000000D03*
%TD*%
D10*
%TO.C,J4*%
X93333300Y-65000000D03*
D11*
X93333300Y-67540000D03*
X93333300Y-70080000D03*
X93333300Y-72620000D03*
X93333300Y-75160000D03*
%TD*%
D10*
%TO.C,J8*%
X61333300Y-75000000D03*
D11*
X61333300Y-77540000D03*
X61333300Y-80080000D03*
%TD*%
D10*
%TO.C,J6*%
X40000000Y-75000000D03*
D11*
X40000000Y-77540000D03*
%TD*%
D16*
%TO.C,Q4*%
X25729200Y-88450000D03*
X25729200Y-86550000D03*
X27604200Y-87500000D03*
%TD*%
D17*
%TO.C,C2*%
X39050000Y-38750000D03*
X40950000Y-38750000D03*
%TD*%
D18*
%TO.C,R11*%
X87087500Y-47500000D03*
X88912500Y-47500000D03*
%TD*%
%TO.C,R8*%
X44420800Y-62500000D03*
X46245800Y-62500000D03*
%TD*%
D17*
%TO.C,C1*%
X39050000Y-28750000D03*
X40950000Y-28750000D03*
%TD*%
D19*
%TO.C,D5*%
X39650000Y-70000000D03*
X40350000Y-70000000D03*
%TD*%
D17*
%TO.C,C10*%
X76383300Y-55000000D03*
X78283300Y-55000000D03*
%TD*%
D16*
%TO.C,Q2*%
X28395800Y-39700000D03*
X28395800Y-37800000D03*
X30270800Y-38750000D03*
%TD*%
D17*
%TO.C,C11*%
X87050000Y-32500000D03*
X88950000Y-32500000D03*
%TD*%
D18*
%TO.C,R14*%
X55087500Y-70000000D03*
X56912500Y-70000000D03*
%TD*%
%TO.C,R13*%
X23087500Y-70000000D03*
X24912500Y-70000000D03*
%TD*%
%TO.C,R1*%
X33754200Y-28750000D03*
X35579200Y-28750000D03*
%TD*%
D20*
%TO.C,U1*%
X16191700Y-38195000D03*
X16191700Y-36925000D03*
X16191700Y-35655000D03*
X16191700Y-34385000D03*
X16191700Y-33115000D03*
X16191700Y-31845000D03*
X16191700Y-30575000D03*
X16191700Y-29305000D03*
X21141700Y-29305000D03*
X21141700Y-30575000D03*
X21141700Y-31845000D03*
X21141700Y-33115000D03*
X21141700Y-34385000D03*
X21141700Y-35655000D03*
X21141700Y-36925000D03*
X21141700Y-38195000D03*
%TD*%
D18*
%TO.C,R12*%
X28420800Y-70000000D03*
X30245800Y-70000000D03*
%TD*%
%TO.C,R5*%
X17754200Y-47500000D03*
X19579200Y-47500000D03*
%TD*%
%TO.C,R2*%
X33754200Y-38750000D03*
X35579200Y-38750000D03*
%TD*%
D17*
%TO.C,C3*%
X39050000Y-12500000D03*
X40950000Y-12500000D03*
%TD*%
D19*
%TO.C,D9*%
X74316700Y-70000000D03*
X75016700Y-70000000D03*
%TD*%
%TO.C,D6*%
X50316700Y-70000000D03*
X51016700Y-70000000D03*
%TD*%
%TO.C,D7*%
X60983300Y-70000000D03*
X61683300Y-70000000D03*
%TD*%
D21*
%TO.C,D4*%
X22350000Y-75000000D03*
X25650000Y-75000000D03*
%TD*%
D17*
%TO.C,C6*%
X39050000Y-21250000D03*
X40950000Y-21250000D03*
%TD*%
D19*
%TO.C,D3*%
X87650000Y-27500000D03*
X88350000Y-27500000D03*
%TD*%
D17*
%TO.C,C7*%
X25716700Y-12500000D03*
X27616700Y-12500000D03*
%TD*%
D18*
%TO.C,R10*%
X87087500Y-42500000D03*
X88912500Y-42500000D03*
%TD*%
D17*
%TO.C,C5*%
X55050000Y-21250000D03*
X56950000Y-21250000D03*
%TD*%
D16*
%TO.C,Q3*%
X33729200Y-70950000D03*
X33729200Y-69050000D03*
X35604200Y-70000000D03*
%TD*%
D18*
%TO.C,R4*%
X12420800Y-47500000D03*
X14245800Y-47500000D03*
%TD*%
D19*
%TO.C,D2*%
X90650000Y-22500000D03*
X91350000Y-22500000D03*
%TD*%
D18*
%TO.C,R9*%
X60420800Y-62500000D03*
X62245800Y-62500000D03*
%TD*%
%TO.C,R3*%
X7087500Y-47500000D03*
X8912500Y-47500000D03*
%TD*%
D17*
%TO.C,C4*%
X47050000Y-27500000D03*
X48950000Y-27500000D03*
%TD*%
D16*
%TO.C,Q1*%
X28395800Y-29700000D03*
X28395800Y-27800000D03*
X30270800Y-28750000D03*
%TD*%
D22*
%TO.C,F1*%
X7933300Y-21250000D03*
X10733300Y-21250000D03*
%TD*%
D18*
%TO.C,R6*%
X23087500Y-47500000D03*
X24912500Y-47500000D03*
%TD*%
D17*
%TO.C,C8*%
X44383300Y-55000000D03*
X46283300Y-55000000D03*
%TD*%
D19*
%TO.C,D10*%
X79650000Y-70000000D03*
X80350000Y-70000000D03*
%TD*%
D18*
%TO.C,R7*%
X33754200Y-15000000D03*
X35579200Y-15000000D03*
%TD*%
D19*
%TO.C,D8*%
X66316700Y-70000000D03*
X67016700Y-70000000D03*
%TD*%
D17*
%TO.C,C9*%
X60383300Y-55000000D03*
X62283300Y-55000000D03*
%TD*%
M02*
