M48
; DRILL file KiCad 10.0.5 date 2026-08-08T13:23:32
; FORMAT={-:-/ absolute / metric / decimal}
; #@! TF.CreationDate,2026-08-08T13:23:32+02:00
; #@! TF.GenerationSoftware,Kicad,Pcbnew,10.0.5
; #@! TF.FileFunction,Plated,1,4,PTH
FMAT,2
METRIC
; #@! TA.AperFunction,Plated,PTH,ComponentDrill
T1C0.200
; #@! TA.AperFunction,Plated,PTH,ViaDrill
T2C0.300
; #@! TA.AperFunction,Plated,PTH,ComponentDrill
T3C0.600
; #@! TA.AperFunction,Plated,PTH,ComponentDrill
T4C1.000
%
G90
G05
T1
X27.1Y-15.26
X27.1Y-16.66
X27.8Y-14.56
X27.8Y-15.96
X27.8Y-17.36
X28.5Y-15.26
X28.5Y-16.66
X29.2Y-14.56
X29.2Y-15.96
X29.2Y-17.36
X29.9Y-15.26
X29.9Y-16.66
T2
X2.0Y-10.0
X2.0Y-14.0
X2.0Y-22.0
X2.0Y-26.0
X2.0Y-34.0
X2.0Y-42.0
X2.0Y-46.0
X2.0Y-50.0
X2.0Y-54.0
X2.0Y-58.0
X2.0Y-62.0
X2.0Y-66.0
X2.0Y-70.0
X2.0Y-74.0
X2.0Y-78.0
X2.25Y-36.355
X3.449Y-31.811
X3.792Y-37.335
X3.825Y-25.075
X4.733Y-11.566
X5.562Y-33.355
X5.812Y-65.24
X5.9Y-16.15
X6.0Y-2.0
X6.0Y-6.0
X6.0Y-10.0
X6.0Y-14.0
X6.0Y-22.0
X6.0Y-26.0
X6.0Y-34.0
X6.0Y-38.0
X6.0Y-42.0
X6.0Y-46.0
X6.0Y-50.0
X6.0Y-54.0
X6.0Y-58.0
X6.0Y-62.0
X6.0Y-66.0
X6.0Y-70.0
X6.0Y-74.0
X6.0Y-78.0
X6.046Y-32.08
X6.626Y-33.012
X7.558Y-32.17
X7.806Y-65.898
X7.975Y-25.075
X8.08Y-34.691
X9.15Y-35.955
X9.85Y-13.65
X10.0Y-18.0
X10.0Y-22.0
X10.0Y-26.0
X10.0Y-30.0
X10.0Y-34.0
X10.0Y-38.0
X10.0Y-42.0
X10.0Y-46.0
X10.0Y-50.0
X10.0Y-54.0
X10.0Y-58.0
X10.0Y-62.0
X10.0Y-70.0
X10.0Y-74.0
X10.0Y-78.0
X10.762Y-16.15
X11.179Y-33.339
X11.325Y-25.075
X11.608Y-31.568
X12.634Y-40.377
X13.262Y-36.5
X13.592Y-50.665
X13.962Y-30.0
X14.0Y-18.0
X14.0Y-22.0
X14.0Y-26.0
X14.0Y-34.0
X14.0Y-38.0
X14.0Y-54.0
X14.0Y-62.0
X14.0Y-70.0
X14.0Y-74.0
X14.0Y-78.0
X14.161Y-33.119
X14.925Y-27.7
X15.475Y-25.075
X15.562Y-51.49
X15.595Y-34.562
X15.6Y-10.78
X16.325Y-41.053
X16.374Y-35.955
X16.403Y-16.824
X16.566Y-14.952
X17.239Y-58.191
X17.346Y-30.816
X17.589Y-12.621
X17.6Y-9.51
X17.637Y-22.21
X18.0Y-18.0
X18.0Y-26.0
X18.0Y-30.0
X18.0Y-34.0
X18.0Y-38.0
X18.0Y-42.0
X18.0Y-46.0
X18.0Y-54.0
X18.0Y-58.0
X19.203Y-14.686
X19.489Y-12.621
X19.5Y-9.51
X19.914Y-15.274
X20.346Y-34.463
X20.672Y-48.042
X21.382Y-78.468
X21.436Y-36.537
X21.65Y-8.24
X21.65Y-9.51
X22.0Y-26.0
X22.0Y-30.0
X22.0Y-34.0
X22.0Y-38.0
X22.0Y-46.0
X22.0Y-50.0
X22.0Y-54.0
X22.0Y-58.0
X22.0Y-66.0
X22.0Y-74.0
X23.282Y-78.468
X23.326Y-19.762
X23.776Y-29.882
X23.885Y-27.252
X23.907Y-22.177
X23.919Y-24.406
X24.353Y-19.304
X24.596Y-29.784
X24.806Y-66.607
X24.806Y-74.907
X25.043Y-28.3
X25.2Y-77.25
X25.5Y-54.45
X25.5Y-56.55
X25.8Y-69.3
X25.8Y-71.7
X25.826Y-36.095
X26.0Y-10.0
X26.0Y-14.0
X26.0Y-18.0
X26.0Y-22.0
X26.0Y-30.0
X26.0Y-34.0
X26.0Y-38.0
X26.0Y-46.0
X26.0Y-50.0
X26.0Y-78.0
X26.056Y-66.607
X26.056Y-74.907
X26.5Y-54.45
X26.5Y-56.55
X27.1Y-77.25
X27.525Y-14.985
X27.525Y-16.935
X27.708Y-48.63
X28.2Y-69.3
X28.2Y-71.7
X28.262Y-32.05
X29.212Y-36.15
X29.475Y-14.985
X29.475Y-16.935
X29.961Y-27.939
X30.0Y-10.0
X30.0Y-22.0
X30.0Y-38.0
X30.0Y-46.0
X30.0Y-50.0
X30.0Y-54.0
X30.0Y-58.0
X30.0Y-78.0
X30.537Y-33.95
X30.976Y-27.786
X31.392Y-24.407
X32.034Y-23.144
X32.076Y-32.303
X32.187Y-43.075
X32.817Y-15.131
X32.94Y-27.671
X32.999Y-23.935
X33.521Y-16.374
X33.534Y-28.489
X34.0Y-10.0
X34.0Y-14.0
X34.0Y-18.0
X34.0Y-22.0
X34.0Y-30.0
X34.0Y-38.0
X34.0Y-46.0
X34.0Y-50.0
X34.0Y-66.0
X34.0Y-70.0
X34.0Y-74.0
X34.0Y-78.0
X34.696Y-39.71
X34.932Y-24.703
X35.299Y-17.23
X35.8Y-28.222
X35.85Y-30.0
X35.85Y-36.0
X36.575Y-66.025
X36.775Y-21.598
X36.789Y-15.705
X36.8Y-33.0
X37.062Y-56.45
X37.157Y-19.231
X37.171Y-22.433
X37.47Y-53.063
X37.75Y-30.0
X37.75Y-36.0
X38.0Y-26.0
X38.0Y-38.0
X38.0Y-46.0
X38.0Y-50.0
X38.0Y-54.0
X38.0Y-58.0
X38.0Y-70.0
X38.0Y-74.0
X38.0Y-78.0
X38.4Y-43.0
X38.475Y-66.025
X38.85Y-33.0
X39.15Y-8.24
X39.333Y-45.928
X39.492Y-25.791
X39.655Y-71.055
X40.409Y-66.059
X40.429Y-16.099
X40.571Y-68.429
X40.75Y-33.0
X40.873Y-16.908
X40.9Y-75.7
X41.337Y-24.75
X41.555Y-71.055
X41.995Y-15.705
X42.0Y-10.0
X42.0Y-14.0
X42.0Y-18.0
X42.0Y-22.0
X42.0Y-26.0
X42.0Y-30.0
X42.0Y-34.0
X42.0Y-38.0
X42.0Y-42.0
X42.0Y-46.0
X42.0Y-50.0
X42.0Y-54.0
X42.0Y-58.0
X42.0Y-62.0
X42.0Y-70.0
X42.0Y-78.0
X42.309Y-66.059
X42.4Y-43.0
X42.471Y-68.429
X42.837Y-73.4
X42.982Y-53.284
X43.23Y-22.765
X43.456Y-64.369
X43.75Y-76.5
X43.863Y-69.476
X44.175Y-63.525
X44.825Y-66.475
X45.311Y-41.02
X45.4Y-69.1
X45.402Y-18.818
X45.875Y-66.025
X46.0Y-10.0
X46.0Y-14.0
X46.0Y-18.0
X46.0Y-22.0
X46.0Y-26.0
X46.0Y-30.0
X46.0Y-34.0
X46.0Y-38.0
X46.0Y-42.0
X46.0Y-46.0
X46.0Y-50.0
X46.0Y-54.0
X46.0Y-58.0
X46.0Y-62.0
X46.0Y-70.0
X46.0Y-74.0
X46.0Y-78.0
X46.044Y-76.43
X46.05Y-77.3
X50.0Y-10.0
X50.0Y-14.0
X50.0Y-18.0
X50.0Y-22.0
X50.0Y-26.0
X50.0Y-30.0
X50.0Y-34.0
X50.0Y-38.0
X50.0Y-42.0
X50.0Y-46.0
X50.0Y-50.0
X50.0Y-54.0
X50.0Y-58.0
X52.087Y-16.54
X52.087Y-19.08
X54.0Y-2.0
X54.0Y-6.0
X54.0Y-10.0
X54.0Y-26.0
X54.0Y-30.0
X54.0Y-34.0
X54.0Y-38.0
X54.0Y-42.0
X54.0Y-46.0
X54.0Y-50.0
X54.0Y-54.0
X54.0Y-58.0
X54.0Y-66.0
X54.0Y-74.0
X54.0Y-78.0
X58.0Y-10.0
X58.0Y-14.0
X58.0Y-18.0
X58.0Y-22.0
X58.0Y-26.0
X58.0Y-30.0
X58.0Y-34.0
X58.0Y-38.0
X58.0Y-42.0
X58.0Y-46.0
X58.0Y-50.0
X58.0Y-54.0
X58.0Y-58.0
X58.0Y-62.0
X58.0Y-66.0
X58.0Y-70.0
X58.0Y-74.0
X58.0Y-78.0
T4
X4.5Y-48.0
X4.5Y-50.54
X4.5Y-53.08
X4.5Y-57.0
X4.5Y-59.54
X4.5Y-62.08
X12.0Y-48.0
X12.0Y-50.54
X12.0Y-57.0
X12.0Y-59.54
X12.0Y-62.08
X56.5Y-14.0
X56.5Y-16.54
X56.5Y-19.08
X56.5Y-21.62
X56.5Y-26.0
X56.5Y-28.54
X56.5Y-31.08
X56.5Y-33.62
X56.5Y-38.0
X56.5Y-40.54
X56.5Y-43.08
X56.5Y-45.62
X56.5Y-48.16
X56.5Y-52.0
X56.5Y-54.54
X56.5Y-57.08
X56.5Y-59.62
X56.5Y-62.16
X56.5Y-64.7
X56.5Y-67.24
X56.5Y-69.78
T3
X1.18Y-36.32G85X1.18Y-37.42
G05
X1.18Y-40.75G85X1.18Y-41.35
G05
X9.82Y-36.32G85X9.82Y-37.42
G05
X9.82Y-40.75G85X9.82Y-41.35
G05
M30
